<?xml version="1.0" encoding="UTF-8"?>
<svg id="Layer_1" xmlns="http://www.w3.org/2000/svg" version="1.1" xmlns:xlink="http://www.w3.org/1999/xlink" viewBox="0 0 468 159.73">
  <!-- Generator: Adobe Illustrator 29.5.1, SVG Export Plug-In . SVG Version: 2.1.0 Build 141)  -->
  <defs>
    <style>
      .st0 {
        clip-path: url(#clippath-34);
      }

      .st1 {
        clip-path: url(#clippath-21);
      }

      .st2 {
        fill: #ed2024;
      }

      .st2, .st3, .st4, .st5, .st6, .st7, .st8 {
        font-size: 10.91px;
      }

      .st2, .st4, .st5, .st6, .st7, .st8 {
        font-family: TeXGyrePagellaX-Regular, 'TeXGyrePagellaX Regular';
      }

      .st9 {
        clip-path: url(#clippath-6);
      }

      .st10 {
        clip-path: url(#clippath-7);
      }

      .st11 {
        clip-path: url(#clippath-17);
      }

      .st3 {
        font-family: 'NewPXMI_gnu', NewPXMI;
      }

      .st12 {
        clip-path: url(#clippath-31);
      }

      .st13 {
        clip-path: url(#clippath-15);
      }

      .st14 {
        clip-path: url(#clippath-33);
      }

      .st15 {
        clip-path: url(#clippath-18);
      }

      .st16 {
        clip-path: url(#clippath-4);
      }

      .st17 {
        clip-path: url(#clippath-22);
      }

      .st18 {
        clip-path: url(#clippath-23);
      }

      .st4 {
        fill: #3953a4;
      }

      .st19 {
        clip-path: url(#clippath-9);
      }

      .st20 {
        clip-path: url(#clippath-10);
      }

      .st21 {
        clip-path: url(#clippath-25);
      }

      .st22 {
        clip-path: url(#clippath-27);
      }

      .st23 {
        clip-path: url(#clippath-11);
      }

      .st24, .st25 {
        fill: none;
      }

      .st26 {
        clip-path: url(#clippath-28);
      }

      .st6 {
        fill: #bf7f3f;
      }

      .st27 {
        clip-path: url(#clippath-1);
      }

      .st28 {
        letter-spacing: .25em;
      }

      .st29 {
        clip-path: url(#clippath-5);
      }

      .st30 {
        clip-path: url(#clippath-20);
      }

      .st31 {
        clip-path: url(#clippath-8);
      }

      .st32 {
        clip-path: url(#clippath-3);
      }

      .st33 {
        clip-path: url(#clippath-26);
      }

      .st34 {
        clip-path: url(#clippath-12);
      }

      .st35 {
        clip-path: url(#clippath-14);
      }

      .st36 {
        clip-path: url(#clippath-30);
      }

      .st37 {
        clip-path: url(#clippath-19);
      }

      .st38 {
        clip-path: url(#clippath-32);
      }

      .st7 {
        fill: gray;
      }

      .st39 {
        clip-path: url(#clippath-16);
      }

      .st40 {
        clip-path: url(#clippath-2);
      }

      .st41 {
        clip-path: url(#clippath-29);
      }

      .st25 {
        opacity: .7;
        stroke: #231f20;
        stroke-miterlimit: 10;
      }

      .st42 {
        clip-path: url(#clippath-13);
      }

      .st8 {
        fill: #6abd45;
      }

      .st43 {
        clip-path: url(#clippath-24);
      }

      .st44 {
        clip-path: url(#clippath);
      }

      .st45 {
        letter-spacing: .25em;
      }
    </style>
    <clipPath id="clippath">
      <rect class="st24" x="272.77" y="35.45" width="8.66" height="9.69"/>
    </clipPath>
    <clipPath id="clippath-1">
      <rect class="st24" x="285.77" y="52.97" width="8.66" height="9.69"/>
    </clipPath>
    <clipPath id="clippath-2">
      <rect class="st24" x="275.38" y="15.5" width="7.45" height="9.6"/>
    </clipPath>
    <clipPath id="clippath-3">
      <rect class="st24" x="297.38" y="15.45" width="7.45" height="9.69"/>
    </clipPath>
    <clipPath id="clippath-4">
      <rect class="st24" x="288.38" y="33.5" width="7.45" height="9.6"/>
    </clipPath>
    <clipPath id="clippath-5">
      <rect class="st24" x="310.38" y="33.45" width="7.45" height="9.69"/>
    </clipPath>
    <clipPath id="clippath-6">
      <rect class="st24" x="298.17" y="71.42" width="9.87" height="9.75"/>
    </clipPath>
    <clipPath id="clippath-7">
      <rect class="st24" x="301.38" y="51.5" width="7.45" height="9.6"/>
    </clipPath>
    <clipPath id="clippath-8">
      <rect class="st24" x="323.38" y="51.45" width="7.45" height="9.69"/>
    </clipPath>
    <clipPath id="clippath-9">
      <rect class="st24" x="310.57" y="89.36" width="11.06" height="9.87"/>
    </clipPath>
    <clipPath id="clippath-10">
      <rect class="st24" x="314.38" y="69.5" width="7.45" height="9.6"/>
    </clipPath>
    <clipPath id="clippath-11">
      <rect class="st24" x="336.38" y="69.45" width="7.45" height="9.69"/>
    </clipPath>
    <clipPath id="clippath-12">
      <rect class="st24" x="339.24" y="89.36" width="7.72" height="9.87"/>
    </clipPath>
    <clipPath id="clippath-13">
      <rect class="st24" x="110.77" y="63.45" width="8.66" height="9.69"/>
    </clipPath>
    <clipPath id="clippath-14">
      <rect class="st24" x="130.38" y="25.5" width="7.45" height="9.6"/>
    </clipPath>
    <clipPath id="clippath-15">
      <rect class="st24" x="169.38" y="25.45" width="7.45" height="9.69"/>
    </clipPath>
    <clipPath id="clippath-16">
      <rect class="st24" x="163.38" y="43.5" width="7.45" height="9.6"/>
    </clipPath>
    <clipPath id="clippath-17">
      <rect class="st24" x="185.38" y="43.45" width="7.45" height="9.69"/>
    </clipPath>
    <clipPath id="clippath-18">
      <rect class="st24" x="113.38" y="43.5" width="7.45" height="9.6"/>
    </clipPath>
    <clipPath id="clippath-19">
      <rect class="st24" x="135.38" y="43.45" width="7.45" height="9.69"/>
    </clipPath>
    <clipPath id="clippath-20">
      <rect class="st24" x="172.57" y="82.36" width="11.06" height="9.87"/>
    </clipPath>
    <clipPath id="clippath-21">
      <rect class="st24" x="176.38" y="61.5" width="7.45" height="9.6"/>
    </clipPath>
    <clipPath id="clippath-22">
      <rect class="st24" x="198.38" y="61.45" width="7.45" height="9.69"/>
    </clipPath>
    <clipPath id="clippath-23">
      <rect class="st24" x="201.24" y="82.36" width="7.72" height="9.87"/>
    </clipPath>
    <clipPath id="clippath-24">
      <rect class="st24" x="136.77" y="63.45" width="8.66" height="9.69"/>
    </clipPath>
    <clipPath id="clippath-25">
      <rect class="st24" x="160.17" y="63.42" width="9.87" height="9.75"/>
    </clipPath>
    <clipPath id="clippath-26">
      <rect class="st24" x="245.1" y="115.55" width="127.45" height="24.7"/>
    </clipPath>
    <clipPath id="clippath-27">
      <rect class="st24" x="93.37" y="115.55" width="132.9" height="24.7"/>
    </clipPath>
    <clipPath id="clippath-28">
      <rect class="st24" x="142.47" y="108.8" width="33.02" height="10.2"/>
    </clipPath>
    <clipPath id="clippath-29">
      <rect class="st24" x="291.47" y="108.8" width="33.02" height="10.2"/>
    </clipPath>
    <clipPath id="clippath-30">
      <rect class="st24" x="123.36" y="-.2" width="71.24" height="10.2"/>
    </clipPath>
    <clipPath id="clippath-31">
      <rect class="st24" x="271.36" y="-.2" width="71.24" height="10.2"/>
    </clipPath>
    <clipPath id="clippath-32">
      <rect class="st24" x="232.1" y="110" width="9.76" height="7.8"/>
    </clipPath>
    <clipPath id="clippath-33">
      <rect class="st24" x="151.63" y="148.73" width="14.71" height="12.33"/>
    </clipPath>
    <clipPath id="clippath-34">
      <rect class="st24" x="301.34" y="148.73" width="15.29" height="12.33"/>
    </clipPath>
  </defs>
  <g>
    <g id="LaTeX2AI">
      <g class="st44">
        <text class="st2" transform="translate(273.77 44.09)"><tspan x="0" y="0">E</tspan></text>
      </g>
    </g>
    <g id="LaTeX2AI1" data-name="LaTeX2AI">
      <g class="st27">
        <text class="st8" transform="translate(286.77 61.61)"><tspan x="0" y="0">L</tspan></text>
      </g>
    </g>
    <line class="st25" x1="303.54" y1="32.82" x2="289.98" y2="14.25"/>
    <line class="st25" x1="276.96" y1="32.82" x2="290.51" y2="14.25"/>
    <g id="LaTeX2AI2" data-name="LaTeX2AI">
      <g class="st40">
        <text class="st5" transform="translate(276.37 23.87)"><tspan x="0" y="0">0</tspan></text>
      </g>
    </g>
    <g id="LaTeX2AI3" data-name="LaTeX2AI">
      <g class="st32">
        <text class="st5" transform="translate(298.37 24.09)"><tspan x="0" y="0">1</tspan></text>
      </g>
    </g>
    <line class="st25" x1="316.54" y1="50.82" x2="302.98" y2="32.25"/>
    <line class="st25" x1="289.96" y1="50.82" x2="303.51" y2="32.25"/>
    <g id="LaTeX2AI4" data-name="LaTeX2AI">
      <g class="st16">
        <text class="st5" transform="translate(289.37 41.87)"><tspan x="0" y="0">0</tspan></text>
      </g>
    </g>
    <g id="LaTeX2AI5" data-name="LaTeX2AI">
      <g class="st29">
        <text class="st5" transform="translate(311.37 42.09)"><tspan x="0" y="0">1</tspan></text>
      </g>
    </g>
    <g id="LaTeX2AI6" data-name="LaTeX2AI">
      <g class="st9">
        <text class="st4" transform="translate(299.16 80.06)"><tspan x="0" y="0">V</tspan></text>
      </g>
    </g>
    <line class="st25" x1="329.54" y1="68.82" x2="315.98" y2="50.25"/>
    <line class="st25" x1="302.96" y1="68.82" x2="316.51" y2="50.25"/>
    <g id="LaTeX2AI7" data-name="LaTeX2AI">
      <g class="st10">
        <text class="st5" transform="translate(302.37 59.87)"><tspan x="0" y="0">0</tspan></text>
      </g>
    </g>
    <g id="LaTeX2AI8" data-name="LaTeX2AI">
      <g class="st31">
        <text class="st5" transform="translate(324.37 60.09)"><tspan x="0" y="0">1</tspan></text>
      </g>
    </g>
    <g id="LaTeX2AI9" data-name="LaTeX2AI">
      <g class="st19">
        <text class="st6" transform="translate(311.57 98)"><tspan x="0" y="0">N</tspan></text>
      </g>
    </g>
    <line class="st25" x1="342.54" y1="86.82" x2="328.98" y2="68.25"/>
    <line class="st25" x1="315.96" y1="86.82" x2="329.51" y2="68.25"/>
    <g id="LaTeX2AI10" data-name="LaTeX2AI">
      <g class="st20">
        <text class="st5" transform="translate(315.37 77.87)"><tspan x="0" y="0">0</tspan></text>
      </g>
    </g>
    <g id="LaTeX2AI11" data-name="LaTeX2AI">
      <g class="st23">
        <text class="st5" transform="translate(337.37 78.09)"><tspan x="0" y="0">1</tspan></text>
      </g>
    </g>
    <g id="LaTeX2AI12" data-name="LaTeX2AI">
      <g class="st34">
        <text class="st7" transform="translate(340.24 98)"><tspan x="0" y="0">S</tspan></text>
      </g>
    </g>
  </g>
  <g id="LaTeX2AI13" data-name="LaTeX2AI">
    <g class="st42">
      <text class="st2" transform="translate(111.77 72.09)"><tspan x="0" y="0">E</tspan></text>
    </g>
  </g>
  <line class="st25" x1="178.54" y1="42.82" x2="152.7" y2="24.25"/>
  <line class="st25" x1="127.87" y1="42.82" x2="153.71" y2="24.25"/>
  <g id="LaTeX2AI14" data-name="LaTeX2AI">
    <g class="st35">
      <text class="st5" transform="translate(131.37 33.87)"><tspan x="0" y="0">0</tspan></text>
    </g>
  </g>
  <g id="LaTeX2AI15" data-name="LaTeX2AI">
    <g class="st13">
      <text class="st5" transform="translate(170.37 34.09)"><tspan x="0" y="0">1</tspan></text>
    </g>
  </g>
  <line class="st25" x1="191.54" y1="60.82" x2="177.98" y2="42.25"/>
  <line class="st25" x1="164.96" y1="60.82" x2="178.51" y2="42.25"/>
  <g id="LaTeX2AI16" data-name="LaTeX2AI">
    <g class="st39">
      <text class="st5" transform="translate(164.37 51.87)"><tspan x="0" y="0">0</tspan></text>
    </g>
  </g>
  <g id="LaTeX2AI17" data-name="LaTeX2AI">
    <g class="st11">
      <text class="st5" transform="translate(186.37 52.09)"><tspan x="0" y="0">1</tspan></text>
    </g>
  </g>
  <line class="st25" x1="141.54" y1="60.82" x2="127.98" y2="42.25"/>
  <line class="st25" x1="114.96" y1="60.82" x2="128.51" y2="42.25"/>
  <g id="LaTeX2AI18" data-name="LaTeX2AI">
    <g class="st15">
      <text class="st5" transform="translate(114.37 51.87)"><tspan x="0" y="0">0</tspan></text>
    </g>
  </g>
  <g id="LaTeX2AI19" data-name="LaTeX2AI">
    <g class="st37">
      <text class="st5" transform="translate(136.37 52.09)"><tspan x="0" y="0">1</tspan></text>
    </g>
  </g>
  <g id="LaTeX2AI20" data-name="LaTeX2AI">
    <g class="st30">
      <text class="st6" transform="translate(173.57 91)"><tspan x="0" y="0">N</tspan></text>
    </g>
  </g>
  <line class="st25" x1="204.54" y1="78.82" x2="190.98" y2="60.25"/>
  <line class="st25" x1="177.96" y1="78.82" x2="191.51" y2="60.25"/>
  <g id="LaTeX2AI21" data-name="LaTeX2AI">
    <g class="st1">
      <text class="st5" transform="translate(177.37 69.87)"><tspan x="0" y="0">0</tspan></text>
    </g>
  </g>
  <g id="LaTeX2AI22" data-name="LaTeX2AI">
    <g class="st17">
      <text class="st5" transform="translate(199.37 70.09)"><tspan x="0" y="0">1</tspan></text>
    </g>
  </g>
  <g id="LaTeX2AI23" data-name="LaTeX2AI">
    <g class="st18">
      <text class="st7" transform="translate(202.24 91)"><tspan x="0" y="0">S</tspan></text>
    </g>
  </g>
  <g id="LaTeX2AI24" data-name="LaTeX2AI">
    <g class="st43">
      <text class="st8" transform="translate(137.77 72.09)"><tspan x="0" y="0">L</tspan></text>
    </g>
  </g>
  <g id="LaTeX2AI25" data-name="LaTeX2AI">
    <g class="st21">
      <text class="st4" transform="translate(161.16 72.06)"><tspan x="0" y="0">V</tspan></text>
    </g>
  </g>
  <g id="LaTeX2AI26" data-name="LaTeX2AI">
    <g class="st33">
      <path d="M252.63,126.11c-2.11,0-4.96.08-6.24,1.8-.08.1-.21.3-.3.3-.03,0-.06-.02-.06-.07,0-.1.09-.29.11-.33,1.03-1.94,3.21-2.73,7.14-2.73h.01v1.03h-.67Z"/>
      <path d="M252.51,126.11v-1.03h2.41v1.03h-2.41ZM254.21,126.11v-1.03h2.41v1.03h-2.41ZM255.9,126.11v-1.03h2.41v1.03h-2.41ZM257.6,126.11v-1.03h2.41v1.03h-2.41ZM259.3,126.11v-1.03h2.41v1.03h-2.41ZM260.99,126.11v-1.03h2.41v1.03h-2.41ZM262.69,126.11v-1.03h2.41v1.03h-2.41ZM264.38,126.11v-1.03h2.41v1.03h-2.41ZM266.08,126.11v-1.03h2.41v1.03h-2.41ZM267.78,126.11v-1.03h2.41v1.03h-2.41ZM269.46,126.11v-1.03h2.41v1.03h-2.41ZM271.16,126.11v-1.03h2.41v1.03h-2.41ZM272.85,126.11v-1.03h2.41v1.03h-2.41ZM274.55,126.11v-1.03h2.41v1.03h-2.41ZM276.25,126.11v-1.03h2.41v1.03h-2.41ZM277.94,126.11v-1.03h2.41v1.03h-2.41ZM279.64,126.11v-1.03h2.41v1.03h-2.41ZM281.34,126.11v-1.03h2.41v1.03h-2.41ZM283.03,126.11v-1.03h2.41v1.03h-2.41ZM284.73,126.11v-1.03h2.41v1.03h-2.41ZM286.42,126.11v-1.03h2.41v1.03h-2.41ZM288.12,126.11v-1.03h2.41v1.03h-2.41ZM289.82,126.11v-1.03h2.41v1.03h-2.41ZM291.51,126.11v-1.03h2.41v1.03h-2.41ZM293.21,126.11v-1.03h2.41v1.03h-2.41ZM294.91,126.11v-1.03h2.41v1.03h-2.41ZM296.6,126.11v-1.03h2.41v1.03h-2.41ZM298.3,126.11v-1.03h2.41v1.03h-2.41ZM299.99,126.11v-1.03h2.41v1.03h-2.41Z"/>
      <path d="M308.77,123.37c-1.03,1.94-3.21,2.73-7.14,2.73h-.01v-1.03h.67c2.11,0,4.96-.08,6.24-1.8.08-.1.21-.3.3-.3.03,0,.06.02.06.07,0,.1-.09.29-.11.33ZM316.02,126.11c-3.93,0-6.1-.79-7.14-2.73-.02-.05-.11-.23-.11-.33,0-.05.02-.07.06-.07.09,0,.22.2.3.3,1.28,1.72,4.12,1.8,6.24,1.8h.67v1.03h-.01Z"/>
      <path d="M315.24,126.11v-1.03h2.41v1.03h-2.41ZM316.94,126.11v-1.03h2.41v1.03h-2.41ZM318.63,126.11v-1.03h2.41v1.03h-2.41ZM320.33,126.11v-1.03h2.41v1.03h-2.41ZM322.03,126.11v-1.03h2.41v1.03h-2.41ZM323.71,126.11v-1.03h2.41v1.03h-2.41ZM325.41,126.11v-1.03h2.41v1.03h-2.41ZM327.1,126.11v-1.03h2.41v1.03h-2.41ZM328.8,126.11v-1.03h2.41v1.03h-2.41ZM330.5,126.11v-1.03h2.41v1.03h-2.41ZM332.19,126.11v-1.03h2.41v1.03h-2.41ZM333.89,126.11v-1.03h2.41v1.03h-2.41ZM335.59,126.11v-1.03h2.41v1.03h-2.41ZM337.28,126.11v-1.03h2.41v1.03h-2.41ZM338.98,126.11v-1.03h2.41v1.03h-2.41ZM340.67,126.11v-1.03h2.41v1.03h-2.41ZM342.37,126.11v-1.03h2.41v1.03h-2.41ZM344.07,126.11v-1.03h2.41v1.03h-2.41ZM345.76,126.11v-1.03h2.41v1.03h-2.41ZM347.46,126.11v-1.03h2.41v1.03h-2.41ZM349.15,126.11v-1.03h2.41v1.03h-2.41ZM350.85,126.11v-1.03h2.41v1.03h-2.41ZM352.55,126.11v-1.03h2.41v1.03h-2.41ZM354.23,126.11v-1.03h2.41v1.03h-2.41ZM355.93,126.11v-1.03h2.41v1.03h-2.41ZM357.63,126.11v-1.03h2.41v1.03h-2.41ZM359.32,126.11v-1.03h2.41v1.03h-2.41ZM361.02,126.11v-1.03h2.41v1.03h-2.41ZM362.71,126.11v-1.03h2.41v1.03h-2.41Z"/>
      <path d="M371.55,128.21c-.09,0-.22-.2-.3-.3-1.28-1.72-4.12-1.8-6.24-1.8h-.67v-1.03h.01c3.93,0,6.1.79,7.14,2.73.02.05.11.23.11.33,0,.05-.02.07-.06.07Z"/>
      <text class="st2" transform="translate(246.1 139.02)"><tspan x="0" y="0">0</tspan></text>
      <text class="st8" transform="translate(251.55 139.02)"><tspan x="0" y="0">10</tspan></text>
      <text class="st2" transform="translate(262.46 139.02)"><tspan x="0" y="0">0</tspan></text>
      <text class="st4" transform="translate(267.91 139.02)"><tspan x="0" y="0">110</tspan></text>
      <text class="st2" transform="translate(284.28 139.02)"><tspan x="0" y="0">0</tspan></text>
      <text class="st6" transform="translate(289.73 139.02)"><tspan x="0" y="0">1110</tspan></text>
      <text class="st2" transform="translate(311.55 139.02)"><tspan x="0" y="0">0</tspan></text>
      <text class="st8" transform="translate(317.01 139.02)"><tspan x="0" y="0">10</tspan></text>
      <text class="st4" transform="translate(327.92 139.02)"><tspan x="0" y="0">110</tspan></text>
      <text class="st2" transform="translate(344.28 139.02)"><tspan x="0" y="0">0</tspan></text>
      <text class="st7" transform="translate(349.73 139.02)"><tspan x="0" y="0">1111</tspan></text>
    </g>
  </g>
  <g id="LaTeX2AI27" data-name="LaTeX2AI">
    <g class="st22">
      <path d="M100.91,126.11c-2.11,0-4.96.08-6.24,1.8-.08.1-.21.3-.3.3-.03,0-.06-.02-.06-.07,0-.1.09-.29.11-.33,1.03-1.94,3.21-2.73,7.14-2.73h.01v1.03h-.67Z"/>
      <path d="M101.3,126.11v-1.03h2.41v1.03h-2.41ZM103,126.11v-1.03h2.41v1.03h-2.41ZM104.69,126.11v-1.03h2.41v1.03h-2.41ZM106.39,126.11v-1.03h2.41v1.03h-2.41ZM108.08,126.11v-1.03h2.41v1.03h-2.41ZM109.78,126.11v-1.03h2.41v1.03h-2.41ZM111.48,126.11v-1.03h2.41v1.03h-2.41ZM113.17,126.11v-1.03h2.41v1.03h-2.41ZM114.87,126.11v-1.03h2.41v1.03h-2.41ZM116.57,126.11v-1.03h2.41v1.03h-2.41ZM118.26,126.11v-1.03h2.41v1.03h-2.41ZM119.96,126.11v-1.03h2.41v1.03h-2.41ZM121.64,126.11v-1.03h2.41v1.03h-2.41ZM123.34,126.11v-1.03h2.41v1.03h-2.41ZM125.04,126.11v-1.03h2.41v1.03h-2.41ZM126.73,126.11v-1.03h2.41v1.03h-2.41ZM128.43,126.11v-1.03h2.41v1.03h-2.41ZM130.13,126.11v-1.03h2.41v1.03h-2.41ZM131.82,126.11v-1.03h2.41v1.03h-2.41ZM133.52,126.11v-1.03h2.41v1.03h-2.41ZM135.21,126.11v-1.03h2.41v1.03h-2.41ZM136.91,126.11v-1.03h2.41v1.03h-2.41ZM138.61,126.11v-1.03h2.41v1.03h-2.41ZM140.3,126.11v-1.03h2.41v1.03h-2.41ZM142,126.11v-1.03h2.41v1.03h-2.41ZM143.7,126.11v-1.03h2.41v1.03h-2.41ZM145.39,126.11v-1.03h2.41v1.03h-2.41ZM147.09,126.11v-1.03h2.41v1.03h-2.41ZM148.78,126.11v-1.03h2.41v1.03h-2.41ZM150.48,126.11v-1.03h2.41v1.03h-2.41Z"/>
      <path d="M159.77,123.37c-1.03,1.94-3.21,2.73-7.14,2.73h-.01v-1.03h.67c2.11,0,4.96-.08,6.24-1.8.08-.1.21-.3.3-.3.03,0,.06.02.06.07,0,.1-.09.29-.11.33ZM167.02,126.11c-3.93,0-6.1-.79-7.14-2.73-.02-.05-.11-.23-.11-.33,0-.05.02-.07.06-.07.09,0,.22.2.3.3,1.28,1.72,4.12,1.8,6.24,1.8h.67v1.03h-.01Z"/>
      <path d="M166.76,126.11v-1.03h2.41v1.03h-2.41ZM168.46,126.11v-1.03h2.41v1.03h-2.41ZM170.14,126.11v-1.03h2.41v1.03h-2.41ZM171.84,126.11v-1.03h2.41v1.03h-2.41ZM173.54,126.11v-1.03h2.41v1.03h-2.41ZM175.23,126.11v-1.03h2.41v1.03h-2.41ZM176.93,126.11v-1.03h2.41v1.03h-2.41ZM178.62,126.11v-1.03h2.41v1.03h-2.41ZM180.32,126.11v-1.03h2.41v1.03h-2.41ZM182.02,126.11v-1.03h2.41v1.03h-2.41ZM183.71,126.11v-1.03h2.41v1.03h-2.41ZM185.41,126.11v-1.03h2.41v1.03h-2.41ZM187.11,126.11v-1.03h2.41v1.03h-2.41ZM188.8,126.11v-1.03h2.41v1.03h-2.41ZM190.5,126.11v-1.03h2.41v1.03h-2.41ZM192.19,126.11v-1.03h2.41v1.03h-2.41ZM193.89,126.11v-1.03h2.41v1.03h-2.41ZM195.59,126.11v-1.03h2.41v1.03h-2.41ZM197.28,126.11v-1.03h2.41v1.03h-2.41ZM198.98,126.11v-1.03h2.41v1.03h-2.41ZM200.66,126.11v-1.03h2.41v1.03h-2.41ZM202.36,126.11v-1.03h2.41v1.03h-2.41ZM204.06,126.11v-1.03h2.41v1.03h-2.41ZM205.75,126.11v-1.03h2.41v1.03h-2.41ZM207.45,126.11v-1.03h2.41v1.03h-2.41ZM209.15,126.11v-1.03h2.41v1.03h-2.41ZM210.84,126.11v-1.03h2.41v1.03h-2.41ZM212.54,126.11v-1.03h2.41v1.03h-2.41ZM214.23,126.11v-1.03h2.41v1.03h-2.41ZM215.93,126.11v-1.03h2.41v1.03h-2.41Z"/>
      <path d="M225.28,128.21c-.09,0-.22-.2-.3-.3-1.28-1.72-4.12-1.8-6.24-1.8h-.67v-1.03h.01c3.93,0,6.1.79,7.14,2.73.02.05.11.23.11.33,0,.05-.02.07-.06.07Z"/>
      <text class="st2" transform="translate(94.37 139.02)"><tspan x="0" y="0">00</tspan></text>
      <text class="st8" transform="translate(105.28 139.02)"><tspan x="0" y="0">01</tspan></text>
      <text class="st2" transform="translate(116.19 139.02)"><tspan x="0" y="0">00</tspan></text>
      <text class="st4" transform="translate(127.1 139.02)"><tspan x="0" y="0">10</tspan></text>
      <text class="st2" transform="translate(138.01 139.02)"><tspan x="0" y="0">00</tspan></text>
      <text class="st6" transform="translate(148.92 139.02)"><tspan x="0" y="0">110</tspan></text>
      <text class="st2" transform="translate(165.28 139.02)"><tspan x="0" y="0">00</tspan></text>
      <text class="st8" transform="translate(176.19 139.02)"><tspan x="0" y="0">01</tspan></text>
      <text class="st4" transform="translate(187.1 139.02)"><tspan x="0" y="0">10</tspan></text>
      <text class="st2" transform="translate(198.01 139.02)"><tspan x="0" y="0">00</tspan></text>
      <text class="st7" transform="translate(208.92 139.02)"><tspan x="0" y="0">111</tspan></text>
    </g>
  </g>
  <g id="LaTeX2AI28" data-name="LaTeX2AI">
    <g class="st26">
      <text class="st5" transform="translate(143.47 117.77)"><tspan x="0" y="0">24</tspan></text>
      <text class="st5" transform="translate(157.11 117.77)"><tspan x="0" y="0">bits</tspan></text>
    </g>
  </g>
  <g id="LaTeX2AI29" data-name="LaTeX2AI">
    <g class="st41">
      <text class="st5" transform="translate(292.47 117.77)"><tspan x="0" y="0">23</tspan></text>
      <text class="st5" transform="translate(306.11 117.77)"><tspan x="0" y="0">bits</tspan></text>
    </g>
  </g>
  <g id="LaTeX2AI30" data-name="LaTeX2AI">
    <g class="st36">
      <text class="st5" transform="translate(124.36 8.77)"><tspan x="0" y="0">Balance</tspan><tspan class="st28" x="35.41" y="0">d</tspan><tspan x="44.29" y="0">code</tspan></text>
    </g>
  </g>
  <g id="LaTeX2AI31" data-name="LaTeX2AI">
    <g class="st12">
      <text class="st5" transform="translate(272.36 8.77)"><tspan x="0" y="0">Huﬀma</tspan><tspan class="st45" x="33.84" y="0">n</tspan><tspan x="42.62" y="0">code</tspan></text>
    </g>
  </g>
  <g id="LaTeX2AI32" data-name="LaTeX2AI">
    <g class="st38">
      <text class="st3" transform="translate(233.33 116.8)"><tspan x="0" y="0">&gt;</tspan></text>
    </g>
  </g>
  <g id="LaTeX2AI33" data-name="LaTeX2AI">
    <g class="st14">
      <text class="st5" transform="translate(152.62 157.7)"><tspan x="0" y="0">(a)</tspan></text>
    </g>
  </g>
  <g id="LaTeX2AI34" data-name="LaTeX2AI">
    <g class="st0">
      <text class="st5" transform="translate(302.33 157.7)"><tspan x="0" y="0">(b)</tspan></text>
    </g>
  </g>
</svg>