<?xml version="1.0" encoding="UTF-8"?>
<svg id="Layer_2" data-name="Layer 2" xmlns="http://www.w3.org/2000/svg" viewBox="0 0 58.58 40.39">
  <defs>
    <style>
      .cls-1 {
        fill: #231f20;
        stroke-width: 0px;
      }
    </style>
  </defs>
  <g id="Layer_1-2" data-name="Layer 1">
    <g>
      <path class="cls-1" d="m25.19,24.44c.45,1.23,2.07,3.31,1.57,4.7-.15.4-.62.87-.89,1.04-.22.13-1.18.28-1.2.31-.05.08.34-.03.42.3.04.16.24.92.3,1.04v-.49c-.1.44-.1.48-.01.11.04-.19.34-.72.69-1.09-.46.49.55-.14.12-.03-.58.15.24-.04.4.04-.75-.37-1.17-.29-1.5-1.43v-1.38c-.14.54-.17.64-.06.3.75-1.08,1.88-1.25,3.14-.52.71.41.84.67,1.19,1.32.04.65.05.77.03.35,0-.42-.03-.31-.09.34.61-.93-.45.49-.59.64-.7.72-2.07,1.31-3,.55-.75-.61-.76-2.11.1-2.62,3.4-2,3.92,8.21.65,6.29.03.02.91-.06.2-.07.85.02,1.65-.21,2.44-.48,2.84-.97,5.17-3.36,4.35-6.55-.28-1.07-1.32-2.32-2.48-2.48-.52-.07-1.23-.13-1.68-.24.42.11.96.32-.08-.19-1.13-.55-2.72-.79-3.95-.8-3.72-.03-6.99,2.56-7.51,6.29-1.03,7.43,8.03,11.47,13.78,7.81s6.38-12.41.32-16.3c-5.31-3.41-12.07-.44-13.35,5.64s3.58,12.34,9.98,10.82c5.75-1.36,9.09-8.56,5.84-13.67-3.35-5.27-11.39-5-15.53-.9-3.5,3.47-4.84,9.18-1.96,13.42,4.22,6.23,13.83,4.34,17.36-1.57,3.19-5.36,1.29-14.07-5.68-14.88-2.13-.25-4.04,2.41-3.32,4.36h0Z"/>
      <path class="cls-1" d="m20.07,27.9c-5.6-.19-9.22-7.98-10.05-12.86-.49-2.87.17-3.97,2.9-4.67,1.19-.31,2.48-.4,3.7-.46.39-.02,3.54.2,2.18-.59-.34-.84-.44-.72-.29.37.01.91.02,1.83.02,2.74.03,1.52.1,3.03.27,4.54.29,2.59.89,5.16,2.21,7.43,2.12,3.64,6.6,6.79,10.87,5.38,2.03-.67,3.19-3.52,1.35-5.11-4.01-3.47-5.73-5.52-5.71-11.33.01-3.71.77-7.76-2.17-10.59C20.81-1.63,10.25-.2,5.39,2.98c-13.55,8.84,1.13,32.58,14.69,31.46,4.15-.34,4.26-6.4,0-6.54h0Z"/>
      <path class="cls-1" d="m32.21,26.12c-6.6-11.05,13.66-19.26,21.88-16.98l-2.14-5.26c-2.31,5.33-5.61,10.23-9.53,14.51-3.51,3.82-8.64,6.62-11.45,10.93-1.51,2.32.97,4.8,3.33,4.34,5.44-1.07,10.31-6.7,13.8-10.72,4.09-4.71,7.21-9.91,10.03-15.45,1.1-2.15.13-4.47-2.14-5.26C42.25-2.51,15.96,13.01,27.11,29.1c2.13,3.08,7.08.33,5.1-2.98h0Z"/>
    </g>
  </g>
</svg>