<?xml version="1.0" encoding="UTF-8"?>
<svg id="Layer_1" xmlns="http://www.w3.org/2000/svg" version="1.1" xmlns:xlink="http://www.w3.org/1999/xlink" viewBox="0 0 325.15 120.76">
  <!-- Generator: Adobe Illustrator 29.5.1, SVG Export Plug-In . SVG Version: 2.1.0 Build 141)  -->
  <defs>
    <style>
      .st0 {
        fill: #999595;
      }

      .st1, .st2, .st3, .st4, .st5, .st6, .st7, .st8 {
        fill-rule: evenodd;
      }

      .st1, .st9 {
        fill: #fbb040;
      }

      .st10 {
        clip-path: url(#clippath-4);
      }

      .st2, .st11 {
        fill: #00aeef;
      }

      .st12, .st6 {
        fill: #ed1c24;
      }

      .st3 {
        fill: #fff;
      }

      .st13 {
        fill: #3f3d3d;
      }

      .st14 {
        fill: none;
      }

      .st15 {
        fill: #31363d;
      }

      .st4, .st16 {
        fill: #ec008c;
      }

      .st17 {
        clip-path: url(#clippath-1);
      }

      .st18 {
        clip-path: url(#clippath-5);
      }

      .st5 {
        fill: #a3b4cc;
      }

      .st19, .st8 {
        fill: #00a651;
      }

      .st20 {
        clip-path: url(#clippath-3);
      }

      .st21, .st7 {
        fill: #2e3192;
      }

      .st22 {
        fill: #646161;
      }

      .st23 {
        clip-path: url(#clippath-2);
      }

      .st24 {
        fill: #2f2e2d;
      }

      .st25 {
        clip-path: url(#clippath);
      }
    </style>
    <clipPath id="clippath">
      <polyline class="st14" points="1.24 90.03 1.24 9.04 92.92 9.04 92.92 90.03 1.24 90.03"/>
    </clipPath>
    <clipPath id="clippath-1">
      <rect class="st14" x="120.6" y="18.7" width="128.63" height="83.44"/>
    </clipPath>
    <clipPath id="clippath-2">
      <rect class="st14" x="276.5" y="18.7" width="48.84" height="83.44"/>
    </clipPath>
    <clipPath id="clippath-3">
      <rect class="st14" x="176.88" y="109.14" width="15.29" height="12.33"/>
    </clipPath>
    <clipPath id="clippath-4">
      <rect class="st14" x="40.17" y="109.14" width="14.71" height="12.33"/>
    </clipPath>
    <clipPath id="clippath-5">
      <rect class="st14" x="293.48" y="109.14" width="14.1" height="12.33"/>
    </clipPath>
  </defs>
  <g class="st25">
    <path class="st0" d="M9.85,52.43l-.2.11c-.47.45-1.04.77-1.65.95l-.2.11,16.1,27.88.2-.11c.47-.45,1.04-.77,1.65-.95l.11-.06h-.1v-.38l-15.9-27.55"/>
    <path class="st0" d="M28.02,18.71h-.12c-.31.07-.63.11-.96.11s-.65-.04-.96-.11h-.12l.09.05-.19.33v60.89l.19.33-.09.05h.12c.31-.07.63-.11.96-.11v.11-.11c.33,0,.65.04.96.11h.12l-.09-.05.19-.33V19.09l-.19-.33.09-.05"/>
    <polyline class="st22" points="25.76 79.98 25.76 80.36 25.86 80.36 25.95 80.31 25.76 79.98"/>
    <path class="st0" d="M45.7,49.54l-17.58,30.44v.38h-.1l.11.06c.61.18,1.18.51,1.65.95l.11.06-.05-.09.33-.19,16.89-29.26-1.36-2.36M55.51,32.54l-8.45,14.63,1.36,2.36,9.13-15.81-2.05-1.18M64.15,17.58l-7.46,12.92,2.05,1.18,7.27-12.58v-.38h.1l-.11-.06c-.61-.18-1.18-.51-1.65-.95l-.2-.11"/>
    <polyline class="st22" points="28.12 79.98 27.93 80.31 28.02 80.36 28.12 80.36 28.12 79.98"/>
    <path class="st0" d="M55.51,66.53l-25.34,14.63-.19.33-.09-.05.06.11c.45.47.77,1.04.95,1.65l.06.11v-.1h.38l25.34-14.63-1.18-2.05M66,60.47l-8.45,4.88,1.18,2.05,7.27-4.19v-2.73M83.23,50.53l-14.87,8.58v2.73l15.71-9.07.19-.33.09.05-.06-.11c-.45-.47-.77-1.04-.96-1.66l-.11-.19"/>
    <polyline class="st22" points="30.17 81.16 29.83 81.35 29.89 81.44 29.98 81.49 30.17 81.16"/>
    <path class="st0" d="M63.16,83.21h-31.81l-.33.19-.05-.09v.12c.07.31.11.63.11.96s-.04.65-.11.96v.22h32.19v-.22c-.07-.31-.11-.63-.11-.96s.04-.65.11-.96v-.22"/>
    <polyline class="st22" points="31.35 83.21 30.96 83.21 30.96 83.31 31.02 83.4 31.35 83.21"/>
    <path class="st0" d="M23.9,17.58L7.81,45.46l.2.11c.61.18,1.18.51,1.65.95l.2.11,15.9-27.55v-.38h.1l-.11-.06c-.61-.18-1.18-.51-1.65-.95l-.2-.11"/>
    <polyline class="st22" points="25.86 18.71 25.76 18.71 25.76 19.09 25.95 18.76 25.86 18.71"/>
    <path class="st0" d="M63.16,13.51H30.96v.22c.07.31.11.63.11.96s-.04.65-.11.96v.12l.05-.09.33.19h31.81v-.22c-.07-.31-.11-.63-.11-.96s.04-.65.11-.96v-.22"/>
    <path class="st0" d="M58.74,31.68l-1.18,2.05,8.45,4.88v-2.73l-7.27-4.19M30.96,15.77l-.06.11c-.18.61-.51,1.18-.95,1.65l-.06.11.09-.05.19.33,25.34,14.63,1.18-2.05-25.34-14.63h-.38v-.1"/>
    <polyline class="st22" points="56.69 30.5 55.51 32.54 57.55 33.73 58.74 31.68 56.69 30.5"/>
    <path class="st0" d="M68.36,37.24v2.73l14.87,8.58.11-.19c.18-.62.51-1.18.96-1.66l.06-.11-.09.05-.19-.33-15.71-9.07"/>
    <polyline class="st22" points="31.02 15.68 30.96 15.77 30.96 15.87 31.35 15.87 31.02 15.68"/>
    <path class="st0" d="M58.74,67.4l-2.05,1.18,7.46,12.92.2-.11c.47-.45,1.04-.77,1.65-.95l.11-.06h-.1v-.38l-7.27-12.58M48.43,49.54l-1.36,2.36,8.45,14.63,2.05-1.18-9.13-15.81M29.89,17.63l-.11.06c-.47.45-1.04.77-1.65.95l-.11.06h.1v.38l17.58,30.44,1.36-2.36-16.89-29.26-.33-.19.05-.09"/>
    <polyline class="st22" points="28.12 18.71 28.02 18.71 27.93 18.76 28.12 19.09 28.12 18.71"/>
    <polyline class="st22" points="47.06 47.18 45.7 49.54 47.06 51.9 48.43 49.54 47.06 47.18"/>
    <polyline class="st22" points="57.55 65.35 55.51 66.53 56.69 68.58 58.74 67.4 57.55 65.35"/>
    <polyline class="st22" points="29.98 17.58 29.89 17.63 29.83 17.72 30.17 17.91 29.98 17.58"/>
    <path class="st0" d="M70.22,17.58l-.2.11c-.47.45-1.04.77-1.65.95l-.11.06h.1v.38l15.71,27.22.33.19-.05.09.11-.06c.47-.45,1.04-.77,1.65-.95l.2-.11-16.1-27.88"/>
    <polyline class="st22" points="84.08 46.31 84.27 46.64 84.36 46.59 84.41 46.5 84.08 46.31"/>
    <path class="st0" d="M68.26,18.71h-.12c-.31.07-.63.11-.96.11s-.65-.04-.96-.11h-.12l.09.05-.19.33v16.78l2.36,1.36v-18.14l-.19-.33.09-.05"/>
    <polyline class="st22" points="66.1 18.71 66 18.71 66 19.09 66.19 18.76 66.1 18.71"/>
    <path class="st0" d="M68.36,61.84l-2.36,1.36v16.78l.19.33-.09.05h.12c.31-.07.63-.11.96-.11v.11-.11c.33,0,.65.04.96.11h.12l-.09-.05.19-.33v-18.14M66,38.6v21.87l2.36-1.36v-19.14l-2.36-1.36"/>
    <polyline class="st22" points="68.36 59.11 66 60.47 66 63.2 68.36 61.84 68.36 59.11"/>
    <polyline class="st22" points="66 35.87 66 38.6 68.36 39.97 68.36 37.24 66 35.87"/>
    <polyline class="st22" points="66 79.98 66 80.36 66.1 80.36 66.19 80.31 66 79.98"/>
    <polyline class="st22" points="68.36 18.71 68.26 18.71 68.17 18.76 68.36 19.09 68.36 18.71"/>
    <path class="st0" d="M84.36,52.48l.05.09-.33.19-15.71,27.22v.38h-.1l.11.06c.61.18,1.18.51,1.65.96l.19.11,16.1-27.88-.2-.11c-.61-.18-1.18-.51-1.65-.95l-.11-.06"/>
    <polyline class="st22" points="84.27 52.43 84.08 52.76 84.41 52.57 84.36 52.48 84.27 52.43"/>
    <polyline class="st22" points="68.36 79.98 68.17 80.31 68.26 80.36 68.36 80.36 68.36 79.98"/>
    <path class="st5" d="M26.94,80.36c-1.07,0-2.09.42-2.85,1.18-.75.75-1.18,1.78-1.18,2.85s.42,2.09,1.18,2.85c.75.75,1.78,1.18,2.85,1.18s2.09-.42,2.85-1.18c.75-.75,1.18-1.78,1.18-2.85s-.42-2.09-1.18-2.85c-.75-.75-1.78-1.18-2.85-1.18"/>
    <path class="st13" d="M26.94,80.36h-.96l-.23.06-1.65.95-.09.08c-.78.78-1.21,1.83-1.21,2.92s.44,2.15,1.21,2.92h0c.78.78,1.83,1.21,2.92,1.21,1.1,0,2.15-.44,2.92-1.21h0c.55-.55.92-1.23,1.1-1.97v-.96c0,1.07-.42,2.09-1.18,2.85-.75.75-1.78,1.18-2.85,1.18s-2.09-.42-2.85-1.18c-.75-.75-1.18-1.78-1.18-2.85s.42-2.09,1.18-2.85c.75-.75,1.78-1.18,2.85-1.18M27.9,80.36h-.96c1.07,0,2.09.42,2.85,1.18.75.75,1.18,1.78,1.18,2.85v-.96l-.06-.23-.95-1.65-.08-.09-.09-.08-1.65-.95-.23-.06"/>
    <path class="st24" d="M25.75,80.43c-.61.18-1.18.51-1.65.95l1.65-.95"/>
    <path class="st24" d="M26.94,80.25v.11h.96c-.31-.07-.63-.11-.96-.11M26.94,80.25c-.33,0-.65.04-.96.11h.96v-.11"/>
    <path class="st24" d="M28.13,80.43l1.65.95c-.47-.45-1.04-.77-1.65-.95"/>
    <path class="st24" d="M29.95,81.55l.95,1.65c-.18-.61-.51-1.18-.95-1.65"/>
    <path class="st24" d="M30.96,83.43v1.92c.07-.31.11-.63.11-.96s-.04-.65-.11-.96"/>
    <path class="st15" d="M29.71,87.15h0M26.94,80.36h0c-1.07,0-2.09.42-2.85,1.18-.75.75-1.18,1.78-1.18,2.85s.42,2.09,1.18,2.85c.75.75,1.78,1.18,2.85,1.18s2.09-.42,2.85-1.18c.75-.75,1.18-1.78,1.18-2.85s-.42-2.09-1.18-2.85c-.75-.75-1.78-1.18-2.85-1.18v.11c1.04,0,2.03.41,2.77,1.15.73.73,1.15,1.73,1.15,2.77s-.41,2.03-1.15,2.77c-.73.73-1.73,1.15-2.77,1.15s-2.03-.41-2.77-1.15c-.73-.73-1.15-1.73-1.15-2.77s.41-2.03,1.15-2.77c.73-.73,1.73-1.15,2.77-1.15v-.11"/>
    <path class="st5" d="M6.82,45.51c-1.07,0-2.09.42-2.85,1.18-.75.75-1.18,1.78-1.18,2.85s.42,2.09,1.18,2.84c.75.75,1.78,1.18,2.85,1.18s2.09-.42,2.85-1.18c.75-.75,1.18-1.78,1.18-2.84s-.42-2.09-1.18-2.85c-.75-.75-1.78-1.18-2.85-1.18"/>
    <path class="st13" d="M6.82,45.4c-1.1,0-2.15.44-2.92,1.21-.78.78-1.21,1.83-1.21,2.92s.44,2.15,1.21,2.92c.78.78,1.83,1.21,2.92,1.21.41,0,.8-.06,1.19-.17l1.65-.95.09-.08c.78-.78,1.21-1.83,1.21-2.92s-.44-2.15-1.21-2.92l-.09-.08-1.65-.95c-.38-.11-.78-.17-1.19-.17v.11h0c1.07,0,2.09.42,2.85,1.18.75.75,1.18,1.78,1.18,2.85s-.42,2.09-1.18,2.84c-.75.75-1.78,1.18-2.85,1.18s-2.09-.42-2.85-1.18c-.75-.75-1.18-1.78-1.18-2.84s.42-2.09,1.18-2.85c.75-.75,1.78-1.18,2.85-1.18h0v-.11"/>
    <path class="st24" d="M9.66,52.55l-1.65.95c.61-.18,1.18-.51,1.65-.95"/>
    <path class="st24" d="M8.01,45.57l1.65.95c-.47-.45-1.04-.77-1.65-.95"/>
    <path class="st15" d="M6.82,45.51c-1.07,0-2.09.42-2.85,1.18-.75.75-1.18,1.78-1.18,2.85s.42,2.09,1.18,2.84c.75.75,1.78,1.18,2.85,1.18s2.09-.42,2.85-1.18c.75-.75,1.18-1.78,1.18-2.84s-.42-2.09-1.18-2.85c-.75-.75-1.78-1.18-2.85-1.18v.11c1.04,0,2.03.41,2.77,1.15.73.73,1.15,1.73,1.15,2.77s-.41,2.03-1.15,2.77c-.73.73-1.73,1.15-2.77,1.15s-2.03-.41-2.77-1.15c-.73-.73-1.15-1.73-1.15-2.77,0-1.04.41-2.03,1.15-2.77.73-.73,1.73-1.15,2.77-1.15v-.11"/>
    <path class="st5" d="M26.94,10.66c-1.07,0-2.09.42-2.85,1.18-.75.75-1.18,1.78-1.18,2.85s.42,2.09,1.18,2.84c.75.75,1.78,1.18,2.85,1.18s2.09-.42,2.85-1.18c.75-.75,1.18-1.78,1.18-2.84s-.42-2.09-1.18-2.85c-.75-.75-1.78-1.18-2.85-1.18"/>
    <path class="st13" d="M26.94,10.55v.11c1.07,0,2.09.42,2.85,1.18.75.75,1.18,1.78,1.18,2.85v-.96c-.18-.74-.55-1.42-1.1-1.97-.78-.78-1.83-1.21-2.92-1.21M26.94,10.55c-1.1,0-2.15.44-2.92,1.21-.78.78-1.21,1.83-1.21,2.92s.44,2.15,1.21,2.92l.09.08,1.65.95.23.06h1.92l.23-.06,1.65-.95.09-.08.08-.09.95-1.65.06-.23v-.96c0,1.07-.42,2.09-1.18,2.84-.75.75-1.78,1.18-2.85,1.18s-2.09-.42-2.85-1.18c-.75-.75-1.18-1.78-1.18-2.84s.42-2.09,1.18-2.85c.75-.75,1.78-1.18,2.85-1.18v-.11"/>
    <path class="st24" d="M27.9,18.71h-1.92c.31.07.63.11.96.11s.65-.04.96-.11"/>
    <path class="st24" d="M24.1,17.7c.47.45,1.04.77,1.65.95l-1.65-.95"/>
    <path class="st24" d="M30.96,13.73v1.92c.07-.31.11-.63.11-.96s-.04-.65-.11-.96"/>
    <path class="st24" d="M30.9,15.87l-.95,1.65c.45-.47.77-1.04.95-1.65"/>
    <path class="st24" d="M29.78,17.7l-1.65.95c.61-.18,1.18-.51,1.65-.95"/>
    <path class="st15" d="M26.94,10.66c-1.07,0-2.09.42-2.85,1.18-.75.75-1.18,1.78-1.18,2.85s.42,2.09,1.18,2.84c.75.75,1.78,1.18,2.85,1.18s2.09-.42,2.85-1.18c.75-.75,1.18-1.78,1.18-2.84s-.42-2.09-1.18-2.85c-.75-.75-1.78-1.18-2.85-1.18v.11c1.04,0,2.03.41,2.77,1.15.73.73,1.15,1.73,1.15,2.77s-.41,2.03-1.15,2.77c-.73.73-1.73,1.15-2.77,1.15s-2.03-.41-2.77-1.15c-.73-.73-1.15-1.73-1.15-2.77s.41-2.03,1.15-2.77c.73-.73,1.73-1.15,2.77-1.15v-.11"/>
    <path class="st5" d="M67.18,10.66c-1.07,0-2.09.42-2.85,1.18-.75.75-1.18,1.78-1.18,2.85s.42,2.09,1.18,2.84c.75.75,1.78,1.18,2.85,1.18s2.09-.42,2.85-1.18c.75-.75,1.18-1.78,1.18-2.84s-.42-2.09-1.18-2.85c-.76-.75-1.78-1.18-2.85-1.18"/>
    <path class="st13" d="M67.18,10.55c-1.1,0-2.15.44-2.92,1.21-.55.55-.92,1.23-1.1,1.97v1.92c.18.74.55,1.42,1.1,1.97l.09.08,1.65.95.23.06h1.92l.23-.06,1.65-.95.09-.08c.78-.78,1.21-1.83,1.21-2.92,0-1.1-.43-2.15-1.21-2.92-.78-.78-1.83-1.21-2.93-1.21v.11c1.07,0,2.09.42,2.85,1.18.75.75,1.18,1.78,1.18,2.85s-.42,2.09-1.18,2.84c-.76.75-1.78,1.18-2.85,1.18s-2.09-.42-2.85-1.18c-.75-.75-1.18-1.78-1.18-2.84s.42-2.09,1.18-2.85c.75-.75,1.78-1.18,2.85-1.18v-.11"/>
    <path class="st24" d="M64.35,17.7c.47.45,1.04.77,1.65.95l-1.65-.95"/>
    <path class="st24" d="M63.16,13.73c-.07.31-.11.63-.11.96s.04.65.11.96v-1.92"/>
    <path class="st24" d="M70.02,17.69l-1.65.95c.61-.18,1.18-.51,1.65-.95"/>
    <path class="st24" d="M68.14,18.71h-1.92c.31.07.63.11.96.11s.65-.04.96-.11"/>
    <path class="st15" d="M67.18,10.66c-1.07,0-2.09.42-2.85,1.18-.75.75-1.18,1.78-1.18,2.85s.42,2.09,1.18,2.84c.75.75,1.78,1.18,2.85,1.18s2.09-.42,2.85-1.18c.75-.75,1.18-1.78,1.18-2.84s-.42-2.09-1.18-2.85c-.76-.75-1.78-1.18-2.85-1.18v.11c1.04,0,2.03.41,2.77,1.15.73.73,1.14,1.73,1.14,2.77,0,1.04-.41,2.03-1.14,2.77-.73.73-1.73,1.15-2.77,1.15s-2.03-.41-2.77-1.15c-.73-.73-1.15-1.73-1.15-2.77s.41-2.03,1.15-2.77c.73-.73,1.73-1.15,2.77-1.15v-.11"/>
    <path class="st5" d="M87.3,45.51c-1.07,0-2.09.42-2.85,1.18-.75.75-1.18,1.78-1.18,2.85s.42,2.09,1.18,2.84c.75.75,1.78,1.18,2.85,1.18s2.09-.42,2.85-1.18c.75-.75,1.18-1.78,1.18-2.84s-.42-2.09-1.18-2.85c-.75-.75-1.78-1.18-2.85-1.18"/>
    <path class="st13" d="M87.3,45.4c-.41,0-.81.06-1.19.17l-1.65.95-.09.08-.08.08-.96,1.66c-.11.38-.17.78-.17,1.18s.06.8.17,1.18l.96,1.66.08.08.09.08,1.65.95c.38.11.78.17,1.19.17,1.1,0,2.15-.44,2.93-1.21h0c.78-.78,1.21-1.83,1.21-2.92s-.44-2.15-1.21-2.92c-.78-.78-1.83-1.21-2.93-1.21v.11h0c1.07,0,2.09.42,2.85,1.18.75.75,1.18,1.78,1.18,2.85s-.42,2.09-1.18,2.84c-.75.75-1.78,1.18-2.85,1.18s-2.09-.42-2.85-1.18c-.75-.75-1.18-1.78-1.18-2.84s.42-2.09,1.18-2.85c.75-.75,1.78-1.18,2.85-1.18h0v-.11"/>
    <path class="st24" d="M83.34,50.72c.18.62.51,1.18.96,1.66l-.96-1.66"/>
    <path class="st24" d="M84.3,46.7c-.45.47-.77,1.04-.96,1.66l.96-1.66"/>
    <path class="st24" d="M86.12,45.57c-.61.18-1.18.51-1.65.95l1.65-.95"/>
    <path class="st24" d="M84.47,52.55c.47.45,1.04.77,1.65.95l-1.65-.95"/>
    <path class="st15" d="M87.3,45.51c-1.07,0-2.09.42-2.85,1.18-.75.75-1.18,1.78-1.18,2.85s.42,2.09,1.18,2.84c.75.75,1.78,1.18,2.85,1.18s2.09-.42,2.85-1.18c.75-.75,1.18-1.78,1.18-2.84s-.42-2.09-1.18-2.85c-.75-.75-1.78-1.18-2.85-1.18v.11c1.04,0,2.03.41,2.77,1.15h0c.73.73,1.15,1.73,1.15,2.77s-.41,2.03-1.15,2.77c-.73.73-1.73,1.15-2.77,1.15s-2.03-.41-2.77-1.15c-.73-.73-1.15-1.73-1.15-2.77s.41-2.03,1.15-2.77c.73-.73,1.73-1.15,2.77-1.15v-.11"/>
    <path class="st5" d="M67.18,80.36c-1.07,0-2.09.42-2.85,1.18-.75.75-1.18,1.78-1.18,2.85s.42,2.09,1.18,2.85c.75.75,1.78,1.18,2.85,1.18s2.09-.42,2.85-1.18c.75-.75,1.18-1.78,1.18-2.85s-.42-2.09-1.18-2.85c-.76-.75-1.78-1.18-2.85-1.18"/>
    <path class="st13" d="M68.14,80.36h-.96c1.07,0,2.09.42,2.85,1.18.75.75,1.18,1.78,1.18,2.85s-.42,2.09-1.18,2.85c-.76.75-1.78,1.18-2.85,1.18s-2.09-.42-2.85-1.18c-.75-.75-1.18-1.78-1.18-2.85s.42-2.09,1.18-2.85c.75-.75,1.78-1.18,2.85-1.18h-.96l-.23.06-1.65.95-.09.08c-.55.55-.92,1.23-1.1,1.97v1.92c.18.74.55,1.42,1.1,1.97h0c.78.78,1.83,1.21,2.92,1.21h0c1.1,0,2.15-.44,2.93-1.21h0c.78-.78,1.21-1.83,1.21-2.92,0-1.1-.43-2.15-1.21-2.92h0l-.09-.08-1.65-.96-.23-.06"/>
    <path class="st24" d="M63.16,83.43c-.07.31-.11.63-.11.96s.04.65.11.96v-1.92"/>
    <path class="st24" d="M66,80.43c-.61.18-1.18.51-1.65.95l1.65-.95"/>
    <path class="st24" d="M67.18,80.25v.11h.96c-.31-.07-.63-.11-.96-.11M67.18,80.25c-.33,0-.65.04-.96.11h.96v-.11"/>
    <path class="st24" d="M68.37,80.43l1.65.96c-.47-.45-1.04-.77-1.65-.96"/>
    <path class="st15" d="M67.18,80.36h0c-1.07,0-2.09.42-2.85,1.18-.75.75-1.18,1.78-1.18,2.85s.42,2.09,1.18,2.85c.75.75,1.78,1.18,2.85,1.18s2.09-.42,2.85-1.18c.75-.75,1.18-1.78,1.18-2.85s-.42-2.09-1.18-2.85c-.76-.75-1.78-1.18-2.85-1.18v.11c1.04,0,2.03.41,2.77,1.15.73.73,1.14,1.73,1.14,2.77,0,1.04-.41,2.03-1.14,2.77h0c-.73.73-1.73,1.15-2.77,1.15s-2.03-.41-2.77-1.15c-.73-.73-1.15-1.73-1.15-2.77s.41-2.03,1.15-2.77c.73-.73,1.73-1.15,2.77-1.15v-.11"/>
  </g>
  <g class="st17">
    <path d="M127.31,57.56l.48,3.14h-2.53l2.05-3.14ZM128.63,55.94c-.04-.27-.1-.32-.37-.32-.24,0-.33.04-.48.27l-4.29,6.56c-.13.21-.26.4-1.06.41-.15,0-.35,0-.35.32,0,.09.08.2.21.2.33,0,.7-.03,1.04-.03.4,0,.82.03,1.21.03.08,0,.29,0,.29-.32,0-.2-.2-.2-.28-.2s-.39,0-.63-.12l1-1.53h2.95l.25,1.59c-.21.04-.55.05-.71.05-.22,0-.4,0-.4.32,0,.14.12.2.24.2.36,0,1.27-.03,1.63-.03.25,0,.5.01.75.01s.51.02.76.02c.1,0,.31,0,.31-.32,0-.2-.16-.2-.44-.2-.15,0-.27,0-.43-.01-.13-.01-.14-.02-.17-.21l-1.03-6.71Z"/>
    <path d="M134.82,61.92h5.88v-.64h-5.88v.64ZM134.82,59.6h5.88v-.65h-5.88v.65Z"/>
    <path d="M160.18,19.77l-.07-.07-.07.02c-3.69,4.11-4.11,14.83-4.11,16.05v.52h1.08v-.52c0-.93.61-11.55,3.07-15.73.06-.1.1-.18.1-.28Z"/>
    <rect x="155.93" y="36" width="1.08" height="7.42"/>
    <rect x="155.93" y="42.9" width="1.08" height="7.42"/>
    <rect x="155.93" y="49.79" width="1.08" height="7.42"/>
    <rect x="155.93" y="56.69" width="1.08" height="7.42"/>
    <rect x="155.93" y="63.58" width="1.08" height="7.42"/>
    <rect x="155.93" y="70.48" width="1.08" height="7.42"/>
    <rect x="155.93" y="77.37" width="1.08" height="7.42"/>
    <path d="M160.18,101.08c0-.09-.05-.17-.1-.28-2.46-4.18-3.07-14.8-3.07-15.73v-.52h-1.08v.52c0,1.22.43,11.94,4.11,16.05l.07.02.07-.07Z"/>
    <path d="M242.17,29.29v-.33l-.57-.03c-.6-.03-.71-.15-.71-.72v-6.47l-.15-.05c-.71.37-1.48.7-2.48,1.05l.08.47h.11c.48-.22.96-.44,1.44-.64.07,0,.09.1.09.36v5.29c0,.57-.12.69-.71.72l-.61.03v.33c.6-.02,1.2-.03,1.8-.03.57,0,1.15.01,1.71.03ZM226.35,25.81c0,2.32-.41,3.28-1.42,3.28-1.06,0-1.51-1.1-1.51-3.76,0-2.3.4-3.21,1.44-3.21s1.48,1.07,1.48,3.69ZM227.26,25.27c0-2.39-.71-3.52-2.2-3.52-1.69,0-2.55,1.34-2.55,3.98,0,1.28.23,2.38.61,2.91s.99.84,1.67.84c1.65,0,2.48-1.42,2.48-4.21ZM210.93,25.81c0,2.32-.41,3.28-1.42,3.28-1.06,0-1.51-1.1-1.51-3.76,0-2.3.4-3.21,1.44-3.21s1.48,1.07,1.48,3.69ZM211.85,25.27c0-2.39-.71-3.52-2.2-3.52-1.69,0-2.55,1.34-2.55,3.98,0,1.28.23,2.38.61,2.91s.99.84,1.67.84c1.65,0,2.48-1.42,2.48-4.21ZM195.51,25.81c0,2.32-.41,3.28-1.42,3.28-1.06,0-1.51-1.1-1.51-3.76,0-2.3.4-3.21,1.44-3.21s1.48,1.07,1.48,3.69ZM196.42,25.27c0-2.39-.71-3.52-2.2-3.52-1.69,0-2.55,1.34-2.55,3.98,0,1.28.23,2.38.61,2.91s.99.84,1.67.84c1.65,0,2.48-1.42,2.48-4.21ZM180.5,29.29v-.33l-.57-.03c-.6-.03-.71-.15-.71-.72v-6.47l-.15-.05c-.71.37-1.48.7-2.48,1.05l.08.47h.11c.48-.22.96-.44,1.44-.64.07,0,.09.1.09.36v5.29c0,.57-.12.69-.71.72l-.61.03v.33c.6-.02,1.2-.03,1.8-.03.57,0,1.15.01,1.71.03ZM164.68,25.81c0,2.32-.41,3.28-1.42,3.28-1.06,0-1.51-1.1-1.51-3.76,0-2.3.4-3.21,1.44-3.21s1.48,1.07,1.48,3.69ZM165.59,25.27c0-2.39-.71-3.52-2.2-3.52-1.69,0-2.55,1.34-2.55,3.98,0,1.28.23,2.38.61,2.91.38.53.99.84,1.67.84,1.65,0,2.48-1.42,2.48-4.21Z"/>
    <path d="M242.17,42.84v-.33l-.57-.03c-.6-.03-.71-.15-.71-.72v-6.47l-.15-.05c-.71.37-1.48.7-2.48,1.05l.08.47h.11c.48-.22.96-.44,1.44-.64.07,0,.09.1.09.36v5.29c0,.57-.12.69-.71.72l-.61.03v.33c.6-.02,1.2-.03,1.8-.03.57,0,1.15.01,1.71.03ZM226.75,42.84v-.33l-.57-.03c-.6-.03-.71-.15-.71-.72v-6.47l-.15-.05c-.71.37-1.48.7-2.48,1.05l.08.47h.11c.48-.22.96-.44,1.44-.64.07,0,.09.1.09.36v5.29c0,.57-.12.69-.71.72l-.61.03v.33c.6-.02,1.2-.03,1.8-.03.57,0,1.15.01,1.71.03ZM211.34,42.84v-.33l-.57-.03c-.6-.03-.71-.15-.71-.72v-6.47l-.15-.05c-.71.37-1.48.7-2.48,1.05l.08.47h.11c.48-.22.96-.44,1.44-.64.07,0,.09.1.09.36v5.29c0,.57-.12.69-.71.72l-.61.03v.33c.6-.02,1.2-.03,1.8-.03.57,0,1.15.01,1.71.03ZM195.91,42.84v-.33l-.57-.03c-.6-.03-.71-.15-.71-.72v-6.47l-.15-.05c-.71.37-1.48.7-2.48,1.05l.08.47h.11c.48-.22.96-.44,1.44-.64.07,0,.09.1.09.36v5.29c0,.57-.12.69-.71.72l-.61.03v.33c.6-.02,1.2-.03,1.8-.03.57,0,1.15.01,1.71.03ZM180.09,39.36c0,2.32-.41,3.28-1.42,3.28-1.06,0-1.51-1.1-1.51-3.76,0-2.3.4-3.21,1.44-3.21s1.48,1.07,1.48,3.69ZM181.01,38.81c0-2.39-.71-3.52-2.2-3.52-1.69,0-2.55,1.34-2.55,3.98,0,1.28.23,2.38.61,2.91.38.53.99.84,1.67.84,1.65,0,2.48-1.42,2.48-4.21ZM165.08,42.84v-.33l-.57-.03c-.6-.03-.71-.15-.71-.72v-6.47l-.15-.05c-.71.37-1.48.7-2.48,1.05l.08.47h.11c.48-.22.96-.44,1.44-.64.07,0,.09.1.09.36v5.29c0,.57-.12.69-.71.72l-.61.03v.33c.6-.02,1.2-.03,1.8-.03.57,0,1.15.01,1.71.03Z"/>
    <path d="M242.17,56.39v-.33l-.57-.03c-.6-.03-.71-.15-.71-.72v-6.47l-.15-.05c-.71.37-1.48.7-2.48,1.05l.08.47h.11c.48-.22.96-.44,1.44-.64.07,0,.09.1.09.36v5.29c0,.57-.12.69-.71.72l-.61.03v.33c.6-.02,1.2-.03,1.8-.03.57,0,1.15.01,1.71.03ZM226.75,56.39v-.33l-.57-.03c-.6-.03-.71-.15-.71-.72v-6.47l-.15-.05c-.71.37-1.48.7-2.48,1.05l.08.47h.11c.48-.22.96-.44,1.44-.64.07,0,.09.1.09.36v5.29c0,.57-.12.69-.71.72l-.61.03v.33c.6-.02,1.2-.03,1.8-.03.57,0,1.15.01,1.71.03ZM211.34,56.39v-.33l-.57-.03c-.6-.03-.71-.15-.71-.72v-6.47l-.15-.05c-.71.37-1.48.7-2.48,1.05l.08.47h.11c.48-.22.96-.44,1.44-.64.07,0,.09.1.09.36v5.29c0,.57-.12.69-.71.72l-.61.03v.33c.6-.02,1.2-.03,1.8-.03.57,0,1.15.01,1.71.03ZM195.51,52.91c0,2.32-.41,3.28-1.42,3.28-1.06,0-1.51-1.1-1.51-3.76,0-2.3.4-3.21,1.44-3.21s1.48,1.07,1.48,3.69ZM196.42,52.36c0-2.39-.71-3.52-2.2-3.52-1.69,0-2.55,1.34-2.55,3.98,0,1.28.23,2.38.61,2.91.38.53.99.84,1.67.84,1.65,0,2.48-1.42,2.48-4.21ZM180.5,56.39v-.33l-.57-.03c-.6-.03-.71-.15-.71-.72v-6.47l-.15-.05c-.71.37-1.48.7-2.48,1.05l.08.47h.11c.48-.22.96-.44,1.44-.64.07,0,.09.1.09.36v5.29c0,.57-.12.69-.71.72l-.61.03v.33c.6-.02,1.2-.03,1.8-.03.57,0,1.15.01,1.71.03ZM164.68,52.91c0,2.32-.41,3.28-1.42,3.28-1.06,0-1.51-1.1-1.51-3.76,0-2.3.4-3.21,1.44-3.21s1.48,1.07,1.48,3.69ZM165.59,52.36c0-2.39-.71-3.52-2.2-3.52-1.69,0-2.55,1.34-2.55,3.98,0,1.28.23,2.38.61,2.91.38.53.99.84,1.67.84,1.65,0,2.48-1.42,2.48-4.21Z"/>
    <path d="M242.17,69.94v-.33l-.57-.03c-.6-.03-.71-.15-.71-.72v-6.47l-.15-.05c-.71.37-1.48.7-2.48,1.05l.08.47h.11c.48-.22.96-.44,1.44-.64.07,0,.09.1.09.36v5.29c0,.57-.12.69-.71.72l-.61.03v.33c.6-.02,1.2-.03,1.8-.03.57,0,1.15.01,1.71.03ZM226.75,69.94v-.33l-.57-.03c-.6-.03-.71-.15-.71-.72v-6.47l-.15-.05c-.71.37-1.48.7-2.48,1.05l.08.47h.11c.48-.22.96-.44,1.44-.64.07,0,.09.1.09.36v5.29c0,.57-.12.69-.71.72l-.61.03v.33c.6-.02,1.2-.03,1.8-.03.57,0,1.15.01,1.71.03ZM210.93,66.46c0,2.32-.41,3.28-1.42,3.28-1.06,0-1.51-1.1-1.51-3.76,0-2.3.4-3.21,1.44-3.21s1.48,1.07,1.48,3.69ZM211.85,65.91c0-2.39-.71-3.52-2.2-3.52-1.69,0-2.55,1.34-2.55,3.98,0,1.28.23,2.38.61,2.91.38.53.99.84,1.67.84,1.65,0,2.48-1.42,2.48-4.21ZM195.91,69.94v-.33l-.57-.03c-.6-.03-.71-.15-.71-.72v-6.47l-.15-.05c-.71.37-1.48.7-2.48,1.05l.08.47h.11c.48-.22.96-.44,1.44-.64.07,0,.09.1.09.36v5.29c0,.57-.12.69-.71.72l-.61.03v.33c.6-.02,1.2-.03,1.8-.03.57,0,1.15.01,1.71.03ZM180.5,69.94v-.33l-.57-.03c-.6-.03-.71-.15-.71-.72v-6.47l-.15-.05c-.71.37-1.48.7-2.48,1.05l.08.47h.11c.48-.22.96-.44,1.44-.64.07,0,.09.1.09.36v5.29c0,.57-.12.69-.71.72l-.61.03v.33c.6-.02,1.2-.03,1.8-.03.57,0,1.15.01,1.71.03ZM164.68,66.46c0,2.32-.41,3.28-1.42,3.28-1.06,0-1.51-1.1-1.51-3.76,0-2.3.4-3.21,1.44-3.21s1.48,1.07,1.48,3.69ZM165.59,65.91c0-2.39-.71-3.52-2.2-3.52-1.69,0-2.55,1.34-2.55,3.98,0,1.28.23,2.38.61,2.91.38.53.99.84,1.67.84,1.65,0,2.48-1.42,2.48-4.21Z"/>
    <path d="M242.17,83.49v-.33l-.57-.03c-.6-.03-.71-.15-.71-.72v-6.47l-.15-.05c-.71.37-1.48.7-2.48,1.05l.08.47h.11c.48-.22.96-.44,1.44-.64.07,0,.09.1.09.36v5.29c0,.57-.12.69-.71.72l-.61.03v.33c.6-.02,1.2-.03,1.8-.03.57,0,1.15.01,1.71.03ZM226.35,80.01c0,2.32-.41,3.28-1.42,3.28-1.06,0-1.51-1.1-1.51-3.76,0-2.3.4-3.21,1.44-3.21s1.48,1.07,1.48,3.69ZM227.26,79.46c0-2.39-.71-3.52-2.2-3.52-1.69,0-2.55,1.34-2.55,3.98,0,1.28.23,2.38.61,2.91.38.53.99.84,1.67.84,1.65,0,2.48-1.42,2.48-4.21ZM211.34,83.49v-.33l-.57-.03c-.6-.03-.71-.15-.71-.72v-6.47l-.15-.05c-.71.37-1.48.7-2.48,1.05l.08.47h.11c.48-.22.96-.44,1.44-.64.07,0,.09.1.09.36v5.29c0,.57-.12.69-.71.72l-.61.03v.33c.6-.02,1.2-.03,1.8-.03.57,0,1.15.01,1.71.03ZM195.91,83.49v-.33l-.57-.03c-.6-.03-.71-.15-.71-.72v-6.47l-.15-.05c-.71.37-1.48.7-2.48,1.05l.08.47h.11c.48-.22.96-.44,1.44-.64.07,0,.09.1.09.36v5.29c0,.57-.12.69-.71.72l-.61.03v.33c.6-.02,1.2-.03,1.8-.03.57,0,1.15.01,1.71.03ZM180.5,83.49v-.33l-.57-.03c-.6-.03-.71-.15-.71-.72v-6.47l-.15-.05c-.71.37-1.48.7-2.48,1.05l.08.47h.11c.48-.22.96-.44,1.44-.64.07,0,.09.1.09.36v5.29c0,.57-.12.69-.71.72l-.61.03v.33c.6-.02,1.2-.03,1.8-.03.57,0,1.15.01,1.71.03ZM164.68,80.01c0,2.32-.41,3.28-1.42,3.28-1.06,0-1.51-1.1-1.51-3.76,0-2.3.4-3.21,1.44-3.21s1.48,1.07,1.48,3.69ZM165.59,79.46c0-2.39-.71-3.52-2.2-3.52-1.69,0-2.55,1.34-2.55,3.98,0,1.28.23,2.38.61,2.91.38.53.99.84,1.67.84,1.65,0,2.48-1.42,2.48-4.21Z"/>
    <path d="M241.76,93.56c0,2.32-.41,3.28-1.42,3.28-1.06,0-1.51-1.1-1.51-3.76,0-2.3.4-3.21,1.44-3.21s1.48,1.07,1.48,3.69ZM242.68,93.01c0-2.39-.71-3.52-2.2-3.52-1.69,0-2.55,1.34-2.55,3.98,0,1.28.23,2.38.61,2.91.38.53.99.84,1.67.84,1.65,0,2.48-1.42,2.48-4.21ZM226.75,97.04v-.33l-.57-.03c-.6-.03-.71-.15-.71-.72v-6.47l-.15-.05c-.71.37-1.48.7-2.48,1.05l.08.47h.11c.48-.22.96-.44,1.44-.64.07,0,.09.1.09.36v5.29c0,.57-.12.69-.71.72l-.61.03v.33c.6-.02,1.2-.03,1.8-.03.57,0,1.15.01,1.71.03ZM211.34,97.04v-.33l-.57-.03c-.6-.03-.71-.15-.71-.72v-6.47l-.15-.05c-.71.37-1.48.7-2.48,1.05l.08.47h.11c.48-.22.96-.44,1.44-.64.07,0,.09.1.09.36v5.29c0,.57-.12.69-.71.72l-.61.03v.33c.6-.02,1.2-.03,1.8-.03.57,0,1.15.01,1.71.03ZM195.91,97.04v-.33l-.57-.03c-.6-.03-.71-.15-.71-.72v-6.47l-.15-.05c-.71.37-1.48.7-2.48,1.05l.08.47h.11c.48-.22.96-.44,1.44-.64.07,0,.09.1.09.36v5.29c0,.57-.12.69-.71.72l-.61.03v.33c.6-.02,1.2-.03,1.8-.03.57,0,1.15.01,1.71.03ZM180.5,97.04v-.33l-.57-.03c-.6-.03-.71-.15-.71-.72v-6.47l-.15-.05c-.71.37-1.48.7-2.48,1.05l.08.47h.11c.48-.22.96-.44,1.44-.64.07,0,.09.1.09.36v5.29c0,.57-.12.69-.71.72l-.61.03v.33c.6-.02,1.2-.03,1.8-.03.57,0,1.15.01,1.71.03ZM165.08,97.04v-.33l-.57-.03c-.6-.03-.71-.15-.71-.72v-6.47l-.15-.05c-.71.37-1.48.7-2.48,1.05l.08.47h.11c.48-.22.96-.44,1.44-.64.07,0,.09.1.09.36v5.29c0,.57-.12.69-.71.72l-.61.03v.33c.6-.02,1.2-.03,1.8-.03.57,0,1.15.01,1.71.03Z"/>
    <path d="M243.41,19.77c0,.09.05.17.1.28,2.46,4.18,3.07,14.8,3.07,15.73v.52h1.08v-.52c0-1.22-.43-11.94-4.11-16.05l-.07-.02-.07.07Z"/>
    <rect x="246.58" y="36" width="1.08" height="7.42"/>
    <rect x="246.58" y="42.9" width="1.08" height="7.42"/>
    <rect x="246.58" y="49.79" width="1.08" height="7.42"/>
    <rect x="246.58" y="56.69" width="1.08" height="7.42"/>
    <rect x="246.58" y="63.58" width="1.08" height="7.42"/>
    <rect x="246.58" y="70.48" width="1.08" height="7.42"/>
    <rect x="246.58" y="77.37" width="1.08" height="7.42"/>
    <path d="M243.41,101.08l.07.07.07-.02c3.69-4.11,4.11-14.83,4.11-16.05v-.52h-1.08v.52c0,.93-.61,11.55-3.07,15.73-.06.1-.1.18-.1.28Z"/>
  </g>
  <g class="st23">
    <path d="M280.94,56.19c.04-.15.04-.17.04-.19,0-.14-.12-.2-.24-.2h-.08s-1.41.08-1.41.08c-.15.01-.35.02-.35.33,0,.2.21.2.28.2.12,0,.32,0,.46.02l-1.57,6.3-.04.25c0,.26.21.49.52.49.2,0,.51-.1.67-.44.03-.1.19-.73.5-2,.21.02,1.16.15,1.16.82,0,.08,0,.11-.03.23-.03.14-.03.15-.03.26,0,.71.68,1.12,1.4,1.12,1.09,0,1.49-1.61,1.49-1.7,0-.15-.16-.15-.26-.15-.2,0-.22.02-.27.22-.09.32-.35,1.24-.91,1.24-.17,0-.28-.1-.28-.43,0-.11.02-.32.09-.57.03-.12.03-.2.03-.27,0-.93-1.1-1.1-1.89-1.18.11-.08.37-.25.97-.83.84-.83,1.3-.96,1.63-.96.21,0,.28.12.28.13-.55.08-.75.51-.75.79,0,.24.19.5.55.5.21,0,.79-.14.79-.92,0-.57-.36-.89-.83-.89-.67,0-1.27.48-1.91,1.1-.11.12-.63.62-1.05.85l1.05-4.21Z"/>
    <path d="M288.02,61.92h5.88v-.64h-5.88v.64ZM288.02,59.6h5.88v-.65h-5.88v.65Z"/>
    <path d="M313.37,19.77l-.07-.07-.07.02c-3.69,4.11-4.11,14.83-4.11,16.05v.52h1.08v-.52c0-.93.61-11.55,3.07-15.73.06-.1.1-.18.1-.28Z"/>
    <rect x="309.12" y="36" width="1.08" height="7.42"/>
    <rect x="309.12" y="42.9" width="1.08" height="7.42"/>
    <rect x="309.12" y="49.79" width="1.08" height="7.42"/>
    <rect x="309.12" y="56.69" width="1.08" height="7.42"/>
    <rect x="309.12" y="63.58" width="1.08" height="7.42"/>
    <rect x="309.12" y="70.48" width="1.08" height="7.42"/>
    <rect x="309.12" y="77.37" width="1.08" height="7.42"/>
    <path d="M313.37,101.08c0-.09-.05-.17-.1-.28-2.46-4.18-3.07-14.8-3.07-15.73v-.52h-1.08v.52c0,1.22.43,11.94,4.11,16.05l.07.02.07-.07Z"/>
    <path d="M318.83,29.29c-.02-.23-.02-.34-.02-.49,0-.14,0-.25.02-.49l-3.77.11,1.99-2.11c1.06-1.12,1.39-1.72,1.39-2.54,0-1.25-.85-2.03-2.24-2.03-.79,0-1.32.22-1.85.76l-.19,1.48h.32l.14-.5c.17-.63.57-.91,1.3-.91.94,0,1.54.59,1.54,1.52,0,.82-.46,1.63-1.69,2.93l-1.85,1.97v.28c.81-.02,1.63-.03,2.43-.03s1.67.01,2.5.03Z"/>
    <path d="M318.73,40.05c0-1.23-.88-2.11-2.13-2.11-.52,0-.92.14-1.59.55l.1-2.28,3.33.05.05-.05c-.02-.2-.02-.26-.02-.43,0-.17,0-.24.02-.44l-.05-.05s-1.16.05-1.9.05-1.9-.05-1.9-.05l-.05.05.02,1.49c0,.96-.03,1.97-.07,2.45l.22.07c.51-.51.81-.67,1.34-.67,1.05,0,1.7.74,1.7,1.92s-.7,1.92-1.89,1.92c-.59,0-1.13-.2-1.29-.48l-.5-.89-.26.15c.25.62.38.97.53,1.45.31.16.74.26,1.21.26.73,0,1.51-.32,2.11-.84.67-.59,1.01-1.33,1.01-2.14Z"/>
    <path d="M316.77,53.68h-2.35l2.35-3.84v3.84ZM318.87,56.39v-.33l-.52-.03c-.53-.03-.65-.17-.65-.83v-.82c.64,0,.87.01,1.18.04v-.77s-.53.03-.88.03h-.29v-1.52c0-1.94.02-2.88.08-3.33l-.13-.05-.81.29-3.09,5.05.12.25h2.91v.82c0,.65-.12.81-.65.83l-.68.03v.33c.59-.02,1.17-.03,1.76-.03.56,0,1.11.01,1.67.03Z"/>
    <path d="M316.77,67.23h-2.35l2.35-3.84v3.84ZM318.87,69.94v-.33l-.52-.03c-.53-.03-.65-.17-.65-.83v-.82c.64,0,.87.01,1.18.04v-.77s-.53.03-.88.03h-.29v-1.52c0-1.94.02-2.88.08-3.33l-.13-.05-.81.29-3.09,5.05.12.25h2.91v.82c0,.65-.12.81-.65.83l-.68.03v.33c.59-.02,1.17-.03,1.76-.03.56,0,1.11.01,1.67.03Z"/>
    <path d="M316.77,80.78h-2.35l2.35-3.84v3.84ZM318.87,83.49v-.33l-.52-.03c-.53-.03-.65-.17-.65-.83v-.82c.64,0,.87.01,1.18.04v-.77s-.53.03-.88.03h-.29v-1.52c0-1.94.02-2.88.08-3.33l-.13-.05-.81.29-3.09,5.05.12.25h2.91v.82c0,.65-.12.81-.65.83l-.68.03v.33c.59-.02,1.17-.03,1.76-.03.56,0,1.11.01,1.67.03Z"/>
    <path d="M318.73,94.24c0-1.23-.88-2.11-2.13-2.11-.52,0-.92.14-1.59.55l.1-2.28,3.33.05.05-.05c-.02-.2-.02-.26-.02-.43,0-.17,0-.24.02-.44l-.05-.05s-1.16.05-1.9.05-1.9-.05-1.9-.05l-.05.05.02,1.49c0,.96-.03,1.97-.07,2.45l.22.07c.51-.51.81-.67,1.34-.67,1.05,0,1.7.74,1.7,1.92s-.7,1.92-1.89,1.92c-.59,0-1.13-.2-1.29-.48l-.5-.89-.26.15c.25.62.38.97.53,1.45.31.16.74.26,1.21.26.73,0,1.51-.32,2.11-.84.67-.59,1.01-1.33,1.01-2.14Z"/>
    <path d="M319.52,19.77c0,.09.05.17.1.28,2.46,4.18,3.07,14.8,3.07,15.73v.52h1.08v-.52c0-1.22-.43-11.94-4.11-16.05l-.07-.02-.07.07Z"/>
    <rect x="322.69" y="36" width="1.08" height="7.42"/>
    <rect x="322.69" y="42.9" width="1.08" height="7.42"/>
    <rect x="322.69" y="49.79" width="1.08" height="7.42"/>
    <rect x="322.69" y="56.69" width="1.08" height="7.42"/>
    <rect x="322.69" y="63.58" width="1.08" height="7.42"/>
    <rect x="322.69" y="70.48" width="1.08" height="7.42"/>
    <rect x="322.69" y="77.37" width="1.08" height="7.42"/>
    <path d="M319.52,101.08l.07.07.07-.02c3.69-4.11,4.11-14.83,4.11-16.05v-.52h-1.08v.52c0,.93-.61,11.55-3.07,15.73-.06.1-.1.18-.1.28Z"/>
  </g>
  <ellipse class="st9" cx="178.55" cy="6.22" rx="5.05" ry="5.49"/>
  <ellipse class="st9" cx="177.78" cy="9.67" rx="3.22" ry="1.73"/>
  <path class="st1" d="M179.19,12.9c0,1.41-.75,2.55-1.67,2.55s-1.67-1.14-1.67-2.55.75-2.55,1.67-2.55,1.67,1.14,1.67,2.55Z"/>
  <ellipse class="st9" cx="177.19" cy="7.5" rx="3.6" ry="3.91"/>
  <path class="st1" d="M182.44,11.83c0,1.32-.79,2.38-1.77,2.38s-1.77-1.07-1.77-2.38.79-2.38,1.77-2.38,1.77,1.07,1.77,2.38Z"/>
  <path class="st1" d="M182.28,12.87c.23,1.12-.91,2.3-2.55,2.63-1.63.33-3.14-.31-3.37-1.43s.91-2.3,2.55-2.63c1.63-.33,3.14.31,3.37,1.43Z"/>
  <path class="st1" d="M179.26,14.82c.06.65-.33,1.22-.88,1.27-.55.05-1.05-.43-1.11-1.07-.06-.65.33-1.22.88-1.27s1.05.43,1.11,1.07Z"/>
  <path class="st1" d="M177.62,15.97c-.23-.39-.19-.84.09-1,.28-.16.69.03.91.42.23.39.19.84-.09,1s-.69-.03-.91-.42Z"/>
  <ellipse class="st9" cx="177.11" cy="7.06" rx="3.6" ry="4.34" transform="translate(.57 22.93) rotate(-7.42)"/>
  <path class="st1" d="M182.47,8.98c.31,2.38-1.04,4.51-3.01,4.77-1.97.26-3.82-1.46-4.13-3.84s1.04-4.51,3.01-4.77c1.97-.26,3.82,1.46,4.13,3.84Z"/>
  <path class="st3" d="M178.21,16.41c-1.36-1.15-1.96-2.96-1.54-4.7-.73,1.91-.05,4.07,1.63,5.22.38-.78,1.04-1.38,1.85-1.69-.77.12-1.47.53-1.94,1.16ZM175.93,14.21c-.32-1.96.46-3.93,2.03-5.15-1.92.91-2.81,3.16-2.03,5.15ZM182.45,4.28c.34,1.45.23,2.99-.34,4.4.41-1.37.44-2.81.08-4.18-.96-3.69-4.9-2.92-5.94,0-.61,1.71-.66,3.58-.13,5.35-.82-1.91-.84-4.04-.08-5.93,1.24-3.09,5.54-3.34,6.41.37ZM178.49,8.74c.25-.6.24-1.27-.03-1.85-.57-1.21.3-2.11,1.51-1.67.23.09.49.09.73.01.99-.33,1.59.51,1.15,1.41-.87,1.79.13,1.76.27,3.29.4,4.48-5.54,3.19-3.62-1.2ZM180.27,15.52c.94-.3,1.69-.99,2.08-1.89.39-.91.36-1.93-.07-2.82.42,1.84-.4,3.74-2.02,4.71ZM179.18,5.63l.17.03-.08.15c0,.1.08.18.18.18l.15-.08.03.17c0,.25-.2.45-.45.45s-.45-.2-.45-.45.2-.45.45-.45ZM181.12,5.63l.17.03-.08.15c0,.1.08.18.18.18l.15-.08.03.17c0,.25-.2.45-.45.45s-.45-.2-.45-.45.2-.45.45-.45ZM181.76,11.5c-1.08.33-2.25.2-3.22-.37.99.34,2.08-.16,2.95.29.09.04.17.07.27.09ZM179.88,7.94c-.07.21-.06.44.05.63.11.19.29.33.51.37.25-.52-.38-.62-.56-1ZM180.97,8.11c.04.17.03.36-.03.52-.06.16-.17.27-.3.31-.15-.43.22-.51.33-.83Z"/>
  <ellipse class="st12" cx="163.1" cy="6.35" rx="5.05" ry="5.49"/>
  <ellipse class="st12" cx="162.33" cy="9.8" rx="3.22" ry="1.73"/>
  <path class="st6" d="M163.74,13.03c0,1.41-.75,2.55-1.67,2.55s-1.67-1.14-1.67-2.55.75-2.55,1.67-2.55,1.67,1.14,1.67,2.55Z"/>
  <ellipse class="st12" cx="161.75" cy="7.63" rx="3.6" ry="3.91"/>
  <path class="st6" d="M167,11.96c0,1.32-.79,2.38-1.77,2.38s-1.77-1.07-1.77-2.38.79-2.38,1.77-2.38,1.77,1.07,1.77,2.38Z"/>
  <path class="st6" d="M166.83,13c.23,1.12-.91,2.3-2.55,2.63s-3.14-.31-3.37-1.43.91-2.3,2.55-2.63c1.63-.33,3.14.31,3.37,1.43Z"/>
  <path class="st6" d="M163.81,14.95c.06.65-.33,1.22-.88,1.27-.55.05-1.05-.43-1.11-1.07-.06-.65.33-1.22.88-1.27s1.05.43,1.11,1.07Z"/>
  <path class="st6" d="M162.17,16.1c-.23-.39-.19-.84.09-1s.69.03.91.42.19.84-.09,1-.69-.03-.91-.42Z"/>
  <path class="st6" d="M165.24,6.73c.31,2.38-1.04,4.51-3.01,4.77-1.97.26-3.82-1.46-4.13-3.84-.31-2.38,1.04-4.51,3.01-4.77s3.82,1.46,4.13,3.84Z"/>
  <ellipse class="st12" cx="163.45" cy="9.58" rx="3.6" ry="4.34" transform="translate(.13 21.19) rotate(-7.42)"/>
  <path class="st3" d="M162.77,16.54c-1.36-1.15-1.96-2.96-1.54-4.7-.73,1.91-.05,4.07,1.63,5.22.38-.78,1.04-1.38,1.85-1.69-.77.12-1.47.53-1.94,1.16ZM160.48,14.34c-.32-1.96.46-3.93,2.03-5.15-1.92.91-2.81,3.16-2.03,5.15ZM167,4.41c.34,1.45.23,2.99-.34,4.4.41-1.37.44-2.81.08-4.18-.96-3.69-4.9-2.92-5.94,0-.61,1.71-.66,3.58-.13,5.35-.82-1.91-.84-4.04-.08-5.93,1.24-3.09,5.54-3.34,6.41.37ZM163.04,8.87c.25-.6.24-1.27-.03-1.85-.57-1.21.3-2.11,1.51-1.67.23.09.49.09.73.01.99-.33,1.59.51,1.15,1.41-.87,1.79.13,1.76.27,3.29.4,4.48-5.54,3.19-3.62-1.2ZM164.82,15.65c.94-.3,1.69-.99,2.08-1.89.39-.91.36-1.93-.07-2.82.42,1.84-.4,3.74-2.02,4.71ZM163.73,5.76l.17.03-.08.15c0,.1.08.18.18.18l.15-.08.03.17c0,.25-.2.45-.45.45s-.45-.2-.45-.45.2-.45.45-.45ZM165.68,5.76l.17.03-.08.15c0,.1.08.18.18.18l.15-.08.03.17c0,.25-.2.45-.45.45s-.45-.2-.45-.45.2-.45.45-.45ZM166.32,11.63c-1.08.33-2.25.2-3.22-.37.99.34,2.08-.16,2.95.29.09.04.17.07.27.09ZM164.43,8.07c-.07.21-.06.44.05.63.11.19.29.33.51.37.25-.52-.38-.62-.56-1ZM165.52,8.24c.04.17.03.36-.03.52-.06.16-.17.27-.3.31-.15-.43.22-.51.33-.83Z"/>
  <ellipse class="st19" cx="193.9" cy="6.22" rx="5.05" ry="5.49"/>
  <ellipse class="st19" cx="193.12" cy="9.67" rx="3.22" ry="1.73"/>
  <path class="st8" d="M194.54,12.9c0,1.41-.75,2.55-1.67,2.55s-1.67-1.14-1.67-2.55.75-2.55,1.67-2.55,1.67,1.14,1.67,2.55Z"/>
  <ellipse class="st19" cx="192.54" cy="7.5" rx="3.6" ry="3.91"/>
  <path class="st8" d="M197.79,11.83c0,1.32-.79,2.38-1.77,2.38s-1.77-1.07-1.77-2.38.79-2.38,1.77-2.38,1.77,1.07,1.77,2.38Z"/>
  <path class="st8" d="M197.63,12.87c.23,1.12-.91,2.3-2.55,2.63-1.63.33-3.14-.31-3.37-1.43s.91-2.3,2.55-2.63c1.63-.33,3.14.31,3.37,1.43Z"/>
  <path class="st8" d="M194.61,14.82c.06.65-.33,1.22-.88,1.27-.55.05-1.05-.43-1.11-1.07-.06-.65.33-1.22.88-1.27s1.05.43,1.11,1.07Z"/>
  <path class="st8" d="M192.96,15.97c-.23-.39-.19-.84.09-1s.69.03.91.42.19.84-.09,1c-.28.16-.69-.03-.91-.42Z"/>
  <path class="st8" d="M196.03,6.6c.31,2.38-1.04,4.51-3.01,4.77-1.97.26-3.82-1.46-4.13-3.84-.31-2.38,1.04-4.51,3.01-4.77,1.97-.26,3.82,1.46,4.13,3.84Z"/>
  <path class="st8" d="M197.82,8.98c.31,2.38-1.04,4.51-3.01,4.77-1.97.26-3.82-1.46-4.13-3.84-.31-2.38,1.04-4.51,3.01-4.77,1.97-.26,3.82,1.46,4.13,3.84Z"/>
  <path class="st3" d="M193.56,16.41c-1.36-1.15-1.96-2.96-1.55-4.7-.73,1.91-.05,4.07,1.63,5.22.38-.78,1.04-1.38,1.85-1.69-.77.12-1.47.53-1.94,1.16ZM191.28,14.21c-.32-1.96.46-3.93,2.03-5.15-1.92.91-2.81,3.16-2.03,5.15ZM197.8,4.28c.34,1.45.23,2.99-.34,4.4.41-1.37.44-2.81.08-4.18-.96-3.69-4.9-2.92-5.94,0-.61,1.71-.66,3.58-.13,5.35-.82-1.91-.84-4.04-.08-5.93,1.24-3.09,5.54-3.34,6.41.37ZM193.83,8.74c.25-.6.24-1.27-.03-1.85-.57-1.21.3-2.11,1.51-1.67.23.09.49.09.73.01.99-.33,1.59.51,1.15,1.41-.87,1.79.13,1.76.27,3.29.4,4.48-5.54,3.19-3.62-1.2ZM195.62,15.52c.94-.3,1.69-.99,2.08-1.89.39-.91.36-1.93-.07-2.82.42,1.84-.4,3.74-2.02,4.71ZM194.52,5.63l.17.03-.08.15c0,.1.08.18.18.18l.15-.08.03.17c0,.25-.2.45-.45.45s-.45-.2-.45-.45.2-.45.45-.45ZM196.47,5.63l.17.03-.08.15c0,.1.08.18.18.18l.15-.08.03.17c0,.25-.2.45-.45.45s-.45-.2-.45-.45.2-.45.45-.45ZM197.11,11.5c-1.08.33-2.25.2-3.22-.37.99.34,2.08-.16,2.95.29.09.04.17.07.27.09ZM195.23,7.94c-.07.21-.06.44.05.63.11.19.29.33.51.37.25-.52-.38-.62-.56-1ZM196.32,8.11c.04.17.03.36-.03.52-.06.16-.17.27-.3.31-.15-.43.22-.51.33-.83Z"/>
  <ellipse class="st16" cx="239.39" cy="6.22" rx="5.05" ry="5.49"/>
  <ellipse class="st16" cx="238.62" cy="9.67" rx="3.22" ry="1.73"/>
  <path class="st4" d="M240.03,12.9c0,1.41-.75,2.55-1.67,2.55s-1.67-1.14-1.67-2.55.75-2.55,1.67-2.55,1.67,1.14,1.67,2.55Z"/>
  <ellipse class="st16" cx="238.04" cy="7.5" rx="3.6" ry="3.91"/>
  <ellipse class="st16" cx="241.52" cy="11.83" rx="1.77" ry="2.38"/>
  <path class="st4" d="M243.13,12.87c.23,1.12-.91,2.3-2.55,2.63-1.63.33-3.14-.31-3.37-1.43-.23-1.12.91-2.3,2.55-2.63s3.14.31,3.37,1.43Z"/>
  <path class="st4" d="M240.1,14.82c.06.65-.33,1.22-.88,1.27-.55.05-1.05-.43-1.11-1.07-.06-.65.33-1.22.88-1.27s1.05.43,1.11,1.07Z"/>
  <path class="st4" d="M238.46,15.97c-.23-.39-.19-.84.09-1,.28-.16.69.03.91.42s.19.84-.09,1c-.28.16-.69-.03-.91-.42Z"/>
  <path class="st4" d="M241.53,6.6c.31,2.38-1.04,4.51-3.01,4.77-1.97.26-3.82-1.46-4.13-3.84-.31-2.38,1.04-4.51,3.01-4.77,1.97-.26,3.82,1.46,4.13,3.84Z"/>
  <ellipse class="st16" cx="239.75" cy="9.45" rx="3.6" ry="4.34" transform="translate(.79 31.03) rotate(-7.42)"/>
  <path class="st3" d="M239.06,16.41c-1.36-1.15-1.96-2.96-1.55-4.7-.73,1.91-.05,4.07,1.63,5.22.38-.78,1.04-1.38,1.85-1.69-.77.12-1.47.53-1.94,1.16ZM236.77,14.21c-.32-1.96.46-3.93,2.03-5.15-1.92.91-2.81,3.16-2.03,5.15ZM243.3,4.28c.34,1.45.23,2.99-.34,4.4.41-1.37.44-2.81.08-4.18-.96-3.69-4.9-2.92-5.94,0-.61,1.71-.66,3.58-.13,5.35-.82-1.91-.84-4.04-.08-5.93,1.24-3.09,5.54-3.34,6.41.37ZM239.33,8.74c.25-.6.24-1.27-.03-1.85-.57-1.21.3-2.11,1.51-1.67.23.09.49.09.73.01.99-.33,1.59.51,1.15,1.41-.87,1.79.13,1.76.27,3.29.4,4.48-5.54,3.19-3.62-1.2ZM241.12,15.52c.94-.3,1.69-.99,2.08-1.89.39-.91.36-1.93-.07-2.82.42,1.84-.4,3.74-2.02,4.71ZM240.02,5.63l.17.03-.08.15c0,.1.08.18.18.18l.15-.08.03.17c0,.25-.2.45-.45.45s-.45-.2-.45-.45.2-.45.45-.45ZM241.97,5.63l.17.03-.08.15c0,.1.08.18.18.18l.15-.08.03.17c0,.25-.2.45-.45.45s-.45-.2-.45-.45.2-.45.45-.45ZM242.61,11.5c-1.08.33-2.25.2-3.22-.37.99.34,2.08-.16,2.95.29.09.04.17.07.27.09ZM240.73,7.94c-.07.21-.06.44.05.63.11.19.29.33.51.37.25-.52-.38-.62-.56-1ZM241.82,8.11c.04.17.03.36-.03.52-.06.16-.17.27-.3.31-.15-.43.22-.51.33-.83Z"/>
  <ellipse class="st21" cx="223.93" cy="6.11" rx="5.05" ry="5.49"/>
  <path class="st7" d="M226.37,9.56c0,.96-1.44,1.73-3.22,1.73s-3.22-.78-3.22-1.73,1.44-1.73,3.22-1.73,3.22.78,3.22,1.73Z"/>
  <ellipse class="st21" cx="222.9" cy="12.78" rx="1.67" ry="2.55"/>
  <ellipse class="st21" cx="222.57" cy="7.38" rx="3.6" ry="3.91"/>
  <path class="st7" d="M227.82,11.72c0,1.32-.79,2.38-1.77,2.38s-1.77-1.07-1.77-2.38.79-2.38,1.77-2.38,1.77,1.07,1.77,2.38Z"/>
  <path class="st7" d="M227.66,12.75c.23,1.12-.91,2.3-2.55,2.63-1.63.33-3.14-.31-3.37-1.43s.91-2.3,2.55-2.63c1.63-.33,3.14.31,3.37,1.43Z"/>
  <path class="st7" d="M224.64,14.71c.06.65-.33,1.22-.88,1.27-.55.05-1.05-.43-1.11-1.07-.06-.65.33-1.22.88-1.27s1.05.43,1.11,1.07Z"/>
  <path class="st7" d="M222.99,15.86c-.23-.39-.19-.84.09-1,.28-.16.69.03.91.42.23.39.19.84-.09,1s-.69-.03-.91-.42Z"/>
  <ellipse class="st21" cx="222.49" cy="6.95" rx="3.6" ry="4.34" transform="translate(.97 28.79) rotate(-7.42)"/>
  <path class="st7" d="M227.85,8.87c.31,2.38-1.04,4.51-3.01,4.77-1.97.26-3.82-1.46-4.13-3.84s1.04-4.51,3.01-4.77c1.97-.26,3.82,1.46,4.13,3.84Z"/>
  <path class="st3" d="M223.59,16.29c-1.36-1.15-1.96-2.96-1.55-4.7-.73,1.91-.05,4.07,1.63,5.22.38-.78,1.04-1.38,1.85-1.69-.77.12-1.47.53-1.94,1.16ZM221.31,14.1c-.32-1.96.46-3.93,2.03-5.15-1.92.91-2.81,3.16-2.03,5.15ZM227.83,4.17c.34,1.45.23,2.99-.34,4.4.41-1.37.44-2.81.08-4.18-.96-3.69-4.9-2.92-5.94,0-.61,1.71-.66,3.58-.13,5.35-.82-1.91-.84-4.04-.08-5.93,1.24-3.09,5.54-3.34,6.41.37ZM223.87,8.63c.25-.6.24-1.27-.03-1.85-.57-1.21.3-2.11,1.51-1.67.23.09.49.09.73.01.99-.33,1.59.51,1.15,1.41-.87,1.79.13,1.76.27,3.29.4,4.48-5.54,3.19-3.62-1.2ZM225.65,15.4c.94-.3,1.69-.99,2.08-1.89.39-.91.36-1.93-.07-2.82.42,1.84-.4,3.74-2.02,4.71ZM224.55,5.52l.17.03-.08.15c0,.1.08.18.18.18l.15-.08.03.17c0,.25-.2.45-.45.45s-.45-.2-.45-.45.2-.45.45-.45ZM226.5,5.52l.17.03-.08.15c0,.1.08.18.18.18l.15-.08.03.17c0,.25-.2.45-.45.45s-.45-.2-.45-.45.2-.45.45-.45ZM227.14,11.39c-1.08.33-2.25.2-3.22-.37.99.34,2.08-.16,2.95.29.09.04.17.07.27.09ZM225.26,7.83c-.07.21-.06.44.05.63.11.19.29.33.51.37.25-.52-.38-.62-.56-1ZM226.35,7.99c.04.17.03.36-.03.52-.06.16-.17.27-.3.31-.15-.43.22-.51.33-.83Z"/>
  <ellipse class="st11" cx="209.12" cy="6.04" rx="5.05" ry="5.49"/>
  <path class="st2" d="M211.57,9.49c0,.96-1.44,1.73-3.22,1.73s-3.22-.78-3.22-1.73,1.44-1.73,3.22-1.73,3.22.78,3.22,1.73Z"/>
  <path class="st2" d="M209.76,12.72c0,1.41-.75,2.55-1.67,2.55s-1.67-1.14-1.67-2.55.75-2.55,1.67-2.55,1.67,1.14,1.67,2.55Z"/>
  <ellipse class="st11" cx="207.77" cy="7.32" rx="3.6" ry="3.91"/>
  <path class="st2" d="M213.02,11.65c0,1.32-.79,2.38-1.77,2.38s-1.77-1.07-1.77-2.38.79-2.38,1.77-2.38,1.77,1.07,1.77,2.38Z"/>
  <ellipse class="st11" cx="209.9" cy="13.29" rx="3.02" ry="2.07" transform="translate(1.57 42.15) rotate(-11.51)"/>
  <path class="st2" d="M209.83,14.64c.06.65-.33,1.22-.88,1.27s-1.05-.43-1.11-1.07c-.06-.65.33-1.22.88-1.27s1.05.43,1.11,1.07Z"/>
  <path class="st2" d="M208.19,15.79c-.23-.39-.19-.84.09-1,.28-.16.69.03.91.42.23.39.19.84-.09,1-.28.16-.69-.03-.91-.42Z"/>
  <path class="st2" d="M211.26,6.42c.31,2.38-1.04,4.51-3.01,4.77-1.97.26-3.82-1.46-4.13-3.84-.31-2.38,1.04-4.51,3.01-4.77,1.97-.26,3.82,1.46,4.13,3.84Z"/>
  <path class="st2" d="M213.05,8.8c.31,2.38-1.04,4.51-3.01,4.77-1.97.26-3.82-1.46-4.13-3.84-.31-2.38,1.04-4.51,3.01-4.77,1.97-.26,3.82,1.46,4.13,3.84Z"/>
  <path class="st3" d="M208.79,16.23c-1.36-1.15-1.96-2.96-1.54-4.7-.73,1.91-.05,4.07,1.63,5.22.38-.78,1.04-1.38,1.85-1.69-.77.12-1.47.53-1.94,1.16ZM206.5,14.03c-.32-1.96.46-3.93,2.03-5.15-1.92.91-2.81,3.16-2.03,5.15ZM213.03,4.1c.34,1.45.23,2.99-.34,4.4.41-1.37.44-2.81.08-4.18-.96-3.69-4.9-2.92-5.94,0-.61,1.71-.66,3.58-.13,5.35-.82-1.91-.84-4.04-.08-5.93,1.24-3.09,5.54-3.34,6.41.37ZM209.06,8.56c.25-.6.24-1.27-.03-1.85-.57-1.21.3-2.11,1.51-1.67.23.09.49.09.73.01.99-.33,1.59.51,1.15,1.41-.87,1.79.13,1.76.27,3.29.4,4.48-5.54,3.19-3.62-1.2ZM210.85,15.34c.94-.3,1.69-.99,2.08-1.89.39-.91.36-1.93-.07-2.82.42,1.84-.4,3.74-2.02,4.71ZM209.75,5.45l.17.03-.08.15c0,.1.08.18.18.18l.15-.08.03.17c0,.25-.2.45-.45.45s-.45-.2-.45-.45.2-.45.45-.45ZM211.7,5.45l.17.03-.08.15c0,.1.08.18.18.18l.15-.08.03.17c0,.25-.2.45-.45.45s-.45-.2-.45-.45.2-.45.45-.45ZM212.34,11.32c-1.08.33-2.25.2-3.22-.37.99.34,2.08-.16,2.95.29.09.04.17.07.27.09ZM210.46,7.76c-.07.21-.06.44.05.63.11.19.29.33.51.37.25-.52-.38-.62-.56-1ZM211.55,7.93c.04.17.03.36-.03.52-.06.16-.17.27-.3.31-.15-.43.22-.51.33-.83Z"/>
  <ellipse class="st16" cx="148.06" cy="90.53" rx="5.05" ry="5.49"/>
  <path class="st4" d="M150.5,93.98c0,.96-1.44,1.73-3.22,1.73s-3.22-.78-3.22-1.73,1.44-1.73,3.22-1.73,3.22.78,3.22,1.73Z"/>
  <path class="st4" d="M148.7,97.21c0,1.41-.75,2.55-1.67,2.55s-1.67-1.14-1.67-2.55.75-2.55,1.67-2.55,1.67,1.14,1.67,2.55Z"/>
  <ellipse class="st16" cx="146.7" cy="91.81" rx="3.6" ry="3.91"/>
  <path class="st4" d="M151.95,96.14c0,1.32-.79,2.38-1.77,2.38s-1.77-1.07-1.77-2.38.79-2.38,1.77-2.38,1.77,1.07,1.77,2.38Z"/>
  <path class="st4" d="M151.79,97.18c.23,1.12-.91,2.3-2.55,2.63-1.63.33-3.14-.31-3.37-1.43s.91-2.3,2.55-2.63c1.63-.33,3.14.31,3.37,1.43Z"/>
  <path class="st4" d="M148.77,99.13c.06.65-.33,1.22-.88,1.27s-1.05-.43-1.11-1.07c-.06-.65.33-1.22.88-1.27s1.05.43,1.11,1.07Z"/>
  <path class="st4" d="M147.13,100.28c-.23-.39-.19-.84.09-1s.69.03.91.42c.23.39.19.84-.09,1-.28.16-.69-.03-.91-.42Z"/>
  <ellipse class="st16" cx="146.62" cy="91.37" rx="3.6" ry="4.34" transform="translate(-10.57 19.7) rotate(-7.42)"/>
  <path class="st4" d="M151.98,93.29c.31,2.38-1.04,4.51-3.01,4.77-1.97.26-3.82-1.46-4.13-3.84-.31-2.38,1.04-4.51,3.01-4.77,1.97-.26,3.82,1.46,4.13,3.84Z"/>
  <path class="st3" d="M147.72,100.71c-1.36-1.15-1.96-2.96-1.55-4.7-.73,1.91-.05,4.07,1.63,5.22.38-.78,1.04-1.38,1.85-1.69-.77.12-1.47.53-1.94,1.16ZM145.44,98.52c-.32-1.96.46-3.93,2.03-5.15-1.92.91-2.81,3.16-2.03,5.15ZM151.96,88.59c.34,1.45.23,2.99-.34,4.4.41-1.37.44-2.81.08-4.18-.96-3.69-4.9-2.92-5.94,0-.61,1.71-.66,3.58-.13,5.35-.82-1.91-.84-4.04-.08-5.93,1.24-3.09,5.54-3.34,6.41.37ZM148,93.05c.25-.6.24-1.27-.03-1.85-.57-1.21.3-2.11,1.51-1.67.23.09.49.09.73.01.99-.33,1.59.51,1.15,1.41-.87,1.79.13,1.76.27,3.29.4,4.48-5.54,3.19-3.62-1.2ZM149.78,99.83c.94-.3,1.69-.99,2.08-1.89.39-.91.36-1.93-.07-2.82.42,1.84-.4,3.74-2.02,4.71ZM148.69,89.94l.17.03-.08.15c0,.1.08.18.18.18l.15-.08.03.17c0,.25-.2.45-.45.45s-.45-.2-.45-.45.2-.45.45-.45ZM150.63,89.94l.17.03-.08.15c0,.1.08.18.18.18l.15-.08.03.17c0,.25-.2.45-.45.45s-.45-.2-.45-.45.2-.45.45-.45ZM151.27,95.81c-1.08.33-2.25.2-3.22-.37.99.34,2.08-.16,2.95.29.09.04.17.07.27.09ZM149.39,92.25c-.07.21-.06.44.05.63.11.19.29.33.51.37.25-.52-.38-.62-.56-1ZM150.48,92.42c.04.17.03.36-.03.52-.06.16-.17.27-.3.31-.15-.43.22-.51.33-.83Z"/>
  <ellipse class="st21" cx="147.83" cy="77.32" rx="5.05" ry="5.49"/>
  <path class="st7" d="M150.28,80.76c0,.96-1.44,1.73-3.22,1.73s-3.22-.78-3.22-1.73,1.44-1.73,3.22-1.73,3.22.78,3.22,1.73Z"/>
  <path class="st7" d="M148.47,83.99c0,1.41-.75,2.55-1.67,2.55s-1.67-1.14-1.67-2.55.75-2.55,1.67-2.55,1.67,1.14,1.67,2.55Z"/>
  <ellipse class="st21" cx="146.48" cy="78.59" rx="3.6" ry="3.91"/>
  <path class="st7" d="M151.72,82.92c0,1.32-.79,2.38-1.77,2.38s-1.77-1.07-1.77-2.38.79-2.38,1.77-2.38,1.77,1.07,1.77,2.38Z"/>
  <path class="st7" d="M151.56,83.96c.23,1.12-.91,2.3-2.55,2.63s-3.14-.31-3.37-1.43.91-2.3,2.55-2.63c1.63-.33,3.14.31,3.37,1.43Z"/>
  <path class="st7" d="M148.54,85.92c.06.65-.33,1.22-.88,1.27s-1.05-.43-1.11-1.07c-.06-.65.33-1.22.88-1.27s1.05.43,1.11,1.07Z"/>
  <path class="st7" d="M146.9,87.06c-.23-.39-.19-.84.09-1s.69.03.91.42c.23.39.19.84-.09,1-.28.16-.69-.03-.91-.42Z"/>
  <path class="st7" d="M149.97,77.69c.31,2.38-1.04,4.51-3.01,4.77-1.97.26-3.82-1.46-4.13-3.84-.31-2.38,1.04-4.51,3.01-4.77,1.97-.26,3.82,1.46,4.13,3.84Z"/>
  <ellipse class="st21" cx="148.18" cy="80.54" rx="3.6" ry="4.34" transform="translate(-9.16 19.81) rotate(-7.42)"/>
  <path class="st3" d="M147.5,87.5c-1.36-1.15-1.96-2.96-1.54-4.7-.73,1.91-.05,4.07,1.63,5.22.38-.78,1.04-1.38,1.85-1.69-.77.12-1.47.53-1.94,1.16ZM145.21,85.3c-.32-1.96.46-3.93,2.03-5.15-1.92.91-2.81,3.16-2.03,5.15ZM151.73,75.37c.34,1.45.23,2.99-.34,4.4.41-1.37.44-2.81.08-4.18-.96-3.69-4.9-2.92-5.94,0-.61,1.71-.66,3.58-.13,5.35-.82-1.91-.84-4.04-.08-5.93,1.24-3.09,5.54-3.34,6.41.37ZM147.77,79.83c.25-.6.24-1.27-.03-1.85-.57-1.21.3-2.11,1.51-1.67.23.09.49.09.73.01.99-.33,1.59.51,1.15,1.41-.87,1.79.13,1.76.27,3.29.4,4.48-5.54,3.19-3.62-1.2ZM149.55,86.61c.94-.3,1.69-.99,2.08-1.89.39-.91.36-1.93-.07-2.82.42,1.84-.4,3.74-2.02,4.71ZM148.46,76.73l.17.03-.08.15c0,.1.08.18.18.18l.15-.08.03.17c0,.25-.2.45-.45.45s-.45-.2-.45-.45.2-.45.45-.45ZM150.4,76.73l.17.03-.08.15c0,.1.08.18.18.18l.15-.08.03.17c0,.25-.2.45-.45.45s-.45-.2-.45-.45.2-.45.45-.45ZM151.05,82.59c-1.08.33-2.25.2-3.22-.37.99.34,2.08-.16,2.95.29.09.04.17.07.27.09ZM149.16,79.03c-.07.21-.06.44.05.63.11.19.29.33.51.37.25-.52-.38-.62-.56-1ZM150.25,79.2c.04.17.03.36-.03.52-.06.16-.17.27-.3.31-.15-.43.22-.51.33-.83Z"/>
  <ellipse class="st11" cx="147.82" cy="63.84" rx="5.05" ry="5.49"/>
  <path class="st2" d="M150.27,67.29c0,.96-1.44,1.73-3.22,1.73s-3.22-.78-3.22-1.73,1.44-1.73,3.22-1.73,3.22.78,3.22,1.73Z"/>
  <path class="st2" d="M148.46,70.52c0,1.41-.75,2.55-1.67,2.55s-1.67-1.14-1.67-2.55.75-2.55,1.67-2.55,1.67,1.14,1.67,2.55Z"/>
  <ellipse class="st11" cx="146.47" cy="65.12" rx="3.6" ry="3.91"/>
  <path class="st2" d="M151.71,69.45c0,1.32-.79,2.38-1.77,2.38s-1.77-1.07-1.77-2.38.79-2.38,1.77-2.38,1.77,1.07,1.77,2.38Z"/>
  <path class="st2" d="M151.55,70.49c.23,1.12-.91,2.3-2.55,2.63-1.63.33-3.14-.31-3.37-1.43s.91-2.3,2.55-2.63c1.63-.33,3.14.31,3.37,1.43Z"/>
  <path class="st2" d="M148.53,72.44c.06.65-.33,1.22-.88,1.27s-1.05-.43-1.11-1.07c-.06-.65.33-1.22.88-1.27s1.05.43,1.11,1.07Z"/>
  <path class="st2" d="M146.89,73.59c-.23-.39-.19-.84.09-1,.28-.16.69.03.91.42.23.39.19.84-.09,1-.28.16-.69-.03-.91-.42Z"/>
  <path class="st2" d="M149.96,64.22c.31,2.38-1.04,4.51-3.01,4.77-1.97.26-3.82-1.46-4.13-3.84-.31-2.38,1.04-4.51,3.01-4.77,1.97-.26,3.82,1.46,4.13,3.84Z"/>
  <ellipse class="st11" cx="148.17" cy="67.07" rx="3.6" ry="4.34" transform="translate(-7.42 19.69) rotate(-7.42)"/>
  <path class="st3" d="M147.48,74.02c-1.36-1.15-1.96-2.96-1.54-4.7-.73,1.91-.05,4.07,1.63,5.22.38-.78,1.04-1.38,1.85-1.69-.77.12-1.47.53-1.94,1.16ZM145.2,71.83c-.32-1.96.46-3.93,2.03-5.15-1.92.91-2.81,3.16-2.03,5.15ZM151.72,61.9c.34,1.45.23,2.99-.34,4.4.41-1.37.44-2.81.08-4.18-.96-3.69-4.9-2.92-5.94,0-.61,1.71-.66,3.58-.13,5.35-.82-1.91-.84-4.04-.08-5.93,1.24-3.09,5.54-3.34,6.41.37ZM147.76,66.36c.25-.6.24-1.27-.03-1.85-.57-1.21.3-2.11,1.51-1.67.23.09.49.09.73.01.99-.33,1.59.51,1.15,1.41-.87,1.79.13,1.76.27,3.29.4,4.48-5.54,3.19-3.62-1.2ZM149.54,73.14c.94-.3,1.69-.99,2.08-1.89.39-.91.36-1.93-.07-2.82.42,1.84-.4,3.74-2.02,4.71ZM148.45,63.25l.17.03-.08.15c0,.1.08.18.18.18l.15-.08.03.17c0,.25-.2.45-.45.45s-.45-.2-.45-.45.2-.45.45-.45ZM150.39,63.25l.17.03-.08.15c0,.1.08.18.18.18l.15-.08.03.17c0,.25-.2.45-.45.45s-.45-.2-.45-.45.2-.45.45-.45ZM151.03,69.12c-1.08.33-2.25.2-3.22-.37.99.34,2.08-.16,2.95.29.09.04.17.07.27.09ZM149.15,65.56c-.07.21-.06.44.05.63.11.19.29.33.51.37.25-.52-.38-.62-.56-1ZM150.24,65.73c.04.17.03.36-.03.52-.06.16-.17.27-.3.31-.15-.43.22-.51.33-.83Z"/>
  <ellipse class="st19" cx="147.9" cy="50.22" rx="5.05" ry="5.49"/>
  <ellipse class="st19" cx="147.12" cy="53.67" rx="3.22" ry="1.73"/>
  <path class="st8" d="M148.54,56.9c0,1.41-.75,2.55-1.67,2.55s-1.67-1.14-1.67-2.55.75-2.55,1.67-2.55,1.67,1.14,1.67,2.55Z"/>
  <ellipse class="st19" cx="146.54" cy="51.5" rx="3.6" ry="3.91"/>
  <path class="st8" d="M151.79,55.83c0,1.32-.79,2.38-1.77,2.38s-1.77-1.07-1.77-2.38.79-2.38,1.77-2.38,1.77,1.07,1.77,2.38Z"/>
  <path class="st8" d="M151.63,56.87c.23,1.12-.91,2.3-2.55,2.63-1.63.33-3.14-.31-3.37-1.43s.91-2.3,2.55-2.63c1.63-.33,3.14.31,3.37,1.43Z"/>
  <path class="st8" d="M148.61,58.82c.06.65-.33,1.22-.88,1.27-.55.05-1.05-.43-1.11-1.07-.06-.65.33-1.22.88-1.27s1.05.43,1.11,1.07Z"/>
  <path class="st8" d="M146.96,59.97c-.23-.39-.19-.84.09-1s.69.03.91.42.19.84-.09,1c-.28.16-.69-.03-.91-.42Z"/>
  <path class="st8" d="M150.03,50.6c.31,2.38-1.04,4.51-3.01,4.77-1.97.26-3.82-1.46-4.13-3.84-.31-2.38,1.04-4.51,3.01-4.77,1.97-.26,3.82,1.46,4.13,3.84Z"/>
  <path class="st8" d="M151.82,52.98c.31,2.38-1.04,4.51-3.01,4.77-1.97.26-3.82-1.46-4.13-3.84-.31-2.38,1.04-4.51,3.01-4.77,1.97-.26,3.82,1.46,4.13,3.84Z"/>
  <path class="st3" d="M147.56,60.41c-1.36-1.15-1.96-2.96-1.55-4.7-.73,1.91-.05,4.07,1.63,5.22.38-.78,1.04-1.38,1.85-1.69-.77.12-1.47.53-1.94,1.16ZM145.28,58.21c-.32-1.96.46-3.93,2.03-5.15-1.92.91-2.81,3.16-2.03,5.15ZM151.8,48.28c.34,1.45.23,2.99-.34,4.4.41-1.37.44-2.81.08-4.18-.96-3.69-4.9-2.92-5.94,0-.61,1.71-.66,3.58-.13,5.35-.82-1.91-.84-4.04-.08-5.93,1.24-3.09,5.54-3.34,6.41.37ZM147.83,52.74c.25-.6.24-1.27-.03-1.85-.57-1.21.3-2.11,1.51-1.67.23.09.49.09.73.01.99-.33,1.59.51,1.15,1.41-.87,1.79.13,1.76.27,3.29.4,4.48-5.54,3.19-3.62-1.2ZM149.62,59.52c.94-.3,1.69-.99,2.08-1.89.39-.91.36-1.93-.07-2.82.42,1.84-.4,3.74-2.02,4.71ZM148.52,49.63l.17.03-.08.15c0,.1.08.18.18.18l.15-.08.03.17c0,.25-.2.45-.45.45s-.45-.2-.45-.45.2-.45.45-.45ZM150.47,49.63l.17.03-.08.15c0,.1.08.18.18.18l.15-.08.03.17c0,.25-.2.45-.45.45s-.45-.2-.45-.45.2-.45.45-.45ZM151.11,55.5c-1.08.33-2.25.2-3.22-.37.99.34,2.08-.16,2.95.29.09.04.17.07.27.09ZM149.23,51.94c-.07.21-.06.44.05.63.11.19.29.33.51.37.25-.52-.38-.62-.56-1ZM150.32,52.11c.04.17.03.36-.03.52-.06.16-.17.27-.3.31-.15-.43.22-.51.33-.83Z"/>
  <ellipse class="st9" cx="147.55" cy="36.22" rx="5.05" ry="5.49"/>
  <ellipse class="st9" cx="146.78" cy="39.67" rx="3.22" ry="1.73"/>
  <path class="st1" d="M148.19,42.9c0,1.41-.75,2.55-1.67,2.55s-1.67-1.14-1.67-2.55.75-2.55,1.67-2.55,1.67,1.14,1.67,2.55Z"/>
  <ellipse class="st9" cx="146.19" cy="37.5" rx="3.6" ry="3.91"/>
  <path class="st1" d="M151.44,41.83c0,1.32-.79,2.38-1.77,2.38s-1.77-1.07-1.77-2.38.79-2.38,1.77-2.38,1.77,1.07,1.77,2.38Z"/>
  <path class="st1" d="M151.28,42.87c.23,1.12-.91,2.3-2.55,2.63-1.63.33-3.14-.31-3.37-1.43s.91-2.3,2.55-2.63c1.63-.33,3.14.31,3.37,1.43Z"/>
  <path class="st1" d="M148.26,44.82c.06.65-.33,1.22-.88,1.27-.55.05-1.05-.43-1.11-1.07-.06-.65.33-1.22.88-1.27s1.05.43,1.11,1.07Z"/>
  <path class="st1" d="M146.62,45.97c-.23-.39-.19-.84.09-1,.28-.16.69.03.91.42.23.39.19.84-.09,1s-.69-.03-.91-.42Z"/>
  <ellipse class="st9" cx="146.11" cy="37.06" rx="3.6" ry="4.34" transform="translate(-3.56 19.18) rotate(-7.42)"/>
  <path class="st1" d="M151.47,38.98c.31,2.38-1.04,4.51-3.01,4.77-1.97.26-3.82-1.46-4.13-3.84s1.04-4.51,3.01-4.77c1.97-.26,3.82,1.46,4.13,3.84Z"/>
  <path class="st3" d="M147.21,46.41c-1.36-1.15-1.96-2.96-1.54-4.7-.73,1.91-.05,4.07,1.63,5.22.38-.78,1.04-1.38,1.85-1.69-.77.12-1.47.53-1.94,1.16ZM144.93,44.21c-.32-1.96.46-3.93,2.03-5.15-1.92.91-2.81,3.16-2.03,5.15ZM151.45,34.28c.34,1.45.23,2.99-.34,4.4.41-1.37.44-2.81.08-4.18-.96-3.69-4.9-2.92-5.94,0-.61,1.71-.66,3.58-.13,5.35-.82-1.91-.84-4.04-.08-5.93,1.24-3.09,5.54-3.34,6.41.37ZM147.49,38.74c.25-.6.24-1.27-.03-1.85-.57-1.21.3-2.11,1.51-1.67.23.09.49.09.73.01.99-.33,1.59.51,1.15,1.41-.87,1.79.13,1.76.27,3.29.4,4.48-5.54,3.19-3.62-1.2ZM149.27,45.52c.94-.3,1.69-.99,2.08-1.89.39-.91.36-1.93-.07-2.82.42,1.84-.4,3.74-2.02,4.71ZM148.18,35.63l.17.03-.08.15c0,.1.08.18.18.18l.15-.08.03.17c0,.25-.2.45-.45.45s-.45-.2-.45-.45.2-.45.45-.45ZM150.12,35.63l.17.03-.08.15c0,.1.08.18.18.18l.15-.08.03.17c0,.25-.2.45-.45.45s-.45-.2-.45-.45.2-.45.45-.45ZM150.76,41.5c-1.08.33-2.25.2-3.22-.37.99.34,2.08-.16,2.95.29.09.04.17.07.27.09ZM148.88,37.94c-.07.21-.06.44.05.63.11.19.29.33.51.37.25-.52-.38-.62-.56-1ZM149.97,38.11c.04.17.03.36-.03.52-.06.16-.17.27-.3.31-.15-.43.22-.51.33-.83Z"/>
  <ellipse class="st12" cx="148.1" cy="22.35" rx="5.05" ry="5.49"/>
  <ellipse class="st12" cx="147.33" cy="25.8" rx="3.22" ry="1.73"/>
  <path class="st6" d="M148.74,29.03c0,1.41-.75,2.55-1.67,2.55s-1.67-1.14-1.67-2.55.75-2.55,1.67-2.55,1.67,1.14,1.67,2.55Z"/>
  <ellipse class="st12" cx="146.75" cy="23.63" rx="3.6" ry="3.91"/>
  <path class="st6" d="M152,27.96c0,1.32-.79,2.38-1.77,2.38s-1.77-1.07-1.77-2.38.79-2.38,1.77-2.38,1.77,1.07,1.77,2.38Z"/>
  <path class="st6" d="M151.83,29c.23,1.12-.91,2.3-2.55,2.63s-3.14-.31-3.37-1.43.91-2.3,2.55-2.63c1.63-.33,3.14.31,3.37,1.43Z"/>
  <path class="st6" d="M148.81,30.95c.06.65-.33,1.22-.88,1.27-.55.05-1.05-.43-1.11-1.07-.06-.65.33-1.22.88-1.27s1.05.43,1.11,1.07Z"/>
  <path class="st6" d="M147.17,32.1c-.23-.39-.19-.84.09-1s.69.03.91.42.19.84-.09,1-.69-.03-.91-.42Z"/>
  <path class="st6" d="M150.24,22.73c.31,2.38-1.04,4.51-3.01,4.77-1.97.26-3.82-1.46-4.13-3.84-.31-2.38,1.04-4.51,3.01-4.77s3.82,1.46,4.13,3.84Z"/>
  <ellipse class="st12" cx="148.45" cy="25.58" rx="3.6" ry="4.34" transform="translate(-2.06 19.38) rotate(-7.42)"/>
  <path class="st3" d="M147.77,32.54c-1.36-1.15-1.96-2.96-1.54-4.7-.73,1.91-.05,4.07,1.63,5.22.38-.78,1.04-1.38,1.85-1.69-.77.12-1.47.53-1.94,1.16ZM145.48,30.34c-.32-1.96.46-3.93,2.03-5.15-1.92.91-2.81,3.16-2.03,5.15ZM152,20.41c.34,1.45.23,2.99-.34,4.4.41-1.37.44-2.81.08-4.18-.96-3.69-4.9-2.92-5.94,0-.61,1.71-.66,3.58-.13,5.35-.82-1.91-.84-4.04-.08-5.93,1.24-3.09,5.54-3.34,6.41.37ZM148.04,24.87c.25-.6.24-1.27-.03-1.85-.57-1.21.3-2.11,1.51-1.67.23.09.49.09.73.01.99-.33,1.59.51,1.15,1.41-.87,1.79.13,1.76.27,3.29.4,4.48-5.54,3.19-3.62-1.2ZM149.82,31.65c.94-.3,1.69-.99,2.08-1.89.39-.91.36-1.93-.07-2.82.42,1.84-.4,3.74-2.02,4.71ZM148.73,21.76l.17.03-.08.15c0,.1.08.18.18.18l.15-.08.03.17c0,.25-.2.45-.45.45s-.45-.2-.45-.45.2-.45.45-.45ZM150.68,21.76l.17.03-.08.15c0,.1.08.18.18.18l.15-.08.03.17c0,.25-.2.45-.45.45s-.45-.2-.45-.45.2-.45.45-.45ZM151.32,27.63c-1.08.33-2.25.2-3.22-.37.99.34,2.08-.16,2.95.29.09.04.17.07.27.09ZM149.43,24.07c-.07.21-.06.44.05.63.11.19.29.33.51.37.25-.52-.38-.62-.56-1ZM150.52,24.24c.04.17.03.36-.03.52-.06.16-.17.27-.3.31-.15-.43.22-.51.33-.83Z"/>
  <ellipse class="st16" cx="301.06" cy="91.53" rx="5.05" ry="5.49"/>
  <path class="st4" d="M303.5,94.98c0,.96-1.44,1.73-3.22,1.73s-3.22-.78-3.22-1.73,1.44-1.73,3.22-1.73,3.22.78,3.22,1.73Z"/>
  <path class="st4" d="M301.7,98.21c0,1.41-.75,2.55-1.67,2.55s-1.67-1.14-1.67-2.55.75-2.55,1.67-2.55,1.67,1.14,1.67,2.55Z"/>
  <ellipse class="st16" cx="299.7" cy="92.81" rx="3.6" ry="3.91"/>
  <path class="st4" d="M304.95,97.14c0,1.32-.79,2.38-1.77,2.38s-1.77-1.07-1.77-2.38.79-2.38,1.77-2.38,1.77,1.07,1.77,2.38Z"/>
  <path class="st4" d="M304.79,98.18c.23,1.12-.91,2.3-2.55,2.63-1.63.33-3.14-.31-3.37-1.43s.91-2.3,2.55-2.63c1.63-.33,3.14.31,3.37,1.43Z"/>
  <path class="st4" d="M301.77,100.13c.06.65-.33,1.22-.88,1.27s-1.05-.43-1.11-1.07c-.06-.65.33-1.22.88-1.27s1.05.43,1.11,1.07Z"/>
  <path class="st4" d="M300.13,101.28c-.23-.39-.19-.84.09-1s.69.03.91.42c.23.39.19.84-.09,1-.28.16-.69-.03-.91-.42Z"/>
  <ellipse class="st16" cx="299.62" cy="92.37" rx="3.6" ry="4.34" transform="translate(-9.42 39.46) rotate(-7.42)"/>
  <path class="st4" d="M304.98,94.29c.31,2.38-1.04,4.51-3.01,4.77-1.97.26-3.82-1.46-4.13-3.84-.31-2.38,1.04-4.51,3.01-4.77,1.97-.26,3.82,1.46,4.13,3.84Z"/>
  <path class="st3" d="M300.72,101.71c-1.36-1.15-1.96-2.96-1.55-4.7-.73,1.91-.05,4.07,1.63,5.22.38-.78,1.04-1.38,1.85-1.69-.77.12-1.47.53-1.94,1.16ZM298.44,99.52c-.32-1.96.46-3.93,2.03-5.15-1.92.91-2.81,3.16-2.03,5.15ZM304.96,89.59c.34,1.45.23,2.99-.34,4.4.41-1.37.44-2.81.08-4.18-.96-3.69-4.9-2.92-5.94,0-.61,1.71-.66,3.58-.13,5.35-.82-1.91-.84-4.04-.08-5.93,1.24-3.09,5.54-3.34,6.41.37ZM301,94.05c.25-.6.24-1.27-.03-1.85-.57-1.21.3-2.11,1.51-1.67.23.09.49.09.73.01.99-.33,1.59.51,1.15,1.41-.87,1.79.13,1.76.27,3.29.4,4.48-5.54,3.19-3.62-1.2ZM302.78,100.83c.94-.3,1.69-.99,2.08-1.89.39-.91.36-1.93-.07-2.82.42,1.84-.4,3.74-2.02,4.71ZM301.69,90.94l.17.03-.08.15c0,.1.08.18.18.18l.15-.08.03.17c0,.25-.2.45-.45.45s-.45-.2-.45-.45.2-.45.45-.45ZM303.63,90.94l.17.03-.08.15c0,.1.08.18.18.18l.15-.08.03.17c0,.25-.2.45-.45.45s-.45-.2-.45-.45.2-.45.45-.45ZM304.27,96.81c-1.08.33-2.25.2-3.22-.37.99.34,2.08-.16,2.95.29.09.04.17.07.27.09ZM302.39,93.25c-.07.21-.06.44.05.63.11.19.29.33.51.37.25-.52-.38-.62-.56-1ZM303.48,93.42c.04.17.03.36-.03.52-.06.16-.17.27-.3.31-.15-.43.22-.51.33-.83Z"/>
  <ellipse class="st21" cx="300.83" cy="78.32" rx="5.05" ry="5.49"/>
  <path class="st7" d="M303.28,81.76c0,.96-1.44,1.73-3.22,1.73s-3.22-.78-3.22-1.73,1.44-1.73,3.22-1.73,3.22.78,3.22,1.73Z"/>
  <path class="st7" d="M301.47,84.99c0,1.41-.75,2.55-1.67,2.55s-1.67-1.14-1.67-2.55.75-2.55,1.67-2.55,1.67,1.14,1.67,2.55Z"/>
  <ellipse class="st21" cx="299.48" cy="79.59" rx="3.6" ry="3.91"/>
  <path class="st7" d="M304.72,83.92c0,1.32-.79,2.38-1.77,2.38s-1.77-1.07-1.77-2.38.79-2.38,1.77-2.38,1.77,1.07,1.77,2.38Z"/>
  <path class="st7" d="M304.56,84.96c.23,1.12-.91,2.3-2.55,2.63s-3.14-.31-3.37-1.43.91-2.3,2.55-2.63c1.63-.33,3.14.31,3.37,1.43Z"/>
  <path class="st7" d="M301.54,86.92c.06.65-.33,1.22-.88,1.27s-1.05-.43-1.11-1.07c-.06-.65.33-1.22.88-1.27s1.05.43,1.11,1.07Z"/>
  <path class="st7" d="M299.9,88.06c-.23-.39-.19-.84.09-1s.69.03.91.42c.23.39.19.84-.09,1-.28.16-.69-.03-.91-.42Z"/>
  <path class="st7" d="M302.97,78.69c.31,2.38-1.04,4.51-3.01,4.77-1.97.26-3.82-1.46-4.13-3.84-.31-2.38,1.04-4.51,3.01-4.77,1.97-.26,3.82,1.46,4.13,3.84Z"/>
  <ellipse class="st21" cx="301.18" cy="81.54" rx="3.6" ry="4.34" transform="translate(-8.01 39.57) rotate(-7.42)"/>
  <path class="st3" d="M300.5,88.5c-1.36-1.15-1.96-2.96-1.54-4.7-.73,1.91-.05,4.07,1.63,5.22.38-.78,1.04-1.38,1.85-1.69-.77.12-1.47.53-1.94,1.16ZM298.21,86.3c-.32-1.96.46-3.93,2.03-5.15-1.92.91-2.81,3.16-2.03,5.15ZM304.73,76.37c.34,1.45.23,2.99-.34,4.4.41-1.37.44-2.81.08-4.18-.96-3.69-4.9-2.92-5.94,0-.61,1.71-.66,3.58-.13,5.35-.82-1.91-.84-4.04-.08-5.93,1.24-3.09,5.54-3.34,6.41.37ZM300.77,80.83c.25-.6.24-1.27-.03-1.85-.57-1.21.3-2.11,1.51-1.67.23.09.49.09.73.01.99-.33,1.59.51,1.15,1.41-.87,1.79.13,1.76.27,3.29.4,4.48-5.54,3.19-3.62-1.2ZM302.55,87.61c.94-.3,1.69-.99,2.08-1.89.39-.91.36-1.93-.07-2.82.42,1.84-.4,3.74-2.02,4.71ZM301.46,77.73l.17.03-.08.15c0,.1.08.18.18.18l.15-.08.03.17c0,.25-.2.45-.45.45s-.45-.2-.45-.45.2-.45.45-.45ZM303.4,77.73l.17.03-.08.15c0,.1.08.18.18.18l.15-.08.03.17c0,.25-.2.45-.45.45s-.45-.2-.45-.45.2-.45.45-.45ZM304.05,83.59c-1.08.33-2.25.2-3.22-.37.99.34,2.08-.16,2.95.29.09.04.17.07.27.09ZM302.16,80.03c-.07.21-.06.44.05.63.11.19.29.33.51.37.25-.52-.38-.62-.56-1ZM303.25,80.2c.04.17.03.36-.03.52-.06.16-.17.27-.3.31-.15-.43.22-.51.33-.83Z"/>
  <ellipse class="st11" cx="300.82" cy="64.84" rx="5.05" ry="5.49"/>
  <path class="st2" d="M303.27,68.29c0,.96-1.44,1.73-3.22,1.73s-3.22-.78-3.22-1.73,1.44-1.73,3.22-1.73,3.22.78,3.22,1.73Z"/>
  <path class="st2" d="M301.46,71.52c0,1.41-.75,2.55-1.67,2.55s-1.67-1.14-1.67-2.55.75-2.55,1.67-2.55,1.67,1.14,1.67,2.55Z"/>
  <ellipse class="st11" cx="299.47" cy="66.12" rx="3.6" ry="3.91"/>
  <path class="st2" d="M304.71,70.45c0,1.32-.79,2.38-1.77,2.38s-1.77-1.07-1.77-2.38.79-2.38,1.77-2.38,1.77,1.07,1.77,2.38Z"/>
  <path class="st2" d="M304.55,71.49c.23,1.12-.91,2.3-2.55,2.63-1.63.33-3.14-.31-3.37-1.43s.91-2.3,2.55-2.63c1.63-.33,3.14.31,3.37,1.43Z"/>
  <path class="st2" d="M301.53,73.44c.06.65-.33,1.22-.88,1.27s-1.05-.43-1.11-1.07c-.06-.65.33-1.22.88-1.27s1.05.43,1.11,1.07Z"/>
  <path class="st2" d="M299.89,74.59c-.23-.39-.19-.84.09-1,.28-.16.69.03.91.42.23.39.19.84-.09,1-.28.16-.69-.03-.91-.42Z"/>
  <path class="st2" d="M302.96,65.22c.31,2.38-1.04,4.51-3.01,4.77-1.97.26-3.82-1.46-4.13-3.84-.31-2.38,1.04-4.51,3.01-4.77,1.97-.26,3.82,1.46,4.13,3.84Z"/>
  <ellipse class="st11" cx="301.17" cy="68.07" rx="3.6" ry="4.34" transform="translate(-6.27 39.46) rotate(-7.42)"/>
  <path class="st3" d="M300.48,75.02c-1.36-1.15-1.96-2.96-1.54-4.7-.73,1.91-.05,4.07,1.63,5.22.38-.78,1.04-1.38,1.85-1.69-.77.12-1.47.53-1.94,1.16ZM298.2,72.83c-.32-1.96.46-3.93,2.03-5.15-1.92.91-2.81,3.16-2.03,5.15ZM304.72,62.9c.34,1.45.23,2.99-.34,4.4.41-1.37.44-2.81.08-4.18-.96-3.69-4.9-2.92-5.94,0-.61,1.71-.66,3.58-.13,5.35-.82-1.91-.84-4.04-.08-5.93,1.24-3.09,5.54-3.34,6.41.37ZM300.76,67.36c.25-.6.24-1.27-.03-1.85-.57-1.21.3-2.11,1.51-1.67.23.09.49.09.73.01.99-.33,1.59.51,1.15,1.41-.87,1.79.13,1.76.27,3.29.4,4.48-5.54,3.19-3.62-1.2ZM302.54,74.14c.94-.3,1.69-.99,2.08-1.89.39-.91.36-1.93-.07-2.82.42,1.84-.4,3.74-2.02,4.71ZM301.45,64.25l.17.03-.08.15c0,.1.08.18.18.18l.15-.08.03.17c0,.25-.2.45-.45.45s-.45-.2-.45-.45.2-.45.45-.45ZM303.39,64.25l.17.03-.08.15c0,.1.08.18.18.18l.15-.08.03.17c0,.25-.2.45-.45.45s-.45-.2-.45-.45.2-.45.45-.45ZM304.03,70.12c-1.08.33-2.25.2-3.22-.37.99.34,2.08-.16,2.95.29.09.04.17.07.27.09ZM302.15,66.56c-.07.21-.06.44.05.63.11.19.29.33.51.37.25-.52-.38-.62-.56-1ZM303.24,66.73c.04.17.03.36-.03.52-.06.16-.17.27-.3.31-.15-.43.22-.51.33-.83Z"/>
  <ellipse class="st19" cx="300.9" cy="51.22" rx="5.05" ry="5.49"/>
  <ellipse class="st19" cx="300.12" cy="54.67" rx="3.22" ry="1.73"/>
  <path class="st8" d="M301.54,57.9c0,1.41-.75,2.55-1.67,2.55s-1.67-1.14-1.67-2.55.75-2.55,1.67-2.55,1.67,1.14,1.67,2.55Z"/>
  <ellipse class="st19" cx="299.54" cy="52.5" rx="3.6" ry="3.91"/>
  <path class="st8" d="M304.79,56.83c0,1.32-.79,2.38-1.77,2.38s-1.77-1.07-1.77-2.38.79-2.38,1.77-2.38,1.77,1.07,1.77,2.38Z"/>
  <path class="st8" d="M304.63,57.87c.23,1.12-.91,2.3-2.55,2.63-1.63.33-3.14-.31-3.37-1.43s.91-2.3,2.55-2.63c1.63-.33,3.14.31,3.37,1.43Z"/>
  <path class="st8" d="M301.61,59.82c.06.65-.33,1.22-.88,1.27-.55.05-1.05-.43-1.11-1.07-.06-.65.33-1.22.88-1.27s1.05.43,1.11,1.07Z"/>
  <path class="st8" d="M299.96,60.97c-.23-.39-.19-.84.09-1s.69.03.91.42.19.84-.09,1c-.28.16-.69-.03-.91-.42Z"/>
  <path class="st8" d="M303.03,51.6c.31,2.38-1.04,4.51-3.01,4.77-1.97.26-3.82-1.46-4.13-3.84-.31-2.38,1.04-4.51,3.01-4.77,1.97-.26,3.82,1.46,4.13,3.84Z"/>
  <path class="st8" d="M304.82,53.98c.31,2.38-1.04,4.51-3.01,4.77-1.97.26-3.82-1.46-4.13-3.84-.31-2.38,1.04-4.51,3.01-4.77,1.97-.26,3.82,1.46,4.13,3.84Z"/>
  <path class="st3" d="M300.56,61.41c-1.36-1.15-1.96-2.96-1.55-4.7-.73,1.91-.05,4.07,1.63,5.22.38-.78,1.04-1.38,1.85-1.69-.77.12-1.47.53-1.94,1.16ZM298.28,59.21c-.32-1.96.46-3.93,2.03-5.15-1.92.91-2.81,3.16-2.03,5.15ZM304.8,49.28c.34,1.45.23,2.99-.34,4.4.41-1.37.44-2.81.08-4.18-.96-3.69-4.9-2.92-5.94,0-.61,1.71-.66,3.58-.13,5.35-.82-1.91-.84-4.04-.08-5.93,1.24-3.09,5.54-3.34,6.41.37ZM300.83,53.74c.25-.6.24-1.27-.03-1.85-.57-1.21.3-2.11,1.51-1.67.23.09.49.09.73.01.99-.33,1.59.51,1.15,1.41-.87,1.79.13,1.76.27,3.29.4,4.48-5.54,3.19-3.62-1.2ZM302.62,60.52c.94-.3,1.69-.99,2.08-1.89.39-.91.36-1.93-.07-2.82.42,1.84-.4,3.74-2.02,4.71ZM301.52,50.63l.17.03-.08.15c0,.1.08.18.18.18l.15-.08.03.17c0,.25-.2.45-.45.45s-.45-.2-.45-.45.2-.45.45-.45ZM303.47,50.63l.17.03-.08.15c0,.1.08.18.18.18l.15-.08.03.17c0,.25-.2.45-.45.45s-.45-.2-.45-.45.2-.45.45-.45ZM304.11,56.5c-1.08.33-2.25.2-3.22-.37.99.34,2.08-.16,2.95.29.09.04.17.07.27.09ZM302.23,52.94c-.07.21-.06.44.05.63.11.19.29.33.51.37.25-.52-.38-.62-.56-1ZM303.32,53.11c.04.17.03.36-.03.52-.06.16-.17.27-.3.31-.15-.43.22-.51.33-.83Z"/>
  <ellipse class="st9" cx="300.55" cy="37.22" rx="5.05" ry="5.49"/>
  <ellipse class="st9" cx="299.78" cy="40.67" rx="3.22" ry="1.73"/>
  <path class="st1" d="M301.19,43.9c0,1.41-.75,2.55-1.67,2.55s-1.67-1.14-1.67-2.55.75-2.55,1.67-2.55,1.67,1.14,1.67,2.55Z"/>
  <ellipse class="st9" cx="299.19" cy="38.5" rx="3.6" ry="3.91"/>
  <path class="st1" d="M304.44,42.83c0,1.32-.79,2.38-1.77,2.38s-1.77-1.07-1.77-2.38.79-2.38,1.77-2.38,1.77,1.07,1.77,2.38Z"/>
  <path class="st1" d="M304.28,43.87c.23,1.12-.91,2.3-2.55,2.63-1.63.33-3.14-.31-3.37-1.43s.91-2.3,2.55-2.63c1.63-.33,3.14.31,3.37,1.43Z"/>
  <path class="st1" d="M301.26,45.82c.06.65-.33,1.22-.88,1.27-.55.05-1.05-.43-1.11-1.07-.06-.65.33-1.22.88-1.27s1.05.43,1.11,1.07Z"/>
  <path class="st1" d="M299.62,46.97c-.23-.39-.19-.84.09-1,.28-.16.69.03.91.42.23.39.19.84-.09,1s-.69-.03-.91-.42Z"/>
  <ellipse class="st9" cx="299.11" cy="38.06" rx="3.6" ry="4.34" transform="translate(-2.41 38.94) rotate(-7.42)"/>
  <path class="st1" d="M304.47,39.98c.31,2.38-1.04,4.51-3.01,4.77-1.97.26-3.82-1.46-4.13-3.84s1.04-4.51,3.01-4.77c1.97-.26,3.82,1.46,4.13,3.84Z"/>
  <path class="st3" d="M300.21,47.41c-1.36-1.15-1.96-2.96-1.54-4.7-.73,1.91-.05,4.07,1.63,5.22.38-.78,1.04-1.38,1.85-1.69-.77.12-1.47.53-1.94,1.16ZM297.93,45.21c-.32-1.96.46-3.93,2.03-5.15-1.92.91-2.81,3.16-2.03,5.15ZM304.45,35.28c.34,1.45.23,2.99-.34,4.4.41-1.37.44-2.81.08-4.18-.96-3.69-4.9-2.92-5.94,0-.61,1.71-.66,3.58-.13,5.35-.82-1.91-.84-4.04-.08-5.93,1.24-3.09,5.54-3.34,6.41.37ZM300.49,39.74c.25-.6.24-1.27-.03-1.85-.57-1.21.3-2.11,1.51-1.67.23.09.49.09.73.01.99-.33,1.59.51,1.15,1.41-.87,1.79.13,1.76.27,3.29.4,4.48-5.54,3.19-3.62-1.2ZM302.27,46.52c.94-.3,1.69-.99,2.08-1.89.39-.91.36-1.93-.07-2.82.42,1.84-.4,3.74-2.02,4.71ZM301.18,36.63l.17.03-.08.15c0,.1.08.18.18.18l.15-.08.03.17c0,.25-.2.45-.45.45s-.45-.2-.45-.45.2-.45.45-.45ZM303.12,36.63l.17.03-.08.15c0,.1.08.18.18.18l.15-.08.03.17c0,.25-.2.45-.45.45s-.45-.2-.45-.45.2-.45.45-.45ZM303.76,42.5c-1.08.33-2.25.2-3.22-.37.99.34,2.08-.16,2.95.29.09.04.17.07.27.09ZM301.88,38.94c-.07.21-.06.44.05.63.11.19.29.33.51.37.25-.52-.38-.62-.56-1ZM302.97,39.11c.04.17.03.36-.03.52-.06.16-.17.27-.3.31-.15-.43.22-.51.33-.83Z"/>
  <ellipse class="st12" cx="301.1" cy="23.35" rx="5.05" ry="5.49"/>
  <ellipse class="st12" cx="300.33" cy="26.8" rx="3.22" ry="1.73"/>
  <path class="st6" d="M301.74,30.03c0,1.41-.75,2.55-1.67,2.55s-1.67-1.14-1.67-2.55.75-2.55,1.67-2.55,1.67,1.14,1.67,2.55Z"/>
  <ellipse class="st12" cx="299.75" cy="24.63" rx="3.6" ry="3.91"/>
  <path class="st6" d="M305,28.96c0,1.32-.79,2.38-1.77,2.38s-1.77-1.07-1.77-2.38.79-2.38,1.77-2.38,1.77,1.07,1.77,2.38Z"/>
  <path class="st6" d="M304.83,30c.23,1.12-.91,2.3-2.55,2.63s-3.14-.31-3.37-1.43.91-2.3,2.55-2.63c1.63-.33,3.14.31,3.37,1.43Z"/>
  <path class="st6" d="M301.81,31.95c.06.65-.33,1.22-.88,1.27-.55.05-1.05-.43-1.11-1.07-.06-.65.33-1.22.88-1.27s1.05.43,1.11,1.07Z"/>
  <path class="st6" d="M300.17,33.1c-.23-.39-.19-.84.09-1s.69.03.91.42.19.84-.09,1-.69-.03-.91-.42Z"/>
  <path class="st6" d="M303.24,23.73c.31,2.38-1.04,4.51-3.01,4.77-1.97.26-3.82-1.46-4.13-3.84-.31-2.38,1.04-4.51,3.01-4.77s3.82,1.46,4.13,3.84Z"/>
  <ellipse class="st12" cx="301.45" cy="26.58" rx="3.6" ry="4.34" transform="translate(-.91 39.15) rotate(-7.42)"/>
  <path class="st3" d="M300.77,33.54c-1.36-1.15-1.96-2.96-1.54-4.7-.73,1.91-.05,4.07,1.63,5.22.38-.78,1.04-1.38,1.85-1.69-.77.12-1.47.53-1.94,1.16ZM298.48,31.34c-.32-1.96.46-3.93,2.03-5.15-1.92.91-2.81,3.16-2.03,5.15ZM305,21.41c.34,1.45.23,2.99-.34,4.4.41-1.37.44-2.81.08-4.18-.96-3.69-4.9-2.92-5.94,0-.61,1.71-.66,3.58-.13,5.35-.82-1.91-.84-4.04-.08-5.93,1.24-3.09,5.54-3.34,6.41.37ZM301.04,25.87c.25-.6.24-1.27-.03-1.85-.57-1.21.3-2.11,1.51-1.67.23.09.49.09.73.01.99-.33,1.59.51,1.15,1.41-.87,1.79.13,1.76.27,3.29.4,4.48-5.54,3.19-3.62-1.2ZM302.82,32.65c.94-.3,1.69-.99,2.08-1.89.39-.91.36-1.93-.07-2.82.42,1.84-.4,3.74-2.02,4.71ZM301.73,22.76l.17.03-.08.15c0,.1.08.18.18.18l.15-.08.03.17c0,.25-.2.45-.45.45s-.45-.2-.45-.45.2-.45.45-.45ZM303.68,22.76l.17.03-.08.15c0,.1.08.18.18.18l.15-.08.03.17c0,.25-.2.45-.45.45s-.45-.2-.45-.45.2-.45.45-.45ZM304.32,28.63c-1.08.33-2.25.2-3.22-.37.99.34,2.08-.16,2.95.29.09.04.17.07.27.09ZM302.43,25.07c-.07.21-.06.44.05.63.11.19.29.33.51.37.25-.52-.38-.62-.56-1ZM303.52,25.24c.04.17.03.36-.03.52-.06.16-.17.27-.3.31-.15-.43.22-.51.33-.83Z"/>
  <g class="st20">
    <path d="M190.52,115.22c0-.84-.14-1.61-.43-2.35-.41-1.06-.86-1.66-2-2.68l-.21.28c.8.94,1.09,1.45,1.36,2.35.22.71.33,1.48.33,2.39s-.11,1.76-.34,2.54c-.28.98-.57,1.51-1.35,2.48l.21.23c.75-.71,1.07-1.07,1.41-1.6.67-1.06,1.01-2.32,1.01-3.63ZM186.11,115.61c0,1.22-.65,2.07-1.58,2.07-.57,0-1.37-.35-1.37-.59v-2.35c0-.15.11-.35.28-.55.31-.32.73-.5,1.18-.5.92,0,1.49.74,1.49,1.91ZM187.06,115.16c0-1.27-.82-2.17-1.97-2.17-.51,0-1.05.2-1.33.48l-.6.61v-3.81l-.1-.09c-.48.19-.84.27-1.7.4v.31h.61c.2,0,.27.12.27.45v5.1c0,.68-.01.97-.09,1.73l.17.07.44-.39c.44.28.83.39,1.41.39.43,0,.71-.08.94-.24l1.09-.79c.48-.35.86-1.25.86-2.05ZM181.16,120.23c-.79-.97-1.07-1.49-1.35-2.48-.23-.79-.34-1.61-.34-2.54s.1-1.68.32-2.39c.27-.91.58-1.42,1.37-2.35l-.21-.28c-1.13,1.01-1.58,1.61-2,2.68-.28.73-.43,1.51-.43,2.33,0,1.17.27,2.27.8,3.25.38.73.73,1.16,1.63,2l.21-.23Z"/>
  </g>
  <g class="st10">
    <path d="M53.24,115.22c0-.84-.14-1.61-.43-2.35-.41-1.06-.86-1.66-2-2.68l-.21.28c.8.94,1.09,1.45,1.36,2.35.22.71.33,1.48.33,2.39s-.11,1.76-.34,2.54c-.28.98-.57,1.51-1.35,2.48l.21.23c.75-.71,1.07-1.07,1.41-1.6.67-1.06,1.01-2.32,1.01-3.63ZM48.34,116.76c-.32.45-1,.86-1.43.86s-.82-.4-.82-.87c0-.4.22-.79.55-.99.27-.16.87-.32,1.7-.44v1.44ZM49.94,118.14v-.33l-.43-.02c-.26-.01-.31-.1-.31-.63v-2c0-1.59-.46-2.17-1.72-2.17-.47,0-.91.12-1.32.37l-.58.35v.71l.28.08.14-.34c.22-.51.34-.59.84-.59,1.03,0,1.45.4,1.48,1.4l-1.08.2c-1.48.27-2.11.79-2.11,1.73,0,.85.51,1.34,1.37,1.34.2,0,.38-.03.46-.09l1.35-.94-.05.93c.28-.02.57-.03.85-.03s.53.01.81.03ZM44.45,120.23c-.79-.97-1.07-1.49-1.35-2.48-.23-.79-.34-1.61-.34-2.54s.1-1.68.32-2.39c.27-.91.58-1.42,1.37-2.35l-.21-.28c-1.13,1.01-1.58,1.61-2,2.68-.28.73-.43,1.51-.43,2.33,0,1.17.27,2.27.8,3.25.38.73.73,1.16,1.63,2l.21-.23Z"/>
  </g>
  <g class="st18">
    <path d="M305.93,115.22c0-.84-.14-1.61-.43-2.35-.41-1.06-.86-1.66-2-2.68l-.21.28c.8.94,1.09,1.45,1.36,2.35.22.71.33,1.48.33,2.39s-.11,1.76-.34,2.54c-.28.98-.57,1.51-1.35,2.48l.21.23c.75-.71,1.07-1.07,1.41-1.6.67-1.06,1.01-2.32,1.01-3.63ZM302.61,117.61l-.11-.16c-.4.22-.75.32-1.15.32-1.21,0-2.01-.94-2.01-2.38,0-1.17.55-1.82,1.53-1.82.48,0,1,.22,1.2.49l.08.67h.31c0-.5.05-.95.15-1.34-.44-.26-.82-.38-1.27-.38-.52,0-1.13.21-1.79.62-.76.48-1.17,1.24-1.17,2.2,0,1.47,1.04,2.51,2.5,2.51.57,0,1.39-.21,1.49-.37l.23-.35ZM297.76,120.23c-.79-.97-1.07-1.49-1.35-2.48-.23-.79-.34-1.61-.34-2.54s.1-1.68.32-2.39c.27-.91.58-1.42,1.37-2.35l-.21-.28c-1.13,1.01-1.58,1.61-2,2.68-.28.73-.43,1.51-.43,2.33,0,1.17.27,2.27.8,3.25.38.73.73,1.16,1.63,2l.21-.23Z"/>
  </g>
  <ellipse class="st12" cx="10.54" cy="47.61" rx="9.54" ry="10.35"/>
  <ellipse class="st12" cx="9.08" cy="54.12" rx="6.08" ry="3.27"/>
  <ellipse class="st12" cx="8.59" cy="60.21" rx="3.15" ry="4.82"/>
  <ellipse class="st12" cx="7.98" cy="50.02" rx="6.8" ry="7.37"/>
  <ellipse class="st12" cx="14.54" cy="58.2" rx="3.34" ry="4.49"/>
  <ellipse class="st12" cx="12" cy="61.29" rx="5.7" ry="3.91" transform="translate(-11.99 3.63) rotate(-11.51)"/>
  <ellipse class="st12" cx="10" cy="64.03" rx="1.88" ry="2.22" transform="translate(-6.32 1.31) rotate(-5.71)"/>
  <ellipse class="st12" cx="9.73" cy="65.46" rx="1.1" ry="1.55" transform="translate(-31.43 13.63) rotate(-30)"/>
  <ellipse class="st12" cx="7.83" cy="49.2" rx="6.8" ry="8.19" transform="translate(-6.29 1.42) rotate(-7.42)"/>
  <ellipse class="st12" cx="11.2" cy="53.7" rx="6.8" ry="8.19" transform="translate(-6.84 1.9) rotate(-7.42)"/>
  <path class="st3" d="M9.91,66.83c-2.57-2.17-3.7-5.6-2.92-8.86-1.37,3.6-.1,7.67,3.08,9.85.72-1.47,1.97-2.6,3.49-3.18-1.46.22-2.77,1.01-3.66,2.19ZM5.59,62.69c-.61-3.7.86-7.43,3.83-9.71-3.63,1.73-5.31,5.97-3.83,9.71ZM17.9,43.95c.64,2.74.43,5.65-.65,8.31.78-2.58.82-5.31.16-7.89-1.81-6.97-9.25-5.5-11.21-.02-1.15,3.23-1.25,6.77-.24,10.1-1.55-3.6-1.58-7.63-.15-11.2,2.34-5.83,10.46-6.31,12.09.7ZM10.42,52.37c.48-1.13.45-2.4-.07-3.49-1.08-2.29.58-3.98,2.86-3.15.44.16.93.17,1.37.02,1.87-.63,3.01.95,2.17,2.67-1.65,3.38.25,3.32.5,6.21.76,8.46-10.45,6.03-6.84-2.26ZM13.79,65.16c1.77-.57,3.2-1.87,3.93-3.57.73-1.71.69-3.65-.13-5.32.79,3.48-.75,7.06-3.8,8.89ZM11.72,46.5c.12,0,.22.02.32.06-.09.07-.15.17-.15.28,0,.19.15.34.34.34.12,0,.22-.06.28-.15.04.1.06.21.06.32,0,.47-.38.85-.86.85s-.85-.38-.85-.85.38-.86.85-.86ZM15.4,46.5c.12,0,.22.02.32.06-.09.07-.15.17-.15.28,0,.19.15.34.34.34.12,0,.22-.06.28-.15.04.1.06.21.06.32,0,.47-.38.85-.86.85s-.85-.38-.85-.85.38-.86.85-.86ZM16.61,57.57c-2.03.63-4.24.37-6.08-.71,1.86.64,3.93-.31,5.58.54.16.08.33.14.5.17ZM13.05,50.85c-.14.39-.11.83.1,1.19.2.36.55.62.96.7.47-.98-.71-1.17-1.06-1.89ZM15.11,51.17c.08.33.06.69-.06.99-.12.3-.33.51-.57.58-.28-.81.42-.97.63-1.57Z"/>
  <ellipse class="st11" cx="84.65" cy="47.61" rx="9.54" ry="10.35"/>
  <ellipse class="st11" cx="83.19" cy="54.12" rx="6.08" ry="3.27"/>
  <ellipse class="st11" cx="82.7" cy="60.21" rx="3.15" ry="4.82"/>
  <ellipse class="st11" cx="82.09" cy="50.02" rx="6.8" ry="7.37"/>
  <ellipse class="st11" cx="88.65" cy="58.2" rx="3.34" ry="4.49"/>
  <ellipse class="st11" cx="86.11" cy="61.29" rx="5.7" ry="3.91" transform="translate(-10.5 18.41) rotate(-11.51)"/>
  <path class="st2" d="M85.99,63.84c.12,1.22-.62,2.3-1.65,2.4-1.03.1-1.97-.8-2.1-2.03s.62-2.3,1.65-2.4c1.03-.1,1.97.8,2.1,2.03Z"/>
  <path class="st2" d="M82.89,66.01c-.43-.74-.35-1.59.17-1.89s1.3.05,1.73.8c.43.74.35,1.59-.17,1.89-.52.3-1.3-.05-1.73-.8Z"/>
  <ellipse class="st11" cx="81.93" cy="49.2" rx="6.8" ry="8.19" transform="translate(-5.67 10.99) rotate(-7.42)"/>
  <ellipse class="st11" cx="85.31" cy="53.7" rx="6.8" ry="8.19" transform="translate(-6.22 11.46) rotate(-7.42)"/>
  <path class="st3" d="M84.01,66.83c-2.57-2.17-3.7-5.6-2.92-8.86-1.37,3.6-.1,7.67,3.08,9.85.72-1.47,1.97-2.6,3.49-3.18-1.46.22-2.77,1.01-3.66,2.19ZM79.7,62.69c-.61-3.7.86-7.43,3.83-9.71-3.63,1.73-5.31,5.97-3.83,9.71ZM92.01,43.95c.64,2.74.43,5.65-.65,8.31.78-2.58.82-5.31.16-7.89-1.81-6.97-9.25-5.5-11.21-.02-1.15,3.23-1.25,6.77-.24,10.1-1.55-3.6-1.58-7.63-.15-11.2,2.34-5.83,10.46-6.31,12.09.7ZM84.53,52.37c.48-1.13.45-2.4-.07-3.49-1.08-2.29.58-3.98,2.86-3.15.44.16.93.17,1.37.02,1.87-.63,3.01.95,2.17,2.67-1.65,3.38.25,3.32.5,6.21.76,8.46-10.45,6.03-6.84-2.26ZM87.89,65.16c1.77-.57,3.2-1.87,3.93-3.57.73-1.71.69-3.65-.13-5.32.79,3.48-.75,7.06-3.8,8.89ZM85.83,46.5c.12,0,.22.02.32.06-.09.07-.15.17-.15.28,0,.19.15.34.34.34.12,0,.22-.06.28-.15.04.1.06.21.06.32,0,.47-.38.85-.86.85s-.85-.38-.85-.85.38-.86.85-.86ZM89.5,46.5c.12,0,.22.02.32.06-.09.07-.15.17-.15.28,0,.19.15.34.34.34.12,0,.22-.06.28-.15.04.1.06.21.06.32,0,.47-.38.85-.86.85s-.85-.38-.85-.85.38-.86.85-.86ZM90.71,57.57c-2.03.63-4.24.37-6.08-.71,1.86.64,3.93-.31,5.58.54.16.08.33.14.5.17ZM87.16,50.85c-.14.39-.11.83.1,1.19.2.36.55.62.96.7.47-.98-.71-1.17-1.06-1.89ZM89.22,51.17c.08.33.06.69-.06.99-.12.3-.33.51-.57.58-.28-.81.42-.97.63-1.57Z"/>
  <ellipse class="st16" cx="28.65" cy="81.61" rx="9.54" ry="10.35"/>
  <ellipse class="st16" cx="27.2" cy="88.12" rx="6.08" ry="3.27"/>
  <ellipse class="st16" cx="26.71" cy="94.21" rx="3.15" ry="4.82"/>
  <ellipse class="st16" cx="26.1" cy="84.02" rx="6.8" ry="7.37"/>
  <ellipse class="st16" cx="32.66" cy="92.2" rx="3.34" ry="4.49"/>
  <ellipse class="st16" cx="30.11" cy="95.29" rx="5.7" ry="3.91" transform="translate(-18.41 7.92) rotate(-11.51)"/>
  <ellipse class="st16" cx="28.12" cy="98.03" rx="1.88" ry="2.22" transform="translate(-9.62 3.29) rotate(-5.71)"/>
  <ellipse class="st16" cx="27.84" cy="99.46" rx="1.1" ry="1.55" transform="translate(-46 27.25) rotate(-30)"/>
  <ellipse class="st16" cx="25.94" cy="83.2" rx="6.8" ry="8.19" transform="translate(-10.53 4.05) rotate(-7.42)"/>
  <ellipse class="st16" cx="29.32" cy="87.7" rx="6.8" ry="8.19" transform="translate(-11.08 4.52) rotate(-7.42)"/>
  <path class="st3" d="M28.02,100.83c-2.57-2.17-3.7-5.6-2.92-8.86-1.37,3.6-.1,7.67,3.08,9.85.72-1.47,1.97-2.6,3.49-3.18-1.46.22-2.77,1.01-3.66,2.19ZM23.71,96.69c-.61-3.7.86-7.43,3.83-9.71-3.63,1.73-5.31,5.97-3.83,9.71ZM36.02,77.95c.64,2.74.43,5.65-.65,8.31.78-2.58.82-5.31.16-7.89-1.81-6.97-9.25-5.5-11.21-.02-1.15,3.23-1.25,6.77-.24,10.1-1.55-3.6-1.58-7.63-.15-11.2,2.34-5.83,10.46-6.31,12.09.7ZM28.54,86.37c.48-1.13.45-2.4-.07-3.49-1.08-2.29.58-3.98,2.86-3.15.44.16.93.17,1.37.02,1.87-.63,3.01.95,2.17,2.67-1.65,3.38.25,3.32.5,6.21.76,8.46-10.45,6.03-6.84-2.26ZM31.9,99.16c1.77-.57,3.2-1.87,3.93-3.57.73-1.71.69-3.65-.13-5.32.79,3.48-.75,7.06-3.8,8.89ZM29.84,80.5c.12,0,.22.02.32.06-.09.07-.15.17-.15.28,0,.19.15.34.34.34.12,0,.22-.06.28-.15.04.1.06.21.06.32,0,.47-.38.85-.86.85s-.85-.38-.85-.85.38-.86.85-.86ZM33.51,80.5c.12,0,.22.02.32.06-.09.07-.15.17-.15.28,0,.19.15.34.34.34.12,0,.22-.06.28-.15.04.1.06.21.06.32,0,.47-.38.85-.86.85s-.85-.38-.85-.85.38-.86.85-.86ZM34.72,91.57c-2.03.63-4.24.37-6.08-.71,1.86.64,3.93-.31,5.58.54.16.08.33.14.5.17ZM31.17,84.85c-.14.39-.11.83.1,1.19.2.36.55.62.96.7.47-.98-.71-1.17-1.06-1.89ZM33.22,85.17c.08.33.06.69-.06.99-.12.3-.33.51-.57.58-.28-.81.42-.97.63-1.57Z"/>
  <ellipse class="st21" cx="67.86" cy="81.61" rx="9.54" ry="10.35"/>
  <ellipse class="st21" cx="66.4" cy="88.12" rx="6.08" ry="3.27"/>
  <ellipse class="st21" cx="65.91" cy="94.21" rx="3.15" ry="4.82"/>
  <ellipse class="st21" cx="65.3" cy="84.02" rx="6.8" ry="7.37"/>
  <ellipse class="st21" cx="71.86" cy="92.2" rx="3.34" ry="4.49"/>
  <ellipse class="st21" cx="69.32" cy="95.29" rx="5.7" ry="3.91" transform="translate(-17.62 15.75) rotate(-11.51)"/>
  <ellipse class="st21" cx="67.32" cy="98.03" rx="1.88" ry="2.22" transform="translate(-9.42 7.19) rotate(-5.71)"/>
  <ellipse class="st21" cx="67.05" cy="99.46" rx="1.1" ry="1.55" transform="translate(-40.75 46.85) rotate(-30)"/>
  <ellipse class="st21" cx="65.15" cy="83.2" rx="6.8" ry="8.19" transform="translate(-10.2 9.11) rotate(-7.42)"/>
  <ellipse class="st21" cx="68.52" cy="87.7" rx="6.8" ry="8.19" transform="translate(-10.75 9.58) rotate(-7.42)"/>
  <path class="st3" d="M67.22,100.83c-2.57-2.17-3.7-5.6-2.92-8.86-1.37,3.6-.1,7.67,3.08,9.85.72-1.47,1.97-2.6,3.49-3.18-1.46.22-2.77,1.01-3.66,2.19ZM62.91,96.69c-.61-3.7.86-7.43,3.83-9.71-3.63,1.73-5.31,5.97-3.83,9.71ZM75.22,77.95c.64,2.74.43,5.65-.65,8.31.78-2.58.82-5.31.16-7.89-1.81-6.97-9.25-5.5-11.21-.02-1.15,3.23-1.25,6.77-.24,10.1-1.55-3.6-1.58-7.63-.15-11.2,2.34-5.83,10.46-6.31,12.09.7ZM67.74,86.37c.48-1.13.45-2.4-.07-3.49-1.08-2.29.58-3.98,2.86-3.15.44.16.93.17,1.37.02,1.87-.63,3.01.95,2.17,2.67-1.65,3.38.25,3.32.5,6.21.76,8.46-10.45,6.03-6.84-2.26ZM71.1,99.16c1.77-.57,3.2-1.87,3.93-3.57.73-1.71.69-3.65-.13-5.32.79,3.48-.75,7.06-3.8,8.89ZM69.04,80.5c.12,0,.22.02.32.06-.09.07-.15.17-.15.28,0,.19.15.34.34.34.12,0,.22-.06.28-.15.04.1.06.21.06.32,0,.47-.38.85-.86.85s-.85-.38-.85-.85.38-.86.85-.86ZM72.71,80.5c.12,0,.22.02.32.06-.09.07-.15.17-.15.28,0,.19.15.34.34.34.12,0,.22-.06.28-.15.04.1.06.21.06.32,0,.47-.38.85-.86.85s-.85-.38-.85-.85.38-.86.85-.86ZM73.93,91.57c-2.03.63-4.24.37-6.08-.71,1.86.64,3.93-.31,5.58.54.16.08.33.14.5.17ZM70.37,84.85c-.14.39-.11.83.1,1.19.2.36.55.62.96.7.47-.98-.71-1.17-1.06-1.89ZM72.43,85.17c.08.33.06.69-.06.99-.12.3-.33.51-.57.58-.28-.81.42-.97.63-1.57Z"/>
  <ellipse class="st9" cx="29.65" cy="11.26" rx="9.54" ry="10.35"/>
  <ellipse class="st9" cx="28.19" cy="17.77" rx="6.08" ry="3.27"/>
  <ellipse class="st9" cx="27.7" cy="23.86" rx="3.15" ry="4.82"/>
  <ellipse class="st9" cx="27.1" cy="13.66" rx="6.8" ry="7.37"/>
  <ellipse class="st9" cx="33.66" cy="21.84" rx="3.34" ry="4.49"/>
  <ellipse class="st9" cx="31.11" cy="24.94" rx="5.7" ry="3.91" transform="translate(-4.35 6.71) rotate(-11.51)"/>
  <path class="st1" d="M30.99,27.49c.12,1.22-.62,2.3-1.65,2.4-1.03.1-1.97-.8-2.1-2.03-.12-1.22.62-2.3,1.65-2.4,1.03-.1,1.97.8,2.1,2.03Z"/>
  <path class="st1" d="M27.89,29.65c-.43-.74-.35-1.59.17-1.89s1.3.05,1.73.8c.43.74.35,1.59-.17,1.89-.52.3-1.3-.05-1.73-.8Z"/>
  <ellipse class="st9" cx="26.94" cy="12.85" rx="6.8" ry="8.19" transform="translate(-1.43 3.59) rotate(-7.42)"/>
  <ellipse class="st9" cx="30.31" cy="17.35" rx="6.8" ry="8.19" transform="translate(-1.99 4.06) rotate(-7.42)"/>
  <path class="st3" d="M29.02,30.48c-2.57-2.17-3.7-5.6-2.92-8.86-1.37,3.6-.1,7.67,3.08,9.85.72-1.47,1.97-2.6,3.49-3.18-1.46.22-2.77,1.01-3.66,2.19ZM24.71,26.34c-.61-3.7.86-7.43,3.83-9.71-3.63,1.73-5.31,5.97-3.83,9.71ZM37.02,7.59c.64,2.74.43,5.65-.65,8.31.78-2.58.82-5.31.16-7.89-1.81-6.97-9.25-5.5-11.21-.02-1.15,3.23-1.25,6.77-.24,10.1-1.55-3.6-1.58-7.63-.15-11.2,2.34-5.83,10.46-6.31,12.09.7ZM29.53,16.01c.48-1.13.45-2.4-.07-3.49-1.08-2.29.58-3.98,2.86-3.15.44.16.93.17,1.37.02,1.87-.63,3.01.95,2.17,2.67-1.65,3.38.25,3.32.5,6.21.76,8.46-10.45,6.03-6.84-2.26ZM32.9,28.8c1.77-.57,3.2-1.87,3.93-3.57.73-1.71.69-3.65-.13-5.32.79,3.48-.75,7.06-3.8,8.89ZM30.84,10.15c.12,0,.22.02.32.06-.09.07-.15.17-.15.28,0,.19.15.34.34.34.12,0,.22-.06.28-.15.04.1.06.21.06.32,0,.47-.38.85-.86.85s-.85-.38-.85-.85.38-.86.85-.86ZM34.51,10.15c.12,0,.22.02.32.06-.09.07-.15.17-.15.28,0,.19.15.34.34.34.12,0,.22-.06.28-.15.04.1.06.21.06.32,0,.47-.38.85-.86.85s-.85-.38-.85-.85.38-.86.85-.86ZM35.72,21.22c-2.03.63-4.24.37-6.08-.71,1.86.64,3.93-.31,5.58.54.16.08.33.14.5.17ZM32.16,14.5c-.14.39-.11.83.1,1.19.2.36.55.62.96.7.47-.98-.71-1.17-1.06-1.89ZM34.22,14.82c.08.33.06.69-.06.99-.12.3-.33.51-.57.58-.28-.81.42-.97.63-1.57Z"/>
  <ellipse class="st19" cx="68.85" cy="11.26" rx="9.54" ry="10.35"/>
  <ellipse class="st19" cx="67.4" cy="17.77" rx="6.08" ry="3.27"/>
  <ellipse class="st19" cx="66.91" cy="23.86" rx="3.15" ry="4.82"/>
  <ellipse class="st19" cx="66.3" cy="13.66" rx="6.8" ry="7.37"/>
  <ellipse class="st19" cx="72.86" cy="21.84" rx="3.34" ry="4.49"/>
  <ellipse class="st19" cx="70.31" cy="24.94" rx="5.7" ry="3.91" transform="translate(-3.56 14.53) rotate(-11.51)"/>
  <path class="st8" d="M70.19,27.49c.12,1.22-.62,2.3-1.65,2.4-1.03.1-1.97-.8-2.1-2.03-.12-1.22.62-2.3,1.65-2.4,1.03-.1,1.97.8,2.1,2.03Z"/>
  <path class="st8" d="M67.09,29.65c-.43-.74-.35-1.59.17-1.89s1.3.05,1.73.8c.43.74.35,1.59-.17,1.89-.52.3-1.3-.05-1.73-.8Z"/>
  <ellipse class="st19" cx="66.14" cy="12.85" rx="6.8" ry="8.19" transform="translate(-1.11 8.65) rotate(-7.42)"/>
  <ellipse class="st19" cx="69.51" cy="17.35" rx="6.8" ry="8.19" transform="translate(-1.66 9.12) rotate(-7.42)"/>
  <path class="st3" d="M68.22,30.48c-2.57-2.17-3.7-5.6-2.92-8.86-1.37,3.6-.1,7.67,3.08,9.85.72-1.47,1.97-2.6,3.49-3.18-1.46.22-2.77,1.01-3.66,2.19ZM63.91,26.34c-.61-3.7.86-7.43,3.83-9.71-3.63,1.73-5.31,5.97-3.83,9.71ZM76.22,7.59c.64,2.74.43,5.65-.65,8.31.78-2.58.82-5.31.16-7.89-1.81-6.97-9.25-5.5-11.21-.02-1.15,3.23-1.25,6.77-.24,10.1-1.55-3.6-1.58-7.63-.15-11.2,2.34-5.83,10.46-6.31,12.09.7ZM68.74,16.01c.48-1.13.45-2.4-.07-3.49-1.08-2.29.58-3.98,2.86-3.15.44.16.93.17,1.37.02,1.87-.63,3.01.95,2.17,2.67-1.65,3.38.25,3.32.5,6.21.76,8.46-10.45,6.03-6.84-2.26ZM72.1,28.8c1.77-.57,3.2-1.87,3.93-3.57.73-1.71.69-3.65-.13-5.32.79,3.48-.75,7.06-3.8,8.89ZM70.04,10.15c.12,0,.22.02.32.06-.09.07-.15.17-.15.28,0,.19.15.34.34.34.12,0,.22-.06.28-.15.04.1.06.21.06.32,0,.47-.38.85-.86.85s-.85-.38-.85-.85.38-.86.85-.86ZM73.71,10.15c.12,0,.22.02.32.06-.09.07-.15.17-.15.28,0,.19.15.34.34.34.12,0,.22-.06.28-.15.04.1.06.21.06.32,0,.47-.38.85-.86.85s-.85-.38-.85-.85.38-.86.85-.86ZM74.92,21.22c-2.03.63-4.24.37-6.08-.71,1.86.64,3.93-.31,5.58.54.16.08.33.14.5.17ZM71.36,14.5c-.14.39-.11.83.1,1.19.2.36.55.62.96.7.47-.98-.71-1.17-1.06-1.89ZM73.42,14.82c.08.33.06.69-.06.99-.12.3-.33.51-.57.58-.28-.81.42-.97.63-1.57Z"/>
</svg>