<?xml version="1.0" encoding="UTF-8"?>
<svg id="Layer_1" xmlns="http://www.w3.org/2000/svg" version="1.1" xmlns:xlink="http://www.w3.org/1999/xlink" viewBox="0 0 145.36 100.91">
  <!-- Generator: Adobe Illustrator 29.5.1, SVG Export Plug-In . SVG Version: 2.1.0 Build 141)  -->
  <defs>
    <style>
      .st0 {
        fill: #999595;
      }

      .st1, .st2, .st3, .st4, .st5 {
        fill-rule: evenodd;
      }

      .st1, .st6 {
        fill: #fbb040;
      }

      .st2, .st7 {
        fill: #00aeef;
      }

      .st8 {
        fill: #ed1c24;
      }

      .st3 {
        fill: #fff;
      }

      .st9 {
        fill: #3f3d3d;
      }

      .st10 {
        fill: none;
      }

      .st11 {
        fill: #31363d;
      }

      .st12 {
        fill: #ec008c;
      }

      .st4 {
        fill: #a3b4cc;
      }

      .st13, .st5 {
        fill: #00a651;
      }

      .st14 {
        fill: #2e3192;
      }

      .st15 {
        fill: #646161;
      }

      .st16 {
        fill: #2f2e2d;
      }

      .st17 {
        clip-path: url(#clippath);
      }
    </style>
    <clipPath id="clippath">
      <polyline class="st10" points="23.97 90.03 23.97 9.04 115.65 9.04 115.65 90.03 23.97 90.03"/>
    </clipPath>
  </defs>
  <g class="st17">
    <path class="st0" d="M32.58,52.43l-.2.11c-.47.45-1.04.77-1.65.95l-.2.11,16.1,27.88.2-.11c.47-.45,1.04-.77,1.65-.95l.11-.06h-.1v-.38l-15.9-27.55"/>
    <path class="st0" d="M50.75,18.71h-.12c-.31.07-.63.11-.96.11s-.65-.04-.96-.11h-.12l.09.05-.19.33v60.89l.19.33-.09.05h.12c.31-.07.63-.11.96-.11v.11-.11c.33,0,.65.04.96.11h.12l-.09-.05.19-.33V19.09l-.19-.33.09-.05"/>
    <polyline class="st15" points="48.49 79.98 48.49 80.36 48.59 80.36 48.68 80.31 48.49 79.98"/>
    <path class="st0" d="M68.43,49.54l-17.58,30.44v.38h-.1l.11.06c.61.18,1.18.51,1.65.95l.11.06-.05-.09.33-.19,16.89-29.26-1.36-2.36M78.24,32.54l-8.45,14.63,1.36,2.36,9.13-15.81-2.05-1.18M86.88,17.58l-7.46,12.92,2.05,1.18,7.27-12.58v-.38h.1l-.11-.06c-.61-.18-1.18-.51-1.65-.95l-.2-.11"/>
    <polyline class="st15" points="50.85 79.98 50.66 80.31 50.75 80.36 50.85 80.36 50.85 79.98"/>
    <path class="st0" d="M78.24,66.53l-25.34,14.63-.19.33-.09-.05.06.11c.45.47.77,1.04.95,1.65l.06.11v-.1h.38l25.34-14.63-1.18-2.05M88.73,60.47l-8.45,4.88,1.18,2.05,7.27-4.19v-2.73M105.96,50.53l-14.87,8.58v2.73l15.71-9.07.19-.33.09.05-.06-.11c-.45-.47-.77-1.04-.96-1.66l-.11-.19"/>
    <polyline class="st15" points="52.9 81.16 52.56 81.35 52.62 81.44 52.7 81.49 52.9 81.16"/>
    <path class="st0" d="M85.89,83.21h-31.81l-.33.19-.05-.09v.12c.07.31.11.63.11.96s-.04.65-.11.96v.22h32.19v-.22c-.07-.31-.11-.63-.11-.96s.04-.65.11-.96v-.22"/>
    <polyline class="st15" points="54.08 83.21 53.69 83.21 53.69 83.31 53.75 83.4 54.08 83.21"/>
    <path class="st0" d="M46.63,17.58l-16.1,27.88.2.11c.61.18,1.18.51,1.65.95l.2.11,15.9-27.55v-.38h.1l-.11-.06c-.61-.18-1.18-.51-1.65-.95l-.2-.11"/>
    <polyline class="st15" points="48.59 18.71 48.49 18.71 48.49 19.09 48.68 18.76 48.59 18.71"/>
    <path class="st0" d="M85.89,13.51h-32.19v.22c.07.31.11.63.11.96s-.04.65-.11.96v.12l.05-.09.33.19h31.81v-.22c-.07-.31-.11-.63-.11-.96s.04-.65.11-.96v-.22"/>
    <path class="st0" d="M81.46,31.68l-1.18,2.05,8.45,4.88v-2.73l-7.27-4.19M53.69,15.77l-.06.11c-.18.61-.51,1.18-.95,1.65l-.06.11.09-.05.19.33,25.34,14.63,1.18-2.05-25.34-14.63h-.38v-.1"/>
    <polyline class="st15" points="79.42 30.5 78.24 32.54 80.28 33.73 81.46 31.68 79.42 30.5"/>
    <path class="st0" d="M91.09,37.24v2.73l14.87,8.58.11-.19c.18-.62.51-1.18.96-1.66l.06-.11-.09.05-.19-.33-15.71-9.07"/>
    <polyline class="st15" points="53.75 15.68 53.69 15.77 53.69 15.87 54.08 15.87 53.75 15.68"/>
    <path class="st0" d="M81.46,67.4l-2.05,1.18,7.46,12.92.2-.11c.47-.45,1.04-.77,1.65-.95l.11-.06h-.1v-.38l-7.27-12.58M71.15,49.54l-1.36,2.36,8.45,14.63,2.05-1.18-9.13-15.81M52.62,17.63l-.11.06c-.47.45-1.04.77-1.65.95l-.11.06h.1v.38l17.58,30.44,1.36-2.36-16.89-29.26-.33-.19.05-.09"/>
    <polyline class="st15" points="50.85 18.71 50.75 18.71 50.66 18.76 50.85 19.09 50.85 18.71"/>
    <polyline class="st15" points="69.79 47.18 68.43 49.54 69.79 51.9 71.15 49.54 69.79 47.18"/>
    <polyline class="st15" points="80.28 65.35 78.24 66.53 79.42 68.58 81.46 67.4 80.28 65.35"/>
    <polyline class="st15" points="52.7 17.58 52.62 17.63 52.56 17.72 52.9 17.91 52.7 17.58"/>
    <path class="st0" d="M92.95,17.58l-.2.11c-.47.45-1.04.77-1.65.95l-.11.06h.1v.38l15.71,27.22.33.19-.05.09.11-.06c.47-.45,1.04-.77,1.65-.95l.2-.11-16.1-27.88"/>
    <polyline class="st15" points="106.81 46.31 107 46.64 107.09 46.59 107.14 46.5 106.81 46.31"/>
    <path class="st0" d="M90.99,18.71h-.12c-.31.07-.63.11-.96.11s-.65-.04-.96-.11h-.12l.09.05-.19.33v16.78l2.36,1.36v-18.14l-.19-.33.09-.05"/>
    <polyline class="st15" points="88.83 18.71 88.73 18.71 88.73 19.09 88.92 18.76 88.83 18.71"/>
    <path class="st0" d="M91.09,61.84l-2.36,1.36v16.78l.19.33-.09.05h.12c.31-.07.63-.11.96-.11v.11-.11c.33,0,.65.04.96.11h.12l-.09-.05.19-.33v-18.14M88.73,38.6v21.87l2.36-1.36v-19.14l-2.36-1.36"/>
    <polyline class="st15" points="91.09 59.11 88.73 60.47 88.73 63.2 91.09 61.84 91.09 59.11"/>
    <polyline class="st15" points="88.73 35.87 88.73 38.6 91.09 39.97 91.09 37.24 88.73 35.87"/>
    <polyline class="st15" points="88.73 79.98 88.73 80.36 88.83 80.36 88.92 80.31 88.73 79.98"/>
    <polyline class="st15" points="91.09 18.71 90.99 18.71 90.9 18.76 91.09 19.09 91.09 18.71"/>
    <path class="st0" d="M107.09,52.48l.05.09-.33.19-15.71,27.22v.38h-.1l.11.06c.61.18,1.18.51,1.65.96l.19.11,16.1-27.88-.2-.11c-.61-.18-1.18-.51-1.65-.95l-.11-.06"/>
    <polyline class="st15" points="107 52.43 106.81 52.76 107.14 52.57 107.09 52.48 107 52.43"/>
    <polyline class="st15" points="91.09 79.98 90.9 80.31 90.99 80.36 91.09 80.36 91.09 79.98"/>
    <path class="st4" d="M49.67,80.36c-1.07,0-2.09.42-2.85,1.18-.75.75-1.18,1.78-1.18,2.85s.42,2.09,1.18,2.85c.75.75,1.78,1.18,2.85,1.18s2.09-.42,2.85-1.18c.75-.75,1.18-1.78,1.18-2.85s-.42-2.09-1.18-2.85c-.75-.75-1.78-1.18-2.85-1.18"/>
    <path class="st9" d="M49.67,80.36h-.96l-.23.06-1.65.95-.09.08c-.78.78-1.21,1.83-1.21,2.92s.44,2.15,1.21,2.92h0c.78.78,1.83,1.21,2.92,1.21,1.1,0,2.15-.44,2.92-1.21h0c.55-.55.92-1.23,1.1-1.97v-.96c0,1.07-.42,2.09-1.18,2.85-.75.75-1.78,1.18-2.85,1.18s-2.09-.42-2.85-1.18c-.75-.75-1.18-1.78-1.18-2.85s.42-2.09,1.18-2.85c.75-.75,1.78-1.18,2.85-1.18M50.63,80.36h-.96c1.07,0,2.09.42,2.85,1.18.75.75,1.18,1.78,1.18,2.85v-.96l-.06-.23-.95-1.65-.08-.09-.09-.08-1.65-.95-.23-.06"/>
    <path class="st16" d="M48.48,80.43c-.61.18-1.18.51-1.65.95l1.65-.95"/>
    <path class="st16" d="M49.67,80.25v.11h.96c-.31-.07-.63-.11-.96-.11M49.67,80.25c-.33,0-.65.04-.96.11h.96v-.11"/>
    <path class="st16" d="M50.86,80.43l1.65.95c-.47-.45-1.04-.77-1.65-.95"/>
    <path class="st16" d="M52.68,81.55l.95,1.65c-.18-.61-.51-1.18-.95-1.65"/>
    <path class="st16" d="M53.69,83.43v1.92c.07-.31.11-.63.11-.96s-.04-.65-.11-.96"/>
    <path class="st11" d="M52.44,87.15h0M49.67,80.36h0c-1.07,0-2.09.42-2.85,1.18-.75.75-1.18,1.78-1.18,2.85s.42,2.09,1.18,2.85c.75.75,1.78,1.18,2.85,1.18s2.09-.42,2.85-1.18c.75-.75,1.18-1.78,1.18-2.85s-.42-2.09-1.18-2.85c-.75-.75-1.78-1.18-2.85-1.18v.11c1.04,0,2.03.41,2.77,1.15.73.73,1.15,1.73,1.15,2.77s-.41,2.03-1.15,2.77c-.73.73-1.73,1.15-2.77,1.15s-2.03-.41-2.77-1.15c-.73-.73-1.15-1.73-1.15-2.77s.41-2.03,1.15-2.77c.73-.73,1.73-1.15,2.77-1.15v-.11"/>
    <path class="st4" d="M29.55,45.51c-1.07,0-2.09.42-2.85,1.18-.75.75-1.18,1.78-1.18,2.85s.42,2.09,1.18,2.84c.75.75,1.78,1.18,2.85,1.18s2.09-.42,2.85-1.18c.75-.75,1.18-1.78,1.18-2.84s-.42-2.09-1.18-2.85c-.75-.75-1.78-1.18-2.85-1.18"/>
    <path class="st9" d="M29.55,45.4c-1.1,0-2.15.44-2.92,1.21-.78.78-1.21,1.83-1.21,2.92s.44,2.15,1.21,2.92c.78.78,1.83,1.21,2.92,1.21.41,0,.8-.06,1.19-.17l1.65-.95.09-.08c.78-.78,1.21-1.83,1.21-2.92s-.44-2.15-1.21-2.92l-.09-.08-1.65-.95c-.38-.11-.78-.17-1.19-.17v.11h0c1.07,0,2.09.42,2.85,1.18.75.75,1.18,1.78,1.18,2.85s-.42,2.09-1.18,2.84c-.75.75-1.78,1.18-2.85,1.18s-2.09-.42-2.85-1.18c-.75-.75-1.18-1.78-1.18-2.84s.42-2.09,1.18-2.85c.75-.75,1.78-1.18,2.85-1.18h0v-.11"/>
    <path class="st16" d="M32.39,52.55l-1.65.95c.61-.18,1.18-.51,1.65-.95"/>
    <path class="st16" d="M30.73,45.57l1.65.95c-.47-.45-1.04-.77-1.65-.95"/>
    <path class="st11" d="M29.55,45.51c-1.07,0-2.09.42-2.85,1.18-.75.75-1.18,1.78-1.18,2.85s.42,2.09,1.18,2.84c.75.75,1.78,1.18,2.85,1.18s2.09-.42,2.85-1.18c.75-.75,1.18-1.78,1.18-2.84s-.42-2.09-1.18-2.85c-.75-.75-1.78-1.18-2.85-1.18v.11c1.04,0,2.03.41,2.77,1.15.73.73,1.15,1.73,1.15,2.77s-.41,2.03-1.15,2.77c-.73.73-1.73,1.15-2.77,1.15s-2.03-.41-2.77-1.15c-.73-.73-1.15-1.73-1.15-2.77,0-1.04.41-2.03,1.15-2.77.73-.73,1.73-1.15,2.77-1.15v-.11"/>
    <path class="st4" d="M49.67,10.66c-1.07,0-2.09.42-2.85,1.18-.75.75-1.18,1.78-1.18,2.85s.42,2.09,1.18,2.84c.75.75,1.78,1.18,2.85,1.18s2.09-.42,2.85-1.18c.75-.75,1.18-1.78,1.18-2.84s-.42-2.09-1.18-2.85c-.75-.75-1.78-1.18-2.85-1.18"/>
    <path class="st9" d="M49.67,10.55v.11c1.07,0,2.09.42,2.85,1.18.75.75,1.18,1.78,1.18,2.85v-.96c-.18-.74-.55-1.42-1.1-1.97-.78-.78-1.83-1.21-2.92-1.21M49.67,10.55c-1.1,0-2.15.44-2.92,1.21-.78.78-1.21,1.83-1.21,2.92s.44,2.15,1.21,2.92l.09.08,1.65.95.23.06h1.92l.23-.06,1.65-.95.09-.08.08-.09.95-1.65.06-.23v-.96c0,1.07-.42,2.09-1.18,2.84-.75.75-1.78,1.18-2.85,1.18s-2.09-.42-2.85-1.18c-.75-.75-1.18-1.78-1.18-2.84s.42-2.09,1.18-2.85c.75-.75,1.78-1.18,2.85-1.18v-.11"/>
    <path class="st16" d="M50.63,18.71h-1.92c.31.07.63.11.96.11s.65-.04.96-.11"/>
    <path class="st16" d="M46.83,17.7c.47.45,1.04.77,1.65.95l-1.65-.95"/>
    <path class="st16" d="M53.69,13.73v1.92c.07-.31.11-.63.11-.96s-.04-.65-.11-.96"/>
    <path class="st16" d="M53.63,15.87l-.95,1.65c.45-.47.77-1.04.95-1.65"/>
    <path class="st16" d="M52.51,17.7l-1.65.95c.61-.18,1.18-.51,1.65-.95"/>
    <path class="st11" d="M49.67,10.66c-1.07,0-2.09.42-2.85,1.18-.75.75-1.18,1.78-1.18,2.85s.42,2.09,1.18,2.84c.75.75,1.78,1.18,2.85,1.18s2.09-.42,2.85-1.18c.75-.75,1.18-1.78,1.18-2.84s-.42-2.09-1.18-2.85c-.75-.75-1.78-1.18-2.85-1.18v.11c1.04,0,2.03.41,2.77,1.15.73.73,1.15,1.73,1.15,2.77s-.41,2.03-1.15,2.77c-.73.73-1.73,1.15-2.77,1.15s-2.03-.41-2.77-1.15c-.73-.73-1.15-1.73-1.15-2.77s.41-2.03,1.15-2.77c.73-.73,1.73-1.15,2.77-1.15v-.11"/>
    <path class="st4" d="M89.91,10.66c-1.07,0-2.09.42-2.85,1.18-.75.75-1.18,1.78-1.18,2.85s.42,2.09,1.18,2.84c.75.75,1.78,1.18,2.85,1.18s2.09-.42,2.85-1.18c.75-.75,1.18-1.78,1.18-2.84s-.42-2.09-1.18-2.85c-.76-.75-1.78-1.18-2.85-1.18"/>
    <path class="st9" d="M89.91,10.55c-1.1,0-2.15.44-2.92,1.21-.55.55-.92,1.23-1.1,1.97v1.92c.18.74.55,1.42,1.1,1.97l.09.08,1.65.95.23.06h1.92l.23-.06,1.65-.95.09-.08c.78-.78,1.21-1.83,1.21-2.92,0-1.1-.43-2.15-1.21-2.92-.78-.78-1.83-1.21-2.93-1.21v.11c1.07,0,2.09.42,2.85,1.18.75.75,1.18,1.78,1.18,2.85s-.42,2.09-1.18,2.84c-.76.75-1.78,1.18-2.85,1.18s-2.09-.42-2.85-1.18c-.75-.75-1.18-1.78-1.18-2.84s.42-2.09,1.18-2.85c.75-.75,1.78-1.18,2.85-1.18v-.11"/>
    <path class="st16" d="M87.07,17.7c.47.45,1.04.77,1.65.95l-1.65-.95"/>
    <path class="st16" d="M85.89,13.73c-.07.31-.11.63-.11.96s.04.65.11.96v-1.92"/>
    <path class="st16" d="M92.75,17.69l-1.65.95c.61-.18,1.18-.51,1.65-.95"/>
    <path class="st16" d="M90.87,18.71h-1.92c.31.07.63.11.96.11s.65-.04.96-.11"/>
    <path class="st11" d="M89.91,10.66c-1.07,0-2.09.42-2.85,1.18-.75.75-1.18,1.78-1.18,2.85s.42,2.09,1.18,2.84c.75.75,1.78,1.18,2.85,1.18s2.09-.42,2.85-1.18c.75-.75,1.18-1.78,1.18-2.84s-.42-2.09-1.18-2.85c-.76-.75-1.78-1.18-2.85-1.18v.11c1.04,0,2.03.41,2.77,1.15.73.73,1.14,1.73,1.14,2.77,0,1.04-.41,2.03-1.14,2.77-.73.73-1.73,1.15-2.77,1.15s-2.03-.41-2.77-1.15c-.73-.73-1.15-1.73-1.15-2.77s.41-2.03,1.15-2.77c.73-.73,1.73-1.15,2.77-1.15v-.11"/>
    <path class="st4" d="M110.03,45.51c-1.07,0-2.09.42-2.85,1.18-.75.75-1.18,1.78-1.18,2.85s.42,2.09,1.18,2.84c.75.75,1.78,1.18,2.85,1.18s2.09-.42,2.85-1.18c.75-.75,1.18-1.78,1.18-2.84s-.42-2.09-1.18-2.85c-.75-.75-1.78-1.18-2.85-1.18"/>
    <path class="st9" d="M110.03,45.4c-.41,0-.81.06-1.19.17l-1.65.95-.09.08-.08.08-.96,1.66c-.11.38-.17.78-.17,1.18s.06.8.17,1.18l.96,1.66.08.08.09.08,1.65.95c.38.11.78.17,1.19.17,1.1,0,2.15-.44,2.93-1.21h0c.78-.78,1.21-1.83,1.21-2.92s-.44-2.15-1.21-2.92c-.78-.78-1.83-1.21-2.93-1.21v.11h0c1.07,0,2.09.42,2.85,1.18.75.75,1.18,1.78,1.18,2.85s-.42,2.09-1.18,2.84c-.75.75-1.78,1.18-2.85,1.18s-2.09-.42-2.85-1.18c-.75-.75-1.18-1.78-1.18-2.84s.42-2.09,1.18-2.85c.75-.75,1.78-1.18,2.85-1.18h0v-.11"/>
    <path class="st16" d="M106.07,50.72c.18.62.51,1.18.96,1.66l-.96-1.66"/>
    <path class="st16" d="M107.03,46.7c-.45.47-.77,1.04-.96,1.66l.96-1.66"/>
    <path class="st16" d="M108.85,45.57c-.61.18-1.18.51-1.65.95l1.65-.95"/>
    <path class="st16" d="M107.2,52.55c.47.45,1.04.77,1.65.95l-1.65-.95"/>
    <path class="st11" d="M110.03,45.51c-1.07,0-2.09.42-2.85,1.18-.75.75-1.18,1.78-1.18,2.85s.42,2.09,1.18,2.84c.75.75,1.78,1.18,2.85,1.18s2.09-.42,2.85-1.18c.75-.75,1.18-1.78,1.18-2.84s-.42-2.09-1.18-2.85c-.75-.75-1.78-1.18-2.85-1.18v.11c1.04,0,2.03.41,2.77,1.15h0c.73.73,1.15,1.73,1.15,2.77s-.41,2.03-1.15,2.77c-.73.73-1.73,1.15-2.77,1.15s-2.03-.41-2.77-1.15c-.73-.73-1.15-1.73-1.15-2.77s.41-2.03,1.15-2.77c.73-.73,1.73-1.15,2.77-1.15v-.11"/>
    <path class="st4" d="M89.91,80.36c-1.07,0-2.09.42-2.85,1.18-.75.75-1.18,1.78-1.18,2.85s.42,2.09,1.18,2.85c.75.75,1.78,1.18,2.85,1.18s2.09-.42,2.85-1.18c.75-.75,1.18-1.78,1.18-2.85s-.42-2.09-1.18-2.85c-.76-.75-1.78-1.18-2.85-1.18"/>
    <path class="st9" d="M90.87,80.36h-.96c1.07,0,2.09.42,2.85,1.18.75.75,1.18,1.78,1.18,2.85s-.42,2.09-1.18,2.85c-.76.75-1.78,1.18-2.85,1.18s-2.09-.42-2.85-1.18c-.75-.75-1.18-1.78-1.18-2.85s.42-2.09,1.18-2.85c.75-.75,1.78-1.18,2.85-1.18h-.96l-.23.06-1.65.95-.09.08c-.55.55-.92,1.23-1.1,1.97v1.92c.18.74.55,1.42,1.1,1.97h0c.78.78,1.83,1.21,2.92,1.21h0c1.1,0,2.15-.44,2.93-1.21h0c.78-.78,1.21-1.83,1.21-2.92,0-1.1-.43-2.15-1.21-2.92h0l-.09-.08-1.65-.96-.23-.06"/>
    <path class="st16" d="M85.89,83.43c-.07.31-.11.63-.11.96s.04.65.11.96v-1.92"/>
    <path class="st16" d="M88.73,80.43c-.61.18-1.18.51-1.65.95l1.65-.95"/>
    <path class="st16" d="M89.91,80.25v.11h.96c-.31-.07-.63-.11-.96-.11M89.91,80.25c-.33,0-.65.04-.96.11h.96v-.11"/>
    <path class="st16" d="M91.1,80.43l1.65.96c-.47-.45-1.04-.77-1.65-.96"/>
    <path class="st11" d="M89.91,80.36h0c-1.07,0-2.09.42-2.85,1.18-.75.75-1.18,1.78-1.18,2.85s.42,2.09,1.18,2.85c.75.75,1.78,1.18,2.85,1.18s2.09-.42,2.85-1.18c.75-.75,1.18-1.78,1.18-2.85s-.42-2.09-1.18-2.85c-.76-.75-1.78-1.18-2.85-1.18v.11c1.04,0,2.03.41,2.77,1.15.73.73,1.14,1.73,1.14,2.77,0,1.04-.41,2.03-1.14,2.77h0c-.73.73-1.73,1.15-2.77,1.15s-2.03-.41-2.77-1.15c-.73-.73-1.15-1.73-1.15-2.77s.41-2.03,1.15-2.77c.73-.73,1.73-1.15,2.77-1.15v-.11"/>
  </g>
  <ellipse class="st8" cx="33.27" cy="47.61" rx="9.54" ry="10.35"/>
  <ellipse class="st8" cx="31.81" cy="54.12" rx="6.08" ry="3.27"/>
  <ellipse class="st8" cx="31.32" cy="60.21" rx="3.15" ry="4.82"/>
  <ellipse class="st8" cx="30.71" cy="50.02" rx="6.8" ry="7.37"/>
  <ellipse class="st8" cx="37.27" cy="58.2" rx="3.34" ry="4.49"/>
  <ellipse class="st8" cx="34.73" cy="61.29" rx="5.7" ry="3.91" transform="translate(-11.53 8.16) rotate(-11.51)"/>
  <ellipse class="st8" cx="32.73" cy="64.03" rx="1.88" ry="2.22" transform="translate(-6.21 3.58) rotate(-5.71)"/>
  <ellipse class="st8" cx="32.46" cy="65.46" rx="1.1" ry="1.55" transform="translate(-28.38 25) rotate(-30)"/>
  <ellipse class="st8" cx="30.56" cy="49.2" rx="6.8" ry="8.19" transform="translate(-6.1 4.36) rotate(-7.42)"/>
  <ellipse class="st8" cx="33.93" cy="53.7" rx="6.8" ry="8.19" transform="translate(-6.65 4.83) rotate(-7.42)"/>
  <path class="st3" d="M32.64,66.83c-2.57-2.17-3.7-5.6-2.92-8.86-1.37,3.6-.1,7.67,3.08,9.85.72-1.47,1.97-2.6,3.49-3.18-1.46.22-2.77,1.01-3.66,2.19ZM28.32,62.69c-.61-3.7.86-7.43,3.83-9.71-3.63,1.73-5.31,5.97-3.83,9.71ZM40.63,43.95c.64,2.74.43,5.65-.65,8.31.78-2.58.82-5.31.16-7.89-1.81-6.97-9.25-5.5-11.21-.02-1.15,3.23-1.25,6.77-.24,10.1-1.55-3.6-1.58-7.63-.15-11.2,2.34-5.83,10.46-6.31,12.09.7ZM33.15,52.37c.48-1.13.45-2.4-.07-3.49-1.08-2.29.58-3.98,2.86-3.15.44.16.93.17,1.37.02,1.87-.63,3.01.95,2.17,2.67-1.65,3.38.25,3.32.5,6.21.76,8.46-10.45,6.03-6.84-2.26ZM36.52,65.16c1.77-.57,3.2-1.87,3.93-3.57.73-1.71.69-3.65-.13-5.32.79,3.48-.75,7.06-3.8,8.89ZM34.45,46.5c.12,0,.22.02.32.06-.09.07-.15.17-.15.28,0,.19.15.34.34.34.12,0,.22-.06.28-.15.04.1.06.21.06.32,0,.47-.38.85-.86.85s-.85-.38-.85-.85.38-.86.85-.86ZM38.13,46.5c.12,0,.22.02.32.06-.09.07-.15.17-.15.28,0,.19.15.34.34.34.12,0,.22-.06.28-.15.04.1.06.21.06.32,0,.47-.38.85-.86.85s-.85-.38-.85-.85.38-.86.85-.86ZM39.34,57.57c-2.03.63-4.24.37-6.08-.71,1.86.64,3.93-.31,5.58.54.16.08.33.14.5.17ZM35.78,50.85c-.14.39-.11.83.1,1.19.2.36.55.62.96.7.47-.98-.71-1.17-1.06-1.89ZM37.84,51.17c.08.33.06.69-.06.99-.12.3-.33.51-.57.58-.28-.81.42-.97.63-1.57Z"/>
  <ellipse class="st7" cx="107.38" cy="47.61" rx="9.54" ry="10.35"/>
  <ellipse class="st7" cx="105.92" cy="54.12" rx="6.08" ry="3.27"/>
  <ellipse class="st7" cx="105.43" cy="60.21" rx="3.15" ry="4.82"/>
  <ellipse class="st7" cx="104.82" cy="50.02" rx="6.8" ry="7.37"/>
  <ellipse class="st7" cx="111.38" cy="58.2" rx="3.34" ry="4.49"/>
  <ellipse class="st7" cx="108.83" cy="61.29" rx="5.7" ry="3.91" transform="translate(-10.04 22.95) rotate(-11.51)"/>
  <path class="st2" d="M108.71,63.84c.12,1.22-.62,2.3-1.65,2.4-1.03.1-1.97-.8-2.1-2.03s.62-2.3,1.65-2.4c1.03-.1,1.97.8,2.1,2.03Z"/>
  <path class="st2" d="M105.62,66.01c-.43-.74-.35-1.59.17-1.89s1.3.05,1.73.8c.43.74.35,1.59-.17,1.89-.52.3-1.3-.05-1.73-.8Z"/>
  <ellipse class="st7" cx="104.66" cy="49.2" rx="6.8" ry="8.19" transform="translate(-5.48 13.93) rotate(-7.42)"/>
  <ellipse class="st7" cx="108.04" cy="53.7" rx="6.8" ry="8.19" transform="translate(-6.03 14.4) rotate(-7.42)"/>
  <path class="st3" d="M106.74,66.83c-2.57-2.17-3.7-5.6-2.92-8.86-1.37,3.6-.1,7.67,3.08,9.85.72-1.47,1.97-2.6,3.49-3.18-1.46.22-2.77,1.01-3.66,2.19ZM102.43,62.69c-.61-3.7.86-7.43,3.83-9.71-3.63,1.73-5.31,5.97-3.83,9.71ZM114.74,43.95c.64,2.74.43,5.65-.65,8.31.78-2.58.82-5.31.16-7.89-1.81-6.97-9.25-5.5-11.21-.02-1.15,3.23-1.25,6.77-.24,10.1-1.55-3.6-1.58-7.63-.15-11.2,2.34-5.83,10.46-6.31,12.09.7ZM107.26,52.37c.48-1.13.45-2.4-.07-3.49-1.08-2.29.58-3.98,2.86-3.15.44.16.93.17,1.37.02,1.87-.63,3.01.95,2.17,2.67-1.65,3.38.25,3.32.5,6.21.76,8.46-10.45,6.03-6.84-2.26ZM110.62,65.16c1.77-.57,3.2-1.87,3.93-3.57.73-1.71.69-3.65-.13-5.32.79,3.48-.75,7.06-3.8,8.89ZM108.56,46.5c.12,0,.22.02.32.06-.09.07-.15.17-.15.28,0,.19.15.34.34.34.12,0,.22-.06.28-.15.04.1.06.21.06.32,0,.47-.38.85-.86.85s-.85-.38-.85-.85.38-.86.85-.86ZM112.23,46.5c.12,0,.22.02.32.06-.09.07-.15.17-.15.28,0,.19.15.34.34.34.12,0,.22-.06.28-.15.04.1.06.21.06.32,0,.47-.38.85-.86.85s-.85-.38-.85-.85.38-.86.85-.86ZM113.44,57.57c-2.03.63-4.24.37-6.08-.71,1.86.64,3.93-.31,5.58.54.16.08.33.14.5.17ZM109.89,50.85c-.14.39-.11.83.1,1.19.2.36.55.62.96.7.47-.98-.71-1.17-1.06-1.89ZM111.95,51.17c.08.33.06.69-.06.99-.12.3-.33.51-.57.58-.28-.81.42-.97.63-1.57Z"/>
  <ellipse class="st12" cx="51.38" cy="81.61" rx="9.54" ry="10.35"/>
  <ellipse class="st12" cx="49.93" cy="88.12" rx="6.08" ry="3.27"/>
  <ellipse class="st12" cx="49.44" cy="94.21" rx="3.15" ry="4.82"/>
  <ellipse class="st12" cx="48.83" cy="84.02" rx="6.8" ry="7.37"/>
  <ellipse class="st12" cx="55.39" cy="92.2" rx="3.34" ry="4.49"/>
  <ellipse class="st12" cx="52.84" cy="95.29" rx="5.7" ry="3.91" transform="translate(-17.95 12.46) rotate(-11.51)"/>
  <ellipse class="st12" cx="50.85" cy="98.03" rx="1.88" ry="2.22" transform="translate(-9.5 5.55) rotate(-5.71)"/>
  <ellipse class="st12" cx="50.57" cy="99.46" rx="1.1" ry="1.55" transform="translate(-42.95 38.61) rotate(-30)"/>
  <ellipse class="st12" cx="48.67" cy="83.2" rx="6.8" ry="8.19" transform="translate(-10.34 6.98) rotate(-7.42)"/>
  <ellipse class="st12" cx="52.05" cy="87.7" rx="6.8" ry="8.19" transform="translate(-10.89 7.45) rotate(-7.42)"/>
  <path class="st3" d="M50.75,100.83c-2.57-2.17-3.7-5.6-2.92-8.86-1.37,3.6-.1,7.67,3.08,9.85.72-1.47,1.97-2.6,3.49-3.18-1.46.22-2.77,1.01-3.66,2.19ZM46.44,96.69c-.61-3.7.86-7.43,3.83-9.71-3.63,1.73-5.31,5.97-3.83,9.71ZM58.75,77.95c.64,2.74.43,5.65-.65,8.31.78-2.58.82-5.31.16-7.89-1.81-6.97-9.25-5.5-11.21-.02-1.15,3.23-1.25,6.77-.24,10.1-1.55-3.6-1.58-7.63-.15-11.2,2.34-5.83,10.46-6.31,12.09.7ZM51.27,86.37c.48-1.13.45-2.4-.07-3.49-1.08-2.29.58-3.98,2.86-3.15.44.16.93.17,1.37.02,1.87-.63,3.01.95,2.17,2.67-1.65,3.38.25,3.32.5,6.21.76,8.46-10.45,6.03-6.84-2.26ZM54.63,99.16c1.77-.57,3.2-1.87,3.93-3.57.73-1.71.69-3.65-.13-5.32.79,3.48-.75,7.06-3.8,8.89ZM52.57,80.5c.12,0,.22.02.32.06-.09.07-.15.17-.15.28,0,.19.15.34.34.34.12,0,.22-.06.28-.15.04.1.06.21.06.32,0,.47-.38.85-.86.85s-.85-.38-.85-.85.38-.86.85-.86ZM56.24,80.5c.12,0,.22.02.32.06-.09.07-.15.17-.15.28,0,.19.15.34.34.34.12,0,.22-.06.28-.15.04.1.06.21.06.32,0,.47-.38.85-.86.85s-.85-.38-.85-.85.38-.86.85-.86ZM57.45,91.57c-2.03.63-4.24.37-6.08-.71,1.86.64,3.93-.31,5.58.54.16.08.33.14.5.17ZM53.9,84.85c-.14.39-.11.83.1,1.19.2.36.55.62.96.7.47-.98-.71-1.17-1.06-1.89ZM55.95,85.17c.08.33.06.69-.06.99-.12.3-.33.51-.57.58-.28-.81.42-.97.63-1.57Z"/>
  <ellipse class="st14" cx="90.59" cy="81.61" rx="9.54" ry="10.35"/>
  <ellipse class="st14" cx="89.13" cy="88.12" rx="6.08" ry="3.27"/>
  <ellipse class="st14" cx="88.64" cy="94.21" rx="3.15" ry="4.82"/>
  <ellipse class="st14" cx="88.03" cy="84.02" rx="6.8" ry="7.37"/>
  <ellipse class="st14" cx="94.59" cy="92.2" rx="3.34" ry="4.49"/>
  <ellipse class="st14" cx="92.05" cy="95.29" rx="5.7" ry="3.91" transform="translate(-17.16 20.28) rotate(-11.51)"/>
  <ellipse class="st14" cx="90.05" cy="98.03" rx="1.88" ry="2.22" transform="translate(-9.31 9.45) rotate(-5.71)"/>
  <ellipse class="st14" cx="89.78" cy="99.46" rx="1.1" ry="1.55" transform="translate(-37.7 58.21) rotate(-30)"/>
  <ellipse class="st14" cx="87.87" cy="83.2" rx="6.8" ry="8.19" transform="translate(-10.01 12.04) rotate(-7.42)"/>
  <ellipse class="st14" cx="91.25" cy="87.7" rx="6.8" ry="8.19" transform="translate(-10.56 12.52) rotate(-7.42)"/>
  <path class="st3" d="M89.95,100.83c-2.57-2.17-3.7-5.6-2.92-8.86-1.37,3.6-.1,7.67,3.08,9.85.72-1.47,1.97-2.6,3.49-3.18-1.46.22-2.77,1.01-3.66,2.19ZM85.64,96.69c-.61-3.7.86-7.43,3.83-9.71-3.63,1.73-5.31,5.97-3.83,9.71ZM97.95,77.95c.64,2.74.43,5.65-.65,8.31.78-2.58.82-5.31.16-7.89-1.81-6.97-9.25-5.5-11.21-.02-1.15,3.23-1.25,6.77-.24,10.1-1.55-3.6-1.58-7.63-.15-11.2,2.34-5.83,10.46-6.31,12.09.7ZM90.47,86.37c.48-1.13.45-2.4-.07-3.49-1.08-2.29.58-3.98,2.86-3.15.44.16.93.17,1.37.02,1.87-.63,3.01.95,2.17,2.67-1.65,3.38.25,3.32.5,6.21.76,8.46-10.45,6.03-6.84-2.26ZM93.83,99.16c1.77-.57,3.2-1.87,3.93-3.57.73-1.71.69-3.65-.13-5.32.79,3.48-.75,7.06-3.8,8.89ZM91.77,80.5c.12,0,.22.02.32.06-.09.07-.15.17-.15.28,0,.19.15.34.34.34.12,0,.22-.06.28-.15.04.1.06.21.06.32,0,.47-.38.85-.86.85s-.85-.38-.85-.85.38-.86.85-.86ZM95.44,80.5c.12,0,.22.02.32.06-.09.07-.15.17-.15.28,0,.19.15.34.34.34.12,0,.22-.06.28-.15.04.1.06.21.06.32,0,.47-.38.85-.86.85s-.85-.38-.85-.85.38-.86.85-.86ZM96.65,91.57c-2.03.63-4.24.37-6.08-.71,1.86.64,3.93-.31,5.58.54.16.08.33.14.5.17ZM93.1,84.85c-.14.39-.11.83.1,1.19.2.36.55.62.96.7.47-.98-.71-1.17-1.06-1.89ZM95.16,85.17c.08.33.06.69-.06.99-.12.3-.33.51-.57.58-.28-.81.42-.97.63-1.57Z"/>
  <ellipse class="st6" cx="52.38" cy="11.26" rx="9.54" ry="10.35"/>
  <ellipse class="st6" cx="50.92" cy="17.77" rx="6.08" ry="3.27"/>
  <ellipse class="st6" cx="50.43" cy="23.86" rx="3.15" ry="4.82"/>
  <ellipse class="st6" cx="49.83" cy="13.66" rx="6.8" ry="7.37"/>
  <ellipse class="st6" cx="56.39" cy="21.84" rx="3.34" ry="4.49"/>
  <ellipse class="st6" cx="53.84" cy="24.94" rx="5.7" ry="3.91" transform="translate(-3.89 11.24) rotate(-11.51)"/>
  <path class="st1" d="M53.72,27.49c.12,1.22-.62,2.3-1.65,2.4-1.03.1-1.97-.8-2.1-2.03-.12-1.22.62-2.3,1.65-2.4,1.03-.1,1.97.8,2.1,2.03Z"/>
  <path class="st1" d="M50.62,29.65c-.43-.74-.35-1.59.17-1.89s1.3.05,1.73.8c.43.74.35,1.59-.17,1.89-.52.3-1.3-.05-1.73-.8Z"/>
  <ellipse class="st6" cx="49.67" cy="12.85" rx="6.8" ry="8.19" transform="translate(-1.24 6.52) rotate(-7.42)"/>
  <ellipse class="st6" cx="53.04" cy="17.35" rx="6.8" ry="8.19" transform="translate(-1.8 6.99) rotate(-7.42)"/>
  <path class="st3" d="M51.75,30.48c-2.57-2.17-3.7-5.6-2.92-8.86-1.37,3.6-.1,7.67,3.08,9.85.72-1.47,1.97-2.6,3.49-3.18-1.46.22-2.77,1.01-3.66,2.19ZM47.44,26.34c-.61-3.7.86-7.43,3.83-9.71-3.63,1.73-5.31,5.97-3.83,9.71ZM59.75,7.59c.64,2.74.43,5.65-.65,8.31.78-2.58.82-5.31.16-7.89-1.81-6.97-9.25-5.5-11.21-.02-1.15,3.23-1.25,6.77-.24,10.1-1.55-3.6-1.58-7.63-.15-11.2,2.34-5.83,10.46-6.31,12.09.7ZM52.26,16.01c.48-1.13.45-2.4-.07-3.49-1.08-2.29.58-3.98,2.86-3.15.44.16.93.17,1.37.02,1.87-.63,3.01.95,2.17,2.67-1.65,3.38.25,3.32.5,6.21.76,8.46-10.45,6.03-6.84-2.26ZM55.63,28.8c1.77-.57,3.2-1.87,3.93-3.57.73-1.71.69-3.65-.13-5.32.79,3.48-.75,7.06-3.8,8.89ZM53.57,10.15c.12,0,.22.02.32.06-.09.07-.15.17-.15.28,0,.19.15.34.34.34.12,0,.22-.06.28-.15.04.1.06.21.06.32,0,.47-.38.85-.86.85s-.85-.38-.85-.85.38-.86.85-.86ZM57.24,10.15c.12,0,.22.02.32.06-.09.07-.15.17-.15.28,0,.19.15.34.34.34.12,0,.22-.06.28-.15.04.1.06.21.06.32,0,.47-.38.85-.86.85s-.85-.38-.85-.85.38-.86.85-.86ZM58.45,21.22c-2.03.63-4.24.37-6.08-.71,1.86.64,3.93-.31,5.58.54.16.08.33.14.5.17ZM54.89,14.5c-.14.39-.11.83.1,1.19.2.36.55.62.96.7.47-.98-.71-1.17-1.06-1.89ZM56.95,14.82c.08.33.06.69-.06.99-.12.3-.33.51-.57.58-.28-.81.42-.97.63-1.57Z"/>
  <ellipse class="st13" cx="91.58" cy="11.26" rx="9.54" ry="10.35"/>
  <ellipse class="st13" cx="90.13" cy="17.77" rx="6.08" ry="3.27"/>
  <ellipse class="st13" cx="89.64" cy="23.86" rx="3.15" ry="4.82"/>
  <ellipse class="st13" cx="89.03" cy="13.66" rx="6.8" ry="7.37"/>
  <ellipse class="st13" cx="95.59" cy="21.84" rx="3.34" ry="4.49"/>
  <ellipse class="st13" cx="93.04" cy="24.94" rx="5.7" ry="3.91" transform="translate(-3.1 19.07) rotate(-11.51)"/>
  <path class="st5" d="M92.92,27.49c.12,1.22-.62,2.3-1.65,2.4-1.03.1-1.97-.8-2.1-2.03-.12-1.22.62-2.3,1.65-2.4,1.03-.1,1.97.8,2.1,2.03Z"/>
  <path class="st5" d="M89.82,29.65c-.43-.74-.35-1.59.17-1.89s1.3.05,1.73.8c.43.74.35,1.59-.17,1.89-.52.3-1.3-.05-1.73-.8Z"/>
  <ellipse class="st13" cx="88.87" cy="12.85" rx="6.8" ry="8.19" transform="translate(-.91 11.58) rotate(-7.42)"/>
  <ellipse class="st13" cx="92.24" cy="17.35" rx="6.8" ry="8.19" transform="translate(-1.47 12.06) rotate(-7.42)"/>
  <path class="st3" d="M90.95,30.48c-2.57-2.17-3.7-5.6-2.92-8.86-1.37,3.6-.1,7.67,3.08,9.85.72-1.47,1.97-2.6,3.49-3.18-1.46.22-2.77,1.01-3.66,2.19ZM86.64,26.34c-.61-3.7.86-7.43,3.83-9.71-3.63,1.73-5.31,5.97-3.83,9.71ZM98.95,7.59c.64,2.74.43,5.65-.65,8.31.78-2.58.82-5.31.16-7.89-1.81-6.97-9.25-5.5-11.21-.02-1.15,3.23-1.25,6.77-.24,10.1-1.55-3.6-1.58-7.63-.15-11.2,2.34-5.83,10.46-6.31,12.09.7ZM91.47,16.01c.48-1.13.45-2.4-.07-3.49-1.08-2.29.58-3.98,2.86-3.15.44.16.93.17,1.37.02,1.87-.63,3.01.95,2.17,2.67-1.65,3.38.25,3.32.5,6.21.76,8.46-10.45,6.03-6.84-2.26ZM94.83,28.8c1.77-.57,3.2-1.87,3.93-3.57.73-1.71.69-3.65-.13-5.32.79,3.48-.75,7.06-3.8,8.89ZM92.77,10.15c.12,0,.22.02.32.06-.09.07-.15.17-.15.28,0,.19.15.34.34.34.12,0,.22-.06.28-.15.04.1.06.21.06.32,0,.47-.38.85-.86.85s-.85-.38-.85-.85.38-.86.85-.86ZM96.44,10.15c.12,0,.22.02.32.06-.09.07-.15.17-.15.28,0,.19.15.34.34.34.12,0,.22-.06.28-.15.04.1.06.21.06.32,0,.47-.38.85-.86.85s-.85-.38-.85-.85.38-.86.85-.86ZM97.65,21.22c-2.03.63-4.24.37-6.08-.71,1.86.64,3.93-.31,5.58.54.16.08.33.14.5.17ZM94.09,14.5c-.14.39-.11.83.1,1.19.2.36.55.62.96.7.47-.98-.71-1.17-1.06-1.89ZM96.15,14.82c.08.33.06.69-.06.99-.12.3-.33.51-.57.58-.28-.81.42-.97.63-1.57Z"/>
</svg>