<?xml version="1.0" encoding="UTF-8"?>
<svg id="Layer_1" xmlns="http://www.w3.org/2000/svg" version="1.1" xmlns:xlink="http://www.w3.org/1999/xlink" viewBox="0 0 158.48 116.66">
  <!-- Generator: Adobe Illustrator 29.5.1, SVG Export Plug-In . SVG Version: 2.1.0 Build 141)  -->
  <defs>
    <style>
      .st0 {
        fill: #4c4d20;
      }

      .st1 {
        fill: #57c1ad;
      }

      .st1, .st2, .st3, .st4, .st5, .st6, .st7, .st8, .st9, .st10, .st11, .st12, .st13, .st14, .st15, .st16, .st17, .st18, .st19, .st20, .st21, .st22, .st23, .st24, .st25, .st26 {
        fill-rule: evenodd;
      }

      .st27 {
        fill: #4b134c;
      }

      .st2 {
        fill: #01a169;
      }

      .st28 {
        fill: #47442c;
      }

      .st29 {
        fill: #093e49;
      }

      .st3 {
        fill: #42c6ea;
      }

      .st4 {
        fill: #61c19a;
      }

      .st30 {
        fill: #1c3c2e;
      }

      .st5 {
        fill: #7d995f;
      }

      .st6 {
        fill: #62cbe9;
      }

      .st7 {
        fill: #e47cb1;
      }

      .st31 {
        fill: #413549;
      }

      .st32 {
        fill: #4a2911;
      }

      .st33 {
        fill: #250f26;
      }

      .st34 {
        fill: #0b2141;
      }

      .st35 {
        fill: #3f3d3d;
      }

      .st36 {
        fill: none;
      }

      .st37 {
        fill: #173d32;
      }

      .st8 {
        fill: #f37e80;
      }

      .st9 {
        fill: #7c277d;
      }

      .st38 {
        fill: #676464;
      }

      .st39 {
        fill: #242323;
      }

      .st40 {
        fill: #441846;
      }

      .st10 {
        fill: #3d6cb4;
      }

      .st11 {
        fill: #ed2024;
      }

      .st12 {
        fill: #8fa4d4;
      }

      .st41 {
        fill: #193b34;
      }

      .st13 {
        fill: #5dbf8f;
      }

      .st42 {
        fill: #204c24;
      }

      .st14 {
        fill: #f78f33;
      }

      .st43 {
        fill: #053020;
      }

      .st44 {
        fill: #151414;
      }

      .st45 {
        fill: #373d22;
      }

      .st15 {
        fill: #b8cc6f;
      }

      .st46 {
        fill: #1e1e1e;
      }

      .st16 {
        fill: #efe394;
      }

      .st17 {
        fill: #ef4623;
      }

      .st47 {
        fill: #4c233e;
      }

      .st48 {
        fill: #06442e;
      }

      .st49 {
        fill: #11434c;
      }

      .st50 {
        fill: #363434;
      }

      .st51 {
        fill: #461111;
      }

      .st52 {
        fill: #47180e;
      }

      .st53 {
        fill: #4a2c14;
      }

      .st18 {
        fill: #b466a9;
      }

      .st54 {
        fill: #2a3144;
      }

      .st19 {
        fill: #f57f20;
      }

      .st55 {
        fill: #151348;
      }

      .st20 {
        fill: #cfb2d5;
      }

      .st21 {
        fill: #f6eb14;
      }

      .st22 {
        fill: #69bd45;
      }

      .st23 {
        fill: #b9529f;
      }

      .st24 {
        fill: #3953a4;
      }

      .st56 {
        fill: #10302c;
      }

      .st25 {
        fill: #36a294;
      }

      .st26 {
        fill: #5cc1a3;
      }

      .st57 {
        clip-path: url(#clippath);
      }

      .st58 {
        fill: #4c2626;
      }

      .st59 {
        fill: #252e1d;
      }
    </style>
    <clipPath id="clippath">
      <polyline class="st36" points="19.22 3.96 139.96 3.96 139.96 116.66 19.22 116.66 19.22 3.96"/>
    </clipPath>
  </defs>
  <g class="st57">
    <path class="st38" d="M47.44,85.2l-1.02.46,5.91,2.96,2.5.48c.06-.09.12-.18.19-.26l-5.98-3-1.6-.65M44.77,84.13l-.41.5.89.45.88-.4-1.36-.55M41.58,82.84l-.18.3,2.04,1.02.36-.43-2.22-.89M37.61,81.25l2.88,1.44.13-.23-3.02-1.21M36.66,79.64v.13s1.37.56,1.37.56l-1.37-.69M25.26,73.94c-.07.33-.23.64-.45.9l7.96,3.99c.1-.27.26-.52.46-.73h0s0,0,0,0l.12-.11-8.09-4.05"/>
    <path class="st38" d="M94.05,69.42c-.08.14-.19.27-.3.39-.12.12-.26.23-.41.32l8.35,8.49c.08-.14.19-.27.3-.39h0s0,0,0,0c.12-.12.26-.23.41-.32l-8.35-8.49"/>
    <path class="st38" d="M75.14,57.24l-1.45,1.91-.47,2.13h.07c.32,0,.63.08.91.22l.94-4.26M77.59,41.54l-3.38,15.26,1.45-1.91,2.91-13.14h-.07c-.32,0-.63-.07-.91-.22"/>
    <path class="st38" d="M77.97,29.34c-.1.23-.24.44-.42.62h0s-.2.17-.2.17l20.04,15.61c.1-.23.24-.44.42-.62h0s.05-.05.05-.05l-.2-.39-19.7-15.34"/>
    <path class="st38" d="M78.14,77.27l-1.05.62-.82,11.36c.12-.02.24-.03.36-.03h0c.22,0,.43.04.64.1l.87-12.05M78.31,71.37l-.78.35-.36,4.95,1.05-.62.32-4.43-.09-.08h0s0,0,0,0l-.15-.16M78.91,52.51l-1.3,18.07.28-.13c-.02-.11-.03-.22-.03-.34,0-.53.21-1.04.59-1.42h0s0,0,0,0c.1-.1.2-.18.32-.26l1.14-15.85c-.12.02-.24.03-.36.03h0c-.22,0-.44-.04-.64-.11"/>
    <path class="st38" d="M70.54,61.6l-3.69,4.85c.24.1.46.25.64.43l.16.18,3.66-4.8-.77-.65M74.2,56.8l-3.05,4,.77.65,1.77-2.32.52-2.34M77.98,51.85l-2.32,3.05-.52,2.34,3.64-4.78c-.24-.1-.46-.25-.64-.43h0s-.16-.18-.16-.18"/>
    <polyline class="st50" points="75.66 54.9 74.2 56.8 73.68 59.14 75.14 57.24 75.66 54.9"/>
    <path class="st38" d="M101.73,50.25l.53,1.01,4.56.03c-.04-.16-.06-.32-.06-.49,0-.18.02-.35.07-.52l-5.09-.03M92.03,50.18l.22.19h0s0,0,0,0c.23.23.4.51.5.82l8.37.05-.53-1.01-8.56-.05M81.5,50.12c.04.16.06.32.06.49,0,.18-.02.35-.07.52l7.43.05c.1-.3.26-.57.49-.8l.24-.2-8.15-.05"/>
    <path class="st38" d="M100.57,48.04c-.26.23-.57.38-.9.46l.91,1.74h1.14s-1.16-2.19-1.16-2.19M93.38,34.36c-.25.23-.56.39-.89.47l5.18,9.86.35.27c.22-.17.48-.29.74-.36l-5.37-10.23"/>
    <polyline class="st50" points="97.67 44.69 97.87 45.07 98.01 44.95 97.67 44.69"/>
    <path class="st38" d="M101.12,51.25l4.77,9.08c.25-.23.56-.39.89-.47l-4.52-8.61h-1.14"/>
    <polyline class="st50" points="100.59 50.24 101.12 51.25 102.26 51.25 101.73 50.25 100.59 50.24"/>
    <path class="st38" d="M99.51,92.09l-2.3,3.12c.25.1.48.25.67.44l.14.15,2.52-3.42c-.37,0-.72-.11-1.03-.3M110.8,76.73l-8.92,12.14.1.09h0s0,0,0,0c.23.23.39.5.49.8l9.14-12.44c-.25-.1-.48-.25-.67-.44h0s-.14-.15-.14-.15"/>
    <path class="st38" d="M73.17,91.03l-1.29.13,6.91,7.02c.08-.14.19-.27.3-.39h0s0,0,0,0h0c.12-.12.26-.23.41-.32l-6.34-6.44M67.92,85.7l-.5.92,3.56,3.61,1.29-.13-4.34-4.41M61.31,78.98l-.98.44,6.35,6.45.5-.92-5.88-5.97M57.55,75.17c-.1.3-.26.57-.49.79h0s-.08.07-.08.07l2.59,2.63.98-.44-3.01-3.05M54.65,72.22l-.65.78.17.17.05-.05c.23-.23.51-.4.82-.5l-.39-.4M51.45,68.98c-.08.14-.18.27-.3.39h0s0,0,0,0c-.12.12-.26.23-.41.32l2.56,2.6.65-.78-2.49-2.53"/>
    <path class="st38" d="M40.5,82.69l-9.08,15.48c.1.03.21.07.3.11l2.72-3.28,6.95-11.86-.9-.45M48.31,69.37l-7.17,12.22.94.38,7.09-12.09c-.33-.09-.62-.27-.87-.51"/>
    <polyline class="st50" points="40.63 82.46 40.5 82.69 41.4 83.14 41.58 82.84 40.63 82.46"/>
    <path class="st38" d="M54.92,59.61c-.27.2-.59.34-.93.38l2.52,6.15c.27-.2.59-.34.93-.38l-2.52-6.15"/>
    <polyline class="st38" points="77.62 70.58 68.26 74.77 68.51 75.76 77.53 71.71 77.62 70.58"/>
    <path class="st50" d="M77.9,70.45l-.28.13-.08,1.14.78-.35c-.21-.27-.36-.58-.41-.92"/>
    <path class="st38" d="M59.57,78.66l-12.16,5.45,1.3.52,11.62-5.2-.75-.77M67.33,75.18l-6.77,3.03.75.77,6.27-2.81-.26-.99"/>
    <polyline class="st50" points="60.55 78.22 59.57 78.66 60.33 79.42 61.31 78.98 60.55 78.22"/>
    <path class="st38" d="M45.25,85.07l-1.79.8c.21.27.36.58.41.92l2.54-1.14-1.16-.58"/>
    <polyline class="st50" points="46.14 84.68 45.25 85.07 46.42 85.66 47.44 85.2 46.14 84.68"/>
    <path class="st38" d="M61.43,53.84l-.34.65c.33.08.64.23.89.46l.23-.44-.79-.67M64.43,48.07l-2.52,4.85.79.67,2.63-5.06c-.33-.08-.64-.23-.89-.46"/>
    <path class="st38" d="M66.68,85.88l-1.96,3.59c.33.08.63.25.88.48l1.82-3.32-.74-.75M68.16,83.18l-.97,1.78.74.75,1.12-2.04c-.33-.08-.63-.25-.88-.48"/>
    <polyline class="st50" points="67.19 84.95 66.68 85.88 67.42 86.63 67.92 85.7 67.19 84.95"/>
    <path class="st38" d="M68.51,75.76l-.93.42.98,3.79c.29-.16.63-.25.97-.25h0l-1.02-3.95M67.04,70.05c-.3.16-.63.25-.97.25h0l1.26,4.88.93-.42-1.22-4.72"/>
    <polyline class="st50" points="68.26 74.77 67.33 75.18 67.58 76.17 68.51 75.76 68.26 74.77"/>
    <path class="st38" d="M77.18,76.66l-6.22,3.64c.24.24.42.54.51.87l5.63-3.29.09-1.22M90.4,68.94l-12.16,7.11-.09,1.22,12.76-7.46c-.24-.24-.42-.54-.51-.87"/>
    <polyline class="st50" points="78.23 76.05 77.18 76.66 77.09 77.88 78.14 77.27 78.23 76.05"/>
    <path class="st38" d="M42.09,81.96l-.18.31,2.19,1.1.37-.45-2.38-.96M36.34,80.61l-.07.1,1.35.54-1.28-.64M38.03,80.33l2.98,1.49.14-.24-3.12-1.26"/>
    <path class="st50" d="M41.91,82.27l-.33.57,2.22.89.3-.36-2.19-1.1M36.65,79.77c-.04.3-.15.58-.31.83l1.28.64,3.02,1.21.38-.64-2.98-1.49-1.38-.56"/>
    <polyline class="st50" points="41.15 81.58 41.01 81.82 41.91 82.27 42.09 81.96 41.15 81.58"/>
    <polyline class="st46" points="41.01 81.82 40.63 82.46 41.58 82.84 41.91 82.27 41.01 81.82"/>
    <polyline class="st38" points="45.45 83.32 45.02 83.83 46.44 84.54 47.41 84.11 45.45 83.32"/>
    <polyline class="st50" points="45.02 83.83 44.77 84.13 46.14 84.68 46.44 84.54 45.02 83.83"/>
    <path class="st38" d="M48.71,84.63l-1.11.5,1.44.72,6.46,2.6c.31-.19.67-.29,1.04-.29.53,0,1.04.21,1.42.58h0s0,0,0,0c.25.25.43.56.52.9l.74.3,3.2.61c.06-.12.12-.23.2-.33l-13.9-5.59"/>
    <polyline class="st50" points="47.6 85.12 47.44 85.2 49.04 85.84 47.6 85.12"/>
    <polyline class="st50" points="47.41 84.11 46.44 84.54 47.6 85.12 48.71 84.63 47.41 84.11"/>
    <polyline class="st46" points="46.44 84.54 46.14 84.68 47.44 85.2 47.6 85.12 46.44 84.54"/>
    <path class="st38" d="M58.5,89.8c.02.12.03.24.03.36,0,.22-.04.44-.11.65l3.8.73v-.13s.01-.26.01-.26l-3.03-1.22-.71-.14M43.9,87v.13c0,.3-.06.6-.19.86l10.82,2.07c0-.11.02-.22.04-.32l-2.24-1.12-8.43-1.62"/>
    <path class="st50" d="M52.33,88.62l2.24,1.12c.05-.23.14-.45.26-.64l-2.5-.48"/>
    <path class="st50" d="M59.21,89.94l3.03,1.22c.03-.21.09-.41.18-.6l-3.2-.61"/>
    <path class="st38" d="M71.92,61.46l-.61.8.17.14c.1-.2.23-.38.39-.54h0s0,0,0,0c.08-.08.17-.16.27-.22l-.21-.18M62.69,53.59l-.48.92,8.32,7.1.61-.8-8.46-7.21M56,47.89c-.1.2-.23.38-.39.54h0c-.08.08-.17.16-.27.22l6.08,5.19.48-.92-5.91-5.04"/>
    <polyline class="st50" points="71.15 60.8 70.54 61.6 71.31 62.26 71.92 61.46 71.15 60.8"/>
    <polyline class="st50" points="61.91 52.92 61.43 53.84 62.22 54.51 62.69 53.59 61.91 52.92"/>
    <path class="st38" d="M70.98,90.24l-4.87.48c.08.22.12.45.12.69,0,.1,0,.21-.02.31l5.67-.56-.91-.92M75.19,89.82l-2.93.29.91.92,1.49-.15c.07-.4.25-.77.53-1.06M87.88,88.57l-10.09,1c.1.07.19.14.27.23.21.2.36.45.46.71l9.46-.93c-.08-.22-.12-.45-.12-.69,0-.11,0-.21.02-.31"/>
    <polyline class="st50" points="72.27 90.11 70.98 90.24 71.89 91.16 73.17 91.03 72.27 90.11"/>
    <path class="st38" d="M53.3,72.28l-8.83,10.64.98.39,8.56-10.31-.71-.72M56.09,68.92l-2.15,2.59.71.72,2.21-2.66c-.21-.1-.4-.23-.56-.4h0s-.21-.24-.21-.24"/>
    <polyline class="st50" points="53.94 71.5 53.3 72.28 54.01 73 54.65 72.22 53.94 71.5"/>
    <path class="st38" d="M40.16,88.12l-5.71,6.88-2.15,3.67h0s0,0,0,0l.21.24,8.36-10.08c-.14-.08-.27-.18-.38-.3h0c-.13-.13-.24-.27-.33-.42M43.44,84.16l-.89,1.07c.28.1.55.26.76.48l.08.08.97-1.17-.92-.46"/>
    <polyline class="st50" points="43.79 83.73 43.44 84.16 44.36 84.63 44.77 84.13 43.79 83.73"/>
    <path class="st50" d="M34.45,95l-2.72,3.28c.21.1.4.23.57.4l2.15-3.67"/>
    <polyline class="st50" points="44.47 82.92 44.1 83.37 45.02 83.83 45.45 83.32 44.47 82.92"/>
    <polyline class="st46" points="44.1 83.37 43.79 83.73 44.77 84.13 45.02 83.83 44.1 83.37"/>
    <path class="st38" d="M90.8,76.87l-1.21,10.02c.09-.01.18-.02.27-.02h0c.25,0,.5.05.73.14l1.2-9.98h-.18c-.28,0-.56-.05-.81-.16M91.59,70.26l-.34,2.8c.11-.02.23-.03.35-.03.22,0,.44.04.65.11l.33-2.76-.27.02c-.25,0-.5-.05-.73-.14"/>
    <path class="st38" d="M89.48,59.88c-.27.2-.6.33-.93.37l2.6,6.52c.27-.2.6-.33.94-.37l-2.6-6.52"/>
    <path class="st38" d="M61.91,58c-.27.22-.58.36-.92.42l3.8,8.32c.26-.21.58-.36.91-.42l-3.8-8.32"/>
    <path class="st8" d="M24.97,73.51c0-.44-.18-.87-.49-1.18-.31-.31-.74-.49-1.18-.49s-.87.18-1.18.49c-.31.31-.49.74-.49,1.18s.18.87.49,1.18c.31.31.74.49,1.18.49s.87-.18,1.18-.49c.31-.31.49-.74.49-1.18"/>
    <path class="st35" d="M23.3,71.51c-.53,0-1.04.21-1.42.59-.38.38-.59.88-.59,1.42,0,.53.21,1.04.59,1.42.38.38.89.59,1.42.59s1.04-.21,1.42-.59h0s.09-.1.09-.1l-.24-.12.2-.4c-.08.14-.17.27-.28.38-.31.31-.74.49-1.18.49s-.87-.18-1.18-.49c-.31-.31-.49-.74-.49-1.18s.18-.87.49-1.18c.31-.31.74-.49,1.18-.49s.87.18,1.18.49c.31.31.49.74.49,1.18,0,.24-.05.48-.15.69l.2-.39.24.12c.03-.14.04-.28.04-.42,0-.53-.21-1.04-.59-1.42h0c-.38-.38-.89-.59-1.42-.59"/>
    <path class="st39" d="M25.02,73.81l-.2.39-.05.11-.2.4.24.12c.23-.26.38-.57.45-.9l-.24-.12"/>
    <path class="st58" d="M23.3,74.85c-.35,0-.69-.14-.94-.39-.25-.25-.39-.59-.39-.94,0-.36.14-.69.39-.94.25-.25.59-.39.94-.39.35,0,.69.14.94.39h0c.25.25.39.59.39.94,0,.35-.14.7-.39.94h0s0,0,0,0c-.25.25-.59.39-.94.39M23.3,71.84c-.44,0-.87.18-1.18.49-.31.31-.49.74-.49,1.18s.18.87.49,1.18c.31.31.74.49,1.18.49s.87-.18,1.18-.49c.11-.11.21-.24.28-.38l.05-.11c.1-.22.15-.45.15-.69,0-.44-.18-.87-.49-1.18-.31-.31-.74-.49-1.18-.49"/>
    <path class="st2" d="M67.18,101.09c0-.44-.18-.87-.49-1.18-.31-.31-.74-.49-1.18-.49s-.87.18-1.18.49c-.31.31-.49.74-.49,1.18s.18.87.49,1.18c.31.31.74.49,1.18.49s.87-.18,1.18-.49c.31-.31.49-.74.49-1.18"/>
    <path class="st35" d="M67.52,101.09h0M65.51,102.76c-.44,0-.87-.18-1.18-.49-.31-.31-.49-.74-.49-1.18s.18-.87.49-1.18c.31-.31.74-.49,1.18-.49s.87.18,1.18.49c.31.31.49.74.49,1.18s-.18.87-.49,1.18c-.31.31-.74.49-1.18.49M65.51,99.09c-.53,0-1.04.21-1.42.58h0s0,0,0,0c-.37.38-.58.89-.58,1.42s.21,1.04.58,1.42h0s0,0,0,0c.38.38.89.59,1.42.59h0c.53,0,1.04-.21,1.42-.59s.59-.89.59-1.42c0-.53-.21-1.04-.59-1.42h0c-.38-.38-.89-.59-1.42-.59"/>
    <path class="st43" d="M64.57,100.14h0M64.57,100.15c.25-.25.59-.39.94-.39.35,0,.69.14.94.39.25.25.39.59.39.94,0,.35-.14.69-.39.94-.25.25-.59.39-.94.39-.35,0-.69-.14-.94-.39-.25-.25-.39-.59-.39-.95s.14-.69.39-.94M65.51,99.42c-.44,0-.87.18-1.18.49-.31.31-.49.74-.49,1.18s.18.87.49,1.18c.31.31.74.49,1.18.49s.87-.18,1.18-.49c.31-.31.49-.74.49-1.18s-.18-.87-.49-1.18c-.31-.31-.74-.49-1.18-.49"/>
    <path class="st11" d="M105.08,79.65c0-.44-.18-.87-.49-1.18-.31-.31-.74-.49-1.18-.49s-.87.18-1.18.49c-.31.31-.49.74-.49,1.18s.18.87.49,1.18c.31.31.74.49,1.18.49s.87-.18,1.18-.49c.31-.31.49-.74.49-1.18"/>
    <path class="st35" d="M103.4,77.64c-.36,0-.7.1-1,.27l.19.19-.33.33c.31-.29.72-.46,1.15-.46s.87.18,1.18.49c.31.31.49.74.49,1.18s-.18.87-.49,1.18c-.31.31-.74.49-1.18.49s-.87-.18-1.18-.49c-.31-.31-.49-.74-.49-1.18s.17-.85.47-1.17l-.33.33-.19-.19c-.18.31-.28.66-.28,1.03,0,.53.21,1.04.59,1.42.37.37.88.59,1.42.59.53,0,1.04-.21,1.42-.59h0c.38-.38.59-.89.59-1.42s-.21-1.04-.59-1.42h0c-.38-.37-.89-.59-1.42-.59"/>
    <path class="st39" d="M102.4,77.91c-.15.09-.29.19-.41.32h0s0,0,0,0c-.12.12-.22.25-.3.39l.19.19.33-.33.02-.02.03-.03.33-.33-.19-.19"/>
    <path class="st51" d="M102.46,78.7c.25-.25.59-.39.94-.39h0c.35,0,.7.14.94.39.25.25.39.59.39.94,0,.35-.14.69-.39.95h0c-.25.25-.59.39-.94.39h0c-.35,0-.69-.14-.94-.39-.25-.25-.39-.59-.39-.94s.14-.69.39-.94h0M103.4,77.98c-.43,0-.84.17-1.15.46l-.03.03-.02.02c-.3.31-.47.73-.47,1.17s.18.87.49,1.18c.31.31.74.49,1.18.49s.87-.18,1.18-.49c.31-.31.49-.74.49-1.18s-.18-.87-.49-1.18c-.31-.31-.74-.49-1.18-.49"/>
    <path class="st22" d="M80.17,39.75c0-.45-.18-.87-.49-1.18-.31-.31-.74-.49-1.18-.49s-.87.18-1.18.49c-.31.31-.49.74-.49,1.18s.18.87.49,1.18c.31.31.74.49,1.18.49s.87-.18,1.18-.49c.31-.31.49-.74.49-1.18"/>
    <path class="st35" d="M79.92,41.17h0M78.5,37.75c-.53,0-1.04.21-1.42.59h0c-.38.37-.59.88-.59,1.42,0,.53.21,1.04.59,1.42.15.15.32.28.51.37l.06-.27.48.11c-.31-.07-.59-.22-.81-.45-.31-.31-.49-.74-.49-1.18s.18-.87.49-1.18c.31-.31.74-.49,1.18-.49s.87.18,1.18.49c.31.31.49.74.49,1.18s-.18.87-.49,1.18c-.31.31-.74.49-1.18.49-.12,0-.24-.01-.35-.04l.48.11-.06.26c.51-.02.99-.23,1.35-.59.38-.38.59-.89.59-1.42,0-.53-.21-1.04-.59-1.42h0c-.38-.38-.89-.59-1.42-.59"/>
    <path class="st39" d="M77.65,41.27l-.06.27c.28.14.59.22.91.22h.07s.06-.27.06-.27l-.48-.11h-.02s-.48-.11-.48-.11"/>
    <path class="st42" d="M78.5,41.09c-.35,0-.7-.14-.94-.39h0c-.25-.25-.39-.59-.39-.94,0-.36.14-.69.39-.94h0s0,0,0,0c.25-.25.59-.39.94-.39.35,0,.69.14.94.39h0s0,0,0,0c.25.25.39.59.39.94,0,.36-.14.69-.39.94h0s0,0,0,0c-.25.25-.59.39-.94.39h0M78.5,38.08c-.44,0-.87.18-1.18.49-.31.31-.49.74-.49,1.18s.18.87.49,1.18c.22.23.51.38.81.45h.02c.12.03.23.04.35.04.44,0,.87-.18,1.18-.49.31-.31.49-.74.49-1.18s-.18-.87-.49-1.18c-.31-.31-.74-.49-1.18-.49"/>
    <path class="st23" d="M100.91,46.54c0-.45-.18-.87-.49-1.18-.31-.31-.74-.49-1.18-.49s-.87.18-1.18.49c-.31.31-.49.74-.49,1.18s.18.87.49,1.18c.31.31.74.49,1.18.49s.87-.18,1.18-.49c.31-.31.49-.74.49-1.18"/>
    <path class="st35" d="M97.89,45.56l-.28.35-.22-.17c-.11.25-.16.52-.16.8,0,.53.21,1.04.59,1.42h0c.38.38.89.59,1.42.59.15,0,.29-.02.44-.05l-.16-.31c-.09.01-.18.02-.27.02-.44,0-.87-.18-1.18-.49-.31-.31-.49-.74-.49-1.18,0-.36.11-.7.32-.98M98.03,45.37l-.08.11.09-.1h0M99.24,44.54c-.16,0-.32.02-.48.06l.16.31c.1-.02.21-.03.32-.03.44,0,.87.18,1.18.49.31.31.49.74.49,1.18s-.18.87-.49,1.18h-.01s.16.32.16.32l.09-.08c.38-.38.59-.88.59-1.42,0-.53-.21-1.04-.59-1.42-.38-.38-.89-.59-1.42-.59"/>
    <path class="st39" d="M97.87,45.07l-.05.05h0c-.18.18-.32.39-.42.62l.22.17.28-.35.06-.08.08-.11-.16-.3"/>
    <path class="st39" d="M100.41,47.74c-.25.24-.56.4-.9.46l.16.31c.33-.07.64-.23.9-.46l-.16-.31M98.76,44.6c-.27.07-.52.19-.74.36l.21.17-.2.25h0s.02-.01.02-.01c.24-.24.54-.4.86-.46l-.16-.31"/>
    <polyline class="st44" points="98.01 44.95 97.87 45.07 98.03 45.37 98.23 45.12 98.01 44.95"/>
    <path class="st27" d="M99.24,47.88c-.35,0-.69-.14-.94-.39h0c-.25-.25-.39-.59-.39-.94,0-.36.14-.69.39-.94h0c.25-.25.59-.39.94-.39s.69.14.94.39c.25.25.39.59.39.94,0,.35-.14.69-.39.94-.25.25-.59.39-.94.39M99.24,44.87c-.11,0-.21.01-.32.03-.32.06-.63.22-.86.46l-.02.02-.09.1-.06.08c-.21.28-.32.63-.32.98,0,.44.18.87.49,1.18.31.31.74.49,1.18.49.09,0,.18,0,.27-.02.34-.06.65-.21.9-.46h.01c.31-.32.49-.75.49-1.19s-.18-.87-.49-1.18c-.31-.31-.74-.49-1.18-.49"/>
    <path class="st1" d="M91.16,7.95c0-.44-.18-.87-.49-1.18-.31-.31-.74-.49-1.18-.49s-.87.18-1.18.49c-.31.31-.49.74-.49,1.18s.18.87.49,1.18c.31.31.74.49,1.18.49s.87-.18,1.18-.49c.31-.31.49-.74.49-1.18"/>
    <path class="st35" d="M91.5,7.95h0M89.5,9.62c-.44,0-.87-.18-1.18-.49-.31-.31-.49-.74-.49-1.18s.18-.87.49-1.18c.31-.31.74-.49,1.18-.49s.87.18,1.18.49c.31.31.49.74.49,1.18s-.18.87-.49,1.18c-.31.31-.74.49-1.18.49M89.5,5.95c-.53,0-1.04.21-1.42.59-.38.38-.59.89-.59,1.42,0,.53.21,1.04.59,1.42.38.38.89.59,1.42.59.53,0,1.04-.21,1.42-.59.38-.38.59-.89.59-1.42,0-.53-.21-1.04-.59-1.42h0s0,0,0,0c-.38-.37-.89-.59-1.42-.59"/>
    <path class="st41" d="M89.5,9.29c-.35,0-.7-.14-.94-.39h0s0,0,0,0c-.25-.25-.39-.59-.39-.94,0-.35.14-.69.39-.94.25-.25.59-.39.94-.39.35,0,.69.14.94.39.25.25.39.59.39.94,0,.35-.14.7-.39.95-.25.25-.59.39-.94.39M89.5,6.28c-.44,0-.87.18-1.18.49-.31.31-.49.74-.49,1.18s.18.87.49,1.18c.31.31.74.49,1.18.49s.87-.18,1.18-.49c.31-.31.49-.74.49-1.18s-.18-.87-.49-1.18c-.31-.31-.74-.49-1.18-.49"/>
    <path class="st11" d="M81.23,50.61c0-.44-.18-.87-.49-1.18-.31-.31-.74-.49-1.18-.49s-.87.18-1.18.49c-.31.31-.49.74-.49,1.18s.18.87.49,1.18c.31.31.74.49,1.18.49s.87-.18,1.18-.49.49-.74.49-1.18"/>
    <path class="st35" d="M78.93,52.26l-.15.2.13.05.02-.25M78.6,51.98l.34.26.46.03c-.29-.03-.56-.13-.8-.29M79.56,48.6c-.53,0-1.04.21-1.42.59h0c-.37.38-.58.89-.58,1.42,0,.45.15.89.43,1.24l.17-.22.34.26-.11-.1c-.31-.31-.49-.74-.49-1.18s.18-.87.49-1.18c.31-.31.74-.49,1.18-.49s.87.18,1.18.49c.31.31.49.74.49,1.18s-.18.87-.49,1.18-.74.49-1.18.49h-.09s.47.03.47.03l-.02.27c.4-.07.77-.26,1.06-.56.25-.25.43-.56.52-.9h-.27s0-1.01,0-1.01h.27c-.09-.35-.27-.67-.53-.92h0c-.38-.38-.89-.59-1.42-.59"/>
    <path class="st39" d="M78.94,52.24h0s-.01.02-.01.02l-.02.25c.2.07.42.11.64.11h0c.12,0,.24-.01.36-.03l.02-.27-.47-.03h-.07s-.46-.04-.46-.04"/>
    <path class="st39" d="M78.14,51.63l-.17.22.16.18h0c.19.19.4.33.64.43l.15-.2v-.02s0,0,0,0l-.34-.26-.11-.09-.34-.26"/>
    <polyline class="st44" points="78.93 52.24 78.93 52.26 78.95 52.24 78.94 52.24 78.93 52.24"/>
    <path class="st39" d="M81.56,50.61h0M81.23,50.11v1.01s.26,0,.26,0c.04-.17.07-.34.07-.52,0-.17-.02-.33-.06-.49h-.27"/>
    <path class="st51" d="M78.61,49.66h0M78.61,49.66c.25-.25.59-.39.94-.39.35,0,.69.14.94.39.25.25.39.59.39.94,0,.36-.14.7-.39.94-.25.25-.59.39-.94.39-.35,0-.69-.14-.94-.39-.25-.25-.39-.59-.39-.94s.14-.69.39-.94M79.56,48.94c-.44,0-.87.18-1.18.49-.31.31-.49.74-.49,1.18s.18.87.49,1.18l.11.1.11.09c.24.17.51.27.8.29h.07s.09,0,.09,0c.44,0,.87-.18,1.18-.49s.49-.74.49-1.18-.18-.87-.49-1.18c-.31-.31-.74-.49-1.18-.49"/>
    <path class="st21" d="M93.71,32.88c0-.44-.18-.87-.49-1.18-.31-.31-.74-.49-1.18-.49s-.87.18-1.18.49c-.31.31-.49.74-.49,1.18s.18.87.49,1.18.74.49,1.18.49.87-.18,1.18-.49c.31-.31.49-.74.49-1.18"/>
    <path class="st35" d="M92.04,34.55c-.44,0-.87-.18-1.18-.49s-.49-.74-.49-1.18.18-.87.49-1.18c.31-.31.74-.49,1.18-.49s.87.18,1.18.49c.31.31.49.74.49,1.18s-.18.87-.49,1.18c-.31.31-.74.49-1.18.49M92.04,30.87c-.53,0-1.04.21-1.42.58h0s0,0,0,0c-.37.38-.59.88-.59,1.42,0,.53.21,1.04.59,1.42.38.38.89.59,1.42.59h0c.15,0,.31-.02.46-.05l-.13-.24.89-.47.13.24.07-.07c.37-.37.59-.89.59-1.42,0-.53-.21-1.04-.59-1.42h0s0,0,0,0c-.38-.37-.89-.59-1.42-.59"/>
    <path class="st39" d="M93.26,34.12l-.89.47.13.24c.33-.08.64-.24.89-.47l-.13-.24"/>
    <path class="st0" d="M91.09,31.93h0M91.09,31.93c.25-.25.59-.39.94-.39.35,0,.69.14.94.39.25.25.39.59.39.95,0,.35-.14.7-.39.94-.25.25-.59.39-.94.39-.35,0-.69-.14-.94-.39-.25-.25-.39-.59-.39-.94,0-.35.14-.69.39-.94M92.04,31.21c-.44,0-.87.18-1.18.49-.31.31-.49.74-.49,1.18s.18.87.49,1.18.74.49,1.18.49.87-.18,1.18-.49c.31-.31.49-.74.49-1.18s-.18-.87-.49-1.18c-.31-.31-.74-.49-1.18-.49"/>
    <path class="st19" d="M114.02,75.46c0-.44-.18-.87-.49-1.18-.31-.31-.74-.49-1.18-.49s-.87.17-1.18.49c-.31.31-.49.74-.49,1.18s.18.87.49,1.18c.31.31.74.49,1.18.49s.87-.18,1.18-.49c.31-.31.49-.74.49-1.18"/>
    <path class="st35" d="M112.35,77.13c-.44,0-.87-.18-1.18-.49-.31-.31-.49-.74-.49-1.18s.18-.87.49-1.18c.31-.31.74-.49,1.18-.49s.87.17,1.18.49c.31.31.49.74.49,1.18s-.18.87-.49,1.18c-.31.31-.74.49-1.18.49M112.35,73.46c-.53,0-1.04.21-1.42.58h0s0,0,0,0c-.37.38-.59.89-.59,1.42,0,.46.16.91.45,1.27l.16-.22.81.6-.16.22c.23.09.49.14.75.14h0c.53,0,1.04-.21,1.42-.59h0c.37-.38.58-.89.58-1.42s-.21-1.04-.58-1.42h0s0,0,0,0c-.38-.37-.89-.58-1.42-.58"/>
    <path class="st39" d="M110.96,76.51l-.16.22.14.15h0c.19.2.42.35.67.45l.16-.22-.81-.6"/>
    <path class="st32" d="M111.41,74.52c.25-.25.59-.39.95-.39s.69.14.94.39h0c.25.25.39.59.39.94s-.14.69-.39.95h0c-.25.25-.59.39-.94.39-.35,0-.69-.14-.94-.39-.25-.25-.39-.59-.39-.95,0-.35.14-.69.39-.95h0M112.35,73.79c-.44,0-.87.17-1.18.49-.31.31-.49.74-.49,1.18s.18.87.49,1.18c.31.31.74.49,1.18.49s.87-.18,1.18-.49c.31-.31.49-.74.49-1.18s-.18-.87-.49-1.18c-.31-.31-.74-.49-1.18-.49"/>
    <path class="st13" d="M94.78,112.18c0-.44-.18-.87-.49-1.18-.31-.31-.74-.49-1.18-.49s-.87.18-1.18.49c-.31.31-.49.74-.49,1.18s.18.87.49,1.18c.31.31.74.49,1.18.49s.87-.18,1.18-.49c.31-.31.49-.74.49-1.18"/>
    <path class="st35" d="M95.11,112.18h0M94.53,110.76h0s0,0,0,0M93.11,113.85c-.44,0-.87-.18-1.18-.49-.31-.31-.49-.74-.49-1.18s.18-.87.49-1.18c.31-.31.74-.49,1.18-.49s.87.18,1.18.49c.31.31.49.74.49,1.18s-.18.87-.49,1.18c-.31.31-.74.49-1.18.49M93.11,110.17c-.53,0-1.04.21-1.42.59h0c-.38.38-.59.89-.59,1.42,0,.53.21,1.04.59,1.42h0c.38.38.89.59,1.42.59s1.04-.21,1.42-.58h0s0,0,0,0c.37-.38.58-.89.58-1.42,0-.53-.21-1.04-.59-1.42h0c-.38-.38-.89-.59-1.42-.59"/>
    <path class="st48" d="M92.16,113.13c-.25-.25-.39-.59-.39-.94,0-.35.14-.7.39-.94h0c.25-.25.59-.39.94-.39s.69.14.95.39c.25.25.39.59.39.94,0,.35-.14.69-.39.95h0c-.25.25-.59.39-.95.39s-.69-.14-.94-.39M93.11,110.51c-.44,0-.87.18-1.18.49-.31.31-.49.74-.49,1.18s.18.87.49,1.18c.31.31.74.49,1.18.49s.87-.18,1.18-.49c.31-.31.49-.74.49-1.18s-.18-.87-.49-1.18c-.31-.31-.74-.49-1.18-.49"/>
    <path class="st24" d="M51.4,67.95c0-.44-.18-.87-.49-1.18-.31-.31-.74-.49-1.18-.49s-.87.18-1.18.49c-.31.31-.49.74-.49,1.18s.18.87.49,1.18c.31.31.74.49,1.18.49s.87-.18,1.18-.49c.31-.31.49-.74.49-1.18"/>
    <path class="st35" d="M49.73,65.94h0c-.53,0-1.04.21-1.42.59h0s0,0,0,0c-.37.38-.59.88-.59,1.42,0,.53.21,1.04.59,1.42h0s0,0,0,0h0s.14-.23.14-.23l.87.51-.14.23c.18.05.36.08.55.08.36,0,.7-.09,1-.27l-.19-.19.3-.3c-.31.27-.7.43-1.12.43-.44,0-.87-.18-1.18-.49-.31-.31-.49-.74-.49-1.18s.18-.87.49-1.18c.31-.31.74-.49,1.18-.49s.87.18,1.18.49c.31.31.49.74.49,1.18s-.16.82-.44,1.13l.3-.3.19.19c.18-.31.28-.66.28-1.03,0-.53-.21-1.04-.58-1.42h0s0,0,0,0c-.38-.38-.89-.59-1.42-.59"/>
    <path class="st39" d="M51.26,68.78l-.3.3-.05.05-.07.06-.3.3.19.19c.15-.09.29-.19.41-.32h0s0,0,0,0c.12-.12.22-.25.3-.39l-.19-.19"/>
    <path class="st39" d="M48.45,69.13l-.14.23c.24.24.54.42.87.51l.14-.23-.87-.51"/>
    <path class="st55" d="M50.68,68.89h0M48.79,67h0M48.79,67c.25-.25.59-.39.94-.39s.69.14.94.39h0c.25.25.39.59.39.94,0,.35-.14.69-.39.94-.25.25-.59.39-.94.39h0c-.35,0-.69-.14-.94-.39h0c-.25-.25-.39-.59-.39-.95,0-.35.14-.69.39-.95M49.73,66.27c-.44,0-.87.18-1.18.49-.31.31-.49.74-.49,1.18s.18.87.49,1.18c.31.31.74.49,1.18.49.41,0,.81-.15,1.12-.43l.07-.06.05-.05c.28-.31.44-.71.44-1.13,0-.44-.18-.87-.49-1.18-.31-.31-.74-.49-1.18-.49"/>
    <path class="st6" d="M101.73,71.55c0-.44-.18-.87-.49-1.18-.31-.31-.74-.49-1.18-.49s-.87.18-1.18.49c-.31.31-.49.74-.49,1.18s.18.87.49,1.18c.31.31.74.49,1.18.49s.87-.18,1.18-.49c.31-.31.49-.74.49-1.18"/>
    <path class="st35" d="M102.07,71.55h0M101.48,72.97h0M98.64,70.13h0M100.06,73.22c-.44,0-.87-.18-1.18-.49-.31-.31-.49-.74-.49-1.18s.18-.87.49-1.18c.31-.31.74-.49,1.18-.49s.87.18,1.18.49c.31.31.49.74.49,1.18s-.18.87-.49,1.18c-.31.31-.74.49-1.18.49M100.06,69.55c-.53,0-1.04.21-1.42.59-.38.38-.59.89-.59,1.42,0,.53.21,1.04.59,1.42.37.38.88.59,1.42.59.53,0,1.04-.21,1.42-.59.38-.38.59-.89.59-1.42,0-.53-.21-1.04-.59-1.42-.38-.38-.89-.59-1.42-.59"/>
    <path class="st49" d="M100.06,72.89c-.35,0-.69-.14-.94-.39h0s0,0,0,0c-.25-.25-.39-.59-.39-.94,0-.35.14-.7.39-.94h0s0,0,0,0c.25-.25.59-.39.94-.39h0c.35,0,.7.14.94.39h0s0,0,0,0c.25.25.39.59.39.94,0,.35-.14.69-.39.94h0s0,0,0,0c-.25.25-.59.39-.94.39M100.06,69.88c-.44,0-.87.18-1.18.49-.31.31-.49.74-.49,1.18s.18.87.49,1.18c.31.31.74.49,1.18.49s.87-.18,1.18-.49c.31-.31.49-.74.49-1.18s-.18-.87-.49-1.18c-.31-.31-.74-.49-1.18-.49"/>
    <path class="st24" d="M55.38,58c0-.44-.18-.87-.49-1.18-.31-.31-.74-.49-1.18-.49s-.87.18-1.18.49c-.31.31-.49.74-.49,1.18s.18.87.49,1.18c.31.31.74.49,1.18.49s.87-.18,1.18-.49c.31-.31.49-.74.49-1.18"/>
    <path class="st35" d="M53.72,56c-.53,0-1.04.21-1.42.58h0c-.38.38-.59.89-.59,1.42,0,.53.21,1.04.59,1.42.38.38.89.59,1.42.59h0c.09,0,.18,0,.27-.02l-.1-.25.41-.17c-.18.07-.38.11-.58.11-.44,0-.87-.18-1.18-.49-.31-.31-.49-.74-.49-1.18s.18-.87.49-1.18c.31-.31.74-.49,1.18-.49s.87.18,1.18.49c.31.31.49.74.49,1.18s-.18.87-.49,1.18c-.15.15-.31.26-.5.34l.42-.17.1.25.22-.19h0c.37-.38.58-.89.58-1.42s-.21-1.04-.58-1.42h0s0,0,0,0c-.38-.37-.89-.59-1.42-.59"/>
    <path class="st39" d="M54.81,59.36l-.42.17-.1.04-.41.17.1.25c.34-.05.66-.18.93-.38l-.1-.25"/>
    <path class="st35" d="M55.13,59.42h0s0,0,0,0M55.72,58h0M52.3,56.58h0s0,0,0,0"/>
    <path class="st55" d="M54.66,58.95h0M52.77,57.06h0M52.77,57.06c.25-.25.59-.39.95-.39h0c.35,0,.69.14.94.39.25.25.39.59.39.95s-.14.69-.39.94c-.25.25-.59.39-.94.39s-.69-.14-.94-.39c-.25-.25-.39-.59-.39-.94,0-.35.14-.69.39-.94M53.72,56.33c-.44,0-.87.18-1.18.49-.31.31-.49.74-.49,1.18s.18.87.49,1.18c.31.31.74.49,1.18.49.2,0,.4-.04.58-.11l.1-.04c.18-.08.35-.2.5-.34.31-.31.49-.74.49-1.18s-.18-.87-.49-1.18c-.31-.31-.74-.49-1.18-.49"/>
    <path class="st3" d="M107.1,22.24c0-.44-.18-.87-.49-1.18-.31-.31-.74-.49-1.18-.49s-.87.18-1.18.49c-.31.31-.49.74-.49,1.18s.18.87.49,1.18c.31.31.74.49,1.18.49s.87-.18,1.18-.49.49-.74.49-1.18"/>
    <path class="st35" d="M107.43,22.24h0M105.43,23.91c-.44,0-.87-.18-1.18-.49-.31-.31-.49-.74-.49-1.18s.18-.87.49-1.18c.31-.31.74-.49,1.18-.49s.87.18,1.18.49c.31.31.49.74.49,1.18s-.18.87-.49,1.18-.74.49-1.18.49M105.43,20.23c-.53,0-1.04.21-1.42.59-.38.38-.59.89-.59,1.42s.21,1.04.59,1.42c.37.37.88.59,1.42.59.53,0,1.04-.21,1.42-.59.38-.38.59-.89.59-1.42s-.21-1.04-.59-1.42c-.38-.37-.89-.58-1.42-.58"/>
    <path class="st29" d="M105.43,23.58c-.35,0-.69-.14-.94-.39-.25-.25-.39-.59-.39-.94s.14-.69.39-.94c.25-.25.59-.39.94-.39h0c.35,0,.7.14.94.39.25.25.39.59.39.94,0,.35-.14.69-.39.94-.25.25-.59.39-.94.39M105.43,20.57c-.44,0-.87.18-1.18.49-.31.31-.49.74-.49,1.18s.18.87.49,1.18c.31.31.74.49,1.18.49s.87-.18,1.18-.49.49-.74.49-1.18-.18-.87-.49-1.18c-.31-.31-.74-.49-1.18-.49"/>
    <path class="st11" d="M81.55,70.11c0-.44-.18-.87-.49-1.18-.31-.31-.74-.49-1.18-.49s-.87.18-1.18.49c-.31.31-.49.74-.49,1.18s.18.87.49,1.18c.31.31.74.49,1.18.49s.87-.18,1.18-.49c.31-.31.49-.74.49-1.18"/>
    <path class="st35" d="M79.88,68.11c-.4,0-.78.12-1.1.33l-.03.45c.31-.28.71-.44,1.13-.44.44,0,.87.18,1.18.49.31.31.49.74.49,1.18s-.18.87-.49,1.18c-.31.31-.74.49-1.18.49s-.87-.18-1.18-.49l-.11-.13-.03.45c.37.32.84.5,1.33.5.53,0,1.04-.21,1.42-.59h0s0,0,0,0c.37-.38.59-.89.59-1.42,0-.53-.21-1.04-.59-1.42h0s0,0,0,0c-.38-.37-.88-.59-1.42-.59"/>
    <path class="st39" d="M78.78,68.44c-.11.07-.22.16-.32.26h0s0,0,0,0c-.37.38-.59.88-.59,1.42,0,.11,0,.23.03.34l.25-.11.41.92-.25.11.15.16h0s0,0,0,0l.09.08.03-.45c-.24-.3-.38-.67-.38-1.05,0-.44.18-.87.49-1.18l.05-.05.03-.45"/>
    <path class="st44" d="M78.15,70.34l-.25.11c.06.34.2.65.41.92l.25-.11-.41-.92"/>
    <path class="st51" d="M78.94,69.17h0M78.93,69.17c.25-.25.59-.39.95-.39h0c.35,0,.69.14.94.39.25.25.39.59.39.94,0,.35-.14.69-.39.95h0c-.25.25-.59.39-.94.39h0c-.35,0-.69-.14-.94-.39-.25-.25-.39-.59-.39-.94,0-.35.14-.69.39-.94M79.88,68.44c-.42,0-.82.16-1.13.44l-.05.05c-.31.31-.49.74-.49,1.18,0,.39.14.76.38,1.05l.11.13c.31.31.74.49,1.18.49s.87-.18,1.18-.49c.31-.31.49-.74.49-1.18s-.18-.87-.49-1.18c-.31-.31-.74-.49-1.18-.49"/>
    <path class="st11" d="M67.44,46.58c0-.44-.18-.87-.49-1.18-.31-.31-.74-.49-1.18-.49s-.87.18-1.18.49c-.31.31-.49.74-.49,1.18s.18.87.49,1.18c.31.31.74.49,1.18.49s.87-.18,1.18-.49c.31-.31.49-.74.49-1.18"/>
    <path class="st35" d="M65.77,44.57c-.53,0-1.04.21-1.42.59h0s0,0,0,0c-.37.38-.59.89-.59,1.42,0,.53.21,1.04.59,1.42h0s.08.07.08.07l.13-.24.38.2c-.12-.07-.24-.16-.34-.26-.31-.31-.49-.74-.49-1.18s.18-.87.49-1.18c.31-.31.74-.49,1.18-.49s.87.18,1.18.49c.31.31.49.74.49,1.18s-.18.87-.49,1.18c-.31.31-.74.49-1.18.49-.24,0-.48-.05-.7-.15l.38.2-.13.24c.15.03.29.05.45.05h0c.53,0,1.04-.21,1.42-.59h0c.38-.37.59-.89.59-1.42,0-.53-.21-1.04-.59-1.42h0c-.38-.37-.89-.59-1.42-.59"/>
    <path class="st39" d="M64.55,47.83l-.13.24c.26.23.56.39.89.46l.13-.24-.38-.2-.14-.07-.38-.2"/>
    <path class="st35" d="M67.19,48h0M67.78,46.58h0M67.19,45.16h0s0,0,0,0h0"/>
    <path class="st51" d="M66.71,47.52h0s0,0,0,0M64.82,45.63h0M64.82,45.63c.25-.25.59-.39.94-.39s.69.14.95.39c.25.25.39.59.39.94,0,.35-.14.7-.39.94h0c-.25.25-.59.39-.94.39-.35,0-.69-.14-.94-.39h0c-.25-.25-.39-.59-.39-.95,0-.35.14-.69.39-.94M65.77,44.91c-.44,0-.87.18-1.18.49-.31.31-.49.74-.49,1.18s.18.87.49,1.18c.1.1.22.19.34.26l.14.07c.22.1.45.15.7.15.44,0,.87-.18,1.18-.49.31-.31.49-.74.49-1.18s-.18-.87-.49-1.18c-.31-.31-.74-.49-1.18-.49"/>
    <path class="st17" d="M85.15,81.91c0-.44-.18-.87-.49-1.18-.31-.31-.74-.49-1.18-.49s-.87.18-1.18.49c-.31.31-.49.74-.49,1.18s.18.87.49,1.18c.31.31.74.49,1.18.49s.87-.18,1.18-.49c.31-.31.49-.74.49-1.18"/>
    <path class="st35" d="M85.48,81.91h0M83.48,83.58c-.44,0-.87-.18-1.18-.49-.31-.31-.49-.74-.49-1.18s.18-.87.49-1.18c.31-.31.74-.49,1.18-.49s.87.18,1.18.49c.31.31.49.74.49,1.18s-.18.87-.49,1.18c-.31.31-.74.49-1.18.49M83.48,79.9c-.53,0-1.04.21-1.42.58h0s0,0,0,0c-.37.38-.58.89-.58,1.42s.21,1.04.58,1.42h0s0,0,0,0c.38.38.89.59,1.42.59h0c.53,0,1.04-.21,1.42-.59h0c.38-.38.59-.89.59-1.42,0-.53-.21-1.04-.59-1.42h0s0,0,0,0c-.38-.37-.89-.59-1.42-.59"/>
    <path class="st52" d="M84.42,82.85h0M82.53,80.96h0M82.53,80.97c.25-.25.59-.39.94-.39s.69.14.95.39c.25.25.39.59.39.94,0,.35-.14.69-.39.94-.25.25-.59.39-.94.39-.35,0-.69-.14-.94-.39h0c-.25-.25-.39-.59-.39-.94,0-.35.14-.69.39-.94M83.48,80.24c-.44,0-.87.18-1.18.49-.31.31-.49.74-.49,1.18s.18.87.49,1.18c.31.31.74.49,1.18.49s.87-.18,1.18-.49c.31-.31.49-.74.49-1.18s-.18-.87-.49-1.18c-.31-.31-.74-.49-1.18-.49"/>
    <path class="st19" d="M98.14,97.08c0-.44-.18-.87-.49-1.18-.31-.31-.74-.49-1.18-.49s-.87.18-1.18.49c-.31.31-.49.74-.49,1.18s.18.87.49,1.18c.31.31.74.49,1.18.49s.87-.18,1.18-.49.49-.74.49-1.18"/>
    <path class="st35" d="M96.47,95.07c-.53,0-1.04.21-1.42.59h0c-.37.38-.58.89-.58,1.42,0,.53.21,1.04.58,1.42h0s0,0,0,0c.38.37.89.58,1.42.58.53,0,1.04-.21,1.42-.59.38-.38.59-.89.59-1.42,0-.46-.16-.91-.45-1.27l-.16.22-.4-.29.18.16c.31.31.49.74.49,1.18s-.18.87-.49,1.18-.74.49-1.18.49-.87-.18-1.18-.49c-.31-.31-.49-.74-.49-1.18s.18-.87.49-1.18c.31-.31.74-.49,1.18-.49.35,0,.69.11.98.31l-.39-.29.16-.22c-.24-.09-.49-.14-.75-.14"/>
    <path class="st39" d="M97.21,95.21l-.16.22.39.29.03.02.4.29.16-.22-.14-.15c-.19-.19-.42-.34-.67-.44"/>
    <path class="st32" d="M95.52,96.13c.25-.25.59-.39.94-.39h0c.35,0,.7.14.94.39h0s0,0,0,0c.25.25.39.59.39.94,0,.35-.14.69-.39.94-.25.25-.59.39-.94.39-.35,0-.69-.14-.95-.39h0c-.25-.25-.39-.59-.39-.94,0-.35.14-.7.39-.95h0M96.47,95.41c-.44,0-.87.18-1.18.49-.31.31-.49.74-.49,1.18s.18.87.49,1.18c.31.31.74.49,1.18.49s.87-.18,1.18-.49.49-.74.49-1.18-.18-.87-.49-1.18l-.18-.16-.03-.02c-.28-.2-.62-.31-.98-.31"/>
    <path class="st26" d="M130.29,62.19c0-.44-.18-.87-.49-1.18-.31-.31-.74-.49-1.18-.49s-.87.18-1.18.49c-.31.31-.49.74-.49,1.18s.18.87.49,1.18c.31.31.74.49,1.18.49s.87-.18,1.18-.49c.31-.31.49-.74.49-1.18"/>
    <path class="st35" d="M130.63,62.19h0M130.04,63.61h0M127.2,60.77h0M128.62,63.86c-.44,0-.87-.18-1.18-.49-.31-.31-.49-.74-.49-1.18s.18-.87.49-1.18c.31-.31.74-.49,1.18-.49s.87.18,1.18.49c.31.31.49.74.49,1.18s-.18.87-.49,1.18c-.31.31-.74.49-1.18.49M128.62,60.18h0c-.53,0-1.04.21-1.42.59-.38.38-.59.89-.59,1.42,0,.53.21,1.04.59,1.42.38.38.88.59,1.42.59.53,0,1.04-.21,1.42-.59.38-.38.59-.89.59-1.42,0-.53-.21-1.04-.59-1.42-.37-.38-.89-.59-1.42-.59"/>
    <path class="st37" d="M128.62,63.52c-.35,0-.69-.14-.94-.39h0s0,0,0,0c-.25-.25-.39-.59-.39-.94,0-.35.14-.69.39-.94h0s0,0,0,0c.25-.25.59-.39.94-.39.36,0,.7.14.94.39h0s0,0,0,0c.25.25.39.59.39.94,0,.35-.14.7-.39.94h0s0,0,0,0c-.25.25-.59.39-.94.39M128.62,60.52c-.44,0-.87.18-1.18.49-.31.31-.49.74-.49,1.18s.18.87.49,1.18c.31.31.74.49,1.18.49s.87-.18,1.18-.49c.31-.31.49-.74.49-1.18s-.18-.87-.49-1.18c-.31-.31-.74-.49-1.18-.49"/>
    <path class="st23" d="M77.8,28.55c0-.44-.18-.87-.49-1.18-.31-.31-.74-.49-1.18-.49s-.87.18-1.18.49c-.31.31-.49.74-.49,1.18s.18.87.49,1.18c.31.31.74.49,1.18.49s.87-.18,1.18-.49c.31-.31.49-.74.49-1.18"/>
    <path class="st35" d="M76.13,30.22c-.44,0-.87-.18-1.18-.49-.31-.31-.49-.74-.49-1.18s.18-.87.49-1.18c.31-.31.74-.49,1.18-.49s.87.18,1.18.49c.31.31.49.74.49,1.18s-.18.87-.49,1.18c-.31.31-.74.49-1.18.49M76.13,26.54h0c-.53,0-1.04.21-1.42.59h0c-.38.37-.59.89-.59,1.42,0,.53.21,1.04.59,1.42.38.38.89.59,1.42.59h0c.44,0,.87-.15,1.22-.42l-.21-.17.62-.79.21.17c.11-.25.17-.52.17-.79,0-.53-.21-1.04-.59-1.42-.38-.38-.89-.59-1.42-.59"/>
    <path class="st39" d="M77.76,29.18l-.62.79.21.17.2-.17h0c.18-.18.32-.39.42-.62l-.21-.17"/>
    <path class="st35" d="M78.14,28.55h0M74.71,27.13h0M77.55,27.13h0s0,0,0,0h0"/>
    <path class="st27" d="M76.13,29.88c-.35,0-.69-.14-.94-.39-.25-.25-.39-.59-.39-.94,0-.35.14-.7.39-.94h0c.25-.25.59-.39.94-.39.35,0,.69.14.94.39h0c.25.25.39.59.39.94,0,.35-.14.69-.39.94h0c-.25.25-.59.39-.94.39M76.13,26.88c-.44,0-.87.18-1.18.49-.31.31-.49.74-.49,1.18s.18.87.49,1.18c.31.31.74.49,1.18.49s.87-.18,1.18-.49c.31-.31.49-.74.49-1.18s-.18-.87-.49-1.18c-.31-.31-.74-.49-1.18-.49"/>
    <path class="st18" d="M65.7,24.87c0-.44-.18-.87-.49-1.18-.31-.31-.74-.49-1.18-.49s-.87.17-1.18.49c-.31.31-.49.74-.49,1.18s.18.87.49,1.18c.31.31.74.49,1.18.49s.87-.18,1.18-.49c.31-.31.49-.74.49-1.18"/>
    <path class="st35" d="M66.04,24.87h0M64.03,26.54c-.44,0-.87-.18-1.18-.49-.31-.31-.49-.74-.49-1.18s.18-.87.49-1.18c.31-.31.74-.49,1.18-.49s.87.17,1.18.49c.31.31.49.74.49,1.18s-.18.87-.49,1.18c-.31.31-.74.49-1.18.49M64.03,22.87c-.53,0-1.04.21-1.42.59-.38.38-.59.89-.59,1.42,0,.53.21,1.04.59,1.42h0c.38.38.89.59,1.42.59h0c.53,0,1.04-.21,1.42-.59h0c.38-.37.59-.88.59-1.42,0-.53-.21-1.04-.59-1.42h0c-.38-.38-.89-.59-1.42-.59"/>
    <path class="st40" d="M64.98,25.81h0s0,0,0,0M63.09,25.81c-.25-.25-.39-.59-.39-.94,0-.35.14-.7.39-.94.25-.25.59-.39.94-.39.35,0,.69.14.94.39h0c.25.25.39.59.39.95,0,.35-.14.69-.39.94h0c-.25.25-.59.39-.94.39-.35,0-.69-.14-.95-.39h0M64.03,23.2c-.44,0-.87.17-1.18.49-.31.31-.49.74-.49,1.18s.18.87.49,1.18c.31.31.74.49,1.18.49s.87-.18,1.18-.49c.31-.31.49-.74.49-1.18s-.18-.87-.49-1.18c-.31-.31-.74-.49-1.18-.49"/>
    <path class="st20" d="M93.28,75.04c0-.44-.18-.87-.49-1.18-.31-.31-.74-.49-1.18-.49s-.87.18-1.18.49c-.31.31-.49.74-.49,1.18s.18.87.49,1.18c.31.31.74.49,1.18.49s.87-.17,1.18-.49c.31-.31.49-.74.49-1.18"/>
    <path class="st35" d="M92.26,73.14l-.04.34c.21.08.41.21.57.37.31.31.49.74.49,1.18s-.18.87-.49,1.18c-.26.26-.6.42-.96.47l-.04.34c.46-.04.9-.24,1.23-.58h0c.38-.38.59-.89.59-1.42,0-.53-.21-1.04-.59-1.42-.22-.22-.48-.38-.77-.48M90.19,73.62h0M91.26,73.06c-.4.07-.77.26-1.07.56-.38.38-.59.89-.59,1.42,0,.53.21,1.04.59,1.42.18.18.38.32.61.42l.04-.35c-.15-.08-.29-.18-.41-.3-.31-.31-.49-.74-.49-1.18s.18-.87.49-1.18c.22-.22.49-.37.79-.44l.04-.35"/>
    <path class="st39" d="M90.84,76.52l-.04.35c.25.11.53.17.81.17h.18s.04-.35.04-.35l-.23.02c-.27,0-.53-.06-.77-.19M91.61,73.03c-.12,0-.24.01-.35.03l-.04.35c.13-.03.26-.05.39-.05.21,0,.42.04.61.12l.04-.34c-.21-.07-.43-.11-.65-.11"/>
    <polyline class="st35" points="93.03 73.62 93.03 73.62 93.03 73.62 93.03 73.62"/>
    <path class="st31" d="M91.61,76.37c-.35,0-.69-.14-.94-.39-.25-.25-.39-.59-.39-.94,0-.35.14-.7.39-.94h0s0,0,0,0c.25-.25.59-.39.94-.39h0c.35,0,.7.14.94.39h0s0,0,0,0c.25.25.39.59.39.94,0,.35-.14.69-.39.94h0c-.25.25-.59.39-.94.39h0M91.61,73.36c-.13,0-.27.02-.39.05-.3.07-.57.22-.79.44-.31.31-.49.74-.49,1.18s.18.87.49,1.18c.12.12.26.22.41.3.23.12.5.19.77.19l.23-.02c.36-.05.7-.21.96-.47.31-.31.49-.74.49-1.18s-.18-.87-.49-1.18c-.16-.16-.36-.29-.57-.37-.19-.08-.4-.12-.61-.12"/>
    <path class="st8" d="M58.2,90.16c0-.44-.18-.87-.49-1.18-.31-.31-.74-.49-1.18-.49s-.87.18-1.18.49c-.31.31-.49.74-.49,1.18s.18.87.49,1.18c.31.31.74.49,1.18.49s.87-.18,1.18-.49c.31-.31.49-.74.49-1.18"/>
    <path class="st35" d="M54.53,90.06v.1c0,.53.21,1.04.58,1.42h0s0,0,0,0c.38.37.89.59,1.42.59.53,0,1.04-.21,1.42-.59h0s0,0,0,0c.22-.22.38-.48.47-.77l-.33-.06c-.08.22-.21.42-.38.59-.31.31-.74.49-1.18.49s-.87-.18-1.18-.49c-.31-.31-.49-.74-.49-1.18v-.03s-.33-.06-.33-.06M58.05,89.47l.09.26.36.07-.04-.16-.41-.17M55.49,88.44c-.14.08-.27.18-.38.3h0s0,0,0,0l-.09.1.24.12-.1.2h.02s.16-.18.16-.18c.16-.16.35-.28.56-.37l-.42-.17"/>
    <path class="st39" d="M55.02,88.84c-.07.08-.13.17-.19.26l.33.06.1-.2-.24-.12"/>
    <path class="st39" d="M56.53,88.15c-.37,0-.73.1-1.04.29l.42.17c.2-.08.41-.12.62-.12.44,0,.87.18,1.18.49.14.14.26.31.34.49l.41.17c-.09-.34-.27-.65-.52-.9h0s0,0,0,0c-.38-.37-.89-.58-1.42-.58"/>
    <path class="st39" d="M58.15,89.73c.04.14.06.28.06.43,0,.2-.04.4-.11.59l.33.06c.07-.21.11-.43.11-.65,0-.12-.01-.24-.03-.36l-.36-.07M55.02,89.45l-.2.41-.24-.12c-.02.11-.04.21-.04.32l.33.06c0-.24.06-.46.16-.67M55.16,89.16l-.1.21.13-.2h-.02"/>
    <path class="st44" d="M54.83,89.1c-.12.2-.21.42-.26.64l.24.12.2-.41.04-.08.1-.21-.33-.06"/>
    <path class="st58" d="M57.48,91.1h0M55.59,89.21h0M55.59,89.21c.25-.25.59-.39.95-.39s.69.14.94.39c.25.25.39.59.39.94,0,.35-.14.69-.39.94-.25.25-.59.39-.94.39s-.69-.14-.95-.39h0c-.25-.25-.39-.59-.39-.94,0-.35.14-.69.39-.94M56.53,88.49c-.21,0-.43.04-.62.12-.21.08-.4.21-.56.37l-.16.19-.13.2-.04.08c-.1.21-.15.44-.16.67v.03c0,.44.18.87.49,1.18.31.31.74.49,1.18.49s.87-.18,1.18-.49c.17-.17.3-.37.38-.59.07-.19.11-.39.11-.59,0-.14-.02-.29-.06-.43l-.09-.26c-.08-.18-.2-.35-.34-.49-.31-.31-.74-.49-1.18-.49"/>
    <path class="st11" d="M71.2,81.72c0-.45-.18-.87-.49-1.18-.31-.31-.74-.49-1.18-.49s-.87.18-1.18.49c-.31.31-.49.74-.49,1.18s.18.87.49,1.18c.31.31.74.49,1.18.49s.87-.18,1.18-.49c.31-.31.49-.74.49-1.18"/>
    <path class="st35" d="M70.95,83.13h0M68.12,80.3h0M69.53,79.71l.07.26-.97.25-.07-.26c-.16.09-.31.2-.44.34-.38.38-.59.89-.59,1.42,0,.53.21,1.04.59,1.42h0s.05.04.05.04l.13-.24.88.48-.13.24c.16.04.32.06.49.06.53,0,1.04-.21,1.42-.59.38-.38.59-.88.59-1.42,0-.19-.03-.37-.08-.55l-.23.14-.24-.41c.14.25.22.53.22.82,0,.44-.18.87-.49,1.18-.31.31-.74.49-1.18.49s-.87-.18-1.18-.49c-.31-.31-.49-.74-.49-1.18s.18-.87.49-1.18c.31-.31.74-.49,1.18-.49s.87.18,1.18.49c.1.1.18.2.25.32l-.24-.42.23-.14h0c-.37-.38-.88-.59-1.42-.59"/>
    <path class="st39" d="M68.29,82.94l-.13.24c.25.24.55.4.88.48l.13-.24-.88-.48"/>
    <path class="st39" d="M69.53,79.71h0c-.34,0-.68.09-.97.25l.07.26.97-.25-.07-.26h0"/>
    <path class="st39" d="M70.95,80.3l-.23.14.24.42.02.04.24.41.23-.14c-.09-.33-.27-.63-.51-.87"/>
    <path class="st51" d="M69.53,83.05c-.35,0-.69-.14-.94-.39h0s0,0,0,0c-.25-.25-.39-.59-.39-.94,0-.36.14-.7.39-.94h0s0,0,0,0c.25-.25.59-.39.94-.39s.7.14.94.39h0s0,0,0,0c.25.25.39.59.39.94,0,.35-.14.69-.39.94h0s0,0,0,0c-.25.25-.59.39-.94.39M69.53,80.05c-.44,0-.87.18-1.18.49-.31.31-.49.74-.49,1.18s.18.87.49,1.18c.31.31.74.49,1.18.49s.87-.18,1.18-.49c.31-.31.49-.74.49-1.18,0-.29-.08-.58-.22-.82l-.02-.04c-.07-.12-.15-.22-.25-.32-.31-.31-.74-.49-1.18-.49"/>
    <path class="st11" d="M36.33,79.51c0-.44-.18-.87-.49-1.18-.31-.31-.74-.49-1.18-.49s-.87.18-1.18.49c-.31.31-.49.74-.49,1.18s.18.87.49,1.18c.31.31.74.49,1.18.49s.87-.18,1.18-.49c.31-.31.49-.74.49-1.18"/>
    <path class="st35" d="M32.77,78.82c-.08.22-.12.45-.12.69,0,.53.21,1.04.58,1.42h0s0,0,0,0c.38.38.89.59,1.42.59h0c.53,0,1.04-.21,1.42-.59h0s0,0,0,0l.19-.23-.25-.1.05-.13-.04-.02-.2.24c-.31.31-.74.49-1.18.49s-.87-.18-1.18-.49c-.31-.31-.49-.74-.49-1.18,0-.19.03-.37.09-.54l-.3-.15M34.65,77.51c-.48,0-.94.17-1.3.48l.33.17c.28-.2.62-.31.97-.31.44,0,.87.18,1.18.49.3.31.48.72.49,1.14l.33.17v-.13c0-.53-.21-1.04-.58-1.42h0s0,0,0,0c-.38-.37-.89-.58-1.42-.58"/>
    <path class="st39" d="M36.33,79.48v.04c0,.34-.1.67-.29.94l.04.02.32-.8.25.1v-.13s-.32-.17-.32-.17M33.35,77.99l-.12.11h0s0,0,0,0c-.21.21-.36.46-.46.73l.3.15c.08-.24.22-.46.4-.64l.21-.18-.33-.17"/>
    <polyline class="st39" points="36.07 80.47 36.02 80.6 36.27 80.71 36.34 80.61 36.07 80.47"/>
    <path class="st44" d="M36.39,79.67l-.32.8.27.13c.16-.25.27-.54.31-.83l-.25-.1"/>
    <path class="st51" d="M35.6,80.46h0M33.71,78.57h0M33.71,78.57c.25-.25.59-.39.94-.39.35,0,.69.14.94.39.25.25.39.59.39.95,0,.35-.14.69-.39.95-.25.25-.59.39-.94.39-.35,0-.69-.14-.94-.39-.25-.25-.39-.59-.39-.95s.14-.69.39-.94M34.65,77.85c-.35,0-.69.11-.97.31l-.21.18c-.18.18-.32.4-.4.64-.06.17-.09.35-.09.54,0,.44.18.87.49,1.18.31.31.74.49,1.18.49s.87-.18,1.18-.49l.2-.24c.19-.28.29-.6.29-.94v-.04c-.01-.43-.19-.84-.49-1.14-.31-.31-.74-.49-1.18-.49"/>
    <path class="st11" d="M43.57,87.13c0-.44-.18-.87-.49-1.18-.31-.31-.74-.49-1.18-.49s-.87.18-1.18.49c-.31.31-.49.74-.49,1.18s.18.87.49,1.18c.31.31.74.49,1.18.49s.87-.18,1.18-.49c.31-.31.49-.74.49-1.18"/>
    <path class="st35" d="M43.32,88.54h0M43.45,86.5c.08.2.12.41.12.62,0,.45-.18.87-.49,1.18-.31.31-.74.49-1.18.49-.29,0-.57-.08-.82-.22l-.22.26c.31.19.67.29,1.04.29.53,0,1.04-.21,1.42-.59.16-.16.3-.35.39-.56l-.27-.05.19-.99.27.05-.02-.21-.25.11-.18-.4M43.22,86l-.05.05c.09.1.16.22.22.34l-.18-.39M43.39,85.79l-.15.18.22-.1-.07-.08M41.9,85.12c-.53,0-1.04.21-1.42.59h0c-.38.37-.59.88-.59,1.42,0,.35.09.69.26.99l.23-.28c-.1-.22-.16-.46-.16-.71,0-.44.18-.87.49-1.18.31-.31.74-.49,1.18-.49.14,0,.28.02.42.05l.23-.28c-.21-.07-.43-.11-.65-.11"/>
    <path class="st39" d="M43.46,85.87l-.22.1-.02.03.18.39.05.11.18.4.25-.11c-.06-.34-.2-.65-.41-.92"/>
    <path class="st39" d="M43.64,86.95l-.19.99.27.05c.13-.27.19-.56.19-.86v-.13s-.27-.05-.27-.05"/>
    <path class="st39" d="M40.39,87.84l-.23.28c.09.15.2.3.33.43h0c.12.11.24.22.38.3l.22-.26c-.13-.07-.25-.17-.36-.28-.14-.14-.25-.3-.33-.47M42.55,85.23l-.23.28c.28.07.55.22.76.44l.1.11.05-.05h0s.03-.03.03-.03l.15-.18-.08-.08c-.22-.22-.48-.38-.76-.48"/>
    <polyline class="st44" points="43.24 85.97 43.22 85.99 43.22 86 43.24 85.97"/>
    <path class="st51" d="M41.9,88.46c-.35,0-.7-.14-.94-.39h0s0,0,0,0c-.25-.25-.39-.59-.39-.94,0-.35.14-.69.39-.94h0s0,0,0,0c.25-.25.59-.39.94-.39.35,0,.69.14.94.39h0s0,0,0,0c.25.25.39.59.39.94,0,.36-.14.69-.39.94h0s0,0,0,0c-.25.25-.59.39-.94.39M41.9,85.46c-.44,0-.87.18-1.18.49-.31.31-.49.74-.49,1.18,0,.25.06.49.16.71.08.17.19.33.33.47.11.11.23.2.36.28.25.14.53.22.82.22.44,0,.87-.18,1.18-.49.31-.31.49-.74.49-1.18,0-.22-.04-.43-.12-.62l-.05-.11c-.06-.12-.13-.23-.22-.34l-.1-.11c-.21-.21-.47-.36-.76-.44-.14-.04-.28-.05-.42-.05"/>
    <path class="st5" d="M49.56,34.22c0-.45-.17-.87-.49-1.18-.31-.31-.74-.49-1.18-.49s-.87.18-1.18.49c-.31.31-.49.74-.49,1.18s.18.87.49,1.18c.31.31.74.49,1.18.49s.87-.18,1.18-.49c.31-.31.49-.74.49-1.18"/>
    <path class="st35" d="M49.89,34.22h0M46.47,32.8h0M47.89,35.89c-.44,0-.87-.18-1.18-.49-.31-.31-.49-.74-.49-1.18s.18-.87.49-1.18c.31-.31.74-.49,1.18-.49s.87.18,1.18.49c.31.31.49.74.49,1.18s-.17.87-.49,1.18c-.31.31-.74.49-1.18.49M47.89,32.21h0c-.53,0-1.04.21-1.42.59-.38.37-.59.89-.59,1.42,0,.53.21,1.04.59,1.42h0c.38.38.89.59,1.42.59.53,0,1.04-.21,1.42-.59h0c.38-.37.59-.88.59-1.42,0-.53-.21-1.04-.59-1.42-.38-.38-.89-.59-1.42-.59"/>
    <path class="st59" d="M47.89,35.55c-.35,0-.7-.14-.94-.39h0s0,0,0,0c-.25-.25-.39-.59-.39-.94s.14-.7.39-.94h0s0,0,0,0c.25-.25.59-.39.94-.39.35,0,.69.14.94.39.25.25.39.59.39.94s-.14.69-.39.94h0c-.25.25-.59.39-.94.39h0M47.89,32.54c-.44,0-.87.18-1.18.49-.31.31-.49.74-.49,1.18s.18.87.49,1.18c.31.31.74.49,1.18.49s.87-.18,1.18-.49c.31-.31.49-.74.49-1.18s-.17-.87-.49-1.18c-.31-.31-.74-.49-1.18-.49"/>
    <path class="st9" d="M102.23,90.38c0-.44-.18-.87-.49-1.18-.31-.31-.74-.49-1.18-.49s-.87.18-1.18.49c-.31.31-.49.74-.49,1.18s.18.87.49,1.18c.31.31.74.49,1.18.49s.87-.18,1.18-.49c.31-.31.49-.74.49-1.18"/>
    <path class="st35" d="M102.46,89.77l-.26.35.02.26c0,.44-.18.87-.49,1.18-.26.25-.59.42-.94.47l-.26.35h.02c.53,0,1.04-.21,1.42-.59h0s0,0,0,0c.37-.38.58-.89.58-1.42,0-.21-.03-.42-.1-.61M100.56,88.38c-.53,0-1.04.21-1.42.58h0s0,0,0,0c-.38.38-.59.89-.59,1.42,0,.53.21,1.04.59,1.42h0c.11.11.24.21.37.29l.2-.27c-.12-.07-.23-.16-.33-.26-.31-.31-.49-.74-.49-1.18s.18-.87.49-1.18c.31-.31.74-.49,1.18-.49.41,0,.81.15,1.12.43l.2-.27c-.36-.32-.83-.49-1.32-.49"/>
    <path class="st39" d="M99.71,91.82l-.2.27c.31.19.66.29,1.03.3l.26-.35-.24.02c-.3,0-.59-.08-.85-.23M101.88,88.87l-.2.27.06.06c.25.25.41.57.47.92l.26-.35c-.1-.3-.26-.58-.49-.8h0s0,0,0,0l-.1-.09"/>
    <path class="st33" d="M99.61,89.44h0M99.61,89.44c.25-.25.59-.39.95-.39s.69.14.94.39c.25.25.39.59.39.94s-.14.69-.39.95h0c-.25.25-.59.39-.95.39h0c-.35,0-.69-.14-.95-.39h0c-.25-.25-.39-.59-.39-.94s.14-.69.39-.94M100.56,88.71c-.44,0-.87.18-1.18.49-.31.31-.49.74-.49,1.18s.18.87.49,1.18c.1.1.21.19.33.26.26.15.55.23.85.23l.24-.02c.35-.05.68-.22.94-.47.31-.31.49-.74.49-1.18l-.02-.26c-.05-.35-.22-.67-.47-.92l-.06-.06c-.31-.27-.71-.43-1.12-.43"/>
    <path class="st22" d="M74.95,63.28c0-.44-.18-.87-.49-1.18-.31-.31-.74-.49-1.18-.49s-.87.18-1.18.49c-.31.31-.49.74-.49,1.18s.18.87.49,1.18c.31.31.74.49,1.18.49s.87-.18,1.18-.49c.31-.31.49-.74.49-1.18"/>
    <path class="st35" d="M73.21,61.28c-.39.01-.76.14-1.08.36l.21.18-.3.35.06-.07c.31-.31.74-.49,1.18-.49s.87.18,1.18.49c.31.31.49.74.49,1.18s-.18.87-.49,1.18c-.31.31-.74.49-1.18.49s-.87-.18-1.18-.49c-.31-.31-.49-.74-.49-1.18,0-.38.13-.75.37-1.05l-.3.35-.21-.18c-.13.27-.2.57-.2.88,0,.53.21,1.04.59,1.42h0c.38.37.89.59,1.42.59.53,0,1.04-.21,1.42-.59h0s0,0,0,0c.37-.38.59-.89.59-1.42s-.21-1.04-.58-1.42h0s0,0,0,0c-.15-.15-.32-.27-.51-.37l-.06.26-.98-.22.06-.26"/>
    <path class="st39" d="M73.28,61.27h-.07s-.06.27-.06.27l.98.22.06-.26c-.28-.14-.59-.22-.91-.22"/>
    <path class="st39" d="M72.13,61.64c-.09.07-.18.14-.27.22h0s0,0,0,0c-.16.16-.29.34-.39.54l.21.18.3-.35.05-.06.3-.35-.21-.18"/>
    <path class="st42" d="M74.23,64.22h0M72.34,62.34h0M72.34,62.34c.25-.25.59-.39.95-.39h0c.35,0,.69.14.94.39.25.25.39.59.39.94,0,.35-.14.69-.39.94-.25.25-.59.39-.94.39s-.69-.14-.95-.39h0c-.25-.25-.39-.59-.39-.94,0-.35.14-.69.39-.94M73.28,61.61c-.44,0-.87.18-1.18.49l-.06.07-.05.06c-.24.3-.37.67-.37,1.05,0,.44.18.87.49,1.18.31.31.74.49,1.18.49s.87-.18,1.18-.49c.31-.31.49-.74.49-1.18s-.18-.87-.49-1.18c-.31-.31-.74-.49-1.18-.49"/>
    <path class="st14" d="M119.21,64.74c0-.44-.18-.87-.49-1.18-.31-.31-.74-.49-1.18-.49s-.87.18-1.18.49c-.31.31-.49.74-.49,1.18s.18.87.49,1.18c.31.31.74.49,1.18.49s.87-.18,1.18-.49c.31-.31.49-.74.49-1.18"/>
    <path class="st35" d="M119.55,64.74h0M117.54,66.41c-.44,0-.87-.18-1.18-.49-.31-.31-.49-.74-.49-1.18s.18-.87.49-1.18c.31-.31.74-.49,1.18-.49s.87.18,1.18.49c.31.31.49.74.49,1.18s-.18.87-.49,1.18c-.31.31-.74.49-1.18.49M117.54,62.73c-.53,0-1.04.21-1.42.59h0s0,0,0,0c-.37.38-.59.88-.59,1.42,0,.53.21,1.04.59,1.42h0s0,0,0,0c.38.37.88.59,1.42.59.53,0,1.04-.21,1.42-.59h0s0,0,0,0c.37-.38.59-.88.59-1.42s-.21-1.04-.59-1.42h0s0,0,0,0c-.38-.37-.88-.59-1.42-.59"/>
    <path class="st53" d="M118.48,65.68h0M116.59,63.79c.25-.25.59-.39.94-.39h0c.35,0,.69.14.94.39.25.25.39.59.39.94,0,.35-.14.69-.39.94-.25.25-.59.39-.94.39h0c-.35,0-.69-.14-.94-.39h0c-.25-.25-.39-.59-.39-.94,0-.35.14-.69.39-.95h0M117.54,63.06c-.44,0-.87.18-1.18.49-.31.31-.49.74-.49,1.18s.18.87.49,1.18c.31.31.74.49,1.18.49s.87-.18,1.18-.49c.31-.31.49-.74.49-1.18s-.18-.87-.49-1.18c-.31-.31-.74-.49-1.18-.49"/>
    <path class="st11" d="M65.9,91.41c0-.45-.18-.87-.49-1.18s-.74-.49-1.18-.49-.87.18-1.18.49c-.31.31-.49.74-.49,1.18s.18.87.49,1.18c.31.31.74.49,1.18.49s.87-.17,1.18-.49c.31-.31.49-.74.49-1.18"/>
    <path class="st35" d="M62.58,91.16l-.08.43-.27-.05c.03.49.24.95.58,1.29.38.38.89.59,1.42.59h0c.53,0,1.04-.21,1.42-.59h0c.3-.3.5-.69.56-1.11l-.27.03-.04-.41v.07c0,.44-.18.87-.49,1.18-.31.31-.74.49-1.18.49s-.87-.17-1.18-.49c-.31-.31-.49-.74-.49-1.18l.02-.25M62.65,90.87l-.03.07-.02.09.05-.17M64.23,89.41c-.53,0-1.04.21-1.42.59h0s-.2.23-.2.23l.25.1-.16.39c.08-.18.19-.34.33-.48.31-.31.74-.49,1.18-.49s.87.18,1.18.49c.25.25.42.58.47.93l-.04-.41.27-.03c-.1-.27-.26-.52-.47-.73l-.05-.04-.13.24-.88-.48.13-.24c-.16-.04-.32-.06-.49-.06"/>
    <path class="st39" d="M64.72,89.47l-.13.24.88.48.13-.24c-.25-.24-.55-.4-.88-.48"/>
    <path class="st39" d="M62.61,90.22c-.08.1-.14.21-.2.33l.27.05-.07.34.03-.07.07-.16.16-.39-.25-.1"/>
    <polyline class="st39" points="62.62 90.95 62.49 91.26 62.24 91.15 62.22 91.41 62.22 91.54 62.49 91.59 62.58 91.16 62.6 91.04 62.62 90.95"/>
    <path class="st44" d="M62.42,90.55c-.09.19-.15.39-.18.6l.25.1.12-.31.07-.34-.27-.05"/>
    <path class="st39" d="M66.24,91.41h0M66.11,90.72l-.27.03.04.41.02.18.04.41.27-.03c.02-.1.02-.2.02-.31,0-.24-.04-.47-.12-.69"/>
    <path class="st51" d="M63.28,90.47h0M63.28,90.47c.25-.25.59-.39.95-.39.35,0,.69.14.94.39.25.25.39.59.39.94,0,.35-.14.69-.39.94h0s0,0,0,0c-.25.25-.59.39-.94.39-.35,0-.69-.14-.94-.39-.25-.25-.39-.59-.39-.94,0-.36.14-.7.39-.94M64.23,89.74c-.44,0-.87.18-1.18.49-.14.14-.25.3-.33.48l-.07.16-.05.17-.02.12-.02.25c0,.44.18.87.49,1.18.31.31.74.49,1.18.49s.87-.17,1.18-.49c.31-.31.49-.74.49-1.18v-.07s-.02-.18-.02-.18c-.05-.35-.22-.67-.47-.93-.31-.31-.74-.49-1.18-.49"/>
    <path class="st24" d="M59.39,67.74c0-.44-.18-.87-.49-1.18-.31-.31-.74-.49-1.18-.49s-.87.18-1.18.49c-.31.31-.49.74-.49,1.18s.18.87.49,1.18c.31.31.74.49,1.18.49s.87-.18,1.18-.49c.31-.31.49-.74.49-1.18"/>
    <path class="st35" d="M59.13,69.16h0M57.71,65.74c-.09,0-.18,0-.27.02l.1.25-.42.17c.19-.07.39-.11.59-.11.45,0,.87.18,1.18.49.31.31.49.74.49,1.18s-.18.87-.49,1.18c-.31.31-.74.49-1.18.49s-.87-.18-1.18-.49c-.31-.31-.49-.74-.49-1.18s.18-.87.49-1.18c.15-.15.32-.26.5-.34l-.42.17-.1-.25-.21.18c-.38.38-.59.89-.59,1.42,0,.42.13.83.38,1.17l.17-.21.77.64-.17.21c.26.12.55.19.85.19h0c.53,0,1.04-.21,1.42-.59.38-.38.59-.89.59-1.42,0-.53-.21-1.04-.59-1.42h0s0,0,0,0h0c-.37-.38-.89-.59-1.42-.59"/>
    <path class="st39" d="M57.44,65.76c-.34.05-.66.18-.93.38l.1.25.42-.17.09-.04.42-.17-.1-.25"/>
    <path class="st39" d="M56.26,68.71l-.17.21.21.25h0c.17.16.36.3.56.4l.17-.21-.77-.64"/>
    <path class="st55" d="M57.71,69.08c-.36,0-.69-.14-.94-.39h0s0,0,0,0c-.25-.25-.39-.59-.39-.94,0-.35.14-.69.39-.94.25-.25.59-.39.94-.39.36,0,.7.14.94.39h0c.25.25.39.59.39.95,0,.35-.14.7-.39.94h0s0,0,0,0c-.25.25-.59.39-.94.39M57.71,66.07c-.2,0-.4.04-.59.11l-.09.04c-.19.08-.36.2-.5.34-.31.31-.49.74-.49,1.18s.18.87.49,1.18c.31.31.74.49,1.18.49s.87-.18,1.18-.49c.31-.31.49-.74.49-1.18s-.18-.87-.49-1.18c-.31-.31-.74-.49-1.18-.49"/>
    <path class="st22" d="M55.87,47.01c0-.44-.18-.87-.49-1.18-.31-.31-.74-.49-1.18-.49s-.87.18-1.18.49c-.31.31-.49.74-.49,1.18s.18.87.49,1.18c.31.31.74.49,1.18.49s.87-.18,1.18-.49c.31-.31.49-.74.49-1.18"/>
    <path class="st35" d="M54.2,48.68c-.45,0-.87-.18-1.18-.49-.31-.31-.49-.74-.49-1.18s.18-.87.49-1.18c.31-.31.74-.49,1.18-.49s.87.18,1.18.49c.31.31.49.74.49,1.18s-.18.87-.49,1.18c-.31.31-.74.49-1.18.49M54.2,45c-.53,0-1.04.21-1.42.59h0c-.38.38-.59.89-.59,1.42s.21,1.04.59,1.42c.37.37.88.59,1.42.59.41,0,.82-.13,1.15-.36l-.21-.17.65-.77.21.18c.13-.27.2-.57.2-.88,0-.53-.21-1.04-.59-1.42-.37-.37-.88-.59-1.42-.59"/>
    <path class="st39" d="M55.8,47.71l-.65.77.21.17c.09-.07.18-.14.27-.22h0c.16-.16.29-.34.39-.54l-.21-.18"/>
    <path class="st42" d="M54.2,48.34c-.36,0-.7-.14-.94-.39-.25-.25-.39-.59-.39-.94s.14-.69.39-.94h0c.25-.25.59-.39.94-.39s.69.14.94.39c.25.25.39.59.39.94,0,.35-.14.69-.39.94h0c-.25.25-.59.39-.94.39M54.2,45.34c-.45,0-.87.18-1.18.49-.31.31-.49.74-.49,1.18s.18.87.49,1.18c.31.31.74.49,1.18.49s.87-.18,1.18-.49c.31-.31.49-.74.49-1.18s-.18-.87-.49-1.18c-.31-.31-.74-.49-1.18-.49"/>
    <path class="st21" d="M108.9,61.81c0-.44-.18-.87-.49-1.18-.31-.31-.74-.49-1.18-.49s-.87.18-1.18.49c-.31.31-.49.74-.49,1.18s.18.87.49,1.18c.31.31.74.49,1.18.49s.87-.18,1.18-.49c.31-.31.49-.74.49-1.18"/>
    <path class="st35" d="M107.23,59.81c-.16,0-.31.02-.46.05l.13.24-.39.2c.22-.11.47-.16.72-.16.44,0,.87.18,1.18.49.31.31.49.74.49,1.18s-.18.87-.49,1.18c-.31.31-.74.49-1.18.49s-.87-.18-1.18-.49c-.31-.31-.49-.74-.49-1.18s.18-.87.49-1.18c.1-.1.22-.19.35-.27l-.39.2-.13-.24-.07.07h0c-.38.38-.59.89-.59,1.42,0,.53.21,1.04.59,1.42.37.37.88.59,1.42.59.53,0,1.04-.21,1.42-.59h0c.38-.38.59-.89.59-1.42,0-.53-.21-1.04-.59-1.42h0c-.38-.37-.89-.59-1.42-.59"/>
    <path class="st39" d="M106.78,59.86c-.33.08-.64.24-.89.47l.13.24.39-.2.12-.06.39-.2-.13-.24"/>
    <path class="st0" d="M108.18,62.76h0M106.29,60.87h0M106.29,60.87c.25-.25.59-.39.94-.39h0c.35,0,.7.14.94.39h0c.25.25.39.59.39.94,0,.35-.14.69-.39.94-.25.25-.59.39-.94.39h0c-.35,0-.69-.14-.94-.39-.25-.25-.39-.59-.39-.94,0-.35.14-.69.39-.94M107.23,60.14c-.25,0-.49.06-.72.16l-.12.06c-.13.07-.24.16-.35.27-.31.31-.49.74-.49,1.18s.18.87.49,1.18c.31.31.74.49,1.18.49s.87-.18,1.18-.49c.31-.31.49-.74.49-1.18s-.18-.87-.49-1.18c-.31-.31-.74-.49-1.18-.49"/>
    <path class="st24" d="M82.19,99.21c0-.44-.18-.87-.49-1.18-.31-.31-.74-.49-1.18-.49s-.87.18-1.18.49c-.31.31-.49.74-.49,1.18s.18.87.49,1.18c.31.31.74.49,1.18.49s.87-.18,1.18-.49c.31-.31.49-.74.49-1.18"/>
    <path class="st35" d="M80.52,100.88c-.44,0-.87-.18-1.18-.49-.31-.31-.49-.74-.49-1.18s.18-.87.49-1.18c.31-.31.74-.49,1.18-.49s.87.18,1.18.49c.31.31.49.74.49,1.18s-.18.87-.49,1.18c-.31.31-.74.49-1.18.49M80.52,97.2c-.36,0-.7.09-1,.27l.19.19-.72.71-.19-.19c-.18.31-.28.66-.28,1.03,0,.53.21,1.04.59,1.42h0c.38.38.89.59,1.42.59.53,0,1.04-.21,1.42-.59h0c.38-.38.59-.89.59-1.42s-.21-1.04-.59-1.42-.89-.59-1.42-.59"/>
    <path class="st39" d="M79.1,97.79h0s0,0,0,0h0M79.51,97.47c-.15.09-.29.19-.41.32-.12.12-.22.25-.3.39l.19.19.72-.71-.19-.19"/>
    <path class="st55" d="M80.52,100.54c-.35,0-.69-.14-.94-.39h0s0,0,0,0c-.25-.25-.39-.59-.39-.94,0-.35.14-.69.39-.94h0c.25-.25.59-.39.94-.39.36,0,.7.14.94.39.25.25.39.59.39.94s-.14.69-.39.95h0s0,0,0,0c-.25.25-.59.39-.94.39M80.52,97.54c-.44,0-.87.18-1.18.49-.31.31-.49.74-.49,1.18s.18.87.49,1.18c.31.31.74.49,1.18.49s.87-.18,1.18-.49c.31-.31.49-.74.49-1.18s-.18-.87-.49-1.18c-.31-.31-.74-.49-1.18-.49"/>
    <path class="st7" d="M45.25,49.95c0-.44-.18-.87-.49-1.18-.31-.31-.74-.49-1.18-.49s-.87.18-1.18.49c-.31.31-.49.74-.49,1.18s.18.87.49,1.18c.31.31.74.49,1.18.49s.87-.18,1.18-.49c.31-.31.49-.74.49-1.18"/>
    <path class="st35" d="M45.58,49.95h0M43.57,51.62c-.44,0-.87-.18-1.18-.49-.31-.31-.49-.74-.49-1.18s.18-.87.49-1.18c.31-.31.74-.49,1.18-.49s.87.18,1.18.49c.31.31.49.74.49,1.18s-.18.87-.49,1.18c-.31.31-.74.49-1.18.49M43.57,47.95c-.53,0-1.04.21-1.42.58h0s0,0,0,0c-.37.38-.58.89-.58,1.42s.21,1.04.59,1.42h0s0,0,0,0c.38.37.88.59,1.42.59.53,0,1.04-.21,1.42-.59h0s0,0,0,0c.38-.38.59-.89.59-1.42,0-.53-.21-1.04-.59-1.42h0s0,0,0,0c-.38-.37-.89-.58-1.42-.58"/>
    <path class="st47" d="M44.52,50.89h0M42.63,49.01h0M42.63,49.01c.25-.25.59-.39.94-.39s.69.14.94.39c.25.25.39.59.39.94,0,.35-.14.69-.39.94-.25.25-.59.39-.94.39s-.69-.14-.95-.39c-.25-.25-.39-.59-.39-.94,0-.35.14-.69.39-.94M43.57,48.28c-.44,0-.87.18-1.18.49-.31.31-.49.74-.49,1.18s.18.87.49,1.18c.31.31.74.49,1.18.49s.87-.18,1.18-.49c.31-.31.49-.74.49-1.18s-.18-.87-.49-1.18c-.31-.31-.74-.49-1.18-.49"/>
    <path class="st11" d="M91.53,88.88c0-.45-.18-.87-.49-1.18-.31-.31-.74-.49-1.18-.49s-.87.18-1.18.49c-.31.31-.49.74-.49,1.18s.18.87.49,1.18c.31.31.74.49,1.18.49s.87-.18,1.18-.49c.31-.31.49-.74.49-1.18"/>
    <path class="st35" d="M90.59,87.01l-.03.27-.44-.05c.35.05.67.22.93.47.31.31.49.74.49,1.18s-.18.87-.49,1.18c-.31.31-.74.49-1.18.49s-.87-.18-1.18-.49c-.27-.27-.44-.62-.48-1l.05.48-.27.03c.1.27.26.52.47.73h0c.38.38.89.59,1.42.59.53,0,1.04-.21,1.42-.59h0c.37-.38.59-.89.59-1.42,0-.53-.21-1.04-.59-1.42-.2-.2-.43-.35-.69-.45M89.59,86.89c-.43.06-.84.26-1.15.57h0c-.3.3-.5.69-.57,1.11l.27-.03.05.48v-.14c0-.45.17-.87.48-1.18.31-.31.74-.49,1.18-.49h.15s-.45-.05-.45-.05l.03-.27"/>
    <path class="st39" d="M88.15,88.54l-.27.03c-.02.1-.02.21-.02.31,0,.24.04.47.12.69l.27-.03-.05-.48v-.04s-.05-.48-.05-.48"/>
    <path class="st39" d="M89.86,86.87h0c-.09,0-.18,0-.27.02l-.03.27.45.05h.11s.44.07.44.07l.03-.27c-.23-.09-.48-.14-.73-.14"/>
    <path class="st51" d="M90.81,89.82h0s0,0,0,0h0s0,0,0,0M89.86,90.22c-.35,0-.7-.14-.94-.39h0s0,0,0,0c-.25-.25-.39-.59-.39-.94,0-.36.14-.7.39-.94h0s0,0,0,0c.25-.25.59-.39.94-.39.35,0,.69.14.94.39.25.25.39.59.39.94,0,.35-.14.69-.39.94h0s0,0,0,0h0s0,0,0,0c-.25.25-.59.39-.94.39M89.86,87.21c-.44,0-.87.18-1.18.49-.31.31-.49.74-.49,1.18v.14s.01.04.01.04c.04.38.21.73.48,1,.31.31.74.49,1.18.49s.87-.18,1.18-.49c.31-.31.49-.74.49-1.18s-.18-.87-.49-1.18c-.25-.25-.58-.42-.93-.47h-.11s-.15-.02-.15-.02"/>
    <path class="st10" d="M30.66,39.25c0-.45-.18-.87-.49-1.18s-.74-.49-1.18-.49-.87.18-1.18.49c-.31.31-.49.74-.49,1.18s.18.87.49,1.18c.31.31.74.49,1.18.49s.87-.18,1.18-.49.49-.74.49-1.18"/>
    <path class="st35" d="M27.57,40.67h0s0,0,0,0h0M30.99,39.25h0M27.57,37.83h0s0,0,0,0h0M28.99,40.92c-.44,0-.87-.18-1.18-.49-.31-.31-.49-.74-.49-1.18s.18-.87.49-1.18c.31-.31.74-.49,1.18-.49s.87.18,1.18.49.49.74.49,1.18-.18.87-.49,1.18-.74.49-1.18.49M28.99,37.24h0c-.53,0-1.04.21-1.42.59-.37.37-.59.88-.59,1.42s.21,1.04.59,1.42c.38.38.89.59,1.42.59h0c.53,0,1.04-.21,1.42-.59.37-.37.59-.88.59-1.42,0-.54-.21-1.04-.59-1.42-.38-.38-.89-.59-1.42-.59"/>
    <path class="st34" d="M28.99,40.58c-.35,0-.69-.14-.94-.39h0c-.25-.25-.39-.59-.39-.94,0-.36.14-.7.39-.94h0c.25-.25.59-.39.94-.39.35,0,.69.14.94.39.25.25.39.59.39.94,0,.35-.14.69-.39.94-.25.25-.59.39-.94.39M28.99,37.58c-.44,0-.87.18-1.18.49-.31.31-.49.74-.49,1.18s.18.87.49,1.18c.31.31.74.49,1.18.49s.87-.18,1.18-.49.49-.74.49-1.18-.18-.87-.49-1.18-.74-.49-1.18-.49"/>
    <path class="st25" d="M137.54,80.3c0-.44-.18-.87-.49-1.18-.31-.31-.74-.49-1.18-.49s-.87.18-1.18.49c-.31.31-.49.74-.49,1.18s.18.87.49,1.18c.31.31.74.49,1.18.49s.87-.18,1.18-.49c.31-.31.49-.74.49-1.18"/>
    <path class="st35" d="M137.88,80.3h0M135.88,81.97c-.44,0-.87-.18-1.18-.49-.31-.31-.49-.74-.49-1.18s.18-.87.49-1.18c.31-.31.74-.49,1.18-.49s.87.18,1.18.49c.31.31.49.74.49,1.18s-.18.87-.49,1.18c-.31.31-.74.49-1.18.49M135.88,78.29h0c-.53,0-1.04.21-1.42.59h0c-.38.38-.59.89-.59,1.42s.21,1.04.59,1.42h0s0,0,0,0c.38.37.89.58,1.42.58s1.04-.21,1.42-.58h0s0,0,0,0c.37-.38.58-.89.58-1.42,0-.53-.21-1.04-.58-1.42h0c-.38-.38-.89-.59-1.42-.59"/>
    <path class="st56" d="M134.93,79.35h0M134.93,79.35c.25-.25.59-.39.94-.39s.69.14.94.39c.25.25.39.59.39.95s-.14.69-.39.95h0c-.25.25-.59.39-.95.39h0c-.35,0-.69-.14-.95-.39h0c-.25-.25-.39-.59-.39-.94,0-.35.14-.69.39-.94M135.88,78.63c-.44,0-.87.18-1.18.49-.31.31-.49.74-.49,1.18s.18.87.49,1.18c.31.31.74.49,1.18.49s.87-.18,1.18-.49c.31-.31.49-.74.49-1.18s-.18-.87-.49-1.18c-.31-.31-.74-.49-1.18-.49"/>
    <path class="st15" d="M57.31,74.54c0-.45-.18-.87-.49-1.18-.31-.31-.74-.49-1.18-.49s-.87.18-1.18.49c-.31.31-.49.74-.49,1.18s.18.87.49,1.18c.31.31.74.49,1.18.49s.87-.17,1.18-.49c.31-.31.49-.74.49-1.18"/>
    <path class="st35" d="M54.17,73.17c-.35.37-.54.86-.54,1.37,0,.53.21,1.04.59,1.42h0c.38.38.89.59,1.42.59.5,0,.98-.18,1.34-.52l-.24-.24c-.3.27-.7.42-1.11.42-.44,0-.87-.17-1.18-.49-.31-.31-.49-.74-.49-1.18,0-.42.16-.82.44-1.13l-.24-.24M55.64,72.53c-.2,0-.41.03-.6.09l.27.28c.11-.02.22-.03.33-.03.44,0,.87.18,1.18.49.31.31.49.74.49,1.18,0,.12-.01.24-.04.35l.27.28c.07-.2.1-.41.1-.63,0-.53-.21-1.04-.59-1.42-.38-.38-.89-.59-1.42-.59"/>
    <path class="st39" d="M57.28,74.89c-.07.31-.22.6-.45.83l-.07.07.24.24.08-.07h0c.22-.22.39-.49.49-.79l-.27-.28M54.23,73.12h0M55.04,72.62c-.31.1-.59.26-.82.5l-.05.05.24.24.05-.06c.23-.24.53-.39.85-.46l-.27-.28"/>
    <path class="st45" d="M55.64,75.87c-.35,0-.69-.14-.94-.39h0s0,0,0,0c-.25-.25-.39-.59-.39-.94,0-.36.14-.7.39-.94h0s0,0,0,0c.25-.25.59-.39.94-.39h0c.35,0,.7.14.94.39h0s0,0,0,0c.25.25.39.59.39.94,0,.35-.14.69-.39.94h0s0,0,0,0c-.25.25-.59.39-.94.39M55.64,72.87c-.11,0-.22.01-.33.03-.32.06-.62.22-.85.46l-.05.06c-.28.31-.44.71-.44,1.13,0,.44.18.87.49,1.18.31.31.74.49,1.18.49.41,0,.8-.15,1.11-.42l.07-.07c.23-.23.39-.52.45-.83.02-.11.04-.23.04-.35,0-.45-.18-.87-.49-1.18-.31-.31-.74-.49-1.18-.49"/>
    <path class="st16" d="M118.87,95.27c0-.44-.18-.87-.49-1.18-.31-.31-.74-.49-1.18-.49s-.87.18-1.18.49c-.31.31-.49.74-.49,1.18s.18.87.49,1.18c.31.31.74.49,1.18.49s.87-.18,1.18-.49c.31-.31.49-.74.49-1.18"/>
    <path class="st35" d="M119.21,95.27h0M117.21,96.94c-.44,0-.87-.18-1.18-.49-.31-.31-.49-.74-.49-1.18s.18-.87.49-1.18c.31-.31.74-.49,1.18-.49s.87.18,1.18.49c.31.31.49.74.49,1.18s-.18.87-.49,1.18c-.31.31-.74.49-1.18.49M117.21,93.26c-.53,0-1.04.21-1.42.59h0c-.38.38-.59.89-.59,1.42s.21,1.04.59,1.42h0c.38.38.89.59,1.42.59.53,0,1.04-.21,1.42-.59.38-.38.59-.89.59-1.42,0-.53-.21-1.04-.59-1.42h0c-.38-.38-.89-.59-1.42-.59"/>
    <path class="st28" d="M116.26,96.21c-.25-.25-.39-.59-.39-.94s.14-.69.39-.94h0s0,0,0,0c.25-.25.59-.39.94-.39.35,0,.69.14.94.39h0c.25.25.39.59.39.95,0,.35-.14.69-.39.94-.25.25-.59.39-.94.39h0c-.35,0-.7-.14-.94-.39M117.21,93.6c-.44,0-.87.18-1.18.49-.31.31-.49.74-.49,1.18s.18.87.49,1.18c.31.31.74.49,1.18.49s.87-.18,1.18-.49c.31-.31.49-.74.49-1.18s-.18-.87-.49-1.18c-.31-.31-.74-.49-1.18-.49"/>
    <path class="st11" d="M89.96,58.26c0-.45-.18-.87-.49-1.18-.31-.31-.74-.49-1.18-.49s-.87.18-1.18.49c-.31.31-.49.74-.49,1.18s.18.87.49,1.18c.31.31.74.49,1.18.49s.87-.18,1.18-.49c.31-.31.49-.74.49-1.18"/>
    <path class="st35" d="M88.29,59.93c-.44,0-.87-.18-1.18-.49-.31-.31-.49-.74-.49-1.18s.18-.87.49-1.18c.31-.31.74-.49,1.18-.49s.87.18,1.18.49c.31.31.49.74.49,1.18s-.18.87-.49,1.18c-.31.31-.74.49-1.18.49M88.29,56.26h0c-.53,0-1.04.21-1.42.59-.38.37-.59.88-.59,1.42,0,.53.21,1.04.59,1.42.38.38.89.59,1.42.59h0l.25-.02-.1-.25.93-.37.1.25.23-.2c.37-.37.59-.88.59-1.42,0-.54-.21-1.04-.59-1.42h0c-.38-.38-.89-.59-1.42-.59"/>
    <path class="st39" d="M89.38,59.63l-.93.37.1.25c.34-.04.66-.17.93-.37l-.1-.25"/>
    <path class="st35" d="M89.71,59.68h0s0,0,0,0M89.71,59.68h0s0,0,0,0h0M90.3,58.26h0M86.87,56.84h0s0,0,0,0h0"/>
    <path class="st51" d="M88.29,59.6c-.35,0-.69-.14-.94-.39-.25-.25-.39-.59-.39-.94s.14-.7.39-.94h0c.25-.25.59-.39.94-.39.35,0,.69.14.94.39h0s0,0,0,0c.25.25.39.59.39.94,0,.35-.14.69-.39.94h0s0,0,0,0c-.25.25-.59.39-.94.39M88.29,56.59c-.44,0-.87.18-1.18.49-.31.31-.49.74-.49,1.18s.18.87.49,1.18c.31.31.74.49,1.18.49s.87-.18,1.18-.49c.31-.31.49-.74.49-1.18s-.18-.87-.49-1.18c-.31-.31-.74-.49-1.18-.49"/>
    <path class="st4" d="M105.57,38.97c0-.44-.18-.87-.49-1.18-.31-.31-.74-.49-1.18-.49s-.87.18-1.18.49c-.31.31-.49.74-.49,1.18s.18.87.49,1.18c.31.31.74.49,1.18.49s.87-.18,1.18-.49c.31-.31.49-.74.49-1.18"/>
    <path class="st35" d="M105.91,38.97h0M103.9,40.64c-.44,0-.87-.18-1.18-.49-.31-.31-.49-.74-.49-1.18s.18-.87.49-1.18c.31-.31.74-.49,1.18-.49s.87.18,1.18.49c.31.31.49.74.49,1.18s-.18.87-.49,1.18c-.31.31-.74.49-1.18.49M103.9,36.96c-.53,0-1.04.21-1.42.59h0s0,0,0,0c-.37.38-.59.88-.59,1.42,0,.53.21,1.04.59,1.42h0s0,0,0,0c.38.37.88.59,1.42.59.53,0,1.04-.21,1.42-.59h0s0,0,0,0c.37-.38.59-.88.59-1.42,0-.53-.21-1.04-.59-1.42h0s0,0,0,0c-.38-.37-.88-.59-1.42-.59"/>
    <path class="st30" d="M104.85,39.91h0M102.96,38.02h0M102.96,38.02c.25-.25.59-.39.94-.39s.69.14.95.39h0c.25.25.39.59.39.94s-.14.69-.39.94c-.25.25-.59.39-.95.39h0c-.35,0-.69-.14-.94-.39-.25-.25-.39-.59-.39-.94,0-.35.14-.69.39-.95M103.9,37.3c-.44,0-.87.18-1.18.49-.31.31-.49.74-.49,1.18s.18.87.49,1.18c.31.31.74.49,1.18.49s.87-.18,1.18-.49c.31-.31.49-.74.49-1.18s-.18-.87-.49-1.18c-.31-.31-.74-.49-1.18-.49"/>
    <path class="st11" d="M78.31,91.21c0-.44-.18-.87-.49-1.18-.31-.31-.74-.49-1.18-.49s-.87.18-1.18.49c-.31.31-.49.74-.49,1.18s.18.87.49,1.18c.31.31.74.49,1.18.49s.87-.18,1.18-.49c.31-.31.49-.74.49-1.18"/>
    <path class="st35" d="M78.52,90.51l-.35.03c.09.21.14.44.14.67,0,.44-.18.87-.49,1.18-.31.31-.74.49-1.18.49s-.87-.18-1.18-.49c-.31-.31-.49-.74-.49-1.18,0-.12.01-.24.04-.36l-.35.03c-.02.11-.03.22-.03.33,0,.53.21,1.04.59,1.42h0c.38.38.89.59,1.42.59.53,0,1.04-.21,1.42-.59h0c.38-.37.59-.88.59-1.42,0-.24-.04-.48-.13-.71M77.28,89.31l-.02.27-.44-.03c.12.01.23.04.34.08l.62-.06c-.16-.11-.33-.2-.51-.26M75.22,89.79h0M76.28,89.24c-.4.07-.76.26-1.05.55l-.03.03.62-.06c.25-.14.54-.22.83-.22h.06s-.44-.03-.44-.03l.02-.27"/>
    <path class="st39" d="M76.64,89.21h0c-.12,0-.24.01-.36.03l-.02.27.44.03h.13s.44.04.44.04l.02-.27c-.2-.07-.42-.1-.64-.1"/>
    <path class="st39" d="M75.81,89.76l-.62.06c-.28.29-.47.67-.53,1.06l.35-.03c.07-.31.22-.59.45-.82.11-.11.22-.2.35-.27M77.79,89.57l-.62.06c.24.08.47.22.65.4.15.15.27.32.35.51l.35-.03c-.1-.26-.26-.51-.46-.71-.08-.08-.17-.16-.27-.23"/>
    <path class="st51" d="M76.64,92.55c-.35,0-.7-.14-.94-.39h0s0,0,0,0c-.25-.25-.39-.59-.39-.94,0-.35.14-.7.39-.94h0s0,0,0,0c.25-.25.59-.39.94-.39.35,0,.69.14.94.39h0s0,0,0,0c.25.25.39.59.39.94,0,.35-.14.69-.39.94h0s0,0,0,0c-.25.25-.59.39-.94.39M76.64,89.54c-.29,0-.58.08-.83.22-.13.07-.25.16-.35.27-.23.23-.38.51-.45.82-.03.12-.04.24-.04.36,0,.44.18.87.49,1.18.31.31.74.49,1.18.49s.87-.18,1.18-.49c.31-.31.49-.74.49-1.18,0-.23-.05-.46-.14-.67-.08-.19-.2-.36-.35-.51-.18-.19-.41-.32-.65-.4-.11-.04-.23-.06-.34-.08h-.13s-.06-.01-.06-.01"/>
    <path class="st12" d="M92.5,51.79c0-.44-.18-.87-.49-1.18-.31-.31-.74-.49-1.18-.49s-.87.18-1.18.49c-.31.31-.49.74-.49,1.18s.18.87.49,1.18c.31.31.74.49,1.18.49s.87-.18,1.18-.49c.31-.31.49-.74.49-1.18"/>
    <path class="st35" d="M88.92,51.17c-.06.2-.1.41-.1.62,0,.53.21,1.04.59,1.42.38.38.88.59,1.42.59.53,0,1.04-.21,1.42-.59.38-.38.59-.89.59-1.42,0-.2-.03-.41-.09-.6h-.36c.07.19.11.39.11.6,0,.44-.18.87-.49,1.18-.31.31-.74.49-1.18.49s-.87-.18-1.18-.49c-.31-.31-.49-.74-.49-1.18,0-.21.04-.42.12-.62h-.36M90.83,49.79c-.43,0-.84.13-1.18.38h.77c.13-.03.27-.05.41-.05.15,0,.29.02.43.06h.77c-.34-.25-.77-.39-1.2-.39"/>
    <path class="st39" d="M91.26,50.18c.28.07.54.22.75.43.17.17.3.37.38.58h.36c-.1-.3-.26-.59-.5-.82h0s0,0,0,0l-.22-.19h-.77M89.65,50.17l-.24.2c-.23.23-.39.5-.49.8h.36c.08-.21.21-.4.37-.56.21-.21.48-.36.77-.44h-.77"/>
    <path class="st35" d="M92.25,53.21h0s0,0,0,0h0M92.84,51.79h0"/>
    <path class="st54" d="M90.83,53.13c-.35,0-.69-.14-.94-.39h0s0,0,0,0c-.25-.25-.39-.59-.39-.94,0-.35.14-.69.39-.94.25-.25.59-.39.94-.39h0c.35,0,.7.14.94.39.25.25.39.59.39.94,0,.35-.14.7-.39.94h0s0,0,0,0c-.25.25-.59.39-.94.39M90.83,50.12c-.14,0-.28.02-.41.05-.29.07-.56.22-.77.44-.16.16-.29.35-.37.56-.08.2-.12.41-.12.62,0,.44.18.87.49,1.18.31.31.74.49,1.18.49s.87-.18,1.18-.49c.31-.31.49-.74.49-1.18,0-.21-.04-.41-.11-.6-.08-.22-.21-.41-.38-.58-.21-.21-.47-.36-.75-.43-.14-.04-.28-.06-.43-.06"/>
    <path class="st24" d="M32.55,100.1c0-.44-.18-.87-.49-1.18-.31-.31-.74-.49-1.18-.49s-.87.18-1.18.49c-.31.31-.49.74-.49,1.18s.18.87.49,1.18c.31.31.74.49,1.18.49s.87-.18,1.18-.49c.31-.31.49-.74.49-1.18"/>
    <path class="st35" d="M30.87,98.09c-.53,0-1.04.21-1.42.59-.38.38-.59.89-.59,1.42,0,.53.21,1.04.59,1.42.37.37.88.59,1.42.59.53,0,1.04-.21,1.42-.59h0c.38-.38.59-.89.59-1.42,0-.42-.13-.83-.38-1.17l-.17.21-.36-.3.09.08c.31.31.49.74.49,1.18s-.18.87-.49,1.18c-.31.31-.74.49-1.18.49s-.87-.18-1.18-.49c-.31-.31-.49-.74-.49-1.18s.18-.87.49-1.18c.31-.31.74-.49,1.18-.49.38,0,.75.13,1.05.37l-.09-.07-.55-.32.14-.23c-.18-.05-.36-.08-.55-.08"/>
    <path class="st39" d="M31.42,98.17l-.14.23.55.32-.28-.23.17-.21c-.1-.05-.2-.08-.3-.11"/>
    <polyline class="st39" points="32.29 98.68 32.15 98.91 31.83 98.72 31.92 98.79 31.97 98.83 32.33 99.13 32.5 98.92 32.29 98.68 32.29 98.68 32.29 98.68"/>
    <path class="st44" d="M31.73,98.28l-.17.21.28.23.32.19.14-.23c-.17-.17-.36-.3-.57-.4"/>
    <path class="st55" d="M31.82,101.04h0M30.87,101.43c-.35,0-.69-.14-.94-.39-.25-.25-.39-.59-.39-.94,0-.35.14-.69.39-.94.25-.25.59-.39.94-.39h0c.35,0,.7.14.94.39.25.25.39.59.39.94,0,.35-.14.69-.39.94-.25.25-.59.39-.94.39h0M30.87,98.43c-.44,0-.87.18-1.18.49-.31.31-.49.74-.49,1.18s.18.87.49,1.18c.31.31.74.49,1.18.49s.87-.18,1.18-.49c.31-.31.49-.74.49-1.18s-.18-.87-.49-1.18l-.09-.08-.05-.04c-.29-.24-.66-.37-1.05-.37"/>
    <path class="st11" d="M62.32,56.44c0-.44-.18-.87-.49-1.18s-.74-.49-1.18-.49-.87.18-1.18.49c-.31.31-.49.74-.49,1.18s.18.87.49,1.18c.31.31.74.49,1.18.49s.87-.18,1.18-.49c.31-.31.49-.74.49-1.18"/>
    <path class="st35" d="M61.99,54.95l-.13.24-.38-.2c.13.07.24.16.35.27.31.31.49.74.49,1.18s-.18.87-.49,1.18c-.13.13-.28.24-.45.32l.42-.19.11.25.15-.14h0c.38-.38.59-.89.59-1.42,0-.53-.21-1.04-.59-1.42l-.08-.07M60.65,54.44c-.53,0-1.04.21-1.42.59h0c-.38.37-.59.89-.59,1.42,0,.53.21,1.04.59,1.42h0c.38.38.89.59,1.42.59h0c.12,0,.24-.01.35-.03l-.11-.25.42-.19c-.21.09-.43.13-.65.13-.44,0-.87-.18-1.18-.49-.31-.31-.49-.74-.49-1.18s.18-.87.49-1.18c.31-.31.74-.49,1.18-.49.25,0,.49.05.71.16l-.39-.2.13-.24c-.15-.03-.3-.05-.45-.05"/>
    <path class="st39" d="M61.09,54.49l-.13.24.39.2.12.06.38.2.13-.24c-.26-.23-.56-.39-.89-.46"/>
    <path class="st39" d="M61.8,57.76l-.42.19-.08.04-.42.19.11.25c.33-.06.65-.2.92-.42l-.11-.25"/>
    <path class="st51" d="M60.65,57.78c-.35,0-.69-.14-.94-.39h0c-.25-.25-.39-.59-.39-.94,0-.35.14-.69.39-.94h0c.25-.25.59-.39.95-.39.35,0,.69.14.94.39.25.25.39.59.39.94,0,.35-.14.7-.39.94h0c-.25.25-.59.39-.94.39M60.65,54.78c-.44,0-.87.18-1.18.49-.31.31-.49.74-.49,1.18s.18.87.49,1.18c.31.31.74.49,1.18.49.23,0,.45-.05.65-.13l.08-.04c.16-.08.32-.19.45-.32.31-.31.49-.74.49-1.18s-.18-.87-.49-1.18c-.11-.11-.22-.2-.35-.27l-.12-.06c-.22-.1-.46-.16-.71-.16"/>
    <path class="st11" d="M67.74,68.3c0-.44-.18-.87-.49-1.18-.31-.31-.74-.49-1.18-.49s-.87.18-1.18.49c-.31.31-.49.74-.49,1.18s.18.87.49,1.18c.31.31.74.49,1.18.49s.87-.18,1.18-.49c.31-.31.49-.74.49-1.18"/>
    <path class="st35" d="M66.07,66.29c-.12,0-.24.01-.35.03l.11.25-.92.42-.11-.25-.15.14h0c-.38.38-.59.89-.59,1.42,0,.53.21,1.04.59,1.42.38.38.89.59,1.42.59l-.07-.26.97-.25.07.26c.16-.09.31-.2.44-.33h0c.38-.38.59-.89.59-1.42,0-.45-.15-.89-.43-1.24l-.16.22-.37-.29.14.13c.31.31.49.74.49,1.18s-.18.87-.49,1.18c-.31.31-.74.49-1.18.49s-.87-.18-1.18-.49c-.31-.31-.49-.74-.49-1.18s.18-.87.49-1.18c.31-.31.74-.49,1.18-.49.36,0,.7.12.99.32l-.38-.29.16-.22c-.24-.1-.51-.16-.78-.16"/>
    <path class="st39" d="M66.85,66.45l-.16.22.38.29.05.04.37.29.16-.22-.16-.18c-.18-.18-.4-.33-.64-.43"/>
    <path class="st39" d="M66.97,69.79l-.97.25.07.26h0c.34,0,.68-.09.97-.25l-.07-.26"/>
    <path class="st39" d="M65.72,66.32c-.34.06-.65.2-.91.42l.11.25.92-.42-.11-.25"/>
    <path class="st51" d="M65.13,67.35h0M65.13,67.35c.25-.25.59-.39.94-.39h0c.35,0,.7.14.94.39.25.25.39.59.39.94,0,.35-.14.69-.39.94h0c-.25.25-.59.39-.94.39-.35,0-.69-.14-.94-.39-.25-.25-.39-.59-.39-.94,0-.35.14-.69.39-.94M66.07,66.63c-.44,0-.87.18-1.18.49-.31.31-.49.74-.49,1.18s.18.87.49,1.18c.31.31.74.49,1.18.49s.87-.18,1.18-.49c.31-.31.49-.74.49-1.18s-.18-.87-.49-1.18l-.14-.13-.05-.04c-.28-.21-.63-.32-.99-.32"/>
    <path class="st11" d="M110.43,50.79c0-.44-.18-.87-.49-1.18-.31-.31-.74-.49-1.18-.49s-.87.18-1.18.49c-.31.31-.49.74-.49,1.18s.18.87.49,1.18c.31.31.74.49,1.18.49s.87-.18,1.18-.49c.31-.31.49-.74.49-1.18"/>
    <path class="st35" d="M108.75,48.79c-.53,0-1.04.21-1.42.59h0s0,0,0,0c-.25.25-.43.56-.52.9h.27s0,.5,0,.5c0-.44.18-.85.49-1.16.31-.31.74-.49,1.18-.49s.87.18,1.18.49c.31.31.49.74.49,1.18s-.18.87-.49,1.18c-.31.31-.74.49-1.18.49s-.87-.18-1.18-.49c-.31-.31-.49-.74-.49-1.18h0s0,.49,0,.49h-.27c.09.35.27.67.52.93h0s0,0,0,0c.38.37.89.58,1.42.58s1.04-.21,1.42-.58h0s0,0,0,0c.37-.38.59-.88.59-1.42s-.21-1.04-.59-1.42h0s0,0,0,0c-.38-.37-.88-.59-1.42-.59"/>
    <path class="st39" d="M106.82,50.28c-.04.17-.07.34-.07.52s.02.33.06.49h.27s0-.49,0-.49v-.02s0-.49,0-.49h-.27"/>
    <path class="st51" d="M107.81,49.85c.25-.25.59-.39.95-.39s.69.14.95.39h0c.25.25.39.59.39.94s-.14.69-.39.95h0c-.25.25-.59.39-.95.39s-.69-.14-.95-.39h0c-.25-.25-.39-.59-.39-.94,0-.35.14-.69.39-.95h0M108.75,49.12c-.44,0-.87.18-1.18.49-.31.31-.48.73-.49,1.16v.02s0,0,0,0c0,.44.18.87.49,1.18.31.31.74.49,1.18.49s.87-.18,1.18-.49c.31-.31.49-.74.49-1.18s-.18-.87-.49-1.18c-.31-.31-.74-.49-1.18-.49"/>
    <path class="st11" d="M94,68.39c0-.44-.18-.87-.49-1.18-.31-.31-.74-.49-1.18-.49s-.87.18-1.18.49c-.31.31-.49.74-.49,1.18s.18.87.49,1.18c.31.31.74.49,1.18.49s.87-.18,1.18-.49c.31-.31.49-.74.49-1.18"/>
    <path class="st35" d="M92.33,66.39h0l-.25.02.1.25-.93.37-.1-.25-.23.2h0c-.38.37-.59.88-.59,1.42,0,.19.03.37.08.55l.23-.14.51.87-.23.14h0c.2.2.43.35.69.45l.03-.27.46.06c-.35-.05-.69-.22-.94-.47-.31-.31-.49-.74-.49-1.18s.18-.87.49-1.18c.31-.31.74-.49,1.18-.49s.87.18,1.18.49c.31.31.49.74.49,1.18s-.18.87-.49,1.18c-.31.31-.74.49-1.18.49h-.16s.46.05.46.05l-.03.27c.26-.03.51-.12.74-.25l-.19-.19.72-.71.19.19c.19-.31.28-.67.28-1.03,0-.53-.21-1.04-.59-1.42h0c-.38-.38-.89-.59-1.42-.59"/>
    <path class="st39" d="M93.75,69.81h0M93.86,69.23l-.72.71.19.19c.15-.09.29-.19.41-.32.12-.12.22-.25.3-.39l-.19-.19"/>
    <path class="st39" d="M90.63,68.8l-.23.14c.09.33.26.63.51.87l.23-.14-.51-.87"/>
    <path class="st39" d="M91.63,69.99l-.03.27c.23.09.48.14.73.14l.27-.02.03-.27-.46-.06h-.08s-.46-.07-.46-.07"/>
    <path class="st39" d="M92.08,66.4c-.34.04-.66.17-.94.37l.1.25.93-.37-.1-.25"/>
    <path class="st35" d="M90.91,69.81h0s0,0,0,0h0M94.33,68.39h0"/>
    <path class="st51" d="M92.33,69.73c-.35,0-.7-.14-.94-.39h0c-.25-.25-.39-.59-.39-.95,0-.35.14-.69.39-.94h0s0,0,0,0c.25-.25.59-.39.94-.39.35,0,.69.14.94.39h0s0,0,0,0c.25.25.39.59.39.94,0,.35-.14.7-.39.94h0s0,0,0,0c-.25.25-.59.39-.94.39h0M92.33,66.72c-.44,0-.87.18-1.18.49-.31.31-.49.74-.49,1.18s.18.87.49,1.18c.25.26.59.42.94.47h.08s.16.02.16.02c.44,0,.87-.18,1.18-.49.31-.31.49-.74.49-1.18s-.18-.87-.49-1.18c-.31-.31-.74-.49-1.18-.49"/>
  </g>
</svg>