<?xml version="1.0" encoding="UTF-8"?>
<svg id="Layer_2" data-name="Layer 2" xmlns="http://www.w3.org/2000/svg" viewBox="0 0 58.69 45.88">
  <defs>
    <style>
      .cls-1 {
        fill: #231f20;
        stroke-width: 0px;
      }
    </style>
  </defs>
  <g id="Layer_1-2" data-name="Layer 1">
    <g>
      <path class="cls-1" d="m40.49,31.84c-1.08.25-1.02.41.18.47v6.48c.52-.46,1.54-1.19,1.84-1.85,1.19-.84.73-1.43-1.38-1.76-1.8-.14-2.38-.74-1.74-1.8-1.04.09-2.52,1.27-3.68,1.48-.54.1-2.13.02-1.97.1.67.35-.2.54.29-.26.32-.53.46-1.02.89-1.53.99-1.18,2.37-2.2,3.67-3.01.41-.26,1.22-.52,1.59-.82.59-.39.84-.45.75-.18-.33,1.14-1.15.31-2.46-2.5-.29.21-.55,1.07-.82,1.39-.44.53-1,.95-1.6,1.27-1.26.69-2.45.74-3.88.61l5.41,7.1-4.1,1.42-2.01-7.68c-.71,1.34-1.32,1.08-2.81,1.05l5.27,5.27c.1-2.03.36-3.85-.88-5.62-1.31-1.88-3.27-2.32-5.34-1.4-1.91.85-2.66,2.62-3.6,4.36-1.78,3.29-.01,6.42,3.15,7.74,5.2,2.17,11.27-1.21,13.91-5.73,1.49-2.55.67-6.25-2.01-7.68-4.82-2.58-11.16-.34-12.39,5.29-.82,3.77,1.66,6.8,5.41,7.1,5.22.42,10.57-1.86,13.92-5.88,3.8-4.56,5.36-12.18-.5-15.88-4.5-2.84-10.16-.61-14.03,2.23-4.61,3.38-8.74,7.67-8.62,13.78.26,13.24,19.28,13.07,25.33,4.25,3.18-4.63,1.84-11.8-3.95-13.62-6.12-1.92-11.22,3.82-11.5,9.5-.11,2.27,2.2,4.86,4.58,4.58,2.55-.3,4.45-.79,6.48-2.41,2.71-2.18-.21-7.07-3.42-5.88h0Z"/>
      <path class="cls-1" d="m32.64,24.22c-2.69-3.73-5.51-7.36-8.57-10.8-2.46-2.78-5.11-6.03-9.02-6.6-6.39-.92-11.57,5.95-13.9,11.08S-.05,30.08,5.82,32.28c3.79,1.42,8.26.26,12.12-.22,4.11-.51,8.54-.76,12.25-2.65,2.38-1.21,1.82-5.12-.75-5.72-4.28-.99-8.96-.03-13.28.5-3.64.45-10.63,2.14-8-3.86.68-1.54,2.31-4.19,3.71-5.1,2.66-1.74,4.19-.12,6.18,1.58,3.79,3.22,7.28,6.8,10.63,10.48,1.9,2.09,5.67-.71,3.98-3.07h0Z"/>
      <path class="cls-1" d="m35.66,23.32c-.01-3.65.92-7.11,3.12-10.07,1.46-1.97,9.56-9.03,11.02-4.42.71,2.24-1.57,3.02-3.32,4.32s-3.48,2.5-5.22,3.75c-3.47,2.5-7.46,4.76-10.32,7.95-3.2,3.56.77,8.32,4.94,6.41s8.17-5.65,11.98-8.51c2.77-2.08,6.12-4.1,8.38-6.76,4.13-4.86,2.96-11.86-2.79-14.83s-13.19.38-17.32,4.83c-4.34,4.69-6.46,10.99-5.87,17.33.32,3.41,5.43,3.55,5.41,0h0Z"/>
    </g>
  </g>
</svg>