<?xml version="1.0" encoding="UTF-8"?>
<svg id="Layer_1" xmlns="http://www.w3.org/2000/svg" version="1.1" xmlns:xlink="http://www.w3.org/1999/xlink" viewBox="0 0 406.25 148.83">
  <!-- Generator: Adobe Illustrator 29.5.1, SVG Export Plug-In . SVG Version: 2.1.0 Build 141)  -->
  <defs>
    <style>
      .st0 {
        clip-path: url(#clippath-6);
      }

      .st1 {
        clip-path: url(#clippath-7);
      }

      .st2 {
        clip-path: url(#clippath-15);
      }

      .st3 {
        clip-path: url(#clippath-4);
      }

      .st4 {
        fill: #899ec8;
      }

      .st5 {
        fill: #231f20;
      }

      .st6 {
        clip-path: url(#clippath-9);
      }

      .st7 {
        clip-path: url(#clippath-10);
      }

      .st8 {
        clip-path: url(#clippath-11);
      }

      .st9 {
        fill: none;
      }

      .st10 {
        fill: #efecd0;
      }

      .st11 {
        clip-path: url(#clippath-1);
      }

      .st12 {
        clip-path: url(#clippath-5);
      }

      .st13 {
        clip-path: url(#clippath-8);
      }

      .st14 {
        fill: #b6b4b4;
      }

      .st15 {
        clip-path: url(#clippath-3);
      }

      .st16 {
        fill: #798fb6;
      }

      .st17 {
        clip-path: url(#clippath-12);
      }

      .st18 {
        clip-path: url(#clippath-14);
      }

      .st19 {
        fill: #666766;
      }

      .st20 {
        fill: #6d6e71;
      }

      .st21 {
        fill: #999898;
      }

      .st22 {
        fill: #ea906a;
      }

      .st23 {
        fill: #7fc78c;
      }

      .st24 {
        clip-path: url(#clippath-16);
      }

      .st25 {
        clip-path: url(#clippath-2);
      }

      .st26 {
        clip-path: url(#clippath-13);
      }

      .st27 {
        fill: #b3daaa;
      }

      .st28 {
        clip-path: url(#clippath);
      }
    </style>
    <clipPath id="clippath">
      <polyline class="st9" points="162.83 136.14 242.73 136.14 242.73 149.18 162.83 149.18 162.83 136.14"/>
    </clipPath>
    <clipPath id="clippath-1">
      <polyline class="st9" points="83.61 95.83 83.61 33.49 95.94 33.49 95.94 95.83 83.61 95.83"/>
    </clipPath>
    <clipPath id="clippath-2">
      <polyline class="st9" points="10.4 108.47 19.08 108.47 19.08 118.16 10.4 118.16 10.4 108.47"/>
    </clipPath>
    <clipPath id="clippath-3">
      <polyline class="st9" points="27.4 122.47 36.08 122.47 36.08 132.16 27.4 132.16 27.4 122.47"/>
    </clipPath>
    <clipPath id="clippath-4">
      <polyline class="st9" points="49.4 122.47 58.08 122.47 58.08 132.16 49.4 132.16 49.4 122.47"/>
    </clipPath>
    <clipPath id="clippath-5">
      <polyline class="st9" points="59.72 103.35 68.4 103.35 68.4 113.04 59.72 113.04 59.72 103.35"/>
    </clipPath>
    <clipPath id="clippath-6">
      <polyline class="st9" points="33.4 101.86 42.08 101.86 42.08 111.55 33.4 111.55 33.4 101.86"/>
    </clipPath>
    <clipPath id="clippath-7">
      <polyline class="st9" points="336.22 21.49 344.9 21.49 344.9 31.18 336.22 31.18 336.22 21.49"/>
    </clipPath>
    <clipPath id="clippath-8">
      <polyline class="st9" points="358.04 14.12 369.11 14.12 369.11 23.81 358.04 23.81 358.04 14.12"/>
    </clipPath>
    <clipPath id="clippath-9">
      <polyline class="st9" points="353.22 35.49 361.9 35.49 361.9 45.18 353.22 45.18 353.22 35.49"/>
    </clipPath>
    <clipPath id="clippath-10">
      <polyline class="st9" points="386.04 16.12 397.11 16.12 397.11 25.81 386.04 25.81 386.04 16.12"/>
    </clipPath>
    <clipPath id="clippath-11">
      <polyline class="st9" points="375.22 35.49 383.9 35.49 383.9 45.18 375.22 45.18 375.22 35.49"/>
    </clipPath>
    <clipPath id="clippath-12">
      <polyline class="st9" points="100.57 3.76 300.57 3.76 300.57 136.76 100.57 136.76 100.57 3.76"/>
    </clipPath>
    <clipPath id="clippath-13">
      <polyline class="st9" points="114.57 6.16 116.57 6.16 116.57 119.69 114.57 119.69 114.57 6.16"/>
    </clipPath>
    <clipPath id="clippath-14">
      <polyline class="st9" points="111.85 31.76 295.21 31.76 295.21 33.76 111.85 33.76 111.85 31.76"/>
    </clipPath>
    <clipPath id="clippath-15">
      <polyline class="st9" points="12.26 81.56 67.29 81.56 67.29 91.76 12.26 91.76 12.26 81.56"/>
    </clipPath>
    <clipPath id="clippath-16">
      <polyline class="st9" points="335.53 55.56 396.02 55.56 396.02 65.76 335.53 65.76 335.53 55.56"/>
    </clipPath>
  </defs>
  <polyline class="st20" points="107.12 117.23 76.62 117.23 76.62 118.23 107.12 118.23 107.3 117.73 107.12 117.23"/>
  <path class="st20" d="M106.01,114.17l1.11,3.07.18.5-.18.5-1.11,3.07c1.64-1.43,4.28-2.78,6.41-3.57-2.13-.79-4.77-2.14-6.41-3.57"/>
  <g class="st28">
    <path d="M241.38,143.5c0-.34-.09-.59-.31-.81-.28-.28-.64-.4-1.6-.59-.89-.17-1.19-.39-1.19-.89,0-.55.38-.85,1.05-.85.73,0,1.29.38,1.29.89v.25h.31c.01-.63.02-.89.05-1.23-.58-.2-.97-.27-1.42-.27-1.27,0-2.04.6-2.04,1.58,0,.52.24.89.74,1.12.29.13.87.31,1.61.47.49.11.7.34.7.75,0,.59-.55,1-1.32,1s-1.36-.38-1.36-.93v-.45h-.33c0,.75-.03,1.08-.12,1.52.57.19.99.26,1.49.26,1.43,0,2.44-.76,2.44-1.83ZM235.8,142.2l-1.22.03c-.5,0-.79-.01-1.37-.07,0-.51.04-.75.19-1.04.23-.48.7-.77,1.22-.77.36,0,.64.14.84.44.24.36.35.68.35,1.41ZM236.77,142.07c0-1.25-.81-2.07-2.03-2.07-.4,0-.87.14-1.32.4-.89.51-1.25,1.19-1.25,2.32,0,.69.15,1.28.46,1.69.43.58,1.17.92,1.99.92.4,0,.81-.09,1.25-.28.29-.12.52-.26.57-.33l.22-.37-.14-.11c-.7.41-.95.51-1.42.51-.71,0-1.3-.32-1.6-.85-.21-.36-.28-.67-.31-1.3h1.59c.75,0,1.22-.03,1.97-.15.01-.15.02-.25.02-.38ZM231.67,145.14v-.33l-.5-.03c-.37-.02-.4-.1-.4-.79v-6.72l-.1-.09c-.48.19-.84.27-1.7.4v.31h.61c.2,0,.27.12.27.45v5.65c0,.69-.03.76-.4.79l-.5.03v.33c.46-.02.91-.03,1.36-.03s.91.01,1.36.03ZM227.25,142.56c0,1.22-.73,2.13-1.71,2.13-.6,0-1.05-.2-1.47-.64v-2.27c0-.15.05-.27.2-.46.32-.4.76-.61,1.31-.61,1.03,0,1.68.72,1.68,1.85ZM228.2,142.15c0-1.21-1-2.16-2.27-2.16-.4,0-.8.11-.97.27l-.89.82v-1.05l-.1-.04c-.56.23-1.12.38-1.7.45v.31h.4c.44,0,.48.08.48.8v5.49c0,.69-.03.76-.4.79l-.5.03v.33c.46-.02.91-.03,1.36-.03s.91.01,1.36.03v-.33l-.5-.03c-.37-.02-.4-.1-.4-.79v-2.06c.33.2.68.27,1.17.27.32,0,.6-.07.77-.17l1.24-.81c.44-.28.95-1.41.95-2.11ZM222.22,145.14v-.33l-.51-.03c-.37-.02-.4-.1-.4-.79v-2.25c0-1.08-.63-1.76-1.64-1.76-.38,0-.7.1-.89.27l-.83.74c-.35-.72-.8-1.01-1.55-1.01-.4,0-.71.1-.91.27l-.75.7v-.93l-.1-.04c-.56.23-1.12.38-1.7.45v.31h.4c.44,0,.48.08.48.8v2.45c0,.69-.03.76-.4.79l-.5.03v.33c.46-.02.93-.03,1.39-.03s.86.01,1.3.03v-.33l-.46-.03c-.37-.02-.4-.1-.4-.79v-2.31c0-.49.72-1.03,1.37-1.03.59,0,.99.56.99,1.39v1.95c0,.69-.03.76-.4.79l-.5.03v.33c.46-.02.91-.03,1.36-.03s.91.01,1.36.03v-.33l-.5-.03c-.37-.02-.4-.1-.4-.79v-2.31c0-.49.72-1.03,1.37-1.03.59,0,.99.56.99,1.39v3.1c.28-.02.58-.03.86-.03.33,0,.64.01.97.03ZM210.82,143.76c-.32.45-1,.86-1.43.86s-.82-.4-.82-.87c0-.4.22-.79.55-.99.27-.16.87-.32,1.7-.44v1.44ZM212.42,145.14v-.33l-.43-.02c-.26-.01-.31-.1-.31-.63v-2c0-1.59-.46-2.17-1.72-2.17-.47,0-.91.12-1.32.37l-.58.35v.71l.28.08.14-.34c.22-.51.34-.59.84-.59,1.03,0,1.45.4,1.48,1.4l-1.08.2c-1.48.27-2.11.79-2.11,1.73,0,.85.51,1.34,1.37,1.34.2,0,.38-.03.46-.09l1.35-.94-.05.93c.28-.02.57-.03.85-.03s.53.01.81.03ZM206.93,143.5c0-.34-.09-.59-.31-.81-.28-.28-.64-.4-1.6-.59-.89-.17-1.19-.39-1.19-.89,0-.55.38-.85,1.05-.85.73,0,1.29.38,1.29.89v.25h.31c.01-.63.02-.89.05-1.23-.58-.2-.97-.27-1.42-.27-1.27,0-2.04.6-2.04,1.58,0,.52.24.89.74,1.12.29.13.87.31,1.61.47.49.11.7.34.7.75,0,.59-.55,1-1.32,1s-1.36-.38-1.36-.93v-.45h-.33c0,.75-.03,1.08-.12,1.52.57.19.99.26,1.49.26,1.43,0,2.44-.76,2.44-1.83ZM199.51,144.19l-.1-.11c-.68.44-1.43.65-2.26.65-2.13,0-3.55-1.42-3.55-3.57,0-2.01,1.24-3.34,3.12-3.34,1.07,0,2.17.44,2.17.86v.79h.34c.01-.55.05-.94.21-1.66-.93-.31-1.72-.45-2.52-.45-.95,0-1.85.23-2.59.65-1.24.73-1.9,1.88-1.9,3.35,0,2.36,1.72,3.95,4.29,3.95.91,0,1.72-.2,2.48-.59l.31-.55ZM191.98,145.14v-.33l-.52-.03c-.5-.03-.56-.12-.56-.98v-4.9c0-.85.05-.95.56-.98l.46-.03v-.33c-.34.02-.68.03-1.01.03s-.69-.01-1.04-.03l-2.86,6.07-2.88-6.07c-.35.02-.69.03-1.04.03s-.69-.01-1.04-.03v.33l.48.03c.5.03.56.13.56.98v4.9c0,.85-.05.95-.56.98l-.48.03v.33c.43-.02.84-.03,1.27-.03s.87.01,1.31.03v-.33l-.48-.03c-.5-.03-.56-.13-.56-.98v-5l3.04,6.45h.22c.27-.59.36-.89.59-1.39.81-1.68,1.57-3.41,2.42-5.06v5c0,.86-.04.94-.56.98l-.37.03v.33c.47-.02.93-.03,1.4-.03.55,0,1.1.01,1.65.03ZM181.45,144.19l-.1-.11c-.68.44-1.43.65-2.26.65-2.13,0-3.55-1.42-3.55-3.57,0-2.01,1.24-3.34,3.12-3.34,1.07,0,2.17.44,2.17.86v.79h.34c.01-.55.05-.94.21-1.66-.93-.31-1.72-.45-2.52-.45-.95,0-1.85.23-2.59.65-1.24.73-1.9,1.88-1.9,3.35,0,2.36,1.72,3.95,4.29,3.95.91,0,1.72-.2,2.48-.59l.31-.55ZM173.93,145.14v-.33l-.52-.03c-.5-.03-.56-.12-.56-.98v-4.9c0-.85.05-.95.56-.98l.46-.03v-.33c-.34.02-.68.03-1.01.03s-.69-.01-1.04-.03l-2.86,6.07-2.88-6.07c-.35.02-.69.03-1.04.03s-.69-.01-1.04-.03v.33l.48.03c.5.03.56.13.56.98v4.9c0,.85-.05.95-.56.98l-.48.03v.33c.43-.02.84-.03,1.27-.03s.87.01,1.31.03v-.33l-.48-.03c-.5-.03-.56-.13-.56-.98v-5l3.04,6.45h.22c.27-.59.36-.89.59-1.39.81-1.68,1.57-3.41,2.42-5.06v5c0,.86-.04.94-.56.98l-.37.03v.33c.47-.02.93-.03,1.4-.03.55,0,1.1.01,1.65.03Z"/>
  </g>
  <g class="st11">
    <path d="M91.65,89.01l-.2.11.19.28c.21.32.33.56.33.67,0,.08-.1.14-.22.14l-.22-.02-3.01-.72c-.32-.08-.62-.12-.81-.12-.25,0-.39.12-.39.34,0,.46.41,1.21,1.01,1.85.38.41.75.72,1.55,1.29l-1.76-.41c-.2-.04-.33-.07-.45-.07-.23,0-.36.09-.36.25,0,.23.24.65.81,1.45l.22.31.22-.08-.23-.35c-.26-.39-.27-.44-.27-.51,0-.12.11-.2.27-.2.56,0,2.66.45,4.22.89l.12-.08c-.08-.27-.14-.52-.19-.76-1.37-.21-2.08-.45-2.84-.94-.92-.6-1.59-1.41-1.59-1.9,0-.12.1-.19.26-.19.2,0,.43.03.77.12l2.31.57c.4.1.65.14.83.14.27,0,.44-.12.44-.33,0-.28-.23-.68-1.03-1.75Z"/>
    <path d="M94.24,82.56l-.22-.02-.02.46c0,.21-.07.29-.24.29-.07,0-.14,0-.28-.03l-4.14-.73c-.31-.06-.36-.1-.38-.41l-.02-.29-.22-.02c.02.29.02.57.02.85,0,.38,0,.76-.02,1.14l.22.02.02-.38c0-.19.07-.28.22-.28.11,0,.37.03.61.07l1.39.24v2.95l-1.82-.33c-.31-.06-.36-.11-.38-.41l-.02-.33-.22-.02c.02.3.02.61.02.91,0,.37,0,.75-.02,1.12l.22.02.02-.37c0-.19.07-.28.22-.28.11,0,.36.03.61.07l3.46.59c.73.13.75.14.77.46l.02.33.22.03c-.02-.35-.02-.7-.02-1.05,0-.33,0-.65.02-.98l-.22-.02-.02.39c-.02.22-.07.29-.24.29-.07,0-.13,0-.28-.03l-1.97-.33s-.02-.89-.02-1.47.02-1.47.02-1.47l1.71.32c.39.07.61.13.66.17.06.03.1.12.11.29l.02.4.22.03c-.02-.37-.02-.75-.02-1.12,0-.35,0-.7.02-1.05Z"/>
    <path d="M89.69,35.14c-.84,0-1.61.14-2.35.43-1.06.41-1.66.86-2.68,2l.28.21c.94-.8,1.45-1.09,2.35-1.36.71-.22,1.48-.33,2.39-.33s1.76.11,2.54.34c.98.28,1.51.57,2.48,1.35l.23-.21c-.71-.75-1.07-1.07-1.6-1.41-1.06-.67-2.32-1.01-3.63-1.01ZM90.97,38.48c-.34,0-.59.09-.81.31-.28.28-.4.64-.59,1.6-.17.89-.39,1.19-.89,1.19-.55,0-.85-.38-.85-1.05,0-.73.38-1.29.89-1.29h.25v-.31c-.63-.01-.89-.02-1.23-.05-.2.58-.27.97-.27,1.42,0,1.27.6,2.04,1.58,2.04.52,0,.89-.24,1.12-.74.13-.29.31-.87.47-1.61.11-.49.34-.7.75-.7.59,0,1,.55,1,1.32s-.38,1.36-.93,1.36h-.45v.33c.75,0,1.08.03,1.52.12.19-.57.26-.99.26-1.49,0-1.43-.76-2.44-1.83-2.44ZM90.17,44.92c.71,0,.82.02,1.07.16.51.31.85.84.85,1.35,0,.96-.93,1.65-2.23,1.65-1.19,0-1.89-.59-1.89-1.57,0-.41.14-.85.4-1.23.15-.23.29-.36.38-.36h1.41ZM92.61,43.1h-.33l-.03.5c-.02.37-.1.4-.79.4h-6.72l-.09.1c.19.48.27.84.4,1.7h.31v-.61c0-.2.12-.27.45-.27h2c-.26.61-.35.92-.35,1.3,0,.29.07.56.21.83l.5.96c.33.62,1.12,1.03,2.05,1.03.87,0,1.59-.29,2.03-.83.32-.37.46-.88.46-1.59,0-.22-.04-.47-.09-.52l-1.01-1.21,1,.05c-.02-.28-.03-.56-.03-.84,0-.33.01-.67.03-.99ZM91.23,51.33c.45.32.86,1,.86,1.43s-.4.82-.87.82c-.4,0-.79-.22-.99-.55-.16-.27-.32-.87-.44-1.7h1.44ZM92.61,49.73h-.33l-.02.43c-.01.26-.1.31-.63.31h-2c-1.59,0-2.17.46-2.17,1.72,0,.47.12.91.37,1.32l.35.58h.71l.08-.28-.34-.14c-.51-.22-.59-.34-.59-.84,0-1.03.4-1.45,1.4-1.48l.2,1.08c.27,1.48.79,2.11,1.73,2.11.85,0,1.34-.51,1.34-1.37,0-.2-.03-.38-.09-.46l-.94-1.35.93.05c-.02-.28-.03-.57-.03-.85s.01-.53.03-.81ZM89.67,56.18l.03,1.22c0,.5-.01.79-.07,1.37-.51,0-.75-.04-1.04-.19-.48-.23-.77-.7-.77-1.22,0-.36.14-.64.44-.84.36-.24.68-.35,1.41-.35ZM89.54,55.21c-1.25,0-2.07.81-2.07,2.03,0,.4.14.87.4,1.32.51.89,1.19,1.25,2.32,1.25.69,0,1.28-.15,1.69-.46.58-.43.92-1.17.92-1.99,0-.4-.09-.81-.28-1.25-.12-.29-.26-.52-.33-.57l-.37-.22-.11.14c.41.7.51.95.51,1.42,0,.71-.32,1.3-.85,1.6-.36.21-.67.28-1.3.31v-1.59c0-.75-.03-1.22-.15-1.97-.15-.01-.25-.02-.38-.02ZM92.61,60.2h-.33l-.03.45c-.02.37-.09.4-.79.4h-2.11c-1.28,0-1.9.6-1.9,1.82,0,.4.08.63.27.86l.72.83h-3.71l-.09.1c.19.48.27.84.4,1.7h.31v-.61c0-.2.12-.27.45-.27h5.65c.69,0,.76.03.79.4l.03.49h.33c-.02-.45-.03-.91-.03-1.35s.01-.91.03-1.35h-.33l-.03.49c-.02.37-.1.4-.79.4h-2.31c-.49,0-1.03-.72-1.03-1.39,0-.73.55-1.21,1.39-1.21h3.1c-.02-.28-.03-.58-.03-.86,0-.31.01-.6.03-.91ZM88.01,71l1.52.22v1.46l-1.52-.23v-1.45ZM88.01,69.22h-.61v1.06l-2.28-.33v.63l2.28.33v1.45l-2.28-.34v.63l2.28.34v1.29h.61v-1.2l1.52.23v1.27h.61v-1.17l2.44.36v-.63l-2.44-.36v-1.46l2.44.34v-.63l-2.44-.34v-1.19h-.61v1.09l-1.52-.22v-1.15ZM94.7,74.97c-.97.79-1.49,1.07-2.48,1.35-.79.23-1.61.34-2.54.34s-1.68-.1-2.39-.32c-.91-.27-1.42-.58-2.35-1.37l-.28.21c1.01,1.13,1.61,1.58,2.68,2,.73.28,1.51.43,2.33.43,1.17,0,2.27-.27,3.25-.8.73-.38,1.16-.73,2-1.63l-.23-.21Z"/>
  </g>
  <polyline class="st20" points="327.52 29.08 299.51 29.08 299.33 29.58 299.51 30.08 327.52 30.08 327.52 29.08"/>
  <path class="st20" d="M300.62,26.02c-1.64,1.43-4.28,2.78-6.41,3.57,2.13.79,4.77,2.14,6.41,3.57l-1.11-3.07-.18-.5.18-.5,1.11-3.07"/>
  <rect class="st27" x="1.71" y="94.09" width="76.65" height="46.33"/>
  <polygon class="st5" points="78.36 140.41 78.36 140.16 1.96 140.16 1.96 94.34 78.11 94.34 78.11 140.41 78.36 140.41 78.36 140.16 78.36 140.41 78.61 140.41 78.61 93.84 1.46 93.84 1.46 140.66 78.61 140.66 78.61 140.41 78.36 140.41"/>
  <circle class="st23" cx="14.32" cy="113.61" r="7.05" transform="translate(-99.8 104.03) rotate(-78.02)"/>
  <path class="st5" d="M21.36,113.61h-.25c0,1.88-.76,3.58-1.99,4.81-1.23,1.23-2.93,1.99-4.81,1.99-1.88,0-3.58-.76-4.81-1.99-1.23-1.23-1.99-2.93-1.99-4.81,0-1.88.76-3.58,1.99-4.81,1.23-1.23,2.93-1.99,4.81-1.99,1.88,0,3.58.76,4.81,1.99,1.23,1.23,1.99,2.93,1.99,4.81h.5c0-4.03-3.27-7.3-7.3-7.3-4.03,0-7.3,3.27-7.3,7.3,0,4.03,3.27,7.3,7.3,7.3,4.03,0,7.3-3.27,7.3-7.3h-.25Z"/>
  <circle class="st23" cx="14.77" cy="113.17" r="6.86"/>
  <path class="st5" d="M21.63,113.17h-.25c0,1.83-.74,3.48-1.94,4.68-1.2,1.2-2.85,1.94-4.68,1.94-1.83,0-3.48-.74-4.68-1.94-1.2-1.2-1.94-2.85-1.94-4.68,0-1.83.74-3.48,1.94-4.68,1.2-1.2,2.85-1.94,4.68-1.94,1.83,0,3.48.74,4.68,1.94,1.2,1.2,1.94,2.85,1.94,4.68h.5c0-3.93-3.18-7.11-7.11-7.11-3.93,0-7.11,3.18-7.11,7.11,0,3.93,3.18,7.11,7.11,7.11,3.93,0,7.11-3.18,7.11-7.11h-.25Z"/>
  <g class="st25">
    <path d="M17.89,109.56l-2.36.03h-1.72l-2.21-.03c.05.62.08,1.05.08,1.76h.34l.04-.86c.01-.26.13-.36.44-.36h1.69c.03.37.04.62.04,1.09v4.61c0,.86-.05.95-.56.98l-.52.03v.33c.53-.02,1.06-.03,1.59-.03s1.07.01,1.6.03v-.33l-.52-.03c-.5-.03-.56-.12-.56-.98v-4.61c0-.49.01-.73.04-1.09h1.69c.31,0,.43.1.44.36l.04.86h.34c0-.71.02-1.13.08-1.76Z"/>
  </g>
  <circle class="st23" cx="31.32" cy="127.61" r="7.05" transform="translate(-100.02 131.76) rotate(-78.02)"/>
  <path class="st5" d="M38.36,127.61h-.25c0,1.88-.76,3.58-1.99,4.81-1.23,1.23-2.93,1.99-4.81,1.99-1.88,0-3.58-.76-4.81-1.99-1.23-1.23-1.99-2.93-1.99-4.81,0-1.88.76-3.58,1.99-4.81,1.23-1.23,2.93-1.99,4.81-1.99,1.88,0,3.58.76,4.81,1.99,1.23,1.23,1.99,2.93,1.99,4.81h.5c0-4.03-3.27-7.3-7.3-7.3-4.03,0-7.3,3.27-7.3,7.3,0,4.03,3.27,7.3,7.3,7.3,4.03,0,7.3-3.27,7.3-7.3h-.25Z"/>
  <circle class="st23" cx="31.77" cy="127.17" r="6.86"/>
  <path class="st5" d="M38.63,127.17h-.25c0,1.83-.74,3.48-1.94,4.68-1.2,1.2-2.85,1.94-4.68,1.94-1.83,0-3.48-.74-4.68-1.94-1.2-1.2-1.94-2.85-1.94-4.68,0-1.83.74-3.48,1.94-4.68,1.2-1.2,2.85-1.94,4.68-1.94,1.83,0,3.48.74,4.68,1.94,1.2,1.2,1.94,2.85,1.94,4.68h.5c0-3.93-3.18-7.11-7.11-7.11-3.93,0-7.11,3.18-7.11,7.11,0,3.93,3.18,7.11,7.11,7.11,3.93,0,7.11-3.18,7.11-7.11h-.25Z"/>
  <g class="st15">
    <path d="M34.89,123.56l-2.36.03h-1.72l-2.21-.03c.05.62.08,1.05.08,1.76h.34l.04-.86c.01-.26.13-.36.44-.36h1.69c.03.37.04.62.04,1.09v4.61c0,.86-.05.95-.56.98l-.52.03v.33c.53-.02,1.06-.03,1.59-.03s1.07.01,1.6.03v-.33l-.52-.03c-.5-.03-.56-.12-.56-.98v-4.61c0-.49.01-.73.04-1.09h1.69c.31,0,.43.1.44.36l.04.86h.34c0-.71.02-1.13.08-1.76Z"/>
  </g>
  <circle class="st23" cx="53.32" cy="127.61" r="7.05" transform="translate(-81.19 159.8) rotate(-80.78)"/>
  <path class="st5" d="M60.36,127.61h-.25c0,1.88-.76,3.58-1.99,4.81-1.23,1.23-2.93,1.99-4.81,1.99-1.88,0-3.58-.76-4.81-1.99-1.23-1.23-1.99-2.93-1.99-4.81,0-1.88.76-3.58,1.99-4.81,1.23-1.23,2.93-1.99,4.81-1.99,1.88,0,3.58.76,4.81,1.99,1.23,1.23,1.99,2.93,1.99,4.81h.5c0-4.03-3.27-7.3-7.3-7.3-4.03,0-7.3,3.27-7.3,7.3,0,4.03,3.27,7.3,7.3,7.3,4.03,0,7.3-3.27,7.3-7.3h-.25Z"/>
  <circle class="st23" cx="53.77" cy="127.17" r="6.86"/>
  <path class="st5" d="M60.63,127.17h-.25c0,1.83-.74,3.48-1.94,4.68-1.2,1.2-2.85,1.94-4.68,1.94-1.83,0-3.48-.74-4.68-1.94-1.2-1.2-1.94-2.85-1.94-4.68,0-1.83.74-3.48,1.94-4.68,1.2-1.2,2.85-1.94,4.68-1.94,1.83,0,3.48.74,4.68,1.94,1.2,1.2,1.94,2.85,1.94,4.68h.5c0-3.93-3.18-7.11-7.11-7.11-3.93,0-7.11,3.18-7.11,7.11,0,3.93,3.18,7.11,7.11,7.11,3.93,0,7.11-3.18,7.11-7.11h-.25Z"/>
  <g class="st3">
    <path d="M56.89,123.56l-2.36.03h-1.72l-2.21-.03c.05.62.08,1.05.08,1.76h.34l.04-.86c.01-.26.13-.36.44-.36h1.69c.03.37.04.62.04,1.09v4.61c0,.86-.05.95-.56.98l-.52.03v.33c.53-.02,1.06-.03,1.59-.03s1.07.01,1.6.03v-.33l-.52-.03c-.5-.03-.56-.12-.56-.98v-4.61c0-.49.01-.73.04-1.09h1.69c.31,0,.43.1.44.36l.04.86h.34c0-.71.02-1.13.08-1.76Z"/>
  </g>
  <circle class="st23" cx="63.64" cy="108.49" r="7.05"/>
  <path class="st5" d="M70.68,108.49h-.25c0,1.88-.76,3.58-1.99,4.81-1.23,1.23-2.93,1.99-4.81,1.99-1.88,0-3.58-.76-4.81-1.99-1.23-1.23-1.99-2.93-1.99-4.81,0-1.88.76-3.58,1.99-4.81,1.23-1.23,2.93-1.99,4.81-1.99,1.88,0,3.58.76,4.81,1.99,1.23,1.23,1.99,2.93,1.99,4.81h.5c0-4.03-3.27-7.3-7.3-7.3-4.03,0-7.3,3.27-7.3,7.3,0,4.03,3.27,7.3,7.3,7.3,4.03,0,7.3-3.27,7.3-7.3h-.25Z"/>
  <circle class="st23" cx="64.09" cy="108.04" r="6.86"/>
  <path class="st5" d="M70.95,108.04h-.25c0,1.83-.74,3.48-1.94,4.68-1.2,1.2-2.85,1.94-4.68,1.94-1.83,0-3.48-.74-4.68-1.94-1.2-1.2-1.94-2.85-1.94-4.68,0-1.83.74-3.48,1.94-4.68,1.2-1.2,2.85-1.94,4.68-1.94,1.83,0,3.48.74,4.68,1.94,1.2,1.2,1.94,2.85,1.94,4.68h.5c0-3.93-3.18-7.11-7.11-7.11-3.93,0-7.11,3.18-7.11,7.11,0,3.93,3.18,7.11,7.11,7.11,3.93,0,7.11-3.18,7.11-7.11h-.25Z"/>
  <g class="st12">
    <path d="M67.21,104.44l-2.36.03h-1.72l-2.21-.03c.05.62.08,1.05.08,1.76h.34l.04-.86c.01-.26.13-.36.44-.36h1.69c.03.37.04.62.04,1.09v4.61c0,.86-.05.95-.56.98l-.52.03v.33c.53-.02,1.06-.03,1.59-.03s1.07.01,1.6.03v-.33l-.52-.03c-.5-.03-.56-.12-.56-.98v-4.61c0-.49.01-.73.04-1.09h1.69c.31,0,.43.1.44.36l.04.86h.34c0-.71.02-1.13.08-1.76Z"/>
  </g>
  <circle class="st23" cx="37.31" cy="107" r="7.05" transform="translate(-74.29 126.69) rotate(-80.78)"/>
  <path class="st5" d="M44.36,107h-.25c0,1.88-.76,3.58-1.99,4.81-1.23,1.23-2.93,1.99-4.81,1.99-1.88,0-3.58-.76-4.81-1.99-1.23-1.23-1.99-2.93-1.99-4.81,0-1.88.76-3.58,1.99-4.81,1.23-1.23,2.93-1.99,4.81-1.99,1.88,0,3.58.76,4.81,1.99,1.23,1.23,1.99,2.93,1.99,4.81h.5c0-4.03-3.27-7.3-7.3-7.3-4.03,0-7.3,3.27-7.3,7.3,0,4.03,3.27,7.3,7.3,7.3,4.03,0,7.3-3.27,7.3-7.3h-.25Z"/>
  <circle class="st23" cx="37.76" cy="106.55" r="6.86"/>
  <path class="st5" d="M44.62,106.55h-.25c0,1.83-.74,3.48-1.94,4.68-1.2,1.2-2.85,1.94-4.68,1.94-1.83,0-3.48-.74-4.68-1.94-1.2-1.2-1.94-2.85-1.94-4.68,0-1.83.74-3.48,1.94-4.68,1.2-1.2,2.85-1.94,4.68-1.94,1.83,0,3.48.74,4.68,1.94,1.2,1.2,1.94,2.85,1.94,4.68h.5c0-3.93-3.18-7.11-7.11-7.11-3.93,0-7.11,3.18-7.11,7.11,0,3.93,3.18,7.11,7.11,7.11,3.93,0,7.11-3.18,7.11-7.11h-.25Z"/>
  <g class="st0">
    <path d="M40.89,102.95l-2.36.03h-1.72l-2.21-.03c.05.62.08,1.05.08,1.76h.34l.04-.86c.01-.26.13-.36.44-.36h1.69c.03.37.04.62.04,1.09v4.61c0,.86-.05.95-.56.98l-.52.03v.33c.53-.02,1.06-.03,1.59-.03s1.07.01,1.6.03v-.33l-.52-.03c-.5-.03-.56-.12-.56-.98v-4.61c0-.49.01-.73.04-1.09h1.69c.31,0,.43.1.44.36l.04.86h.34c0-.71.02-1.13.08-1.76Z"/>
  </g>
  <rect class="st10" x="327.52" y="7.1" width="76.65" height="46.33"/>
  <polygon class="st5" points="404.17 53.43 404.17 53.18 327.77 53.18 327.77 7.35 403.92 7.35 403.92 53.43 404.17 53.43 404.17 53.18 404.17 53.43 404.42 53.43 404.42 6.85 327.27 6.85 327.27 53.68 404.42 53.68 404.42 53.43 404.17 53.43"/>
  <circle class="st23" cx="340.13" cy="26.63" r="7.05" transform="translate(15.7 132.19) rotate(-22.5)"/>
  <path class="st5" d="M347.18,26.63h-.25c0,1.88-.76,3.58-1.99,4.81-1.23,1.23-2.93,1.99-4.81,1.99-1.88,0-3.58-.76-4.81-1.99-1.23-1.23-1.99-2.93-1.99-4.81,0-1.88.76-3.58,1.99-4.81,1.23-1.23,2.93-1.99,4.81-1.99,1.88,0,3.58.76,4.81,1.99,1.23,1.23,1.99,2.93,1.99,4.81h.5c0-4.03-3.27-7.3-7.3-7.3-4.03,0-7.3,3.27-7.3,7.3,0,4.03,3.27,7.3,7.3,7.3,4.03,0,7.3-3.27,7.3-7.3h-.25Z"/>
  <circle class="st23" cx="340.58" cy="26.18" r="6.86"/>
  <path class="st5" d="M347.44,26.18h-.25c0,1.83-.74,3.48-1.94,4.68-1.2,1.2-2.85,1.94-4.68,1.94-1.83,0-3.48-.74-4.68-1.94-1.2-1.2-1.94-2.85-1.94-4.68,0-1.83.74-3.48,1.94-4.68,1.2-1.2,2.85-1.94,4.68-1.94,1.83,0,3.48.74,4.68,1.94,1.2,1.2,1.94,2.85,1.94,4.68h.5c0-3.93-3.18-7.11-7.11-7.11-3.93,0-7.11,3.18-7.11,7.11,0,3.93,3.18,7.11,7.11,7.11,3.93,0,7.11-3.18,7.11-7.11h-.25Z"/>
  <g class="st1">
    <path d="M343.7,22.58l-2.36.03h-1.72l-2.21-.03c.05.62.08,1.05.08,1.76h.34l.04-.86c.01-.26.13-.36.44-.36h1.69c.03.37.04.62.04,1.09v4.61c0,.86-.05.95-.56.98l-.52.03v.33c.53-.02,1.06-.03,1.59-.03s1.07.01,1.6.03v-.33l-.52-.03c-.5-.03-.56-.12-.56-.98v-4.61c0-.49.01-.73.04-1.09h1.69c.31,0,.43.1.44.36l.04.86h.34c0-.71.02-1.13.08-1.76Z"/>
  </g>
  <circle class="st22" cx="363.13" cy="19.36" r="7.05"/>
  <path class="st5" d="M370.17,19.36h-.25c0,1.88-.76,3.58-1.99,4.81-1.23,1.23-2.93,1.99-4.81,1.99-1.88,0-3.58-.76-4.81-1.99-1.23-1.23-1.99-2.93-1.99-4.81,0-1.88.76-3.58,1.99-4.81,1.23-1.23,2.93-1.99,4.81-1.99,1.88,0,3.58.76,4.81,1.99,1.23,1.23,1.99,2.93,1.99,4.81h.5c0-4.03-3.27-7.3-7.3-7.3-4.03,0-7.3,3.27-7.3,7.3,0,4.03,3.27,7.3,7.3,7.3,4.03,0,7.3-3.27,7.3-7.3h-.25Z"/>
  <circle class="st22" cx="363.58" cy="18.91" r="6.86"/>
  <path class="st5" d="M370.44,18.91h-.25c0,1.83-.74,3.48-1.94,4.68-1.2,1.2-2.85,1.94-4.68,1.94-1.83,0-3.48-.74-4.68-1.94-1.2-1.2-1.94-2.85-1.94-4.68,0-1.83.74-3.48,1.94-4.68,1.2-1.2,2.85-1.94,4.68-1.94,1.83,0,3.48.74,4.68,1.94,1.2,1.2,1.94,2.85,1.94,4.68h.5c0-3.93-3.18-7.11-7.11-7.11-3.93,0-7.11,3.18-7.11,7.11,0,3.93,3.18,7.11,7.11,7.11,3.93,0,7.11-3.18,7.11-7.11h-.25Z"/>
  <g class="st13">
    <path d="M367.88,22.79v-.33l-.52-.03c-.5-.03-.56-.12-.56-.98v-4.9c0-.86.05-.95.56-.98l.52-.03v-.33c-.53.02-1.07.03-1.6.03s-1.06-.01-1.59-.03v.33l.52.03c.5.03.56.12.56.98v1.94c-.23.01-.46.02-.91.02h-2.55c-.45,0-.69-.01-.91-.02v-1.94c0-.86.05-.95.56-.98l.52-.03v-.33c-.53.02-1.07.03-1.6.03s-1.06-.01-1.59-.03v.33l.52.03c.5.03.56.12.56.98v4.9c0,.86-.05.95-.56.98l-.52.03v.33c.53-.02,1.06-.03,1.59-.03s1.07.01,1.6.03v-.33l-.52-.03c-.5-.03-.56-.12-.56-.98v-2.43c.29-.02.47-.02.91-.02h2.55c.44,0,.61,0,.91.02v2.43c0,.86-.05.95-.56.98l-.52.03v.33c.53-.02,1.06-.03,1.59-.03s1.07.01,1.6.03Z"/>
  </g>
  <circle class="st23" cx="357.13" cy="40.63" r="7.05" transform="translate(11.64 139.76) rotate(-22.5)"/>
  <path class="st5" d="M364.18,40.63h-.25c0,1.88-.76,3.58-1.99,4.81-1.23,1.23-2.93,1.99-4.81,1.99-1.88,0-3.58-.76-4.81-1.99-1.23-1.23-1.99-2.93-1.99-4.81,0-1.88.76-3.58,1.99-4.81,1.23-1.23,2.93-1.99,4.81-1.99,1.88,0,3.58.76,4.81,1.99,1.23,1.23,1.99,2.93,1.99,4.81h.5c0-4.03-3.27-7.3-7.3-7.3-4.03,0-7.3,3.27-7.3,7.3,0,4.03,3.27,7.3,7.3,7.3,4.03,0,7.3-3.27,7.3-7.3h-.25Z"/>
  <circle class="st23" cx="357.58" cy="40.18" r="6.86"/>
  <path class="st5" d="M364.44,40.18h-.25c0,1.83-.74,3.48-1.94,4.68-1.2,1.2-2.85,1.94-4.68,1.94-1.83,0-3.48-.74-4.68-1.94-1.2-1.2-1.94-2.85-1.94-4.68,0-1.83.74-3.48,1.94-4.68,1.2-1.2,2.85-1.94,4.68-1.94,1.83,0,3.48.74,4.68,1.94,1.2,1.2,1.94,2.85,1.94,4.68h.5c0-3.93-3.18-7.11-7.11-7.11-3.93,0-7.11,3.18-7.11,7.11,0,3.93,3.18,7.11,7.11,7.11,3.93,0,7.11-3.18,7.11-7.11h-.25Z"/>
  <g class="st6">
    <path d="M360.7,36.58l-2.36.03h-1.72l-2.21-.03c.05.62.08,1.05.08,1.76h.34l.04-.86c.01-.26.13-.36.44-.36h1.69c.03.37.04.62.04,1.09v4.61c0,.86-.05.95-.56.98l-.52.03v.33c.53-.02,1.06-.03,1.59-.03s1.07.01,1.6.03v-.33l-.52-.03c-.5-.03-.56-.12-.56-.98v-4.61c0-.49.01-.73.04-1.09h1.69c.31,0,.43.1.44.36l.04.86h.34c0-.71.02-1.13.08-1.76Z"/>
  </g>
  <circle class="st22" cx="391.13" cy="21.36" r="7.05"/>
  <path class="st5" d="M398.17,21.36h-.25c0,1.88-.76,3.58-1.99,4.81-1.23,1.23-2.93,1.99-4.81,1.99-1.88,0-3.58-.76-4.81-1.99-1.23-1.23-1.99-2.93-1.99-4.81,0-1.88.76-3.58,1.99-4.81,1.23-1.23,2.93-1.99,4.81-1.99,1.88,0,3.58.76,4.81,1.99,1.23,1.23,1.99,2.93,1.99,4.81h.5c0-4.03-3.27-7.3-7.3-7.3-4.03,0-7.3,3.27-7.3,7.3,0,4.03,3.27,7.3,7.3,7.3,4.03,0,7.3-3.27,7.3-7.3h-.25Z"/>
  <circle class="st22" cx="391.58" cy="20.91" r="6.86"/>
  <path class="st5" d="M398.44,20.91h-.25c0,1.83-.74,3.48-1.94,4.68-1.2,1.2-2.85,1.94-4.68,1.94-1.83,0-3.48-.74-4.68-1.94-1.2-1.2-1.94-2.85-1.94-4.68,0-1.83.74-3.48,1.94-4.68,1.2-1.2,2.85-1.94,4.68-1.94,1.83,0,3.48.74,4.68,1.94,1.2,1.2,1.94,2.85,1.94,4.68h.5c0-3.93-3.18-7.11-7.11-7.11-3.93,0-7.11,3.18-7.11,7.11,0,3.93,3.18,7.11,7.11,7.11,3.93,0,7.11-3.18,7.11-7.11h-.25Z"/>
  <g class="st7">
    <path d="M395.88,24.79v-.33l-.52-.03c-.5-.03-.56-.12-.56-.98v-4.9c0-.86.05-.95.56-.98l.52-.03v-.33c-.53.02-1.07.03-1.6.03s-1.06-.01-1.59-.03v.33l.52.03c.5.03.56.12.56.98v1.94c-.23.01-.46.02-.91.02h-2.55c-.45,0-.69-.01-.91-.02v-1.94c0-.86.05-.95.56-.98l.52-.03v-.33c-.53.02-1.07.03-1.6.03s-1.06-.01-1.59-.03v.33l.52.03c.5.03.56.12.56.98v4.9c0,.86-.05.95-.56.98l-.52.03v.33c.53-.02,1.06-.03,1.59-.03s1.07.01,1.6.03v-.33l-.52-.03c-.5-.03-.56-.12-.56-.98v-2.43c.29-.02.47-.02.91-.02h2.55c.44,0,.61,0,.91.02v2.43c0,.86-.05.95-.56.98l-.52.03v.33c.53-.02,1.06-.03,1.59-.03s1.07.01,1.6.03Z"/>
  </g>
  <circle class="st23" cx="379.13" cy="40.63" r="7.05" transform="translate(13.31 148.18) rotate(-22.5)"/>
  <path class="st5" d="M386.18,40.63h-.25c0,1.88-.76,3.58-1.99,4.81-1.23,1.23-2.93,1.99-4.81,1.99-1.88,0-3.58-.76-4.81-1.99-1.23-1.23-1.99-2.93-1.99-4.81,0-1.88.76-3.58,1.99-4.81,1.23-1.23,2.93-1.99,4.81-1.99,1.88,0,3.58.76,4.81,1.99,1.23,1.23,1.99,2.93,1.99,4.81h.5c0-4.03-3.27-7.3-7.3-7.3-4.03,0-7.3,3.27-7.3,7.3,0,4.03,3.27,7.3,7.3,7.3,4.03,0,7.3-3.27,7.3-7.3h-.25Z"/>
  <circle class="st23" cx="379.58" cy="40.18" r="6.86"/>
  <path class="st5" d="M386.44,40.18h-.25c0,1.83-.74,3.48-1.94,4.68-1.2,1.2-2.85,1.94-4.68,1.94-1.83,0-3.48-.74-4.68-1.94-1.2-1.2-1.94-2.85-1.94-4.68,0-1.83.74-3.48,1.94-4.68,1.2-1.2,2.85-1.94,4.68-1.94,1.83,0,3.48.74,4.68,1.94,1.2,1.2,1.94,2.85,1.94,4.68h.5c0-3.93-3.18-7.11-7.11-7.11-3.93,0-7.11,3.18-7.11,7.11,0,3.93,3.18,7.11,7.11,7.11,3.93,0,7.11-3.18,7.11-7.11h-.25Z"/>
  <g class="st8">
    <path d="M382.7,36.58l-2.36.03h-1.72l-2.21-.03c.05.62.08,1.05.08,1.76h.34l.04-.86c.01-.26.13-.36.44-.36h1.69c.03.37.04.62.04,1.09v4.61c0,.86-.05.95-.56.98l-.52.03v.33c.53-.02,1.06-.03,1.59-.03s1.07.01,1.6.03v-.33l-.52-.03c-.5-.03-.56-.12-.56-.98v-4.61c0-.49.01-.73.04-1.09h1.69c.31,0,.43.1.44.36l.04.86h.34c0-.71.02-1.13.08-1.76Z"/>
  </g>
  <g class="st17">
    <g class="st26">
      <path class="st14" d="M116.21,33.43h-1v86.07h1v-1.77h-.79v-1h.43l.28-1.69.08-.47V33.43M116.21,6.19h-1v26.24h1V6.19"/>
    </g>
    <g class="st18">
      <path class="st14" d="M236.8,33.01h0s-.07.42-.07.42h.56l-.07-.42h-.42M115.21,32.43h-3.31v1h3.31v-1M171.11,32.43h-54.9v1h54.74l.17-1M173.41,32.43h-.93l-.17,1h-.35,1.62l-.07-.42-.1-.58M180.27,32.43h-3.73l.17,1h1.28l.1-.58h.99s.1.58.1.58h.23l.1-.58h.71s.07-.42.07-.42M189.07,32.43h-7.25l.07.42h.5s.91,0,.91,0l.1.58h.93l.1-.58h.99s.1.58.1.58h2.69l.1-.58h.71s.07-.42.07-.42M216.35,32.43h-.23l-.1.58h-.86s-.83,0-.83,0l-.1-.58h-16.77l-.1.58h-.99s-.1-.58-.1-.58h-5.86l-.17,1h-.35,26.61l-.07-.42-.1-.58M235.88,32.43h-18.51l.07.42.1.58h18.18l.1-.58h0s.07-.42.07-.42M239.05,32.43h-.91l.07.42.1.58h.58l.1-.58h0s.07-.42.07-.42M243.81,32.43h-2.34l-.1.58h-.7s-.14,0-.14,0h-.14s-.42,0-.42,0h0s-.07.42-.07.42h4.08l-.07-.42-.1-.58M295.21,32.43h-17.48l-.1.58h-.99s-.1-.58-.1-.58h-30.85l-.1.58-.07.42h49.68v-1"/>
      <polyline class="st21" points="116.21 32.43 115.21 32.43 115.21 33.43 116.21 33.43 116.21 32.43"/>
    </g>
    <path class="st4" d="M123.8,85.7h0M126.34,79.22h0M155.13,43.55h0s0,0,0,0h0M155.13,43.55h0M171.96,33.43h-1.01l-.25,1.53h-.51s-.62,0-.62,0l-.07-.42h-1.2l-.42,2.52-.28,1.69h-.35l-.43,2.53h0s-.35,2.11-.35,2.11l-.03.21-.03-.21h-.99l-.21,1.26-.21-1.26h-.71s-.35-2.1-.35-2.1l-.35-2.11h-.99s-.21,1.26-.21,1.26l-.56-3.37h-.99s0,0,0,0h-.71l-.35,2.11h-.7l-.28,1.69h-.21l-.29-1.69-.35-2.11h-.99s-.28,1.69-.28,1.69h-.35l-.35,2.11h-.7l-.07.42h-.7s-.36,2.11-.36,2.11h-.7s-.35,2.11-.35,2.11l-.21,1.26-.28-1.68h-.35l-.29-1.69h-.99s-.28,1.69-.28,1.69h-.7l-.07.42h-.7s-.35,2.11-.35,2.11l-.35,2.11-.35,2.1-.29,1.69h-.21l-.35-2.11h-1.2l-.42,2.53h-.7s0,0,0,0h-.71s-.03.21-.03.21l-.03-.21h-.99s-.03.21-.03.21l-.03-.2-.35-2.12-.36-2.11h-.99s-.35,2.11-.35,2.11h0s-.7,0-.7,0l-.03.21-.03-.21h-.99s-.28,1.69-.28,1.69h-.35l-.36,2.11h-.35l-.42,2.53h-.7s-.35,2.11-.35,2.11l-.35,2.11-.35,2.11h0s-.29,1.69-.29,1.69h-.21l-.28-1.69h-.99s-.35,2.11-.35,2.11h-.42s0,0,0,0h-.99s-.35,2.11-.35,2.11h0s-.7,0-.7,0l-.28,1.69h-1.05l-.42,2.52-.36,2.11-.21,1.26-.21-1.26h-.99s0,0,0,0h-.7s-.35,2.11-.35,2.11l-.21,1.27-.21-1.27h-.99l-.35,2.11-.35,2.11h0s-.7,0-.7,0l-.28,1.69h-.35l-.43,2.52-.35,2.11-.35,2.11-.35,2.11h0s-.35,2.1-.35,2.1h0s-.63,3.8-.63,3.8h-.35l-.35,2.11h-.36l-.35,2.11h-.35l-.35,2.11h-.35l-.42,2.53-.35,2.1-.35,2.1-.28,1.7h-.36l-.34,2.05v3.16h.49l.42-2.52h0s.28-1.69.28-1.69h.36l.42-2.52h0s.35-2.11.35-2.11l.35-2.1.28-1.69h.35l.35-2.11h.35l.35-2.11h.36l.35-2.11h.35l.77-4.64h0s.35-2.1.35-2.1h0s.35-2.11.35-2.11h0s.35-2.1.35-2.1l.35-2.11.29-1.69h.35l.07-.42h.7s.35-2.11.35-2.11l.21-1.26.21,1.26h.99s.36-2.1.36-2.1h0s.35-2.11.35-2.11h0s.42,0,.42,0l.07.42h1.55l.42-2.52.36-2.11.03-.2.03.2h.99s.35-2.11.35-2.11h.7l.35-2.11h.53s.88,0,.88,0l.21-1.26.21,1.26h.99l.28-1.69h.35l.43-2.53.35-2.11.35-2.11h.7s.35-2.11.35-2.11l.28-1.69h.35l.36-2.11h1.41l.07-.42h.7s.21-1.27.21-1.27l.21,1.27.42,2.53h2.25l.07-.42h.7s0,0,0,0h.71s.35-2.11.35-2.11l.03-.21.03.21.35,2.11h.99s.28-1.69.28-1.69h.35l.43-2.53.35-2.11.35-2.11h0s.7,0,.7,0l.28-1.69h.91l.28,1.69.35,2.11h.99s.35-2.11.35-2.11l.35-2.11h.7s.35-2.11.35-2.11h.71s.28-1.69.28-1.69h.7l.35-2.11h.21l.29,1.69.35,2.11h.99s.28-1.69.28-1.69h.35l.07-.42h.7s.35-2.11.35-2.11h.42s.35,2.11.35,2.11l.35,2.11h.99s.21-1.26.21-1.26l.21,1.26.35,2.11h.71s.07.42.07.42h2.61l.42-2.53.35-2.1.29-1.69h.35l.42-2.53.03-.2.03.2h.7s.14,0,.14,0h.14s0,0,0,0h.42s0,0,0,0h.99s.35-2.11.35-2.11l.28-1.69M175.13,33.43h-1.55l.28,1.69h.99s.28-1.69.28-1.69M185.83,37.23h0s0,0,0,0M189.91,33.43h-1.72l-.19,1.11h-.35l-.35,2.11h-.35l-.1.62-.03-.21h0s-.36-2.11-.36-2.11h-.7s-.25-1.53-.25-1.53h-1.18l-.19,1.11h-.35l-.1.62-.03-.21h0s-.26-1.53-.26-1.53h-4l-.11.68-.11-.68h-1.18l-.19,1.11h-.91l-.19-1.11h-1.01l.35,2.11h.71l.28,1.69h.99s.28-1.69.28-1.69h1.76l.07-.42h.71s.21-1.26.21-1.26l.21,1.26h.7s0,0,0,0h.71s0,0,0,0h0s.42,2.52.42,2.52h1.2l.35-2.11h.21l.28,1.69h.71s.42,2.53.42,2.53h1.2l.35-2.11h.35l.35-2.11h.35l.07-.42h.7s.29-1.69.29-1.69M236.73,33.43h-1.01l-.18,1.11h-.35l-.42,2.52-.35,2.11h-.7l-.28,1.69h-1.41l-.1.62-.1-.62h-1.2l-.35,2.11h-.35l-.11.63-.04-.22-.35-2.11h-.99s-.21,1.26-.21,1.26l-.28-1.67h-.35l-.29-1.69h-.99s-.03.21-.03.21l-.39-2.31-.42-2.52h-1.2l-.42,2.52h0s-.36,2.11-.36,2.11h0s-.21,1.26-.21,1.26l-.63-3.79h-1.2l-.35,2.11h-.21l-.28-1.69h-.99l-.03.21-.03-.21h-.99s-.03.2-.03.2l-.1-.62h-.36l-.28-1.69-.25-1.53h-1.01l.28,1.69.42,2.52h.36l.35,2.11h2.46l.29,1.69h.99s.39-2.31.39-2.31l.39,2.31.35,2.11h.99l.35-2.11.35-2.11h0s.36-2.11.36-2.11h0s.03-.2.03-.2l.03.2.77,4.64h1.41l.35,2.11h1.41l.35,2.11h1.2l.36-2.11h.35l.1-.62.1.62h1.2l.28-1.68.21,1.26h.99s.35-2.11.35-2.11h0s.7,0,.7,0l.7-4.22.28-1.69h.35l.35-2.11M239.89,33.43h-1.01l-.25,1.53-.03.21-.03-.21-.25-1.53h-1.01l.28,1.69.42,2.52h1.2l.42-2.52.28-1.69M245.53,33.43h-1.55l.28,1.69h.99s.28-1.69.28-1.69M236.17,30.74l-.29,1.69h2.26l-.28-1.69h-1.69M173.08,28.64h-.14s-.14,0-.14,0h0s-.7,0-.7,0l-.35,2.11-.28,1.69h-.35,1.37l.25-1.52h0s.42,0,.42,0h0s.26,1.52.26,1.52h3.12-.35l-.28-1.69h-.99s-.28,1.69-.28,1.69h-.21l-.29-1.69-.35-2.11h-.7s0,0,0,0M203.64,15.57h-2.96l-.28,1.68-.21-1.26h-.99s-.35,2.11-.35,2.11l-.35,2.1-.36,2.11h0s-.35,2.11-.35,2.11l-.35,2.11-.35,2.11-.21,1.26-.21-1.26-.35-2.11h-.99s-.21,1.26-.21,1.26l-.21-1.26h-.99s0,0,0,0h-.7s-.35,2.11-.35,2.11l-.21,1.27-.21-1.27-.42-2.52h-1.2l-.42,2.52-.28,1.69h-.35l-.35,2.1h-.35,1.36l.18-1.1h.35l.42-2.53h0s.03-.21.03-.21l.03.21h0s.42,2.53.42,2.53h1.55l.42-2.53h0s.42,0,.42,0l.35,2.11h.99s.21-1.27.21-1.27l.21,1.27.25,1.52h1.18l.25-1.52.35-2.11.35-2.1.35-2.11.35-2.1h0s.36-2.11.36-2.11l.21-1.26.21,1.26h.99l.35-2.11.03-.2.03.2h.99s.29-1.69.29-1.69h.21l.35,2.11h.35l.28,1.69.35,2.11.42,2.52h1.2l.42-2.52.35-2.11h.7l.28-1.69h.21l.36,2.1h.35l.28,1.69.35,2.11.42,2.53h.35l.28,1.69h.7s.07.42.07.42h1.2l.1-.62.03.2h.99s0,0,0,0h.42s0,0,0,0h0l.35,2.11h0s.26,1.52.26,1.52h1.88l.11-.67.11.67h1.01l-.35-2.1h-1.55l-.07.42h-.42s0,0,0,0l-.35-2.11-.35-2.1h-.99s-.42,0-.42,0l-.07-.42h-1.2l-.11.63-.04-.21h-.7s-.07-.42-.07-.42h-.35l-.28-1.69-.35-2.11-.42-2.53h-.35l-.36-2.1h-1.9l-.07.42h-.7s-.35,2.11-.35,2.11l-.35,2.11-.04.21-.04-.21-.35-2.11-.42-2.52h-.35l-.35-2.11M280.17,28.63h0M245.67,26.53h0M265.95,11.36h-1.2l-.43,2.53h0s-.28,1.69-.28,1.69h-.21l-.28-1.69h-.99s-.35,2.11-.35,2.11l-.35,2.11-.35,2.11h0s0,0,0,0h-.71s-.35,2.11-.35,2.11l-.35,2.11-.28,1.69h-.7l-.07.42h-.7s-.36,2.11-.36,2.11l-.03.21-.1-.62h-.35l-.28-1.69h-.7s-.35-2.11-.35-2.11h-.99s0,0,0,0h-.42s0,0,0,0l-.35-2.1h-.99l-.35,2.11-.03.2-.03-.2h-.99s-.36,2.11-.36,2.11l-.21,1.26-.28-1.67h-.7l-.28-1.69h-.71s0,0,0,0h0s-.42-2.52-.42-2.52h-1.2l-.42,2.52h0s-.42,0-.42,0h0s-.99,0-.99,0l-.35,2.11-.36,2.1-.35,2.11h0s-.21,1.26-.21,1.26l-.21-1.26h0s-.35-2.11-.35-2.11h0s-.35-2.11-.35-2.11l-.35-2.11h0s-.36-2.11-.36-2.11h-.99s-.35,2.11-.35,2.11l-.35,2.11-.35,2.11-.35,2.11h-1.41s-.29,1.69-.29,1.69h2.42l.25-1.52.35-2.11.35-2.1.21-1.27.21,1.27h0s.35,2.11.35,2.11h0s.35,2.11.35,2.11h0s.25,1.52.25,1.52h1.88l.25-1.52h0s.35-2.11.35-2.11h0s.36-2.1.36-2.1h0s.42,0,.42,0h0s.99,0,.99,0l.35-2.11.03-.2.03.2.36,2.11h.7s.07.42.07.42h.7l.28,1.69h0s.35,2.11.35,2.11h.99s.35-2.11.35-2.11l.28-1.69h1.06l.28-1.68.21,1.26h.88s.53,0,.53,0l.35,2.1h.7s.07.42.07.42h.35l.35,2.11h1.2l.42-2.53h0s0,0,0,0h.71s.28-1.69.28-1.69h.7l.42-2.53.35-2.11h.7s.35-2.1.35-2.1l.35-2.11.28-1.69h.21l.28,1.69h.99l.35-2.11.35-2.11h0s.04-.22.04-.22l.04.22.35,2.11.35,2.11.35,2.11.35,2.11h.99l.28-1.69h.21l.28,1.69h.99s.35-2.11.35-2.11l.28-1.69h.35l.07-.42h.7s0,0,0,0h.71s.21-1.26.21-1.26l.21,1.26.35,2.11.35,2.11.35,2.11.43,2.53h1.2l.28-1.68.21,1.26.35,2.11.35,2.11.25,1.52h1.18l.26-1.52.35-2.12h0s0,0,0,0h.7s.03-.2.03-.2l.1.62h.35l.28,1.69h.99s.36-2.11.36-2.11h0s.21-1.26.21-1.26l.21,1.26h.99s.35-2.1.35-2.1h0s.7,0,.7,0l.28-1.69h.36l.07-.42h.7l.35-2.11h.42s0,0,0,0h.71s0,0,0,0h.99s.28-1.69.28-1.69h.21l.35,2.11h.35l.28,1.69.35,2.11.36,2.1.42,2.53h1.2l.35-2.11h.43v-1h-1.28l-.1.62-.03-.2-.36-2.1-.35-2.11-.42-2.52h-.35l-.28-1.69-.35-2.1h-.99s-.28,1.69-.28,1.69h-.35l-.07.42h-.53s-.6,0-.6,0h0s-.99,0-.99,0l-.35,2.11h0s-.7,0-.7,0l-.28,1.69h-.36l-.07.42h-.7s-.21,1.26-.21,1.26l-.21-1.26h-.99l-.35,2.11-.28,1.69h-.21l-.35-2.1h-1.2l-.07.42h-.7l-.35,2.11-.21,1.27-.21-1.27-.35-2.11-.35-2.11-.35-2.1h-.99s-.35,2.1-.35,2.1l-.04.22-.04-.22h0s-.35-2.1-.35-2.1l-.35-2.11-.35-2.11-.42-2.53h-1.55l-.07.42h-.7s0,0,0,0h-.71s-.28,1.69-.28,1.69h-.35l-.28,1.67-.21-1.26h-.99s-.29,1.69-.29,1.69h-.21l-.28-1.69-.35-2.11-.35-2.11-.42-2.53"/>
    <polyline class="st16" points="116.21 114.57 116.13 115.04 115.85 116.73 115.42 116.73 115.42 117.73 116.21 117.73 116.21 114.57"/>
    <path class="st16" d="M178.08,32.85l-.1.58h1.18l-.1-.58h-.99M184.42,32.85l-.1.58h1.18l-.1-.58h-.99M172.48,32.43h-1.37l-.17,1h1.36l.17-1M176.53,32.43h-3.12l.1.58.07.42h3.12l-.17-1M181.82,32.43h-1.55l-.07.42h-.71s-.1.58-.1.58h4l-.1-.58h-.91s-.5,0-.5,0l-.07-.42M190.43,32.43h-1.36l-.07.42h-.71s-.1.58-.1.58h2.07l.17-1M197.47,32.43h-1.18l.1.58h.99s.1-.58.1-.58M216.13,32.43h-1.88l.1.58h.83s.86,0,.86,0l.1-.58M217.37,32.43h-1.01l.1.58.07.42h1.01l-.1-.58-.07-.42M238.14,32.43h-2.26l-.07.42h0s-.1.58-.1.58h1.01l.07-.42h0s.42,0,.42,0l.07.42h1.01l-.1-.58-.07-.42M241.47,32.43h-2.42l-.07.42h0s-.1.58-.1.58h1.01l.07-.42h0s.42,0,.42,0h0s.14,0,.14,0h.14s0,0,0,0h.7s.1-.58.1-.58M245.69,32.43h-1.88l.1.58.07.42h1.55l.07-.42.1-.58M277.73,32.43h-1.18l.1.58h.99s.1-.58.1-.58"/>
    <polyline class="st19" points="115.47 117.23 115.47 115.07 115.67 115.07 115.67 117.23"/>
    <polyline class="st19" points="122.51 117.23 122.51 115.94 122.71 115.94 122.71 117.23"/>
    <polyline class="st19" points="129.55 117.23 129.55 115.94 129.75 115.94 129.75 117.23"/>
    <polyline class="st19" points="136.59 117.23 136.59 115.94 136.79 115.94 136.79 117.23"/>
    <polyline class="st19" points="143.63 117.23 143.63 115.94 143.83 115.94 143.83 117.23"/>
    <polyline class="st19" points="150.67 117.23 150.67 115.07 150.87 115.07 150.87 117.23"/>
    <path d="M155.53,125.75c.26-.5.65-.74,1.16-.74.59,0,1.01.32,1.26.96s.38,1.63.38,2.96c0,.85-.05,1.57-.16,2.14s-.28.99-.51,1.22-.52.36-.87.36-.67-.13-.93-.4-.45-.71-.56-1.32-.17-1.29-.17-2.03c0-1.61.13-2.67.39-3.16ZM154.26,130.76c.08.47.23.88.44,1.23s.48.61.8.8.7.28,1.13.28c.85,0,1.51-.37,1.99-1.11s.72-1.89.72-3.45c0-.96-.09-1.72-.26-2.28s-.46-.97-.86-1.24-.86-.4-1.38-.4c-.46,0-.87.11-1.23.33s-.66.54-.9.98-.4.93-.47,1.49-.11,1.18-.11,1.88c0,.54.04,1.04.13,1.51ZM149.53,125.75c.26-.5.65-.74,1.16-.74.59,0,1.01.32,1.26.96s.38,1.63.38,2.96c0,.85-.05,1.57-.16,2.14s-.28.99-.51,1.22-.52.36-.87.36-.67-.13-.93-.4-.45-.71-.56-1.32-.17-1.29-.17-2.03c0-1.61.13-2.67.39-3.16ZM148.26,130.76c.08.47.23.88.44,1.23s.48.61.8.8.7.28,1.13.28c.85,0,1.51-.37,1.99-1.11s.72-1.89.72-3.45c0-.96-.09-1.72-.26-2.28s-.46-.97-.86-1.24-.86-.4-1.38-.4c-.46,0-.87.11-1.23.33s-.66.54-.9.98-.4.93-.47,1.49-.11,1.18-.11,1.88c0,.54.04,1.04.13,1.51ZM143.35,125.88l.58-.26c.14-.06.23-.1.26-.11h.06c.06-.01.1.04.1.13s0,.71,0,1.85v2.31s0,.36-.03,1.03-.04,1.08-.07,1.21-.06.23-.11.28l-.19.1c-.08.02-.42.05-1,.09l-.05.05v.26l.04.05c1.04-.03,1.69-.05,1.95-.05.35,0,.96.02,1.81.05l.04-.05v-.26l-.04-.05c-.5-.03-.81-.05-.91-.06s-.18-.04-.24-.09l-.12-.2c-.02-.08-.04-.36-.05-.83s-.02-.97-.02-1.51v-2.17c0-.34.03-1.37.09-3.08l-.15-.06c-.26.13-.69.32-1.28.57s-1.09.43-1.48.54l-.06.06.06.48.11.04c.21-.12.44-.23.69-.33Z"/>
    <polyline class="st19" points="157.71 117.23 157.71 115.94 157.91 115.94 157.91 117.23"/>
    <polyline class="st19" points="164.75 117.23 164.75 115.94 164.95 115.94 164.95 117.23"/>
    <polyline class="st19" points="171.79 117.23 171.79 115.94 171.99 115.94 171.99 117.23"/>
    <polyline class="st19" points="178.83 117.23 178.83 115.94 179.03 115.94 179.03 117.23"/>
    <polyline class="st19" points="185.87 117.23 185.87 115.07 186.07 115.07 186.07 117.23"/>
    <path d="M190.73,125.75c.26-.5.65-.74,1.16-.74.59,0,1.01.32,1.26.96s.38,1.63.38,2.96c0,.85-.05,1.57-.16,2.14s-.28.99-.51,1.22-.52.36-.87.36-.67-.13-.93-.4-.45-.71-.56-1.32-.17-1.29-.17-2.03c0-1.61.13-2.67.39-3.16ZM189.46,130.76c.08.47.23.88.44,1.23s.48.61.8.8.7.28,1.13.28c.85,0,1.51-.37,1.99-1.11s.72-1.89.72-3.45c0-.96-.09-1.72-.26-2.28s-.46-.97-.86-1.24-.86-.4-1.38-.4c-.46,0-.87.11-1.23.33s-.66.54-.9.98-.4.93-.47,1.49-.11,1.18-.11,1.88c0,.54.04,1.04.13,1.51ZM184.73,125.75c.26-.5.65-.74,1.16-.74.59,0,1.01.32,1.26.96s.38,1.63.38,2.96c0,.85-.05,1.57-.16,2.14s-.28.99-.51,1.22-.52.36-.87.36-.67-.13-.93-.4-.45-.71-.56-1.32-.17-1.29-.17-2.03c0-1.61.13-2.67.39-3.16ZM183.46,130.76c.08.47.23.88.44,1.23s.48.61.8.8.7.28,1.13.28c.85,0,1.51-.37,1.99-1.11s.72-1.89.72-3.45c0-.96-.09-1.72-.26-2.28s-.46-.97-.86-1.24-.86-.4-1.38-.4c-.46,0-.87.11-1.23.33s-.66.54-.9.98-.4.93-.47,1.49-.11,1.18-.11,1.88c0,.54.04,1.04.13,1.51ZM178.54,132.85c.64,0,1.15-.01,1.53-.01.19,0,.57,0,1.15.02s1.01.03,1.29.04l.04-.06c-.02-.11-.04-.27-.04-.46,0-.21.01-.39.04-.52l-.04-.05c-.47.05-1.06.08-1.78.08h-2.31l1.83-1.86c.45-.45.8-.83,1.06-1.16s.46-.66.59-1,.2-.69.2-1.03c0-.46-.12-.87-.35-1.22s-.54-.6-.91-.76-.78-.23-1.19-.23c-.35,0-.68.05-1,.15s-.66.33-1.03.69c-.04.52-.1,1.04-.19,1.56l.06.05h.24l.05-.05c.15-.56.27-.9.35-1.02s.24-.23.47-.33.51-.15.83-.15c.49,0,.88.16,1.17.47s.43.71.43,1.19c0,.41-.12.84-.36,1.31s-.76,1.13-1.57,1.99l-1.96,2.08v.27l.07.06c.23-.02.67-.03,1.31-.04Z"/>
    <polyline class="st19" points="192.91 117.23 192.91 115.94 193.11 115.94 193.11 117.23"/>
    <polyline class="st19" points="199.95 117.23 199.95 115.94 200.15 115.94 200.15 117.23"/>
    <polyline class="st19" points="206.99 117.23 206.99 115.94 207.19 115.94 207.19 117.23"/>
    <polyline class="st19" points="214.03 117.23 214.03 115.94 214.23 115.94 214.23 117.23"/>
    <polyline class="st19" points="221.07 117.23 221.07 115.07 221.27 115.07 221.27 117.23"/>
    <path d="M225.93,125.75c.26-.5.65-.74,1.16-.74.59,0,1.01.32,1.26.96s.38,1.63.38,2.96c0,.85-.05,1.57-.16,2.14s-.28.99-.51,1.22-.52.36-.87.36-.67-.13-.93-.4-.45-.71-.56-1.32-.17-1.29-.17-2.03c0-1.61.13-2.67.39-3.16ZM224.66,130.76c.08.47.23.88.44,1.23s.48.61.8.8.7.28,1.13.28c.85,0,1.51-.37,1.99-1.11s.72-1.89.72-3.45c0-.96-.09-1.72-.26-2.28s-.46-.97-.86-1.24-.86-.4-1.38-.4c-.46,0-.87.11-1.23.33s-.66.54-.9.98-.4.93-.47,1.49-.11,1.18-.11,1.88c0,.54.04,1.04.13,1.51ZM219.93,125.75c.26-.5.65-.74,1.16-.74.59,0,1.01.32,1.26.96s.38,1.63.38,2.96c0,.85-.05,1.57-.16,2.14s-.28.99-.51,1.22-.52.36-.87.36-.67-.13-.93-.4-.45-.71-.56-1.32-.17-1.29-.17-2.03c0-1.61.13-2.67.39-3.16ZM218.66,130.76c.08.47.23.88.44,1.23s.48.61.8.8.7.28,1.13.28c.85,0,1.51-.37,1.99-1.11s.72-1.89.72-3.45c0-.96-.09-1.72-.26-2.28s-.46-.97-.86-1.24-.86-.4-1.38-.4c-.46,0-.87.11-1.23.33s-.66.54-.9.98-.4.93-.47,1.49-.11,1.18-.11,1.88c0,.54.04,1.04.13,1.51ZM213.59,132.97c.23.04.48.07.74.07.89,0,1.68-.3,2.36-.9s1.02-1.27,1.02-2.02c0-.46-.14-.85-.41-1.17s-.75-.52-1.43-.61c.41-.29.73-.6.96-.92s.35-.68.35-1.08c0-.51-.2-.94-.59-1.27s-.91-.51-1.54-.51c-.84,0-1.5.28-1.99.83l-.35,1.36.05.05h.26l.06-.05c.14-.39.25-.65.32-.79.16-.16.35-.29.59-.4s.5-.16.76-.16c.41,0,.75.13,1.03.39s.42.59.42.97c0,.44-.13.82-.4,1.15s-.63.49-1.09.49c-.11,0-.32,0-.63-.03l-.13.64.06.06c.27-.11.47-.18.6-.21s.28-.05.44-.05c.48,0,.86.15,1.13.45s.41.71.41,1.22c0,.39-.07.73-.21,1.04s-.33.55-.58.73-.59.27-1.02.27c-.34,0-.66-.06-.95-.19s-.52-.3-.67-.54-.3-.53-.44-.89l-.08-.04-.22.08-.03.09c.19.65.32,1.2.39,1.66.31.14.58.23.81.27Z"/>
    <polyline class="st19" points="228.11 117.23 228.11 115.94 228.31 115.94 228.31 117.23"/>
    <polyline class="st19" points="235.15 117.23 235.15 115.94 235.35 115.94 235.35 117.23"/>
    <polyline class="st19" points="242.19 117.23 242.19 115.94 242.39 115.94 242.39 117.23"/>
    <polyline class="st19" points="249.23 117.23 249.23 115.94 249.43 115.94 249.43 117.23"/>
    <polyline class="st19" points="256.27 117.23 256.27 115.07 256.47 115.07 256.47 117.23"/>
    <path d="M261.13,125.75c.26-.5.65-.74,1.16-.74.59,0,1.01.32,1.26.96s.38,1.63.38,2.96c0,.85-.05,1.57-.16,2.14s-.28.99-.51,1.22-.52.36-.87.36-.67-.13-.93-.4-.45-.71-.56-1.32-.17-1.29-.17-2.03c0-1.61.13-2.67.39-3.16ZM259.86,130.76c.08.47.23.88.44,1.23s.48.61.8.8.7.28,1.13.28c.85,0,1.51-.37,1.99-1.11s.72-1.89.72-3.45c0-.96-.09-1.72-.26-2.28s-.46-.97-.86-1.24-.86-.4-1.38-.4c-.46,0-.87.11-1.23.33s-.66.54-.9.98-.4.93-.47,1.49-.11,1.18-.11,1.88c0,.54.04,1.04.13,1.51ZM255.13,125.75c.26-.5.65-.74,1.16-.74.59,0,1.01.32,1.26.96s.38,1.63.38,2.96c0,.85-.05,1.57-.16,2.14s-.28.99-.51,1.22-.52.36-.87.36-.67-.13-.93-.4-.45-.71-.56-1.32-.17-1.29-.17-2.03c0-1.61.13-2.67.39-3.16ZM253.86,130.76c.08.47.23.88.44,1.23s.48.61.8.8.7.28,1.13.28c.85,0,1.51-.37,1.99-1.11s.72-1.89.72-3.45c0-.96-.09-1.72-.26-2.28s-.46-.97-.86-1.24-.86-.4-1.38-.4c-.46,0-.87.11-1.23.33s-.66.54-.9.98-.4.93-.47,1.49-.11,1.18-.11,1.88c0,.54.04,1.04.13,1.51ZM249.35,127.99c.57-.93,1.04-1.67,1.42-2.2l-.05,4.17h-2.5c.19-.38.57-1.03,1.14-1.96ZM251.26,132.83c.46,0,1.04.02,1.73.05l.05-.05v-.25l-.05-.05c-.38,0-.65-.02-.8-.04s-.26-.06-.31-.12-.09-.17-.11-.35-.04-.49-.04-.93v-.39h.3c.25,0,.57.01.95.04l.06-.05c0-.12-.01-.25-.02-.38,0-.07,0-.17.01-.32l-.05-.06c-.29.02-.71.03-1.25.04v-1.21l.02-1.65c0-.98.02-1.8.06-2.47l-.15-.07-.83.33c-1.59,2.41-2.72,4.26-3.4,5.53l.1.32c.52-.02,1.15-.04,1.89-.04h1.28v.43c0,.27-.01.53-.04.77s-.06.39-.11.46-.13.1-.24.12-.45.04-1.03.05l-.05.05v.25l.05.05c.55-.03,1.21-.05,1.97-.05Z"/>
    <polyline class="st19" points="263.31 117.23 263.31 115.94 263.51 115.94 263.51 117.23"/>
    <polyline class="st19" points="270.35 117.23 270.35 115.94 270.55 115.94 270.55 117.23"/>
    <polyline class="st19" points="277.39 117.23 277.39 115.94 277.59 115.94 277.59 117.23"/>
    <polyline class="st19" points="284.43 117.23 284.43 115.94 284.63 115.94 284.63 117.23"/>
    <polyline class="st19" points="291.47 117.23 291.47 115.07 291.67 115.07 291.67 117.23"/>
    <path d="M296.33,125.75c.26-.5.65-.74,1.16-.74.59,0,1.01.32,1.26.96s.38,1.63.38,2.96c0,.85-.05,1.57-.16,2.14s-.28.99-.51,1.22-.52.36-.87.36-.67-.13-.93-.4-.45-.71-.56-1.32-.17-1.29-.17-2.03c0-1.61.13-2.67.39-3.16ZM295.06,130.76c.08.47.23.88.44,1.23s.48.61.8.8.7.28,1.13.28c.85,0,1.51-.37,1.99-1.11s.72-1.89.72-3.45c0-.96-.09-1.72-.26-2.28s-.46-.97-.86-1.24-.86-.4-1.38-.4c-.46,0-.87.11-1.23.33s-.66.54-.9.98-.4.93-.47,1.49-.11,1.18-.11,1.88c0,.54.04,1.04.13,1.51ZM290.33,125.75c.26-.5.65-.74,1.16-.74.59,0,1.01.32,1.26.96s.38,1.63.38,2.96c0,.85-.05,1.57-.16,2.14s-.28.99-.51,1.22-.52.36-.87.36-.67-.13-.93-.4-.45-.71-.56-1.32-.17-1.29-.17-2.03c0-1.61.13-2.67.39-3.16ZM289.06,130.76c.08.47.23.88.44,1.23s.48.61.8.8.7.28,1.13.28c.85,0,1.51-.37,1.99-1.11s.72-1.89.72-3.45c0-.96-.09-1.72-.26-2.28s-.46-.97-.86-1.24-.86-.4-1.38-.4c-.46,0-.87.11-1.23.33s-.66.54-.9.98-.4.93-.47,1.49-.11,1.18-.11,1.88c0,.54.04,1.04.13,1.51ZM283.91,132.98c.18.05.4.07.68.07,1.02,0,1.86-.33,2.51-1s.98-1.4.98-2.19c0-.43-.1-.83-.29-1.2s-.49-.65-.88-.85-.8-.29-1.22-.29c-.3,0-.58.04-.84.13s-.55.24-.87.48c.02-1.16.06-1.98.12-2.44.16,0,.76-.01,1.78-.01.75,0,1.35.02,1.79.05l.06-.04c-.01-.19-.02-.33-.02-.41,0-.16.01-.34.04-.53l-.02-.06c-.81.05-1.51.07-2.09.07-.77,0-1.45-.02-2.04-.07l-.08.06s0,.16.02.33c.02.29.03.58.03.9v1.04c0,.24,0,.48-.02.72l-.06,1.26.24.07c.16-.18.31-.32.42-.41s.27-.17.45-.23.38-.09.59-.09c.35,0,.67.08.97.23s.52.39.67.69.22.66.22,1.08-.07.81-.22,1.14-.38.59-.68.76-.65.26-1.05.26c-.32,0-.62-.05-.9-.16s-.47-.2-.55-.28-.28-.42-.61-1l-.07-.02-.21.12v.08c.28.7.47,1.21.57,1.51.21.11.4.18.58.23Z"/>
    <polyline class="st19" points="111.9 117.13 295.24 117.13 295.24 117.33 111.9 117.33"/>
    <polyline class="st19" points="115.57 117.13 117.73 117.13 117.73 117.33 115.57 117.33"/>
    <polyline class="st19" points="115.57 112.92 116.87 112.92 116.87 113.12 115.57 113.12"/>
    <polyline class="st19" points="115.57 108.7 116.87 108.7 116.87 108.9 115.57 108.9"/>
    <polyline class="st19" points="115.57 104.49 116.87 104.49 116.87 104.69 115.57 104.69"/>
    <polyline class="st19" points="115.57 100.27 116.87 100.27 116.87 100.47 115.57 100.47"/>
    <polyline class="st19" points="115.57 96.06 117.73 96.06 117.73 96.26 115.57 96.26"/>
    <path d="M108.33,93.58c.26-.5.65-.74,1.16-.74.59,0,1.01.32,1.26.96s.38,1.63.38,2.96c0,.85-.05,1.57-.16,2.14s-.28.99-.51,1.22-.52.36-.87.36-.67-.13-.93-.4-.45-.71-.56-1.32-.17-1.29-.17-2.03c0-1.61.13-2.67.39-3.16ZM107.06,98.59c.08.47.23.88.44,1.23s.48.61.8.8.7.28,1.13.28c.85,0,1.51-.37,1.99-1.11s.72-1.89.72-3.45c0-.96-.09-1.72-.26-2.28s-.46-.97-.86-1.24-.86-.4-1.38-.4c-.46,0-.87.11-1.23.33s-.66.54-.9.98-.4.93-.47,1.49-.11,1.18-.11,1.88c0,.54.04,1.04.13,1.51ZM102.15,93.71l.58-.26c.14-.06.23-.1.26-.11h.06c.06-.01.1.04.1.13s0,.71,0,1.85v2.31s0,.36-.03,1.03-.04,1.08-.07,1.21-.06.23-.11.28l-.19.1c-.08.02-.42.05-1,.09l-.05.05v.26l.04.05c1.04-.03,1.69-.05,1.95-.05.35,0,.96.02,1.81.05l.04-.05v-.26l-.04-.05c-.5-.03-.81-.05-.91-.06s-.18-.04-.24-.09l-.12-.2c-.02-.08-.04-.36-.05-.83s-.02-.97-.02-1.51v-2.17c0-.34.03-1.37.09-3.08l-.15-.06c-.26.13-.69.32-1.28.57s-1.09.43-1.48.54l-.06.06.06.48.11.04c.21-.12.44-.23.69-.33Z"/>
    <polyline class="st19" points="115.57 91.84 116.87 91.84 116.87 92.04 115.57 92.04"/>
    <polyline class="st19" points="115.57 87.63 116.87 87.63 116.87 87.83 115.57 87.83"/>
    <polyline class="st19" points="115.57 83.41 116.87 83.41 116.87 83.61 115.57 83.61"/>
    <polyline class="st19" points="115.57 79.2 116.87 79.2 116.87 79.4 115.57 79.4"/>
    <polyline class="st19" points="115.57 74.98 117.73 74.98 117.73 75.18 115.57 75.18"/>
    <path d="M108.33,72.5c.26-.5.65-.74,1.16-.74.59,0,1.01.32,1.26.96s.38,1.63.38,2.96c0,.85-.05,1.57-.16,2.14s-.28.99-.51,1.22-.52.36-.87.36-.67-.13-.93-.4-.45-.71-.56-1.32-.17-1.29-.17-2.03c0-1.61.13-2.67.39-3.16ZM107.06,77.52c.08.47.23.88.44,1.23s.48.61.8.8.7.28,1.13.28c.85,0,1.51-.37,1.99-1.11s.72-1.89.72-3.45c0-.96-.09-1.72-.26-2.28s-.46-.97-.86-1.24-.86-.4-1.38-.4c-.46,0-.87.11-1.23.33s-.66.54-.9.98-.4.93-.47,1.49-.11,1.18-.11,1.88c0,.54.04,1.04.13,1.51ZM102.14,79.6c.64,0,1.15-.01,1.53-.01.19,0,.57,0,1.15.02s1.01.03,1.29.04l.04-.06c-.02-.11-.04-.27-.04-.46,0-.21.01-.39.04-.52l-.04-.05c-.47.05-1.06.08-1.78.08h-2.31l1.83-1.86c.45-.45.8-.83,1.06-1.16s.46-.66.59-1,.2-.69.2-1.03c0-.46-.12-.87-.35-1.22s-.54-.6-.91-.76-.78-.23-1.19-.23c-.35,0-.68.05-1,.15s-.66.33-1.03.69c-.04.52-.1,1.04-.19,1.56l.06.05h.24l.05-.05c.15-.56.27-.9.35-1.02s.24-.23.47-.33.51-.15.83-.15c.49,0,.88.16,1.17.47s.43.71.43,1.19c0,.41-.12.84-.36,1.31s-.76,1.13-1.57,1.99l-1.96,2.08v.27l.07.06c.23-.02.67-.03,1.31-.04Z"/>
    <polyline class="st19" points="115.57 70.77 116.87 70.77 116.87 70.97 115.57 70.97"/>
    <polyline class="st19" points="115.57 66.56 116.87 66.56 116.87 66.76 115.57 66.76"/>
    <polyline class="st19" points="115.57 62.34 116.87 62.34 116.87 62.54 115.57 62.54"/>
    <polyline class="st19" points="115.57 58.13 116.87 58.13 116.87 58.33 115.57 58.33"/>
    <polyline class="st19" points="115.57 53.91 117.73 53.91 117.73 54.11 115.57 54.11"/>
    <path d="M108.33,51.43c.26-.5.65-.74,1.16-.74.59,0,1.01.32,1.26.96s.38,1.63.38,2.96c0,.85-.05,1.57-.16,2.14s-.28.99-.51,1.22-.52.36-.87.36-.67-.13-.93-.4-.45-.71-.56-1.32-.17-1.29-.17-2.03c0-1.61.13-2.67.39-3.16ZM107.06,56.44c.08.47.23.88.44,1.23s.48.61.8.8.7.28,1.13.28c.85,0,1.51-.37,1.99-1.11s.72-1.89.72-3.45c0-.96-.09-1.72-.26-2.28s-.46-.97-.86-1.24-.86-.4-1.38-.4c-.46,0-.87.11-1.23.33s-.66.54-.9.98-.4.93-.47,1.49-.11,1.18-.11,1.88c0,.54.04,1.04.13,1.51ZM101.99,58.65c.23.04.48.07.74.07.89,0,1.68-.3,2.36-.9s1.02-1.27,1.02-2.02c0-.46-.14-.85-.41-1.17s-.75-.52-1.43-.61c.41-.29.73-.6.96-.92s.35-.68.35-1.08c0-.51-.2-.94-.59-1.27s-.91-.51-1.54-.51c-.84,0-1.5.28-1.99.83l-.35,1.36.05.05h.26l.06-.05c.14-.39.25-.65.32-.79.16-.16.35-.29.59-.4s.5-.16.76-.16c.41,0,.75.13,1.03.39s.42.59.42.97c0,.44-.13.82-.4,1.15s-.63.49-1.09.49c-.11,0-.32,0-.63-.03l-.13.64.06.06c.27-.11.47-.18.6-.21s.28-.05.44-.05c.48,0,.86.15,1.13.45s.41.71.41,1.22c0,.39-.07.73-.21,1.04s-.33.55-.58.73-.59.27-1.02.27c-.34,0-.66-.06-.95-.19s-.52-.3-.67-.54-.3-.53-.44-.89l-.08-.04-.22.08-.03.09c.19.65.32,1.2.39,1.66.31.14.58.23.81.27Z"/>
    <polyline class="st19" points="115.57 49.7 116.87 49.7 116.87 49.9 115.57 49.9"/>
    <polyline class="st19" points="115.57 45.48 116.87 45.48 116.87 45.68 115.57 45.68"/>
    <polyline class="st19" points="115.57 41.27 116.87 41.27 116.87 41.47 115.57 41.47"/>
    <polyline class="st19" points="115.57 37.05 116.87 37.05 116.87 37.25 115.57 37.25"/>
    <polyline class="st19" points="115.57 32.83 117.73 32.83 117.73 33.03 115.57 33.03"/>
    <path d="M108.33,30.35c.26-.5.65-.74,1.16-.74.59,0,1.01.32,1.26.96s.38,1.63.38,2.96c0,.85-.05,1.57-.16,2.14s-.28.99-.51,1.22-.52.36-.87.36-.67-.13-.93-.4-.45-.71-.56-1.32-.17-1.29-.17-2.03c0-1.61.13-2.67.39-3.16ZM107.06,35.37c.08.47.23.88.44,1.23s.48.61.8.8.7.28,1.13.28c.85,0,1.51-.37,1.99-1.11s.72-1.89.72-3.45c0-.96-.09-1.72-.26-2.28s-.46-.97-.86-1.24-.86-.4-1.38-.4c-.46,0-.87.11-1.23.33s-.66.54-.9.98-.4.93-.47,1.49-.11,1.18-.11,1.88c0,.54.04,1.04.13,1.51ZM102.55,32.59c.57-.93,1.04-1.67,1.42-2.2l-.05,4.17h-2.5c.19-.38.57-1.03,1.14-1.96ZM104.46,37.44c.46,0,1.04.02,1.73.05l.05-.05v-.25l-.05-.05c-.38,0-.65-.02-.8-.04s-.26-.06-.31-.12-.09-.17-.11-.35-.04-.49-.04-.93v-.39h.3c.25,0,.57.01.95.04l.06-.05c0-.12-.01-.25-.02-.38,0-.07,0-.17.01-.32l-.05-.06c-.29.02-.71.03-1.25.04v-1.21l.02-1.65c0-.98.02-1.8.06-2.47l-.15-.07-.83.33c-1.59,2.41-2.72,4.26-3.4,5.53l.1.32c.52-.02,1.15-.04,1.89-.04h1.28v.43c0,.27-.01.53-.04.77s-.06.39-.11.46-.13.1-.24.12-.45.04-1.03.05l-.05.05v.25l.05.05c.55-.03,1.21-.05,1.97-.05Z"/>
    <polyline class="st19" points="115.57 28.62 116.87 28.62 116.87 28.82 115.57 28.82"/>
    <polyline class="st19" points="115.57 24.4 116.87 24.4 116.87 24.6 115.57 24.6"/>
    <polyline class="st19" points="115.57 20.19 116.87 20.19 116.87 20.39 115.57 20.39"/>
    <polyline class="st19" points="115.57 15.97 116.87 15.97 116.87 16.17 115.57 16.17"/>
    <polyline class="st19" points="115.57 11.76 117.73 11.76 117.73 11.96 115.57 11.96"/>
    <path d="M108.33,9.28c.26-.5.65-.74,1.16-.74.59,0,1.01.32,1.26.96s.38,1.63.38,2.96c0,.85-.05,1.57-.16,2.14s-.28.99-.51,1.22-.52.36-.87.36-.67-.13-.93-.4-.45-.71-.56-1.32-.17-1.29-.17-2.03c0-1.61.13-2.67.39-3.16ZM107.06,14.29c.08.47.23.88.44,1.23s.48.61.8.8.7.28,1.13.28c.85,0,1.51-.37,1.99-1.11s.72-1.89.72-3.45c0-.96-.09-1.72-.26-2.28s-.46-.97-.86-1.24-.86-.4-1.38-.4c-.46,0-.87.11-1.23.33s-.66.54-.9.98-.4.93-.47,1.49-.11,1.18-.11,1.88c0,.54.04,1.04.13,1.51ZM101.91,16.51c.18.05.4.07.68.07,1.02,0,1.86-.33,2.51-1s.98-1.4.98-2.19c0-.43-.1-.83-.29-1.2s-.49-.65-.88-.85-.8-.29-1.22-.29c-.3,0-.58.04-.84.13s-.55.24-.87.48c.02-1.16.06-1.98.12-2.44.16,0,.76-.01,1.78-.01.75,0,1.35.02,1.79.05l.06-.04c-.01-.19-.02-.33-.02-.41,0-.16.01-.34.04-.53l-.02-.06c-.81.05-1.51.07-2.09.07-.77,0-1.45-.02-2.04-.07l-.08.06s0,.16.02.33c.02.29.03.58.03.9v1.04c0,.24,0,.48-.02.72l-.06,1.26.24.07c.16-.18.31-.32.42-.41s.27-.17.45-.23.38-.09.59-.09c.35,0,.67.08.97.23s.52.39.67.69.22.66.22,1.08-.07.81-.22,1.14-.38.59-.68.76-.65.26-1.05.26c-.32,0-.62-.05-.9-.16s-.47-.2-.55-.28-.28-.42-.61-1l-.07-.02-.21.12v.08c.28.7.47,1.21.57,1.51.21.11.4.18.58.23Z"/>
    <polyline class="st19" points="115.57 7.54 116.87 7.54 116.87 7.74 115.57 7.74"/>
    <polyline class="st19" points="115.47 119.5 115.47 6.19 115.67 6.19 115.67 119.5"/>
    <path d="M114.53,125.75c.26-.5.65-.74,1.16-.74.59,0,1.01.32,1.26.96s.38,1.63.38,2.96c0,.85-.05,1.57-.16,2.14s-.28.99-.51,1.22-.52.36-.87.36-.67-.13-.93-.4-.45-.71-.56-1.32-.17-1.29-.17-2.03c0-1.61.13-2.67.39-3.16ZM113.26,130.76c.08.47.23.88.44,1.23s.48.61.8.8.7.28,1.13.28c.85,0,1.51-.37,1.99-1.11s.72-1.89.72-3.45c0-.96-.09-1.72-.26-2.28s-.46-.97-.86-1.24-.86-.4-1.38-.4c-.46,0-.87.11-1.23.33s-.66.54-.9.98-.4.93-.47,1.49-.11,1.18-.11,1.88c0,.54.04,1.04.13,1.51Z"/>
  </g>
  <g class="st2">
    <path d="M64.99,87.62l-1.22.03c-.5,0-.79-.01-1.37-.07,0-.51.04-.75.19-1.04.23-.48.7-.77,1.22-.77.36,0,.64.14.84.44.24.36.35.68.35,1.41ZM65.96,87.49c0-1.25-.81-2.07-2.03-2.07-.4,0-.87.14-1.32.4-.89.51-1.25,1.19-1.25,2.32,0,.69.15,1.28.46,1.69.43.58,1.17.92,1.99.92.4,0,.81-.09,1.25-.28.29-.12.52-.26.57-.33l.22-.37-.14-.11c-.7.41-.95.51-1.42.51-.71,0-1.3-.32-1.6-.85-.21-.36-.28-.67-.31-1.3h1.59c.75,0,1.22-.03,1.97-.15.01-.15.02-.25.02-.38ZM61,85.78l-1.49.07v-.41c0-.46.03-.85.12-1.55l-.13-.12c-.26.16-.59.31-.93.41.03.33.04.53.04.86v.76l-.85.38v.23l.83-.04v3.14c0,.81.36,1.16,1.2,1.16.25,0,.51-.05.58-.13l.52-.58-.14-.19c-.27.15-.44.21-.64.21-.43,0-.6-.22-.6-.75v-2.86h1.4l.1-.59ZM55.6,89.18c-.32.45-1,.86-1.43.86s-.82-.4-.82-.87c0-.4.22-.79.55-.99.27-.16.87-.32,1.7-.44v1.44ZM57.2,90.57v-.33l-.43-.02c-.26-.01-.31-.1-.31-.63v-2c0-1.59-.46-2.17-1.72-2.17-.47,0-.91.12-1.32.37l-.58.35v.71l.28.08.14-.34c.22-.51.34-.59.84-.59,1.03,0,1.45.4,1.48,1.4l-1.08.2c-1.48.27-2.11.79-2.11,1.73,0,.85.51,1.34,1.37,1.34.2,0,.38-.03.46-.09l1.35-.94-.05.93c.28-.02.57-.03.85-.03s.53.01.81.03ZM51.99,85.78l-1.49.07v-.41c0-.46.03-.85.12-1.55l-.13-.12c-.26.16-.59.31-.93.41.03.33.04.53.04.86v.76l-.85.38v.23l.83-.04v3.14c0,.81.36,1.16,1.2,1.16.25,0,.51-.05.58-.13l.52-.58-.14-.19c-.27.15-.44.21-.64.21-.43,0-.6-.22-.6-.75v-2.86h1.4l.1-.59ZM48.31,88.92c0-.34-.09-.59-.31-.81-.28-.28-.64-.4-1.6-.59-.89-.17-1.19-.39-1.19-.89,0-.55.38-.85,1.05-.85.73,0,1.29.38,1.29.89v.25h.31c.01-.63.02-.89.05-1.23-.58-.2-.97-.27-1.42-.27-1.27,0-2.04.6-2.04,1.58,0,.52.24.89.74,1.12.29.13.87.31,1.61.47.49.11.7.34.7.75,0,.59-.55,1-1.32,1s-1.36-.38-1.36-.93v-.45h-.33c0,.75-.03,1.08-.12,1.52.57.19.99.26,1.49.26,1.43,0,2.44-.76,2.44-1.83ZM41.1,90.57v-.33l-.5-.03c-.37-.02-.4-.1-.4-.79v-6.72l-.1-.09c-.48.19-.84.27-1.7.4v.31h.61c.2,0,.27.12.27.45v5.65c0,.69-.03.76-.4.79l-.5.03v.33c.46-.02.91-.03,1.36-.03s.91.01,1.36.03ZM36.22,89.18c-.32.45-1,.86-1.43.86s-.82-.4-.82-.87c0-.4.22-.79.55-.99.27-.16.87-.32,1.7-.44v1.44ZM37.83,90.57v-.33l-.43-.02c-.26-.01-.31-.1-.31-.63v-2c0-1.59-.46-2.17-1.72-2.17-.47,0-.91.12-1.32.37l-.58.35v.71l.28.08.14-.34c.22-.51.34-.59.84-.59,1.03,0,1.45.4,1.48,1.4l-1.08.2c-1.48.27-2.11.79-2.11,1.73,0,.85.51,1.34,1.37,1.34.2,0,.38-.03.46-.09l1.35-.94-.05.93c.28-.02.57-.03.85-.03s.53.01.81.03ZM31.65,83.58c0-.32-.22-.55-.53-.55-.34,0-.56.22-.56.55s.22.55.55.55.55-.22.55-.55ZM32.47,90.57v-.33l-.5-.03c-.37-.02-.4-.1-.4-.79v-3.96l-.1-.04c-.56.23-1.12.38-1.7.45v.31h.4c.44,0,.48.08.48.8v2.45c0,.69-.03.76-.4.79l-.5.03v.33c.46-.02.91-.03,1.36-.03s.91.01,1.36.03ZM29.44,85.78l-1.49.07v-.41c0-.46.03-.85.12-1.55l-.13-.12c-.26.16-.59.31-.93.41.03.33.04.53.04.86v.76l-.85.38v.23l.83-.04v3.14c0,.81.36,1.16,1.2,1.16.25,0,.51-.05.58-.13l.52-.58-.14-.19c-.27.15-.44.21-.64.21-.43,0-.6-.22-.6-.75v-2.86h1.4l.1-.59ZM24.92,83.58c0-.32-.22-.55-.53-.55-.34,0-.56.22-.56.55s.22.55.55.55.55-.22.55-.55ZM25.74,90.57v-.33l-.5-.03c-.37-.02-.4-.1-.4-.79v-3.96l-.1-.04c-.56.23-1.12.38-1.7.45v.31h.4c.44,0,.48.08.48.8v2.45c0,.69-.03.76-.4.79l-.5.03v.33c.46-.02.91-.03,1.36-.03s.91.01,1.36.03ZM22.67,90.57v-.33l-.45-.03c-.37-.02-.4-.09-.4-.79v-2.11c0-1.28-.6-1.9-1.82-1.9-.4,0-.63.08-.86.27l-.83.72v-.95l-.1-.04c-.56.23-1.12.38-1.7.45v.31h.4c.44,0,.48.08.48.8v2.45c0,.69-.03.76-.4.79l-.49.03v.33c.45-.02.91-.03,1.35-.03s.91.01,1.35.03v-.33l-.49-.03c-.37-.02-.4-.1-.4-.79v-2.31c0-.49.72-1.03,1.39-1.03.73,0,1.21.55,1.21,1.39v3.1c.28-.02.58-.03.86-.03.31,0,.6.01.91.03ZM15.4,83.58c0-.32-.22-.55-.53-.55-.34,0-.56.22-.56.55s.22.55.55.55.55-.22.55-.55ZM16.22,90.57v-.33l-.5-.03c-.37-.02-.4-.1-.4-.79v-3.96l-.1-.04c-.56.23-1.12.38-1.7.45v.31h.4c.44,0,.48.08.48.8v2.45c0,.69-.03.76-.4.79l-.5.03v.33c.46-.02.91-.03,1.36-.03s.91.01,1.36.03Z"/>
  </g>
  <g class="st24">
    <path d="M392.85,62.12c0,.71-.02.82-.16,1.07-.31.51-.84.85-1.35.85-.96,0-1.65-.93-1.65-2.23,0-1.19.59-1.89,1.57-1.89.41,0,.85.14,1.23.4.23.15.36.29.36.38v1.41ZM394.68,64.57v-.33l-.5-.03c-.37-.02-.4-.1-.4-.79v-6.72l-.1-.09c-.48.19-.84.27-1.7.4v.31h.61c.2,0,.27.12.27.45v2c-.61-.26-.92-.35-1.3-.35-.29,0-.56.07-.83.21l-.96.5c-.62.33-1.03,1.12-1.03,2.05,0,.87.29,1.59.83,2.03.37.32.88.46,1.59.46.22,0,.47-.04.52-.09l1.21-1.01-.05,1c.28-.02.56-.03.84-.03.33,0,.67.01.99.03ZM387.05,61.62l-1.22.03c-.5,0-.79-.01-1.37-.07,0-.51.04-.75.19-1.04.23-.48.7-.77,1.22-.77.36,0,.64.14.84.44.24.36.35.68.35,1.41ZM388.02,61.49c0-1.25-.81-2.07-2.03-2.07-.4,0-.87.14-1.32.4-.89.51-1.25,1.19-1.25,2.32,0,.69.15,1.28.46,1.69.43.58,1.17.92,1.99.92.4,0,.81-.09,1.25-.28.29-.12.52-.26.57-.33l.22-.37-.14-.11c-.7.41-.95.51-1.42.51-.71,0-1.3-.32-1.6-.85-.21-.36-.28-.67-.31-1.3h1.59c.75,0,1.22-.03,1.97-.15.01-.15.02-.25.02-.38ZM382.76,63.02h-.33l-.2.86c-.04.2-.5.27-1.55.27h-1.47l3.43-4.33v-.33c-.5.02-1,.03-1.51.03-.91,0-1.8-.01-2.71-.03-.02.56-.03.69-.1,1.44h.33l.13-.74c.04-.23.24-.28,1.05-.28h1.56c-.23.36-.4.61-.71.98l-2.84,3.46.07.22c.56-.02,1.11-.03,1.67-.03,1,0,2.01.01,3.01.03,0-.25.03-.51.1-1.04l.07-.51ZM376.64,57.58c0-.32-.22-.55-.53-.55-.34,0-.56.22-.56.55s.22.55.55.55.55-.22.55-.55ZM377.46,64.57v-.33l-.5-.03c-.37-.02-.4-.1-.4-.79v-3.96l-.1-.04c-.56.23-1.12.38-1.7.45v.31h.4c.44,0,.48.08.48.8v2.45c0,.69-.03.76-.4.79l-.5.03v.33c.46-.02.91-.03,1.36-.03s.91.01,1.36.03ZM374.29,64.57v-.33l-.5-.03c-.37-.02-.4-.1-.4-.79v-6.72l-.1-.09c-.48.19-.84.27-1.7.4v.31h.61c.2,0,.27.12.27.45v5.65c0,.69-.03.76-.4.79l-.5.03v.33c.46-.02.91-.03,1.36-.03s.91.01,1.36.03ZM369.41,63.18c-.32.45-1,.86-1.43.86s-.82-.4-.82-.87c0-.4.22-.79.55-.99.27-.16.87-.32,1.7-.44v1.44ZM371.01,64.57v-.33l-.43-.02c-.26-.01-.31-.1-.31-.63v-2c0-1.59-.46-2.17-1.72-2.17-.47,0-.91.12-1.32.37l-.58.35v.71l.28.08.14-.34c.22-.51.34-.59.84-.59,1.03,0,1.45.4,1.48,1.4l-1.08.2c-1.48.27-2.11.79-2.11,1.73,0,.85.51,1.34,1.37,1.34.2,0,.38-.03.46-.09l1.35-.94-.05.93c.28-.02.57-.03.85-.03s.53.01.81.03ZM365.72,64.57v-.33l-.51-.03c-.37-.02-.4-.1-.4-.79v-2.25c0-1.08-.63-1.76-1.64-1.76-.38,0-.7.1-.89.27l-.83.74c-.35-.72-.8-1.01-1.55-1.01-.4,0-.71.1-.91.27l-.75.7v-.93l-.1-.04c-.56.23-1.12.38-1.7.45v.31h.4c.44,0,.48.08.48.8v2.45c0,.69-.03.76-.4.79l-.5.03v.33c.46-.02.93-.03,1.39-.03s.86.01,1.3.03v-.33l-.46-.03c-.37-.02-.4-.1-.4-.79v-2.31c0-.49.72-1.03,1.37-1.03.59,0,.99.56.99,1.39v1.95c0,.69-.03.76-.4.79l-.5.03v.33c.46-.02.91-.03,1.36-.03s.91.01,1.36.03v-.33l-.5-.03c-.37-.02-.4-.1-.4-.79v-2.31c0-.49.72-1.03,1.37-1.03.59,0,.99.56.99,1.39v3.1c.28-.02.58-.03.86-.03.33,0,.64.01.97.03ZM355.9,59.54c-.12-.08-.32-.12-.51-.12-.33,0-.68.17-.91.45l-.61.72v-1.12l-.1-.04c-.56.23-1.12.38-1.7.45v.31h.4c.44,0,.48.08.48.8v2.45c0,.69-.03.76-.4.79l-.5.03v.33c.45-.02.89-.03,1.34-.03.52,0,1.04.01,1.56.03v-.33l-.57-.03c-.49-.03-.51-.07-.51-.79v-1.88c0-.65.44-1.2.97-1.2.33,0,.56.15.73.5h.23l.1-1.31ZM350.52,61.62l-1.22.03c-.5,0-.79-.01-1.37-.07,0-.51.04-.75.19-1.04.23-.48.7-.77,1.22-.77.36,0,.64.14.84.44.24.36.35.68.35,1.41ZM351.49,61.49c0-1.25-.81-2.07-2.03-2.07-.4,0-.87.14-1.32.4-.89.51-1.25,1.19-1.25,2.32,0,.69.15,1.28.46,1.69.43.58,1.17.92,1.99.92.4,0,.81-.09,1.25-.28.29-.12.52-.26.57-.33l.22-.37-.14-.11c-.7.41-.95.51-1.42.51-.71,0-1.3-.32-1.6-.85-.21-.36-.28-.67-.31-1.3h1.59c.75,0,1.22-.03,1.97-.15.01-.15.02-.25.02-.38ZM346.49,64.57v-.33l-.45-.03c-.37-.02-.4-.09-.4-.79v-2.11c0-1.28-.6-1.9-1.82-1.9-.4,0-.63.08-.86.27l-.83.72v-3.71l-.1-.09c-.48.19-.84.27-1.7.4v.31h.61c.2,0,.27.12.27.45v5.65c0,.69-.03.76-.4.79l-.49.03v.33c.45-.02.91-.03,1.35-.03s.91.01,1.35.03v-.33l-.49-.03c-.37-.02-.4-.1-.4-.79v-2.31c0-.49.72-1.03,1.39-1.03.73,0,1.21.55,1.21,1.39v3.1c.28-.02.58-.03.86-.03.31,0,.6.01.91.03ZM340.01,59.78l-1.49.07v-.41c0-.46.03-.85.12-1.55l-.13-.12c-.26.16-.59.31-.93.41.03.33.04.53.04.86v.76l-.85.38v.23l.83-.04v3.14c0,.81.36,1.16,1.2,1.16.25,0,.51-.05.58-.13l.52-.58-.14-.19c-.27.15-.44.21-.64.21-.43,0-.6-.22-.6-.75v-2.86h1.4l.1-.59Z"/>
  </g>
</svg>