<?xml version="1.0" encoding="utf-8"?>
<!-- Generator: Adobe Illustrator 27.9.6, SVG Export Plug-In . SVG Version: 9.03 Build 54986)  -->
<svg version="1.1" xmlns="http://www.w3.org/2000/svg" xmlns:xlink="http://www.w3.org/1999/xlink" x="0px" y="0px"
	 viewBox="0 0 595.3 841.9" style="enable-background:new 0 0 595.3 841.9;" xml:space="preserve">
<style type="text/css">
	.st0{display:none;}
	.st1{fill:#729056;stroke:#739056;stroke-miterlimit:10;}
	.st2{fill:#739056;}
	.st3{fill:#4D7039;}
	.st4{fill:none;stroke:#FFFFFF;stroke-miterlimit:10;}
	.st5{filter:url(#Adobe_OpacityMaskFilter);}
	.st6{filter:url(#Adobe_OpacityMaskFilter_00000035499980419229824160000013893259719021689268_);}
	.st7{mask:url(#SVGID_1_);}
	.st8{fill:#231F20;}
	.st9{opacity:0.5;}
	.st10{fill:#BE1E2D;}
</style>
<g id="Raster" class="st0">
	
		<image style="display:inline;overflow:visible;" width="605" height="759" xlink:href="6D9EEC10.jpg"  transform="matrix(1 0 0 1 -2.7244 18)">
	</image>
</g>
<g id="Background">
	<path class="st1" d="M90.7,449c-5,8.6-14.4,6.5-23.8,13.5c-8.8,6.6-11.1,16.8-15.4,36.8c-5,23.6-7.6,36.1-3.7,52.7
		c1.2,4.9,7.5,30,28.9,47.1c7.7,6.1,32.1,23.1,36.3,26.1c6.6,4.6,12.7,8.8,13,14.9c0.4,6.8-6.6,9-13,18.2
		c-6.8,9.7-7.3,22.8-8.4,48.9c-0.8,20.6,1.2,24.2,3.7,25.6c4.8,2.7,12.3-1.7,17.7-5.1c9.9-6.2,15.7-13.2,26.1-27.5
		c10.2-14,16.5-22.6,24.7-36.3c12.6-21.1,13.4-26.8,13-31.7c-0.7-8.5-4.9-16.1-8.4-22.4c-5-9-7.5-9.7-11.7-17.2
		c-1.2-2.2-6.7-12.7-7.5-25.6c-0.7-12,3.7-11.6,10.7-38.7c3-11.6,4.2-19.4,10.7-27.5c6-7.5,11-8.3,13-8.4c2.8-0.1,4.9,0.8,6.5,1.4
		c6.9,2.8,14.4,3.8,21.4,6.1c6.2,2,11.4,1.9,50.3-0.9c31.6-2.3,33.5-2.6,37.3-3.7c10.5-3.1,15.2-6.4,27-7.5
		c6.3-0.5,15.1-1.2,23.8,3.3c5.3,2.7,7.2,5.6,14.4,14c16.5,19.2,17.1,16.4,25.6,28c3.6,4.9,9.9,14.2,14.9,27
		c4.3,11.1,4.2,16.2,3.3,20c-1,4.2-3.2,7.7-6.5,13c-5.4,8.6-7,8.3-8.4,11.7c-3.6,9,5.5,18.1,15.4,36.3c8.5,15.8,4.4,14.1,12.6,29.4
		c8.6,16.1,16.9,24.7,33.6,41.9c7.3,7.6,10.9,10.5,15.8,10.7c11.8,0.5,20.7-14.8,21.9-16.8c4.8-8.3,5.3-16.2,6.1-31.7
		c0.8-17.5,1.3-26.5-2.8-37.3c-5.9-15.7-14.1-16.2-14-25.6c0.2-12.9,15.4-14.5,23.3-33.1c1.8-4.3,2.8-8.4,2.8-36.3
		c0-27.7,0-41.6-0.9-44.3c-7.7-22.9-28.5-34.9-35-58.7c-0.4-1.6-1-3.9-1.4-7c-1.6-13.5,3.9-19.1,5.1-31.2
		c1.1-11.1-3.1-11.1-3.3-25.2c-0.1-12.6,3.2-21.6,4.7-26.6c10.4-34.4-10.2-55.6-3.7-109.5c1.7-14.1,3.3-14.6,4.2-28
		c1.2-19.2-1.7-24.1-4.7-56.9c-2.6-29-1-33.7-6.5-43.8c-3.7-6.7-9.7-12.4-21.9-23.8c-19.7-18.4-27.2-19.5-31.2-19.6
		c-1.7,0-11.8-0.1-16.8,6.5c-2.7,3.6-1.9,6.3-2.3,18.2c-0.6,17.4-2.6,16.4-2.3,29.4c0.1,3.4,0.3,9.4,0,18.2
		c-0.4,10.1-1,11.9-2.3,12.6c-3.7,1.9-8.8-7-20-11.2c-7.5-2.8-13.2-1.7-20-1.4c-22.5,1.1-25.9-7.1-49.9-8.9
		c-9.6-0.7-5.5,0.9-44.7,4.7c-31.2,3-32.2,1.9-41.9,4.7c-19.8,5.7-33.6,15.6-35.9,12.6c-1-1.4,0.9-4.6,3.3-8.4
		c4.2-6.9,9.1-11,9.8-11.7c9.3-8,13.7-24.5,14.4-34c1.6-19.9-10.5-43.1-21.9-43.3c-3.4-0.1-7.1,1.9-20,20
		c-15.7,22.1-23.8,37.7-23.8,37.7c-11.9,23.2-21.1,44.2-29.8,65.7c-10,24.7-15,37-18.6,49.4c-6.4,21.7-8.4,37.8-12.1,69
		c-6.1,50.4-9.1,75.6-4.7,95.1c5,22.1,0.7,5.7,4.7,36.8C92.9,439.2,93.6,444.1,90.7,449z"/>
	<g>
		<g>
			<path class="st2" d="M78.7,459c1-0.9,2-1.9,3-2.7c0.4-0.4,0.9-0.7,1.4-1c0.3-0.2,0.6-0.4,0.9-0.5c1-0.5,0.8-0.5-0.6,0.1
				c-0.9-0.2-1.7-0.5-2.6-0.7c-0.1,0-1.2-1.2-1-1.3c0.1,0,0.3,1.4,0.2,0.8c-0.1-0.7,0.1,0.8,0,0.1c-0.1-0.6-0.3,0.9,0.1,0
				c-0.1,0.3-0.3,0.6-0.5,0.9c0.4-0.5,0.1,0-0.2,0.1c1.5-0.4,2.6-1.5,3.7,1.8c-0.8-2.6-3.5-4.3-6.2-3.5c-2.4,0.7-4.5,3.6-3.5,6.2
				c0,0.1,0.1,0.2,0.1,0.2c0.1-1.1,0.3-2.3,0.4-3.4c-0.1,0.2-0.2,0.3-0.3,0.5c0.5-0.5,1-1,1.5-1.5c-0.7,0.4-1.3,0.8-2.1,0.9
				c1.8,1.4,3.6,2.7,5.3,4.1c0,0.1,0,0.3,0,0.4c1.3-4-4.2-7.1-7-4.1c-1.3,1.4-1.8,2.9-1.2,4.8c0.8,2.8,3.7,3.7,6.2,2.5
				c0.7-0.4,1.8-1,2.7-1.2c-1.1-0.1-2.3-0.3-3.4-0.4c0.1,0,0.1,0.1,0.2,0.1c-0.8-1.5-1.7-2.9-2.5-4.4c0.2,5.4,6,8,10.6,6
				c4-1.7,6.5-5.8,6.7-10.1c0.1-4.7-3.4-10.4-8.8-9c-4.3,1.1-8.1,5-10.4,8.6C68.4,457.9,74.9,462.7,78.7,459L78.7,459z"/>
		</g>
	</g>
	<g>
		<g>
			<path class="st2" d="M198,486.8c-7.4-3.1-13,2.6-17.4,7.9c-5.9,7.1-10.9,14.8-15.1,23c-3.8,7.4,6.1,12.7,10.9,6.4
				c7.8-10.4,16-21.1,25.4-29.9c4.8-4.5-2.2-11.2-7.1-7.1c-13.4,11-24.1,25.2-31.1,41.1c-2.1,4.7,2.6,11.6,7.9,7.9
				c6.1-4.2,11-9.4,14.6-15.9c3.3-6.1-5.6-11.2-9.3-5.4c-4.3,6.8-9,13.3-12.2,20.8c-3.3,7.8-4.8,16.2-6.7,24.5
				c-1.9,8.3-3.9,16.4-2.7,24.9c1.1,7.7,3.9,15.5,7.4,22.5c1.3,2.6,3.1,5.3,5.7,6.9c1.8,1.2,3.7,0.8,5.6,1.6c2.2,1,2.4,2.5,3.2,4.4
				c1.5,3.9,3,7.9,4.5,11.8c1.4,3.5,3.8,7.7,4,11.5c0.3,5.4-4.7,9.7-8,13.4c-4,4.4-7.7,8.9-9.4,14.8c-2.2,7.1,9.3,10.3,11.1,3.1
				c2.8-10.7,15-16,16.7-27.5c1.1-7.4-2.9-14.3-5.8-20.9c-2.9-6.3-5.1-13.3-11-17.5c-6.4-4.5-8.1-11-10.4-18.3
				c-2.7-8.8-2.2-16-0.4-24.9c1.7-8.2,2.8-16.7,5.6-24.5c2.7-7.6,7.2-14.7,11.9-21.2c-3.1-1.8-6.2-3.6-9.3-5.4
				c-3,4.5-6.7,8.3-11.2,11.4c2.8,2.2,5.7,4.4,8.5,6.5c6-14.9,15.6-27.8,27.6-38.5c-2.4-2.4-4.8-4.8-7.1-7.1
				c-10.6,9.7-20.5,19.2-29.1,30.7c3.6,2.1,7.2,4.2,10.9,6.4c2.9-5.6,6-11.1,9.3-16.5c1.2-1.9,7.3-15,9.8-14.5
				C198.9,493.8,201.8,488.4,198,486.8L198,486.8z"/>
		</g>
	</g>
	<g>
		<g>
			<path class="st2" d="M67.6,593.2c1.6,13,10.4,24.9,20.4,32.8c5.5,4.4,11.5,7.3,18.3,9.1c3,0.8,6.2,1.4,8.8,3.2
				c3,2.1,4.7,4.5,8.5,5.5c7.5,1.8,10.6-9.3,3.2-11.6c-5.1-1.6-10.2-3.1-15.3-4.8c-4.5-1.4-6.6-3-8.5-7.3c-1.4-3.3-2.5-6.7-4.9-9.6
				c-1-1.3-2.2-2.4-3.6-3.3c-0.9-0.6-2-1.1-3-1.4c-0.8-0.3-1.8-1.3-1-0.1c-3.2,2.5-6.5,5-9.7,7.5c3.9,3.5,8.1,6.6,12.7,9.1
				c3.8,2.1,8.7,3.7,11.2,7.4c4.4,6.5,15.1,0.4,10.6-6.2c-6-9-17.6-12.4-25.9-19c-4.9-4-14.3,1.4-9.7,7.5c1.6,2.1,3,3.4,5.4,4.4
				c1.7,0.7,3,0.9,4.2,2.3c2.5,3.1,2.9,7.6,5.1,11c5.9,9.3,19.4,11,29.1,14.1c1.1-3.9,2.1-7.7,3.2-11.6c-2.2-0.5-4.2-3.4-6.2-4.7
				c-2.4-1.5-5.2-2.4-7.9-3.2c-5.8-1.7-11-3-16-6.7c-9.7-7.1-14.6-16.8-20.5-26.8C73.9,587.3,67,588.6,67.6,593.2L67.6,593.2z"/>
		</g>
	</g>
	<g>
		<g>
			<path class="st2" d="M305.8,499.4c13.7,5.1,29.5-0.4,39.8-10c4.8-4.5-3.2-11.5-7.5-5.8c-0.2,0.3-0.4,0.6-0.6,0.9
				c-0.6,0.8-0.5,2.2,0,3c0.2,0.3,0.4,0.6,0.6,0.9c0.2-1.9,0.5-3.8,0.7-5.8c-9.3,8-20.4,10.2-32.3,10.6
				C303,493.3,302.6,498.2,305.8,499.4L305.8,499.4z"/>
		</g>
	</g>
	<g>
		<g>
			<path class="st2" d="M482.9,446.7c7.6,8,14.8,15.2,19.2,25.5c4.7,11,6.1,23.3,8,35.1c2.1,12.2,4.8,24.5,4.1,37
				c-0.7,12.3-4.1,24.6-7.8,36.3c-1.7,5.3,6,10.3,9.8,5.7c6.6-8.1,11.2-17.3,13.4-27.6c1.5-7-9.2-10.1-10.8-3
				c-2.5,10.6-6.8,20.6-12.9,29.6c-3,4.4-6.4,8.5-10.1,12.3c-1.9,1.9-3.8,3.7-5.8,5.4c-1.3,1.1-4.2,4-5.5,4.5
				c-3.6,1.3-5.3,7-1.2,8.9c6.7,3.2,11.8-2.5,16.5-6.8c4.8-4.5,9-9.4,12.9-14.7c8-10.8,13.6-23.1,16.8-36.2c-3.6-1-7.2-2-10.8-3
				c-1.9,8.3-5.3,15.8-10.8,22.3c3.3,1.9,6.5,3.8,9.8,5.7c4.2-12.5,8-25.2,9.1-38.5c1.1-14.1-1.9-28.4-4.3-42.2
				c-2.3-12.9-4.2-25.9-9.7-37.8c-4.8-10.4-13.1-21.3-23.4-26.8C484.1,435.4,478.6,442.2,482.9,446.7L482.9,446.7z"/>
		</g>
	</g>
	<g>
		<g>
			<path class="st2" d="M102.9,686.8c-6.7,13.5-6.5,36.2,5.9,46.7c6.4,5.4,14.3,4.9,20.6-0.1c7.2-5.7,13.5-12.9,19.6-19.7
				c11.6-13.2,20.2-28.8,33.4-40.5c6.1-5.4,8.4-13.4,10.9-20.9c2.5-7.6,6.4-19.5,0.7-26.4c-2.1-2.5-6.5-1.6-8,1
				c-1.9,3.3-1.3,6.1-1.6,9.7c-0.3,3.6-1.3,7.2-2.3,10.7c-1.8,6-3.5,12.9-8.4,17.1c-10.1,8.9-17.3,19.8-25.6,30.2
				c-4.4,5.5-9,10.8-13.8,15.9c-2.5,2.7-5.1,5.3-7.7,7.8c-1.7,1.7-5,6.1-7.6,6.2c-4.7,0.1-6.9-9.9-7.5-13.1
				c-1.3-7.1-0.2-13.5,1.3-20.5C114,685.3,105.7,681,102.9,686.8L102.9,686.8z"/>
		</g>
	</g>
	<g>
		<g>
			<path class="st2" d="M456.1,701.2c1.8,8,8.8,13.3,15.3,17.5c5.5,3.5,13.9,11,20.9,8.8c2-0.6,3.9-2.2,4.4-4.4
				c0-0.2,0.1-0.4,0.1-0.7c1.2-5.6-5.9-10.8-10.2-6c3.8-0.4,4.8-0.9,2.9-1.5c-0.5-0.2-1-0.5-1.5-0.7c-1.2-0.6-2.4-1.4-3.5-2.1
				c-2.5-1.5-5-3.1-7.5-4.6c-5.2-3.2-8.8-6.5-13-10.8C460.6,693.2,455.1,696.8,456.1,701.2L456.1,701.2z"/>
		</g>
	</g>
	<g>
		<g>
			<path class="st2" d="M482,240.6c-1.7,3-0.9,5.4-0.8,8.7c0.2,4-0.1,8-0.1,12c-0.1,8.1-1,16.7,0,24.8c1.1,8.7,12.8,8.9,13.7,0
				c0.9-9-0.3-18.7-0.7-27.7c-0.3-6.3-0.1-17.5-7.6-19.5C484.8,238.3,482.9,239.1,482,240.6L482,240.6z"/>
		</g>
	</g>
	<g>
		<g>
			<path class="st2" d="M201.6,124.3c-3.3,2.4-4.1,7.2-5.4,10.9c-0.7,2-1.3,4.1-1.5,6.2c-0.1,0.9-0.5,2.5-0.2,3.4c0,0.3,0,0.7,0,1
				c2.4-1.2,2.8-1.9,1.3-1.9c-4.9-0.6-6.3,5.9-3.7,8.9c2.3,2.6,6.1,2.7,9,1c3.3-1.9,4.1-5.5,4.1-9c0-6,5.9-16.4-0.6-20.6
				C203.8,123.7,202.4,123.7,201.6,124.3L201.6,124.3z"/>
		</g>
	</g>
	<g>
		<g>
			<path class="st2" d="M169.9,76.7c-9.4,7.8-13.8,20.2-19.4,30.7c-5.5,10.3-12.4,19.9-17.2,30.5c-2.4,5.2-4.2,10.6-5.8,16.1
				c-1.8,6-4.3,11.1-7.4,16.5c-6.2,11-9.5,23-11.7,35.3c-1.6,8.9,12.1,12.7,13.6,3.8c2-12,3.7-23.5,9.8-34.2
				c5.8-10.2,7.8-21.5,12.6-32.1c4.7-10.1,11.1-19.3,16.2-29.2c2.7-5.4,4.5-11.1,7-16.6c2.5-5.6,6.2-10.3,9.4-15.5
				C179.9,77.6,173.6,73.6,169.9,76.7L169.9,76.7z"/>
		</g>
	</g>
</g>
<g id="Layer_7">
	<g>
		<g>
			<path class="st3" d="M190.2,136.2c-0.2-0.1-0.4-0.1-0.6-0.2c-1.1-1.1-2.1-2.1-3.2-3.2c-0.5-1.8-1.5,0.4-2.2,1.1
				c-1,0.9-2,1.7-3.1,2.4c-2.2,1.3-4.7,2.1-7.3,2.3c1.6,2.1,3.2,4.2,4.8,6.4c0.5-2.6,2-5,4.9-5.4c-1.5-2.5-2.9-5.1-4.4-7.6
				c-2.4,5-5.9,8.2-11,10.5c2.4,1,4.9,2,7.3,3c-0.3-2.2,7.3-6,9-6.3c-1.6-0.4-3.3-0.9-4.9-1.3c0.1,0.2,0.3,0.3,0.4,0.5
				c-0.5-1.2-1-2.4-1.5-3.6c0.3,5-8.5,14.4-13.3,14.4c1.4,0.8,2.9,1.6,4.3,2.5c-2.1-4.6,5-8.3,8.8-7.3c-1.1-1.1-2.3-2.3-3.4-3.4
				c0.1,0.4,0.2,0.7,0.2,1.1c0.2-1.3,0.3-2.5,0.5-3.8c-2,3.5-5.8,6.6-8.7,9.4c-3.1,2.9-6.3,5.7-9.7,8.4c2.4,1.9,4.8,3.7,7.2,5.6
				c2.9-6.1,6.7-11.1,11.6-15.6c-2.5-0.7-5.1-1.3-7.6-2c1.6,4.2-8.8,12.6-11.6,15c2.7,1.1,5.5,2.3,8.2,3.4c-0.4-3.3,1.2-5.6,4.5-6.2
				c-1.9-1.1-3.9-2.2-5.8-3.3c0,0.1-2.2,2.2-2.5,2.6c-0.9,1.3-1.4,2.4-1.9,3.9c-1.5,4.8,6.2,8.3,8.3,3.5c1.5-3.3,3.3-6.2,5.3-9.2
				c-2.6-0.3-5.2-0.7-7.8-1c0.2,0.8-0.8,4.3-0.1,4.6c0.9,0.7,1.7,1.3,2.6,2c0.1,0.8,0.1,0.8,0.2-0.2c0-1,0.4-1.8,1-2.6
				c3.4-4.2-2.3-10.3-6.1-6.1c-3.6,3.9-6.8,13.5,0.6,15.5c7.9,2.2,10.7-8.6,10.2-14.3c-0.3-3.4-4.6-6-7.3-3
				c-2.7,2.9-4.7,6.2-6.4,9.8c2.8,1.2,5.5,2.3,8.3,3.5c0.6-2,3.1-3.4,4.1-5.3c1-2,0.9-3.9,0.6-6.1c-0.3-1.8-2.7-3.7-4.5-3.5
				c-7.7,1-14,7.2-12.9,15.4c0.5,3.6,5.2,7,8.2,3.4c5.2-6.3,16.7-14.9,13.5-24.2c-1.1-3.4-4.9-4.3-7.6-2c-5.6,4.8-10,10.8-13.1,17.4
				c-1.8,3.7,2.3,9.4,6.3,6.3c4.9-3.7,9.7-7.7,14.1-12c3.7-3.6,8.6-7.2,7.4-12.9c-0.4-1.7-1.9-3-3.4-3.4c-13-3.8-25.6,9.4-19.9,21.8
				c0.7,1.6,2.7,2.4,4.3,2.5c6.9,0.1,11.8-4.4,16.1-9.3c3.5-4,8.9-10.6,7.1-16.3c-2.1-6.9-9.8-3.2-13.8-0.6
				c-5.5,3.7-9.7,8.3-8.6,15.2c0.6,3.5,4.7,4.1,7.3,3c6.3-2.9,11.4-7.8,14.7-14c1.7-3.1-0.3-8-4.4-7.6c-7.3,0.6-13.4,5.4-14.6,12.8
				c-0.5,2.8,1.3,6.8,4.8,6.4c5.6-0.7,10.5-2.5,14.9-6.2c3.3-2.7,7.9-7.5,6.5-12.2c-0.4-1.5-1.6-2.8-3.2-3.2
				c-3.8-0.9-6.4,0.8-8.7,3.7C180.3,134.9,186.8,139.6,190.2,136.2L190.2,136.2z"/>
		</g>
	</g>
	<g>
		<g>
			<path class="st3" d="M419.6,146.8c0.1,0,0.2-0.1,0.3-0.1c1.5-0.5,2.4-1.7,2.5-3.3c0-0.2,0.1-0.3,0.1-0.5
				c-0.7,0.6-1.5,1.2-2.2,1.7c0.2,0,0.4-0.1,0.6-0.1c-1.2-0.3-2.5-0.7-3.7-1c2.4,2.4,4.4,6,6.4,8.8c2,2.9,3.8,5.6,3.3,9.2
				c1.9-1.5,3.8-2.9,5.8-4.4c-2.1-0.5-3.9-1.3-5.5-2.8c-0.7-0.7-1.3-1.4-1.8-2.2c-0.2-0.3-0.4-0.7-0.6-1c-0.3-1.5-0.8-1.3-1.3,0.6
				c-1.2,0.5-2.3,1-3.5,1.5c-1.6-0.5-1.6-0.3-0.1,0.6c0.8,0.5,1.5,1.1,2.3,1.6c2.3,1.6,3.8,2.9,4.4-2.1c0.3-2,0.7-4.4,0.8-6.5
				c0.1-1.8-1.6-3.2-3.2-3.2c-9.2-0.3-8.9,12.7-3.9,17.4c7,6.6,18.6-2.2,12.1-10.1c-1.3-1.7-3.4-2.8-5.1-4.1
				c-1.6-1.1-3.3-2.7-5.2-3.3c-4-1.2-7.6,2-7.7,6c-0.1,8.3,8.6,15.2,16,16.4c3,0.5,5.5-1.2,5.8-4.4c0.3-4.6-1.5-8.7-4.2-12.4
				c-2.6-3.6-5.9-9.1-9.7-11.3C413.8,132.9,413.7,148.8,419.6,146.8L419.6,146.8z"/>
		</g>
	</g>
	<g>
		<g>
			<path class="st3" d="M472.4,593.2c-0.3-2.6,7.8-1,8.6-1.3c1.3,0.4,0.9-0.1-1.2-1.6c-0.8,0.5-1.7,1-2.6,1.3
				c-2.1,0.9-4.2,1.6-6.5,1.5c1.2,0.5,2.4,1,3.6,1.5c0.4,0.3,5.3-3.6,5.7-3.8c2-1.1,4-2,6.2-2.6c2.4-0.7,4.9-1.2,7.4-1.3
				c0.5,0,3,0.3,3.2,0.1c-0.2-0.9-0.4-1.9-0.6-2.8c-0.4,0.5-0.7,0.9-1.1,1.4c-1.9,1.3-3.4,3.4-5.4,4.7c-1.8,1.2-3.7,2.1-5.8,2.7
				c-0.3,0.1-3.9,0.7-3.9,0.9c0.5,0.7,1.1,1.5,1.6,2.2c0.3-0.5,0.6-0.9,0.9-1.4c2.4-1.5,3.8-2.9,6.7-3.8c1.8-0.6,4.8-1.7,6.8-1.4
				c3.3,0.5,0,2.5-1.6,3.6c-2.2,1.4-4.5,2.5-6.9,3.4c-1,0.4-2.4,0.5-3.4,1.1c-1.8-0.1-2.2,0.5-1.3,1.9c0.1,1.7,0.4,1.9,1.1,0.7
				c0.7-0.2,2.1-1.9,2.8-2.4c0.9-0.6,1.9-1.1,3-1.5c2.1-0.8,5.9-2.1,3.5,1.4c-2.7,3.8-8.8,7.4-13.6,6.9c1.4,0.8,2.8,1.6,4.2,2.4
				c-1.2-2.1,6.1-3.1,2.3-2.8c-2,0.2-3.7,0.8-5.8,0.8c1.5,1.5,3,3,4.5,4.5c0.1-1.9,3.8-4.8,5.1-6c2.1-1.9,5.1-4.4,8.1-4.5
				c-1.1-0.6-2.2-1.3-3.3-1.9c0.2,0.3,0.4,0.6,0.6,0.9c-0.1-0.9-0.2-1.9-0.4-2.8c-0.3,2.3-1.5,4.1-3.2,5.7c-0.8,0.8-1.7,1.4-2.7,1.9
				c-2.1,0.6-2.2,0.9-0.4,0.7c0.9,0.7,1.9,1.4,2.8,2.1c0.4,0.6,1.8-3.6,2.2-4.2c1.2-2.2,2.6-3.3,5-4c-1.5-1.2-3-2.3-4.5-3.5
				c-0.1,3.3-1.3,4.8-4,6.7c-1.9,1.3-0.8,4.9,1.7,3.9c4-1.5,7.3-4.9,9.1-8.8c1.1-2.4-0.2-5.4-3.1-5.4c-4.8,0-8.7,2.6-11.5,6.4
				c-2.6,3.5-5.4,9.5-2.8,13.6c0.8,1.3,2.4,2.4,4,2.3c6.2-0.4,20.8-16.5,12-21c-4.6-2.4-11.4,1.8-14.9,4.5
				c-4.7,3.6-9.8,8.1-8.6,14.5c0.5,2.6,3.3,3.5,5.6,3.2c5.6-0.8,12.8-2.7,13.7-9.4c0.9-6.9-6.2-9.3-11.8-8c-6.4,1.5-12.3,8.5-8.2,15
				c4,6.4,13.5,0.2,17.7-3c4.9-3.7,10.6-9.4,8.9-16.2c-1.6-6.6-9.7-6.5-15-4.7c-5.5,1.9-13.9,7.2-12.6,14.1c1.5,8,10.5,5.2,15.7,3.2
				c6-2.3,14.1-5.2,16.7-11.8c2.6-6.5-1.6-12.7-8.4-13.5c-7.1-0.9-15.9,1.5-21.3,6.2c-4.5,3.9-8.8,12.4-2.6,16.8
				c5.1,3.6,13.6-0.3,18.4-2.8c5.1-2.6,14.2-8.9,13.6-15.5c-0.7-7.7-10-8-15.8-7.4c-7.5,0.8-14.8,3.6-20.6,8.5
				c-4.7,4-9.1,14.9-0.5,17.6c6.7,2.1,18.6-3.4,21.1-10c6-15.9-32.8-17-27.4,1.3C464.6,599.3,473.1,598.7,472.4,593.2L472.4,593.2z"
				/>
		</g>
	</g>
	<g>
		<g>
			<path class="st3" d="M113.9,611c-0.9,0.6,2.5-0.4,2.3-0.4c1.2-0.1,2.3-0.1,3.3,0.5c1.3,0.7,4.2,6,2.6,7.4
				c-0.1,0.1-2.4-2.9-2.8-4.1c-0.5-1.5-0.5-3.2-0.5-4.8c0-0.5,0-1.1,0-1.6c0.2-1.8,0.2-2.1-0.2-0.8c-1.3,0.6-2.7,1.1-4,1.7
				c-1.7,0,1.7,2.3,2.1,2.8c1.4,1.3,2.8,2.6,4.3,4c2.4,2.2,4.8,4.4,7.1,6.6c0.8,0.8,1.7,1.5,2.5,2.3c0.3-0.5,0.6-1,0.9-1.5
				c-0.4-0.4-3.1-0.7-3.8-1.1c-1-0.6-1.6-1.4-2.2-2.3c-0.4-0.6-0.5-1.2-0.5-1.9c-0.5,0.6-0.3,0.7,0.5,0.4c2.8-0.6,5.9,1.4,8.1,2.9
				c1.2,0.9,2.4,2.5,3.7,3.1c0.2-0.6,0.4-1.3,0.6-1.9c-1,0.2-2,0.3-3,0.3c-0.4,0-8.5-2-5.3-2.8c1.9-0.6,2.7,1.6,4,2.2
				c0.4-0.4,0.9-0.7,1.3-1.1c-0.8,0.3-1.6,0.5-2.5,0.5c-4.8,0.4-5.7,6.6-1.1,8.3c4.3,1.6,9.9,1.5,12.3-3.2c2.9-5.5-1.2-12-5.9-15
				c-4.4-2.9-10-3.4-14.5-0.3c-4.5,3-6.5,9.1-3.8,14.1c4.3,8,22.2,11.6,27.3,2.6c5.8-10.1-12.2-20.4-20.3-20.5
				c-13.2-0.2-15.1,14.8-6.1,22.1c6.5,5.2,23.5,6.2,20.8-6.4c-1.2-5.6-7.2-9.8-11-13.6c-2.7-2.8-5.5-5.5-8.2-8.3
				c-2.1-2.1-4-3.8-7.2-3.5c-12.6,1-7.4,23.1-0.9,28.3c4.2,3.3,10.3,4.4,14.8,1c5.1-3.8,4.6-11.5,2.5-16.8
				c-2.2-5.6-7.4-9.4-13.5-9.3c-5,0.1-11,3.3-8.3,9C110,611.4,112.5,611.9,113.9,611L113.9,611z"/>
		</g>
	</g>
	<g>
		<g>
			<path class="st3" d="M158.3,500.6c-4.4,7-7.4,14.6-8.8,22.8c-0.7,4-1.1,8.1-1.2,12.2c-0.1,3.7,0.7,8-0.9,11.4
				c3.2,0.9,6.3,1.7,9.5,2.6c-1.6-14.3,1.1-27.8,8-40.4c-2.7-0.4-5.4-0.7-8.1-1.1c1.3,3.8-2.8,9.5-4,13.1c-1.3,3.8-2.3,7.8-2.9,11.8
				c-1.3,8.3-1.3,16.6,0,24.9c0.8,5.3,10.2,4.1,9.5-1.3c-1.9-15.1,0.4-30,6.2-44c-3.1-0.4-6.3-0.9-9.4-1.3
				c-0.8,18.1-5,35.7-9.2,53.3c3.3,0.4,6.6,0.9,9.9,1.3c0.8-17.9,2.9-37.7,13.7-52.6c-2.6-1.1-5.3-2.2-7.9-3.3
				c-3.1,11.5-5.8,22.8-7.2,34.7c-1.4,12-1.7,24.1-1.9,36.2c-0.1,5.2,7.6,7.5,10,2.7c2-3.9,2.6-7.3,0.9-11.5c-1.4-3.5-6.4-4-7.7,0
				c-0.6,2.1-1.5,4.2-2.6,6c3.3,0.9,6.7,1.8,10,2.7c-2.5-22.5-0.7-47.1,6.7-68.5c1.4-4-4.5-7.5-7.2-4.2
				c-13.8,16.7-16.5,36.9-17,57.9c-0.1,5.6,8.7,6.9,9.9,1.3c4.1-18.5,8-37,9.1-55.9c0.3-4.7-6.8-6.6-8.9-2.4
				c-7.7,15.4-9.8,32.1-6.9,49c3.1-0.9,6.2-1.7,9.3-2.6c-1.6-8.9-1.5-18,0.7-26.8c1.8-7.3,7.5-15.2,5.4-22.8c-1-3.8-6.1-4.2-8.1-1.1
				c-8.5,13.2-12,29.3-10.5,44.9c0.4,4.5,7.1,7.6,9.5,2.6c3.5-7.4,1.9-15.1,2.4-22.9c0.6-8.9,2.5-17.7,5.1-26.3
				C164.6,499.6,160,497.9,158.3,500.6L158.3,500.6z"/>
		</g>
	</g>
	<g>
		<g>
			<path class="st3" d="M401,524.2c7,13.7,11.8,28.6,13.6,44c3.2-0.4,6.5-0.9,9.7-1.3c-3.8-13.4-0.8-27.7-5.8-40.8
				c-2.5,1.9-5,3.8-7.5,5.7c5.3,3.9,7.1,10.9,8.5,17c1.7,7.6,2.4,15.3,2.4,23c3.3-0.5,6.7-0.9,10-1.4c-5.4-13.5-5.6-27.7-5.5-42.1
				c-3.5,0.5-7,0.9-10.5,1.4c5.9,19.6,6.4,42-1.5,61.2c3.7,0.5,7.4,1,11.2,1.5c0.7-12.3,3.2-23.6,8.6-34.7
				c-3.6-0.5-7.1-0.9-10.7-1.4c3.2,9.6,2.5,20-2,29.1c3.5,0.5,7,0.9,10.5,1.4c-1-6.3,0.7-12.4,4.1-17.7c-3.5-0.5-7-0.9-10.4-1.4
				c1.1,7,0.6,13.9-1.4,20.7c-1.7,6,7.8,10.4,10.4,4.4c2.6-6,4.2-12.2,5.5-18.6c1.4-6.5,2.7-13.1,2.1-19.8
				c-0.6-6.4-3.3-11.6-6.3-17.2c-3.2-5.8-4.7-11.8-6.1-18.2c-1.1-5-9.6-5.3-10.4,0c-1.1,6.7,0.6,12.4,3.5,18.3
				c2.5,5.1,6.9,11,5.4,17c-1.6,6.6,8.6,9.5,10.2,2.8c1.6-6.5-0.2-12.3-3-18.2c-2.4-5.1-7.1-11.2-5.8-17.1c-3.5,0-7,0-10.4,0
				c0.9,5.7,1.9,11.3,4.4,16.6c2.2,5,5.8,9.4,6.8,14.8c1.1,5.9-0.3,12-1.4,17.7c-1.2,5.9-2.5,11.7-4.9,17.2c3.6,1,7.3,2,10.9,3
				c2.4-8.9,2.8-17.7,1.5-26.7c-0.8-5.3-8-5-10.4-1.4c-5.4,8-7,17.1-5.4,26.5c0.8,4.7,8.5,5.7,10.5,1.4c5.7-12.1,6.8-25,3.4-38
				c-1.3-4.8-8.2-5.8-10.7-1.4c-6.8,12.2-10.6,26.6-9.9,40.6c0.3,6.2,9.5,7.9,11.2,1.5c6-22.4,7.5-44.6,0.8-67.1
				c-1.7-5.7-10.4-4.7-10.5,1.4c-0.2,15.7-0.1,31.6,6.8,46c2.3,4.7,9.5,2.2,9.5-2.6c-0.1-16.4-1.6-38.2-16-48.8
				c-3.5-2.6-9,1.7-7.5,5.7c4.9,13.1,2,27.4,6,40.8c1.5,5.1,10.5,4.4,9.7-1.3c-2.3-17.1-7.4-33.3-15.8-48.5
				C405.9,514.7,398.3,519.1,401,524.2L401,524.2z"/>
		</g>
	</g>
	<g>
		<g>
			<path class="st3" d="M168.4,512.6c8.8,2.7-6.8,21.2-9.1,24.5c3.2,1.3,6.4,2.7,9.6,4c3-9.3,7-17.9,11.7-26.5
				c-3.1-1.3-6.1-2.6-9.2-3.9c-3.7,11-9,21.7-13.9,32.3c3.1,1.3,6.2,2.6,9.3,3.9c1.5-8.1,3.9-15.7,7.9-22.9
				c-3.1-0.4-6.3-0.8-9.4-1.2c2.5,6.7-0.5,14-2.3,20.6c-2.1,7.3-4.3,14.5-6.7,21.7c3.5,1,7.1,2,10.6,2.9c2.5-9.6,3.6-19.5,5-29.3
				c-3-0.4-5.9-0.8-8.9-1.2c-2.8,21.1-12.4,44,0.6,63.5c3.9,5.8,13.3,0.5,9.5-5.5c-5.1-8-6.3-16.5-5.3-25.9
				c1-10.3,2.3-20.7,4.1-30.9c1-5.7-7.7-8.2-8.7-2.4c-1.8,9.7-4.6,19.2-6.9,28.8c-1.6,6.9,8.5,9.7,10.6,2.9c2.6-8.4,5-17,7.1-25.5
				c1.8-7.3,3.9-15.1,1.2-22.5c-1.4-4-7.1-5.3-9.4-1.2c-4.8,8.3-7.8,17.2-9,26.7c-0.8,6.1,8,6.2,10,1.3c4.3-10.8,8.4-22,13.8-32.3
				c3-5.8-5-10.4-8.7-5.1c-6,8.7-10.3,18.7-13.1,28.8c-1.6,5.8,6.5,9,9.6,4c4.4-7,10.9-14.7,12-23.1c0.8-6.7-2.7-13.7-9.6-15.2
				C165.2,503,163,510.9,168.4,512.6L168.4,512.6z"/>
		</g>
	</g>
	<g>
		<g>
			<path class="st3" d="M403.1,523.4c-1-1.5-1.8-2.7-2.1-4.4c-2.3,1.3-4.6,2.7-6.9,4c5.4,4.2,9.3,9.7,11.3,16.2c3-0.8,6-1.6,8.9-2.5
				c-1.1-2.9-2.5-5.6-4.5-8.1c-0.9-1.1-1.8-2.2-2.9-3.2c-0.5-0.5-1.1-0.9-1.7-1.4c-0.3-0.2-1.3-1.3-1.3-0.7c-0.4-3.8-5-5.3-7.2-2
				c-2.2,3.4-0.1,6.4,2.5,8.7c2.9,2.6,4.9,5.5,6.1,9.1c1.9,5.6,10.8,3.3,8.9-2.5c-2.7-8.5-7.9-15.3-15.2-20.3
				c-2.8-1.9-7.4,1.3-6.1,4.7c1.4,3.6,3.7,6.2,7.7,6.5C402.8,527.7,404.3,525.1,403.1,523.4L403.1,523.4z"/>
		</g>
	</g>
	<g>
		<g>
			<path class="st3" d="M408.1,519.2c3,0.5,4.6,3,6,5.5c1.8-1.4,3.5-2.7,5.3-4.1c-4.9-3.8-10.2-5.9-16.4-6.6c0,2.5,0,5,0,7.5
				c3.7-0.5,7.2,0.6,8.7,4.2c-0.1-1-0.3-2.1-0.4-3.1c-0.1,0.4-0.1,0.7-0.2,1.1c0.6-0.8,1.2-1.6,1.9-2.4c0.8-0.5-0.1,0-0.8-0.1
				c-0.9-0.2-1.8-0.3-2.7-0.6c-0.9-0.3-1.7-0.9-2.6-1.2c-0.4-0.3-0.9-0.6-1.3-0.9c-0.3,0.8-0.6,1.6-0.9,2.5c0.4,0.5,3.9,0.5,4.8,0.9
				c0.6,0.3,1.5,0.9,1.9,1.5c0.8,1.6,0.2,1-1,1.5c-2.1,1-3.9,0.8-5.8,0.5c-0.5-0.1-0.8,0.3,0,0.2c0.8-0.2,1.6-0.5,2.4-0.7
				c1.3-0.3,9.9-2,8.7,1.5c0.7-1,1.5-1.9,2.2-2.9c-2.4,1.7-5.9,2.6-8.9,2.8c-2,0.1-1.5,0.5-1.9-0.9c-0.2-0.6,0.2-2.3,0.7-2.8
				c0.9-0.8,1.9-0.4,2.9,0.1c0.6,0.3,1.2,0.7,1.6,1.2c0.9,1.1,1.5,0.5,1.9-1.9c0,0-3.2,0.5-3.4,0.4c-1-0.1-2.3-0.6-3.1-1.2
				c-1.1-0.9-1.1-0.5,0-0.9c1.1-0.3,2.5-0.3,3.6-0.1c0.5,0.1,4,1.1,3.8,1.3c-0.1-0.6-0.3-1.2-0.4-1.8c-0.9,0.2-1.8,0.4-2.6,0.5
				c-1.4,0.2-2.9,0-4.2,0.3c-0.4-0.1-0.9-0.2-1.3-0.3c-2.4,4.3-2.4,6-0.1,5.1c1.6,0.1,3.2-0.9,5-0.7c0.6,0,1.2,0.1,1.8,0.4
				c1,0.9,1.3,0.6,0.9-1c0.8-1,1.6-2,2.4-3.1c-1.7,1.3-4.4,1.9-6.5,2.2c-1.3,0.2-2.8,0.3-4-0.1c-0.5-0.2-1.7-1.2-1.9-1.3
				c-0.2-0.5-0.5-0.3-0.8,0.7c-1.1,1-0.9,1.2,0.5,0.8c1,0.3,2.8-0.1,3.9,0c0.9,0,7,0.5,7.5,1.5c-0.2-1.3-0.3-2.6-0.5-4
				c0.4-0.4,0.3-0.4-0.3,0.1c-0.5,0.4-1.1,0.7-1.7,1c-1.1,0.4-2.7,0.7-3.8,0.5c-3.8-0.6,0-1,2-1.1c1.1-0.1,2.5-0.3,3.5,0.5
				c0.6-0.4,0.5-0.4-0.1-0.1c-0.7,0.3-1.3,0.5-2,0.7c-1.5,0.4-3.1,0.7-4.8,0.9c-2.2,0.2-3-0.7-3.6,1.9c1.4-6.2-7.4-8.5-9.4-2.6
				c-1.8,5.3,2.1,9.8,7.1,10.7c5.4,1,12.4-0.1,17.3-2.4c10.9-5.3,5.2-19.3-5.6-19.9c-4.6-0.3-11,0.8-14.2,4.4
				c-3.4,3.8-2.9,9.7,0.4,13.3c3.5,3.8,9.2,4.7,14.1,3.7c4.6-1,11.4-4.6,11.2-10.1c-0.2-5.3-5.9-7.3-10.3-8.3
				c-4.9-1.1-12.1-2.1-16.6,0.5c-3.8,2.2-4.7,6.9-3.4,10.8c1.7,4.8,6.6,7.5,11.4,8.1c4.8,0.6,10.9-0.6,15.1-3.1
				c5.2-3.1,3.8-9.1-0.2-12.5c-4.1-3.5-9.5-3.8-14.6-2.8c-4.7,0.9-10.6,3.6-8.8,9.5c2.9,9.5,21.7,7.8,26.5,1c3-4.2,1.2-9.1-2.5-12
				c-4.2-3.3-10-4.2-15.1-3.3c-4.7,0.9-9.1,3.9-9.6,9c-0.5,5.4,3.5,9.8,8.1,11.8c4.2,1.9,9.1,2,13.3,0.2c5.3-2.3,7-7.3,3.6-12.1
				c-5.7-8.2-19.3-10.3-23.5,0.4c-1.5,3.9-1.5,8.9,0.9,12.5c3.5,5.3,10.4,4.3,15.8,3c4.6-1.2,10.2-3,10.6-8.4
				c0.4-4.7-3-8.9-7.1-10.8c-7-3.2-23.7-0.6-23.3,9.5c0.2,5.3,5.1,9.1,10.1,9.3c4.9,0.2,12.5-1.8,14.6-6.7
				c4.4-10.2-10.7-18.8-19.1-14.5c-4.6,2.3-4.5,7.6-1,10.8c3.6,3.3,9.7,5.6,14.6,4.9c5.7-0.8,5.9-6.7,2.5-10.4
				c-3.8-4.2-9.4-5.6-14.8-4.6c-4.4,0.8-3,7,1,7.3c4.6,0.3,8.5,1.9,12.3,4.5c2.8,1.9,6.5-1.9,4.6-4.6c-2.9-4.2-6.4-8.1-11.8-6.1
				C406.4,515.8,405.9,518.9,408.1,519.2L408.1,519.2z"/>
		</g>
	</g>
	<g>
		<g>
			<path class="st3" d="M177.5,150.9c4.9-3.8,9.1-8.6,13.7-12.7c2.7-2.4,0.5-7.2-3-7.1c-3.6,0.1-6.9,0.7-10.3,2c1.6,2,3.1,4,4.7,6.1
				c1.5-3.2,7.6-4.1,10.4-6.3c3.4-2.7-0.3-8.3-4.2-7.2c-13,4-24.6,13.1-30.8,25.4c3,0.4,6.1,0.8,9.1,1.2c-0.8-2.7,7.8-7,9.9-8.1
				c3.4-1.7,8.7-4.2,12.6-4c-1.3-0.7-2.5-1.5-3.8-2.2c0.1,0.2,0.3,0.4,0.4,0.6c3.2,4.6,10.8,0.3,7.6-4.4c-4.5-6.6-16.6-0.1-22.1,2.5
				c-7.1,3.4-17,8.8-14.2,18.2c1.2,3.8,7.2,5.2,9.1,1.2c5.1-10.6,13.2-18.4,24.5-22.2c-1.4-2.4-2.8-4.8-4.2-7.2
				c-4,3.3-9.1,2.8-11.5,8.2c-1.2,2.9,0.9,7.5,4.7,6.1c2.7-1,5.2-1.5,8.1-1.6c-1-2.4-2-4.8-3-7.1c-4.8,4.3-9.9,8.9-13.3,14.4
				C169.8,150.3,174.5,153.2,177.5,150.9L177.5,150.9z"/>
		</g>
	</g>
	<g>
		<g>
			<path class="st3" d="M423.3,149c0.9-2,1.1-3.6,0.7-5.8c-0.1-0.6-0.2-1.2-0.4-1.8c-0.1-0.6-0.1-0.6-0.1,0c0-0.5,0-0.6-0.1-0.2
				c-0.1,0.4-0.1,0.4,0-0.1c-0.3,0.9-0.9,1.5-1.8,1.8c-0.6,0-0.6,0,0,0c-0.3,0-0.5,0-0.8-0.1c0.5,0.3,0.5,0.3,0.2,0.1
				c0.2,0.2,0.5,0.4,0.7,0.7c0.9,0.8,1.8,1.1,3,1.5c2.6,0.8,5.5-1.4,5.4-4.2c-0.1-1.8-0.5-3.3-1.7-4.7c-0.8-0.9-1.8-1.7-2.9-2.3
				c-2.6-1.4-5.9-1.4-8.5,0.1c-2.9,1.8-4,5.1-3.4,8.3c0.1,0.8,0.4,1.6,0.7,2.4c0.1,0.4,0.3,0.9,0.4,1.3c0.1,0.3,0.1,1.7,0.1,0.7
				c0,2,1.4,3.9,3.4,4.4C419.9,151.6,422.5,150.9,423.3,149L423.3,149z"/>
		</g>
	</g>
	<g>
		<g>
			<path class="st3" d="M426.6,143.2c-0.1-0.5-0.2-1-0.3-1.5c-0.1,0.8-0.2,1.6-0.3,2.4c0.5-1,0.7-1.9,0.7-3
				c-2.6,0.4-5.3,0.7-7.9,1.1c0.9,2.2,2.5,4,3.6,6.1c1.1,2.1,1.9,4.4,3.7,6c2.7,2.4,6.1,0.6,6.5-2.7c0.4-2.8-1.1-5.5-2.6-7.8
				c-1.4-2.2-3.1-4.8-5.4-6.2c-3.9-2.4-8.3,3.2-4.9,6.3c0.8,0.8,1.5,1.2,2.6,1.6c-0.6-0.5-1.3-1-1.9-1.4c0.3,0.4,0.6,0.8,0.9,1.2
				C423.4,148,427.2,146.4,426.6,143.2L426.6,143.2z"/>
		</g>
	</g>
	<g>
		<g>
			<path class="st3" d="M96.5,453.5c2.1,3,2,7.1,3.3,10.5c1.4,3.7,3.7,7,6.3,10c5.9,6.4,14.1,11.2,21.6,15.4
				c16.7,9.3,34.7,16.3,52.8,22.5c-1.4-2.5-2.8-4.9-4.2-7.4c-0.4,2-0.9,4-1.3,5.9c3.6-0.5,7.2-0.9,10.7-1.4c-1-1.3-1.4-2.8-2.5-4.1
				c-1.2-1.4-3.8-1.3-5,0c-1.1,1.3-1.6,2.7-2.6,4.1c-4.9,6.4,8.4,13.4,10.7,4.5c0.5-2,1-3.9,1.6-5.9c0.9-3.4-1.2-6.2-4.2-7.4
				c-16.8-6.7-33.8-12.8-49.7-21.7c-7.1-4-14.8-8.2-20.6-14.1c-4.9-4.9-4.6-13.6-11.2-16.9C98.9,446,93.9,449.7,96.5,453.5
				L96.5,453.5z"/>
		</g>
	</g>
	<g>
		<g>
			<path class="st3" d="M397.4,523c9.3,2,21.1-1.6,29.7-5.2c9.9-4.1,18.8-10,26.7-17.2c8.3-7.6,16.4-15.5,23.7-24
				c7.7-9.1,13-18.6,17-29.8c1.7-4.9-6.3-8.3-8.4-3.5c-8.4,18.9-23.2,33.7-38.1,47.6c-7.1,6.7-14.7,12.4-23.6,16.6
				c-4.1,1.9-8.4,3.5-12.7,4.8c-4.7,1.4-9.8,1.7-14.4,3.5C394.2,516.9,393.4,522.2,397.4,523L397.4,523z"/>
		</g>
	</g>
	<g>
		<g>
			<path class="st3" d="M102,457.4c-0.5-0.7-1-1.2-1.7-1.7c-0.7-0.5-1.5-0.7-2.3-0.7c-0.9,0-1.8,0.7-2,1.5c-0.2,0.9,0.1,1.8,0.9,2.3
				c0.1,0,0.2,0.1,0.2,0.1c-0.2-0.2-0.3-0.2-0.2-0.1c0,0,0.1,0.1,0.1,0.1c0.3,0.2,0.6,0.4,0.9,0.6c0.1,0,0.2,0.1,0.2,0.1
				c0.3,0.2-0.1-0.1-0.1-0.1c0,0,0.5,0.4,0.5,0.5c0.7,0.8,2,0.8,2.8,0.2C102.2,459.6,102.6,458.3,102,457.4L102,457.4z"/>
		</g>
	</g>
	<g>
		<g>
			<path class="st3" d="M100.1,455.1c-0.6-1.3-1.2-2.6-1.8-3.9c-1.5,0.4-3.1,0.8-4.6,1.3c1.5,3.6,3.7,7,5.3,10.5
				c1.7,3.7,3.3,7.4,5.5,10.8c3.7,5.6,9.9,12.6,16.9,13.3c2,0.2,2.7-2.1,2-3.5c-1.5-3.4-4.5-5.2-7.2-7.6c-3.1-2.7-5.4-5.8-7.5-9.4
				c-3.3-5.8-5.8-13.1-11.6-16.8c-2.1-1.3-4.4,1.3-3.3,3.3c0.8,1.4,1.5,2.8,2.3,4.3C97.6,460,101.4,457.7,100.1,455.1L100.1,455.1z"
				/>
		</g>
	</g>
	<g>
		<g>
			<path class="st3" d="M96.3,463.2c4.1,7.8,8.3,15.7,14.5,22.1c4.1,4.2,11.5,11,17.9,9.3c1.3-0.3,2.2-2.1,1.3-3.3
				c-1.8-2.3-4.1-3.2-6.5-4.7c-3.1-1.9-5.9-4.1-8.4-6.7c-5.5-5.8-9.7-12.7-13.8-19.5C99.4,457,94.5,459.9,96.3,463.2L96.3,463.2z"/>
		</g>
	</g>
	<g>
		<g>
			<path class="st3" d="M115.2,488.7c7.7,7.6,20.4,16.3,31.8,14.7c2.1-0.3,2.4-3.7,0.6-4.6c-4.6-2.2-9.9-2.9-14.6-5
				c-5.1-2.3-9.7-5.2-13.9-8.9C116.4,482.6,112.7,486.2,115.2,488.7L115.2,488.7z"/>
		</g>
	</g>
	<g>
		<g>
			<path class="st3" d="M125.8,493.1c7,4.4,15.3,10.5,23.7,11.8c1.9,0.3,4.1-2.1,2.2-3.7c-6.6-5.5-15.6-8.5-23-12.9
				C125.5,486.5,122.8,491.2,125.8,493.1L125.8,493.1z"/>
		</g>
	</g>
	<g>
		<g>
			<path class="st3" d="M126.7,493.1c6.6,4.8,13.4,9.6,21.4,11.6c1.8,0.5,3.7-2.1,2-3.5c-6.5-5-13.8-8.5-20.6-13
				C126.5,486.3,123.9,491,126.7,493.1L126.7,493.1z"/>
		</g>
	</g>
	<g>
		<g>
			<path class="st3" d="M129.6,499c4.3,4.9,21,27.7,28.2,15.5c0.8-1.4-0.2-3.5-1.9-3.4c-4.7,0.2-7.8-3.2-11-6.2
				c-3.6-3.4-7.2-6.9-10.6-10.6C131.3,491.2,126.9,495.8,129.6,499L129.6,499z"/>
		</g>
	</g>
	<g>
		<g>
			<path class="st3" d="M141.6,498.2c0.1-0.2,0.2-0.3,0.2-0.5c-1.2,0.7-2.3,1.3-3.5,2c1.2,0,4,2.4,5,3c1.4,0.8,2.7,1.6,4.1,2.5
				c3.2,1.9,6.4,3.8,9.7,5.6c4.4,2.5,9.2-3.4,5.4-7.1c-3.7-3.6-6.9-7.1-11.6-9.4c-0.9,2.2-1.8,4.4-2.8,6.5c2.8,0.8,6.8,2.7,7.7,5.8
				c0.3-1.2,0.6-2.3,0.9-3.5c-1.1,1.4-6.4,0.4-8.2,0.1c-3-0.5-5.8-1.6-8.4-3.1c0.5,1.8,0.9,3.6,1.4,5.3c0.1-0.1,5.3,1.1,6.3,1.5
				c2.4,0.8,3.8,1.6,6.3,1.1c1.5-0.3,2.5-2.2,2.1-3.7c-2.3-7.4-19-10.1-21.8-1.9c-0.7,2.1,0.8,4.2,2.7,4.8c4.3,1.5,8.8,2.5,13.4,2.8
				c3.2,0.2,8.5,0.9,10.9-1.6c5.8-5.9-7-13.3-11.4-14.6c-3.8-1.1-6.5,4.8-2.8,6.5c3.2,1.5,6.8,3.9,7.7,7.6c2.2-1.7,4.4-3.4,6.6-5.1
				c-4.4-2.6-8.8-5-13.2-7.5c-3.2-1.8-7.3-5.3-11.2-3.7c-1.8,0.7-2.8,1.9-2.9,3.9c0,0.2,0,0.4,0,0.6
				C134.1,500,140,501.7,141.6,498.2L141.6,498.2z"/>
		</g>
	</g>
	<g>
		<g>
			<path class="st3" d="M481.7,438.6c-3.9,3.7-6.2,9.3-9.2,13.7c-3.1,4.8-6.5,9.3-10.4,13.5c-3.5,3.8-7.4,7.1-11.7,9.9
				c-4.4,2.8-9.4,4.4-13.7,7.2c-3,2-1.7,6.2,1.8,6.6c10.9,1,22-8.8,28.8-16.3c4.1-4.5,7.7-9.4,10.9-14.6c3.2-5.1,7.6-11,8.9-16.9
				C487.8,438.6,484.1,436.3,481.7,438.6L481.7,438.6z"/>
		</g>
	</g>
	<g>
		<g>
			<path class="st3" d="M482.6,440.3c-7.9,13.8-17.7,26.2-29.5,36.9c-5.8,5.2-11.8,10.2-18.2,14.6c-5.7,3.9-14.2,7.5-18.2,13.3
				c-1.6,2.3,0.5,5.4,3.1,5.4c7.4,0.1,15.7-6.7,21.4-10.9c6.5-4.9,12.6-10.1,18.2-16c11.3-12,20.8-25.6,27.9-40.5
				C488.8,439.9,484.3,437.2,482.6,440.3L482.6,440.3z"/>
		</g>
	</g>
	<g>
		<g>
			<path class="st3" d="M461,462.8c-8.9,7.1-17.8,14.1-26.7,21.1c-4.3,3.4-8.7,6.8-13,10.3c-3.7,2.9-8.4,5.8-11.5,9.4
				c-1.6,1.9-1.6,4.3,0,6.2c0.1,0.1,0.2,0.2,0.3,0.4c1.4,1.6,4.1,1.8,5.9,0.8c4.1-2.3,7.7-6.3,11.2-9.4c4.3-3.9,8.7-7.7,13-11.6
				c8.4-7.5,16.9-15,25.4-22.5C468.8,464.6,464.2,460.3,461,462.8L461,462.8z"/>
		</g>
	</g>
	<g>
		<g>
			<path class="st3" d="M441,488.7c-12.6,9.2-25.1,16.9-39.7,22.5c-1.5,0.6-3,2.3-2.3,4.1c0.1,0.2,0.2,0.4,0.3,0.6
				c0.6,1.5,2,3.2,3.9,3c7.6-0.8,15.4-5.7,21.7-9.9c7-4.6,13.6-9.9,20.2-15.1C447.9,491.6,444.1,486.5,441,488.7L441,488.7z"/>
		</g>
	</g>
	<g>
		<g>
			<path class="st3" d="M410.7,507.1c-8,2-15.6,5.1-22.5,9.6c-2.5,1.6-2.6,6.5,0.9,7.1c5.3,0.8,8.6-1.6,12.8-4.5
				c3.9-2.6,8.9-5.6,11.4-9.7c0.6-1-0.2-2.7-1.5-2.6c-3.3,0.4-6.3,2.1-9.2,3.7c-2.5,1.4-8.5,6.8-11.5,5.6c0.3,2.4,0.6,4.7,0.9,7.1
				c6.4-4.2,13-7.9,20.2-10.5C415.9,511.6,414.5,506.2,410.7,507.1L410.7,507.1z"/>
		</g>
	</g>
	<g>
		<g>
			<path class="st3" d="M402.8,516.2c7.1-3.6,14-7.5,20.9-11.5c6.4-3.8,13.4-7.7,18.7-13c2.3-2.3-0.6-5.5-3.3-4.3
				c-6.9,3.1-13.2,7.9-19.6,11.9c-6.5,4-13.1,7.8-19.8,11.5C396.1,512.7,399.2,518,402.8,516.2L402.8,516.2z"/>
		</g>
	</g>
	<g>
		<g>
			<path class="st3" d="M416.4,509.6c18.7-10.6,36.6-23.8,48.9-41.7c1.2-1.7-1.3-3.2-2.7-2c-16.1,13.4-31.3,27.7-48.8,39.2
				C411,506.9,413.5,511.2,416.4,509.6L416.4,509.6z"/>
		</g>
	</g>
	<g>
		<g>
			<path class="st3" d="M461.5,469.4c6.1-6.6,14.9-15.6,16.3-24.8c0.3-1.9-1.9-3.6-3.5-2c-3.2,3.1-5,7.2-7.3,11
				c-2.6,4.4-5.6,8.6-8.8,12.6C456.5,468.4,459.4,471.6,461.5,469.4L461.5,469.4z"/>
		</g>
	</g>
	<g>
		<g>
			<path class="st3" d="M462.4,463.3c-1.4,1.9-2.1,3.4-2.2,5.8c0,2.9,3.7,4.4,5.8,2.4c5.8-5.7,10.8-14,9.2-22.5
				c-0.3-1.8-3.1-2.1-3.9-0.5c-1.6,3-2.7,6.2-4.2,9.2c-1.6,3.2-3.4,6.3-5.8,9c1.9,0.8,3.8,1.6,5.8,2.4c-0.2-0.7-0.1-1.4,0.3-2
				C469,464.1,464.6,460.4,462.4,463.3L462.4,463.3z"/>
		</g>
	</g>
	<g>
		<g>
			<path class="st3" d="M475.3,446.5c-1.9,4.6-3.7,9.5-6.5,13.6c1.9,0.8,3.8,1.6,5.6,2.4c0.7-2.6,1.2-5.4,1.6-8
				c0.4-2.5,1.4-5.1,1.3-7.6c-0.1-1.7-2.3-2.9-3.6-1.5c-1.8,2-2.7,4.9-3.6,7.4c-1,2.8-1.6,5.9-1.8,8.8c-0.2,4,5.9,3.9,6.2,0
				c0.4-4.9,2.1-9.7,3.5-14.4C478.7,445.4,476,444.8,475.3,446.5L475.3,446.5z"/>
		</g>
	</g>
	<g>
		<g>
			<path class="st3" d="M476.2,437.8c-1.6,2.2-3,4.5-4.3,6.8c-1.8,3.2,2.9,7.2,5.3,4.1c3.4-4.4,5.5-9.4,7.6-14.5
				c-2.4-0.6-4.7-1.3-7.1-1.9c-1.4,8-3.9,16.8-9.5,22.9c2.6,1.1,5.2,2.2,7.8,3.2c0.3-3.9,1.2-7.8,2.5-11.5c1.2-3.2,2.7-6,2.8-9.5
				c0.1-1.3-1.4-2.5-2.7-2c-8.7,2.9-11.5,14.9-11.8,23c-0.2,4.3,6.6,6.5,8.5,2.3c3.9-8.7,7.8-16.9,9.4-26.5c0.7-4.7-5.3-6.3-7.1-1.9
				c-1.7,4.3-3.7,8.3-5.9,12.3c2.1,0.6,4.2,1.1,6.3,1.7c0.3-2.4,0.9-4.1,1.9-6.3C481.3,437.4,477.9,435.5,476.2,437.8L476.2,437.8z"
				/>
		</g>
	</g>
	<g>
		<g>
			<path class="st3" d="M476.8,459.2c-1.5,2.7-3.3,5.2-5.4,7.5c-0.2,0.3,0.1,0.7,0.4,0.4c2.2-2.3,4.1-4.7,5.8-7.4
				C477.9,459.2,477.1,458.7,476.8,459.2L476.8,459.2z"/>
		</g>
	</g>
	<g>
		<g>
			<path class="st3" d="M438.4,508.1c-2.3,1.6-4.6,3.4-6.8,5.2c-2,1.7-4.9,3.6-6.1,6c1.4,0.6,2.8,1.2,4.2,1.8
				c0.5-1.5,1.3-2.8,1.4-4.3c0-0.9-0.9-1.3-1.6-0.9c-1.4,0.7-2.4,2-3.6,3.1c-2,1.8,0.5,4.8,2.8,3.6c2.3-1.3,3.9-3.9,5.8-5.7
				c2-2,4.1-3.8,6.3-5.6C442.5,509.8,440.2,506.8,438.4,508.1L438.4,508.1z"/>
		</g>
	</g>
	<g>
		<path class="st4" d="M212,282.3"/>
	</g>
	<defs>
		<filter id="Adobe_OpacityMaskFilter" filterUnits="userSpaceOnUse" x="86.8" y="284.7" width="410.7" height="237.1">
			<feFlood  style="flood-color:white;flood-opacity:1" result="back"/>
			<feBlend  in="SourceGraphic" in2="back" mode="normal"/>
		</filter>
	</defs>
	<mask maskUnits="userSpaceOnUse" x="86.8" y="284.7" width="410.7" height="237.1" id="SVGID_1_">
		<g class="st5">
			<g>
				<defs>
					
						<filter id="Adobe_OpacityMaskFilter_00000005268493813829813100000006967758143126127004_" filterUnits="userSpaceOnUse" x="-32.3" y="-116.2" width="784.7" height="610.1">
						<feFlood  style="flood-color:white;flood-opacity:1" result="back"/>
						<feBlend  in="SourceGraphic" in2="back" mode="normal"/>
					</filter>
				</defs>
				<mask maskUnits="userSpaceOnUse" x="-32.3" y="-116.2" width="784.7" height="610.1" id="SVGID_1_">
					<g style="filter:url(#Adobe_OpacityMaskFilter_00000005268493813829813100000006967758143126127004_);">
						
							<image style="overflow:visible;" width="3287" height="2560" xlink:href="6D9EEC17.jpg"  transform="matrix(0.24 0 0 0.24 -34.32 -118.32)">
						</image>
					</g>
				</mask>
				<g class="st7">
					<path d="M746.3-79.1C629.1-95.9,511.2-107.2,393-112.5c-59.2-2.7-118.6-4.7-177.8-3.3c-28.7,0.7-57.3,2.8-85.6,8
						c-26.3,4.8-53.8,11.2-78.3,22.6C39.5-79.7,30-71,25.3-58c-4.7,12.8-4.1,26.9-5.2,40.3c-1.9,23-11.4,44.1-25.8,61
						c-0.2-1.5-0.4-3.1-0.6-4.6c-0.5-3.6-2.4-5.6-4.9-6.4c0.5-1.7,1.1-3.4,1.8-5.1c4.3-10.9-12.5-15.6-16.8-4.9
						c-9.1,22.9-5.9,48.3-4.1,72.3c1.9,26,3.9,51.9,7,77.7c5.8,48.8,15.1,97.1,33.4,142.6c17,42.4,41.5,80.3,74.2,110.8
						c32.8,30.7,71.9,60,116.3,66.4c23.6,3.4,47.4,1,70.9-1c25.9-2.2,51.7-5,77.4-8.2c46.1-5.8,93.2-11.5,136.3-30.8
						c80.1-35.8,137.3-110.8,174.7-191.6c23.2-50.1,40.4-103.2,55.3-156.6c15.7-56.4,28.1-113.8,37.2-171.9
						C753-72.2,751.3-78.4,746.3-79.1z"/>
				</g>
			</g>
		</g>
	</mask>
	<path class="st3" d="M497.3,353c-0.4-11.1-1.4-22.2-2.2-33.2c-0.4-4.8-0.7-9.6-1.1-14.5c-0.3-4.6,0-10.2-1.4-14.6
		c-2.6-8-12.4-7.4-17.3-2.1c-3.1,3.3-4.2,6.9-9,8.1c-5,1.2-10.3,1.7-15.4,2.4c-21.1,2.9-42.4,4.9-63.6,6.2
		c-85.3,5.3-171.1-0.1-256.1-7.5c-8.2-0.7-17.3-1.7-24-7c-2.9-2.3-6.4-0.9-8,1.4c-2.4-0.6-5.1,0.3-5.9,3.4
		c-4.7,19.9-7,40.4-6.6,60.8c0.4,20.7,4.7,40.5,8,60.9c1.6,9.9,1.3,19.7,2,29.7c0.6,9.1,4,16.6,10.2,23.3
		c12.1,13.1,28.2,23.5,44.2,31c7.9,3.8,16.7,8,25.5,9c9.2,1,14.8-3.9,19.9-10.9c2.3-3.1,4.7-5.9,8.5-7.1c4.6-1.4,6.7,0.6,9.5,4
		c5.8,7,14.4,6.7,22.8,6.6c21.2-0.3,42.5-0.6,63.7-0.9c9.7-0.1,20.4,0.8,29.6-2.7c7.5-2.8,13.5-9.6,21.3-11.5
		c4.2-1,7.3,0.9,10.4,3.6c4,3.7,7.7,7.8,11.6,11.7c5.8,5.8,12,14.5,19.8,17.6c8.4,3.2,17.6-1.1,25.2-4.7c8.5-4.1,16.3-9.4,23.7-15
		c13.7-10.4,27.5-22.4,34.6-38.5c3.2-7.3,4.9-15.3,4-23.3c-0.6-5.2-1.3-9.2,0.8-14.1c1.9-4.4,4.1-8.7,5.9-13.2
		C495.4,393,498,373,497.3,353z"/>
</g>
<g id="Outline">
	<g>
		<g>
			<path d="M90.8,442c12.2,5.5,10.1-16.7,9.6-22.3c-1.2-14.1-4.4-27.8-7-41.6c-5.7-30.8-1.2-61.2,3.4-91.8
				c8.5-56.4,18.1-115,45.9-165.7c6.9-12.6,14.9-24.6,24.1-35.5c2.4-2.8,26.4-30,29.5-23.7c2.5,5,9.9,0.6,7.5-4.4
				c-5.4-11.1-19-2.2-25,3.1c-9.8,8.5-18.6,17.9-26.5,28.2c-16.3,21.3-28.3,45.4-37.3,70.6c-10.2,28.6-16.5,58.4-21.7,88.3
				c-5.3,30.4-11.3,61.5-12.6,92.3c-0.7,17.1,2.1,33.6,5.8,50.3c1.9,8.5,3.9,17,5.3,25.5c0.7,4.5,1.3,9.1,1.5,13.7
				c0.1,1.9,0.7,8.4-1.9,9.3C89.9,438.8,89.1,441.2,90.8,442L90.8,442z"/>
		</g>
	</g>
	<g>
		<g>
			<path d="M194.5,64.6c5.9,4.7,11.9,8.8,16.2,15.2c4.4,6.6,6.9,14.5,6.4,22.4c-0.5,7.9-4.8,14.8-7.7,22c-3.1,7.6-5.8,15.6-7.3,23.7
				c-1.1,6,7.6,8.6,9.2,2.5c2.5-9.7,5.1-19.1,9.3-28.3c3.7-8.1,6.7-15.8,5.9-24.9c-1.4-16.3-13-32.8-28.4-38.9
				C194.7,57,191.7,62.3,194.5,64.6L194.5,64.6z"/>
		</g>
	</g>
	<g>
		<g>
			<path d="M169.1,164.8c5.8,5.4,13.9,1.3,19.8-2.1c7.3-4.2,13.8-9.2,21.5-12.7c15.3-6.9,32.3-9.4,48.9-10.3
				c17.3-0.9,34.8-0.3,52.2,0.1c19.3,0.5,38.5,1.5,57.2,6.2c9.3,2.3,18.4,5.4,27,9.7c4.2,2.1,8.4,4.4,12.3,7.1
				c4.2,2.8,7.9,6.2,12.2,8.6c4,2.2,9.6-2.5,6.6-6.6c-4.9-7-12.9-11.9-20.3-16c-7.5-4.2-15.5-7.6-23.6-10.3
				c-18.1-6-37.3-8.4-56.2-9.8c-18.8-1.4-37.8-1.8-56.6-1.4c-17.3,0.4-34.9,1.9-51.6,7c-9.3,2.9-18.4,6.9-26.6,12.1
				c-3.8,2.4-7.3,5.1-11.2,7.4c-4,2.3-8.6,2.8-11.8,6.2C167.8,161.3,167.7,163.5,169.1,164.8L169.1,164.8z"/>
		</g>
	</g>
	<g>
		<g>
			<path d="M410.4,146.9c0.5-7.7-0.7-15.7-1.1-23.4c-0.4-7.8-0.6-15.6-0.4-23.4c0.2-6.5,0.5-13.1,2.3-19.4c0.7-2.4,1.6-4.8,2.9-6.9
				c0.7-1.1,1.4-2.2,2.4-3.1c0.4-0.5,0.9-0.9,1.4-1.3c1.8-0.7,1.5-1.2-0.9-1.4c-0.8-1.3-1.5-2.7-2.3-4c0,0.1,0,0.2,0,0.3
				c1-1.3,2-2.7,3.1-4c-0.1,0-0.2,0-0.2,0.1c-1.7,0.4-2.7,2.1-2.8,3.7c0,0.1,0,0.2,0,0.3c-0.1,2,1.4,3.4,3.1,4
				c1.5,0.6,2.9,0.2,4.2-0.5c3.8-1.8,2.9-6.8,0-8.9c-6.1-4.4-13.9,4-17,8.7c-4,6.1-5.5,13.5-6.3,20.6c-1.1,9.7-1.1,19.6-0.6,29.4
				c0.5,9.9,0.9,20.8,3.4,30.4C402.9,153.2,410,151.8,410.4,146.9L410.4,146.9z"/>
		</g>
	</g>
	<g>
		<g>
			<path d="M423.8,71.3c4,3.1,9.4,4.6,13.7,7.4c4.8,3.1,9.3,6.6,13.5,10.5c7.9,7.1,14.6,15.3,20,24.5c12.5,21.5,14.7,45.9,15.1,70.3
				c0.9,53.4,2.2,107,0.8,160.4c-0.4,15-1.2,30-2.6,45c-0.8,7.9-1.7,15.8-2.8,23.6c-0.9,6-1.6,12.9-5.6,17.8
				c-5.2,6.4,3.9,15.5,9.1,9.1c8.3-10.3,9-24.2,10.6-36.8c1.8-14.3,2.9-28.6,3.6-43c1.4-28.8,1.1-57.6,0.7-86.4
				c-0.4-29-0.7-57.9-1.2-86.9c-0.5-26.1-2.7-52.4-15.5-75.7c-6.2-11.2-14.4-21.5-24-30c-4.6-4.1-9.6-7.7-14.9-10.9
				c-5.2-3.1-12.3-7.9-18.6-6.2C422.9,64.8,421.2,69.2,423.8,71.3L423.8,71.3z"/>
		</g>
	</g>
	<g>
		<g>
			<path d="M480.9,435.7c1.5,1.5,2.3,3.2,3.5,4.8c1.2,1.5,3.1,2.7,4.5,3.9c2.8,2.3,5.3,4.7,7.7,7.4c5.3,5.8,9.5,12.2,13,19.2
				c8.2,16.7,11.3,35.4,14,53.6c2.6,17.4,3.9,33.9-2.2,50.7c-5.3,14.5-15.2,27.3-27.9,36.1c-6.9,4.7-0.3,16.1,6.6,11.2
				c22.8-16.1,37.4-42.3,38.1-70.4c0.4-16.3-3.1-33.2-6.3-49.1c-3.1-15.3-7.6-30.6-15.9-44c-4-6.5-8.8-12.7-14.6-17.6
				c-2.8-2.4-5.8-4.9-9-6.6c-3.4-1.8-6.7-1.5-10.4-1.9C480.6,432.9,480,434.8,480.9,435.7L480.9,435.7z"/>
		</g>
	</g>
	<g>
		<g>
			<path d="M494.1,617.2c0.2,5.2,3,9.7,5.3,14.3c2.5,5.1,4.4,10.4,5.9,15.9c3,11.1,3.8,22.9,2.1,34.4c-1.5,10.3-4.9,20.2-10,29.2
				c-2.5,4.5-5.4,8.7-8.7,12.7c-3.4,4-7.9,7.2-9.8,12c-1.6,3.8,2.9,7.5,6.4,6.4c5.4-1.5,9.4-7.1,12.8-11.3c3.5-4.3,6.8-8.9,9.5-13.8
				c5.7-10.2,9.6-21.4,11.2-32.9c1.7-12,1-24.4-1.9-36.2c-1.5-6.1-3.8-12.1-6.5-17.7c-2.6-5.3-5.3-11.3-9.1-15.8
				C498.9,611.5,493.9,613.7,494.1,617.2L494.1,617.2z"/>
		</g>
	</g>
	<g>
		<g>
			<path d="M490.3,729.2c-2.3-3-4.5-3.5-7.9-4.9c-3-1.3-5.9-2.9-8.6-4.7c-5.9-3.9-10.8-9.1-14.7-15c-8-11.9-14.4-25.2-20.8-38
				c-6.7-13.2-12.8-26.8-17.3-40.9c-2.2-6.9-4.6-14.4-4.9-21.6c-0.2-3.4,0.2-6.7,2.1-9.6c1.8-2.7,4.5-3.9,6.6-6.2
				c1.5-1.6,1.5-4.8-0.8-5.9c-6.5-3.1-13.3,1.9-16.5,7.5c-4.3,7.7-3.2,16.7-1.4,25c3.8,17.2,10.6,33.7,18.2,49.5
				c7.5,15.5,15.2,31.8,24.9,46.1c4.6,6.9,10.1,12.8,16.9,17.6c5.2,3.7,15.1,10.3,21.6,7.8C490,734.9,492.2,731.8,490.3,729.2
				L490.3,729.2z"/>
		</g>
	</g>
	<g>
		<g>
			<path d="M95.9,447.5c-3.3-7-11.8-9.2-18.9-7.3c-7.9,2.1-13.1,9-16.4,16.1c-8.9,18.9-16.6,39.5-21.2,59.8
				c-2.4,10.5-4.1,21.6-3.7,32.4c0.4,9.7,3.3,18.5,8.2,26.9c8.9,15.4,19.2,30.6,31,43.9c12.9,14.6,29,26.7,48.4,30.8
				c7,1.5,10-9.2,3-10.7c-29.4-6.2-48.5-31.7-64.1-55.3c-4.3-6.4-8.9-12.9-12.1-19.9c-3.7-8.1-4.1-16.6-3.5-25.4
				c1.3-18.5,7-36.4,13.5-53.7c3.3-8.7,6.3-18,10.8-26.2c2.8-5.1,11.8-14.3,17.5-6.8C91.7,456.4,98.4,452.7,95.9,447.5L95.9,447.5z"
				/>
		</g>
	</g>
	<g>
		<g>
			<path d="M121.9,649.1c0.1-0.1,0.1-0.2,0.2-0.3c-0.7,0.4-1.5,0.8-2.2,1.3c-0.7-1.1-1.4-2.2-2.1-3.3c-0.4,0.3-0.9,0.5-1.3,0.8
				c-0.6,0.3-1.5,1.1-2.1,1.6c-1.6,1.3-3.1,2.6-4.5,4.1c-3.1,3.3-5.7,7-7.8,11c-4.4,8.1-6.7,17-8,26.1c-1.3,9.2-2.5,18.8-2.2,28.1
				c0.2,7.7,2.2,16,8.2,21.3c13.3,11.8,32.1,4.4,43.2-6.4c6.8-6.6,12.6-14.3,18.6-21.7c6.4-7.8,12.7-15.7,18.5-23.9
				c6.5-9.1,12.7-18.9,17.1-29.2c3.5-8.4,6.4-19.4,2-27.9c-1.3-2.4-5.3-1.3-5.2,1.4c0.2,4.2,0.9,8.2,0.3,12.3
				c-0.6,4.2-2.1,8.3-3.8,12.2c-3.5,7.6-8.4,14.3-13.3,21.1c-10.1,13.9-21.3,26.9-32.6,39.8c-8.1,9.2-22.7,24.8-36.3,15.8
				c-6.1-4-6.6-12-6.5-18.6c0.1-8.1,0.7-16.4,1.9-24.4c1.3-8.9,3.6-17.7,8.3-25.5c2.1-3.4,4.6-6.5,7.7-9.1c2.9-2.5,5.5-4,5.9-8.1
				c0.1-1.6-1.3-3.4-2.9-3.8c-0.2,0-0.4-0.1-0.6-0.1c-1.2-0.3-2.6,0-3.5,0.9c-0.6,0.7-1.1,1.3-1.3,2.3c-0.2,1.1,0.1,2.3,1.2,2.9
				c0.1,0.1,0.3,0.1,0.4,0.2C119.9,650.4,121.4,650.2,121.9,649.1L121.9,649.1z"/>
		</g>
	</g>
	<g>
		<g>
			<path d="M196.8,632.5c3.7-4.8,0.6-11.2-2.5-15.5c-4-5.5-8.6-10.1-11.6-16.3c-6.1-12.5-6.5-27.3-4.1-40.8
				c2.7-14.8,8.2-29.5,14.7-43c2.8-5.8,6.5-13.8,12.2-17.3c5.6-3.5,6.6,6.2,10,8.8c2,1.6,4.6,1,5.6-1.5c2.1-5.6-2.8-13.5-7.6-16.4
				c-6.4-3.8-12.6,0-17.4,4.4c-6.4,5.8-10.6,13.2-14.2,20.9c-3.9,8.2-7.4,16.7-10.3,25.3c-5.6,16.6-8.1,34.2-3.9,51.4
				c1.9,7.7,5.2,15.3,10.1,21.6c2.5,3.2,5.5,6.1,8.3,9.1c2.7,2.9,4.2,6,6.4,9.2C193.7,634.1,195.6,634,196.8,632.5L196.8,632.5z"/>
		</g>
	</g>
	<g>
		<g>
			<path d="M218,505.3c25.7,1.2,51.3,1.6,77,2.3c11.5,0.3,23.8,1.7,35.2-1.1c8.8-2.2,19.3-8.3,22.8-17c1.3-3.2-3.1-6.2-5.8-4.4
				c-3.8,2.4-6.8,5.8-10.8,7.9c-4.3,2.2-9,3.5-13.9,3.9c-11.3,1.1-23,0-34.4-0.3c-23.4-0.5-46.7-1.2-70.1-1.3
				C211.6,495.4,211.7,505,218,505.3L218,505.3z"/>
		</g>
	</g>
	<g>
		<g>
			<path d="M358.4,490.1c-1.1-2-2.3-3-4-4.4c-1.4,2.4-2.8,4.9-4.3,7.3c4.5,1.3,8.5,6.1,11.9,9.3c4,3.7,7.7,7.7,11.4,11.7
				c6.6,7.3,13.1,14.7,18.9,22.7c5.5,7.5,10.5,15.5,14.3,23.9c2,4.5,3.6,9.2,4.9,13.9c1.2,4.3,0.9,9.7,3.3,13.5
				c1.4,2.3,5.4,2.8,6.7,0c2.1-4.6,0.7-9.7-0.1-14.5c-0.9-5.3-2.4-10.4-4.4-15.5c-4.2-10.4-9.8-20-16.6-29c-6.7-9-14.1-17.3-22-25.3
				c-7-7.1-16.5-18.6-27.2-19.3c-5.6-0.4-5.6,8.6,0,8.7c2.3,0.1,4,0.1,6.2-0.7C358.5,492.1,359,491,358.4,490.1L358.4,490.1z"/>
		</g>
	</g>
	<g id="Layer_3">
	</g>
</g>
<g id="Eyes">
	<g>
		<g>
			<path class="st8" d="M237.4,223.4c-0.2-1.2-0.4-1.9-0.9-3.1c-0.1-0.2-0.2-0.4-0.3-0.7c-0.2-0.3-0.5-1.4,0,0
				c-0.9-2.7-3.4-4.5-6.3-4.1c-3,0.4-4.7,2.7-5,5.6c0,0.1,0,0.3,0,0.4c0.1-0.5,0.1-1,0.2-1.5c-0.3,1.7-0.6,3.3-0.5,5
				c0.2,1.8,0.7,3.3,1.9,4.6c1.4,1.5,3.5,2.1,5.5,1.8c1.8-0.2,3.2-1,4.2-2.4C237.6,227.3,237.7,225.5,237.4,223.4L237.4,223.4z"/>
		</g>
	</g>
	<g>
		<g>
			<path class="st8" d="M352.6,228.1c0-1,0-1.9,0.1-2.9c-0.1,0.6,0,0.5,0.1-0.4c0.2-0.8,0.3-1.7,0.2-2.5c0-3.6-2.4-7.1-6.3-7.1
				c-6.7,0-7.8,7.8-7.4,12.9c0.3,3.4,2.8,6.8,6.6,6.6C349.5,234.5,352.6,231.8,352.6,228.1L352.6,228.1z"/>
		</g>
	</g>
	<g>
		<g>
			<path class="st8" d="M237,220.6c0.1,0.5,0.1,0.6,0.1,0.2c0-0.4,0-0.3,0,0.2c0-0.2,0.1-0.3,0.1-0.5c-0.2,0.5-0.2,0.5-0.1,0.2
				c0.1-0.4-0.6,0.2,0.2-0.2c-0.8,0.5,0.2-0.1,0.5-0.2c-2.5-0.6-4.9-1.3-7.4-1.9c0-0.1,0.4,0.9,0.4,1.2c0-0.1,0.4,1.8,0.3,1.1
				c0.2,1.5-0.2,0.2,0.1,0c0.7-0.5,0.7-0.7,1.7-0.6c1.2,0,1.6,0.6,2.4,1.4c0.4,0.4-0.1-0.6-0.2-0.9c-0.1-0.4-0.1-0.3,0,0.2
				c0-0.7-0.1-1.3-0.4-1.9c-0.5-1.1-1.2-1.9-2.2-2.5c0.5,0.5,1.1,1.1,1.6,1.6c-0.2-0.4-0.5-0.8-0.7-1.3c-0.9-1.6-2.9-2-4.5-1.2
				c-0.7,0.4-1.4,0.9-2,1.5c0.7-0.4,1.4-0.8,2-1.2c-4.3,1.4-5.1,6.8-3.2,10.5c1.7,3.3,5.4,5.1,9,4.3c3.4-0.7,6-3.4,7-6.6
				c1.2-3.8-0.3-7.6-1.9-11c-1.3-2.7-5-3.2-7.4-1.9c-4.6,2.4-6.4,7.6-5.5,12.5c0.5,2.8,3.9,4.4,6.5,3.7
				C236.3,226.3,237.4,223.4,237,220.6L237,220.6z"/>
		</g>
	</g>
	<g>
		<g>
			<path class="st8" d="M348.1,225.1c-0.3-1.2-1-2.4-1-3.6c-0.2,0.4-0.2,0.3,0.1-0.2c-0.1,0.2-0.2,0.3-0.3,0.4
				c-0.6,0.2-2.7-0.3-2.4-0.6c-0.1-0.3-0.1-0.2,0.1,0.3c0.1,0.3,0.2,0.6,0.2,1c-0.1-0.9,0,1.5,0,0.5c0,0.7-0.1,0.3,0.5-0.2
				c-0.5,0.3-0.5,0.3,0,0c0.3-0.1,0.6-0.1,0.9,0.1c-2.7-0.4-5.3,0.8-5.7,3.8c-0.4,3,1.8,4.8,4.5,5.2c3.8,0.5,7.5-2.4,8.5-6
				c0.9-3.5,0.1-8.2-2.5-10.8c-3.2-3.1-8.1-2.1-10.7,1.2c-2.7,3.5-2.1,8.7,0.4,12.1c1.2,1.7,3.1,2.6,5.1,1.7
				C347.6,229.1,348.5,227.1,348.1,225.1L348.1,225.1z"/>
		</g>
	</g>
</g>
<g id="Blush">
	<g class="st9">
		<g>
			<path class="st10" d="M184.3,203.9c4.7-3,23.3-12.7,25.8-3.8c2.6,9.2-6.7,16-14.3,18.3c-2,0.6-4.1,1.1-6.2,1.5
				c-0.8,0.1-2.7,0.7-3.5,0.5c-3.7-0.7-0.2,0.6-1.3-0.7c-1.1-1.4-1.3-5.6-1.6-7.4c-0.5-3-0.8-6.2-0.3-9.2c0.6-3.9,2.5-8,6-10
				c4.1-2.3,8.1,0.2,10.9,3.4c2.6,2.9,4.7,6.7,6.3,10.2c1.4,3,1.8,5.5-0.8,7.7c-1.9,1.6-5.2,2.5-7.5,3.3c-3.7,1.2-11.2,4.1-14.7,1.8
				c-3.8-2.5-2.6-10-0.4-13.4c2.2-3.4,6.7-5.7,10.8-4.6c4.5,1.2,7.4,6.6,5,10.7c-1.9,3.3-5.8,4.9-9.2,5.9c-1.2,0.4-3.2,1.2-4.6,1.1
				c-3.5-0.3-3.7-4.3-3.6-7c0.3-9.5,8.8-15.7,17.4-17.3c1.5-0.3,4.9-1.1,6.5-0.5c1.6,0.6,1.5,1.6,1.2,3.4c-0.8,4.3-4.1,8.4-7.3,11.3
				c-3.1,2.7-6.8,4.7-10.8,5.7c-1.2,0.3-4.8,1.4-6,0.7c-0.7-0.4-0.9-3.8-1-4.9c-0.4-3.6-0.6-8.1,2-11.1c2.6-3,9.8-5,13.7-4.6
				c3.5,0.3,4.9,3.8,4.6,7c-0.4,3.9-4,6.4-7.5,7.5c-1.9,0.6-3.8,0.9-5.8,1c-2.8,0.1-2.7,0-2.7-2.6c0.1-5.3,0.5-10.7,4.4-14.8
				c2.2-2.4,7.8-5.9,9-1.2c1.1,4.2,1.6,9.8,0.7,14.1c-1,4.2-3.9,7.5-8.2,8.6c-1.2,0.3-4.8,0.9-5.7-0.1c-0.7-0.8,0.1-4.8,0.3-5.9
				c0.6-3.9,1.9-8.1,4.7-11.1c1.5-1.5,3.6-3,5.8-2.9c4,0.2,3.6,4.1,2.1,6.8c-0.8,1.5-3.6,5.7-5.3,6.2c-3.6,1-2.7-4.2-2.1-5.9
				c1.4-3.7,7.8-9.6,10.2-3.6c1.5,3.8,0.1,10-4.6,10.9c-4.8,0.9-8-4-4.7-7.7c1.6-1.8,4-2.8,6.4-3.1c2.4-0.3,8.3,0.8,5.8,4.7
				c-1.6,2.5-6.8,2.5-8.7,0.5c-0.7-0.7-1.4-2-1.2-3c0.5-3.3,3.8-1.5,5.4-0.3c0.4,0.9,0.7,1.8,1.1,2.7c0-0.3-0.1-0.6-0.1-0.8
				c-0.6-4.8-7.5-5.1-7.7,0c0.1-2.1,4.3,0.2,4.6,0.5c2.1,2.3,5.2-0.6,4.1-3.2c-3.8-8.3-16.7-6.4-15.7,3.4c0.9,9.3,14.6,8.3,14.7-0.8
				c-2.6,0-5.1,0-7.7,0c1.1,8.5,12.4,5.7,12.6-2c0.2-8-8.7-11.9-14.9-7.3c-7,5.3-4,15.8,3.5,18.9c7.1,2.9,18.1-1,18.6-9.6
				c1.2-20.1-37-12.3-29.7,6.9c2.7,7.1,12.3,10.3,18.9,6.6c6.9-3.8,9.4-12.8,6.9-19.9c-6.9-19.5-34.4,0.9-24.5,16.8
				c6,9.6,16,0.7,20.2-5.6c4.4-6.6,4.3-17.5-4.8-20.1c-8.7-2.4-16.5,5-19.6,12.3c-2.4,5.7-5.7,18.1,1,22.1
				c7.1,4.2,17.2,0.6,22.1-5.3c5.8-7,5.4-18.4,3-26.7c-2.6-9.4-12.9-8.9-19.6-4c-8,5.9-10.3,16.5-9.1,26c1.1,9.3,12.2,8.4,19.1,6
				c7.6-2.6,13.6-9,12.9-17.5c-0.7-7.9-6.7-13.8-14.8-12.9c-8.8,0.9-18.6,4.1-21.4,13.5c-1.8,6-2,20,5.1,22.9c7.5,3,18.2-1.8,24-6.3
				c6.3-4.9,13.1-13.7,11.9-22.2c-1.5-9.9-12.8-8.7-20.1-6.7c-8.8,2.5-16.4,8.5-19.5,17.2c-2.4,6.7-2.3,19.1,6,21.9
				c6.9,2.3,18-2.8,22.7-7.8c5.9-6.3,5.1-15.8-1.1-21.6c-6.4-6-16.2-5.2-22.7,0.2c-7.1,5.9-8.6,16.4-5,24.7c4.1,9.5,16.8,6,24.5,3.5
				c9.2-2.9,19.1-7.9,15.7-19.2c-2.3-7.7-7.9-17.1-15.2-21.1c-8.2-4.4-17.5-0.9-22.6,6.4c-6.1,8.7-4.3,20.7-1.4,30.3
				c1.4,4.5,4,7.7,9,7.7c4.9,0,10.4-1.4,15-3.1c8.6-3.1,16.1-8.9,19-17.9c2.6-8.2,0.1-19.8-9.6-21.4c-9.9-1.6-21.4,3.2-29.2,9
				C175.6,199.7,179.5,207,184.3,203.9L184.3,203.9z"/>
		</g>
	</g>
	<g class="st9">
		<g>
			<path class="st10" d="M371.4,201.7c4.7-3,23.3-12.7,25.8-3.8c2.6,9.2-6.7,16-14.3,18.3c-2,0.6-4.1,1.1-6.2,1.5
				c-0.8,0.1-2.7,0.7-3.5,0.5c-3.7-0.7-0.2,0.6-1.3-0.7c-1.1-1.4-1.3-5.6-1.6-7.4c-0.5-3-0.8-6.2-0.3-9.2c0.6-3.9,2.5-8,6-10
				c4.1-2.3,8.1,0.2,10.9,3.4c2.6,2.9,4.7,6.7,6.3,10.2c1.4,3,1.8,5.5-0.8,7.7c-1.9,1.6-5.2,2.5-7.5,3.3c-3.7,1.2-11.2,4.1-14.7,1.8
				c-3.8-2.5-2.6-10-0.4-13.4c2.2-3.4,6.7-5.7,10.8-4.6c4.5,1.2,7.4,6.6,5,10.7c-1.9,3.3-5.8,4.9-9.2,5.9c-1.2,0.4-3.2,1.2-4.6,1.1
				c-3.5-0.3-3.7-4.3-3.6-7c0.3-9.5,8.8-15.7,17.4-17.3c1.5-0.3,4.9-1.1,6.5-0.5c1.6,0.6,1.5,1.6,1.2,3.4c-0.8,4.3-4.1,8.4-7.3,11.3
				c-3.1,2.7-6.8,4.7-10.8,5.7c-1.2,0.3-4.8,1.4-6,0.7c-0.7-0.4-0.9-3.8-1-4.9c-0.4-3.6-0.6-8.1,2-11.1c2.6-3,9.8-5,13.7-4.6
				c3.5,0.3,4.9,3.8,4.6,7c-0.4,3.9-4,6.4-7.5,7.5c-1.9,0.6-3.8,0.9-5.8,1c-2.8,0.1-2.7,0-2.7-2.6c0.1-5.3,0.5-10.7,4.4-14.8
				c2.2-2.4,7.8-5.9,9-1.2c1.1,4.2,1.6,9.8,0.7,14.1c-1,4.2-3.9,7.5-8.2,8.6c-1.2,0.3-4.8,0.9-5.7-0.1c-0.7-0.8,0.1-4.8,0.3-5.9
				c0.6-3.9,1.9-8.1,4.7-11.1c1.5-1.5,3.6-3,5.8-2.9c4,0.2,3.6,4.1,2.1,6.8c-0.8,1.5-3.6,5.7-5.3,6.2c-3.6,1-2.7-4.2-2.1-5.9
				c1.4-3.7,7.8-9.6,10.2-3.6c1.5,3.8,0.1,10-4.6,10.9c-4.8,0.9-8-4-4.7-7.7c1.6-1.8,4-2.8,6.4-3.1c2.4-0.3,8.3,0.8,5.8,4.7
				c-1.6,2.5-6.8,2.5-8.7,0.5c-0.7-0.7-1.4-2-1.2-3c0.5-3.3,3.8-1.5,5.4-0.3c0.4,0.9,0.7,1.8,1.1,2.7c0-0.3-0.1-0.6-0.1-0.8
				c-0.6-4.8-7.5-5.1-7.7,0c0.1-2.1,4.3,0.2,4.6,0.5c2.1,2.3,5.2-0.6,4.1-3.2c-3.8-8.3-16.7-6.4-15.7,3.4c0.9,9.3,14.6,8.3,14.7-0.8
				c-2.6,0-5.1,0-7.7,0c1.1,8.5,12.4,5.7,12.6-2c0.2-8-8.7-11.9-14.9-7.3c-7,5.3-4,15.8,3.5,18.9c7.1,2.9,18.1-1,18.6-9.6
				c1.2-20.1-37-12.3-29.7,6.9c2.7,7.1,12.3,10.3,18.9,6.6c6.9-3.8,9.4-12.8,6.9-19.9c-6.9-19.5-34.4,0.9-24.5,16.8
				c6,9.6,16,0.7,20.2-5.6c4.4-6.6,4.3-17.5-4.8-20.1c-8.7-2.4-16.5,5-19.6,12.3c-2.4,5.7-5.7,18.1,1,22.1
				c7.1,4.2,17.2,0.6,22.1-5.3c5.8-7,5.4-18.4,3-26.7c-2.6-9.4-12.9-8.9-19.6-4c-8,5.9-10.3,16.5-9.1,26c1.1,9.3,12.2,8.4,19.1,6
				c7.6-2.6,13.6-9,12.9-17.5c-0.7-7.9-6.7-13.8-14.8-12.9c-8.8,0.9-18.6,4.1-21.4,13.5c-1.8,6-2,20,5.1,22.9c7.5,3,18.2-1.8,24-6.3
				c6.3-4.9,13.1-13.7,11.9-22.2c-1.5-9.9-12.8-8.7-20.1-6.7c-8.8,2.5-16.4,8.5-19.5,17.2c-2.4,6.7-2.3,19.1,6,21.9
				c6.9,2.3,18-2.8,22.7-7.8c5.9-6.3,5.1-15.8-1.1-21.6c-6.4-6-16.2-5.2-22.7,0.2c-7.1,5.9-8.6,16.4-5,24.7c4.1,9.5,16.8,6,24.5,3.5
				c9.2-2.9,19.1-7.9,15.7-19.2c-2.3-7.7-7.9-17.1-15.2-21.1c-8.2-4.4-17.5-0.9-22.6,6.4c-6.1,8.7-4.3,20.7-1.4,30.3
				c1.4,4.5,4,7.7,9,7.7c4.9,0,10.4-1.4,15-3.1c8.6-3.1,16.1-8.9,19-17.9c2.6-8.2,0.1-19.8-9.6-21.4c-9.9-1.6-21.4,3.2-29.2,9
				C362.6,197.5,366.6,204.8,371.4,201.7L371.4,201.7z"/>
		</g>
	</g>
</g>
</svg>
