<?xml version="1.0" encoding="UTF-8"?>
<svg xmlns="http://www.w3.org/2000/svg" version="1.1" xmlns:xlink="http://www.w3.org/1999/xlink" viewBox="0 0 149.98 117.24">
  <!-- Generator: Adobe Illustrator 29.5.1, SVG Export Plug-In . SVG Version: 2.1.0 Build 141)  -->
  <defs>
    <style>
      .st0 {
        clip-path: url(#clippath-6);
      }

      .st1 {
        clip-path: url(#clippath-4);
      }

      .st2 {
        fill: #231f20;
      }

      .st3 {
        font-family: TeXGyrePagellaX-Regular, 'TeXGyrePagellaX Regular';
        font-size: 10.91px;
      }

      .st4, .st5 {
        fill: none;
      }

      .st6 {
        clip-path: url(#clippath-1);
      }

      .st7 {
        clip-path: url(#clippath-5);
      }

      .st8 {
        clip-path: url(#clippath-3);
      }

      .st9 {
        fill: #f2f6d7;
      }

      .st9, .st10 {
        stroke-width: .5px;
      }

      .st9, .st10, .st5 {
        stroke: #231f20;
        stroke-miterlimit: 10;
      }

      .st10 {
        fill: #f6f086;
      }

      .st11 {
        clip-path: url(#clippath-2);
      }

      .st12 {
        clip-path: url(#clippath);
      }

      .st13 {
        opacity: .7;
      }
    </style>
    <clipPath id="clippath">
      <rect class="st4" x="12.27" y="10.22" width="8.68" height="9.69"/>
    </clipPath>
    <clipPath id="clippath-1">
      <rect class="st4" x="41.08" y="10.22" width="11.07" height="9.69"/>
    </clipPath>
    <clipPath id="clippath-2">
      <rect class="st4" x="72.27" y="10.22" width="8.68" height="9.69"/>
    </clipPath>
    <clipPath id="clippath-3">
      <rect class="st4" x="102.27" y="10.22" width="8.68" height="9.69"/>
    </clipPath>
    <clipPath id="clippath-4">
      <rect class="st4" x="131.08" y="10.22" width="11.07" height="9.69"/>
    </clipPath>
    <clipPath id="clippath-5">
      <rect class="st4" x="55.62" y="105.02" width="40.09" height="9.85"/>
    </clipPath>
    <clipPath id="clippath-6">
      <rect class="st4" x="54.51" y="61.39" width="40.57" height="10.2"/>
    </clipPath>
  </defs>
  <g id="Layer_3">
    <g>
      <g>
        <circle class="st10" cx="15.67" cy="15.89" r="11.13"/>
        <circle class="st10" cx="16.38" cy="15.17" r="10.84"/>
      </g>
      <g id="LaTeX2AI">
        <g class="st12">
          <text class="st3" transform="translate(13.27 18.86)"><tspan x="0" y="0">T</tspan></text>
        </g>
      </g>
    </g>
    <g>
      <g>
        <circle class="st10" cx="45.67" cy="15.89" r="11.13"/>
        <circle class="st10" cx="46.38" cy="15.17" r="10.84"/>
      </g>
      <g id="LaTeX2AI1" data-name="LaTeX2AI">
        <g class="st6">
          <text class="st3" transform="translate(42.07 18.86)"><tspan x="0" y="0">H</tspan></text>
        </g>
      </g>
    </g>
    <g>
      <g>
        <circle class="st10" cx="75.67" cy="15.89" r="11.13"/>
        <circle class="st10" cx="76.38" cy="15.17" r="10.84"/>
      </g>
      <g id="LaTeX2AI2" data-name="LaTeX2AI">
        <g class="st11">
          <text class="st3" transform="translate(73.27 18.86)"><tspan x="0" y="0">T</tspan></text>
        </g>
      </g>
    </g>
    <g>
      <g>
        <circle class="st10" cx="105.67" cy="15.89" r="11.13"/>
        <circle class="st10" cx="106.38" cy="15.17" r="10.84"/>
      </g>
      <g id="LaTeX2AI3" data-name="LaTeX2AI">
        <g class="st8">
          <text class="st3" transform="translate(103.27 18.86)"><tspan x="0" y="0">T</tspan></text>
        </g>
      </g>
    </g>
    <g>
      <g>
        <circle class="st10" cx="135.67" cy="15.89" r="11.13"/>
        <circle class="st10" cx="136.38" cy="15.17" r="10.84"/>
      </g>
      <g id="LaTeX2AI4" data-name="LaTeX2AI">
        <g class="st1">
          <text class="st3" transform="translate(132.07 18.86)"><tspan x="0" y="0">H</tspan></text>
        </g>
      </g>
    </g>
    <g class="st13">
      <g>
        <line class="st5" x1="74.26" y1="83.55" x2="74.26" y2="98.49"/>
        <path class="st2" d="M74.26,103.01c-.79-2.13-2.14-4.77-3.57-6.41l3.57,1.29,3.57-1.29c-1.43,1.64-2.78,4.28-3.57,6.41Z"/>
      </g>
    </g>
    <g class="st13">
      <g>
        <line class="st5" x1="74.26" y1="31.55" x2="74.26" y2="46.49"/>
        <path class="st2" d="M74.26,51.01c-.79-2.13-2.14-4.77-3.57-6.41l3.57,1.29,3.57-1.29c-1.43,1.64-2.78,4.28-3.57,6.41Z"/>
      </g>
    </g>
  </g>
  <g id="Layer_1">
    <rect class="st9" x="43.52" y="53.75" width="61.59" height="26.8" rx="12" ry="12"/>
    <g id="LaTeX2AI5" data-name="LaTeX2AI">
      <g class="st7">
        <text class="st3" transform="translate(56.62 113.66)"><tspan x="0" y="0">&quot;</tspan></text>
        <text class="st3" transform="translate(60.66 113.66)"><tspan x="0" y="0">01001</tspan></text>
        <text class="st3" transform="translate(87.94 113.66)"><tspan x="0" y="0">&quot;</tspan></text>
      </g>
    </g>
    <g id="LaTeX2AI6" data-name="LaTeX2AI">
      <g class="st0">
        <text class="st3" transform="translate(55.5 70.36)"><tspan x="0" y="0">encoder</tspan></text>
      </g>
    </g>
  </g>
</svg>