<?xml version="1.0" encoding="UTF-8"?>
<svg id="Layer_2" xmlns="http://www.w3.org/2000/svg" version="1.1" xmlns:xlink="http://www.w3.org/1999/xlink" viewBox="0 0 209.54 125.89">
  <!-- Generator: Adobe Illustrator 29.5.1, SVG Export Plug-In . SVG Version: 2.1.0 Build 141)  -->
  <defs>
    <style>
      .st0 {
        clip-path: url(#clippath-6);
      }

      .st1 {
        clip-path: url(#clippath-7);
      }

      .st2 {
        clip-path: url(#clippath-4);
      }

      .st3 {
        fill: #ea906a;
      }

      .st4 {
        clip-path: url(#clippath-9);
      }

      .st5 {
        clip-path: url(#clippath-10);
      }

      .st6 {
        fill: #7fc78c;
      }

      .st7 {
        fill: #c75c43;
      }

      .st8 {
        fill: none;
      }

      .st9 {
        fill: #f37052;
      }

      .st10 {
        clip-path: url(#clippath-1);
      }

      .st11 {
        fill: #231f20;
      }

      .st12 {
        fill: #6d6e71;
      }

      .st13 {
        fill: #645faa;
      }

      .st14 {
        clip-path: url(#clippath-5);
      }

      .st15 {
        clip-path: url(#clippath-8);
      }

      .st16 {
        clip-path: url(#clippath-3);
      }

      .st17 {
        fill: #524e8e;
      }

      .st18 {
        clip-path: url(#clippath-2);
      }

      .st19 {
        fill: #3e3e3f;
      }

      .st20 {
        clip-path: url(#clippath);
      }
    </style>
    <clipPath id="clippath">
      <rect class="st8" x="1" y="43.24" width="10.17" height="35.12"/>
    </clipPath>
    <clipPath id="clippath-1">
      <rect class="st8" x="84.65" y="112.04" width="24.99" height="13.04"/>
    </clipPath>
    <clipPath id="clippath-2">
      <rect class="st8" x="182.69" y="34.53" width="27.85" height="9.75"/>
    </clipPath>
    <clipPath id="clippath-3">
      <rect class="st8" x="182.69" y="76.47" width="27.85" height="9.87"/>
    </clipPath>
    <clipPath id="clippath-4">
      <rect class="st8" x="64.54" y="1" width="70.75" height="12.57"/>
    </clipPath>
    <clipPath id="clippath-5">
      <rect class="st8" x="33.46" y="13.59" width="132.9" height="13.38"/>
    </clipPath>
    <clipPath id="clippath-6">
      <rect class="st8" x="64.62" y="34.35" width="11.07" height="9.69"/>
    </clipPath>
    <clipPath id="clippath-7">
      <rect class="st8" x="154.62" y="34.35" width="11.07" height="9.69"/>
    </clipPath>
    <clipPath id="clippath-8">
      <rect class="st8" x="35.81" y="76.35" width="8.68" height="9.69"/>
    </clipPath>
    <clipPath id="clippath-9">
      <rect class="st8" x="95.81" y="76.35" width="8.68" height="9.69"/>
    </clipPath>
    <clipPath id="clippath-10">
      <rect class="st8" x="125.81" y="76.35" width="8.68" height="9.69"/>
    </clipPath>
  </defs>
  <polyline class="st12" points="17.8 19.57 17.3 19.75 17.3 108.13 17.8 108.13 17.8 107.63 18.3 107.63 18.3 82.63 17.8 82.63 17.8 81.63 18.3 81.63 18.3 40.63 17.8 40.63 17.8 39.63 18.3 39.63 18.3 19.75 17.8 19.57"/>
  <path class="st12" d="M17.8,14.45c-.79,2.13-2.14,4.77-3.57,6.41l3.07-1.11.5-.18.5.18,3.07,1.11c-1.43-1.64-2.78-4.28-3.57-6.41"/>
  <polyline class="st12" points="173.3 107.63 18.3 107.63 18.3 108.13 17.8 108.13 17.8 108.63 173.3 108.63 173.49 108.13 173.3 107.63"/>
  <polyline class="st19" points="18.3 107.63 17.8 107.63 17.8 108.13 18.3 108.13 18.3 107.63"/>
  <path class="st12" d="M172.2,104.57l1.11,3.07.18.5-.18.5-1.11,3.07c1.64-1.43,4.28-2.78,6.41-3.57-2.13-.79-4.77-2.14-6.41-3.57"/>
  <polyline class="st13" points="178.61 81.63 18.3 81.63 18.3 82.63 178.61 82.63 178.61 81.63"/>
  <polyline class="st17" points="18.3 81.63 17.8 81.63 17.8 82.63 18.3 82.63 18.3 81.63"/>
  <polyline class="st9" points="178.61 39.63 18.3 39.63 18.3 40.63 178.61 40.63 178.61 39.63"/>
  <polyline class="st7" points="18.3 39.63 17.8 39.63 17.8 40.63 18.3 40.63 18.3 39.63"/>
  <g class="st20">
    <path d="M2.39,44.37h-.31c.02.35.03.69.03,1.04s-.01.69-.03,1.04h.31l.02-.28c.02-.33.1-.47.27-.47.08,0,.16.03.28.08l3.19,1.3c-.41.24-.67.35-1.2.56l-1.83.7c-.19.07-.33.11-.44.11-.17,0-.26-.11-.27-.37l-.02-.41h-.31c.02.43.03.84.03,1.27s-.01.84-.03,1.27h.31l.02-.2c.03-.27.15-.41.53-.57l4.41-1.8.67.25c.92.35,1.43.77,1.43,1.19,0,.17-.09.37-.25.56v.14l.82.26c.11-.21.16-.38.16-.59,0-.73-.39-1.2-1.34-1.61l-5.11-2.21c-.99-.44-1.3-.64-1.32-.92l-.02-.31v-.03ZM8.21,51.58c.94,0,1.64.86,1.64,2.01,0,.95-.56,1.6-1.36,1.6-.49,0-.93-.28-1.12-.72-.08-.17-.11-.48-.11-1.23,0-1.23.25-1.66.96-1.66h-.01ZM3.89,52.5c.71,0,1.2.46,1.2,1.12,0,.73-.57,1.22-1.41,1.22s-1.33-.4-1.33-1.1c0-.74.61-1.24,1.54-1.24h0ZM2.53,50.43l-.13.04.04,1.55c-.33.4-.46.8-.46,1.33,0,.48.15,1.04.41,1.48.35.61.88.93,1.55.93.81,0,1.36-.5,1.45-1.31l.67.86c.16.11.31.16.47.16.31,0,.48-.2.63-.72l.51.95c.09.15.49.31.83.31.99,0,1.68-.97,1.68-2.36,0-1.65-1.04-2.95-2.37-2.95-.79,0-1.33.52-1.33,1.29v1.75c0,.57-.13.83-.43.83-.14,0-.26-.09-.5-.37l-.12-.13c0-.11.02-.17.02-.26,0-.47-.21-1.05-.52-1.49-.36-.49-.8-.73-1.37-.73-.22,0-.36.03-.59.12v-1l-.45-.27h0ZM2.1,56.49c-.08.12-.12.32-.12.51,0,.33.17.68.45.91l.72.61h-1.12l-.04.1c.23.56.38,1.12.45,1.7h.31v-.4c0-.44.08-.48.8-.48h2.45c.69,0,.76.03.79.4l.03.5h.33c-.02-.45-.03-.89-.03-1.34,0-.52,0-1.04.03-1.56h-.33l-.03.57c-.03.49-.07.51-.79.51h-1.88c-.65,0-1.2-.44-1.2-.97,0-.33.15-.56.5-.73v-.23l-1.31-.1h0ZM4.18,61.87l.03,1.22c0,.5,0,.79-.07,1.37-.51,0-.75-.04-1.04-.19-.48-.23-.77-.7-.77-1.22,0-.36.14-.64.44-.84.36-.24.68-.35,1.41-.35h0ZM4.05,60.9c-1.25,0-2.07.81-2.07,2.03,0,.4.14.87.4,1.32.51.89,1.19,1.25,2.32,1.25.69,0,1.28-.15,1.69-.46.58-.43.92-1.17.92-1.99,0-.4-.09-.81-.28-1.25-.12-.29-.26-.52-.33-.57l-.37-.22-.11.14c.41.7.51.95.51,1.42,0,.71-.32,1.3-.85,1.6-.36.21-.67.28-1.3.31v-1.59c0-.75-.03-1.22-.15-1.97-.15,0-.25-.02-.38-.02ZM7.13,65.9h-.33l-.03.45c-.02.37-.09.4-.79.4h-2.11c-1.28,0-1.9.6-1.9,1.82,0,.4.08.63.27.86l.72.83h-.95l-.04.1c.23.56.38,1.12.45,1.7h.31v-.4c0-.44.08-.48.8-.48h2.45c.69,0,.76.03.79.4l.03.49h.33c-.02-.45-.03-.91-.03-1.35s0-.91.03-1.35h-.33l-.03.49c-.02.37-.1.4-.79.4h-2.31c-.49,0-1.03-.72-1.03-1.39,0-.73.55-1.21,1.39-1.21h3.1c-.02-.28-.03-.58-.03-.86,0-.31,0-.6.03-.91h0ZM4.18,73.45l.03,1.22c0,.5,0,.79-.07,1.37-.51,0-.75-.04-1.04-.19-.48-.23-.77-.7-.77-1.22,0-.36.14-.64.44-.84.36-.24.68-.35,1.41-.35h0ZM4.05,72.48c-1.25,0-2.07.81-2.07,2.03,0,.4.14.87.4,1.32.51.89,1.19,1.25,2.32,1.25.69,0,1.28-.15,1.69-.46.58-.43.92-1.17.92-1.99,0-.4-.09-.81-.28-1.25-.12-.29-.26-.52-.33-.57l-.37-.22-.11.14c.41.7.51.95.51,1.42,0,.71-.32,1.3-.85,1.6-.36.21-.67.28-1.3.31v-1.59c0-.75-.03-1.22-.15-1.97-.15-.01-.25-.02-.38-.02Z"/>
  </g>
  <g class="st10">
    <g>
      <path d="M100.55,118.45c0,1.22-.73,2.13-1.71,2.13-.6,0-1.05-.2-1.47-.64v-2.27c0-.15.05-.27.2-.46.32-.4.76-.61,1.31-.61,1.03,0,1.68.72,1.68,1.85h0ZM101.49,118.05c0-1.21-1-2.16-2.27-2.16-.4,0-.8.11-.97.27l-.89.82v-1.05l-.1-.04c-.56.23-1.12.38-1.7.45v.31h.4c.44,0,.48.08.48.8v5.49c0,.69-.03.76-.4.79l-.5.03v.33c.46-.02.91-.03,1.36-.03s.91.01,1.36.03v-.33l-.5-.03c-.37-.02-.4-.1-.4-.79v-2.06c.33.2.68.27,1.17.27.32,0,.6-.07.77-.17l1.24-.81c.44-.28.95-1.41.95-2.11h0ZM94.41,114.06c0-.32-.22-.55-.53-.55-.34,0-.56.22-.56.55s.22.55.55.55.55-.22.55-.55h-.01ZM95.23,121.04v-.33l-.5-.03c-.37-.02-.4-.1-.4-.79v-3.96l-.1-.04c-.56.23-1.12.38-1.7.45v.31h.4c.44,0,.48.08.48.8v2.45c0,.69-.03.76-.4.79l-.5.03v.33c.46-.02.91-.03,1.36-.03s.91.01,1.36.03h0ZM88.85,113.06c-.34,0-.71.17-.96.46l-.63.72c-.32.36-.46.85-.46,1.57v.46l-.75.34v.24l.75-.04v3.09c0,.69-.03.76-.4.79l-.5.03v.33c.46-.02.92-.03,1.37-.03s.95.01,1.42.03v-.33l-.57-.03c-.37-.02-.4-.1-.4-.79v-3.09h1.35l.08-.58c-.48.03-.95.04-1.43.04v-.93c0-1.25.14-1.56.75-1.56.29,0,.49.08.82.31l.24-.07v-.23h.46c.17,0,.27.21.27.6v5.5c0,.69-.03.76-.4.79l-.5.03v.33c.46-.02.91-.03,1.36-.03s.91.01,1.36.03v-.33l-.5-.03c-.37-.02-.4-.1-.4-.79v-6.7l-.1-.11c-.46.16-.82.25-1.55.4v-.31c-.2-.03-.55-.12-.68-.12h0Z"/>
      <path d="M107.94,113.71c0-.26-.16-.45-.39-.45-.33,0-.63.36-.63.73,0,.27.16.45.44.45.34,0,.59-.32.59-.73h0ZM107.69,120.08l-.11-.2-.28.19c-.33.22-.56.33-.67.33-.08,0-.14-.1-.14-.22,0-.11,0-.2.08-.44l.84-3.32c.04-.19.07-.29.07-.39,0-.19-.09-.28-.27-.28-.24,0-.63.22-1.46.81l-.31.22.08.22.35-.23c.32-.21.43-.25.52-.25.11,0,.19.1.19.23,0,.09-.04.32-.09.48l-.72,2.62c-.1.35-.14.62-.14.84,0,.26.12.43.33.43.28,0,.69-.24,1.75-1.03h-.02Z"/>
    </g>
  </g>
  <g class="st18">
    <g>
      <path d="M189.35,43.18l.04-.39c.05-.46.14-.92.23-1.36h-.29l-.17.65c-.1.38-.2.51-.43.57-.21.05-.98.11-1.64.11-.45,0-.74,0-1.43-.08,0-.13,0-.25.02-.38l.47-2.76h1.28c1.37,0,1.1.03,1.44.04l.21-.49-.04-.08-2.39.07h-.4l.46-2.6c.03-.17.05-.26.1-.35.61-.02.34-.02,1.42-.04.71,0,1.16.1,1.17.26l.09.97h.26c.03-.7.11-1.24.23-1.66-.24-.02-.5-.03-.75-.03-.85,0-1.71.03-2.57.03-.59,0-1.17,0-1.75-.03l-.03.31.59.02c.26,0,.38.1.38.28,0,.16-.03.49-.1.84l-.95,5.5c-.03.2-.17.27-.65.35l-.05.28c.56-.02,1.12-.03,1.68-.03.82,0,1.64.03,2.45.03.94,0,.72-.02,1.15-.03h-.03Z"/>
      <path d="M194.48,41.71h5.88v-.64h-5.88v.64ZM194.48,39.4h5.88v-.65h-5.88v.65Z"/>
      <path d="M208.66,43.21v-.33l-.57-.03c-.6-.03-.71-.15-.71-.72v-6.47l-.15-.05c-.71.37-1.48.7-2.48,1.05l.08.47h.11c.48-.22.96-.44,1.44-.64.07,0,.09.1.09.36v5.29c0,.57-.12.69-.71.72l-.61.03v.33c.6-.02,1.2-.03,1.8-.03s1.15,0,1.71.03h0Z"/>
    </g>
  </g>
  <g class="st16">
    <g>
      <path d="M189.35,85.12l.04-.39c.05-.46.14-.92.23-1.36h-.29l-.17.65c-.1.38-.2.51-.43.57-.21.05-.98.11-1.64.11-.45,0-.74-.01-1.43-.08,0-.13,0-.25.02-.38l.47-2.76h1.28c1.37,0,1.1.03,1.44.04l.21-.49-.04-.08-2.39.07h-.4l.46-2.6c.03-.17.05-.26.1-.35.61-.02.34-.02,1.42-.04.71,0,1.16.1,1.17.26l.09.97h.26c.03-.7.11-1.24.23-1.66-.24-.02-.5-.03-.75-.03-.85,0-1.71.03-2.57.03-.59,0-1.17-.01-1.75-.03l-.03.31.59.02c.26.01.38.1.38.28,0,.16-.03.49-.1.84l-.95,5.5c-.03.2-.17.27-.65.35l-.05.28c.56-.02,1.12-.03,1.68-.03.82,0,1.64.03,2.45.03.94,0,.72-.02,1.15-.03h-.03Z"/>
      <path d="M194.48,83.66h5.88v-.64h-5.88v.64ZM194.48,81.35h5.88v-.65h-5.88v.65Z"/>
      <path d="M208.25,81.67c0,2.32-.41,3.28-1.42,3.28-1.06,0-1.51-1.1-1.51-3.76,0-2.3.4-3.21,1.44-3.21s1.48,1.07,1.48,3.69h.01ZM209.17,81.13c0-2.39-.71-3.52-2.2-3.52-1.69,0-2.55,1.34-2.55,3.98,0,1.28.23,2.38.61,2.91.38.53.99.84,1.67.84,1.65,0,2.48-1.42,2.48-4.21h-.01Z"/>
    </g>
  </g>
  <g class="st2">
    <g>
      <path d="M73.45,10.31l.03-.31-.63-.03c-.28-.01-.39-.1-.39-.33,0-.1,0-.2.04-.38l1-5.67c.08-.43.14-.49.56-.52l.39-.03.03-.31c-.39.02-.77.03-1.17.03-.52,0-1.05,0-1.56-.03l-.03.31.52.02c.26,0,.38.1.38.29,0,.15-.04.5-.1.83l-.33,1.9h-4.04l.46-2.49c.08-.43.15-.49.56-.52l.46-.03.03-.31c-.41.02-.83.03-1.24.03-.51,0-1.03,0-1.54-.03l-.03.31.51.02c.26,0,.38.1.38.29,0,.15-.04.49-.1.83l-.81,4.73c-.17,1-.2,1.03-.63,1.06l-.45.03-.04.31c.48-.02.96-.03,1.44-.03.45,0,.89.01,1.34.03l.03-.31-.53-.03c-.29-.02-.39-.1-.39-.33,0-.1,0-.17.04-.38l.46-2.69s1.22-.03,2.01-.03,2.01.03,2.01.03l-.44,2.35c-.1.53-.17.84-.23.91-.04.09-.16.14-.4.15l-.55.03-.04.31c.51-.02,1.03-.03,1.54-.03.48,0,.96.01,1.44.03h0Z"/>
      <path d="M78.23,2.04c-1.66,1.08-2.66,2.95-2.66,5.29,0,2.14,1.04,4.18,2.63,5.27l.14-.19c-1.52-1.31-1.78-2.59-1.78-5.13s.29-3.86,1.78-5.06l-.11-.19h0Z"/>
      <path d="M83.21,5.98c-.36.14-.46.47-.46.62,0,.28.23.45.47.45.26,0,.67-.22.67-.74,0-.58-.58-.96-1.56-.96-.32,0-.93.02-1.43.4-.49.37-.67,1-.67,1.28,0,.33.15.63.39.83.31.24.49.27,1.23.41.33.05.98.17.98.67,0,.04,0,1.04-1.63,1.04-.53,0-.94-.11-1.18-.28.37-.11.6-.43.6-.75,0-.39-.32-.5-.53-.5-.37,0-.79.31-.79.85,0,.71.76,1.08,1.88,1.08,2.49,0,2.49-1.87,2.49-1.88,0-.37-.19-.67-.44-.88-.34-.29-.75-.37-1.13-.44-.6-.11-1.03-.19-1.03-.59,0-.02,0-.84,1.22-.84.22,0,.61.02.91.24h0Z"/>
      <path d="M84.95,2.04l-.11.19c1.48,1.2,1.78,2.52,1.78,5.06s-.26,3.82-1.78,5.13l.14.19c1.59-1.09,2.63-3.13,2.63-5.27,0-2.35-1-4.21-2.66-5.29h0Z"/>
      <path d="M92,8.82h5.88v-.64h-5.88v.64ZM92,6.5h5.88v-.65h-5.88v.65Z"/>
      <path d="M107.45,9.35l-.11-.2-.28.19c-.32.21-.56.33-.67.33-.08,0-.14-.1-.14-.22l.02-.22.72-3.01c.08-.32.12-.62.12-.81,0-.25-.12-.39-.34-.39-.46,0-1.21.41-1.85,1.01-.41.38-.72.75-1.29,1.55l.41-1.76c.04-.2.07-.33.07-.45,0-.23-.09-.36-.25-.36-.23,0-.65.24-1.45.81l-.31.22.08.22.35-.23c.39-.26.44-.27.51-.27.12,0,.2.11.2.27,0,.56-.45,2.66-.89,4.22l.08.12c.27-.08.52-.14.76-.19.21-1.37.45-2.08.94-2.84.6-.92,1.41-1.59,1.9-1.59.12,0,.19.1.19.26,0,.2-.03.43-.12.77l-.57,2.31c-.1.4-.14.65-.14.83,0,.27.12.44.33.44.28,0,.68-.23,1.75-1.03l-.02.02Z"/>
      <path d="M113.9,11.94l.02-.22-.46-.02c-.21,0-.29-.07-.29-.24,0-.07,0-.14.03-.28l.73-4.14c.06-.31.1-.36.41-.38l.29-.02.02-.22c-.29.02-.57.02-.85.02-.38,0-.76,0-1.14-.02l-.02.22.38.02c.19,0,.28.07.28.22,0,.11-.03.37-.07.61l-.24,1.39h-2.95l.33-1.82c.06-.31.11-.36.41-.38l.33-.02.02-.22c-.3.02-.61.02-.91.02-.37,0-.75,0-1.12-.02l-.02.22.37.02c.19,0,.28.07.28.22,0,.11-.03.36-.07.61l-.59,3.46c-.13.73-.14.75-.46.77l-.33.02-.03.22c.35-.02.7-.02,1.05-.02.33,0,.65,0,.98.02l.02-.22-.39-.02c-.22-.02-.29-.07-.29-.24,0-.07,0-.13.03-.28l.33-1.97s.89-.02,1.47-.02,1.47.02,1.47.02l-.32,1.71c-.07.39-.13.61-.17.66-.03.06-.12.1-.29.11l-.4.02-.03.22c.37-.02.75-.02,1.12-.02.35,0,.7,0,1.05.02l.02-.03Z"/>
      <path d="M119.21,8.82h5.88v-.64h-5.88v.64ZM119.21,6.5h5.88v-.65h-5.88v.65Z"/>
      <path d="M133.94,10.31c-.02-.23-.02-.34-.02-.49,0-.14,0-.25.02-.49l-3.77.11,1.99-2.11c1.06-1.12,1.39-1.72,1.39-2.54,0-1.25-.85-2.03-2.24-2.03-.79,0-1.32.22-1.85.76l-.19,1.48h.32l.14-.5c.17-.63.57-.91,1.3-.91.94,0,1.54.59,1.54,1.52,0,.82-.46,1.63-1.69,2.93l-1.85,1.97v.28c.81-.02,1.63-.03,2.43-.03s1.67.01,2.5.03l-.02.02Z"/>
    </g>
  </g>
  <g class="st14">
    <g>
      <path d="M41.66,20.71v-1.03h0c-3.93,0-6.1.79-7.14,2.73-.02.05-.11.23-.11.33l.06.07c.09,0,.22-.2.3-.3,1.28-1.72,4.12-1.8,6.24-1.8h.67-.01Z"/>
      <path d="M92.98,20.71v-1.03h-2.41v1.03h2.41ZM91.28,20.71v-1.03h-2.41v1.03h2.41ZM89.59,20.71v-1.03h-2.41v1.03h2.41ZM87.89,20.71v-1.03h-2.41v1.03h2.41ZM86.2,20.71v-1.03h-2.41v1.03h2.41ZM84.5,20.71v-1.03h-2.41v1.03h2.41ZM82.8,20.71v-1.03h-2.41v1.03h2.41ZM81.11,20.71v-1.03h-2.41v1.03h2.41ZM79.41,20.71v-1.03h-2.41v1.03h2.41ZM77.71,20.71v-1.03h-2.41v1.03h2.41ZM76.02,20.71v-1.03h-2.41v1.03h2.41ZM74.32,20.71v-1.03h-2.41v1.03h2.41ZM72.64,20.71v-1.03h-2.41v1.03h2.41ZM70.94,20.71v-1.03h-2.41v1.03h2.41ZM69.24,20.71v-1.03h-2.41v1.03h2.41ZM67.55,20.71v-1.03h-2.41v1.03h2.41ZM65.85,20.71v-1.03h-2.41v1.03h2.41ZM64.15,20.71v-1.03h-2.41v1.03h2.41ZM62.46,20.71v-1.03h-2.41v1.03h2.41ZM60.76,20.71v-1.03h-2.41v1.03h2.41ZM59.07,20.71v-1.03h-2.41v1.03h2.41ZM57.37,20.71v-1.03h-2.41v1.03h2.41ZM55.67,20.71v-1.03h-2.41v1.03h2.41ZM53.98,20.71v-1.03h-2.41v1.03h2.41ZM52.28,20.71v-1.03h-2.41v1.03h2.41ZM50.58,20.71v-1.03h-2.41v1.03h2.41ZM48.89,20.71v-1.03h-2.41v1.03h2.41ZM47.19,20.71v-1.03h-2.41v1.03h2.41ZM45.5,20.71v-1.03h-2.41v1.03h2.41ZM43.8,20.71v-1.03h-2.41v1.03h2.41Z"/>
      <path d="M107.12,20.71v-1.03h-.67c-2.11,0-4.96-.08-6.24-1.8-.08-.1-.21-.3-.3-.3l-.06.07c0,.1.09.29.11.33,1.03,1.94,3.21,2.73,7.14,2.73h.02ZM99.97,17.64l-.06-.07c-.09,0-.22.2-.3.3-1.28,1.72-4.12,1.8-6.24,1.8h-.67v1.03h0c3.93,0,6.1-.79,7.14-2.73.02-.05.11-.23.11-.33h.01Z"/>
      <path d="M158.43,20.71v-1.03h-2.41v1.03h2.41ZM156.73,20.71v-1.03h-2.41v1.03h2.41ZM155.04,20.71v-1.03h-2.41v1.03h2.41ZM153.34,20.71v-1.03h-2.41v1.03h2.41ZM151.65,20.71v-1.03h-2.41v1.03h2.41ZM149.95,20.71v-1.03h-2.41v1.03h2.41ZM148.25,20.71v-1.03h-2.41v1.03h2.41ZM146.57,20.71v-1.03h-2.41v1.03h2.41ZM144.87,20.71v-1.03h-2.41v1.03h2.41ZM143.18,20.71v-1.03h-2.41v1.03h2.41ZM141.48,20.71v-1.03h-2.41v1.03h2.41ZM139.78,20.71v-1.03h-2.41v1.03h2.41ZM138.09,20.71v-1.03h-2.41v1.03h2.41ZM136.39,20.71v-1.03h-2.41v1.03h2.41ZM134.69,20.71v-1.03h-2.41v1.03h2.41ZM133,20.71v-1.03h-2.41v1.03h2.41ZM131.3,20.71v-1.03h-2.41v1.03h2.41ZM129.61,20.71v-1.03h-2.41v1.03h2.41ZM127.91,20.71v-1.03h-2.41v1.03h2.41ZM126.21,20.71v-1.03h-2.41v1.03h2.41ZM124.52,20.71v-1.03h-2.41v1.03h2.41ZM122.82,20.71v-1.03h-2.41v1.03h2.41ZM121.12,20.71v-1.03h-2.41v1.03h2.41ZM119.43,20.71v-1.03h-2.41v1.03h2.41ZM117.73,20.71v-1.03h-2.41v1.03h2.41ZM116.05,20.71v-1.03h-2.41v1.03h2.41ZM114.35,20.71v-1.03h-2.41v1.03h2.41ZM112.65,20.71v-1.03h-2.41v1.03h2.41ZM110.96,20.71v-1.03h-2.41v1.03h2.41ZM109.26,20.71v-1.03h-2.41v1.03h2.41Z"/>
      <path d="M165.43,22.74c0-.1-.09-.29-.11-.33-1.03-1.94-3.21-2.73-7.14-2.73h-.01v1.03h.67c2.11,0,4.96.08,6.24,1.8.08.1.21.3.3.3l.06-.07h0Z"/>
    </g>
  </g>
  <circle class="st3" cx="69.2" cy="40.01" r="11.13"/>
  <path class="st11" d="M80.33,40.01h-.25c0,3-1.22,5.72-3.19,7.69-1.97,1.97-4.69,3.19-7.69,3.19s-5.72-1.22-7.69-3.19c-1.97-1.97-3.19-4.69-3.19-7.69s1.22-5.72,3.19-7.69c1.97-1.97,4.69-3.19,7.69-3.19s5.72,1.22,7.69,3.19,3.19,4.69,3.19,7.69h.5c0-6.28-5.09-11.38-11.38-11.38s-11.38,5.09-11.38,11.38,5.09,11.38,11.38,11.38,11.38-5.09,11.38-11.38h-.25Z"/>
  <circle class="st3" cx="69.93" cy="39.31" r="10.84"/>
  <path class="st11" d="M80.75,39.3h-.25c0,2.92-1.18,5.57-3.1,7.49-1.92,1.92-4.56,3.1-7.49,3.1s-5.57-1.18-7.49-3.1-3.1-4.56-3.1-7.49,1.18-5.57,3.1-7.49c1.92-1.92,4.56-3.1,7.49-3.1s5.57,1.18,7.49,3.1,3.1,4.56,3.1,7.49h.5c0-6.12-4.96-11.09-11.09-11.09s-11.09,4.96-11.09,11.09,4.96,11.09,11.09,11.09,11.09-4.96,11.09-11.09c0,0-.25,0-.25,0Z"/>
  <g class="st0">
    <path d="M74.45,43.02v-.33l-.52-.03c-.5-.03-.56-.12-.56-.98v-4.9c0-.86.05-.95.56-.98l.52-.03v-.33c-.53.02-1.07.03-1.6.03s-1.06,0-1.59-.03v.33l.52.03c.5.03.56.12.56.98v1.94c-.23,0-.46.02-.91.02h-2.55c-.45,0-.69,0-.91-.02v-1.94c0-.86.05-.95.56-.98l.52-.03v-.33c-.53.02-1.07.03-1.6.03s-1.06,0-1.59-.03v.33l.52.03c.5.03.56.12.56.98v4.9c0,.86-.05.95-.56.98l-.52.03v.33c.53-.02,1.06-.03,1.59-.03s1.07,0,1.6.03v-.33l-.52-.03c-.5-.03-.56-.12-.56-.98v-2.43c.29-.02.47-.02.91-.02h2.55c.44,0,.61,0,.91.02v2.43c0,.86-.05.95-.56.98l-.52.03v.33c.53-.02,1.06-.03,1.59-.03s1.07,0,1.6.03Z"/>
  </g>
  <circle class="st3" cx="159.2" cy="40.01" r="11.13"/>
  <path class="st11" d="M170.33,40.01h-.25c0,3-1.22,5.72-3.19,7.69-1.97,1.97-4.69,3.19-7.69,3.19s-5.72-1.22-7.69-3.19c-1.97-1.97-3.19-4.69-3.19-7.69s1.22-5.72,3.19-7.69c1.97-1.97,4.69-3.19,7.69-3.19s5.72,1.22,7.69,3.19,3.19,4.69,3.19,7.69h.5c0-6.28-5.09-11.38-11.38-11.38s-11.38,5.09-11.38,11.38,5.09,11.38,11.38,11.38,11.38-5.09,11.38-11.38h-.25Z"/>
  <circle class="st3" cx="159.91" cy="39.31" r="10.84"/>
  <path class="st11" d="M170.75,39.3h-.25c0,2.92-1.18,5.57-3.1,7.49-1.92,1.92-4.56,3.1-7.49,3.1s-5.57-1.18-7.49-3.1c-1.92-1.92-3.1-4.56-3.1-7.49s1.18-5.57,3.1-7.49,4.56-3.1,7.49-3.1,5.57,1.18,7.49,3.1c1.92,1.92,3.1,4.56,3.1,7.49h.5c0-6.12-4.96-11.09-11.09-11.09s-11.09,4.96-11.09,11.09,4.96,11.09,11.09,11.09,11.09-4.96,11.09-11.09c0,0-.25,0-.25,0Z"/>
  <g class="st1">
    <path d="M164.45,43.02v-.33l-.52-.03c-.5-.03-.56-.12-.56-.98v-4.9c0-.86.05-.95.56-.98l.52-.03v-.33c-.53.02-1.07.03-1.6.03s-1.06,0-1.59-.03v.33l.52.03c.5.03.56.12.56.98v1.94c-.23,0-.46.02-.91.02h-2.55c-.45,0-.69,0-.91-.02v-1.94c0-.86.05-.95.56-.98l.52-.03v-.33c-.53.02-1.07.03-1.6.03s-1.06,0-1.59-.03v.33l.52.03c.5.03.56.12.56.98v4.9c0,.86-.05.95-.56.98l-.52.03v.33c.53-.02,1.06-.03,1.59-.03s1.07,0,1.6.03v-.33l-.52-.03c-.5-.03-.56-.12-.56-.98v-2.43c.29-.02.47-.02.91-.02h2.55c.44,0,.61,0,.91.02v2.43c0,.86-.05.95-.56.98l-.52.03v.33c.53-.02,1.06-.03,1.59-.03s1.07,0,1.6.03Z"/>
  </g>
  <circle class="st6" cx="39.2" cy="82.01" r="11.13"/>
  <path class="st11" d="M50.33,82.01h-.25c0,3-1.22,5.72-3.19,7.69s-4.69,3.19-7.69,3.19-5.72-1.22-7.69-3.19-3.19-4.69-3.19-7.69,1.22-5.72,3.19-7.69,4.69-3.19,7.69-3.19,5.72,1.22,7.69,3.19,3.19,4.69,3.19,7.69h.5c0-6.28-5.09-11.38-11.38-11.38s-11.38,5.09-11.38,11.38,5.09,11.38,11.38,11.38,11.38-5.09,11.38-11.38h-.25Z"/>
  <circle class="st6" cx="39.92" cy="81.31" r="10.84"/>
  <path class="st11" d="M50.75,81.3h-.25c0,2.92-1.18,5.57-3.1,7.49-1.92,1.92-4.56,3.1-7.49,3.1s-5.57-1.18-7.49-3.1-3.1-4.56-3.1-7.49,1.18-5.57,3.1-7.49c1.92-1.92,4.56-3.1,7.49-3.1s5.57,1.18,7.49,3.1,3.1,4.56,3.1,7.49h.5c0-6.12-4.96-11.09-11.09-11.09s-11.09,4.96-11.09,11.09,4.96,11.09,11.09,11.09,11.09-4.96,11.09-11.09h-.25Z"/>
  <g class="st15">
    <path d="M43.3,77.43l-2.36.03h-1.72l-2.21-.03c.05.62.08,1.05.08,1.76h.34l.04-.86c0-.26.13-.36.44-.36h1.69c.03.37.04.62.04,1.09v4.61c0,.86-.05.95-.56.98l-.52.03v.33c.53-.02,1.06-.03,1.59-.03s1.07.01,1.6.03v-.33l-.52-.03c-.5-.03-.56-.12-.56-.98v-4.61c0-.49,0-.73.04-1.09h1.69c.31,0,.43.1.44.36l.04.86h.34c0-.71.02-1.13.08-1.76h0Z"/>
  </g>
  <circle class="st6" cx="99.2" cy="82.01" r="11.13"/>
  <path class="st11" d="M110.33,82.01h-.25c0,3-1.22,5.72-3.19,7.69s-4.69,3.19-7.69,3.19-5.72-1.22-7.69-3.19-3.19-4.69-3.19-7.69,1.22-5.72,3.19-7.69,4.69-3.19,7.69-3.19,5.72,1.22,7.69,3.19,3.19,4.69,3.19,7.69h.5c0-6.28-5.09-11.38-11.38-11.38s-11.38,5.09-11.38,11.38,5.09,11.38,11.38,11.38,11.38-5.09,11.38-11.38h-.25Z"/>
  <circle class="st6" cx="99.91" cy="81.3" r="10.84"/>
  <path class="st11" d="M110.75,81.3h-.25c0,2.92-1.18,5.57-3.1,7.49-1.92,1.92-4.56,3.1-7.49,3.1s-5.57-1.18-7.49-3.1-3.1-4.56-3.1-7.49,1.18-5.57,3.1-7.49c1.92-1.92,4.56-3.1,7.49-3.1s5.57,1.18,7.49,3.1,3.1,4.56,3.1,7.49h.5c0-6.12-4.96-11.09-11.09-11.09s-11.09,4.96-11.09,11.09,4.96,11.09,11.09,11.09,11.09-4.96,11.09-11.09h-.25Z"/>
  <g class="st4">
    <path d="M103.3,77.43l-2.36.03h-1.72l-2.21-.03c.05.62.08,1.05.08,1.76h.34l.04-.86c0-.26.13-.36.44-.36h1.69c.03.37.04.62.04,1.09v4.61c0,.86-.05.95-.56.98l-.52.03v.33c.53-.02,1.06-.03,1.59-.03s1.07.01,1.6.03v-.33l-.52-.03c-.5-.03-.56-.12-.56-.98v-4.61c0-.49,0-.73.04-1.09h1.69c.31,0,.43.1.44.36l.04.86h.34c0-.71.02-1.13.08-1.76h0Z"/>
  </g>
  <circle class="st6" cx="129.2" cy="82.01" r="11.13"/>
  <path class="st11" d="M140.33,82.01h-.25c0,3-1.22,5.72-3.19,7.69s-4.69,3.19-7.69,3.19-5.72-1.22-7.69-3.19-3.19-4.69-3.19-7.69,1.22-5.72,3.19-7.69,4.69-3.19,7.69-3.19,5.72,1.22,7.69,3.19,3.19,4.69,3.19,7.69h.5c0-6.28-5.09-11.38-11.38-11.38s-11.38,5.09-11.38,11.38,5.09,11.38,11.38,11.38,11.38-5.09,11.38-11.38h-.25Z"/>
  <circle class="st6" cx="129.91" cy="81.3" r="10.84"/>
  <path class="st11" d="M140.75,81.3h-.25c0,2.92-1.18,5.57-3.1,7.49s-4.56,3.1-7.49,3.1-5.57-1.18-7.49-3.1-3.1-4.56-3.1-7.49,1.18-5.57,3.1-7.49c1.92-1.92,4.56-3.1,7.49-3.1s5.57,1.18,7.49,3.1,3.1,4.56,3.1,7.49h.5c0-6.12-4.96-11.09-11.09-11.09s-11.09,4.96-11.09,11.09,4.96,11.09,11.09,11.09,11.09-4.96,11.09-11.09h-.25Z"/>
  <g class="st5">
    <path d="M133.3,77.43l-2.36.03h-1.72l-2.21-.03c.05.62.08,1.05.08,1.76h.34l.04-.86c0-.26.13-.36.44-.36h1.69c.03.37.04.62.04,1.09v4.61c0,.86-.05.95-.56.98l-.52.03v.33c.53-.02,1.06-.03,1.59-.03s1.07.01,1.6.03v-.33l-.52-.03c-.5-.03-.56-.12-.56-.98v-4.61c0-.49.01-.73.04-1.09h1.69c.31,0,.43.1.44.36l.04.86h.34c0-.71.02-1.13.08-1.76Z"/>
  </g>
</svg>