<?xml version="1.0" encoding="UTF-8"?>
<svg id="Layer_2" xmlns="http://www.w3.org/2000/svg" version="1.1" xmlns:xlink="http://www.w3.org/1999/xlink" viewBox="0 0 334.38 178.19">
  <!-- Generator: Adobe Illustrator 29.5.1, SVG Export Plug-In . SVG Version: 2.1.0 Build 141)  -->
  <defs>
    <style>
      .st0 {
        clip-path: url(#clippath-34);
      }

      .st1 {
        clip-path: url(#clippath-38);
      }

      .st2 {
        clip-path: url(#clippath-21);
      }

      .st3 {
        clip-path: url(#clippath-6);
      }

      .st4 {
        clip-path: url(#clippath-7);
      }

      .st5 {
        clip-path: url(#clippath-17);
      }

      .st6 {
        clip-path: url(#clippath-31);
      }

      .st7 {
        clip-path: url(#clippath-15);
      }

      .st8 {
        clip-path: url(#clippath-33);
      }

      .st9 {
        clip-path: url(#clippath-18);
      }

      .st10 {
        clip-path: url(#clippath-4);
      }

      .st11 {
        clip-path: url(#clippath-22);
      }

      .st12 {
        clip-path: url(#clippath-23);
      }

      .st13 {
        fill: #ea906a;
      }

      .st14 {
        clip-path: url(#clippath-9);
      }

      .st15 {
        clip-path: url(#clippath-10);
      }

      .st16 {
        fill: #fff;
      }

      .st17 {
        clip-path: url(#clippath-25);
      }

      .st18 {
        clip-path: url(#clippath-27);
      }

      .st19 {
        fill: #7fc78c;
      }

      .st20 {
        clip-path: url(#clippath-11);
      }

      .st21 {
        fill: none;
      }

      .st22 {
        clip-path: url(#clippath-36);
      }

      .st23 {
        clip-path: url(#clippath-35);
      }

      .st24 {
        clip-path: url(#clippath-28);
      }

      .st25 {
        clip-path: url(#clippath-1);
      }

      .st26 {
        fill: #231f20;
      }

      .st27 {
        clip-path: url(#clippath-5);
      }

      .st28 {
        clip-path: url(#clippath-20);
      }

      .st29 {
        clip-path: url(#clippath-8);
      }

      .st30 {
        clip-path: url(#clippath-3);
      }

      .st31 {
        clip-path: url(#clippath-26);
      }

      .st32 {
        clip-path: url(#clippath-12);
      }

      .st33 {
        clip-path: url(#clippath-14);
      }

      .st34 {
        fill: #efecd0;
      }

      .st35 {
        clip-path: url(#clippath-30);
      }

      .st36 {
        clip-path: url(#clippath-19);
      }

      .st37 {
        fill: #b3daaa;
      }

      .st38 {
        clip-path: url(#clippath-32);
      }

      .st39 {
        clip-path: url(#clippath-39);
      }

      .st40 {
        clip-path: url(#clippath-16);
      }

      .st41 {
        clip-path: url(#clippath-2);
      }

      .st42 {
        clip-path: url(#clippath-29);
      }

      .st43 {
        clip-path: url(#clippath-37);
      }

      .st44 {
        clip-path: url(#clippath-13);
      }

      .st45 {
        clip-path: url(#clippath-24);
      }

      .st46 {
        clip-path: url(#clippath);
      }
    </style>
    <clipPath id="clippath">
      <rect class="st21" x="134.41" y="38.69" width="42.65" height="30.17"/>
    </clipPath>
    <clipPath id="clippath-1">
      <rect class="st21" x="158.97" y="52.95" width="11.82" height="11.82"/>
    </clipPath>
    <clipPath id="clippath-2">
      <rect class="st21" x="139.57" y="32.2" width="30.52" height="43.05" transform="translate(97.07 207.09) rotate(-88.5)"/>
    </clipPath>
    <clipPath id="clippath-3">
      <rect class="st21" x="158.74" y="52.95" width="11.01" height="11.01"/>
    </clipPath>
    <clipPath id="clippath-4">
      <rect class="st21" x="92.83" y="21.17" width="8.68" height="9.69"/>
    </clipPath>
    <clipPath id="clippath-5">
      <rect class="st21" x="109.83" y="35.17" width="8.68" height="9.69"/>
    </clipPath>
    <clipPath id="clippath-6">
      <rect class="st21" x="131.83" y="35.17" width="8.68" height="9.69"/>
    </clipPath>
    <clipPath id="clippath-7">
      <rect class="st21" x="142.15" y="16.05" width="8.68" height="9.69"/>
    </clipPath>
    <clipPath id="clippath-8">
      <rect class="st21" x="115.82" y="14.56" width="8.68" height="9.69"/>
    </clipPath>
    <clipPath id="clippath-9">
      <rect class="st21" x="204.81" y="14.01" width="8.68" height="9.69"/>
    </clipPath>
    <clipPath id="clippath-10">
      <rect class="st21" x="198.81" y="35.01" width="8.68" height="9.69"/>
    </clipPath>
    <clipPath id="clippath-11">
      <rect class="st21" x="220.81" y="35.01" width="8.68" height="9.69"/>
    </clipPath>
    <clipPath id="clippath-12">
      <rect class="st21" x="180.64" y="20.64" width="11.07" height="9.69"/>
    </clipPath>
    <clipPath id="clippath-13">
      <rect class="st21" x="232.81" y="16.01" width="8.68" height="9.69"/>
    </clipPath>
    <clipPath id="clippath-14">
      <rect class="st21" x="181.81" y="80.01" width="8.68" height="9.69"/>
    </clipPath>
    <clipPath id="clippath-15">
      <rect class="st21" x="198.81" y="94.01" width="8.68" height="9.69"/>
    </clipPath>
    <clipPath id="clippath-16">
      <rect class="st21" x="231.64" y="74.64" width="11.07" height="9.69"/>
    </clipPath>
    <clipPath id="clippath-17">
      <rect class="st21" x="220.81" y="94.01" width="8.68" height="9.69"/>
    </clipPath>
    <clipPath id="clippath-18">
      <rect class="st21" x="204.81" y="73.01" width="8.68" height="9.69"/>
    </clipPath>
    <clipPath id="clippath-19">
      <rect class="st21" x="181.81" y="139.01" width="8.68" height="9.69"/>
    </clipPath>
    <clipPath id="clippath-20">
      <rect class="st21" x="220.81" y="153.01" width="8.68" height="9.69"/>
    </clipPath>
    <clipPath id="clippath-21">
      <rect class="st21" x="204.81" y="132.01" width="8.68" height="9.69"/>
    </clipPath>
    <clipPath id="clippath-22">
      <rect class="st21" x="197.64" y="152.64" width="11.07" height="9.69"/>
    </clipPath>
    <clipPath id="clippath-23">
      <rect class="st21" x="232.81" y="134.01" width="8.68" height="9.69"/>
    </clipPath>
    <clipPath id="clippath-24">
      <rect class="st21" x="92.81" y="80.01" width="8.68" height="9.69"/>
    </clipPath>
    <clipPath id="clippath-25">
      <rect class="st21" x="114.64" y="72.64" width="11.07" height="9.69"/>
    </clipPath>
    <clipPath id="clippath-26">
      <rect class="st21" x="109.81" y="94.01" width="8.68" height="9.69"/>
    </clipPath>
    <clipPath id="clippath-27">
      <rect class="st21" x="131.81" y="94.01" width="8.68" height="9.69"/>
    </clipPath>
    <clipPath id="clippath-28">
      <rect class="st21" x="143.81" y="75.01" width="8.68" height="9.69"/>
    </clipPath>
    <clipPath id="clippath-29">
      <rect class="st21" x="92.81" y="139.01" width="8.68" height="9.69"/>
    </clipPath>
    <clipPath id="clippath-30">
      <rect class="st21" x="109.81" y="153.01" width="8.68" height="9.69"/>
    </clipPath>
    <clipPath id="clippath-31">
      <rect class="st21" x="115.81" y="132.01" width="8.68" height="9.69"/>
    </clipPath>
    <clipPath id="clippath-32">
      <rect class="st21" x="143.81" y="134.01" width="8.68" height="9.69"/>
    </clipPath>
    <clipPath id="clippath-33">
      <rect class="st21" x="130.64" y="152.64" width="11.07" height="9.69"/>
    </clipPath>
    <clipPath id="clippath-34">
      <rect class="st21" x="23.49" y="41.07" width="27.85" height="9.87"/>
    </clipPath>
    <clipPath id="clippath-35">
      <rect class="st21" x="15.21" y="52.72" width="44.4" height="12.57"/>
    </clipPath>
    <clipPath id="clippath-36">
      <rect class="st21" x="16.46" y="65.72" width="41.9" height="12.57"/>
    </clipPath>
    <clipPath id="clippath-37">
      <rect class="st21" x="285.49" y="40.13" width="27.85" height="9.75"/>
    </clipPath>
    <clipPath id="clippath-38">
      <rect class="st21" x="277.21" y="51.72" width="44.4" height="12.57"/>
    </clipPath>
    <clipPath id="clippath-39">
      <rect class="st21" x="269.95" y="64.33" width="58.92" height="13.35"/>
    </clipPath>
  </defs>
  <path class="st34" d="M248.84,175.49v-1h-73.6c-1.41,0-2.68-.57-3.61-1.49-.92-.93-1.49-2.2-1.49-3.61V8.5c0-1.41.57-2.68,1.49-3.61.93-.92,2.2-1.49,3.61-1.49h73.6c1.41,0,2.68.57,3.61,1.49.92.93,1.49,2.2,1.49,3.61v160.89c0,1.41-.57,2.68-1.49,3.61-.93.92-2.2,1.49-3.61,1.49v2c3.92,0,7.1-3.18,7.1-7.1V8.5c0-3.92-3.18-7.1-7.1-7.1h-73.6c-3.92,0-7.1,3.18-7.1,7.1v160.89c0,3.92,3.18,7.1,7.1,7.1h73.6v-1Z"/>
  <path class="st34" d="M248.84,175.49v-1H85.24c-1.41,0-2.68-.57-3.61-1.49-.92-.93-1.49-2.2-1.49-3.61v-101.71c0-1.41.57-2.68,1.49-3.61.93-.92,2.2-1.49,3.61-1.49h163.6c1.41,0,2.68.57,3.61,1.49.92.93,1.49,2.2,1.49,3.61v101.71c0,1.41-.57,2.68-1.49,3.61-.93.92-2.2,1.49-3.61,1.49v2c3.92,0,7.1-3.18,7.1-7.1v-101.71c0-3.92-3.18-7.1-7.1-7.1H85.24c-3.92,0-7.1,3.18-7.1,7.1v101.71c0,3.92,3.18,7.1,7.1,7.1h163.6v-1Z"/>
  <rect class="st16" x="176.06" y="54.85" width="77.73" height="31.44"/>
  <rect class="st16" x="163.29" y="68.79" width="13.52" height="105.37"/>
  <rect class="st16" x="139.33" y="51.45" width="78.69" height="31.44" transform="translate(4.84 146.02) rotate(-45)"/>
  <path class="st26" d="M249.62,176.65v-.25h-75.18c-1.62,0-3.08-.65-4.14-1.71-1.06-1.06-1.71-2.52-1.71-4.14V7.64c0-1.62.65-3.08,1.71-4.14,1.06-1.06,2.52-1.71,4.14-1.71h75.18c1.62,0,3.08.65,4.14,1.71,1.06,1.06,1.71,2.52,1.71,4.14v162.9c0,1.62-.65,3.08-1.71,4.14s-2.52,1.71-4.14,1.71v.5c3.51,0,6.35-2.84,6.35-6.35V7.64c0-3.51-2.84-6.35-6.35-6.35h-75.18c-3.51,0-6.35,2.84-6.35,6.35v162.9c0,3.51,2.84,6.35,6.35,6.35h75.18v-.25h0Z"/>
  <path class="st26" d="M249.62,176.65v-.25H84.38c-1.62,0-3.08-.65-4.14-1.71-1.06-1.06-1.71-2.52-1.71-4.14v-103.76c0-1.62.65-3.08,1.71-4.14,1.06-1.06,2.52-1.71,4.14-1.71h165.24c1.62,0,3.08.65,4.14,1.71,1.06,1.06,1.71,2.52,1.71,4.14v103.76c0,1.62-.65,3.08-1.71,4.14s-2.52,1.71-4.14,1.71v.5c3.51,0,6.35-2.84,6.35-6.35v-103.76c0-3.51-2.84-6.35-6.35-6.35H84.38c-3.51,0-6.35,2.84-6.35,6.35v103.76c0,3.51,2.84,6.35,6.35,6.35h165.24v-.25Z"/>
  <polygon class="st16" points="162.88 106.47 219.04 50.17 196.61 27.68 140.44 83.98 162.88 106.47"/>
  <rect class="st16" x="175.8" y="54.61" width="77.99" height="31.8"/>
  <rect class="st16" x="163.21" y="68.71" width="13.64" height="105.45"/>
  <rect class="st34" x="163.21" y="174.16" width="13.64" height="2"/>
  <rect class="st34" x="253.79" y="54.61" width="1.47" height="31.8"/>
  <g class="st46">
    <g class="st25">
      <path class="st34" d="M163.16,61.37l-.02-1-73.83,1.44h-.1c-2.7,0-4.92-2.17-4.98-4.88l-.85-43.51v-.1c0-2.7,2.17-4.92,4.88-4.98l73.83-1.44h.1c2.7,0,4.92,2.17,4.98,4.88l.85,43.51v.1c0,2.7-2.17,4.92-4.88,4.98l.02,1,.02,1c3.81-.08,6.84-3.18,6.84-6.98v-.14l-.85-43.51c-.08-3.81-3.18-6.84-6.98-6.84h-.14l-73.83,1.44c-3.81.08-6.84,3.18-6.84,6.98v.14l.85,43.51c.08,3.81,3.18,6.84,6.98,6.84h.14l73.83-1.44-.02-1Z"/>
    </g>
  </g>
  <g class="st41">
    <g class="st30">
      <path class="st26" d="M162.51,60.76v-.25l-53.57,1.04h-.11c-3.11,0-5.67-2.49-5.73-5.62l-.37-18.87v-.11c0-3.11,2.49-5.67,5.62-5.73l53.57-1.04h.11c3.11,0,5.67,2.49,5.73,5.62l.37,18.87v.11c0,3.11-2.49,5.67-5.62,5.73v.5c3.4-.07,6.11-2.84,6.11-6.23v-.12l-.37-18.87c-.07-3.4-2.84-6.11-6.23-6.11h-.12l-53.57,1.04c-3.4.07-6.11,2.84-6.11,6.23v.12l.37,18.87c.07,3.4,2.84,6.11,6.23,6.11h.12l53.57-1.04v-.25Z"/>
    </g>
  </g>
  <rect class="st37" x="84.13" y="6.78" width="76.65" height="46.33"/>
  <polygon class="st26" points="160.78 53.11 160.78 52.86 84.38 52.86 84.38 7.03 160.53 7.03 160.53 53.11 160.78 53.11 160.78 52.86 160.78 53.11 161.03 53.11 161.03 6.53 83.88 6.53 83.88 53.36 161.03 53.36 161.03 53.11 160.78 53.11"/>
  <circle class="st19" cx="96.74" cy="26.31" r="7.05"/>
  <path class="st26" d="M103.79,26.31h-.25c0,1.88-.76,3.58-1.99,4.81-1.23,1.23-2.93,1.99-4.81,1.99s-3.58-.76-4.81-1.99c-1.23-1.23-1.99-2.93-1.99-4.81s.76-3.58,1.99-4.81c1.23-1.23,2.93-1.99,4.81-1.99s3.58.76,4.81,1.99,1.99,2.93,1.99,4.81h.5c0-4.03-3.27-7.3-7.3-7.3s-7.3,3.27-7.3,7.3,3.27,7.3,7.3,7.3,7.3-3.27,7.3-7.3c0,0-.25,0-.25,0Z"/>
  <circle class="st19" cx="97.19" cy="25.86" r="6.86"/>
  <path class="st26" d="M104.05,25.86h-.25c0,1.83-.74,3.48-1.94,4.68s-2.85,1.94-4.68,1.94-3.48-.74-4.68-1.94-1.94-2.85-1.94-4.68.74-3.48,1.94-4.68,2.85-1.94,4.68-1.94,3.48.74,4.68,1.94,1.94,2.85,1.94,4.68h.5c0-3.93-3.18-7.11-7.11-7.11s-7.11,3.18-7.11,7.11,3.18,7.11,7.11,7.11,7.11-3.18,7.11-7.11c0,0-.25,0-.25,0Z"/>
  <g class="st10">
    <path d="M100.31,22.26l-2.36.03h-1.72l-2.21-.03c.05.62.08,1.05.08,1.76h.34l.04-.86c0-.26.13-.36.44-.36h1.69c.03.37.04.62.04,1.09v4.61c0,.86-.05.95-.56.98l-.52.03v.33c.53-.02,1.06-.03,1.59-.03s1.07.01,1.6.03v-.33l-.52-.03c-.5-.03-.56-.12-.56-.98v-4.61c0-.49,0-.73.04-1.09h1.69c.31,0,.43.1.44.36l.04.86h.34c0-.71.02-1.13.08-1.76h0Z"/>
  </g>
  <circle class="st19" cx="113.74" cy="40.31" r="7.05"/>
  <path class="st26" d="M120.79,40.31h-.25c0,1.88-.76,3.58-1.99,4.81-1.23,1.23-2.93,1.99-4.81,1.99s-3.58-.76-4.81-1.99c-1.23-1.23-1.99-2.93-1.99-4.81s.76-3.58,1.99-4.81c1.23-1.23,2.93-1.99,4.81-1.99s3.58.76,4.81,1.99c1.23,1.23,1.99,2.93,1.99,4.81h.5c0-4.03-3.27-7.3-7.3-7.3s-7.3,3.27-7.3,7.3,3.27,7.3,7.3,7.3,7.3-3.27,7.3-7.3h-.25Z"/>
  <circle class="st19" cx="114.19" cy="39.86" r="6.86"/>
  <path class="st26" d="M121.05,39.86h-.25c0,1.83-.74,3.48-1.94,4.68s-2.85,1.94-4.68,1.94-3.48-.74-4.68-1.94c-1.2-1.2-1.94-2.85-1.94-4.68s.74-3.48,1.94-4.68,2.85-1.94,4.68-1.94,3.48.74,4.68,1.94c1.2,1.2,1.94,2.85,1.94,4.68h.5c0-3.93-3.18-7.11-7.11-7.11s-7.11,3.18-7.11,7.11,3.18,7.11,7.11,7.11,7.11-3.18,7.11-7.11h-.25Z"/>
  <g class="st27">
    <path d="M117.31,36.26l-2.36.03h-1.72l-2.21-.03c.05.62.08,1.05.08,1.76h.34l.04-.86c0-.26.13-.36.44-.36h1.69c.03.37.04.62.04,1.09v4.61c0,.86-.05.95-.56.98l-.52.03v.33c.53-.02,1.06-.03,1.59-.03s1.07,0,1.6.03v-.33l-.52-.03c-.5-.03-.56-.12-.56-.98v-4.61c0-.49,0-.73.04-1.09h1.69c.31,0,.43.1.44.36l.04.86h.34c0-.71.02-1.13.08-1.76h0Z"/>
  </g>
  <circle class="st19" cx="135.74" cy="40.31" r="7.05"/>
  <path class="st26" d="M142.79,40.31h-.25c0,1.88-.76,3.58-1.99,4.81-1.23,1.23-2.93,1.99-4.81,1.99s-3.58-.76-4.81-1.99c-1.23-1.23-1.99-2.93-1.99-4.81s.76-3.58,1.99-4.81c1.23-1.23,2.93-1.99,4.81-1.99s3.58.76,4.81,1.99c1.23,1.23,1.99,2.93,1.99,4.81h.5c0-4.03-3.27-7.3-7.3-7.3s-7.3,3.27-7.3,7.3,3.27,7.3,7.3,7.3,7.3-3.27,7.3-7.3h-.25Z"/>
  <circle class="st19" cx="136.19" cy="39.86" r="6.86"/>
  <path class="st26" d="M143.05,39.86h-.25c0,1.83-.74,3.48-1.94,4.68s-2.85,1.94-4.68,1.94-3.48-.74-4.68-1.94c-1.2-1.2-1.94-2.85-1.94-4.68s.74-3.48,1.94-4.68,2.85-1.94,4.68-1.94,3.48.74,4.68,1.94c1.2,1.2,1.94,2.85,1.94,4.68h.5c0-3.93-3.18-7.11-7.11-7.11s-7.11,3.18-7.11,7.11,3.18,7.11,7.11,7.11,7.11-3.18,7.11-7.11h-.25Z"/>
  <g class="st3">
    <path d="M139.31,36.26l-2.36.03h-1.72l-2.21-.03c.05.62.08,1.05.08,1.76h.34l.04-.86c0-.26.13-.36.44-.36h1.69c.03.37.04.62.04,1.09v4.61c0,.86-.05.95-.56.98l-.52.03v.33c.53-.02,1.06-.03,1.59-.03s1.07,0,1.6.03v-.33l-.52-.03c-.5-.03-.56-.12-.56-.98v-4.61c0-.49,0-.73.04-1.09h1.69c.31,0,.43.1.44.36l.04.86h.34c0-.71.02-1.13.08-1.76h0Z"/>
  </g>
  <circle class="st19" cx="146.06" cy="21.19" r="7.05"/>
  <path class="st26" d="M153.11,21.19h-.25c0,1.88-.76,3.58-1.99,4.81-1.23,1.23-2.93,1.99-4.81,1.99s-3.58-.76-4.81-1.99-1.99-2.93-1.99-4.81.76-3.58,1.99-4.81c1.23-1.23,2.93-1.99,4.81-1.99s3.58.76,4.81,1.99,1.99,2.93,1.99,4.81h.5c0-4.03-3.27-7.3-7.3-7.3s-7.3,3.27-7.3,7.3,3.27,7.3,7.3,7.3,7.3-3.27,7.3-7.3c0,0-.25,0-.25,0Z"/>
  <circle class="st19" cx="146.51" cy="20.74" r="6.86"/>
  <path class="st26" d="M153.37,20.74h-.25c0,1.83-.74,3.48-1.94,4.68s-2.85,1.94-4.68,1.94-3.48-.74-4.68-1.94-1.94-2.85-1.94-4.68.74-3.48,1.94-4.68c1.2-1.2,2.85-1.94,4.68-1.94s3.48.74,4.68,1.94,1.94,2.85,1.94,4.68h.5c0-3.93-3.18-7.11-7.11-7.11s-7.11,3.18-7.11,7.11,3.18,7.11,7.11,7.11,7.11-3.18,7.11-7.11h-.25Z"/>
  <g class="st4">
    <path d="M149.63,17.14l-2.36.03h-1.72l-2.21-.03c.05.62.08,1.05.08,1.76h.34l.04-.86c0-.26.13-.36.44-.36h1.69c.03.37.04.62.04,1.09v4.61c0,.86-.05.95-.56.98l-.52.03v.33c.53-.02,1.06-.03,1.59-.03s1.07.01,1.6.03v-.33l-.52-.03c-.5-.03-.56-.12-.56-.98v-4.61c0-.49,0-.73.04-1.09h1.69c.31,0,.43.1.44.36l.04.86h.34c0-.71.02-1.13.08-1.76h0Z"/>
  </g>
  <circle class="st19" cx="119.73" cy="19.7" r="7.05"/>
  <path class="st26" d="M126.78,19.7h-.25c0,1.88-.76,3.58-1.99,4.81-1.23,1.23-2.93,1.99-4.81,1.99s-3.58-.76-4.81-1.99-1.99-2.93-1.99-4.81.76-3.58,1.99-4.81c1.23-1.23,2.93-1.99,4.81-1.99s3.58.76,4.81,1.99,1.99,2.93,1.99,4.81h.5c0-4.03-3.27-7.3-7.3-7.3s-7.3,3.27-7.3,7.3,3.27,7.3,7.3,7.3,7.3-3.27,7.3-7.3h-.25Z"/>
  <circle class="st19" cx="120.18" cy="19.25" r="6.86"/>
  <path class="st26" d="M127.05,19.25h-.25c0,1.83-.74,3.48-1.94,4.68s-2.85,1.94-4.68,1.94-3.48-.74-4.68-1.94-1.94-2.85-1.94-4.68.74-3.48,1.94-4.68c1.2-1.2,2.85-1.94,4.68-1.94s3.48.74,4.68,1.94c1.2,1.2,1.94,2.85,1.94,4.68h.5c0-3.93-3.18-7.11-7.11-7.11s-7.11,3.18-7.11,7.11,3.18,7.11,7.11,7.11,7.11-3.18,7.11-7.11h-.25Z"/>
  <g class="st29">
    <path d="M123.31,15.65l-2.36.03h-1.72l-2.21-.03c.05.62.08,1.05.08,1.76h.34l.04-.86c0-.26.13-.36.44-.36h1.69c.03.37.04.62.04,1.09v4.61c0,.86-.05.95-.56.98l-.52.03v.33c.53-.02,1.06-.03,1.59-.03s1.07.01,1.6.03v-.33l-.52-.03c-.5-.03-.56-.12-.56-.98v-4.61c0-.49,0-.73.04-1.09h1.69c.31,0,.43.1.44.36l.04.86h.34c0-.71.02-1.13.08-1.76h0Z"/>
  </g>
  <rect class="st34" x="173.11" y="6.62" width="76.65" height="46.33"/>
  <polygon class="st26" points="249.76 52.95 249.76 52.7 173.36 52.7 173.36 6.87 249.51 6.87 249.51 52.95 249.76 52.95 249.76 52.7 249.76 52.95 250.01 52.95 250.01 6.37 172.86 6.37 172.86 53.2 250.01 53.2 250.01 52.95 249.76 52.95"/>
  <circle class="st19" cx="208.72" cy="19.15" r="7.05"/>
  <path class="st26" d="M215.77,19.15h-.25c0,1.88-.76,3.58-1.99,4.81-1.23,1.23-2.93,1.99-4.81,1.99s-3.58-.76-4.81-1.99-1.99-2.93-1.99-4.81.76-3.58,1.99-4.81c1.23-1.23,2.93-1.99,4.81-1.99s3.58.76,4.81,1.99,1.99,2.93,1.99,4.81h.5c0-4.03-3.27-7.3-7.3-7.3s-7.3,3.27-7.3,7.3,3.27,7.3,7.3,7.3,7.3-3.27,7.3-7.3c0,0-.25,0-.25,0Z"/>
  <circle class="st19" cx="209.17" cy="18.7" r="6.86"/>
  <path class="st26" d="M216.04,18.7h-.25c0,1.83-.74,3.48-1.94,4.68s-2.85,1.94-4.68,1.94-3.48-.74-4.68-1.94c-1.2-1.2-1.94-2.85-1.94-4.68s.74-3.48,1.94-4.68c1.2-1.2,2.85-1.94,4.68-1.94s3.48.74,4.68,1.94c1.2,1.2,1.94,2.85,1.94,4.68h.5c0-3.93-3.18-7.11-7.11-7.11s-7.11,3.18-7.11,7.11,3.18,7.11,7.11,7.11,7.11-3.18,7.11-7.11h-.25Z"/>
  <g class="st14">
    <path d="M212.3,15.1l-2.36.03h-1.72l-2.21-.03c.05.62.08,1.05.08,1.76h.34l.04-.86c.01-.26.13-.36.44-.36h1.69c.03.37.04.62.04,1.09v4.61c0,.86-.05.95-.56.98l-.52.03v.33c.53-.02,1.06-.03,1.59-.03s1.07.01,1.6.03v-.33l-.52-.03c-.5-.03-.56-.12-.56-.98v-4.61c0-.49.01-.73.04-1.09h1.69c.31,0,.43.1.44.36l.04.86h.34c0-.71.02-1.13.08-1.76h0Z"/>
  </g>
  <circle class="st19" cx="202.72" cy="40.15" r="7.05"/>
  <path class="st26" d="M209.77,40.15h-.25c0,1.88-.76,3.58-1.99,4.81-1.23,1.23-2.93,1.99-4.81,1.99s-3.58-.76-4.81-1.99c-1.23-1.23-1.99-2.93-1.99-4.81s.76-3.58,1.99-4.81c1.23-1.23,2.93-1.99,4.81-1.99s3.58.76,4.81,1.99c1.23,1.23,1.99,2.93,1.99,4.81h.5c0-4.03-3.27-7.3-7.3-7.3s-7.3,3.27-7.3,7.3,3.27,7.3,7.3,7.3,7.3-3.27,7.3-7.3h-.25Z"/>
  <circle class="st19" cx="203.17" cy="39.7" r="6.86"/>
  <path class="st26" d="M210.04,39.7h-.25c0,1.83-.74,3.48-1.94,4.68s-2.85,1.94-4.68,1.94-3.48-.74-4.68-1.94c-1.2-1.2-1.94-2.85-1.94-4.68s.74-3.48,1.94-4.68,2.85-1.94,4.68-1.94,3.48.74,4.68,1.94c1.2,1.2,1.94,2.85,1.94,4.68h.5c0-3.93-3.18-7.11-7.11-7.11s-7.11,3.18-7.11,7.11,3.18,7.11,7.11,7.11,7.11-3.18,7.11-7.11h-.25Z"/>
  <g class="st15">
    <path d="M206.3,36.1l-2.36.03h-1.72l-2.21-.03c.05.62.08,1.05.08,1.76h.34l.04-.86c.01-.26.13-.36.44-.36h1.69c.03.37.04.62.04,1.09v4.61c0,.86-.05.95-.56.98l-.52.03v.33c.53-.02,1.06-.03,1.59-.03s1.07,0,1.6.03v-.33l-.52-.03c-.5-.03-.56-.12-.56-.98v-4.61c0-.49.01-.73.04-1.09h1.69c.31,0,.43.1.44.36l.04.86h.34c0-.71.02-1.13.08-1.76h0Z"/>
  </g>
  <circle class="st19" cx="224.72" cy="40.15" r="7.05"/>
  <path class="st26" d="M231.77,40.15h-.25c0,1.88-.76,3.58-1.99,4.81-1.23,1.23-2.93,1.99-4.81,1.99s-3.58-.76-4.81-1.99c-1.23-1.23-1.99-2.93-1.99-4.81s.76-3.58,1.99-4.81c1.23-1.23,2.93-1.99,4.81-1.99s3.58.76,4.81,1.99c1.23,1.23,1.99,2.93,1.99,4.81h.5c0-4.03-3.27-7.3-7.3-7.3s-7.3,3.27-7.3,7.3,3.27,7.3,7.3,7.3,7.3-3.27,7.3-7.3h-.25Z"/>
  <circle class="st19" cx="225.17" cy="39.7" r="6.86"/>
  <path class="st26" d="M232.04,39.7h-.25c0,1.83-.74,3.48-1.94,4.68s-2.85,1.94-4.68,1.94-3.48-.74-4.68-1.94c-1.2-1.2-1.94-2.85-1.94-4.68s.74-3.48,1.94-4.68,2.85-1.94,4.68-1.94,3.48.74,4.68,1.94c1.2,1.2,1.94,2.85,1.94,4.68h.5c0-3.93-3.18-7.11-7.11-7.11s-7.11,3.18-7.11,7.11,3.18,7.11,7.11,7.11,7.11-3.18,7.11-7.11h-.25Z"/>
  <g class="st20">
    <path d="M228.3,36.1l-2.36.03h-1.72l-2.21-.03c.05.62.08,1.05.08,1.76h.34l.04-.86c.01-.26.13-.36.44-.36h1.69c.03.37.04.62.04,1.09v4.61c0,.86-.05.95-.56.98l-.52.03v.33c.53-.02,1.06-.03,1.59-.03s1.07,0,1.6.03v-.33l-.52-.03c-.5-.03-.56-.12-.56-.98v-4.61c0-.49.01-.73.04-1.09h1.69c.31,0,.43.1.44.36l.04.86h.34c0-.71.02-1.13.08-1.76h0Z"/>
  </g>
  <circle class="st13" cx="185.72" cy="25.88" r="7.05"/>
  <path class="st26" d="M192.77,25.88h-.25c0,1.88-.76,3.58-1.99,4.81-1.23,1.23-2.93,1.99-4.81,1.99s-3.58-.76-4.81-1.99-1.99-2.93-1.99-4.81.76-3.58,1.99-4.81c1.23-1.23,2.93-1.99,4.81-1.99s3.58.76,4.81,1.99,1.99,2.93,1.99,4.81h.5c0-4.03-3.27-7.3-7.3-7.3s-7.3,3.27-7.3,7.3,3.27,7.3,7.3,7.3,7.3-3.27,7.3-7.3c0,0-.25,0-.25,0Z"/>
  <circle class="st13" cx="186.17" cy="25.43" r="6.86" transform="translate(131.25 205.12) rotate(-80.78)"/>
  <path class="st26" d="M193.03,25.43h-.25c0,1.83-.74,3.48-1.94,4.68s-2.85,1.94-4.68,1.94-3.48-.74-4.68-1.94-1.94-2.85-1.94-4.68.74-3.48,1.94-4.68,2.85-1.94,4.68-1.94,3.48.74,4.68,1.94c1.2,1.2,1.94,2.85,1.94,4.68h.5c0-3.93-3.18-7.11-7.11-7.11s-7.11,3.18-7.11,7.11,3.18,7.11,7.11,7.11,7.11-3.18,7.11-7.11c0,0-.25,0-.25,0Z"/>
  <g class="st32">
    <path d="M190.47,29.31v-.33l-.52-.03c-.5-.03-.56-.12-.56-.98v-4.9c0-.86.05-.95.56-.98l.52-.03v-.33c-.53.02-1.07.03-1.6.03s-1.06-.01-1.59-.03v.33l.52.03c.5.03.56.12.56.98v1.94c-.23.01-.46.02-.91.02h-2.55c-.45,0-.69-.01-.91-.02v-1.94c0-.86.05-.95.56-.98l.52-.03v-.33c-.53.02-1.07.03-1.6.03s-1.06-.01-1.59-.03v.33l.52.03c.5.03.56.12.56.98v4.9c0,.86-.05.95-.56.98l-.52.03v.33c.53-.02,1.06-.03,1.59-.03s1.07.01,1.6.03v-.33l-.52-.03c-.5-.03-.56-.12-.56-.98v-2.43c.29-.02.47-.02.91-.02h2.55c.44,0,.61,0,.91.02v2.43c0,.86-.05.95-.56.98l-.52.03v.33c.53-.02,1.06-.03,1.59-.03s1.07.01,1.6.03Z"/>
  </g>
  <circle class="st19" cx="236.72" cy="21.15" r="7.05"/>
  <path class="st26" d="M243.77,21.15h-.25c0,1.88-.76,3.58-1.99,4.81-1.23,1.23-2.93,1.99-4.81,1.99s-3.58-.76-4.81-1.99-1.99-2.93-1.99-4.81.76-3.58,1.99-4.81c1.23-1.23,2.93-1.99,4.81-1.99s3.58.76,4.81,1.99,1.99,2.93,1.99,4.81h.5c0-4.03-3.27-7.3-7.3-7.3s-7.3,3.27-7.3,7.3,3.27,7.3,7.3,7.3,7.3-3.27,7.3-7.3c0,0-.25,0-.25,0Z"/>
  <circle class="st19" cx="237.17" cy="20.7" r="6.86"/>
  <path class="st26" d="M244.04,20.7h-.25c0,1.83-.74,3.48-1.94,4.68s-2.85,1.94-4.68,1.94-3.48-.74-4.68-1.94c-1.2-1.2-1.94-2.85-1.94-4.68s.74-3.48,1.94-4.68c1.2-1.2,2.85-1.94,4.68-1.94s3.48.74,4.68,1.94c1.2,1.2,1.94,2.85,1.94,4.68h.5c0-3.93-3.18-7.11-7.11-7.11s-7.11,3.18-7.11,7.11,3.18,7.11,7.11,7.11,7.11-3.18,7.11-7.11h-.25Z"/>
  <g class="st44">
    <path d="M240.3,17.1l-2.36.03h-1.72l-2.21-.03c.05.62.08,1.05.08,1.76h.34l.04-.86c.01-.26.13-.36.44-.36h1.69c.03.37.04.62.04,1.09v4.61c0,.86-.05.95-.56.98l-.52.03v.33c.53-.02,1.06-.03,1.59-.03s1.07.01,1.6.03v-.33l-.52-.03c-.5-.03-.56-.12-.56-.98v-4.61c0-.49.01-.73.04-1.09h1.69c.31,0,.43.1.44.36l.04.86h.34c0-.71.02-1.13.08-1.76h0Z"/>
  </g>
  <line class="st21" x1="2.02" y1="33.6" x2="75.09" y2="33.6"/>
  <polyline class="st37" points="2.02 34.6 66.04 34.6 66.04 32.6 2.02 32.6"/>
  <path class="st37" d="M75.09,33.6c-4.26,1.58-9.54,4.28-12.82,7.13l2.58-7.13-2.58-7.13c3.28,2.86,8.56,5.55,12.82,7.13h0Z"/>
  <rect class="st34" x="173.11" y="65.62" width="76.65" height="46.33"/>
  <polygon class="st26" points="249.76 111.95 249.76 111.7 173.36 111.7 173.36 65.87 249.51 65.87 249.51 111.95 249.76 111.95 249.76 111.7 249.76 111.95 250.01 111.95 250.01 65.37 172.86 65.37 172.86 112.2 250.01 112.2 250.01 111.95 249.76 111.95"/>
  <circle class="st19" cx="185.72" cy="85.15" r="7.05"/>
  <path class="st26" d="M192.77,85.15h-.25c0,1.88-.76,3.58-1.99,4.81-1.23,1.23-2.93,1.99-4.81,1.99s-3.58-.76-4.81-1.99c-1.23-1.23-1.99-2.93-1.99-4.81s.76-3.58,1.99-4.81c1.23-1.23,2.93-1.99,4.81-1.99s3.58.76,4.81,1.99c1.23,1.23,1.99,2.93,1.99,4.81h.5c0-4.03-3.27-7.3-7.3-7.3s-7.3,3.27-7.3,7.3,3.27,7.3,7.3,7.3,7.3-3.27,7.3-7.3h-.25Z"/>
  <circle class="st19" cx="186.17" cy="84.7" r="6.86" transform="translate(72.74 254.9) rotate(-80.78)"/>
  <path class="st26" d="M193.04,84.7h-.25c0,1.83-.74,3.48-1.94,4.68s-2.85,1.94-4.68,1.94-3.48-.74-4.68-1.94c-1.2-1.2-1.94-2.85-1.94-4.68s.74-3.48,1.94-4.68,2.85-1.94,4.68-1.94,3.48.74,4.68,1.94c1.2,1.2,1.94,2.85,1.94,4.68h.5c0-3.93-3.18-7.11-7.11-7.11s-7.11,3.18-7.11,7.11,3.18,7.11,7.11,7.11,7.11-3.18,7.11-7.11h-.25Z"/>
  <g class="st33">
    <path d="M189.3,81.1l-2.36.03h-1.72l-2.21-.03c.05.62.08,1.05.08,1.76h.34l.04-.86c0-.26.13-.36.44-.36h1.69c.03.37.04.62.04,1.09v4.61c0,.86-.05.95-.56.98l-.52.03v.33c.53-.02,1.06-.03,1.59-.03s1.07.01,1.6.03v-.33l-.52-.03c-.5-.03-.56-.12-.56-.98v-4.61c0-.49.01-.73.04-1.09h1.69c.31,0,.43.1.44.36l.04.86h.34c0-.71.02-1.13.08-1.76Z"/>
  </g>
  <circle class="st19" cx="202.72" cy="99.15" r="7.05"/>
  <path class="st26" d="M209.77,99.15h-.25c0,1.88-.76,3.58-1.99,4.81-1.23,1.23-2.93,1.99-4.81,1.99s-3.58-.76-4.81-1.99c-1.23-1.23-1.99-2.93-1.99-4.81s.76-3.58,1.99-4.81c1.23-1.23,2.93-1.99,4.81-1.99s3.58.76,4.81,1.99c1.23,1.23,1.99,2.93,1.99,4.81h.5c0-4.03-3.27-7.3-7.3-7.3s-7.3,3.27-7.3,7.3,3.27,7.3,7.3,7.3,7.3-3.27,7.3-7.3h-.25Z"/>
  <circle class="st19" cx="203.17" cy="98.7" r="6.86"/>
  <path class="st26" d="M210.04,98.7h-.25c0,1.83-.74,3.48-1.94,4.68s-2.85,1.94-4.68,1.94-3.48-.74-4.68-1.94c-1.2-1.2-1.94-2.85-1.94-4.68s.74-3.48,1.94-4.68,2.85-1.94,4.68-1.94,3.48.74,4.68,1.94c1.2,1.2,1.94,2.85,1.94,4.68h.5c0-3.93-3.18-7.11-7.11-7.11s-7.11,3.18-7.11,7.11,3.18,7.11,7.11,7.11,7.11-3.18,7.11-7.11h-.25Z"/>
  <g class="st7">
    <path d="M206.3,95.1l-2.36.03h-1.72l-2.21-.03c.05.62.08,1.05.08,1.76h.34l.04-.86c.01-.26.13-.36.44-.36h1.69c.03.37.04.62.04,1.09v4.61c0,.86-.05.95-.56.98l-.52.03v.33c.53-.02,1.06-.03,1.59-.03s1.07.01,1.6.03v-.33l-.52-.03c-.5-.03-.56-.12-.56-.98v-4.61c0-.49.01-.73.04-1.09h1.69c.31,0,.43.1.44.36l.04.86h.34c0-.71.02-1.13.08-1.76h0Z"/>
  </g>
  <circle class="st13" cx="236.72" cy="79.88" r="7.05" transform="translate(12.85 190.78) rotate(-45)"/>
  <path class="st26" d="M243.77,79.88h-.25c0,1.88-.76,3.58-1.99,4.81-1.23,1.23-2.93,1.99-4.81,1.99s-3.58-.76-4.81-1.99c-1.23-1.23-1.99-2.93-1.99-4.81s.76-3.58,1.99-4.81c1.23-1.23,2.93-1.99,4.81-1.99s3.58.76,4.81,1.99c1.23,1.23,1.99,2.93,1.99,4.81h.5c0-4.03-3.27-7.3-7.3-7.3s-7.3,3.27-7.3,7.3,3.27,7.3,7.3,7.3,7.3-3.27,7.3-7.3h-.25Z"/>
  <circle class="st13" cx="237.17" cy="79.43" r="6.86"/>
  <path class="st26" d="M244.03,79.43h-.25c0,1.83-.74,3.48-1.94,4.68s-2.85,1.94-4.68,1.94-3.48-.74-4.68-1.94c-1.2-1.2-1.94-2.85-1.94-4.68s.74-3.48,1.94-4.68,2.85-1.94,4.68-1.94,3.48.74,4.68,1.94c1.2,1.2,1.94,2.85,1.94,4.68h.5c0-3.93-3.18-7.11-7.11-7.11s-7.11,3.18-7.11,7.11,3.18,7.11,7.11,7.11,7.11-3.18,7.11-7.11h-.25Z"/>
  <g class="st40">
    <path d="M241.47,83.31v-.33l-.52-.03c-.5-.03-.56-.12-.56-.98v-4.9c0-.86.05-.95.56-.98l.52-.03v-.33c-.53.02-1.07.03-1.6.03s-1.06-.01-1.59-.03v.33l.52.03c.5.03.56.12.56.98v1.94c-.23.01-.46.02-.91.02h-2.55c-.45,0-.69-.01-.91-.02v-1.94c0-.86.05-.95.56-.98l.52-.03v-.33c-.53.02-1.07.03-1.6.03s-1.06-.01-1.59-.03v.33l.52.03c.5.03.56.12.56.98v4.9c0,.86-.05.95-.56.98l-.52.03v.33c.53-.02,1.06-.03,1.59-.03s1.07.01,1.6.03v-.33l-.52-.03c-.5-.03-.56-.12-.56-.98v-2.43c.29-.02.47-.02.91-.02h2.55c.44,0,.61,0,.91.02v2.43c0,.86-.05.95-.56.98l-.52.03v.33c.53-.02,1.06-.03,1.59-.03s1.07.01,1.6.03Z"/>
  </g>
  <circle class="st19" cx="224.72" cy="99.15" r="7.05"/>
  <path class="st26" d="M231.77,99.15h-.25c0,1.88-.76,3.58-1.99,4.81-1.23,1.23-2.93,1.99-4.81,1.99s-3.58-.76-4.81-1.99c-1.23-1.23-1.99-2.93-1.99-4.81s.76-3.58,1.99-4.81c1.23-1.23,2.93-1.99,4.81-1.99s3.58.76,4.81,1.99c1.23,1.23,1.99,2.93,1.99,4.81h.5c0-4.03-3.27-7.3-7.3-7.3s-7.3,3.27-7.3,7.3,3.27,7.3,7.3,7.3,7.3-3.27,7.3-7.3h-.25Z"/>
  <circle class="st19" cx="225.17" cy="98.7" r="6.86"/>
  <path class="st26" d="M232.04,98.7h-.25c0,1.83-.74,3.48-1.94,4.68s-2.85,1.94-4.68,1.94-3.48-.74-4.68-1.94c-1.2-1.2-1.94-2.85-1.94-4.68s.74-3.48,1.94-4.68,2.85-1.94,4.68-1.94,3.48.74,4.68,1.94c1.2,1.2,1.94,2.85,1.94,4.68h.5c0-3.93-3.18-7.11-7.11-7.11s-7.11,3.18-7.11,7.11,3.18,7.11,7.11,7.11,7.11-3.18,7.11-7.11h-.25Z"/>
  <g class="st5">
    <path d="M228.3,95.1l-2.36.03h-1.72l-2.21-.03c.05.62.08,1.05.08,1.76h.34l.04-.86c.01-.26.13-.36.44-.36h1.69c.03.37.04.62.04,1.09v4.61c0,.86-.05.95-.56.98l-.52.03v.33c.53-.02,1.06-.03,1.59-.03s1.07.01,1.6.03v-.33l-.52-.03c-.5-.03-.56-.12-.56-.98v-4.61c0-.49.01-.73.04-1.09h1.69c.31,0,.43.1.44.36l.04.86h.34c0-.71.02-1.13.08-1.76h0Z"/>
  </g>
  <circle class="st19" cx="208.72" cy="78.15" r="7.05"/>
  <path class="st26" d="M215.77,78.15h-.25c0,1.88-.76,3.58-1.99,4.81-1.23,1.23-2.93,1.99-4.81,1.99s-3.58-.76-4.81-1.99c-1.23-1.23-1.99-2.93-1.99-4.81s.76-3.58,1.99-4.81c1.23-1.23,2.93-1.99,4.81-1.99s3.58.76,4.81,1.99c1.23,1.23,1.99,2.93,1.99,4.81h.5c0-4.03-3.27-7.3-7.3-7.3s-7.3,3.27-7.3,7.3,3.27,7.3,7.3,7.3,7.3-3.27,7.3-7.3h-.25Z"/>
  <circle class="st19" cx="209.17" cy="77.7" r="6.86"/>
  <path class="st26" d="M216.04,77.7h-.25c0,1.83-.74,3.48-1.94,4.68s-2.85,1.94-4.68,1.94-3.48-.74-4.68-1.94c-1.2-1.2-1.94-2.85-1.94-4.68s.74-3.48,1.94-4.68,2.85-1.94,4.68-1.94,3.48.74,4.68,1.94c1.2,1.2,1.94,2.85,1.94,4.68h.5c0-3.93-3.18-7.11-7.11-7.11s-7.11,3.18-7.11,7.11,3.18,7.11,7.11,7.11,7.11-3.18,7.11-7.11h-.25Z"/>
  <g class="st9">
    <path d="M212.3,74.1l-2.36.03h-1.72l-2.21-.03c.05.62.08,1.05.08,1.76h.34l.04-.86c.01-.26.13-.36.44-.36h1.69c.03.37.04.62.04,1.09v4.61c0,.86-.05.95-.56.98l-.52.03v.33c.53-.02,1.06-.03,1.59-.03s1.07.01,1.6.03v-.33l-.52-.03c-.5-.03-.56-.12-.56-.98v-4.61c0-.49.01-.73.04-1.09h1.69c.31,0,.43.1.44.36l.04.86h.34c0-.71.02-1.13.08-1.76h0Z"/>
  </g>
  <rect class="st34" x="173.11" y="124.62" width="76.65" height="46.33"/>
  <polygon class="st26" points="249.76 170.95 249.76 170.7 173.36 170.7 173.36 124.87 249.51 124.87 249.51 170.95 249.76 170.95 249.76 170.7 249.76 170.95 250.01 170.95 250.01 124.37 172.86 124.37 172.86 171.2 250.01 171.2 250.01 170.95 249.76 170.95"/>
  <circle class="st19" cx="185.72" cy="144.15" r="7.05"/>
  <path class="st26" d="M192.77,144.15h-.25c0,1.88-.76,3.58-1.99,4.81-1.23,1.23-2.93,1.99-4.81,1.99s-3.58-.76-4.81-1.99c-1.23-1.23-1.99-2.93-1.99-4.81s.76-3.58,1.99-4.81c1.23-1.23,2.93-1.99,4.81-1.99s3.58.76,4.81,1.99c1.23,1.23,1.99,2.93,1.99,4.81h.5c0-4.03-3.27-7.3-7.3-7.3s-7.3,3.27-7.3,7.3,3.27,7.3,7.3,7.3,7.3-3.27,7.3-7.3h-.25Z"/>
  <circle class="st19" cx="186.17" cy="143.7" r="6.86" transform="translate(14.5 304.45) rotate(-80.78)"/>
  <path class="st26" d="M193.04,143.7h-.25c0,1.83-.74,3.48-1.94,4.68s-2.85,1.94-4.68,1.94-3.48-.74-4.68-1.94-1.94-2.85-1.94-4.68.74-3.48,1.94-4.68,2.85-1.94,4.68-1.94,3.48.74,4.68,1.94c1.2,1.2,1.94,2.85,1.94,4.68h.5c0-3.93-3.18-7.11-7.11-7.11s-7.11,3.18-7.11,7.11,3.18,7.11,7.11,7.11,7.11-3.18,7.11-7.11h-.25Z"/>
  <g class="st36">
    <path d="M189.3,140.1l-2.36.03h-1.72l-2.21-.03c.05.62.08,1.05.08,1.76h.34l.04-.86c0-.26.13-.36.44-.36h1.69c.03.37.04.62.04,1.09v4.61c0,.86-.05.95-.56.98l-.52.03v.33c.53-.02,1.06-.03,1.59-.03s1.07,0,1.6.03v-.33l-.52-.03c-.5-.03-.56-.12-.56-.98v-4.61c0-.49.01-.73.04-1.09h1.69c.31,0,.43.1.44.36l.04.86h.34c0-.71.02-1.13.08-1.76Z"/>
  </g>
  <circle class="st19" cx="224.72" cy="158.15" r="7.05"/>
  <path class="st26" d="M231.77,158.15h-.25c0,1.88-.76,3.58-1.99,4.81-1.23,1.23-2.93,1.99-4.81,1.99s-3.58-.76-4.81-1.99c-1.23-1.23-1.99-2.93-1.99-4.81s.76-3.58,1.99-4.81c1.23-1.23,2.93-1.99,4.81-1.99s3.58.76,4.81,1.99c1.23,1.23,1.99,2.93,1.99,4.81h.5c0-4.03-3.27-7.3-7.3-7.3s-7.3,3.27-7.3,7.3,3.27,7.3,7.3,7.3,7.3-3.27,7.3-7.3h-.25Z"/>
  <circle class="st19" cx="225.17" cy="157.7" r="6.86"/>
  <path class="st26" d="M232.04,157.7h-.25c0,1.83-.74,3.48-1.94,4.68s-2.85,1.94-4.68,1.94-3.48-.74-4.68-1.94c-1.2-1.2-1.94-2.85-1.94-4.68s.74-3.48,1.94-4.68,2.85-1.94,4.68-1.94,3.48.74,4.68,1.94c1.2,1.2,1.94,2.85,1.94,4.68h.5c0-3.93-3.18-7.11-7.11-7.11s-7.11,3.18-7.11,7.11,3.18,7.11,7.11,7.11,7.11-3.18,7.11-7.11h-.25Z"/>
  <g class="st28">
    <path d="M228.3,154.1l-2.36.03h-1.72l-2.21-.03c.05.62.08,1.05.08,1.76h.34l.04-.86c.01-.26.13-.36.44-.36h1.69c.03.37.04.62.04,1.09v4.61c0,.86-.05.95-.56.98l-.52.03v.33c.53-.02,1.06-.03,1.59-.03s1.07,0,1.6.03v-.33l-.52-.03c-.5-.03-.56-.12-.56-.98v-4.61c0-.49.01-.73.04-1.09h1.69c.31,0,.43.1.44.36l.04.86h.34c0-.71.02-1.13.08-1.76h0Z"/>
  </g>
  <circle class="st19" cx="208.72" cy="137.15" r="7.05"/>
  <path class="st26" d="M215.77,137.15h-.25c0,1.88-.76,3.58-1.99,4.81-1.23,1.23-2.93,1.99-4.81,1.99s-3.58-.76-4.81-1.99c-1.23-1.23-1.99-2.93-1.99-4.81s.76-3.58,1.99-4.81c1.23-1.23,2.93-1.99,4.81-1.99s3.58.76,4.81,1.99c1.23,1.23,1.99,2.93,1.99,4.81h.5c0-4.03-3.27-7.3-7.3-7.3s-7.3,3.27-7.3,7.3,3.27,7.3,7.3,7.3,7.3-3.27,7.3-7.3h-.25Z"/>
  <circle class="st19" cx="209.17" cy="136.7" r="6.86"/>
  <path class="st26" d="M216.04,136.7h-.25c0,1.83-.74,3.48-1.94,4.68s-2.85,1.94-4.68,1.94-3.48-.74-4.68-1.94c-1.2-1.2-1.94-2.85-1.94-4.68s.74-3.48,1.94-4.68,2.85-1.94,4.68-1.94,3.48.74,4.68,1.94c1.2,1.2,1.94,2.85,1.94,4.68h.5c0-3.93-3.18-7.11-7.11-7.11s-7.11,3.18-7.11,7.11,3.18,7.11,7.11,7.11,7.11-3.18,7.11-7.11h-.25Z"/>
  <g class="st2">
    <path d="M212.3,133.1l-2.36.03h-1.72l-2.21-.03c.05.62.08,1.05.08,1.76h.34l.04-.86c.01-.26.13-.36.44-.36h1.69c.03.37.04.62.04,1.09v4.61c0,.86-.05.95-.56.98l-.52.03v.33c.53-.02,1.06-.03,1.59-.03s1.07,0,1.6.03v-.33l-.52-.03c-.5-.03-.56-.12-.56-.98v-4.61c0-.49.01-.73.04-1.09h1.69c.31,0,.43.1.44.36l.04.86h.34c0-.71.02-1.13.08-1.76h0Z"/>
  </g>
  <circle class="st13" cx="202.72" cy="157.88" r="7.05" transform="translate(-52.26 189.59) rotate(-45)"/>
  <path class="st26" d="M209.77,157.88h-.25c0,1.88-.76,3.58-1.99,4.81-1.23,1.23-2.93,1.99-4.81,1.99s-3.58-.76-4.81-1.99c-1.23-1.23-1.99-2.93-1.99-4.81s.76-3.58,1.99-4.81c1.23-1.23,2.93-1.99,4.81-1.99s3.58.76,4.81,1.99c1.23,1.23,1.99,2.93,1.99,4.81h.5c0-4.03-3.27-7.3-7.3-7.3s-7.3,3.27-7.3,7.3,3.27,7.3,7.3,7.3,7.3-3.27,7.3-7.3h-.25Z"/>
  <circle class="st13" cx="203.17" cy="157.43" r="6.86"/>
  <path class="st26" d="M210.03,157.43h-.25c0,1.83-.74,3.48-1.94,4.68s-2.85,1.94-4.68,1.94-3.48-.74-4.68-1.94c-1.2-1.2-1.94-2.85-1.94-4.68s.74-3.48,1.94-4.68,2.85-1.94,4.68-1.94,3.48.74,4.68,1.94c1.2,1.2,1.94,2.85,1.94,4.68h.5c0-3.93-3.18-7.11-7.11-7.11s-7.11,3.18-7.11,7.11,3.18,7.11,7.11,7.11,7.11-3.18,7.11-7.11h-.25Z"/>
  <g class="st11">
    <path d="M207.47,161.31v-.33l-.52-.03c-.5-.03-.56-.12-.56-.98v-4.9c0-.86.05-.95.56-.98l.52-.03v-.33c-.53.02-1.07.03-1.6.03s-1.06,0-1.59-.03v.33l.52.03c.5.03.56.12.56.98v1.94c-.23,0-.46.02-.91.02h-2.55c-.45,0-.69,0-.91-.02v-1.94c0-.86.05-.95.56-.98l.52-.03v-.33c-.53.02-1.07.03-1.6.03s-1.06,0-1.59-.03v.33l.52.03c.5.03.56.12.56.98v4.9c0,.86-.05.95-.56.98l-.52.03v.33c.53-.02,1.06-.03,1.59-.03s1.07,0,1.6.03v-.33l-.52-.03c-.5-.03-.56-.12-.56-.98v-2.43c.29-.02.47-.02.91-.02h2.55c.44,0,.61,0,.91.02v2.43c0,.86-.05.95-.56.98l-.52.03v.33c.53-.02,1.06-.03,1.59-.03s1.07,0,1.6.03Z"/>
  </g>
  <circle class="st19" cx="236.72" cy="139.15" r="7.05"/>
  <path class="st26" d="M243.77,139.15h-.25c0,1.88-.76,3.58-1.99,4.81-1.23,1.23-2.93,1.99-4.81,1.99s-3.58-.76-4.81-1.99c-1.23-1.23-1.99-2.93-1.99-4.81s.76-3.58,1.99-4.81c1.23-1.23,2.93-1.99,4.81-1.99s3.58.76,4.81,1.99c1.23,1.23,1.99,2.93,1.99,4.81h.5c0-4.03-3.27-7.3-7.3-7.3s-7.3,3.27-7.3,7.3,3.27,7.3,7.3,7.3,7.3-3.27,7.3-7.3h-.25Z"/>
  <circle class="st19" cx="237.17" cy="138.7" r="6.86"/>
  <path class="st26" d="M244.04,138.7h-.25c0,1.83-.74,3.48-1.94,4.68s-2.85,1.94-4.68,1.94-3.48-.74-4.68-1.94c-1.2-1.2-1.94-2.85-1.94-4.68s.74-3.48,1.94-4.68,2.85-1.94,4.68-1.94,3.48.74,4.68,1.94c1.2,1.2,1.94,2.85,1.94,4.68h.5c0-3.93-3.18-7.11-7.11-7.11s-7.11,3.18-7.11,7.11,3.18,7.11,7.11,7.11,7.11-3.18,7.11-7.11h-.25Z"/>
  <g class="st12">
    <path d="M240.3,135.1l-2.36.03h-1.72l-2.21-.03c.05.62.08,1.05.08,1.76h.34l.04-.86c.01-.26.13-.36.44-.36h1.69c.03.37.04.62.04,1.09v4.61c0,.86-.05.95-.56.98l-.52.03v.33c.53-.02,1.06-.03,1.59-.03s1.07,0,1.6.03v-.33l-.52-.03c-.5-.03-.56-.12-.56-.98v-4.61c0-.49.01-.73.04-1.09h1.69c.31,0,.43.1.44.36l.04.86h.34c0-.71.02-1.13.08-1.76h0Z"/>
  </g>
  <rect class="st34" x="84.11" y="65.62" width="76.65" height="46.33"/>
  <polygon class="st26" points="160.76 111.95 160.76 111.7 84.36 111.7 84.36 65.87 160.51 65.87 160.51 111.95 160.76 111.95 160.76 111.7 160.76 111.95 161.01 111.95 161.01 65.37 83.86 65.37 83.86 112.2 161.01 112.2 161.01 111.95 160.76 111.95"/>
  <circle class="st19" cx="96.72" cy="85.15" r="7.05"/>
  <path class="st26" d="M103.77,85.15h-.25c0,1.88-.76,3.58-1.99,4.81-1.23,1.23-2.93,1.99-4.81,1.99s-3.58-.76-4.81-1.99c-1.23-1.23-1.99-2.93-1.99-4.81s.76-3.58,1.99-4.81c1.23-1.23,2.93-1.99,4.81-1.99s3.58.76,4.81,1.99c1.23,1.23,1.99,2.93,1.99,4.81h.5c0-4.03-3.27-7.3-7.3-7.3s-7.3,3.27-7.3,7.3,3.27,7.3,7.3,7.3,7.3-3.27,7.3-7.3h-.25Z"/>
  <circle class="st19" cx="97.17" cy="84.7" r="6.86"/>
  <path class="st26" d="M104.04,84.7h-.25c0,1.83-.74,3.48-1.94,4.68s-2.85,1.94-4.68,1.94-3.48-.74-4.68-1.94c-1.2-1.2-1.94-2.85-1.94-4.68s.74-3.48,1.94-4.68,2.85-1.94,4.68-1.94,3.48.74,4.68,1.94c1.2,1.2,1.94,2.85,1.94,4.68h.5c0-3.93-3.18-7.11-7.11-7.11s-7.11,3.18-7.11,7.11,3.18,7.11,7.11,7.11,7.11-3.18,7.11-7.11h-.25Z"/>
  <g class="st45">
    <path d="M100.3,81.1l-2.36.03h-1.72l-2.21-.03c.05.62.08,1.05.08,1.76h.34l.04-.86c0-.26.13-.36.44-.36h1.69c.03.37.04.62.04,1.09v4.61c0,.86-.05.95-.56.98l-.52.03v.33c.53-.02,1.06-.03,1.59-.03s1.07.01,1.6.03v-.33l-.52-.03c-.5-.03-.56-.12-.56-.98v-4.61c0-.49,0-.73.04-1.09h1.69c.31,0,.43.1.44.36l.04.86h.34c0-.71.02-1.13.08-1.76h0Z"/>
  </g>
  <circle class="st13" cx="119.71" cy="77.88" r="7.05"/>
  <path class="st26" d="M126.77,77.88h-.25c0,1.88-.76,3.58-1.99,4.81-1.23,1.23-2.93,1.99-4.81,1.99s-3.58-.76-4.81-1.99c-1.23-1.23-1.99-2.93-1.99-4.81s.76-3.58,1.99-4.81c1.23-1.23,2.93-1.99,4.81-1.99s3.58.76,4.81,1.99c1.23,1.23,1.99,2.93,1.99,4.81h.5c0-4.03-3.27-7.3-7.3-7.3s-7.3,3.27-7.3,7.3,3.27,7.3,7.3,7.3,7.3-3.27,7.3-7.3h-.25Z"/>
  <circle class="st13" cx="120.17" cy="77.43" r="6.86"/>
  <path class="st26" d="M127.03,77.43h-.25c0,1.83-.74,3.48-1.94,4.68s-2.85,1.94-4.68,1.94-3.48-.74-4.68-1.94c-1.2-1.2-1.94-2.85-1.94-4.68s.74-3.48,1.94-4.68,2.85-1.94,4.68-1.94,3.48.74,4.68,1.94c1.2,1.2,1.94,2.85,1.94,4.68h.5c0-3.93-3.18-7.11-7.11-7.11s-7.11,3.18-7.11,7.11,3.18,7.11,7.11,7.11,7.11-3.18,7.11-7.11h-.25Z"/>
  <g class="st17">
    <path d="M124.47,81.31v-.33l-.52-.03c-.5-.03-.56-.12-.56-.98v-4.9c0-.86.05-.95.56-.98l.52-.03v-.33c-.53.02-1.07.03-1.6.03s-1.06-.01-1.59-.03v.33l.52.03c.5.03.56.12.56.98v1.94c-.23.01-.46.02-.91.02h-2.55c-.45,0-.69-.01-.91-.02v-1.94c0-.86.05-.95.56-.98l.52-.03v-.33c-.53.02-1.07.03-1.6.03s-1.06-.01-1.59-.03v.33l.52.03c.5.03.56.12.56.98v4.9c0,.86-.05.95-.56.98l-.52.03v.33c.53-.02,1.06-.03,1.59-.03s1.07.01,1.6.03v-.33l-.52-.03c-.5-.03-.56-.12-.56-.98v-2.43c.29-.02.47-.02.91-.02h2.55c.44,0,.61,0,.91.02v2.43c0,.86-.05.95-.56.98l-.52.03v.33c.53-.02,1.06-.03,1.59-.03s1.07.01,1.6.03Z"/>
  </g>
  <circle class="st19" cx="113.72" cy="99.15" r="7.05"/>
  <path class="st26" d="M120.77,99.15h-.25c0,1.88-.76,3.58-1.99,4.81-1.23,1.23-2.93,1.99-4.81,1.99s-3.58-.76-4.81-1.99c-1.23-1.23-1.99-2.93-1.99-4.81s.76-3.58,1.99-4.81c1.23-1.23,2.93-1.99,4.81-1.99s3.58.76,4.81,1.99c1.23,1.23,1.99,2.93,1.99,4.81h.5c0-4.03-3.27-7.3-7.3-7.3s-7.3,3.27-7.3,7.3,3.27,7.3,7.3,7.3,7.3-3.27,7.3-7.3h-.25Z"/>
  <circle class="st19" cx="114.17" cy="98.7" r="6.86"/>
  <path class="st26" d="M121.04,98.7h-.25c0,1.83-.74,3.48-1.94,4.68s-2.85,1.94-4.68,1.94-3.48-.74-4.68-1.94c-1.2-1.2-1.94-2.85-1.94-4.68s.74-3.48,1.94-4.68,2.85-1.94,4.68-1.94,3.48.74,4.68,1.94c1.2,1.2,1.94,2.85,1.94,4.68h.5c0-3.93-3.18-7.11-7.11-7.11s-7.11,3.18-7.11,7.11,3.18,7.11,7.11,7.11,7.11-3.18,7.11-7.11h-.25Z"/>
  <g class="st31">
    <path d="M117.3,95.1l-2.36.03h-1.72l-2.21-.03c.05.62.08,1.05.08,1.76h.34l.04-.86c0-.26.13-.36.44-.36h1.69c.03.37.04.62.04,1.09v4.61c0,.86-.05.95-.56.98l-.52.03v.33c.53-.02,1.06-.03,1.59-.03s1.07.01,1.6.03v-.33l-.52-.03c-.5-.03-.56-.12-.56-.98v-4.61c0-.49,0-.73.04-1.09h1.69c.31,0,.43.1.44.36l.04.86h.34c0-.71.02-1.13.08-1.76h0Z"/>
  </g>
  <circle class="st19" cx="135.72" cy="99.15" r="7.05"/>
  <path class="st26" d="M142.77,99.15h-.25c0,1.88-.76,3.58-1.99,4.81-1.23,1.23-2.93,1.99-4.81,1.99s-3.58-.76-4.81-1.99c-1.23-1.23-1.99-2.93-1.99-4.81s.76-3.58,1.99-4.81c1.23-1.23,2.93-1.99,4.81-1.99s3.58.76,4.81,1.99c1.23,1.23,1.99,2.93,1.99,4.81h.5c0-4.03-3.27-7.3-7.3-7.3s-7.3,3.27-7.3,7.3,3.27,7.3,7.3,7.3,7.3-3.27,7.3-7.3h-.25Z"/>
  <circle class="st19" cx="136.17" cy="98.7" r="6.86"/>
  <path class="st26" d="M143.04,98.7h-.25c0,1.83-.74,3.48-1.94,4.68s-2.85,1.94-4.68,1.94-3.48-.74-4.68-1.94c-1.2-1.2-1.94-2.85-1.94-4.68s.74-3.48,1.94-4.68,2.85-1.94,4.68-1.94,3.48.74,4.68,1.94c1.2,1.2,1.94,2.85,1.94,4.68h.5c0-3.93-3.18-7.11-7.11-7.11s-7.11,3.18-7.11,7.11,3.18,7.11,7.11,7.11,7.11-3.18,7.11-7.11h-.25Z"/>
  <g class="st18">
    <path d="M139.3,95.1l-2.36.03h-1.72l-2.21-.03c.05.62.08,1.05.08,1.76h.34l.04-.86c0-.26.13-.36.44-.36h1.69c.03.37.04.62.04,1.09v4.61c0,.86-.05.95-.56.98l-.52.03v.33c.53-.02,1.06-.03,1.59-.03s1.07.01,1.6.03v-.33l-.52-.03c-.5-.03-.56-.12-.56-.98v-4.61c0-.49,0-.73.04-1.09h1.69c.31,0,.43.1.44.36l.04.86h.34c0-.71.02-1.13.08-1.76h0Z"/>
  </g>
  <circle class="st19" cx="147.72" cy="80.15" r="7.05"/>
  <path class="st26" d="M154.77,80.15h-.25c0,1.88-.76,3.58-1.99,4.81-1.23,1.23-2.93,1.99-4.81,1.99s-3.58-.76-4.81-1.99c-1.23-1.23-1.99-2.93-1.99-4.81s.76-3.58,1.99-4.81c1.23-1.23,2.93-1.99,4.81-1.99s3.58.76,4.81,1.99c1.23,1.23,1.99,2.93,1.99,4.81h.5c0-4.03-3.27-7.3-7.3-7.3s-7.3,3.27-7.3,7.3,3.27,7.3,7.3,7.3,7.3-3.27,7.3-7.3h-.25Z"/>
  <circle class="st19" cx="148.17" cy="79.7" r="6.86"/>
  <path class="st26" d="M155.04,79.7h-.25c0,1.83-.74,3.48-1.94,4.68s-2.85,1.94-4.68,1.94-3.48-.74-4.68-1.94c-1.2-1.2-1.94-2.85-1.94-4.68s.74-3.48,1.94-4.68,2.85-1.94,4.68-1.94,3.48.74,4.68,1.94c1.2,1.2,1.94,2.85,1.94,4.68h.5c0-3.93-3.18-7.11-7.11-7.11s-7.11,3.18-7.11,7.11,3.18,7.11,7.11,7.11,7.11-3.18,7.11-7.11h-.25Z"/>
  <g class="st24">
    <path d="M151.3,76.1l-2.36.03h-1.72l-2.21-.03c.05.62.08,1.05.08,1.76h.34l.04-.86c0-.26.13-.36.44-.36h1.69c.03.37.04.62.04,1.09v4.61c0,.86-.05.95-.56.98l-.52.03v.33c.53-.02,1.06-.03,1.59-.03s1.07.01,1.6.03v-.33l-.52-.03c-.5-.03-.56-.12-.56-.98v-4.61c0-.49,0-.73.04-1.09h1.69c.31,0,.43.1.44.36l.04.86h.34c0-.71.02-1.13.08-1.76h0Z"/>
  </g>
  <rect class="st34" x="84.11" y="124.62" width="76.65" height="46.33"/>
  <polygon class="st26" points="160.76 170.95 160.76 170.7 84.36 170.7 84.36 124.87 160.51 124.87 160.51 170.95 160.76 170.95 160.76 170.7 160.76 170.95 161.01 170.95 161.01 124.37 83.86 124.37 83.86 171.2 161.01 171.2 161.01 170.95 160.76 170.95"/>
  <circle class="st19" cx="96.72" cy="144.15" r="7.05"/>
  <path class="st26" d="M103.77,144.15h-.25c0,1.88-.76,3.58-1.99,4.81-1.23,1.23-2.93,1.99-4.81,1.99s-3.58-.76-4.81-1.99c-1.23-1.23-1.99-2.93-1.99-4.81s.76-3.58,1.99-4.81c1.23-1.23,2.93-1.99,4.81-1.99s3.58.76,4.81,1.99c1.23,1.23,1.99,2.93,1.99,4.81h.5c0-4.03-3.27-7.3-7.3-7.3s-7.3,3.27-7.3,7.3,3.27,7.3,7.3,7.3,7.3-3.27,7.3-7.3h-.25Z"/>
  <circle class="st19" cx="97.17" cy="143.7" r="6.86"/>
  <path class="st26" d="M104.04,143.7h-.25c0,1.83-.74,3.48-1.94,4.68s-2.85,1.94-4.68,1.94-3.48-.74-4.68-1.94-1.94-2.85-1.94-4.68.74-3.48,1.94-4.68,2.85-1.94,4.68-1.94,3.48.74,4.68,1.94,1.94,2.85,1.94,4.68h.5c0-3.93-3.18-7.11-7.11-7.11s-7.11,3.18-7.11,7.11,3.18,7.11,7.11,7.11,7.11-3.18,7.11-7.11h-.25Z"/>
  <g class="st42">
    <path d="M100.3,140.1l-2.36.03h-1.72l-2.21-.03c.05.62.08,1.05.08,1.76h.34l.04-.86c0-.26.13-.36.44-.36h1.69c.03.37.04.62.04,1.09v4.61c0,.86-.05.95-.56.98l-.52.03v.33c.53-.02,1.06-.03,1.59-.03s1.07,0,1.6.03v-.33l-.52-.03c-.5-.03-.56-.12-.56-.98v-4.61c0-.49,0-.73.04-1.09h1.69c.31,0,.43.1.44.36l.04.86h.34c0-.71.02-1.13.08-1.76h0Z"/>
  </g>
  <circle class="st19" cx="113.72" cy="158.15" r="7.05"/>
  <path class="st26" d="M120.77,158.15h-.25c0,1.88-.76,3.58-1.99,4.81-1.23,1.23-2.93,1.99-4.81,1.99s-3.58-.76-4.81-1.99c-1.23-1.23-1.99-2.93-1.99-4.81s.76-3.58,1.99-4.81c1.23-1.23,2.93-1.99,4.81-1.99s3.58.76,4.81,1.99c1.23,1.23,1.99,2.93,1.99,4.81h.5c0-4.03-3.27-7.3-7.3-7.3s-7.3,3.27-7.3,7.3,3.27,7.3,7.3,7.3,7.3-3.27,7.3-7.3h-.25Z"/>
  <circle class="st19" cx="114.17" cy="157.7" r="6.86"/>
  <path class="st26" d="M121.04,157.7h-.25c0,1.83-.74,3.48-1.94,4.68s-2.85,1.94-4.68,1.94-3.48-.74-4.68-1.94-1.94-2.85-1.94-4.68.74-3.48,1.94-4.68,2.85-1.94,4.68-1.94,3.48.74,4.68,1.94,1.94,2.85,1.94,4.68h.5c0-3.93-3.18-7.11-7.11-7.11s-7.11,3.18-7.11,7.11,3.18,7.11,7.11,7.11,7.11-3.18,7.11-7.11h-.25Z"/>
  <g class="st35">
    <path d="M117.3,154.1l-2.36.03h-1.72l-2.21-.03c.05.62.08,1.05.08,1.76h.34l.04-.86c0-.26.13-.36.44-.36h1.69c.03.37.04.62.04,1.09v4.61c0,.86-.05.95-.56.98l-.52.03v.33c.53-.02,1.06-.03,1.59-.03s1.07,0,1.6.03v-.33l-.52-.03c-.5-.03-.56-.12-.56-.98v-4.61c0-.49,0-.73.04-1.09h1.69c.31,0,.43.1.44.36l.04.86h.34c0-.71.02-1.13.08-1.76h0Z"/>
  </g>
  <circle class="st19" cx="119.72" cy="137.15" r="7.05"/>
  <path class="st26" d="M126.77,137.15h-.25c0,1.88-.76,3.58-1.99,4.81-1.23,1.23-2.93,1.99-4.81,1.99s-3.58-.76-4.81-1.99c-1.23-1.23-1.99-2.93-1.99-4.81s.76-3.58,1.99-4.81c1.23-1.23,2.93-1.99,4.81-1.99s3.58.76,4.81,1.99c1.23,1.23,1.99,2.93,1.99,4.81h.5c0-4.03-3.27-7.3-7.3-7.3s-7.3,3.27-7.3,7.3,3.27,7.3,7.3,7.3,7.3-3.27,7.3-7.3h-.25Z"/>
  <circle class="st19" cx="120.17" cy="136.7" r="6.86"/>
  <path class="st26" d="M127.04,136.7h-.25c0,1.83-.74,3.48-1.94,4.68s-2.85,1.94-4.68,1.94-3.48-.74-4.68-1.94-1.94-2.85-1.94-4.68.74-3.48,1.94-4.68,2.85-1.94,4.68-1.94,3.48.74,4.68,1.94,1.94,2.85,1.94,4.68h.5c0-3.93-3.18-7.11-7.11-7.11s-7.11,3.18-7.11,7.11,3.18,7.11,7.11,7.11,7.11-3.18,7.11-7.11h-.25Z"/>
  <g class="st6">
    <path d="M123.3,133.1l-2.36.03h-1.72l-2.21-.03c.05.62.08,1.05.08,1.76h.34l.04-.86c0-.26.13-.36.44-.36h1.69c.03.37.04.62.04,1.09v4.61c0,.86-.05.95-.56.98l-.52.03v.33c.53-.02,1.06-.03,1.59-.03s1.07,0,1.6.03v-.33l-.52-.03c-.5-.03-.56-.12-.56-.98v-4.61c0-.49,0-.73.04-1.09h1.69c.31,0,.43.1.44.36l.04.86h.34c0-.71.02-1.13.08-1.76h0Z"/>
  </g>
  <circle class="st19" cx="147.72" cy="139.15" r="7.05"/>
  <path class="st26" d="M154.77,139.15h-.25c0,1.88-.76,3.58-1.99,4.81-1.23,1.23-2.93,1.99-4.81,1.99s-3.58-.76-4.81-1.99c-1.23-1.23-1.99-2.93-1.99-4.81s.76-3.58,1.99-4.81c1.23-1.23,2.93-1.99,4.81-1.99s3.58.76,4.81,1.99c1.23,1.23,1.99,2.93,1.99,4.81h.5c0-4.03-3.27-7.3-7.3-7.3s-7.3,3.27-7.3,7.3,3.27,7.3,7.3,7.3,7.3-3.27,7.3-7.3h-.25Z"/>
  <circle class="st19" cx="148.17" cy="138.7" r="6.86"/>
  <path class="st26" d="M155.04,138.7h-.25c0,1.83-.74,3.48-1.94,4.68s-2.85,1.94-4.68,1.94-3.48-.74-4.68-1.94-1.94-2.85-1.94-4.68.74-3.48,1.94-4.68,2.85-1.94,4.68-1.94,3.48.74,4.68,1.94,1.94,2.85,1.94,4.68h.5c0-3.93-3.18-7.11-7.11-7.11s-7.11,3.18-7.11,7.11,3.18,7.11,7.11,7.11,7.11-3.18,7.11-7.11h-.25Z"/>
  <g class="st38">
    <path d="M151.3,135.1l-2.36.03h-1.72l-2.21-.03c.05.62.08,1.05.08,1.76h.34l.04-.86c0-.26.13-.36.44-.36h1.69c.03.37.04.62.04,1.09v4.61c0,.86-.05.95-.56.98l-.52.03v.33c.53-.02,1.06-.03,1.59-.03s1.07,0,1.6.03v-.33l-.52-.03c-.5-.03-.56-.12-.56-.98v-4.61c0-.49,0-.73.04-1.09h1.69c.31,0,.43.1.44.36l.04.86h.34c0-.71.02-1.13.08-1.76h0Z"/>
  </g>
  <circle class="st13" cx="135.72" cy="157.88" r="7.05"/>
  <path class="st26" d="M142.77,157.88h-.25c0,1.88-.76,3.58-1.99,4.81-1.23,1.23-2.93,1.99-4.81,1.99s-3.58-.76-4.81-1.99c-1.23-1.23-1.99-2.93-1.99-4.81s.76-3.58,1.99-4.81c1.23-1.23,2.93-1.99,4.81-1.99s3.58.76,4.81,1.99c1.23,1.23,1.99,2.93,1.99,4.81h.5c0-4.03-3.27-7.3-7.3-7.3s-7.3,3.27-7.3,7.3,3.27,7.3,7.3,7.3,7.3-3.27,7.3-7.3h-.25Z"/>
  <circle class="st13" cx="136.17" cy="157.43" r="6.86"/>
  <path class="st26" d="M143.03,157.43h-.25c0,1.83-.74,3.48-1.94,4.68s-2.85,1.94-4.68,1.94-3.48-.74-4.68-1.94-1.94-2.85-1.94-4.68.74-3.48,1.94-4.68,2.85-1.94,4.68-1.94,3.48.74,4.68,1.94,1.94,2.85,1.94,4.68h.5c0-3.93-3.18-7.11-7.11-7.11s-7.11,3.18-7.11,7.11,3.18,7.11,7.11,7.11,7.11-3.18,7.11-7.11h-.25Z"/>
  <g class="st8">
    <path d="M140.47,161.31v-.33l-.52-.03c-.5-.03-.56-.12-.56-.98v-4.9c0-.86.05-.95.56-.98l.52-.03v-.33c-.53.02-1.07.03-1.6.03s-1.06,0-1.59-.03v.33l.52.03c.5.03.56.12.56.98v1.94c-.23,0-.46.02-.91.02h-2.55c-.45,0-.69,0-.91-.02v-1.94c0-.86.05-.95.56-.98l.52-.03v-.33c-.53.02-1.07.03-1.6.03s-1.06,0-1.59-.03v.33l.52.03c.5.03.56.12.56.98v4.9c0,.86-.05.95-.56.98l-.52.03v.33c.53-.02,1.06-.03,1.59-.03s1.07,0,1.6.03v-.33l-.52-.03c-.5-.03-.56-.12-.56-.98v-2.43c.29-.02.47-.02.91-.02h2.55c.44,0,.61,0,.91.02v2.43c0,.86-.05.95-.56.98l-.52.03v.33c.53-.02,1.06-.03,1.59-.03s1.07,0,1.6.03Z"/>
  </g>
  <path class="st37" d="M158.96,57.87v-1h-73.85c-1.38,0-2.62-.56-3.52-1.46-.9-.9-1.46-2.14-1.46-3.52V8.37c0-1.38.56-2.62,1.46-3.52.9-.9,2.14-1.46,3.52-1.46h73.85c1.38,0,2.62.56,3.52,1.46.9.9,1.46,2.14,1.46,3.52v43.52c0,1.38-.56,2.62-1.46,3.52-.9.9-2.14,1.46-3.52,1.46v2c3.86,0,6.98-3.12,6.98-6.98V8.37c0-3.86-3.12-6.98-6.98-6.98h-73.85c-3.86,0-6.98,3.12-6.98,6.98v43.52c0,3.86,3.12,6.98,6.98,6.98h73.85v-1h0Z"/>
  <g class="st0">
    <g>
      <path d="M30.15,49.73l.04-.39c.05-.46.14-.92.23-1.36h-.29l-.17.65c-.1.38-.2.51-.43.57-.21.05-.98.11-1.64.11-.45,0-.74,0-1.43-.08,0-.13,0-.25.02-.38l.47-2.76h1.28c1.37,0,1.1.03,1.44.04l.21-.49-.04-.08-2.39.07h-.4l.46-2.6c.03-.17.05-.26.1-.35.61-.02.34-.02,1.42-.04.71,0,1.16.1,1.17.26l.09.97h.26c.03-.7.11-1.24.23-1.66-.24-.02-.5-.03-.75-.03-.85,0-1.71.03-2.57.03-.59,0-1.17,0-1.75-.03l-.03.31.59.02c.26,0,.38.1.38.28,0,.16-.03.49-.1.84l-.95,5.5c-.03.2-.17.27-.65.35l-.05.28c.56-.02,1.12-.03,1.68-.03.82,0,1.64.03,2.45.03.94,0,.72-.02,1.15-.03h-.03Z"/>
      <path d="M35.27,48.27h5.88v-.64h-5.88v.64ZM35.27,45.95h5.88v-.65h-5.88v.65Z"/>
      <path d="M49.05,46.28c0,2.32-.41,3.28-1.42,3.28-1.06,0-1.51-1.1-1.51-3.76,0-2.3.4-3.21,1.44-3.21s1.48,1.07,1.48,3.69h0ZM49.96,45.73c0-2.39-.71-3.52-2.2-3.52-1.69,0-2.55,1.34-2.55,3.98,0,1.28.23,2.38.61,2.91s.99.84,1.67.84c1.65,0,2.48-1.42,2.48-4.21h-.01Z"/>
    </g>
  </g>
  <g class="st23">
    <g>
      <path d="M24.84,60.42l-.04-.03h-.15l-.04.03c-.14.58-.14.76-.8.76h-1.41v-.08c1.46-.61,2.27-1.87,2.27-3.45,0-2.36-1.71-3.34-3.88-3.34s-4.01.91-4.01,3.34c0,1.57.8,2.84,2.26,3.45v.08h-1.41c-.65,0-.65-.2-.8-.76l-.03-.03h-.16l-.04.03c.08.55.14,1.1.2,1.65,1.12-.04,2.26-.03,3.38-.07v-.74c-1.76-.23-2.25-1.82-2.25-3.37,0-1.91.8-3.27,2.87-3.27s2.73,1.45,2.73,3.31c0,1.54-.51,3.11-2.25,3.34v.74c1.12.02,2.27.02,3.39.07.03-.55.11-1.1.19-1.65h-.02Z"/>
      <path d="M28.53,53.76c-1.66,1.08-2.66,2.95-2.66,5.29,0,2.14,1.04,4.18,2.63,5.27l.14-.19c-1.52-1.31-1.78-2.59-1.78-5.13s.29-3.86,1.78-5.06l-.11-.19h0Z"/>
      <path d="M34.65,62l.04-.39c.05-.46.14-.92.23-1.36h-.29l-.17.65c-.1.38-.2.51-.43.57-.21.05-.98.11-1.64.11-.45,0-.74,0-1.43-.08,0-.13,0-.25.02-.38l.47-2.76h1.28c1.37,0,1.1.03,1.44.04l.21-.49-.04-.08-2.39.07h-.4l.46-2.6c.03-.17.05-.26.1-.35.61-.02.34-.02,1.42-.04.71,0,1.16.1,1.17.26l.09.97h.26c.03-.7.11-1.24.23-1.66-.24-.02-.5-.03-.75-.03-.85,0-1.71.03-2.57.03-.59,0-1.17,0-1.75-.03l-.03.31.59.02c.26,0,.38.1.38.28,0,.16-.03.49-.1.84l-.95,5.5c-.03.2-.17.27-.65.35l-.05.28c.56-.02,1.12-.03,1.68-.03.82,0,1.64.03,2.45.03.94,0,.72-.02,1.15-.03h-.03Z"/>
      <path d="M36.49,53.76l-.11.19c1.48,1.2,1.78,2.52,1.78,5.06s-.26,3.82-1.78,5.13l.14.19c1.59-1.09,2.63-3.13,2.63-5.27,0-2.35-1-4.21-2.66-5.29h0Z"/>
      <path d="M43.55,60.54h5.88v-.64h-5.88v.64ZM43.55,58.22h5.88v-.65h-5.88v.65Z"/>
      <path d="M57.72,62.03v-.33l-.57-.03c-.6-.03-.71-.15-.71-.72v-6.47l-.15-.05c-.71.37-1.48.7-2.48,1.05l.08.47h.11c.48-.22.96-.44,1.44-.64.07,0,.09.1.09.36v5.29c0,.57-.12.69-.71.72l-.61.03v.33c.6-.02,1.2-.03,1.8-.03s1.15,0,1.71.03h0Z"/>
    </g>
  </g>
  <g class="st22">
    <g>
      <path d="M22.86,72.45c0-.86-.47-1.32-1.57-1.56l-.71-.15c-.72-.15-1.05-.56-1.05-1.28,0-.95.73-1.64,1.73-1.64.53,0,.89.14,1.22.49v.83h.33c.04-.59.12-1,.27-1.47-.5-.26-.92-.37-1.44-.37-.81,0-1.63.34-2.21.92-.46.46-.69,1-.69,1.65,0,.93.41,1.44,1.33,1.66l1.04.25c.6.14.88.51.88,1.15,0,1.05-.77,1.76-1.9,1.76-.59,0-1-.13-1.48-.47v-1.08h-.33c-.07.6-.14,1.09-.26,1.66.55.27,1.11.41,1.69.41,1.69,0,3.14-1.27,3.14-2.75h.01Z"/>
      <path d="M27.28,66.76c-1.66,1.08-2.66,2.95-2.66,5.29,0,2.14,1.04,4.18,2.63,5.27l.14-.19c-1.52-1.31-1.78-2.59-1.78-5.13s.29-3.86,1.78-5.06l-.11-.19h0Z"/>
      <path d="M33.4,75l.04-.39c.05-.46.14-.92.23-1.36h-.29l-.17.65c-.1.38-.2.51-.43.57-.21.05-.98.11-1.64.11-.45,0-.74-.01-1.43-.08,0-.13,0-.25.02-.38l.47-2.76h1.28c1.37,0,1.1.03,1.44.04l.21-.49-.04-.08-2.39.07h-.4l.46-2.6c.03-.17.05-.26.1-.35.61-.02.34-.02,1.42-.04.71,0,1.16.1,1.17.26l.09.97h.26c.03-.7.11-1.24.23-1.66-.24-.02-.5-.03-.75-.03-.85,0-1.71.03-2.57.03-.59,0-1.17-.01-1.75-.03l-.03.31.59.02c.26.01.38.1.38.28,0,.16-.03.49-.1.84l-.95,5.5c-.03.2-.17.27-.65.35l-.05.28c.56-.02,1.12-.03,1.68-.03.82,0,1.64.03,2.45.03.94,0,.72-.02,1.15-.03h-.03Z"/>
      <path d="M35.24,66.76l-.11.19c1.48,1.2,1.78,2.52,1.78,5.06s-.26,3.82-1.78,5.13l.14.19c1.59-1.09,2.63-3.13,2.63-5.27,0-2.35-1-4.21-2.66-5.29h0Z"/>
      <path d="M42.3,73.54h5.88v-.64h-5.88v.64ZM42.3,71.22h5.88v-.65h-5.88v.65Z"/>
      <path d="M56.07,71.55c0,2.32-.41,3.28-1.42,3.28-1.06,0-1.51-1.1-1.51-3.76,0-2.3.4-3.21,1.44-3.21s1.48,1.07,1.48,3.69h0ZM56.99,71.01c0-2.39-.71-3.52-2.2-3.52-1.69,0-2.55,1.34-2.55,3.98,0,1.28.23,2.38.61,2.91.38.53.99.84,1.67.84,1.65,0,2.48-1.42,2.48-4.21h-.01Z"/>
    </g>
  </g>
  <line class="st21" x1="333.09" y1="85.6" x2="260.02" y2="85.6"/>
  <polyline class="st34" points="333.09 84.6 269.07 84.6 269.07 86.6 333.09 86.6"/>
  <path class="st34" d="M260.02,85.6c4.26-1.58,9.54-4.28,12.82-7.13l-2.58,7.13,2.58,7.13c-3.28-2.86-8.56-5.55-12.82-7.13Z"/>
  <g class="st43">
    <g>
      <path d="M292.15,48.78l.04-.39c.05-.46.14-.92.23-1.36h-.29l-.17.65c-.1.38-.2.51-.43.57-.21.05-.98.11-1.64.11-.45,0-.74,0-1.43-.08,0-.13,0-.25.02-.38l.47-2.76h1.28c1.37,0,1.1.03,1.44.04l.21-.49-.04-.08-2.39.07h-.4l.46-2.6c.03-.17.05-.26.1-.35.61-.02.34-.02,1.42-.04.71,0,1.16.1,1.17.26l.09.97h.26c.03-.7.11-1.24.23-1.66-.24-.02-.5-.03-.75-.03-.85,0-1.71.03-2.57.03-.59,0-1.17,0-1.75-.03l-.03.31.59.02c.26,0,.38.1.38.28,0,.16-.03.49-.1.84l-.95,5.5c-.03.2-.17.27-.65.35l-.05.28c.56-.02,1.12-.03,1.68-.03.82,0,1.64.03,2.45.03.94,0,.72-.02,1.15-.03h-.03Z"/>
      <path d="M297.27,47.32h5.88v-.64h-5.88v.64ZM297.27,45.01h5.88v-.65h-5.88v.65Z"/>
      <path d="M311.45,48.81v-.33l-.57-.03c-.6-.03-.71-.15-.71-.72v-6.47l-.15-.05c-.71.37-1.48.7-2.48,1.05l.08.47h.11c.48-.22.96-.44,1.44-.64.07,0,.09.1.09.36v5.29c0,.57-.12.69-.71.72l-.61.03v.33c.6-.02,1.2-.03,1.8-.03s1.15,0,1.71.03h0Z"/>
    </g>
  </g>
  <g class="st1">
    <g>
      <path d="M286.84,59.42l-.04-.03h-.15l-.04.03c-.14.58-.14.76-.8.76h-1.41v-.08c1.46-.61,2.27-1.87,2.27-3.45,0-2.36-1.71-3.34-3.88-3.34s-4.01.91-4.01,3.34c0,1.57.8,2.84,2.26,3.45v.08h-1.41c-.65,0-.65-.2-.8-.76l-.03-.03h-.16l-.04.03c.08.55.14,1.1.2,1.65,1.12-.04,2.26-.03,3.38-.07v-.74c-1.76-.23-2.25-1.82-2.25-3.37,0-1.91.8-3.27,2.87-3.27s2.73,1.45,2.73,3.31c0,1.54-.51,3.11-2.25,3.34v.74c1.12.02,2.27.02,3.39.07.03-.55.11-1.1.19-1.65h-.02Z"/>
      <path d="M290.53,52.76c-1.66,1.08-2.66,2.95-2.66,5.29,0,2.14,1.04,4.18,2.63,5.27l.14-.19c-1.52-1.31-1.78-2.59-1.78-5.13s.29-3.86,1.78-5.06l-.11-.19h0Z"/>
      <path d="M296.65,61l.04-.39c.05-.46.14-.92.23-1.36h-.29l-.17.65c-.1.38-.2.51-.43.57-.21.05-.98.11-1.64.11-.45,0-.74,0-1.43-.08,0-.13,0-.25.02-.38l.47-2.76h1.28c1.37,0,1.1.03,1.44.04l.21-.49-.04-.08-2.39.07h-.4l.46-2.6c.03-.17.05-.26.1-.35.61-.02.34-.02,1.42-.04.71,0,1.16.1,1.17.26l.09.97h.26c.03-.7.11-1.24.23-1.66-.24-.02-.5-.03-.75-.03-.85,0-1.71.03-2.57.03-.59,0-1.17,0-1.75-.03l-.03.31.59.02c.26,0,.38.1.38.28,0,.16-.03.49-.1.84l-.95,5.5c-.03.2-.17.27-.65.35l-.05.28c.56-.02,1.12-.03,1.68-.03.82,0,1.64.03,2.45.03.94,0,.72-.02,1.15-.03h-.03Z"/>
      <path d="M298.49,52.76l-.11.19c1.48,1.2,1.78,2.52,1.78,5.06s-.26,3.82-1.78,5.13l.14.19c1.59-1.09,2.63-3.13,2.63-5.27,0-2.35-1-4.21-2.66-5.29h0Z"/>
      <path d="M305.55,59.54h5.88v-.64h-5.88v.64ZM305.55,57.22h5.88v-.65h-5.88v.65Z"/>
      <path d="M320.17,58.24c0-1.23-.88-2.11-2.13-2.11-.52,0-.92.14-1.59.55l.1-2.28,3.33.05.05-.05c-.02-.2-.02-.26-.02-.43s0-.24.02-.44l-.05-.05s-1.16.05-1.9.05-1.9-.05-1.9-.05l-.05.05.02,1.49c0,.96-.03,1.97-.07,2.45l.22.07c.51-.51.81-.67,1.34-.67,1.05,0,1.7.74,1.7,1.92s-.7,1.92-1.89,1.92c-.59,0-1.13-.2-1.29-.48l-.5-.89-.26.15c.25.62.38.97.53,1.45.31.16.74.26,1.21.26.73,0,1.51-.32,2.11-.84.67-.59,1.01-1.33,1.01-2.14v.02Z"/>
    </g>
  </g>
  <g class="st39">
    <g>
      <path d="M276.35,71.06c0-.86-.47-1.32-1.57-1.56l-.71-.15c-.72-.15-1.05-.56-1.05-1.28,0-.95.73-1.64,1.73-1.64.53,0,.89.14,1.22.49v.83h.33c.04-.59.12-1,.27-1.47-.5-.26-.92-.37-1.44-.37-.81,0-1.63.34-2.21.92-.46.46-.69,1-.69,1.65,0,.93.41,1.44,1.33,1.66l1.04.25c.6.14.88.51.88,1.15,0,1.05-.77,1.76-1.9,1.76-.59,0-1-.13-1.48-.47v-1.08h-.33c-.07.6-.14,1.09-.26,1.66.55.27,1.11.41,1.69.41,1.69,0,3.14-1.27,3.14-2.75h0Z"/>
      <path d="M280.77,65.37c-1.66,1.08-2.66,2.95-2.66,5.29,0,2.14,1.04,4.18,2.63,5.27l.14-.19c-1.52-1.31-1.78-2.59-1.78-5.13s.29-3.86,1.78-5.06l-.11-.19h0Z"/>
      <path d="M286.89,73.61l.04-.39c.05-.46.14-.92.23-1.36h-.29l-.17.65c-.1.38-.2.51-.43.57-.21.05-.98.11-1.64.11-.45,0-.74-.01-1.43-.08,0-.13,0-.25.02-.38l.47-2.76h1.28c1.37,0,1.1.03,1.44.04l.21-.49-.04-.08-2.39.07h-.4l.46-2.6c.03-.17.05-.26.1-.35.61-.02.34-.02,1.42-.04.71,0,1.16.1,1.17.26l.09.97h.26c.03-.7.11-1.24.23-1.66-.24-.02-.5-.03-.75-.03-.85,0-1.71.03-2.57.03-.59,0-1.17-.01-1.75-.03l-.03.31.59.02c.26.01.38.1.38.28,0,.16-.03.49-.1.84l-.95,5.5c-.03.2-.17.27-.65.35l-.05.28c.56-.02,1.12-.03,1.68-.03.82,0,1.64.03,2.45.03.94,0,.72-.02,1.15-.03h-.03Z"/>
      <path d="M288.73,65.37l-.11.19c1.48,1.2,1.78,2.52,1.78,5.06s-.26,3.82-1.78,5.13l.14.19c1.59-1.09,2.63-3.13,2.63-5.27,0-2.35-1-4.21-2.66-5.29h0Z"/>
      <path d="M295.79,72.15h5.88v-.64h-5.88v.64ZM295.79,69.83h5.88v-.65h-5.88v.65Z"/>
      <path d="M327.43,70.85c0-1.23-.88-2.11-2.13-2.11-.52,0-.92.14-1.59.55l.1-2.28,3.33.05.05-.05c-.02-.2-.02-.26-.02-.43s0-.24.02-.44l-.05-.05s-1.16.05-1.9.05-1.9-.05-1.9-.05l-.05.05.02,1.49c0,.96-.03,1.97-.07,2.45l.22.07c.51-.51.81-.67,1.34-.67,1.05,0,1.7.74,1.7,1.92s-.7,1.92-1.89,1.92c-.59,0-1.13-.2-1.29-.48l-.5-.89-.26.15c.25.62.38.97.53,1.45.31.16.74.26,1.21.26.73,0,1.51-.32,2.11-.84.67-.59,1.01-1.33,1.01-2.14v.02ZM319.33,74.72c0,.94-.86,1.64-2.01,1.64-.95,0-1.6-.56-1.6-1.36,0-.49.28-.93.72-1.12.17-.08.48-.11,1.23-.11,1.23,0,1.66.25,1.66.96h0ZM318.4,70.4c0,.71-.46,1.2-1.12,1.2-.73,0-1.22-.57-1.22-1.41s.4-1.33,1.1-1.33c.74,0,1.24.61,1.24,1.54ZM320.47,69.04l-.04-.13-1.55.04c-.4-.33-.8-.46-1.33-.46-.48,0-1.04.15-1.48.41-.61.35-.93.88-.93,1.55,0,.81.5,1.36,1.31,1.45l-.86.67c-.11.16-.16.31-.16.47,0,.31.2.48.72.63l-.95.51c-.15.09-.31.49-.31.83,0,.99.97,1.68,2.36,1.68,1.65,0,2.95-1.04,2.95-2.37,0-.79-.52-1.33-1.29-1.33h-1.75c-.57,0-.83-.13-.83-.43,0-.14.09-.26.37-.5l.13-.12c.11.01.17.02.26.02.47,0,1.05-.21,1.49-.52.49-.36.73-.8.73-1.37,0-.22-.03-.36-.12-.59h1l.27-.45h0ZM313.17,71.43c0,1.25-.56,2.04-1.44,2.04-1.07,0-1.79-1.05-1.79-2.6,0-1.31.52-2.02,1.48-2.02s1.75,1.09,1.75,2.57h0ZM314.19,71.02c0-1.47-1.07-2.53-2.56-2.53-1.59,0-2.69,1.12-2.69,2.75,0,1.54.97,2.59,2.38,2.59,1.68,0,2.88-1.17,2.88-2.8h-.01ZM308.36,73.64v-.33l-.5-.03c-.37-.02-.4-.1-.4-.79v-6.72l-.1-.09c-.48.19-.84.27-1.7.4v.31h.61c.2,0,.27.12.27.45v5.65c0,.69-.03.76-.4.79l-.5.03v.33c.46-.02.91-.03,1.36-.03s.91.01,1.36.03h0Z"/>
    </g>
  </g>
  <path class="st26" d="M159.97,58.9v-.25h-75.72c-1.58,0-3.01-.64-4.05-1.68-1.04-1.04-1.68-2.47-1.68-4.05V7.51c0-1.58.64-3.01,1.68-4.05s2.47-1.68,4.05-1.68h75.72c1.58,0,3.01.64,4.05,1.68,1.04,1.04,1.68,2.47,1.68,4.05v45.41c0,1.58-.64,3.01-1.68,4.05s-2.47,1.68-4.05,1.68v.5c3.44,0,6.23-2.79,6.23-6.23V7.51c0-3.44-2.79-6.23-6.23-6.23h-75.72c-3.44,0-6.23,2.79-6.23,6.23v45.41c0,3.44,2.79,6.23,6.23,6.23h75.72s0-.25,0-.25Z"/>
</svg>