<?xml version="1.0" encoding="UTF-8"?>
<svg id="Layer_2" xmlns="http://www.w3.org/2000/svg" version="1.1" xmlns:xlink="http://www.w3.org/1999/xlink" viewBox="0 0 211.48 114.15">
  <!-- Generator: Adobe Illustrator 29.5.1, SVG Export Plug-In . SVG Version: 2.1.0 Build 141)  -->
  <defs>
    <style>
      .st0 {
        clip-path: url(#clippath-6);
      }

      .st1 {
        clip-path: url(#clippath-7);
      }

      .st2 {
        clip-path: url(#clippath-4);
      }

      .st3 {
        fill: #231f20;
      }

      .st4 {
        fill: none;
      }

      .st5 {
        fill: #3e3e3f;
      }

      .st6 {
        clip-path: url(#clippath-1);
      }

      .st7 {
        clip-path: url(#clippath-5);
      }

      .st8 {
        fill: #645faa;
      }

      .st9 {
        clip-path: url(#clippath-8);
      }

      .st10 {
        clip-path: url(#clippath-3);
      }

      .st11 {
        fill: #f37052;
      }

      .st12 {
        fill: #6d6e71;
      }

      .st13 {
        fill: #ea906a;
      }

      .st14 {
        fill: #7fc78c;
      }

      .st15 {
        clip-path: url(#clippath-2);
      }

      .st16 {
        fill: #c75c43;
      }

      .st17 {
        clip-path: url(#clippath);
      }

      .st18 {
        fill: #524e8e;
      }
    </style>
    <clipPath id="clippath">
      <polyline class="st4" points="1.73 66.62 1.73 31.5 11.9 31.5 11.9 66.62 1.73 66.62"/>
    </clipPath>
    <clipPath id="clippath-1">
      <polyline class="st4" points="85.38 100.29 110.37 100.29 110.37 113.33 85.38 113.33 85.38 100.29"/>
    </clipPath>
    <clipPath id="clippath-2">
      <polyline class="st4" points="183.42 22.78 211.27 22.78 211.27 32.53 183.42 32.53 183.42 22.78"/>
    </clipPath>
    <clipPath id="clippath-3">
      <polyline class="st4" points="183.42 64.72 211.27 64.72 211.27 74.59 183.42 74.59 183.42 64.72"/>
    </clipPath>
    <clipPath id="clippath-4">
      <polyline class="st4" points="65.34 22.6 76.41 22.6 76.41 32.29 65.34 32.29 65.34 22.6"/>
    </clipPath>
    <clipPath id="clippath-5">
      <polyline class="st4" points="155.34 22.6 166.41 22.6 166.41 32.29 155.34 32.29 155.34 22.6"/>
    </clipPath>
    <clipPath id="clippath-6">
      <polyline class="st4" points="36.54 64.6 45.22 64.6 45.22 74.29 36.54 74.29 36.54 64.6"/>
    </clipPath>
    <clipPath id="clippath-7">
      <polyline class="st4" points="96.54 64.6 105.22 64.6 105.22 74.29 96.54 74.29 96.54 64.6"/>
    </clipPath>
    <clipPath id="clippath-8">
      <polyline class="st4" points="126.54 64.6 135.22 64.6 135.22 74.29 126.54 74.29 126.54 64.6"/>
    </clipPath>
  </defs>
  <polyline class="st12" points="18.53 7.82 18.03 8.01 18.03 96.39 18.53 96.39 18.53 95.89 19.03 95.89 19.03 70.89 18.53 70.89 18.53 69.89 19.03 69.89 19.03 28.89 18.53 28.89 18.53 27.89 19.03 27.89 19.03 8.01 18.53 7.82"/>
  <path class="st12" d="M18.53,2.7c-.79,2.13-2.14,4.77-3.57,6.41l3.07-1.11.5-.18.5.18,3.07,1.11c-1.43-1.64-2.78-4.28-3.57-6.41"/>
  <polyline class="st12" points="174.03 95.89 19.03 95.89 19.03 96.39 18.53 96.39 18.53 96.89 174.03 96.89 174.21 96.39 174.03 95.89"/>
  <polyline class="st5" points="19.03 95.89 18.53 95.89 18.53 96.39 19.03 96.39 19.03 95.89"/>
  <path class="st12" d="M172.92,92.82l1.11,3.07.18.5-.18.5-1.11,3.07c1.64-1.43,4.28-2.78,6.41-3.57-2.13-.79-4.77-2.14-6.41-3.57"/>
  <polyline class="st8" points="179.33 69.89 19.03 69.89 19.03 70.89 179.33 70.89 179.33 69.89"/>
  <polyline class="st18" points="19.03 69.89 18.53 69.89 18.53 70.89 19.03 70.89 19.03 69.89"/>
  <polyline class="st11" points="179.33 27.89 19.03 27.89 19.03 28.89 179.33 28.89 179.33 27.89"/>
  <polyline class="st16" points="19.03 27.89 18.53 27.89 18.53 28.89 19.03 28.89 19.03 27.89"/>
  <g class="st17">
    <path d="M3.12,32.62h-.31c.02.35.03.69.03,1.04,0,.35-.01.69-.03,1.04h.31l.02-.28c.02-.33.1-.47.27-.47.08,0,.16.03.28.08l3.19,1.3c-.41.24-.67.35-1.2.56l-1.83.7c-.19.07-.33.11-.44.11-.17,0-.26-.11-.27-.37l-.02-.41h-.31c.02.43.03.84.03,1.27s-.01.84-.03,1.27h.31l.02-.2c.03-.27.15-.41.53-.57l4.41-1.8.67.25c.92.35,1.43.77,1.43,1.19,0,.17-.09.37-.25.56v.14l.82.26c.11-.21.16-.38.16-.59,0-.73-.39-1.2-1.34-1.61l-5.11-2.21c-.99-.44-1.3-.64-1.32-.92l-.02-.31ZM8.94,39.83c.94,0,1.64.86,1.64,2.01,0,.95-.56,1.6-1.36,1.6-.49,0-.93-.28-1.12-.72-.08-.17-.11-.48-.11-1.23,0-1.23.25-1.66.96-1.66ZM4.62,40.76c.71,0,1.2.46,1.2,1.12,0,.73-.57,1.22-1.41,1.22s-1.33-.4-1.33-1.1c0-.74.61-1.24,1.54-1.24ZM3.25,38.69l-.13.04.04,1.55c-.33.4-.46.8-.46,1.33,0,.48.15,1.04.41,1.48.35.61.88.93,1.55.93.81,0,1.36-.5,1.45-1.31l.67.86c.16.11.31.16.47.16.31,0,.48-.2.63-.72l.51.95c.09.15.49.31.83.31.99,0,1.68-.97,1.68-2.36,0-1.65-1.04-2.95-2.37-2.95-.79,0-1.33.52-1.33,1.29v1.75c0,.57-.13.83-.43.83-.14,0-.26-.09-.5-.37l-.12-.13c.01-.11.02-.17.02-.26,0-.47-.21-1.05-.52-1.49-.36-.49-.8-.73-1.37-.73-.22,0-.36.03-.59.12v-1l-.45-.27ZM2.83,44.74c-.08.12-.12.32-.12.51,0,.33.17.68.45.91l.72.61h-1.12l-.04.1c.23.56.38,1.12.45,1.7h.31v-.4c0-.44.08-.48.8-.48h2.45c.69,0,.76.03.79.4l.03.5h.33c-.02-.45-.03-.89-.03-1.34,0-.52.01-1.04.03-1.56h-.33l-.03.57c-.03.49-.07.51-.79.51h-1.88c-.65,0-1.2-.44-1.2-.97,0-.33.15-.56.5-.73v-.23l-1.31-.1ZM4.91,50.13l.03,1.22c0,.5-.01.79-.07,1.37-.51,0-.75-.04-1.04-.19-.48-.23-.77-.7-.77-1.22,0-.36.14-.64.44-.84.36-.24.68-.35,1.41-.35ZM4.78,49.16c-1.25,0-2.07.81-2.07,2.03,0,.4.14.87.4,1.32.51.89,1.19,1.25,2.32,1.25.69,0,1.28-.15,1.69-.46.58-.43.92-1.17.92-1.99,0-.4-.09-.81-.28-1.25-.12-.29-.26-.52-.33-.57l-.37-.22-.11.14c.41.7.51.95.51,1.42,0,.71-.32,1.3-.85,1.6-.36.21-.67.28-1.3.31v-1.59c0-.75-.03-1.22-.15-1.97-.15-.01-.25-.02-.38-.02ZM7.86,54.16h-.33l-.03.45c-.02.37-.09.4-.79.4h-2.11c-1.28,0-1.9.6-1.9,1.82,0,.4.08.63.27.86l.72.83h-.95l-.04.1c.23.56.38,1.12.45,1.7h.31v-.4c0-.44.08-.48.8-.48h2.45c.69,0,.76.03.79.4l.03.49h.33c-.02-.45-.03-.91-.03-1.35s.01-.91.03-1.35h-.33l-.03.49c-.02.37-.1.4-.79.4h-2.31c-.49,0-1.03-.72-1.03-1.39,0-.73.55-1.21,1.39-1.21h3.1c-.02-.28-.03-.58-.03-.86,0-.31.01-.6.03-.91ZM4.91,61.7l.03,1.22c0,.5-.01.79-.07,1.37-.51,0-.75-.04-1.04-.19-.48-.23-.77-.7-.77-1.22,0-.36.14-.64.44-.84.36-.24.68-.35,1.41-.35ZM4.78,60.73c-1.25,0-2.07.81-2.07,2.03,0,.4.14.87.4,1.32.51.89,1.19,1.25,2.32,1.25.69,0,1.28-.15,1.69-.46.58-.43.92-1.17.92-1.99,0-.4-.09-.81-.28-1.25-.12-.29-.26-.52-.33-.57l-.37-.22-.11.14c.41.7.51.95.51,1.42,0,.71-.32,1.3-.85,1.6-.36.21-.67.28-1.3.31v-1.59c0-.75-.03-1.22-.15-1.97-.15-.01-.25-.02-.38-.02Z"/>
  </g>
  <g class="st6">
    <path d="M101.27,106.71c0,1.22-.73,2.13-1.71,2.13-.6,0-1.05-.2-1.47-.64v-2.27c0-.15.05-.27.2-.46.32-.4.76-.61,1.31-.61,1.03,0,1.68.72,1.68,1.85ZM102.22,106.3c0-1.21-1-2.16-2.27-2.16-.4,0-.8.11-.97.27l-.89.82v-1.05l-.1-.04c-.56.23-1.12.38-1.7.45v.31h.4c.44,0,.48.08.48.8v5.49c0,.69-.03.76-.4.79l-.5.03v.33c.46-.02.91-.03,1.36-.03s.91.01,1.36.03v-.33l-.5-.03c-.37-.02-.4-.1-.4-.79v-2.06c.33.2.68.27,1.17.27.32,0,.6-.07.77-.17l1.24-.81c.44-.28.95-1.41.95-2.11ZM95.14,102.31c0-.32-.22-.55-.53-.55-.34,0-.56.22-.56.55s.22.55.55.55.55-.22.55-.55ZM95.96,109.29v-.33l-.5-.03c-.37-.02-.4-.1-.4-.79v-3.96l-.1-.04c-.56.23-1.12.38-1.7.45v.31h.4c.44,0,.48.08.48.8v2.45c0,.69-.03.76-.4.79l-.5.03v.33c.46-.02.91-.03,1.36-.03s.91.01,1.36.03ZM89.58,101.32c-.34,0-.71.17-.96.46l-.63.72c-.32.36-.46.85-.46,1.57v.46l-.75.34v.24l.75-.04v3.09c0,.69-.03.76-.4.79l-.5.03v.33c.46-.02.92-.03,1.37-.03s.95.01,1.42.03v-.33l-.57-.03c-.37-.02-.4-.1-.4-.79v-3.09h1.35l.08-.58c-.48.03-.95.04-1.43.04v-.93c0-1.25.14-1.56.75-1.56.29,0,.49.08.82.31l.24-.07v-.23h.46c.17,0,.27.21.27.6v5.5c0,.69-.03.76-.4.79l-.5.03v.33c.46-.02.91-.03,1.36-.03s.91.01,1.36.03v-.33l-.5-.03c-.37-.02-.4-.1-.4-.79v-6.7l-.1-.11c-.46.16-.82.25-1.55.4v-.31c-.2-.03-.55-.12-.68-.12Z"/>
    <path d="M108.67,101.96c0-.26-.16-.45-.39-.45-.33,0-.63.36-.63.73,0,.27.16.45.44.45.34,0,.59-.32.59-.73ZM108.42,108.33l-.11-.2-.28.19c-.33.22-.56.33-.67.33-.08,0-.14-.1-.14-.22,0-.11.01-.2.08-.44l.84-3.32c.04-.19.07-.29.07-.39,0-.19-.09-.28-.27-.28-.24,0-.63.22-1.46.81l-.31.22.08.22.35-.23c.32-.21.43-.25.52-.25.11,0,.19.1.19.23,0,.09-.04.32-.09.48l-.72,2.62c-.1.35-.14.62-.14.84,0,.26.12.43.33.43.28,0,.69-.24,1.75-1.03Z"/>
  </g>
  <g class="st15">
    <path d="M190.08,31.43l.04-.39c.05-.46.14-.92.23-1.36h-.29l-.17.65c-.1.38-.2.51-.43.57-.21.05-.98.11-1.64.11-.45,0-.74-.01-1.43-.08,0-.13,0-.25.02-.38l.47-2.76h1.28c1.37,0,1.1.03,1.44.04l.21-.49-.04-.08-2.39.07h-.4l.46-2.6c.03-.17.05-.26.1-.35.61-.02.34-.02,1.42-.04.71,0,1.16.1,1.17.26l.09.97h.26c.03-.7.11-1.24.23-1.66-.24-.02-.5-.03-.75-.03-.85,0-1.71.03-2.57.03-.59,0-1.17-.01-1.75-.03l-.03.31.59.02c.26.01.38.1.38.28,0,.16-.03.49-.1.84l-.95,5.5c-.03.2-.17.27-.65.35l-.05.28c.56-.02,1.12-.03,1.68-.03.82,0,1.64.03,2.45.03.94,0,.72-.02,1.15-.03Z"/>
    <path d="M195.21,29.97h5.88v-.64h-5.88v.64ZM195.21,27.66h5.88v-.65h-5.88v.65Z"/>
    <path d="M209.38,31.46v-.33l-.57-.03c-.6-.03-.71-.15-.71-.72v-6.47l-.15-.05c-.71.37-1.48.7-2.48,1.05l.08.47h.11c.48-.22.96-.44,1.44-.64.07,0,.09.1.09.36v5.29c0,.57-.12.69-.71.72l-.61.03v.33c.6-.02,1.2-.03,1.8-.03.57,0,1.15.01,1.71.03Z"/>
  </g>
  <g class="st10">
    <path d="M190.08,73.38l.04-.39c.05-.46.14-.92.23-1.36h-.29l-.17.65c-.1.38-.2.51-.43.57-.21.05-.98.11-1.64.11-.45,0-.74-.01-1.43-.08,0-.13,0-.25.02-.38l.47-2.76h1.28c1.37,0,1.1.03,1.44.04l.21-.49-.04-.08-2.39.07h-.4l.46-2.6c.03-.17.05-.26.1-.35.61-.02.34-.02,1.42-.04.71,0,1.16.1,1.17.26l.09.97h.26c.03-.7.11-1.24.23-1.66-.24-.02-.5-.03-.75-.03-.85,0-1.71.03-2.57.03-.59,0-1.17-.01-1.75-.03l-.03.31.59.02c.26.01.38.1.38.28,0,.16-.03.49-.1.84l-.95,5.5c-.03.2-.17.27-.65.35l-.05.28c.56-.02,1.12-.03,1.68-.03.82,0,1.64.03,2.45.03.94,0,.72-.02,1.15-.03Z"/>
    <path d="M195.21,71.92h5.88v-.64h-5.88v.64ZM195.21,69.6h5.88v-.65h-5.88v.65Z"/>
    <path d="M208.98,69.93c0,2.32-.41,3.28-1.42,3.28-1.06,0-1.51-1.1-1.51-3.76,0-2.3.4-3.21,1.44-3.21s1.48,1.07,1.48,3.69ZM209.9,69.38c0-2.39-.71-3.52-2.2-3.52-1.69,0-2.55,1.34-2.55,3.98,0,1.28.23,2.38.61,2.91.38.53.99.84,1.67.84,1.65,0,2.48-1.42,2.48-4.21Z"/>
  </g>
  <circle class="st13" cx="69.93" cy="28.26" r="11.13"/>
  <path class="st3" d="M81.06,28.26h-.25c0,3-1.22,5.72-3.19,7.69-1.97,1.97-4.69,3.19-7.69,3.19-3,0-5.72-1.22-7.69-3.19-1.97-1.97-3.19-4.69-3.19-7.69,0-3,1.22-5.72,3.19-7.69,1.97-1.97,4.69-3.19,7.69-3.19,3,0,5.72,1.22,7.69,3.19,1.97,1.97,3.19,4.69,3.19,7.69h.5c0-6.28-5.09-11.38-11.38-11.38-6.28,0-11.38,5.09-11.38,11.38,0,6.28,5.09,11.38,11.38,11.38,6.28,0,11.38-5.09,11.38-11.38h-.25Z"/>
  <circle class="st13" cx="70.64" cy="27.55" r="10.84" transform="translate(10.07 73.16) rotate(-58.28)"/>
  <path class="st3" d="M81.48,27.55h-.25c0,2.92-1.18,5.57-3.1,7.49-1.92,1.92-4.56,3.1-7.49,3.1-2.92,0-5.57-1.18-7.49-3.1-1.92-1.92-3.1-4.56-3.1-7.49,0-2.92,1.18-5.57,3.1-7.49,1.92-1.92,4.56-3.1,7.49-3.1,2.92,0,5.57,1.18,7.49,3.1,1.92,1.92,3.1,4.56,3.1,7.49h.5c0-6.12-4.96-11.09-11.09-11.09-6.12,0-11.09,4.96-11.09,11.09,0,6.12,4.96,11.09,11.09,11.09,6.12,0,11.09-4.96,11.09-11.09h-.25Z"/>
  <g class="st2">
    <path d="M75.18,31.27v-.33l-.52-.03c-.5-.03-.56-.12-.56-.98v-4.9c0-.86.05-.95.56-.98l.52-.03v-.33c-.53.02-1.07.03-1.6.03s-1.06-.01-1.59-.03v.33l.52.03c.5.03.56.12.56.98v1.94c-.23.01-.46.02-.91.02h-2.55c-.45,0-.69-.01-.91-.02v-1.94c0-.86.05-.95.56-.98l.52-.03v-.33c-.53.02-1.07.03-1.6.03s-1.06-.01-1.59-.03v.33l.52.03c.5.03.56.12.56.98v4.9c0,.86-.05.95-.56.98l-.52.03v.33c.53-.02,1.06-.03,1.59-.03s1.07.01,1.6.03v-.33l-.52-.03c-.5-.03-.56-.12-.56-.98v-2.43c.29-.02.47-.02.91-.02h2.55c.44,0,.61,0,.91.02v2.43c0,.86-.05.95-.56.98l-.52.03v.33c.53-.02,1.06-.03,1.59-.03s1.07.01,1.6.03Z"/>
  </g>
  <circle class="st13" cx="159.93" cy="28.26" r="11.13"/>
  <path class="st3" d="M171.06,28.26h-.25c0,3-1.22,5.72-3.19,7.69-1.97,1.97-4.69,3.19-7.69,3.19-3,0-5.72-1.22-7.69-3.19-1.97-1.97-3.19-4.69-3.19-7.69,0-3,1.22-5.72,3.19-7.69,1.97-1.97,4.69-3.19,7.69-3.19,3,0,5.72,1.22,7.69,3.19,1.97,1.97,3.19,4.69,3.19,7.69h.5c0-6.28-5.09-11.38-11.38-11.38-6.28,0-11.38,5.09-11.38,11.38,0,6.28,5.09,11.38,11.38,11.38,6.28,0,11.38-5.09,11.38-11.38h-.25Z"/>
  <circle class="st13" cx="160.64" cy="27.55" r="10.84" transform="translate(1.69 63.57) rotate(-22.5)"/>
  <path class="st3" d="M171.48,27.55h-.25c0,2.92-1.18,5.57-3.1,7.49-1.92,1.92-4.56,3.1-7.49,3.1-2.92,0-5.57-1.18-7.49-3.1-1.92-1.92-3.1-4.56-3.1-7.49,0-2.92,1.18-5.57,3.1-7.49,1.92-1.92,4.56-3.1,7.49-3.1,2.92,0,5.57,1.18,7.49,3.1,1.92,1.92,3.1,4.56,3.1,7.49h.5c0-6.12-4.96-11.09-11.09-11.09-6.12,0-11.09,4.96-11.09,11.09,0,6.12,4.96,11.09,11.09,11.09,6.12,0,11.09-4.96,11.09-11.09h-.25Z"/>
  <g class="st7">
    <path d="M165.18,31.27v-.33l-.52-.03c-.5-.03-.56-.12-.56-.98v-4.9c0-.86.05-.95.56-.98l.52-.03v-.33c-.53.02-1.07.03-1.6.03s-1.06-.01-1.59-.03v.33l.52.03c.5.03.56.12.56.98v1.94c-.23.01-.46.02-.91.02h-2.55c-.45,0-.69-.01-.91-.02v-1.94c0-.86.05-.95.56-.98l.52-.03v-.33c-.53.02-1.07.03-1.6.03s-1.06-.01-1.59-.03v.33l.52.03c.5.03.56.12.56.98v4.9c0,.86-.05.95-.56.98l-.52.03v.33c.53-.02,1.06-.03,1.59-.03s1.07.01,1.6.03v-.33l-.52-.03c-.5-.03-.56-.12-.56-.98v-2.43c.29-.02.47-.02.91-.02h2.55c.44,0,.61,0,.91.02v2.43c0,.86-.05.95-.56.98l-.52.03v.33c.53-.02,1.06-.03,1.59-.03s1.07.01,1.6.03Z"/>
  </g>
  <circle class="st14" cx="39.93" cy="70.26" r="11.13"/>
  <path class="st3" d="M51.06,70.26h-.25c0,3-1.22,5.72-3.19,7.69-1.97,1.97-4.69,3.19-7.69,3.19-3,0-5.72-1.22-7.69-3.19-1.97-1.97-3.19-4.69-3.19-7.69,0-3,1.22-5.72,3.19-7.69,1.97-1.97,4.69-3.19,7.69-3.19,3,0,5.72,1.22,7.69,3.19,1.97,1.97,3.19,4.69,3.19,7.69h.5c0-6.28-5.09-11.38-11.38-11.38-6.28,0-11.38,5.09-11.38,11.38,0,6.28,5.09,11.38,11.38,11.38,6.28,0,11.38-5.09,11.38-11.38h-.25Z"/>
  <circle class="st14" cx="40.64" cy="69.55" r="10.84" transform="translate(-39.89 67.56) rotate(-58.28)"/>
  <path class="st3" d="M51.48,69.55h-.25c0,2.92-1.18,5.57-3.1,7.49-1.92,1.92-4.56,3.1-7.49,3.1-2.92,0-5.57-1.18-7.49-3.1-1.92-1.92-3.1-4.56-3.1-7.49,0-2.92,1.18-5.57,3.1-7.49,1.92-1.92,4.56-3.1,7.49-3.1,2.92,0,5.57,1.18,7.49,3.1,1.92,1.92,3.1,4.56,3.1,7.49h.5c0-6.12-4.96-11.09-11.09-11.09-6.12,0-11.09,4.96-11.09,11.09,0,6.12,4.96,11.09,11.09,11.09,6.12,0,11.09-4.96,11.09-11.09h-.25Z"/>
  <g class="st0">
    <path d="M44.03,65.69l-2.36.03h-1.72l-2.21-.03c.05.62.08,1.05.08,1.76h.34l.04-.86c.01-.26.13-.36.44-.36h1.69c.03.37.04.62.04,1.09v4.61c0,.86-.05.95-.56.98l-.52.03v.33c.53-.02,1.06-.03,1.59-.03s1.07.01,1.6.03v-.33l-.52-.03c-.5-.03-.56-.12-.56-.98v-4.61c0-.49.01-.73.04-1.09h1.69c.31,0,.43.1.44.36l.04.86h.34c0-.71.02-1.13.08-1.76Z"/>
  </g>
  <circle class="st14" cx="99.93" cy="70.26" r="11.13"/>
  <path class="st3" d="M111.06,70.26h-.25c0,3-1.22,5.72-3.19,7.69-1.97,1.97-4.69,3.19-7.69,3.19-3,0-5.72-1.22-7.69-3.19-1.97-1.97-3.19-4.69-3.19-7.69,0-3,1.22-5.72,3.19-7.69,1.97-1.97,4.69-3.19,7.69-3.19,3,0,5.72,1.22,7.69,3.19,1.97,1.97,3.19,4.69,3.19,7.69h.5c0-6.28-5.09-11.38-11.38-11.38-6.28,0-11.38,5.09-11.38,11.38,0,6.28,5.09,11.38,11.38,11.38,6.28,0,11.38-5.09,11.38-11.38h-.25Z"/>
  <circle class="st14" cx="100.64" cy="69.55" r="10.84" transform="translate(-18.95 43.81) rotate(-22.5)"/>
  <path class="st3" d="M111.48,69.55h-.25c0,2.92-1.18,5.57-3.1,7.49-1.92,1.92-4.56,3.1-7.49,3.1-2.92,0-5.57-1.18-7.49-3.1-1.92-1.92-3.1-4.56-3.1-7.49,0-2.92,1.18-5.57,3.1-7.49,1.92-1.92,4.56-3.1,7.49-3.1,2.92,0,5.57,1.18,7.49,3.1,1.92,1.92,3.1,4.56,3.1,7.49h.5c0-6.12-4.96-11.09-11.09-11.09-6.12,0-11.09,4.96-11.09,11.09,0,6.12,4.96,11.09,11.09,11.09,6.12,0,11.09-4.96,11.09-11.09h-.25Z"/>
  <g class="st1">
    <path d="M104.03,65.69l-2.36.03h-1.72l-2.21-.03c.05.62.08,1.05.08,1.76h.34l.04-.86c.01-.26.13-.36.44-.36h1.69c.03.37.04.62.04,1.09v4.61c0,.86-.05.95-.56.98l-.52.03v.33c.53-.02,1.06-.03,1.59-.03s1.07.01,1.6.03v-.33l-.52-.03c-.5-.03-.56-.12-.56-.98v-4.61c0-.49.01-.73.04-1.09h1.69c.31,0,.43.1.44.36l.04.86h.34c0-.71.02-1.13.08-1.76Z"/>
  </g>
  <circle class="st14" cx="129.93" cy="70.26" r="11.13"/>
  <path class="st3" d="M141.06,70.26h-.25c0,3-1.22,5.72-3.19,7.69-1.97,1.97-4.69,3.19-7.69,3.19-3,0-5.72-1.22-7.69-3.19-1.97-1.97-3.19-4.69-3.19-7.69,0-3,1.22-5.72,3.19-7.69,1.97-1.97,4.69-3.19,7.69-3.19,3,0,5.72,1.22,7.69,3.19,1.97,1.97,3.19,4.69,3.19,7.69h.5c0-6.28-5.09-11.38-11.38-11.38-6.28,0-11.38,5.09-11.38,11.38,0,6.28,5.09,11.38,11.38,11.38,6.28,0,11.38-5.09,11.38-11.38h-.25Z"/>
  <circle class="st14" cx="130.64" cy="69.55" r="10.84" transform="translate(-16.67 55.29) rotate(-22.5)"/>
  <path class="st3" d="M141.48,69.55h-.25c0,2.92-1.18,5.57-3.1,7.49-1.92,1.92-4.56,3.1-7.49,3.1-2.92,0-5.57-1.18-7.49-3.1-1.92-1.92-3.1-4.56-3.1-7.49,0-2.92,1.18-5.57,3.1-7.49,1.92-1.92,4.56-3.1,7.49-3.1,2.92,0,5.57,1.18,7.49,3.1,1.92,1.92,3.1,4.56,3.1,7.49h.5c0-6.12-4.96-11.09-11.09-11.09-6.12,0-11.09,4.96-11.09,11.09,0,6.12,4.96,11.09,11.09,11.09,6.12,0,11.09-4.96,11.09-11.09h-.25Z"/>
  <g class="st9">
    <path d="M134.03,65.69l-2.36.03h-1.72l-2.21-.03c.05.62.08,1.05.08,1.76h.34l.04-.86c.01-.26.13-.36.44-.36h1.69c.03.37.04.62.04,1.09v4.61c0,.86-.05.95-.56.98l-.52.03v.33c.53-.02,1.06-.03,1.59-.03s1.07.01,1.6.03v-.33l-.52-.03c-.5-.03-.56-.12-.56-.98v-4.61c0-.49.01-.73.04-1.09h1.69c.31,0,.43.1.44.36l.04.86h.34c0-.71.02-1.13.08-1.76Z"/>
  </g>
</svg>