<?xml version="1.0" encoding="utf-8"?>
<!-- Generator: Adobe Illustrator 27.9.6, SVG Export Plug-In . SVG Version: 9.03 Build 54986)  -->
<svg version="1.1" id="Layer_1" xmlns="http://www.w3.org/2000/svg" xmlns:xlink="http://www.w3.org/1999/xlink" x="0px" y="0px"
	 viewBox="0 0 595.3 841.9" style="enable-background:new 0 0 595.3 841.9;" xml:space="preserve">
<g>
	<g>
		<g>
			<path d="M72,88.1c-1,0.7-1.1,0.9-0.5,0.6c-4.3,1.4-5.4,9.2,0,10c2.6,0.4,4.7,0.1,6.9-1.4c1-0.7,1.8-1.6,2.6-2.5
				c0.2-0.3,0.4-0.6,0.6-0.8c1-1,0.9-1.1-0.1-0.4c-1.1-0.3-2.1-0.6-3.2-0.9c0.3,0.2,0.5,0.3,0.8,0.5c-0.8-0.8-1.5-1.5-2.3-2.3
				c-0.1-1.1-0.2-1-0.2,0.1c-0.1,0.4-0.2,0.8-0.3,1.3c-0.3,1.2-0.9,2.2-1.5,3.3c-0.3,0.6-2.1,2.8-2.1,3.4c-0.7,0.7-0.3,0.9,1,0.7
				c0.7-0.2,1.3,0,1.7,0.5c-0.5,0.4-1.1-5.6-1.1-5.6c0.1-0.6,0.4-1.2,0.4-1.8c0.1-1,1.4,0-0.1-0.4c-0.9-0.5-1.8-1.1-2.7-1.6
				c-0.5-1.2-0.8-1.4-1-0.4c-0.3,1-0.5,2-0.7,3c-0.3,1.8-0.3,3.2,0.2,5c0.6,1.9,2.8,2.9,4.6,1.9c3-1.7,4-4.3,5.7-7.1
				c1.5-2.5,2.7-4.6,2-7.7c-1.6-6.2-9.3-7.6-14.3-4.6c-9.6,5.6-9.7,22.4-1.4,29.2c10.9,8.8,20.8-7.8,22.2-17.1
				c0.9-5.8-1.7-12.6-8.6-12.4c-2.7,0.1-5.3,1.5-7.2,3.4c-1.8,1.8-2.3,4.2-4.2,5.9c2.9,1.2,5.9,2.4,8.8,3.6c0.1-0.6,0.2-1.2,0.5-1.8
				C80,88,74.7,85.7,72,88.1L72,88.1z"/>
		</g>
	</g>
	<g>
		<g>
			<path d="M81.5,85.7c1.3-7,4.7-13.2,10.1-18c4.2-3.8,13.3-10.2,19.4-8.1c11.1,3.8-8,17.9-11.6,20.4c-6.6,4.6-13.7,8.3-21.2,11.2
				c1.2,1.5,2.4,3.1,3.6,4.6c1.2-1.8,2-2.8,2-5c0-1.4-1.3-2.3-2.6-2c-2.1,0.5-2.9,1.5-4.4,3.1c-2.6,2.8,0.6,6.4,3.8,5
				c10.5-4.7,20.2-11.1,28.5-19.1c5.2-5,14.3-14.7,5.9-21.5c-6.6-5.3-18.1-0.7-24.1,3.4C82.7,65.3,77.1,74.3,75.4,84
				C74.7,88,80.8,89.7,81.5,85.7L81.5,85.7z"/>
		</g>
	</g>
	<g>
		<g>
			<path d="M74.8,83.9c-3-9.1-9-16.3-16.7-21.9c-2.8-2-6.3-3.9-9.3-1.1c-2.9,2.7-3.8,8.3-4.4,11.9c-1.3,8.1,0.6,16.8,8.4,20.9
				c6.9,3.6,18.6,3,24.5-2.2c1.2-1.1,0.7-3.6-1-3.9c-5.4-0.8-10.6,1.6-16,1c-7.2-0.8-10-6.7-9.4-13.4c0.3-2.7,0.9-6.2,2.2-8.5
				c0.5-1,0.4-1-0.3-0.2c0.4,0.3,0.9,0.6,1.3,0.8c1,1.3,3,2.1,4.3,3.3c4.9,4.3,8.8,9.6,12.2,15.1C72,87.7,75.7,86.4,74.8,83.9
				L74.8,83.9z"/>
		</g>
	</g>
</g>
<g>
	<g>
		<g>
			<path d="M270.7,92.3c1.6-0.4,3-0.9,4.5-1.6c-2.3-0.9-4.6-1.9-7-2.8c0.4,1.2,0.6,2.3,0.4,3.5c-0.1,0.4-0.2,0.9-0.3,1.2
				c-0.1,0.2-0.2,0.5-0.4,0.7c-0.8,1.1-0.4,1,1.2-0.4c0.8,0.2,1.7,0.4,2.5,0.7c-2-1,0.9,0.8,0.7,0.9c0.1,0,0-2.4,0-2.5
				c0-0.8,0-1.6,0-2.4c0-0.5,0-0.9,0-1.4c0.3-1.5-0.3-1.4-1.8,0c-0.9,1.2-1.7,1.3-2.5,0.5c-0.1-0.1-0.2-0.2-0.3-0.3
				c-0.1,0.1-0.1,2-0.1,2.1c0.1-0.6-0.2,1.3-0.3,1.1c-0.4-1.2,3.5-0.9,1.6-1.2c0.8,0.2,1.7,0.5,2.5,0.7c-1.2-0.5,0.4,0.5,0.5,0.9
				c0.1,0.3-0.1,1.4-0.2,1.3c0.1,0.1,2.5-1.3,2.7-1.4c-2.5-1.9-4.9-3.8-7.4-5.7c-0.2,0.6-1.6,1.1-2,1.7c-0.8,1.1-1.3,2.6-0.8,4
				c0.9,2.4,3,3.8,5.6,3.2c2.7-0.6,5.2-2.4,6.4-4.9c1.9-3.7-1.2-8.7-5.7-7.4c-4.5,1.4-8.9,4.8-8.6,10c0.2,4.7,4.6,8.7,9.4,7.4
				c8.6-2.4,8.8-18.5,0.1-20.8c-5.5-1.5-9.1,2.8-9.3,7.8c-0.2,4-0.6,9,1.7,12.5c3.1,4.7,9.1,3.3,11.9-0.9c2.6-3.9,3-9.2,1.4-13.6
				c-1.1-3.1-4-4.2-7-2.8c-1.1,0.5-2.1,1.1-3.1,1.8C263.4,87.1,265.7,93.4,270.7,92.3L270.7,92.3z"/>
		</g>
	</g>
	<g>
		<g>
			<path d="M265.2,86.9c-3-6.2-7.6-22.8-0.6-27.7c9.1-6.3,6.1,18.3,6.6,21.5c0.5,3.1,5.2,2.8,6,0c2.6-9.6,2.5-36.2-14.7-28.9
				c-14.2,6-10,29.5-0.7,37.9C263.6,91.4,266.3,89.2,265.2,86.9L265.2,86.9z"/>
		</g>
	</g>
	<g>
		<g>
			<path d="M277,85.9c3.8-4.6,7.1-9.4,12.2-12.7c2.2-1.5,17.1-8.1,16.6-3.2c-0.2,2.6-4.3,5.7-6.1,7.3c-2.5,2.3-5.3,4.2-8.3,5.9
				c-5.6,3.2-12.2,4.4-17.7,7.7c-1.2,0.7-1,2.6,0.4,3c9.2,2.6,19.7-3.3,26.8-8.7c5.3-4,15-12,11.5-19.8c-3.3-7.5-16.1-3.3-21.5-0.8
				c-7.8,3.5-15.9,10.4-17.4,19.3C273.3,85.7,275.5,87.7,277,85.9L277,85.9z"/>
		</g>
	</g>
</g>
<g>
	<g>
		<g>
			<path d="M478.8,80.8c-0.1,1.7-0.1-0.5,0.6,0.2c0.2,0.2,0.4,0.4,0.6,0.7c0.7,1,0.5,4.2-0.5,4.9c-1.6,1.2-3.6-2.3-3.4-4
				c0.1-1.4,0.8-2.8,1.8-3.8c0.2-0.2,1.8-1.3,1.9-1.5c0.2-0.1,0.5-0.2,0.7-0.2c0.7-0.1,0.4-0.5-0.8-1.1c0.2-0.1-0.1,5.6-0.1,5.5
				c0.7,0.2,1.3,0.3,2,0.5c-0.2-0.2-0.2-0.5-0.2-0.8c0.5-0.8,0.6-3.1,0.9-4c-2.3,1.3-4.6,2.6-6.9,3.9c-0.3-0.2-0.5-0.3-0.8-0.5
				c0.5,2.7,3.9,2.9,5.6,1.5c2.9-2.4,3-6,1.5-9.2c-2.3-4.9-8.7-2.6-10.2,1.3c-2.2,5.5-2.1,12.4,3.1,16.1c4.8,3.5,11.3,1.6,14.3-3.4
				c2.6-4.3,2.7-12,0.2-16.4c-3-5.3-10-5.1-14.8-2.6c-9,4.7-12.1,18-4.4,25.3c3.6,3.4,9.1,4.9,13.7,2.7c4.8-2.3,7-7.8,6.8-12.8
				c-0.2-5.7-4-11.6-10.1-12c-5.4-0.3-10.7,3.9-10.4,9.5C470.2,86.6,478.4,86.6,478.8,80.8L478.8,80.8z"/>
		</g>
	</g>
	<g>
		<g>
			<path d="M471.2,79.4c-7.4,1.1-24.4-11.6-15-18.5c9.1-6.7,18.7,8.1,23.6,13.8c1.1,1.3,3.1-0.1,2.7-1.6c-2.5-8.5-6.5-16.1-15-19.9
				c-6.9-3-15.8-1.6-20.2,5.1c-9.3,14.3,11.5,33.6,25.4,24.7C474.8,81.9,473.4,79.1,471.2,79.4L471.2,79.4z"/>
		</g>
	</g>
	<g>
		<g>
			<path d="M484.4,77.5c8.3,7.7,24.9,7.1,34.2,1.4c11.7-7.2,9.4-20.1,1.5-29.2c-8-9.2-19.8-11.2-28.2-1.4
				c-5.5,6.5-17.6,22.7-10.2,31.1c0.8,0.9,2.6,0.7,3.1-0.4c1.8-3.6,1.7-7.9,3.4-11.7c1.6-3.6,3.6-6.9,5.8-10.1
				c1.9-2.9,4.1-6.4,7.2-8.1c4.7-2.6,9.2,0.2,12.6,3.6c6.9,6.9,8,17.1-2.4,21.1c-6.9,2.6-18,2.9-24.9,0.2
				C484.4,73,482.9,76.1,484.4,77.5L484.4,77.5z"/>
		</g>
	</g>
</g>
<g>
	<g>
		<g>
			<path d="M187.6,84.4c-1.1,0.3-1,0.4,0.2,0.5c0,2.2,0,4.3,0,6.5c0.5-0.5,1.5-1.2,1.8-1.8c1.2-0.8,0.7-1.4-1.4-1.8
				c-1.8-0.1-2.4-0.7-1.7-1.8c-1,0.1-2.5,1.3-3.7,1.5c-0.5,0.1-2.1,0-2,0.1c0.7,0.4-0.2,0.5,0.3-0.3c0.3-0.5,0.5-1,0.9-1.5
				c1-1.2,2.4-2.2,3.7-3c0.4-0.3,1.2-0.5,1.6-0.8c0.6-0.4,0.8-0.4,0.8-0.2c-0.3,1.1-1.2,0.3-2.5-2.5c-0.3,0.2-0.5,1.1-0.8,1.4
				c-0.4,0.5-1,0.9-1.6,1.3c-1.3,0.7-2.5,0.7-3.9,0.6c1.8,2.4,3.6,4.7,5.4,7.1c-1.4,0.5-2.7,0.9-4.1,1.4c-0.7-2.6-1.3-5.1-2-7.7
				c-0.7,1.3-1.3,1.1-2.8,1c1.8,1.8,3.5,3.5,5.3,5.3c0.1-2,0.4-3.9-0.9-5.6c-1.3-1.9-3.3-2.3-5.3-1.4c-1.9,0.8-2.7,2.6-3.6,4.4
				c-1.8,3.3,0,6.4,3.1,7.7c5.2,2.2,11.3-1.2,13.9-5.7c1.5-2.5,0.7-6.2-2-7.7c-4.8-2.6-11.2-0.3-12.4,5.3c-0.8,3.8,1.7,6.8,5.4,7.1
				c5.2,0.4,10.6-1.9,13.9-5.9c3.8-4.6,5.4-12.2-0.5-15.9c-4.5-2.8-10.2-0.6-14,2.2c-4.6,3.4-8.7,7.7-8.6,13.8
				c0.3,13.2,19.3,13.1,25.3,4.3c3.2-4.6,1.8-11.8-4-13.6c-6.1-1.9-11.2,3.8-11.5,9.5c-0.1,2.3,2.2,4.9,4.6,4.6
				c2.6-0.3,4.5-0.8,6.5-2.4C193.7,88.1,190.8,83.2,187.6,84.4L187.6,84.4z"/>
		</g>
	</g>
	<g>
		<g>
			<path d="M179.7,76.8c-2.7-3.7-5.5-7.4-8.6-10.8c-2.5-2.8-5.1-6-9-6.6c-6.4-0.9-11.6,6-13.9,11.1c-2.4,5.2-1.2,12.2,4.7,14.4
				c3.8,1.4,8.3,0.3,12.1-0.2c4.1-0.5,8.5-0.8,12.3-2.7c2.4-1.2,1.8-5.1-0.7-5.7c-4.3-1-9,0-13.3,0.5c-3.6,0.4-10.6,2.1-8-3.9
				c0.7-1.5,2.3-4.2,3.7-5.1c2.7-1.7,4.2-0.1,6.2,1.6c3.8,3.2,7.3,6.8,10.6,10.5C177.6,81.9,181.4,79.1,179.7,76.8L179.7,76.8z"/>
		</g>
	</g>
	<g>
		<g>
			<path d="M182.7,75.9c0-3.6,0.9-7.1,3.1-10.1c1.5-2,9.6-9,11-4.4c0.7,2.2-1.6,3-3.3,4.3c-1.7,1.3-3.5,2.5-5.2,3.8
				c-3.5,2.5-7.5,4.8-10.3,8c-3.2,3.6,0.8,8.3,4.9,6.4c4.3-2,8.2-5.6,12-8.5c2.8-2.1,6.1-4.1,8.4-6.8c4.1-4.9,3-11.9-2.8-14.8
				c-5.9-3-13.2,0.4-17.3,4.8c-4.3,4.7-6.5,11-5.9,17.3C177.6,79.3,182.7,79.4,182.7,75.9L182.7,75.9z"/>
		</g>
	</g>
</g>
<g>
	<g>
		<g>
			<path d="M385.5,81.4c0.5,1.2,2.1,3.3,1.6,4.7c-0.1,0.4-0.6,0.9-0.9,1c-0.2,0.1-1.2,0.3-1.2,0.3c0,0.1,0.3,0,0.4,0.3
				c0,0.2,0.2,0.9,0.3,1c0-0.2,0-0.3,0-0.5c-0.1,0.4-0.1,0.5,0,0.1c0-0.2,0.3-0.7,0.7-1.1c-0.5,0.5,0.5-0.1,0.1,0
				c-0.6,0.2,0.2,0,0.4,0c-0.7-0.4-1.2-0.3-1.5-1.4c0-0.5,0-0.9,0-1.4c-0.2,0.5-0.2,0.6-0.1,0.3c0.7-1.1,1.9-1.2,3.1-0.5
				c0.7,0.4,0.8,0.7,1.2,1.3c0,0.7,0,0.8,0,0.3c0-0.4,0-0.3-0.1,0.3c0.6-0.9-0.4,0.5-0.6,0.6c-0.7,0.7-2.1,1.3-3,0.6
				c-0.8-0.6-0.8-2.1,0.1-2.6c3.4-2,3.9,8.2,0.7,6.3c0,0,0.9-0.1,0.2-0.1c0.9,0,1.7-0.2,2.4-0.5c2.8-1,5.2-3.4,4.3-6.5
				c-0.3-1.1-1.3-2.3-2.5-2.5c-0.5-0.1-1.2-0.1-1.7-0.2c0.4,0.1,1,0.3-0.1-0.2c-1.1-0.6-2.7-0.8-3.9-0.8c-3.7,0-7,2.6-7.5,6.3
				c-1,7.4,8,11.5,13.8,7.8c5.9-3.8,6.4-12.4,0.3-16.3c-5.3-3.4-12.1-0.4-13.4,5.6c-1.2,5.9,3.6,12.3,10,10.8
				c5.7-1.4,9.1-8.6,5.8-13.7c-3.4-5.3-11.4-5-15.5-0.9c-3.5,3.5-4.8,9.2-2,13.4c4.2,6.2,13.8,4.3,17.4-1.6
				c3.2-5.4,1.3-14.1-5.7-14.9C386.7,76.8,384.8,79.5,385.5,81.4L385.5,81.4z"/>
		</g>
	</g>
	<g>
		<g>
			<path d="M380.4,84.9c-5.6-0.2-9.2-8-10.1-12.9c-0.5-2.9,0.2-4,2.9-4.7c1.2-0.3,2.5-0.4,3.7-0.5c0.4,0,3.5,0.2,2.2-0.6
				c-0.3-0.8-0.4-0.7-0.3,0.4c0,0.9,0,1.8,0,2.7c0,1.5,0.1,3,0.3,4.5c0.3,2.6,0.9,5.2,2.2,7.4c2.1,3.6,6.6,6.8,10.9,5.4
				c2-0.7,3.2-3.5,1.3-5.1c-4-3.5-5.7-5.5-5.7-11.3c0-3.7,0.8-7.8-2.2-10.6c-4.6-4.4-15.1-2.9-20,0.2c-13.5,8.8,1.1,32.6,14.7,31.5
				C384.5,91.1,384.6,85,380.4,84.9L380.4,84.9z"/>
		</g>
	</g>
	<g>
		<g>
			<path d="M392.5,83.1c-6.6-11.1,13.7-19.3,21.9-17c-0.7-1.8-1.4-3.5-2.1-5.3c-2.3,5.3-5.6,10.2-9.5,14.5
				c-3.5,3.8-8.6,6.6-11.5,10.9c-1.5,2.3,1,4.8,3.3,4.3c5.4-1.1,10.3-6.7,13.8-10.7c4.1-4.7,7.2-9.9,10-15.4
				c1.1-2.2,0.1-4.5-2.1-5.3c-13.7-4.8-40,10.8-28.9,26.9C389.5,89.2,394.5,86.4,392.5,83.1L392.5,83.1z"/>
		</g>
	</g>
</g>
</svg>
