<?xml version="1.0" encoding="UTF-8"?>
<svg id="Layer_4" xmlns="http://www.w3.org/2000/svg" version="1.1" xmlns:xlink="http://www.w3.org/1999/xlink" viewBox="0 0 255.43 192.14">
  <!-- Generator: Adobe Illustrator 29.5.1, SVG Export Plug-In . SVG Version: 2.1.0 Build 141)  -->
  <defs>
    <style>
      .st0 {
        clip-path: url(#clippath-34);
      }

      .st1 {
        clip-path: url(#clippath-38);
      }

      .st2 {
        clip-path: url(#clippath-21);
      }

      .st3 {
        clip-path: url(#clippath-6);
      }

      .st4 {
        clip-path: url(#clippath-7);
      }

      .st5 {
        clip-path: url(#clippath-17);
      }

      .st6 {
        clip-path: url(#clippath-31);
      }

      .st7 {
        clip-path: url(#clippath-15);
      }

      .st8 {
        clip-path: url(#clippath-33);
      }

      .st9 {
        clip-path: url(#clippath-18);
      }

      .st10 {
        clip-path: url(#clippath-4);
      }

      .st11 {
        fill: gray;
      }

      .st12 {
        clip-path: url(#clippath-22);
      }

      .st13 {
        clip-path: url(#clippath-23);
      }

      .st14 {
        fill: #cab6a5;
      }

      .st15 {
        clip-path: url(#clippath-9);
      }

      .st16 {
        clip-path: url(#clippath-10);
      }

      .st17 {
        clip-path: url(#clippath-42);
      }

      .st18 {
        fill: #fff;
      }

      .st19 {
        clip-path: url(#clippath-43);
      }

      .st20 {
        clip-path: url(#clippath-25);
      }

      .st21 {
        clip-path: url(#clippath-27);
      }

      .st22 {
        clip-path: url(#clippath-11);
      }

      .st23 {
        fill: none;
      }

      .st24 {
        clip-path: url(#clippath-36);
      }

      .st25 {
        clip-path: url(#clippath-35);
      }

      .st26 {
        clip-path: url(#clippath-28);
      }

      .st27 {
        fill: #fee1c8;
      }

      .st28 {
        clip-path: url(#clippath-1);
      }

      .st29 {
        fill: #dfc7b1;
      }

      .st30 {
        fill: #e48025;
      }

      .st31 {
        clip-path: url(#clippath-40);
      }

      .st32 {
        clip-path: url(#clippath-5);
      }

      .st33 {
        clip-path: url(#clippath-20);
      }

      .st34 {
        clip-path: url(#clippath-8);
      }

      .st35 {
        clip-path: url(#clippath-41);
      }

      .st36 {
        clip-path: url(#clippath-3);
      }

      .st37 {
        clip-path: url(#clippath-26);
      }

      .st38 {
        fill: #dddbdb;
      }

      .st39 {
        fill: #6681aa;
      }

      .st40 {
        clip-path: url(#clippath-12);
      }

      .st41 {
        fill: #d8ddec;
      }

      .st42 {
        clip-path: url(#clippath-14);
      }

      .st43 {
        fill: #666766;
      }

      .st44 {
        clip-path: url(#clippath-30);
      }

      .st45 {
        clip-path: url(#clippath-19);
      }

      .st46 {
        fill: #dadbdc;
      }

      .st47 {
        clip-path: url(#clippath-32);
      }

      .st48 {
        fill: #7e818e;
      }

      .st49 {
        fill: #6d6e71;
      }

      .st50 {
        clip-path: url(#clippath-39);
      }

      .st51 {
        fill: #f57f20;
      }

      .st51, .st52 {
        fill-rule: evenodd;
      }

      .st53 {
        fill: #7e8191;
      }

      .st54 {
        clip-path: url(#clippath-16);
      }

      .st55 {
        clip-path: url(#clippath-2);
      }

      .st56 {
        clip-path: url(#clippath-29);
      }

      .st57 {
        clip-path: url(#clippath-37);
      }

      .st58 {
        clip-path: url(#clippath-13);
      }

      .st59 {
        fill: #e1c7ad;
      }

      .st52 {
        fill: #5e81b6;
      }

      .st60 {
        clip-path: url(#clippath-24);
      }

      .st61 {
        clip-path: url(#clippath);
      }

      .st62 {
        clip-path: url(#clippath-44);
      }

      .st63 {
        fill: #c3c6d0;
      }
    </style>
    <clipPath id="clippath">
      <polyline class="st23" points="18.46 -.83 190.29 -.83 190.29 177.87 18.46 177.87 18.46 -.83"/>
    </clipPath>
    <clipPath id="clippath-1">
      <polyline class="st23" points="77.74 140.93 80.32 140.93 80.32 160.42 77.74 160.42 77.74 140.93"/>
    </clipPath>
    <clipPath id="clippath-2">
      <polyline class="st23" points="93.21 128.04 94.92 128.04 94.92 160.42 93.21 160.42 93.21 128.04"/>
    </clipPath>
    <clipPath id="clippath-3">
      <polyline class="st23" points="107.81 121.17 110.39 121.17 110.39 160.42 107.81 160.42 107.81 121.17"/>
    </clipPath>
    <clipPath id="clippath-4">
      <polyline class="st23" points="123.28 128.04 124.99 128.04 124.99 160.42 123.28 160.42 123.28 128.04"/>
    </clipPath>
    <clipPath id="clippath-5">
      <polyline class="st23" points="137.88 140.93 140.46 140.93 140.46 160.42 137.88 160.42 137.88 140.93"/>
    </clipPath>
    <clipPath id="clippath-6">
      <polyline class="st23" points="31.35 158.15 35.58 158.15 35.58 160.42 31.35 160.42 31.35 158.15"/>
    </clipPath>
    <clipPath id="clippath-7">
      <polyline class="st23" points="46.3 156.7 50.63 156.7 50.63 160.42 46.3 160.42 46.3 156.7"/>
    </clipPath>
    <clipPath id="clippath-8">
      <polyline class="st23" points="61.56 151.55 65.89 151.55 65.89 155.88 61.56 155.88 61.56 151.55"/>
    </clipPath>
    <clipPath id="clippath-9">
      <polyline class="st23" points="76.61 140.21 80.94 140.21 80.94 144.54 76.61 144.54 76.61 140.21"/>
    </clipPath>
    <clipPath id="clippath-10">
      <polyline class="st23" points="91.66 126.6 95.99 126.6 95.99 130.93 91.66 130.93 91.66 126.6"/>
    </clipPath>
    <clipPath id="clippath-11">
      <polyline class="st23" points="106.95 120.31 111.25 120.31 111.25 124.54 106.95 124.54 106.95 120.31"/>
    </clipPath>
    <clipPath id="clippath-12">
      <polyline class="st23" points="121.97 126.6 126.3 126.6 126.3 130.93 121.97 130.93 121.97 126.6"/>
    </clipPath>
    <clipPath id="clippath-13">
      <polyline class="st23" points="137.02 140.21 141.35 140.21 141.35 144.54 137.02 144.54 137.02 140.21"/>
    </clipPath>
    <clipPath id="clippath-14">
      <polyline class="st23" points="152.28 151.55 156.61 151.55 156.61 155.88 152.28 155.88 152.28 151.55"/>
    </clipPath>
    <clipPath id="clippath-15">
      <polyline class="st23" points="167.33 156.7 171.66 156.7 171.66 160.42 167.33 160.42 167.33 156.7"/>
    </clipPath>
    <clipPath id="clippath-16">
      <polyline class="st23" points="182.56 158.15 186.71 158.15 186.71 160.42 182.56 160.42 182.56 158.15"/>
    </clipPath>
    <clipPath id="clippath-17">
      <polyline class="st23" points="184.27 159.83 186.85 159.83 186.85 160.42 184.27 160.42 184.27 159.83"/>
    </clipPath>
    <clipPath id="clippath-18">
      <polyline class="st23" points="33.07 5.19 35.64 5.19 35.64 160.42 33.07 160.42 33.07 5.19"/>
    </clipPath>
    <clipPath id="clippath-19">
      <polyline class="st23" points="48.53 5.19 50.25 5.19 50.25 160.42 48.53 160.42 48.53 5.19"/>
    </clipPath>
    <clipPath id="clippath-20">
      <polyline class="st23" points="63.14 6.91 65.71 6.91 65.71 160.42 63.14 160.42 63.14 6.91"/>
    </clipPath>
    <clipPath id="clippath-21">
      <polyline class="st23" points="78.6 13.78 81.18 13.78 81.18 160.42 78.6 160.42 78.6 13.78"/>
    </clipPath>
    <clipPath id="clippath-22">
      <polyline class="st23" points="94.07 31.82 95.78 31.82 95.78 160.42 94.07 160.42 94.07 31.82"/>
    </clipPath>
    <clipPath id="clippath-23">
      <polyline class="st23" points="108.67 63.61 111.25 63.61 111.25 160.42 108.67 160.42 108.67 63.61"/>
    </clipPath>
    <clipPath id="clippath-24">
      <polyline class="st23" points="124.14 101.41 125.85 101.41 125.85 160.42 124.14 160.42 124.14 101.41"/>
    </clipPath>
    <clipPath id="clippath-25">
      <polyline class="st23" points="138.74 133.2 141.32 133.2 141.32 160.42 138.74 160.42 138.74 133.2"/>
    </clipPath>
    <clipPath id="clippath-26">
      <polyline class="st23" points="32.21 4.12 36.4 4.12 36.4 8.45 32.21 8.45 32.21 4.12"/>
    </clipPath>
    <clipPath id="clippath-27">
      <polyline class="st23" points="47.33 4.33 51.66 4.33 51.66 8.45 47.33 8.45 47.33 4.33"/>
    </clipPath>
    <clipPath id="clippath-28">
      <polyline class="st23" points="62.38 5.77 66.71 5.77 66.71 10.1 62.38 10.1 62.38 5.77"/>
    </clipPath>
    <clipPath id="clippath-29">
      <polyline class="st23" points="77.43 12.58 81.76 12.58 81.76 16.91 77.43 16.91 77.43 12.58"/>
    </clipPath>
    <clipPath id="clippath-30">
      <polyline class="st23" points="92.69 30.52 97.02 30.52 97.02 34.84 92.69 34.84 92.69 30.52"/>
    </clipPath>
    <clipPath id="clippath-31">
      <polyline class="st23" points="107.81 62.27 112.07 62.27 112.07 66.6 107.81 66.6 107.81 62.27"/>
    </clipPath>
    <clipPath id="clippath-32">
      <polyline class="st23" points="122.8 100.21 127.12 100.21 127.12 104.54 122.8 104.54 122.8 100.21"/>
    </clipPath>
    <clipPath id="clippath-33">
      <polyline class="st23" points="138.05 131.96 142.38 131.96 142.38 136.29 138.05 136.29 138.05 131.96"/>
    </clipPath>
    <clipPath id="clippath-34">
      <polyline class="st23" points="153.1 150.11 157.44 150.11 157.44 154.44 153.1 154.44 153.1 150.11"/>
    </clipPath>
    <clipPath id="clippath-35">
      <polyline class="st23" points="168.16 156.7 172.49 156.7 172.49 160.42 168.16 160.42 168.16 156.7"/>
    </clipPath>
    <clipPath id="clippath-36">
      <polyline class="st23" points="183.42 158.35 187.71 158.35 187.71 160.42 183.42 160.42 183.42 158.35"/>
    </clipPath>
    <clipPath id="clippath-37">
      <polyline class="st23" points="33.93 152.1 185.13 152.1 185.13 160.42 33.93 160.42 33.93 152.1"/>
    </clipPath>
    <clipPath id="clippath-38">
      <polyline class="st23" points="79.35 180.46 141.69 180.46 141.69 192.79 79.35 192.79 79.35 180.46"/>
    </clipPath>
    <clipPath id="clippath-39">
      <polyline class="st23" points="0 109.38 0 53.87 13.04 53.87 13.04 109.38 0 109.38"/>
    </clipPath>
    <clipPath id="clippath-40">
      <polyline class="st23" points="210.22 151.69 252.81 151.69 252.81 161.56 210.22 161.56 210.22 151.69"/>
    </clipPath>
    <clipPath id="clippath-41">
      <polyline class="st23" points="154.74 3.96 222.3 3.96 222.3 17.29 154.74 17.29 154.74 3.96"/>
    </clipPath>
    <clipPath id="clippath-42">
      <polyline class="st23" points="154.81 18.39 250.24 18.39 250.24 32.86 154.81 32.86 154.81 18.39"/>
    </clipPath>
    <clipPath id="clippath-43">
      <polyline class="st23" points="146.81 23.27 151.07 23.27 151.07 27.6 146.81 27.6 146.81 23.27"/>
    </clipPath>
    <clipPath id="clippath-44">
      <polyline class="st23" points="146.66 7.6 150.99 7.6 150.99 11.93 146.66 11.93 146.66 7.6"/>
    </clipPath>
  </defs>
  <g class="st61">
    <g class="st28">
      <path class="st41" d="M78.15,144.4v8.43h.91v-8.32h-.22c-.24.01-.47-.03-.69-.11"/>
    </g>
    <g class="st55">
      <path class="st41" d="M93.27,130.82v22.01h.91v-21.9h-.02s-.41,0-.41,0c-.16-.02-.33-.05-.48-.11"/>
    </g>
    <g class="st36">
      <polyline class="st41" points="108.39 124.49 108.39 152.83 109.3 152.83 109.3 124.54 108.56 124.54 108.39 124.49"/>
    </g>
    <g class="st10">
      <path class="st41" d="M123.51,130.82v22.01h.91v-21.9h-.02s-.41,0-.41,0c-.16-.02-.33-.05-.48-.11"/>
    </g>
    <g class="st32">
      <path class="st41" d="M138.63,144.4v8.43h.91v-8.32h-.22c-.24.01-.47-.03-.69-.11"/>
    </g>
    <g class="st3">
      <path class="st52" d="M35.53,160.4c0-.55-.21-1.07-.6-1.46-.39-.39-.91-.6-1.46-.6s-1.07.22-1.46.6c-.39.39-.6.91-.6,1.46s.22,1.07.6,1.46c.39.39.91.6,1.46.6s1.07-.22,1.46-.6c.39-.39.6-.91.6-1.46"/>
    </g>
    <g class="st4">
      <path class="st52" d="M50.66,159.04c0-.55-.22-1.07-.6-1.46-.39-.39-.91-.6-1.46-.6s-1.07.21-1.46.6c-.39.39-.6.91-.6,1.46s.22,1.07.6,1.46c.39.39.91.6,1.46.6s1.07-.21,1.46-.6c.39-.39.6-.91.6-1.46"/>
    </g>
    <g class="st34">
      <path class="st52" d="M65.77,153.76c0-.55-.21-1.07-.6-1.46-.39-.39-.91-.6-1.46-.6s-1.07.22-1.46.6c-.39.39-.6.91-.6,1.46s.21,1.07.6,1.46c.39.39.91.6,1.46.6s1.07-.22,1.46-.6c.39-.39.6-.91.6-1.46"/>
    </g>
    <g class="st15">
      <path class="st52" d="M80.9,142.45c0-.55-.22-1.07-.6-1.46-.39-.39-.91-.6-1.46-.6s-1.07.21-1.46.6c-.39.39-.6.91-.6,1.46s.22,1.07.6,1.46c.39.39.91.6,1.46.6s1.07-.22,1.46-.6c.39-.39.6-.91.6-1.46"/>
    </g>
    <g class="st16">
      <path class="st52" d="M96.02,128.88c0-.55-.22-1.07-.6-1.46-.39-.39-.91-.6-1.46-.6s-1.07.21-1.46.6c-.39.39-.6.91-.6,1.46s.22,1.07.6,1.46c.39.39.91.6,1.46.6s1.07-.21,1.46-.6c.39-.39.6-.91.6-1.46"/>
    </g>
    <g class="st22">
      <path class="st52" d="M111.14,122.55c0-.55-.21-1.07-.6-1.46-.39-.39-.91-.6-1.46-.6s-1.07.22-1.46.6c-.39.39-.6.91-.6,1.46s.22,1.07.6,1.46c.39.39.91.6,1.46.6s1.07-.22,1.46-.6c.39-.39.6-.91.6-1.46"/>
    </g>
    <g class="st40">
      <path class="st52" d="M126.26,128.88c0-.55-.22-1.07-.6-1.46-.39-.39-.91-.6-1.46-.6s-1.07.21-1.46.6c-.39.39-.6.91-.6,1.46s.22,1.07.6,1.46c.39.39.91.6,1.46.6s1.07-.21,1.46-.6c.39-.39.6-.91.6-1.46"/>
    </g>
    <g class="st58">
      <path class="st52" d="M141.38,142.45c0-.55-.21-1.07-.6-1.46-.39-.39-.91-.6-1.46-.6s-1.07.21-1.46.6c-.39.39-.6.91-.6,1.46s.21,1.07.6,1.46c.39.39.91.6,1.46.6s1.07-.22,1.46-.6c.39-.39.6-.91.6-1.46"/>
    </g>
    <g class="st42">
      <path class="st52" d="M156.5,153.76c0-.55-.22-1.07-.6-1.46-.39-.39-.91-.6-1.46-.6s-1.07.22-1.46.6c-.39.39-.6.91-.6,1.46s.22,1.07.6,1.46c.39.39.91.6,1.46.6s1.07-.22,1.46-.6c.39-.39.6-.91.6-1.46"/>
    </g>
    <g class="st7">
      <path class="st52" d="M171.62,159.04c0-.55-.22-1.07-.6-1.46-.39-.39-.91-.6-1.46-.6s-1.07.21-1.46.6c-.39.39-.6.91-.6,1.46s.22,1.07.6,1.46c.39.39.91.6,1.46.6s1.07-.21,1.46-.6c.39-.39.6-.91.6-1.46"/>
    </g>
    <g class="st54">
      <path class="st52" d="M186.74,160.4c0-.55-.21-1.07-.6-1.46-.39-.39-.91-.6-1.46-.6s-1.07.22-1.46.6c-.39.39-.6.91-.6,1.46s.22,1.07.6,1.46c.39.39.91.6,1.46.6s1.07-.22,1.46-.6c.39-.39.6-.91.6-1.46"/>
    </g>
    <g class="st5">
      <polyline class="st53" points="186.26 160.42 185.13 160.42 185.13 160.42 184.91 160.42 186.26 160.42 186.26 160.42"/>
    </g>
    <g class="st9">
      <polyline class="st27" points="35.07 5.59 33.69 5.59 33.69 158.35 33.93 158.39 33.93 152.83 35.07 152.83 35.07 5.59"/>
      <polyline class="st53" points="33.69 158.35 33.69 160.42 35.07 160.42 33.93 160.42 33.93 158.39 33.69 158.35"/>
    </g>
    <g class="st45">
      <polyline class="st27" points="50.19 5.74 48.81 5.74 48.81 152.83 50.19 152.83 50.19 5.74"/>
    </g>
    <g class="st33">
      <path class="st27" d="M65.31,7.25h-1.37v144.46c.47.05.9.26,1.24.59l.14.15V7.25"/>
      <path class="st53" d="M63.93,151.71v1.12h1.37v-.37l-.14-.15c-.33-.33-.77-.54-1.24-.59"/>
    </g>
    <g class="st2">
      <path class="st27" d="M80.43,143.76l-.14.15c-.22.22-.48.38-.77.49v8.43h.91v-9.07M80.43,14.04h-1.37v126.36c.47.05.9.26,1.24.59l.14.15V14.04"/>
      <path class="st29" d="M79.52,144.4c-.15.05-.31.09-.47.11v8.32h.47v-8.43"/>
      <path class="st53" d="M79.05,140.4v4.1c.16-.02.32-.05.47-.11.29-.1.55-.27.77-.49l.14-.15v-2.61l-.14-.15c-.33-.34-.77-.54-1.24-.59"/>
    </g>
    <g class="st12">
      <path class="st27" d="M95.55,130.18l-.14.15c-.22.22-.49.39-.77.49v22.01h.91v-22.64M95.55,32.13h-1.37v94.7c.47.05.9.26,1.24.59l.14.15V32.13"/>
      <path class="st29" d="M94.64,130.82c-.15.05-.31.09-.46.11v21.9h.46v-22.01"/>
      <path class="st53" d="M94.18,126.83v4.1c.16-.02.32-.05.46-.11.29-.1.55-.27.77-.49l.14-.15v-2.61l-.14-.15c-.34-.34-.77-.54-1.24-.59"/>
    </g>
    <g class="st13">
      <path class="st27" d="M110.67,123.85l-.14.15c-.22.22-.48.38-.77.49v28.34h.91v-28.97M110.67,63.8h-1.37v56.69c.47.05.9.26,1.24.59l.14.15v-57.44"/>
      <polyline class="st29" points="109.76 124.49 109.6 124.54 109.3 124.54 109.3 152.83 109.76 152.83 109.76 124.49"/>
      <path class="st53" d="M109.3,120.49v4.05h.3l.17-.05c.29-.1.55-.27.77-.49l.14-.15v-2.62l-.14-.15c-.33-.33-.77-.54-1.24-.59"/>
    </g>
    <g class="st60">
      <path class="st27" d="M125.79,130.19l-.14.15c-.22.22-.48.39-.77.49v22h.91v-22.64M125.79,101.8h-1.37v25.03c.47.05.9.26,1.24.59l.14.15v-25.77"/>
      <path class="st29" d="M124.88,130.82c-.15.05-.31.09-.46.1v21.9h.46v-22"/>
      <path class="st53" d="M124.42,126.83v4.1c.16-.02.32-.05.46-.1.29-.1.55-.27.77-.49l.14-.15v-2.61l-.14-.15c-.33-.34-.77-.54-1.24-.59"/>
    </g>
    <g class="st20">
      <path class="st27" d="M140.91,143.76l-.14.15c-.22.22-.48.38-.77.49v8.43h.91v-9.07M140.91,133.47h-1.37v6.93c.47.05.9.26,1.24.59l.14.15v-7.67"/>
      <path class="st29" d="M140,144.4c-.15.05-.31.09-.47.11v8.32h.47v-8.43"/>
      <path class="st53" d="M139.54,140.4v4.1c.16-.02.32-.05.47-.11.29-.1.55-.27.77-.49l.14-.15v-2.61l-.14-.15c-.33-.34-.77-.54-1.24-.59"/>
    </g>
    <g class="st37">
      <path class="st51" d="M36.44,6.28c0-.55-.22-1.07-.6-1.46-.39-.39-.91-.6-1.46-.6s-1.07.22-1.46.6c-.39.39-.6.91-.6,1.46s.21,1.07.6,1.46.91.6,1.46.6,1.07-.22,1.46-.6c.39-.39.6-.91.6-1.46Z"/>
    </g>
    <g class="st21">
      <path class="st51" d="M51.56,6.43c0-.55-.22-1.07-.6-1.46-.39-.39-.91-.6-1.46-.6s-1.07.21-1.46.6c-.39.39-.6.91-.6,1.46s.22,1.07.6,1.46c.39.39.91.6,1.46.6s1.07-.22,1.46-.6c.39-.39.6-.91.6-1.46Z"/>
    </g>
    <g class="st26">
      <path class="st51" d="M66.68,7.94c0-.54-.22-1.07-.6-1.46-.39-.39-.91-.6-1.46-.6s-1.07.22-1.46.6c-.39.39-.6.91-.6,1.46s.22,1.07.6,1.46c.39.39.91.6,1.46.6s1.07-.22,1.46-.6c.39-.39.6-.91.6-1.46Z"/>
    </g>
    <g class="st56">
      <path class="st51" d="M81.8,14.73c0-.55-.21-1.07-.6-1.46-.39-.39-.91-.6-1.46-.6s-1.07.22-1.46.6c-.39.39-.6.91-.6,1.46s.21,1.07.6,1.46c.39.39.91.6,1.46.6s1.07-.22,1.46-.6c.39-.39.6-.91.6-1.46Z"/>
    </g>
    <g class="st44">
      <path class="st51" d="M96.92,32.82c0-.55-.22-1.07-.6-1.46-.39-.39-.91-.6-1.46-.6s-1.07.22-1.46.6c-.39.39-.6.91-.6,1.46s.22,1.07.6,1.46c.39.39.91.6,1.46.6s1.07-.22,1.46-.6c.39-.39.6-.91.6-1.46Z"/>
    </g>
    <g class="st6">
      <path class="st51" d="M112.05,64.49c0-.55-.22-1.07-.6-1.46-.39-.39-.91-.6-1.46-.6s-1.07.21-1.46.6c-.39.39-.6.91-.6,1.46s.21,1.07.6,1.46c.39.39.91.6,1.46.6s1.07-.21,1.46-.6c.39-.39.6-.91.6-1.46Z"/>
    </g>
    <g class="st47">
      <path class="st51" d="M127.17,102.49c0-.54-.22-1.07-.6-1.46-.39-.39-.91-.6-1.46-.6s-1.07.22-1.46.6c-.39.39-.6.91-.6,1.46s.22,1.07.6,1.46c.39.39.91.6,1.46.6s1.07-.22,1.46-.6.6-.91.6-1.46Z"/>
    </g>
    <g class="st8">
      <path class="st51" d="M142.29,134.16c0-.55-.22-1.07-.6-1.46-.39-.39-.91-.6-1.46-.6s-1.07.22-1.46.6c-.39.39-.6.91-.6,1.46s.22,1.07.6,1.46c.39.39.91.6,1.46.6s1.07-.22,1.46-.6c.39-.39.6-.91.6-1.46Z"/>
    </g>
    <g class="st0">
      <path class="st51" d="M157.41,152.25c0-.55-.21-1.07-.6-1.46-.39-.39-.91-.6-1.46-.6s-1.07.21-1.46.6c-.39.39-.6.91-.6,1.46s.21,1.07.6,1.46c.39.39.91.6,1.46.6s1.07-.21,1.46-.6c.39-.39.6-.91.6-1.46"/>
    </g>
    <g class="st25">
      <path class="st51" d="M172.53,159.04c0-.55-.22-1.07-.6-1.46-.39-.39-.91-.6-1.46-.6s-1.07.21-1.46.6c-.39.39-.6.91-.6,1.46s.22,1.07.6,1.46c.39.39.91.6,1.46.6s1.07-.21,1.46-.6c.39-.39.6-.91.6-1.46"/>
    </g>
    <g class="st24">
      <path class="st51" d="M187.65,160.55c0-.55-.22-1.07-.6-1.46-.39-.39-.91-.6-1.46-.6s-1.07.22-1.46.6c-.39.39-.6.91-.6,1.46s.21,1.07.6,1.46c.39.39.91.6,1.46.6s1.07-.22,1.46-.6c.39-.39.6-.91.6-1.46"/>
    </g>
    <g class="st57">
      <path class="st38" d="M48.81,152.83h-13.75v6.26c.3.37.47.83.47,1.31v.02s12.37,0,12.37,0h0s-.85,0-.85,0c-.34-.38-.53-.87-.53-1.38,0-.55.22-1.07.6-1.46.39-.39.91-.6,1.46-.6h.22s0-4.15,0-4.15M61.88,152.83h-11.69v4.91c.23.28.38.61.44.97v.67c-.06.36-.21.69-.44.97v.07h12.84v-4.71c-.29-.1-.55-.27-.77-.49-.39-.39-.6-.91-.6-1.46,0-.33.08-.65.22-.93M78.15,152.83h-12.6c.15.29.22.61.22.93,0,.48-.16.94-.47,1.31v5.35h12.84v-7.59M93.27,152.83h-12.84v7.59h12.84v-7.59M108.39,152.83h-12.84v7.59h12.84v-7.59M123.51,152.83h-12.84v7.59h12.84v-7.59M138.63,152.83h-12.84v7.59h12.84v-7.59M152.6,152.83h-11.69v7.59h12.84v-4.71c-.29-.1-.55-.27-.77-.49-.39-.39-.6-.91-.6-1.46,0-.33.08-.65.22-.93M185.13,152.83h-27.81c-.1.33-.27.63-.52.88-.1.1-.2.18-.31.26-.04.4-.2.79-.46,1.1v5.35h12.84s-.85,0-.85,0c-.34-.38-.53-.87-.53-1.38,0-.55.22-1.07.6-1.46.39-.39.91-.6,1.46-.6.15,0,.31.02.45.05.15-.03.3-.05.46-.05.55,0,1.07.21,1.46.6.29.29.48.66.56,1.05v.81c-.07.36-.24.69-.49.97h-.85s11.46,0,11.46,0v-.02c0-.55.22-1.07.6-1.46.39-.39.91-.6,1.46-.6.15,0,.31.02.45.05v-5.56"/>
      <polyline class="st63" points="48.81 160.42 47.9 160.42 47.9 160.42 48.81 160.42 48.81 160.42"/>
      <path class="st63" d="M63.03,155.71v4.71h.91v-4.6h-.22c-.24.01-.47-.03-.69-.11"/>
      <polyline class="st63" points="79.05 152.83 78.15 152.83 78.15 160.42 79.05 160.42 79.05 152.83"/>
      <polyline class="st63" points="94.18 152.83 93.27 152.83 93.27 160.42 94.18 160.42 94.18 152.83"/>
      <polyline class="st63" points="109.3 152.83 108.39 152.83 108.39 160.42 109.3 160.42 109.3 152.83"/>
      <polyline class="st63" points="124.42 152.83 123.51 152.83 123.51 160.42 124.42 160.42 124.42 152.83"/>
      <polyline class="st63" points="139.54 152.83 138.63 152.83 138.63 160.42 139.54 160.42 139.54 152.83"/>
      <path class="st63" d="M153.75,155.71v4.71h.91v-4.6h-.22c-.24.01-.47-.03-.69-.11"/>
      <polyline class="st63" points="169.78 160.42 168.87 160.42 168.87 160.42 169.78 160.42 169.78 160.42"/>
      <path class="st39" d="M35.07,159.09v1.33h.47v-.02c0-.48-.16-.94-.47-1.31"/>
      <path class="st39" d="M50.19,157.73v2.61c.23-.28.38-.61.44-.97v-.67c-.06-.36-.21-.69-.44-.97M48.59,156.98c-.55,0-1.07.21-1.46.6-.39.39-.6.91-.6,1.46,0,.51.19,1,.53,1.38h1.76v-3.42h-.22"/>
      <path class="st39" d="M63.93,152.83h-2.06c-.15.29-.22.61-.22.93,0,.55.21,1.07.6,1.46.22.22.48.38.77.49.22.08.45.12.69.12h.22v-3M65.55,152.83h-.24v2.24c.3-.37.47-.83.47-1.31,0-.33-.08-.65-.22-.93"/>
      <path class="st39" d="M156.49,153.97c-.14.1-.3.17-.46.23v.87c.26-.32.42-.7.46-1.1M153.37,152.83h-.77c-.15.29-.22.61-.22.93,0,.55.22,1.07.6,1.46.22.22.48.38.77.49.22.08.45.12.69.12h.22v-1.63c-.29-.1-.55-.27-.77-.49-.25-.25-.43-.55-.52-.88"/>
      <path class="st39" d="M169.56,156.98c-.55,0-1.07.21-1.46.6-.39.39-.6.91-.6,1.46,0,.51.19,1,.53,1.38h1.76-.85c-.34-.38-.53-.87-.53-1.38,0-.55.22-1.07.6-1.46.28-.28.63-.47,1.01-.55-.15-.03-.3-.05-.45-.05"/>
      <path class="st39" d="M184.68,158.34c-.55,0-1.07.22-1.46.6-.39.39-.6.91-.6,1.46v.02h2.3s-1.38,0-1.38,0c.03-.5.24-.97.6-1.32.28-.28.63-.47,1-.55v-.15c-.15-.03-.3-.05-.45-.05"/>
      <polyline class="st48" points="185.13 160.42 184.91 160.42 184.91 160.42 185.13 160.42 185.13 160.42"/>
      <path class="st59" d="M35.07,152.83h-1.14v5.56c.38.09.73.28,1,.55l.14.15v-6.26"/>
      <path class="st48" d="M33.93,158.39v2.03h1.14v-1.33l-.14-.15c-.28-.28-.63-.47-1-.55"/>
      <path class="st59" d="M50.19,160.35l-.06.07h-.85s.91,0,.91,0v-.07M50.19,152.83h-1.37v4.16c.47.05.9.26,1.24.59l.14.15v-4.91"/>
      <polyline class="st14" points="49.28 160.42 48.81 160.42 48.81 160.42 49.28 160.42 49.28 160.42"/>
      <path class="st48" d="M48.81,156.99v3.42h1.31l.06-.07v-2.61l-.14-.15c-.33-.34-.77-.54-1.24-.59"/>
      <path class="st59" d="M65.31,155.07l-.14.15c-.22.22-.48.38-.77.49v4.71h.91v-5.35"/>
      <path class="st14" d="M64.4,155.71c-.15.05-.31.09-.47.11v4.6h.47v-4.71"/>
      <path class="st48" d="M65.31,152.83h-1.37v2.99c.16-.02.32-.05.47-.11.29-.1.55-.27.77-.49l.14-.15v-2.24"/>
      <polyline class="st59" points="80.43 152.83 79.52 152.83 79.52 160.42 80.43 160.42 80.43 152.83"/>
      <polyline class="st14" points="79.52 152.83 79.05 152.83 79.05 160.42 79.52 160.42 79.52 152.83"/>
      <polyline class="st59" points="95.55 152.83 94.64 152.83 94.64 160.42 95.55 160.42 95.55 152.83"/>
      <polyline class="st14" points="94.64 152.83 94.18 152.83 94.18 160.42 94.64 160.42 94.64 152.83"/>
      <polyline class="st59" points="110.67 152.83 109.76 152.83 109.76 160.42 110.67 160.42 110.67 152.83"/>
      <polyline class="st14" points="109.76 152.83 109.3 152.83 109.3 160.42 109.76 160.42 109.76 152.83"/>
      <polyline class="st59" points="125.79 152.83 124.88 152.83 124.88 160.42 125.79 160.42 125.79 152.83"/>
      <polyline class="st14" points="124.88 152.83 124.42 152.83 124.42 160.42 124.88 160.42 124.88 152.83"/>
      <polyline class="st59" points="140.91 152.83 140 152.83 140 160.42 140.91 160.42 140.91 152.83"/>
      <polyline class="st14" points="140 152.83 139.54 152.83 139.54 160.42 140 160.42 140 152.83"/>
      <path class="st59" d="M156.03,155.07l-.14.15c-.22.22-.48.38-.77.49v4.71h.91v-5.35"/>
      <path class="st14" d="M155.13,155.71c-.15.05-.31.09-.47.11v4.6h.47v-4.71"/>
      <path class="st48" d="M156.03,154.2c-.22.08-.45.12-.69.12s-.47-.04-.69-.12v1.62c.16-.02.32-.05.47-.11.29-.1.55-.27.77-.49l.14-.15v-.87"/>
      <polyline class="st59" points="171.16 160.42 171.09 160.42 170.25 160.42 170.25 160.42 171.16 160.42 171.16 160.42"/>
      <polyline class="st14" points="170.25 160.42 169.78 160.42 169.78 160.42 170.25 160.42 170.25 160.42"/>
      <path class="st30" d="M157.33,152.83h-3.96c.1.33.27.63.52.88.22.22.48.39.77.49.22.08.45.12.69.12s.47-.04.69-.12c.16-.06.31-.13.46-.23.11-.07.22-.16.31-.26.25-.25.43-.55.52-.88"/>
      <path class="st30" d="M170.47,156.98c-.15,0-.31.02-.46.05-.38.08-.73.27-1.01.55-.39.39-.6.91-.6,1.46,0,.51.19,1,.53,1.38h3.07c.25-.28.41-.61.49-.97v-.81c-.08-.4-.27-.76-.56-1.05-.39-.39-.91-.6-1.46-.6"/>
      <path class="st30" d="M185.13,158.54c-.38.09-.73.28-1,.55-.36.35-.57.83-.6,1.32h1.6v-1.88"/>
      <path class="st11" d="M185.13,153.52h0v-1.37h0v1.37ZM178.26,153.52h3.44v-1.37h-3.44v1.37ZM171.39,153.52h3.44v-1.37h-3.44v1.37ZM164.51,153.52h3.44v-1.37h-3.44v1.37ZM157.64,153.52h3.44v-1.37h-3.44v1.37ZM150.77,153.52h3.44v-1.37h-3.44v1.37ZM143.9,153.52h3.44v-1.37h-3.44v1.37ZM137.02,153.52h3.44v-1.37h-3.44v1.37ZM130.15,153.52h3.44v-1.37h-3.44v1.37ZM123.28,153.52h3.44v-1.37h-3.44v1.37ZM116.4,153.52h3.44v-1.37h-3.44v1.37ZM109.53,153.52h3.44v-1.37h-3.44v1.37ZM102.66,153.52h3.44v-1.37h-3.44v1.37ZM95.78,153.52h3.44v-1.37h-3.44v1.37ZM88.91,153.52h3.44v-1.37h-3.44v1.37ZM82.04,153.52h3.44v-1.37h-3.44v1.37ZM75.16,153.52h3.44v-1.37h-3.44v1.37ZM68.29,153.52h3.44v-1.37h-3.44v1.37ZM61.42,153.52h3.44v-1.37h-3.44v1.37ZM54.55,153.52h3.44v-1.37h-3.44v1.37ZM47.67,153.52h3.44v-1.37h-3.44v1.37ZM40.8,153.52h3.44v-1.37h-3.44v1.37ZM33.93,153.52h3.44v-1.37h-3.44v1.37Z"/>
    </g>
    <polyline class="st43" points="33.84 160.55 33.84 158.18 34.01 158.18 34.01 160.55"/>
    <path d="M32.86,167.86c.23-.43.56-.64,1-.64.5,0,.86.28,1.08.83s.33,1.4.33,2.55c0,.73-.05,1.35-.14,1.84s-.24.85-.44,1.05-.45.31-.75.31-.57-.12-.8-.34c-.22-.23-.38-.61-.48-1.13s-.14-1.1-.14-1.74c0-1.39.11-2.29.34-2.72ZM31.77,172.17c.07.41.2.76.38,1.06s.41.53.69.68c.28.16.6.24.97.24.73,0,1.3-.32,1.71-.95s.62-1.62.62-2.96c0-.83-.07-1.48-.22-1.96s-.39-.84-.73-1.07c-.34-.23-.74-.35-1.19-.35-.4,0-.75.09-1.06.28-.31.19-.57.47-.78.84-.21.37-.34.8-.4,1.28-.06.48-.09,1.02-.09,1.61,0,.46.04.89.11,1.3Z"/>
    <polyline class="st43" points="41.4 160.55 41.4 159.13 41.57 159.13 41.57 160.55"/>
    <polyline class="st43" points="48.96 160.55 48.96 159.13 49.13 159.13 49.13 160.55"/>
    <polyline class="st43" points="56.52 160.55 56.52 159.13 56.69 159.13 56.69 160.55"/>
    <polyline class="st43" points="64.08 160.55 64.08 158.18 64.25 158.18 64.25 160.55"/>
    <path d="M62.94,173.96c.55,0,.99-.01,1.31-.01.16,0,.49,0,.99.02s.87.02,1.11.04l.04-.06c-.02-.1-.03-.23-.03-.4,0-.18,0-.33.03-.45l-.04-.04c-.41.04-.91.07-1.52.07h-1.99l1.57-1.6c.39-.39.69-.72.91-.99s.39-.56.51-.86c.12-.3.17-.59.17-.89,0-.4-.1-.74-.3-1.04-.2-.3-.46-.52-.79-.65-.33-.13-.67-.2-1.02-.2-.3,0-.58.04-.86.13-.27.09-.57.28-.88.59-.03.44-.08.89-.16,1.34l.05.05h.21l.05-.04c.13-.48.23-.77.3-.88.07-.1.2-.2.41-.28.2-.08.44-.13.71-.13.42,0,.76.14,1.01.41.25.27.37.61.37,1.02,0,.35-.1.72-.31,1.13s-.65.97-1.35,1.71l-1.69,1.79v.23l.06.05c.2-.02.57-.03,1.12-.04Z"/>
    <polyline class="st43" points="71.64 160.55 71.64 159.13 71.81 159.13 71.81 160.55"/>
    <polyline class="st43" points="79.2 160.55 79.2 159.13 79.38 159.13 79.38 160.55"/>
    <polyline class="st43" points="86.76 160.55 86.76 159.13 86.94 159.13 86.94 160.55"/>
    <polyline class="st43" points="94.32 160.55 94.32 158.18 94.49 158.18 94.49 160.55"/>
    <path d="M93.53,169.79c.49-.8.9-1.43,1.22-1.89l-.05,3.58h-2.15c.16-.32.49-.88.98-1.69ZM95.18,173.95c.4,0,.89.01,1.48.04l.04-.04v-.22l-.05-.04c-.33,0-.55-.02-.69-.04-.13-.02-.22-.06-.26-.1-.04-.05-.08-.15-.1-.3-.02-.16-.03-.42-.03-.8v-.34h.26c.22,0,.49.01.82.03l.05-.05c0-.11-.01-.22-.02-.33,0-.06,0-.15,0-.28l-.04-.05c-.25.02-.61.03-1.07.03v-1.04l.02-1.42c0-.84.02-1.55.06-2.12l-.13-.06-.71.29c-1.37,2.07-2.34,3.66-2.92,4.75l.09.27c.44-.02.98-.03,1.63-.03h1.1v.37c0,.23-.01.46-.03.66-.02.21-.05.34-.1.39-.04.05-.11.09-.2.11-.09.02-.39.03-.88.05l-.04.04v.22l.04.04c.48-.03,1.04-.04,1.69-.04Z"/>
    <polyline class="st43" points="101.88 160.55 101.88 159.13 102.05 159.13 102.05 160.55"/>
    <polyline class="st43" points="109.44 160.55 109.44 159.13 109.62 159.13 109.62 160.55"/>
    <polyline class="st43" points="117.01 160.55 117.01 159.13 117.18 159.13 117.18 160.55"/>
    <polyline class="st43" points="124.57 160.55 124.57 158.18 124.74 158.18 124.74 160.55"/>
    <path d="M123.39,171.2c.03-.14.1-.27.21-.4.11-.12.26-.23.47-.33.2-.1.4-.15.6-.15.27,0,.51.07.71.21.2.14.36.34.47.6.11.26.16.55.16.87s-.05.64-.16.93c-.11.29-.27.51-.48.65s-.43.21-.68.21c-.29,0-.53-.09-.74-.27-.21-.18-.37-.43-.46-.75s-.14-.65-.14-.99c0-.25.01-.45.04-.59ZM126.05,166.81c-.48.11-.97.32-1.46.63s-.9.67-1.22,1.07c-.32.4-.56.85-.71,1.34-.16.5-.23,1.01-.23,1.55,0,.81.19,1.47.56,1.97s.9.76,1.57.76c.4,0,.75-.08,1.05-.24.3-.16.59-.43.87-.81.27-.38.41-.85.41-1.41,0-.4-.07-.74-.21-1.04-.14-.3-.34-.52-.62-.67-.27-.15-.58-.23-.93-.23-.2,0-.37.02-.52.06-.15.04-.27.09-.36.14s-.23.15-.42.3c-.15.11-.28.21-.39.29.05-.69.23-1.28.55-1.76.32-.49.71-.87,1.18-1.16.47-.29.88-.47,1.25-.55v-.06l-.37-.18Z"/>
    <polyline class="st43" points="132.12 160.55 132.12 159.13 132.3 159.13 132.3 160.55"/>
    <polyline class="st43" points="139.68 160.55 139.68 159.13 139.86 159.13 139.86 160.55"/>
    <polyline class="st43" points="147.25 160.55 147.25 159.13 147.42 159.13 147.42 160.55"/>
    <polyline class="st43" points="154.81 160.55 154.81 158.18 154.98 158.18 154.98 160.55"/>
    <path d="M155.87,171.34c.28.22.42.53.42.93,0,.28-.06.53-.17.76-.12.23-.29.42-.53.55-.23.13-.5.2-.79.2-.42,0-.77-.14-1.04-.41-.27-.27-.4-.65-.4-1.13,0-.34.08-.65.23-.92.15-.27.43-.52.83-.76.69.3,1.17.55,1.45.77ZM153.87,169.08c-.15-.2-.23-.44-.23-.71,0-.36.12-.64.35-.84.23-.2.53-.3.89-.3s.67.11.89.34c.22.22.33.53.33.92,0,.26-.06.51-.19.73-.13.23-.37.45-.73.68-.72-.35-1.16-.62-1.31-.82ZM154.01,170.42c-.39.18-.71.43-.97.75-.26.32-.4.7-.4,1.15,0,.55.19.98.57,1.31.38.33.87.49,1.45.49.4,0,.79-.1,1.17-.29s.68-.47.91-.84c.23-.37.34-.75.34-1.15,0-.29-.06-.55-.18-.77-.12-.22-.28-.4-.47-.53s-.48-.29-.87-.48v-.04c.46-.28.78-.55.96-.82.18-.27.27-.55.27-.85s-.08-.54-.23-.77c-.15-.23-.37-.4-.66-.52s-.59-.17-.92-.17c-.65,0-1.17.18-1.55.55-.38.37-.57.81-.57,1.32,0,.37.1.68.29.93.19.26.48.48.85.68v.04Z"/>
    <polyline class="st43" points="162.37 160.55 162.37 159.13 162.54 159.13 162.54 160.55"/>
    <polyline class="st43" points="169.92 160.55 169.92 159.13 170.1 159.13 170.1 160.55"/>
    <polyline class="st43" points="177.49 160.55 177.49 159.13 177.66 159.13 177.66 160.55"/>
    <polyline class="st43" points="185.05 160.55 185.05 158.18 185.22 158.18 185.22 160.55"/>
    <path d="M186.65,167.86c.22-.43.56-.64,1-.64.5,0,.86.28,1.08.83.22.55.33,1.4.33,2.55,0,.73-.05,1.35-.14,1.84-.09.5-.24.85-.44,1.05-.2.2-.45.31-.75.31s-.58-.12-.8-.34c-.22-.23-.38-.61-.48-1.13s-.14-1.1-.14-1.74c0-1.39.11-2.29.34-2.72ZM185.55,172.17c.07.41.2.76.38,1.06s.41.53.69.68.6.24.97.24c.73,0,1.3-.32,1.71-.95s.62-1.62.62-2.96c0-.83-.07-1.48-.22-1.96s-.39-.84-.74-1.07c-.34-.23-.74-.35-1.19-.35-.4,0-.75.09-1.06.28-.31.19-.57.47-.78.84-.21.37-.34.8-.4,1.28-.06.48-.09,1.02-.09,1.61,0,.46.04.89.11,1.3ZM181.34,167.97l.5-.22c.12-.05.2-.08.22-.09h.06s.09.12.09.12c0,.08,0,.61,0,1.59v1.98s0,.31-.02.89c-.01.58-.03.92-.06,1.04-.02.12-.05.2-.09.24l-.17.09c-.07.02-.36.04-.86.08l-.04.04v.23l.04.04c.89-.03,1.45-.04,1.68-.04.3,0,.82.01,1.56.04l.04-.04v-.23l-.04-.04c-.43-.02-.69-.04-.78-.05l-.2-.08-.1-.17c-.02-.07-.04-.31-.04-.71,0-.4-.02-.84-.02-1.3v-1.87c0-.3.03-1.18.08-2.65l-.13-.05c-.22.11-.59.28-1.1.49s-.94.37-1.27.47l-.05.05.05.41.09.03c.18-.1.38-.2.59-.29Z"/>
    <polyline class="st43" points="30.32 160.46 187.83 160.46 187.83 160.63 30.32 160.63"/>
    <polyline class="st43" points="33.93 160.46 36.29 160.46 36.29 160.63 33.93 160.63"/>
    <polyline class="st43" points="33.93 152.74 35.34 152.74 35.34 152.91 33.93 152.91"/>
    <polyline class="st43" points="33.93 145.02 35.34 145.02 35.34 145.19 33.93 145.19"/>
    <polyline class="st43" points="33.93 137.3 35.34 137.3 35.34 137.47 33.93 137.47"/>
    <polyline class="st43" points="33.93 129.58 36.29 129.58 36.29 129.75 33.93 129.75"/>
    <path d="M27.55,133.55c.55,0,.99-.01,1.31-.01.16,0,.49,0,.99.02s.87.02,1.11.04l.04-.06c-.02-.1-.03-.23-.03-.4,0-.18,0-.33.03-.45l-.04-.04c-.41.04-.91.07-1.52.07h-1.99l1.57-1.6c.39-.39.69-.72.91-.99s.39-.56.51-.86c.12-.3.17-.59.17-.89,0-.4-.1-.74-.3-1.04-.2-.3-.46-.52-.79-.65-.33-.13-.67-.2-1.02-.2-.3,0-.58.04-.86.13-.27.09-.57.28-.88.59-.03.44-.08.89-.16,1.34l.05.05h.21l.05-.04c.13-.48.23-.77.3-.88.07-.1.2-.2.41-.28.2-.08.44-.13.71-.13.42,0,.76.14,1.01.41.25.27.37.61.37,1.02,0,.35-.1.72-.31,1.13s-.65.97-1.35,1.71l-1.69,1.79v.23l.06.05c.2-.02.57-.03,1.12-.04ZM24.48,132.6c-.12.12-.18.26-.18.43s.06.31.18.43c.12.12.26.17.43.17s.31-.06.42-.18.18-.26.18-.42c0-.17-.06-.32-.18-.43-.12-.11-.26-.17-.42-.17s-.31.06-.43.18ZM19.98,127.45c.23-.43.56-.64,1-.64.5,0,.86.28,1.08.83s.33,1.4.33,2.55c0,.73-.05,1.35-.14,1.84s-.24.85-.44,1.05-.45.31-.75.31-.57-.12-.8-.34c-.22-.23-.38-.61-.48-1.13s-.14-1.1-.14-1.74c0-1.39.11-2.29.34-2.72ZM18.88,131.76c.07.41.2.76.38,1.06s.41.53.69.68c.28.16.6.24.97.24.73,0,1.3-.32,1.71-.95s.62-1.62.62-2.96c0-.83-.07-1.48-.22-1.96s-.39-.84-.73-1.07c-.34-.23-.74-.35-1.19-.35-.4,0-.75.09-1.06.28-.31.19-.57.47-.78.84-.21.37-.34.8-.4,1.28-.06.48-.09,1.02-.09,1.61,0,.46.04.89.11,1.3Z"/>
    <polyline class="st43" points="33.93 121.86 35.34 121.86 35.34 122.03 33.93 122.03"/>
    <polyline class="st43" points="33.93 114.13 35.34 114.13 35.34 114.31 33.93 114.31"/>
    <polyline class="st43" points="33.93 106.42 35.34 106.42 35.34 106.59 33.93 106.59"/>
    <polyline class="st43" points="33.93 98.69 36.29 98.69 36.29 98.87 33.93 98.87"/>
    <path d="M27.9,98.49c.49-.8.9-1.43,1.22-1.89l-.05,3.58h-2.15c.16-.32.49-.88.98-1.69ZM29.54,102.65c.4,0,.89.01,1.48.04l.04-.04v-.22l-.05-.04c-.33,0-.55-.02-.69-.04-.13-.02-.22-.06-.26-.1-.04-.05-.08-.15-.1-.3-.02-.16-.03-.42-.03-.8v-.34h.26c.22,0,.49.01.82.03l.05-.05c0-.11-.01-.22-.02-.33,0-.06,0-.15,0-.28l-.04-.05c-.25.02-.61.03-1.07.03v-1.04l.02-1.42c0-.84.02-1.55.06-2.12l-.13-.06-.71.29c-1.37,2.07-2.34,3.66-2.92,4.75l.09.27c.44-.02.98-.03,1.63-.03h1.1v.37c0,.23-.01.46-.03.66-.02.21-.05.34-.1.39-.04.05-.11.09-.2.11-.09.02-.39.03-.88.05l-.04.04v.22l.04.04c.48-.03,1.04-.04,1.69-.04ZM24.48,101.71c-.12.12-.18.26-.18.43s.06.31.18.43c.12.12.26.17.43.17s.31-.06.42-.18.18-.26.18-.42c0-.17-.06-.32-.18-.43-.12-.11-.26-.17-.42-.17s-.31.06-.43.18ZM19.98,96.56c.23-.43.56-.64,1-.64.5,0,.86.28,1.08.83s.33,1.4.33,2.55c0,.73-.05,1.35-.14,1.84s-.24.85-.44,1.05-.45.31-.75.31-.57-.12-.8-.34c-.22-.23-.38-.61-.48-1.13s-.14-1.1-.14-1.74c0-1.39.11-2.29.34-2.72ZM18.88,100.87c.07.41.2.76.38,1.06s.41.53.69.68c.28.16.6.24.97.24.73,0,1.3-.32,1.71-.95s.62-1.62.62-2.96c0-.83-.07-1.48-.22-1.96s-.39-.84-.73-1.07c-.34-.23-.74-.35-1.19-.35-.4,0-.75.09-1.06.28-.31.19-.57.47-.78.84-.21.37-.34.8-.4,1.28-.06.48-.09,1.02-.09,1.61,0,.46.04.89.11,1.3Z"/>
    <polyline class="st43" points="33.93 90.97 35.34 90.97 35.34 91.14 33.93 91.14"/>
    <polyline class="st43" points="33.93 83.25 35.34 83.25 35.34 83.43 33.93 83.43"/>
    <polyline class="st43" points="33.93 75.53 35.34 75.53 35.34 75.7 33.93 75.7"/>
    <polyline class="st43" points="33.93 67.81 36.29 67.81 36.29 67.98 33.93 67.98"/>
    <path d="M27.51,69.02c.03-.14.1-.27.21-.4.11-.12.26-.23.47-.33.2-.1.4-.15.6-.15.27,0,.51.07.71.21.21.14.36.34.47.6.11.26.16.55.16.87s-.05.64-.16.93c-.11.29-.27.51-.48.65s-.43.21-.68.21c-.29,0-.53-.09-.75-.27-.21-.18-.36-.43-.46-.75s-.14-.65-.14-.99c0-.25.02-.45.05-.59ZM30.18,64.63c-.48.11-.97.32-1.46.63s-.9.67-1.22,1.07-.56.85-.71,1.34c-.16.5-.23,1.01-.23,1.55,0,.81.19,1.47.56,1.97s.9.76,1.57.76c.4,0,.75-.08,1.05-.24.31-.16.59-.43.87-.81.27-.38.41-.85.41-1.41,0-.4-.07-.74-.21-1.04s-.34-.52-.62-.67c-.28-.15-.59-.23-.93-.23-.19,0-.37.02-.52.06-.15.04-.27.09-.36.14s-.23.15-.42.3c-.15.11-.28.21-.39.29.05-.69.23-1.28.55-1.76.32-.49.71-.87,1.18-1.16.47-.29.88-.47,1.25-.55v-.06l-.37-.18ZM24.48,70.83c-.12.12-.18.26-.18.43s.06.31.18.43c.12.12.26.17.43.17s.31-.06.42-.18.18-.26.18-.42c0-.17-.06-.32-.18-.43-.12-.11-.26-.17-.42-.17s-.31.06-.43.18ZM19.98,65.68c.23-.43.56-.64,1-.64.5,0,.86.28,1.08.83s.33,1.4.33,2.55c0,.73-.05,1.35-.14,1.84s-.24.85-.44,1.05-.45.31-.75.31-.57-.12-.8-.34c-.22-.23-.38-.61-.48-1.13s-.14-1.1-.14-1.74c0-1.39.11-2.29.34-2.72ZM18.88,69.99c.07.41.2.76.38,1.06s.41.53.69.68c.28.16.6.24.97.24.73,0,1.3-.32,1.71-.95s.62-1.62.62-2.96c0-.83-.07-1.48-.22-1.96s-.39-.84-.73-1.07c-.34-.23-.74-.35-1.19-.35-.4,0-.75.09-1.06.28-.31.19-.57.47-.78.84-.21.37-.34.8-.4,1.28-.06.48-.09,1.02-.09,1.61,0,.46.04.89.11,1.3Z"/>
    <polyline class="st43" points="33.93 60.09 35.34 60.09 35.34 60.26 33.93 60.26"/>
    <polyline class="st43" points="33.93 52.37 35.34 52.37 35.34 52.54 33.93 52.54"/>
    <polyline class="st43" points="33.93 44.65 35.34 44.65 35.34 44.82 33.93 44.82"/>
    <polyline class="st43" points="33.93 36.93 36.29 36.93 36.29 37.1 33.93 37.1"/>
    <path d="M29.75,38.27c.28.22.42.53.42.93,0,.28-.06.53-.17.76-.12.23-.29.42-.53.55s-.5.2-.79.2c-.42,0-.77-.14-1.04-.41-.27-.27-.4-.65-.4-1.13,0-.34.08-.65.23-.92.15-.27.43-.52.83-.76.69.3,1.18.55,1.45.77ZM27.75,36.01c-.15-.2-.23-.44-.23-.71,0-.36.12-.64.35-.84.23-.2.53-.3.89-.3s.67.11.89.34c.22.22.33.53.33.92,0,.26-.06.51-.19.73s-.37.45-.73.68c-.72-.35-1.16-.62-1.31-.82ZM27.89,37.36c-.39.18-.71.43-.97.75-.26.32-.4.7-.4,1.15,0,.55.19.98.57,1.31.38.33.87.49,1.46.49.4,0,.79-.1,1.17-.29.38-.19.68-.47.91-.84.23-.37.34-.75.34-1.15,0-.29-.06-.55-.18-.77-.12-.22-.28-.4-.47-.53-.19-.13-.48-.29-.87-.48v-.04c.46-.28.78-.55.96-.82s.27-.55.27-.85-.08-.54-.23-.77c-.15-.23-.37-.4-.66-.52s-.59-.17-.92-.17c-.65,0-1.17.18-1.55.55-.38.37-.57.81-.57,1.32,0,.37.1.68.29.93.19.26.48.48.85.68v.04ZM24.48,39.94c-.12.12-.18.26-.18.43s.06.31.18.43c.12.12.26.17.43.17s.31-.06.42-.18.18-.26.18-.42c0-.17-.06-.32-.18-.43-.12-.11-.26-.17-.42-.17s-.31.06-.43.18ZM19.98,34.8c.23-.43.56-.64,1-.64.5,0,.86.28,1.08.83s.33,1.4.33,2.55c0,.73-.05,1.35-.14,1.84s-.24.85-.44,1.05-.45.31-.75.31-.57-.12-.8-.34c-.22-.23-.38-.61-.48-1.13s-.14-1.1-.14-1.74c0-1.39.11-2.29.34-2.72ZM18.88,39.1c.07.41.2.76.38,1.06s.41.53.69.68c.28.16.6.24.97.24.73,0,1.3-.32,1.71-.95s.62-1.62.62-2.96c0-.83-.07-1.48-.22-1.96s-.39-.84-.73-1.07c-.34-.23-.74-.35-1.19-.35-.4,0-.75.09-1.06.28-.31.19-.57.47-.78.84-.21.37-.34.8-.4,1.28-.06.48-.09,1.02-.09,1.61,0,.46.04.89.11,1.3Z"/>
    <polyline class="st43" points="33.93 29.21 35.34 29.21 35.34 29.38 33.93 29.38"/>
    <polyline class="st43" points="33.93 21.49 35.34 21.49 35.34 21.66 33.93 21.66"/>
    <polyline class="st43" points="33.93 13.76 35.34 13.76 35.34 13.94 33.93 13.94"/>
    <polyline class="st43" points="33.93 6.04 36.29 6.04 36.29 6.21 33.93 6.21"/>
    <path d="M27.71,3.91c.23-.43.56-.64,1-.64.5,0,.86.28,1.08.83s.33,1.4.33,2.55c0,.73-.05,1.35-.14,1.84s-.24.85-.44,1.05-.45.31-.75.31-.57-.12-.8-.34c-.22-.23-.38-.61-.48-1.13s-.14-1.1-.14-1.74c0-1.39.11-2.29.34-2.72ZM26.61,8.22c.07.41.2.76.38,1.06s.41.53.69.68c.28.16.6.24.97.24.73,0,1.3-.32,1.71-.95s.62-1.62.62-2.96c0-.83-.07-1.48-.22-1.96s-.39-.84-.73-1.07c-.34-.23-.74-.35-1.19-.35-.4,0-.75.09-1.06.28-.31.19-.57.47-.78.84-.21.37-.34.8-.4,1.28-.06.48-.09,1.02-.09,1.61,0,.46.04.89.11,1.3ZM24.48,9.06c-.12.12-.18.26-.18.43s.06.31.18.43c.12.12.26.17.43.17s.31-.06.42-.18.18-.26.18-.42c0-.17-.06-.32-.18-.43-.12-.11-.26-.17-.42-.17s-.31.06-.43.18ZM19.82,4.02l.5-.22c.12-.05.2-.08.22-.09h.06s.09.12.09.12c0,.08,0,.61,0,1.59v1.98s0,.31-.02.89c-.02.58-.03.92-.06,1.04-.02.12-.05.2-.09.24l-.17.09c-.07.02-.36.04-.86.08l-.04.04v.23l.04.04c.89-.03,1.45-.04,1.68-.04.3,0,.82.01,1.56.04l.04-.04v-.23l-.04-.04c-.43-.02-.69-.04-.78-.05l-.2-.08-.1-.17c-.02-.07-.04-.31-.05-.71-.01-.4-.02-.84-.02-1.3v-1.87c0-.3.03-1.18.08-2.65l-.13-.05c-.22.11-.59.28-1.1.49-.51.21-.94.37-1.27.47l-.05.05.05.41.09.03c.18-.1.38-.2.59-.29Z"/>
    <polyline class="st43" points="33.84 160.55 33.84 3.04 34.01 3.04 34.01 160.55"/>
  </g>
  <g class="st1">
    <path d="M86.17,188.5l-.11-.2-.28.19c-.32.21-.56.33-.67.33-.08,0-.14-.1-.14-.22l.02-.22.72-3.01c.08-.32.12-.62.12-.81,0-.25-.12-.39-.34-.39-.46,0-1.21.41-1.85,1.01-.41.38-.72.75-1.29,1.55l.41-1.76c.04-.2.07-.33.07-.45,0-.23-.09-.36-.25-.36-.23,0-.65.24-1.45.81l-.31.22.08.22.35-.23c.39-.26.44-.27.51-.27.12,0,.2.11.2.27,0,.56-.45,2.66-.89,4.22l.08.12c.27-.08.52-.14.76-.19.21-1.37.45-2.08.94-2.84.6-.92,1.41-1.59,1.9-1.59.12,0,.19.1.19.26,0,.2-.03.43-.12.77l-.57,2.31c-.1.4-.14.65-.14.83,0,.27.12.44.33.44.28,0,.68-.23,1.75-1.03Z"/>
    <path d="M92.62,191.09l.02-.22-.46-.02c-.21,0-.29-.07-.29-.24,0-.07,0-.14.03-.28l.73-4.14c.06-.31.1-.36.41-.38l.29-.02.02-.22c-.29.02-.57.02-.85.02-.38,0-.76,0-1.14-.02l-.02.22.38.02c.19,0,.28.07.28.22,0,.11-.03.37-.07.61l-.24,1.39h-2.95l.33-1.82c.06-.31.11-.36.41-.38l.33-.02.02-.22c-.3.02-.61.02-.91.02-.37,0-.75,0-1.12-.02l-.02.22.37.02c.19,0,.28.07.28.22,0,.11-.03.36-.07.61l-.59,3.46c-.13.73-.14.75-.46.77l-.33.02-.03.22c.35-.02.7-.02,1.05-.02.33,0,.65,0,.98.02l.02-.22-.39-.02c-.22-.02-.29-.07-.29-.24,0-.07,0-.13.03-.28l.33-1.97s.89-.02,1.47-.02,1.47.02,1.47.02l-.32,1.71c-.07.39-.13.61-.17.66-.03.06-.12.1-.29.11l-.4.02-.03.22c.37-.02.75-.02,1.12-.02.35,0,.7,0,1.05.02Z"/>
    <path d="M140.04,186.54c0-.84-.14-1.61-.43-2.35-.41-1.06-.86-1.66-2-2.68l-.21.28c.8.94,1.09,1.45,1.36,2.35.22.71.33,1.48.33,2.39s-.11,1.76-.34,2.54c-.28.98-.57,1.51-1.35,2.48l.21.23c.75-.71,1.07-1.07,1.41-1.6.67-1.06,1.01-2.32,1.01-3.63ZM136.7,187.82c0-.34-.09-.59-.31-.81-.28-.28-.64-.4-1.6-.59-.89-.17-1.19-.39-1.19-.89,0-.55.38-.85,1.05-.85.73,0,1.29.38,1.29.89v.25h.31c.01-.63.02-.89.05-1.23-.58-.2-.97-.27-1.42-.27-1.27,0-2.04.6-2.04,1.58,0,.52.24.89.74,1.12.29.13.87.31,1.61.47.49.11.7.34.7.75,0,.59-.55,1-1.32,1s-1.36-.38-1.36-.93v-.45h-.33c0,.75-.03,1.08-.12,1.52.57.19.99.26,1.49.26,1.43,0,2.44-.76,2.44-1.83ZM130.27,187.02c0,.71-.02.82-.16,1.07-.31.51-.84.85-1.35.85-.96,0-1.65-.93-1.65-2.23,0-1.19.59-1.89,1.57-1.89.41,0,.85.14,1.23.4.23.15.36.29.36.38v1.41ZM132.09,189.46v-.33l-.5-.03c-.37-.02-.4-.1-.4-.79v-6.72l-.1-.09c-.48.19-.84.27-1.7.4v.31h.61c.2,0,.27.12.27.45v2c-.61-.26-.92-.35-1.3-.35-.29,0-.56.07-.83.21l-.96.5c-.62.33-1.03,1.12-1.03,2.05,0,.87.29,1.59.83,2.03.37.32.88.46,1.59.46.22,0,.47-.04.52-.09l1.21-1.01-.05,1c.28-.02.56-.03.84-.03.33,0,.67.01.99.03ZM123.85,188.08c-.32.45-1,.86-1.43.86s-.82-.4-.82-.87c0-.4.22-.79.55-.99.27-.16.87-.32,1.7-.44v1.44ZM125.46,189.46v-.33l-.43-.02c-.26-.01-.31-.1-.31-.63v-2c0-1.59-.46-2.17-1.72-2.17-.47,0-.91.12-1.32.37l-.58.35v.71l.28.08.14-.34c.22-.51.34-.59.84-.59,1.03,0,1.45.4,1.48,1.4l-1.08.2c-1.48.27-2.11.79-2.11,1.73,0,.85.51,1.34,1.37,1.34.2,0,.38-.03.46-.09l1.35-.94-.05.93c.28-.02.57-.03.85-.03s.53.01.81.03ZM119.01,186.52l-1.22.03c-.5,0-.79-.01-1.37-.07,0-.51.04-.75.19-1.04.23-.48.7-.77,1.22-.77.36,0,.64.14.84.44.24.36.35.68.35,1.41ZM119.98,186.39c0-1.25-.81-2.07-2.03-2.07-.4,0-.87.14-1.32.4-.89.51-1.25,1.19-1.25,2.32,0,.69.15,1.28.46,1.69.43.58,1.17.92,1.99.92.4,0,.81-.09,1.25-.28.29-.12.52-.26.57-.33l.22-.37-.14-.11c-.7.41-.95.51-1.42.51-.71,0-1.3-.32-1.6-.85-.21-.36-.28-.67-.31-1.3h1.59c.75,0,1.22-.03,1.97-.15.01-.15.02-.25.02-.38ZM114.98,189.46v-.33l-.45-.03c-.37-.02-.4-.09-.4-.79v-2.11c0-1.28-.6-1.9-1.82-1.9-.4,0-.63.08-.86.27l-.83.72v-3.71l-.1-.09c-.48.19-.84.27-1.7.4v.31h.61c.2,0,.27.12.27.45v5.65c0,.69-.03.76-.4.79l-.49.03v.33c.45-.02.91-.03,1.35-.03s.91.01,1.35.03v-.33l-.49-.03c-.37-.02-.4-.1-.4-.79v-2.31c0-.49.72-1.03,1.39-1.03.73,0,1.21.55,1.21,1.39v3.1c.28-.02.58-.03.86-.03.31,0,.6.01.91.03ZM104.18,184.86l-.22,1.52h-1.46l.23-1.52h1.45ZM105.96,184.86v-.61h-1.06l.33-2.28h-.63l-.33,2.28h-1.45l.34-2.28h-.63l-.34,2.28h-1.29v.61h1.2l-.23,1.52h-1.27v.61h1.17l-.36,2.44h.63l.36-2.44h1.46l-.34,2.44h.63l.34-2.44h1.19v-.61h-1.09l.22-1.52h1.15ZM100.21,191.55c-.79-.97-1.07-1.49-1.35-2.48-.23-.79-.34-1.61-.34-2.54s.1-1.68.32-2.39c.27-.91.58-1.42,1.37-2.35l-.21-.28c-1.13,1.01-1.58,1.61-2,2.68-.28.73-.43,1.51-.43,2.33,0,1.17.27,2.27.8,3.25.38.73.73,1.16,1.63,2l.21-.23Z"/>
  </g>
  <g class="st50">
    <path d="M4.26,55h-.31c.02.35.03.69.03,1.04s-.01.69-.03,1.04h.31l.02-.28c.02-.33.1-.47.27-.47.08,0,.16.03.28.08l3.19,1.3c-.41.24-.67.35-1.2.56l-1.83.7c-.19.07-.33.11-.44.11-.17,0-.26-.11-.27-.37l-.02-.41h-.31c.02.43.03.84.03,1.27s-.01.84-.03,1.27h.31l.02-.2c.03-.27.15-.41.53-.57l4.41-1.8.67.25c.92.35,1.43.77,1.43,1.19,0,.17-.09.37-.25.56v.14l.82.26c.11-.21.16-.38.16-.59,0-.73-.39-1.2-1.34-1.61l-5.11-2.21c-.99-.44-1.3-.64-1.32-.92l-.02-.31ZM4.21,61.01l.07,1.49h-.41c-.46,0-.85-.03-1.55-.12l-.12.13c.16.26.31.59.41.93.33-.03.53-.04.86-.04h.76l.38.85h.23l-.04-.83h3.14c.81,0,1.16-.36,1.16-1.2,0-.25-.05-.51-.13-.58l-.58-.52-.19.14c.15.27.21.44.21.64,0,.43-.22.6-.75.6h-2.86v-1.4l-.59-.1ZM2.02,65.53c-.32,0-.55.22-.55.53,0,.34.22.56.55.56s.55-.22.55-.55-.22-.55-.55-.55ZM9,64.71h-.33l-.03.5c-.02.37-.1.4-.79.4h-3.96l-.04.1c.23.56.38,1.12.45,1.7h.31v-.4c0-.44.08-.48.8-.48h2.45c.69,0,.76.03.79.4l.03.5h.33c-.02-.46-.03-.91-.03-1.36s.01-.91.03-1.36ZM9,67.88h-.33l-.03.5c-.02.37-.1.4-.79.4H1.13l-.09.1c.19.48.27.84.4,1.7h.31v-.61c0-.2.12-.27.45-.27h5.65c.69,0,.76.03.79.4l.03.5h.33c-.02-.46-.03-.91-.03-1.36s.01-.91.03-1.36ZM2.02,71.87c-.32,0-.55.22-.55.53,0,.34.22.56.55.56s.55-.22.55-.55-.22-.55-.55-.55ZM9,71.06h-.33l-.03.5c-.02.37-.1.4-.79.4h-3.96l-.04.1c.23.56.38,1.12.45,1.7h.31v-.4c0-.44.08-.48.8-.48h2.45c.69,0,.76.03.79.4l.03.5h.33c-.02-.46-.03-.91-.03-1.36s.01-.91.03-1.36ZM6.47,75.45c1.22,0,2.07.65,2.07,1.58,0,.57-.35,1.37-.59,1.37h-2.35c-.15,0-.35-.11-.55-.28-.32-.31-.5-.73-.5-1.18,0-.92.74-1.49,1.91-1.49ZM6.02,74.5c-1.27,0-2.17.82-2.17,1.97,0,.51.2,1.05.48,1.33l.61.6H1.13l-.09.1c.19.48.27.84.4,1.7h.31v-.61c0-.2.12-.27.45-.27h5.09c.68,0,.97.01,1.73.09l.07-.17-.39-.44c.28-.44.39-.83.39-1.41,0-.43-.08-.71-.24-.94l-.79-1.09c-.35-.48-1.25-.86-2.05-.86ZM7.61,81.97c.45.32.86,1,.86,1.43s-.4.82-.87.82c-.4,0-.79-.22-.99-.55-.16-.27-.32-.87-.44-1.7h1.44ZM9,80.36h-.33l-.02.43c-.01.26-.1.31-.63.31h-2c-1.59,0-2.17.46-2.17,1.72,0,.47.12.91.37,1.32l.35.58h.71l.08-.28-.34-.14c-.51-.22-.59-.34-.59-.84,0-1.03.4-1.45,1.4-1.48l.2,1.08c.27,1.48.79,2.11,1.73,2.11.85,0,1.34-.51,1.34-1.37,0-.2-.03-.38-.09-.46l-.94-1.35.93.05c-.02-.28-.03-.57-.03-.85s.01-.53.03-.81ZM6.47,86.94c1.22,0,2.07.65,2.07,1.58,0,.57-.35,1.37-.59,1.37h-2.35c-.15,0-.35-.11-.55-.28-.32-.31-.5-.73-.5-1.18,0-.92.74-1.49,1.91-1.49ZM6.02,85.99c-1.27,0-2.17.82-2.17,1.97,0,.51.2,1.05.48,1.33l.61.6H1.13l-.09.1c.19.48.27.84.4,1.7h.31v-.61c0-.2.12-.27.45-.27h5.09c.68,0,.97.01,1.73.09l.07-.17-.39-.44c.28-.44.39-.83.39-1.41,0-.43-.08-.71-.24-.94l-.79-1.09c-.35-.48-1.25-.86-2.05-.86ZM6.78,92.9c1.25,0,2.04.56,2.04,1.44,0,1.07-1.05,1.79-2.6,1.79-1.31,0-2.02-.52-2.02-1.48s1.09-1.75,2.57-1.75ZM6.38,91.88c-1.47,0-2.53,1.07-2.53,2.56,0,1.59,1.12,2.69,2.75,2.69,1.54,0,2.59-.97,2.59-2.38,0-1.68-1.17-2.88-2.8-2.88ZM3.97,97.72c-.08.12-.12.32-.12.51,0,.33.17.68.45.91l.72.61h-1.12l-.04.1c.23.56.38,1.12.45,1.7h.31v-.4c0-.44.08-.48.8-.48h2.45c.69,0,.76.03.79.4l.03.5h.33c-.02-.45-.03-.89-.03-1.34,0-.52.01-1.04.03-1.56h-.33l-.03.57c-.03.49-.07.51-.79.51h-1.88c-.65,0-1.2-.44-1.2-.97,0-.33.15-.56.5-.73v-.23l-1.31-.1ZM3.11,102.06c-1.05,0-1.69.85-1.69,2.24,0,.62.03,1.23.03,1.85,0,.67-.01,1.32-.03,1.99h.33l.03-.49c.03-.49.17-.58.98-.58h4.9c.86,0,.95.05.98.56l.03.52h.33c-.02-.53-.03-1.06-.03-1.59s.01-1.07.03-1.6h-.33l-.03.52c-.03.5-.12.56-.98.56H1.96c-.09-.38-.13-.7-.13-1.07,0-1.18.55-1.81,1.58-1.81.98,0,1.67.67,1.67,1.61,0,.23-.02.39-.11.68l.39-.11c.05-.26.07-.41.07-.63,0-1.49-1.01-2.64-2.32-2.64Z"/>
  </g>
  <g class="st31">
    <path d="M217.81,154.45c0-1.1-1.04-1.65-1.99-1.65-.5,0-1,.03-1.51.03-.61,0-1.21-.01-1.81-.03l-.03.31.6.02c.26.01.38.1.38.29,0,.15-.04.49-.1.83l-.81,4.73c-.17.99-.2,1.03-.63,1.06l-.45.03-.04.31c.48-.02.96-.03,1.44-.03.51,0,1.01.01,1.52.03l.03-.31-.71-.03c-.28-.01-.39-.1-.39-.33,0-.1.01-.17.04-.38l.89-5.31s.04-.23.1-.44c.01-.05.04-.16.08-.31.39-.07.57-.09.77-.09,1.11,0,1.65.48,1.65,1.49,0,1.18-.79,2.14-1.75,2.14-.24,0-.46-.05-.86-.21l.02.34c.4.2.62.25.94.25,1.41,0,2.61-1.28,2.61-2.76Z"/>
    <polygon points="228.39 160.28 228.39 159.64 223.61 157.39 228.39 155.16 228.39 154.51 222.51 157.28 222.51 157.51 228.39 160.28"/>
    <path d="M236.53,156.9c0,2.32-.41,3.28-1.42,3.28-1.06,0-1.51-1.1-1.51-3.76,0-2.3.4-3.21,1.44-3.21s1.48,1.07,1.48,3.69ZM237.44,156.36c0-2.39-.71-3.52-2.2-3.52-1.69,0-2.55,1.34-2.55,3.98,0,1.28.23,2.38.61,2.91.38.53.99.84,1.67.84,1.65,0,2.48-1.42,2.48-4.21Z"/>
    <path d="M239.99,159.77c0-.33-.31-.63-.64-.63s-.62.31-.62.63.29.63.61.63c.35,0,.65-.29.65-.63Z"/>
    <path d="M251.37,157.59c0-1.23-.88-2.11-2.13-2.11-.52,0-.92.14-1.59.55l.1-2.28,3.33.05.05-.05c-.02-.2-.02-.26-.02-.43,0-.17,0-.24.02-.44l-.05-.05s-1.16.05-1.9.05-1.9-.05-1.9-.05l-.05.05.02,1.49c0,.96-.03,1.97-.07,2.45l.22.07c.51-.51.81-.67,1.34-.67,1.05,0,1.7.74,1.7,1.92s-.7,1.92-1.89,1.92c-.59,0-1.13-.2-1.29-.48l-.5-.89-.26.15c.25.62.38.97.53,1.45.31.16.74.26,1.21.26.73,0,1.51-.32,2.11-.84.67-.59,1.01-1.33,1.01-2.14ZM245.07,156.9c0,2.32-.41,3.28-1.42,3.28-1.06,0-1.51-1.1-1.51-3.76,0-2.3.4-3.21,1.44-3.21s1.48,1.07,1.48,3.69ZM245.98,156.36c0-2.39-.71-3.52-2.2-3.52-1.69,0-2.55,1.34-2.55,3.98,0,1.28.23,2.38.61,2.91.38.53.99.84,1.67.84,1.65,0,2.48-1.42,2.48-4.21Z"/>
  </g>
  <polyline class="st49" points="208.4 155.65 194.51 155.65 194.32 156.15 194.51 156.65 208.4 156.65 208.4 155.65"/>
  <path class="st49" d="M195.61,152.59c-1.64,1.43-4.28,2.78-6.41,3.57,2.13.79,4.77,2.14,6.41,3.57l-1.11-3.07-.18-.5.18-.5,1.11-3.07"/>
  <path class="st18" d="M252.03,2.13s-.02,0-.02,0h-109.3c-.3,0-.52.03-.65.08-.14.05-.17.09-.17.09v.05s0,31.04,0,31.04v.05s.07.05.07.05c.1.06.35.12.74.12,0,0,.02,0,.02,0h109.29s0,0,0,0c.3,0,.52-.03.65-.08.14-.05.17-.09.17-.09v-.05s0-31.04,0-31.04v-.05s-.07-.05-.07-.05c-.1-.06-.35-.12-.74-.12"/>
  <path class="st46" d="M142.72,2.13h109.29s.02,0,.02,0c.39,0,.64.06.74.12l.06.05v.05s0,31.04,0,31.04v.05s-.04.04-.17.09c-.13.04-.36.08-.65.08,0,0,0,0,0,0h-109.29s-.02,0-.02,0c-.39,0-.64-.06-.74-.12l-.06-.05v-.05s0-31.04,0-31.04v-.05s.04-.04.17-.09c.13-.04.36-.08.65-.08h0M252.01,1.13h-109.29c-.49,0-.89.06-1.24.24-.17.09-.33.22-.44.4-.11.17-.16.38-.16.58v31.04c0,.2.05.4.16.58.17.27.43.42.71.51.28.09.6.12.97.12h109.29c.49,0,.89-.06,1.24-.24.17-.09.33-.22.44-.4.11-.17.16-.38.16-.58V2.34c0-.2-.05-.4-.16-.58-.17-.27-.43-.42-.71-.51-.28-.09-.6-.12-.97-.12"/>
  <g class="st35">
    <path d="M162.33,7.34c0-1.1-1.04-1.65-1.99-1.65-.5,0-1,.03-1.51.03-.61,0-1.21-.01-1.81-.03l-.03.31.6.02c.26.01.38.1.38.29,0,.15-.04.49-.1.83l-.81,4.73c-.17.99-.2,1.03-.63,1.06l-.45.03-.04.31c.48-.02.96-.03,1.44-.03.51,0,1.01.01,1.52.03l.03-.31-.71-.03c-.28-.01-.39-.1-.39-.33,0-.1.01-.17.04-.38l.89-5.31s.04-.23.1-.44c.01-.05.04-.16.08-.31.39-.07.57-.09.77-.09,1.11,0,1.65.48,1.65,1.49,0,1.18-.79,2.14-1.75,2.14-.24,0-.46-.05-.86-.21l.02.34c.4.2.62.25.94.25,1.41,0,2.61-1.28,2.61-2.76Z"/>
    <path d="M166.37,5c-1.66,1.08-2.66,2.95-2.66,5.29,0,2.14,1.04,4.18,2.63,5.27l.14-.19c-1.52-1.31-1.78-2.59-1.78-5.13s.29-3.86,1.78-5.06l-.11-.19Z"/>
    <path d="M172.66,12.31l-.11-.2-.28.19c-.32.21-.56.33-.67.33-.08,0-.14-.1-.14-.22l.02-.22.72-3.01c.08-.32.12-.62.12-.81,0-.25-.12-.39-.34-.39-.46,0-1.21.41-1.85,1.01-.41.38-.72.75-1.29,1.55l.41-1.76c.04-.2.07-.33.07-.45,0-.23-.09-.36-.25-.36-.23,0-.65.24-1.45.81l-.31.22.08.22.35-.23c.39-.26.44-.27.51-.27.12,0,.2.11.2.27,0,.56-.45,2.66-.89,4.22l.08.12c.27-.08.52-.14.76-.19.21-1.37.45-2.08.94-2.84.6-.92,1.41-1.59,1.9-1.59.12,0,.19.1.19.26,0,.2-.03.43-.12.77l-.57,2.31c-.1.4-.14.65-.14.83,0,.27.12.44.33.44.28,0,.68-.23,1.75-1.03Z"/>
    <path d="M179.11,14.9l.02-.22-.46-.02c-.21,0-.29-.07-.29-.24,0-.07,0-.14.03-.28l.73-4.14c.06-.31.1-.36.41-.38l.29-.02.02-.22c-.29.02-.57.02-.85.02-.38,0-.76,0-1.14-.02l-.02.22.38.02c.19,0,.28.07.28.22,0,.11-.03.37-.07.61l-.24,1.39h-2.95l.33-1.82c.06-.31.11-.36.41-.38l.33-.02.02-.22c-.3.02-.61.02-.91.02-.37,0-.75,0-1.12-.02l-.02.22.37.02c.19,0,.28.07.28.22,0,.11-.03.36-.07.61l-.59,3.46c-.13.73-.14.75-.46.77l-.33.02-.03.22c.35-.02.7-.02,1.05-.02.33,0,.65,0,.98.02l.02-.22-.39-.02c-.22-.02-.29-.07-.29-.24,0-.07,0-.13.03-.28l.33-1.97s.89-.02,1.47-.02,1.47.02,1.47.02l-.32,1.71c-.07.39-.13.61-.17.66-.03.06-.12.1-.29.11l-.4.02-.03.22c.37-.02.75-.02,1.12-.02.35,0,.7,0,1.05.02Z"/>
    <rect x="181.51" y="5.12" width=".64" height="10.33"/>
    <path d="M188.46,9.35c0,.88-.44,2.18-1.01,3.01-.22.32-.57.48-1.01.48-.34,0-.61-.08-.89-.25l.2-1.16c.24-1.4,1.41-2.83,2.31-2.83.28,0,.41.24.41.74ZM189.25,9.19c0-.73-.25-1.21-.64-1.21-.46,0-1.03.29-1.6.8-.44.39-.67.67-1.06,1.31l.26-1.3c.03-.19.05-.35.05-.48,0-.21-.09-.33-.24-.33-.23,0-.64.23-1.45.81l-.31.22.08.22.35-.23c.31-.2.43-.25.52-.25.11,0,.19.1.19.25,0,.09-.02.31-.04.41l-.63,3.74-.53,2.63-.09.4.08.07c.23-.08.45-.13.8-.19l.46-2.86.1.03c.28.1.45.12.57.12.61,0,1.87-.8,2.33-1.48.45-.67.82-1.87.82-2.68Z"/>
    <path d="M193.92,11.78h5.88v-.64h-5.88v.64ZM193.92,9.46h5.88v-.65h-5.88v.65Z"/>
    <path d="M207.69,9.79c0,2.32-.41,3.28-1.42,3.28-1.06,0-1.51-1.1-1.51-3.76,0-2.3.4-3.21,1.44-3.21s1.48,1.07,1.48,3.69ZM208.61,9.24c0-2.39-.71-3.52-2.2-3.52-1.69,0-2.55,1.34-2.55,3.98,0,1.28.23,2.38.61,2.91.38.53.99.84,1.67.84,1.65,0,2.48-1.42,2.48-4.21Z"/>
    <path d="M211.16,12.66c0-.33-.31-.63-.64-.63s-.62.31-.62.63.29.63.61.63c.35,0,.65-.29.65-.63Z"/>
    <path d="M217.08,10.48c0-1.23-.88-2.11-2.13-2.11-.52,0-.92.14-1.59.55l.1-2.28,3.33.05.05-.05c-.02-.2-.02-.26-.02-.43,0-.17,0-.24.02-.44l-.05-.05s-1.16.05-1.9.05-1.9-.05-1.9-.05l-.05.05.02,1.49c0,.96-.03,1.97-.07,2.45l.22.07c.51-.51.81-.67,1.34-.67,1.05,0,1.7.74,1.7,1.92s-.7,1.92-1.89,1.92c-.59,0-1.13-.2-1.29-.48l-.5-.89-.26.15c.25.62.38.97.53,1.45.31.16.74.26,1.21.26.73,0,1.51-.32,2.11-.84.67-.59,1.01-1.33,1.01-2.14Z"/>
    <path d="M217.99,5l-.11.19c1.48,1.2,1.78,2.52,1.78,5.06s-.26,3.82-1.78,5.13l.14.19c1.59-1.09,2.63-3.13,2.63-5.27,0-2.35-1-4.21-2.66-5.29Z"/>
  </g>
  <g class="st17">
    <path d="M162.39,21.77c0-1.1-1.04-1.65-1.99-1.65-.5,0-1,.03-1.51.03-.61,0-1.21-.01-1.81-.03l-.03.31.6.02c.26.01.38.1.38.29,0,.15-.04.49-.1.83l-.81,4.73c-.17.99-.2,1.03-.63,1.06l-.45.03-.04.31c.48-.02.96-.03,1.44-.03.51,0,1.01.01,1.52.03l.03-.31-.71-.03c-.28-.01-.39-.1-.39-.33,0-.1.01-.17.04-.38l.89-5.31s.04-.23.1-.44c.01-.05.04-.16.08-.31.39-.07.57-.09.77-.09,1.11,0,1.65.48,1.65,1.49,0,1.18-.79,2.14-1.75,2.14-.24,0-.46-.05-.86-.21l.02.34c.4.2.62.25.94.25,1.41,0,2.61-1.28,2.61-2.76Z"/>
    <path d="M166.44,19.43c-1.66,1.08-2.66,2.95-2.66,5.29,0,2.14,1.04,4.18,2.63,5.27l.14-.19c-1.52-1.31-1.78-2.59-1.78-5.13s.29-3.86,1.78-5.06l-.11-.19Z"/>
    <path d="M172.72,26.74l-.11-.2-.28.19c-.32.21-.56.33-.67.33-.08,0-.14-.1-.14-.22l.02-.22.72-3.01c.08-.32.12-.62.12-.81,0-.25-.12-.39-.34-.39-.46,0-1.21.41-1.85,1.01-.41.38-.72.75-1.29,1.55l.41-1.76c.04-.2.07-.33.07-.45,0-.23-.09-.36-.25-.36-.23,0-.65.24-1.45.81l-.31.22.08.22.35-.23c.39-.26.44-.27.51-.27.12,0,.2.11.2.27,0,.56-.45,2.66-.89,4.22l.08.12c.27-.08.52-.14.76-.19.21-1.37.45-2.08.94-2.84.6-.92,1.41-1.59,1.9-1.59.12,0,.19.1.19.26,0,.2-.03.43-.12.77l-.57,2.31c-.1.4-.14.65-.14.83,0,.27.12.44.33.44.28,0,.68-.23,1.75-1.03Z"/>
    <path d="M176.22,20.17c0-.29-.3-.49-.57-.49-.31,0-.45.3-.54.56l-.88,2.54-.08.29.13.18c.13,0,.27-.18.33-.27l1.37-2.17c.11-.18.24-.41.24-.63Z"/>
    <path d="M179.17,31.82l.02-.22-.46-.02c-.21,0-.29-.07-.29-.24,0-.07,0-.14.03-.28l.73-4.14c.06-.31.1-.36.41-.38l.29-.02.02-.22c-.29.02-.57.02-.85.02-.38,0-.76,0-1.14-.02l-.02.22.38.02c.19,0,.28.07.28.22,0,.11-.03.37-.07.61l-.24,1.39h-2.95l.33-1.82c.06-.31.11-.36.41-.38l.33-.02.02-.22c-.3.02-.61.02-.91.02-.37,0-.75,0-1.12-.02l-.02.22.37.02c.19,0,.28.07.28.22,0,.11-.03.36-.07.61l-.59,3.46c-.13.73-.14.75-.46.77l-.33.02-.03.22c.35-.02.7-.02,1.05-.02.33,0,.65,0,.98.02l.02-.22-.39-.02c-.22-.02-.29-.07-.29-.24,0-.07,0-.13.03-.28l.33-1.97s.89-.02,1.47-.02,1.47.02,1.47.02l-.32,1.71c-.07.39-.13.61-.17.66-.03.06-.12.1-.29.11l-.4.02-.03.22c.37-.02.75-.02,1.12-.02.35,0,.7,0,1.05.02Z"/>
    <path d="M190.37,28.34v-.61h-5.88v.61h5.88ZM190.37,24.08v-.24l-5.88-2.76v.65l4.78,2.24-4.78,2.24v.64l5.88-2.77Z"/>
    <path d="M200.59,26.74l-.11-.2-.28.19c-.32.21-.56.33-.67.33-.08,0-.14-.1-.14-.22l.02-.22.72-3.01c.08-.32.12-.62.12-.81,0-.25-.12-.39-.34-.39-.46,0-1.21.41-1.85,1.01-.41.38-.72.75-1.29,1.55l.41-1.76c.04-.2.07-.33.07-.45,0-.23-.09-.36-.25-.36-.23,0-.65.24-1.45.81l-.31.22.08.22.35-.23c.39-.26.44-.27.51-.27.12,0,.2.11.2.27,0,.56-.45,2.66-.89,4.22l.08.12c.27-.08.52-.14.76-.19.21-1.37.45-2.08.94-2.84.6-.92,1.41-1.59,1.9-1.59.12,0,.19.1.19.26,0,.2-.03.43-.12.77l-.57,2.31c-.1.4-.14.65-.14.83,0,.27.12.44.33.44.28,0,.68-.23,1.75-1.03Z"/>
    <path d="M207.04,29.33l.02-.22-.46-.02c-.21,0-.29-.07-.29-.24,0-.07,0-.14.03-.28l.73-4.14c.06-.31.1-.36.41-.38l.29-.02.02-.22c-.29.02-.57.02-.85.02-.38,0-.76,0-1.14-.02l-.02.22.38.02c.19,0,.28.07.28.22,0,.11-.03.37-.07.61l-.24,1.39h-2.95l.33-1.82c.06-.31.11-.36.41-.38l.33-.02.02-.22c-.3.02-.61.02-.91.02-.37,0-.75,0-1.12-.02l-.02.22.37.02c.19,0,.28.07.28.22,0,.11-.03.36-.07.61l-.59,3.46c-.13.73-.14.75-.46.77l-.33.02-.03.22c.35-.02.7-.02,1.05-.02.33,0,.65,0,.98.02l.02-.22-.39-.02c-.22-.02-.29-.07-.29-.24,0-.07,0-.13.03-.28l.33-1.97s.89-.02,1.47-.02,1.47.02,1.47.02l-.32,1.71c-.07.39-.13.61-.17.66-.03.06-.12.1-.29.11l-.4.02-.03.22c.37-.02.75-.02,1.12-.02.35,0,.7,0,1.05.02Z"/>
    <rect x="209.45" y="19.55" width=".64" height="10.33"/>
    <path d="M216.4,23.79c0,.88-.44,2.18-1.01,3.01-.22.32-.57.48-1.01.48-.34,0-.61-.08-.89-.25l.2-1.16c.24-1.4,1.41-2.83,2.31-2.83.28,0,.41.24.41.74ZM217.18,23.62c0-.73-.25-1.21-.64-1.21-.46,0-1.03.29-1.6.8-.44.39-.67.67-1.06,1.31l.26-1.3c.03-.19.05-.35.05-.48,0-.21-.09-.33-.24-.33-.23,0-.64.23-1.45.81l-.31.22.08.22.35-.23c.31-.2.43-.25.52-.25.11,0,.19.1.19.25,0,.09-.02.31-.04.41l-.63,3.74-.53,2.63-.09.4.08.07c.23-.08.45-.13.8-.19l.46-2.86.1.03c.28.1.45.12.57.12.61,0,1.87-.8,2.33-1.48.45-.67.82-1.87.82-2.68Z"/>
    <path d="M221.85,26.21h5.88v-.64h-5.88v.64ZM221.85,23.9h5.88v-.65h-5.88v.65Z"/>
    <path d="M235.62,24.22c0,2.32-.41,3.28-1.42,3.28-1.06,0-1.51-1.1-1.51-3.76,0-2.3.4-3.21,1.44-3.21s1.48,1.07,1.48,3.69ZM236.54,23.68c0-2.39-.71-3.52-2.2-3.52-1.69,0-2.55,1.34-2.55,3.98,0,1.28.23,2.38.61,2.91.38.53.99.84,1.67.84,1.65,0,2.48-1.42,2.48-4.21Z"/>
    <path d="M239.09,27.09c0-.33-.31-.63-.64-.63s-.62.31-.62.63.29.63.61.63c.35,0,.65-.29.65-.63Z"/>
    <path d="M245.02,24.91c0-1.23-.88-2.11-2.13-2.11-.52,0-.92.14-1.59.55l.1-2.28,3.33.05.05-.05c-.02-.2-.02-.26-.02-.43,0-.17,0-.24.02-.44l-.05-.05s-1.16.05-1.9.05-1.9-.05-1.9-.05l-.05.05.02,1.49c0,.96-.03,1.97-.07,2.45l.22.07c.51-.51.81-.67,1.34-.67,1.05,0,1.7.74,1.7,1.92s-.7,1.92-1.89,1.92c-.59,0-1.13-.2-1.29-.48l-.5-.89-.26.15c.25.62.38.97.53,1.45.31.16.74.26,1.21.26.73,0,1.51-.32,2.11-.84.67-.59,1.01-1.33,1.01-2.14Z"/>
    <path d="M245.92,19.43l-.11.19c1.48,1.2,1.78,2.52,1.78,5.06s-.26,3.82-1.78,5.13l.14.19c1.59-1.09,2.63-3.13,2.63-5.27,0-2.35-1-4.21-2.66-5.29Z"/>
  </g>
  <g class="st19">
    <path class="st51" d="M151.05,25.49c0-.55-.22-1.07-.6-1.46-.39-.39-.91-.6-1.46-.6s-1.07.21-1.46.6c-.39.39-.6.91-.6,1.46s.21,1.07.6,1.46c.39.39.91.6,1.46.6s1.07-.21,1.46-.6c.39-.39.6-.91.6-1.46Z"/>
  </g>
  <g class="st62">
    <path class="st52" d="M151.02,9.88c0-.55-.22-1.07-.6-1.46-.39-.39-.91-.6-1.46-.6s-1.07.21-1.46.6c-.39.39-.6.91-.6,1.46s.22,1.07.6,1.46c.39.39.91.6,1.46.6s1.07-.21,1.46-.6c.39-.39.6-.91.6-1.46"/>
  </g>
</svg>