<?xml version="1.0" encoding="UTF-8"?>
<svg xmlns="http://www.w3.org/2000/svg" version="1.1" xmlns:xlink="http://www.w3.org/1999/xlink" viewBox="0 0 468 192.14">
  <!-- Generator: Adobe Illustrator 29.5.1, SVG Export Plug-In . SVG Version: 2.1.0 Build 141)  -->
  <defs>
    <style>
      .st0 {
        stroke: #ccc;
      }

      .st0, .st1, .st2 {
        fill: none;
      }

      .st0, .st3 {
        opacity: .8;
      }

      .st0, .st2 {
        stroke-miterlimit: 10;
      }

      .st4 {
        clip-path: url(#clippath-34);
      }

      .st5 {
        clip-path: url(#clippath-38);
      }

      .st6 {
        clip-path: url(#clippath-21);
      }

      .st7 {
        clip-path: url(#clippath-6);
      }

      .st8 {
        clip-path: url(#clippath-7);
      }

      .st9 {
        clip-path: url(#clippath-17);
      }

      .st10 {
        font-family: 'NewPXMI_gnu', NewPXMI;
      }

      .st10, .st11, .st12, .st13, .st14 {
        font-size: 10.91px;
      }

      .st15 {
        clip-path: url(#clippath-31);
      }

      .st16 {
        clip-path: url(#clippath-15);
      }

      .st17 {
        clip-path: url(#clippath-33);
      }

      .st18 {
        clip-path: url(#clippath-18);
      }

      .st19 {
        clip-path: url(#clippath-4);
      }

      .st20 {
        fill: gray;
      }

      .st21 {
        clip-path: url(#clippath-22);
      }

      .st22 {
        clip-path: url(#clippath-23);
      }

      .st23 {
        fill: #cab6a5;
      }

      .st24 {
        fill: #231f20;
      }

      .st25 {
        clip-path: url(#clippath-9);
      }

      .st26 {
        clip-path: url(#clippath-10);
      }

      .st27 {
        clip-path: url(#clippath-42);
      }

      .st11 {
        font-family: TeXGyrePagellaX-Regular, 'TeXGyrePagellaX Regular';
      }

      .st28 {
        clip-path: url(#clippath-43);
      }

      .st29 {
        clip-path: url(#clippath-25);
      }

      .st30 {
        clip-path: url(#clippath-27);
      }

      .st31 {
        clip-path: url(#clippath-11);
      }

      .st32 {
        clip-path: url(#clippath-36);
      }

      .st33 {
        clip-path: url(#clippath-35);
      }

      .st34 {
        clip-path: url(#clippath-28);
      }

      .st35 {
        fill: #fee1c8;
      }

      .st36 {
        clip-path: url(#clippath-1);
      }

      .st37 {
        fill: #dfc7b1;
      }

      .st38 {
        fill: #e48025;
      }

      .st3 {
        fill: #fff;
      }

      .st39 {
        clip-path: url(#clippath-40);
      }

      .st12 {
        font-family: NewPXMI, NewPXMI;
      }

      .st40 {
        clip-path: url(#clippath-5);
      }

      .st41 {
        clip-path: url(#clippath-20);
      }

      .st42 {
        clip-path: url(#clippath-8);
      }

      .st43 {
        clip-path: url(#clippath-41);
      }

      .st44 {
        clip-path: url(#clippath-3);
      }

      .st45 {
        clip-path: url(#clippath-26);
      }

      .st46 {
        fill: #dddbdb;
      }

      .st47 {
        fill: #6681aa;
      }

      .st48 {
        clip-path: url(#clippath-12);
      }

      .st13 {
        font-family: pxsys, pxsys;
      }

      .st49 {
        fill: #d8ddec;
      }

      .st50 {
        clip-path: url(#clippath-14);
      }

      .st51 {
        fill: #666766;
      }

      .st52 {
        clip-path: url(#clippath-30);
      }

      .st53 {
        clip-path: url(#clippath-19);
      }

      .st54 {
        font-family: PalatinoLinotype-Roman, 'Palatino Linotype';
        font-size: 10.31px;
      }

      .st55 {
        clip-path: url(#clippath-32);
      }

      .st56 {
        fill: #7e818e;
      }

      .st2 {
        stroke: #231f20;
      }

      .st14 {
        font-family: pxmiaX, pxmiaX;
      }

      .st57 {
        clip-path: url(#clippath-39);
      }

      .st58 {
        fill: #f57f20;
      }

      .st58, .st59 {
        fill-rule: evenodd;
      }

      .st60 {
        fill: #7e8191;
      }

      .st61 {
        clip-path: url(#clippath-16);
      }

      .st62 {
        clip-path: url(#clippath-2);
      }

      .st63 {
        clip-path: url(#clippath-29);
      }

      .st64 {
        letter-spacing: .25em;
      }

      .st65 {
        clip-path: url(#clippath-37);
      }

      .st66 {
        clip-path: url(#clippath-13);
      }

      .st67 {
        fill: #e1c7ad;
      }

      .st68 {
        letter-spacing: 0em;
      }

      .st59 {
        fill: #5e81b6;
      }

      .st69 {
        clip-path: url(#clippath-24);
      }

      .st70 {
        clip-path: url(#clippath);
      }

      .st71 {
        clip-path: url(#clippath-44);
      }

      .st72 {
        opacity: .7;
      }

      .st73 {
        fill: #c3c6d0;
      }
    </style>
    <clipPath id="clippath">
      <polyline class="st1" points="122.41 -.83 294.24 -.83 294.24 177.87 122.41 177.87 122.41 -.83"/>
    </clipPath>
    <clipPath id="clippath-1">
      <polyline class="st1" points="181.69 140.93 184.27 140.93 184.27 160.42 181.69 160.42 181.69 140.93"/>
    </clipPath>
    <clipPath id="clippath-2">
      <polyline class="st1" points="197.16 128.04 198.88 128.04 198.88 160.42 197.16 160.42 197.16 128.04"/>
    </clipPath>
    <clipPath id="clippath-3">
      <polyline class="st1" points="211.76 121.17 214.34 121.17 214.34 160.42 211.76 160.42 211.76 121.17"/>
    </clipPath>
    <clipPath id="clippath-4">
      <polyline class="st1" points="227.23 128.04 228.95 128.04 228.95 160.42 227.23 160.42 227.23 128.04"/>
    </clipPath>
    <clipPath id="clippath-5">
      <polyline class="st1" points="241.83 140.93 244.41 140.93 244.41 160.42 241.83 160.42 241.83 140.93"/>
    </clipPath>
    <clipPath id="clippath-6">
      <polyline class="st1" points="135.3 158.15 139.53 158.15 139.53 160.42 135.3 160.42 135.3 158.15"/>
    </clipPath>
    <clipPath id="clippath-7">
      <polyline class="st1" points="150.25 156.7 154.58 156.7 154.58 160.42 150.25 160.42 150.25 156.7"/>
    </clipPath>
    <clipPath id="clippath-8">
      <polyline class="st1" points="165.51 151.55 169.84 151.55 169.84 155.88 165.51 155.88 165.51 151.55"/>
    </clipPath>
    <clipPath id="clippath-9">
      <polyline class="st1" points="180.56 140.21 184.89 140.21 184.89 144.54 180.56 144.54 180.56 140.21"/>
    </clipPath>
    <clipPath id="clippath-10">
      <polyline class="st1" points="195.61 126.6 199.94 126.6 199.94 130.93 195.61 130.93 195.61 126.6"/>
    </clipPath>
    <clipPath id="clippath-11">
      <polyline class="st1" points="210.9 120.31 215.2 120.31 215.2 124.54 210.9 124.54 210.9 120.31"/>
    </clipPath>
    <clipPath id="clippath-12">
      <polyline class="st1" points="225.92 126.6 230.25 126.6 230.25 130.93 225.92 130.93 225.92 126.6"/>
    </clipPath>
    <clipPath id="clippath-13">
      <polyline class="st1" points="240.97 140.21 245.3 140.21 245.3 144.54 240.97 144.54 240.97 140.21"/>
    </clipPath>
    <clipPath id="clippath-14">
      <polyline class="st1" points="256.23 151.55 260.56 151.55 260.56 155.88 256.23 155.88 256.23 151.55"/>
    </clipPath>
    <clipPath id="clippath-15">
      <polyline class="st1" points="271.28 156.7 275.61 156.7 275.61 160.42 271.28 160.42 271.28 156.7"/>
    </clipPath>
    <clipPath id="clippath-16">
      <polyline class="st1" points="286.51 158.15 290.67 158.15 290.67 160.42 286.51 160.42 286.51 158.15"/>
    </clipPath>
    <clipPath id="clippath-17">
      <polyline class="st1" points="288.23 159.83 290.8 159.83 290.8 160.42 288.23 160.42 288.23 159.83"/>
    </clipPath>
    <clipPath id="clippath-18">
      <polyline class="st1" points="137.02 5.19 139.6 5.19 139.6 160.42 137.02 160.42 137.02 5.19"/>
    </clipPath>
    <clipPath id="clippath-19">
      <polyline class="st1" points="152.48 5.19 154.2 5.19 154.2 160.42 152.48 160.42 152.48 5.19"/>
    </clipPath>
    <clipPath id="clippath-20">
      <polyline class="st1" points="167.09 6.91 169.67 6.91 169.67 160.42 167.09 160.42 167.09 6.91"/>
    </clipPath>
    <clipPath id="clippath-21">
      <polyline class="st1" points="182.55 13.78 185.13 13.78 185.13 160.42 182.55 160.42 182.55 13.78"/>
    </clipPath>
    <clipPath id="clippath-22">
      <polyline class="st1" points="198.02 31.82 199.74 31.82 199.74 160.42 198.02 160.42 198.02 31.82"/>
    </clipPath>
    <clipPath id="clippath-23">
      <polyline class="st1" points="212.62 63.61 215.2 63.61 215.2 160.42 212.62 160.42 212.62 63.61"/>
    </clipPath>
    <clipPath id="clippath-24">
      <polyline class="st1" points="228.09 101.41 229.8 101.41 229.8 160.42 228.09 160.42 228.09 101.41"/>
    </clipPath>
    <clipPath id="clippath-25">
      <polyline class="st1" points="242.69 133.2 245.27 133.2 245.27 160.42 242.69 160.42 242.69 133.2"/>
    </clipPath>
    <clipPath id="clippath-26">
      <polyline class="st1" points="136.16 4.12 140.35 4.12 140.35 8.45 136.16 8.45 136.16 4.12"/>
    </clipPath>
    <clipPath id="clippath-27">
      <polyline class="st1" points="151.28 4.33 155.61 4.33 155.61 8.45 151.28 8.45 151.28 4.33"/>
    </clipPath>
    <clipPath id="clippath-28">
      <polyline class="st1" points="166.33 5.77 170.66 5.77 170.66 10.1 166.33 10.1 166.33 5.77"/>
    </clipPath>
    <clipPath id="clippath-29">
      <polyline class="st1" points="181.39 12.58 185.71 12.58 185.71 16.91 181.39 16.91 181.39 12.58"/>
    </clipPath>
    <clipPath id="clippath-30">
      <polyline class="st1" points="196.64 30.52 200.97 30.52 200.97 34.84 196.64 34.84 196.64 30.52"/>
    </clipPath>
    <clipPath id="clippath-31">
      <polyline class="st1" points="211.76 62.27 216.03 62.27 216.03 66.6 211.76 66.6 211.76 62.27"/>
    </clipPath>
    <clipPath id="clippath-32">
      <polyline class="st1" points="226.75 100.21 231.08 100.21 231.08 104.54 226.75 104.54 226.75 100.21"/>
    </clipPath>
    <clipPath id="clippath-33">
      <polyline class="st1" points="242 131.96 246.33 131.96 246.33 136.29 242 136.29 242 131.96"/>
    </clipPath>
    <clipPath id="clippath-34">
      <polyline class="st1" points="257.06 150.11 261.39 150.11 261.39 154.44 257.06 154.44 257.06 150.11"/>
    </clipPath>
    <clipPath id="clippath-35">
      <polyline class="st1" points="272.11 156.7 276.44 156.7 276.44 160.42 272.11 160.42 272.11 156.7"/>
    </clipPath>
    <clipPath id="clippath-36">
      <polyline class="st1" points="287.37 158.35 291.66 158.35 291.66 160.42 287.37 160.42 287.37 158.35"/>
    </clipPath>
    <clipPath id="clippath-37">
      <polyline class="st1" points="137.88 152.1 289.08 152.1 289.08 160.42 137.88 160.42 137.88 152.1"/>
    </clipPath>
    <clipPath id="clippath-38">
      <rect class="st1" x="183.3" y="180.46" width="62.34" height="12.33"/>
    </clipPath>
    <clipPath id="clippath-39">
      <rect class="st1" x="103.95" y="53.87" width="13.04" height="55.51"/>
    </clipPath>
    <clipPath id="clippath-40">
      <rect class="st1" x="314.18" y="151.69" width="42.59" height="9.87"/>
    </clipPath>
    <clipPath id="clippath-41">
      <rect class="st1" x="258.69" y="3.96" width="67.56" height="13.33"/>
    </clipPath>
    <clipPath id="clippath-42">
      <rect class="st1" x="258.76" y="18.39" width="95.43" height="14.47"/>
    </clipPath>
    <clipPath id="clippath-43">
      <polyline class="st1" points="250.76 23.27 255.03 23.27 255.03 27.6 250.76 27.6 250.76 23.27"/>
    </clipPath>
    <clipPath id="clippath-44">
      <polyline class="st1" points="250.61 7.6 254.94 7.6 254.94 11.93 250.61 11.93 250.61 7.6"/>
    </clipPath>
  </defs>
  <g id="Layer_2">
    <g class="st70">
      <g class="st36">
        <path class="st49" d="M182.1,144.4v8.43h.91v-8.32c-.07,0-.15.01-.22.01-.24,0-.47-.04-.69-.12"/>
      </g>
      <g class="st62">
        <path class="st49" d="M197.22,130.82v22.01h.91v-21.9s-.01,0-.02,0h-.41c-.16-.02-.33-.05-.48-.11"/>
      </g>
      <g class="st44">
        <path class="st49" d="M212.34,124.49v28.34h.91v-28.29h-.74c-.06-.01-.11-.03-.17-.05"/>
      </g>
      <g class="st19">
        <path class="st49" d="M227.46,130.82v22.01h.91v-21.9s-.01,0-.02,0h-.41c-.16-.02-.33-.05-.48-.11"/>
      </g>
      <g class="st40">
        <path class="st49" d="M242.58,144.4v8.43h.91v-8.32c-.07,0-.15.01-.22.01-.24,0-.47-.04-.69-.12"/>
      </g>
      <g class="st7">
        <path class="st59" d="M139.49,160.4c0-.55-.21-1.07-.6-1.46-.39-.39-.91-.6-1.46-.6s-1.07.22-1.46.6c-.39.39-.6.91-.6,1.46s.22,1.07.6,1.46c.39.39.91.6,1.46.6s1.07-.22,1.46-.6c.39-.39.6-.91.6-1.46"/>
      </g>
      <g class="st8">
        <path class="st59" d="M154.61,159.04c0-.55-.22-1.07-.6-1.46-.39-.39-.91-.6-1.46-.6s-1.07.21-1.46.6c-.39.39-.6.91-.6,1.46s.22,1.07.6,1.46c.39.39.91.6,1.46.6s1.07-.21,1.46-.6c.39-.39.6-.91.6-1.46"/>
      </g>
      <g class="st42">
        <path class="st59" d="M169.73,153.76c0-.55-.21-1.07-.6-1.46-.39-.39-.91-.6-1.46-.6s-1.07.22-1.46.6c-.39.39-.6.91-.6,1.46s.21,1.07.6,1.46c.39.39.91.6,1.46.6s1.07-.22,1.46-.6c.39-.39.6-.91.6-1.46"/>
      </g>
      <g class="st25">
        <path class="st59" d="M184.85,142.45c0-.55-.22-1.07-.6-1.46-.39-.39-.91-.6-1.46-.6s-1.07.21-1.46.6c-.39.39-.6.91-.6,1.46s.22,1.07.6,1.46c.39.39.91.6,1.46.6s1.07-.22,1.46-.6c.39-.39.6-.91.6-1.46"/>
      </g>
      <g class="st26">
        <path class="st59" d="M199.97,128.88c0-.55-.22-1.07-.6-1.46-.39-.39-.91-.6-1.46-.6s-1.07.21-1.46.6c-.39.39-.6.91-.6,1.46s.22,1.07.6,1.46c.39.39.91.6,1.46.6s1.07-.21,1.46-.6c.39-.39.6-.91.6-1.46"/>
      </g>
      <g class="st31">
        <path class="st59" d="M215.09,122.55c0-.55-.21-1.07-.6-1.46-.39-.39-.91-.6-1.46-.6s-1.07.22-1.46.6c-.39.39-.6.91-.6,1.46s.22,1.07.6,1.46c.39.39.91.6,1.46.6s1.07-.22,1.46-.6c.39-.39.6-.91.6-1.46"/>
      </g>
      <g class="st48">
        <path class="st59" d="M230.21,128.88c0-.55-.22-1.07-.6-1.46-.39-.39-.91-.6-1.46-.6s-1.07.21-1.46.6c-.39.39-.6.91-.6,1.46s.22,1.07.6,1.46c.39.39.91.6,1.46.6s1.07-.21,1.46-.6c.39-.39.6-.91.6-1.46"/>
      </g>
      <g class="st66">
        <path class="st59" d="M245.33,142.45c0-.55-.21-1.07-.6-1.46-.39-.39-.91-.6-1.46-.6s-1.07.21-1.46.6c-.39.39-.6.91-.6,1.46s.21,1.07.6,1.46c.39.39.91.6,1.46.6s1.07-.22,1.46-.6c.39-.39.6-.91.6-1.46"/>
      </g>
      <g class="st50">
        <path class="st59" d="M260.45,153.76c0-.55-.22-1.07-.6-1.46-.39-.39-.91-.6-1.46-.6s-1.07.22-1.46.6c-.39.39-.6.91-.6,1.46s.22,1.07.6,1.46c.39.39.91.6,1.46.6s1.07-.22,1.46-.6c.39-.39.6-.91.6-1.46"/>
      </g>
      <g class="st16">
        <path class="st59" d="M275.57,159.04c0-.55-.22-1.07-.6-1.46-.39-.39-.91-.6-1.46-.6s-1.07.21-1.46.6c-.39.39-.6.91-.6,1.46s.22,1.07.6,1.46c.39.39.91.6,1.46.6s1.07-.21,1.46-.6c.39-.39.6-.91.6-1.46"/>
      </g>
      <g class="st61">
        <path class="st59" d="M290.69,160.4c0-.55-.21-1.07-.6-1.46-.39-.39-.91-.6-1.46-.6s-1.07.22-1.46.6c-.39.39-.6.91-.6,1.46s.22,1.07.6,1.46c.39.39.91.6,1.46.6s1.07-.22,1.46-.6c.39-.39.6-.91.6-1.46"/>
      </g>
      <g class="st9">
        <polyline class="st60" points="290.21 160.42 289.08 160.42 289.08 160.42 288.86 160.42 288.86 160.42 290.21 160.42 290.21 160.42"/>
      </g>
      <g class="st18">
        <path class="st35" d="M139.02,5.59h-1.37v152.75c.08,0,.16.02.23.04v-5.56h1.14V5.59"/>
        <path class="st60" d="M137.64,158.35v2.07h1.37-1.14v-2.03c-.08-.02-.16-.03-.23-.04"/>
      </g>
      <g class="st53">
        <polyline class="st35" points="154.14 5.74 152.77 5.74 152.77 152.83 154.14 152.83 154.14 5.74"/>
      </g>
      <g class="st41">
        <path class="st35" d="M169.26,7.25h-1.37v144.46c.47.05.9.26,1.24.59.05.05.09.1.14.15V7.25"/>
        <path class="st60" d="M167.88,151.71v1.12h1.37v-.37c-.04-.05-.09-.1-.14-.15-.33-.33-.77-.54-1.24-.59"/>
      </g>
      <g class="st6">
        <path class="st35" d="M184.38,143.76c-.04.05-.09.1-.14.15-.22.22-.48.38-.77.49v8.43h.91v-9.07M184.38,14.04h-1.37v126.36c.47.05.9.26,1.24.59.05.05.09.1.14.15V14.04"/>
        <path class="st37" d="M183.47,144.4c-.15.05-.31.09-.47.11v8.32h.47v-8.43"/>
        <path class="st60" d="M183.01,140.4v4.1c.16-.02.32-.05.47-.11.29-.1.55-.27.77-.49.05-.05.09-.1.14-.15v-2.61c-.04-.05-.09-.1-.14-.15-.33-.34-.77-.54-1.24-.59"/>
      </g>
      <g class="st21">
        <path class="st35" d="M199.5,130.18c-.04.05-.09.1-.14.15-.22.22-.49.39-.77.49v22.01h.91v-22.64M199.5,32.13h-1.37v94.7c.47.05.9.26,1.24.59.05.05.09.1.14.15V32.13"/>
        <path class="st37" d="M198.59,130.82c-.15.05-.31.09-.46.11v21.9h.46v-22.01"/>
        <path class="st60" d="M198.13,126.83v4.1c.16-.02.32-.05.46-.11.29-.1.55-.27.77-.49.05-.05.09-.1.14-.15v-2.61c-.04-.05-.09-.1-.14-.15-.34-.34-.77-.54-1.24-.59"/>
      </g>
      <g class="st22">
        <path class="st35" d="M214.62,123.85c-.04.05-.09.1-.14.15-.22.22-.48.38-.77.49v28.34h.91v-28.97M214.62,63.8h-1.37v56.69c.47.05.9.26,1.24.59.05.05.09.1.14.15v-57.44"/>
        <path class="st37" d="M213.72,124.49c-.05.02-.11.04-.17.05h-.3v28.29h.47v-28.34"/>
        <path class="st60" d="M213.25,120.49v4.05h.3c.06-.01.11-.03.17-.05.29-.1.55-.27.77-.49.05-.05.09-.1.14-.15v-2.62c-.04-.05-.09-.1-.14-.15-.33-.33-.77-.54-1.24-.59"/>
      </g>
      <g class="st69">
        <path class="st35" d="M229.74,130.19c-.04.05-.09.1-.14.15-.22.22-.48.39-.77.49v22h.91v-22.64M229.74,101.8h-1.37v25.03c.47.05.9.26,1.24.59.05.05.09.1.14.15v-25.77"/>
        <path class="st37" d="M228.83,130.82c-.15.05-.31.09-.46.1v21.9h.46v-22"/>
        <path class="st60" d="M228.37,126.83v4.1c.16-.02.32-.05.46-.1.29-.1.55-.27.77-.49.05-.05.09-.1.14-.15v-2.61c-.04-.05-.09-.1-.14-.15-.33-.34-.77-.54-1.24-.59"/>
      </g>
      <g class="st29">
        <path class="st35" d="M244.86,143.76c-.04.05-.09.1-.14.15-.22.22-.48.38-.77.49v8.43h.91v-9.07M244.86,133.47h-1.37v6.93c.47.05.9.26,1.24.59.05.05.09.1.14.15v-7.67"/>
        <path class="st37" d="M243.96,144.4c-.15.05-.31.09-.47.11v8.32h.47v-8.43"/>
        <path class="st60" d="M243.49,140.4v4.1c.16-.02.32-.05.47-.11.29-.1.55-.27.77-.49.05-.05.09-.1.14-.15v-2.61c-.04-.05-.09-.1-.14-.15-.33-.34-.77-.54-1.24-.59"/>
      </g>
      <g class="st45">
        <path class="st58" d="M140.4,6.28c0-.55-.22-1.07-.6-1.46-.39-.39-.91-.6-1.46-.6s-1.07.22-1.46.6c-.39.39-.6.91-.6,1.46s.21,1.07.6,1.46.91.6,1.46.6,1.07-.22,1.46-.6c.39-.39.6-.91.6-1.46Z"/>
      </g>
      <g class="st30">
        <path class="st58" d="M155.51,6.43c0-.55-.22-1.07-.6-1.46-.39-.39-.91-.6-1.46-.6s-1.07.21-1.46.6c-.39.39-.6.91-.6,1.46s.22,1.07.6,1.46c.39.39.91.6,1.46.6s1.07-.22,1.46-.6c.39-.39.6-.91.6-1.46Z"/>
      </g>
      <g class="st34">
        <path class="st58" d="M170.64,7.94c0-.54-.22-1.07-.6-1.46-.39-.39-.91-.6-1.46-.6s-1.07.22-1.46.6c-.39.39-.6.91-.6,1.46s.22,1.07.6,1.46c.39.39.91.6,1.46.6s1.07-.22,1.46-.6c.39-.39.6-.91.6-1.46Z"/>
      </g>
      <g class="st63">
        <path class="st58" d="M185.75,14.73c0-.55-.21-1.07-.6-1.46-.39-.39-.91-.6-1.46-.6s-1.07.22-1.46.6c-.39.39-.6.91-.6,1.46s.21,1.07.6,1.46c.39.39.91.6,1.46.6s1.07-.22,1.46-.6c.39-.39.6-.91.6-1.46Z"/>
      </g>
      <g class="st52">
        <path class="st58" d="M200.88,32.82c0-.55-.22-1.07-.6-1.46-.39-.39-.91-.6-1.46-.6s-1.07.22-1.46.6c-.39.39-.6.91-.6,1.46s.22,1.07.6,1.46c.39.39.91.6,1.46.6s1.07-.22,1.46-.6c.39-.39.6-.91.6-1.46Z"/>
      </g>
      <g class="st15">
        <path class="st58" d="M216,64.49c0-.55-.22-1.07-.6-1.46-.39-.39-.91-.6-1.46-.6s-1.07.21-1.46.6c-.39.39-.6.91-.6,1.46s.21,1.07.6,1.46c.39.39.91.6,1.46.6s1.07-.21,1.46-.6c.39-.39.6-.91.6-1.46Z"/>
      </g>
      <g class="st55">
        <path class="st58" d="M231.12,102.49c0-.54-.22-1.07-.6-1.46-.39-.39-.91-.6-1.46-.6s-1.07.22-1.46.6c-.39.39-.6.91-.6,1.46s.22,1.07.6,1.46c.39.39.91.6,1.46.6s1.07-.22,1.46-.6.6-.91.6-1.46Z"/>
      </g>
      <g class="st17">
        <path class="st58" d="M246.24,134.16c0-.55-.22-1.07-.6-1.46-.39-.39-.91-.6-1.46-.6s-1.07.22-1.46.6c-.39.39-.6.91-.6,1.46s.22,1.07.6,1.46c.39.39.91.6,1.46.6s1.07-.22,1.46-.6c.39-.39.6-.91.6-1.46Z"/>
      </g>
      <g class="st4">
        <path class="st58" d="M261.36,152.25c0-.55-.21-1.07-.6-1.46-.39-.39-.91-.6-1.46-.6s-1.07.21-1.46.6c-.39.39-.6.91-.6,1.46s.21,1.07.6,1.46c.39.39.91.6,1.46.6s1.07-.21,1.46-.6c.39-.39.6-.91.6-1.46"/>
      </g>
      <g class="st33">
        <path class="st58" d="M276.48,159.04c0-.55-.22-1.07-.6-1.46-.39-.39-.91-.6-1.46-.6s-1.07.21-1.46.6c-.39.39-.6.91-.6,1.46s.22,1.07.6,1.46c.39.39.91.6,1.46.6s1.07-.21,1.46-.6c.39-.39.6-.91.6-1.46"/>
      </g>
      <g class="st32">
        <path class="st58" d="M291.6,160.55c0-.55-.22-1.07-.6-1.46-.39-.39-.91-.6-1.46-.6s-1.07.22-1.46.6c-.39.39-.6.91-.6,1.46s.21,1.07.6,1.46c.39.39.91.6,1.46.6s1.07-.22,1.46-.6c.39-.39.6-.91.6-1.46"/>
      </g>
      <g class="st65">
        <path class="st46" d="M152.77,152.83h-13.75v6.26c.3.37.47.83.47,1.31,0,0,0,.01,0,.02h12.37s-.85,0-.85,0c-.34-.38-.53-.87-.53-1.38,0-.55.22-1.07.6-1.46.39-.39.91-.6,1.46-.6.07,0,.15,0,.22.01v-4.16M165.83,152.83h-11.69v4.91c.23.28.38.61.44.97v.67c-.06.36-.21.69-.44.97v.07h12.84v-4.71c-.29-.1-.55-.27-.77-.49-.39-.39-.6-.91-.6-1.46,0-.33.08-.65.22-.93M182.1,152.83h-12.6c.15.29.22.61.22.93,0,.48-.16.94-.47,1.31v5.35h12.84v-7.59M197.22,152.83h-12.84v7.59h12.84v-7.59M212.34,152.83h-12.84v7.59h12.84v-7.59M227.46,152.83h-12.84v7.59h12.84v-7.59M242.58,152.83h-12.84v7.59h12.84v-7.59M256.55,152.83h-11.69v7.59h12.84v-4.71c-.29-.1-.55-.27-.77-.49-.39-.39-.6-.91-.6-1.46,0-.33.08-.65.22-.93M289.08,152.83h-27.81c-.1.33-.27.63-.52.88-.1.1-.2.18-.31.26-.04.4-.2.79-.46,1.1v5.35h12.84s-.85,0-.85,0c-.34-.38-.53-.87-.53-1.38,0-.55.22-1.07.6-1.46.39-.39.91-.6,1.46-.6.15,0,.31.02.45.05.15-.03.3-.05.46-.05.55,0,1.07.21,1.46.6.29.29.48.66.56,1.05v.81c-.07.36-.24.69-.49.97h-.85s11.46,0,11.46,0c0,0,0-.01,0-.02,0-.55.22-1.07.6-1.46.39-.39.91-.6,1.46-.6.15,0,.31.02.45.05v-5.56"/>
        <polyline class="st73" points="152.77 160.42 151.86 160.42 151.86 160.42 152.77 160.42 152.77 160.42"/>
        <path class="st73" d="M166.98,155.71v4.71h.91v-4.6c-.07,0-.15.01-.22.01-.24,0-.47-.04-.69-.12"/>
        <polyline class="st73" points="183.01 152.83 182.1 152.83 182.1 160.42 183.01 160.42 183.01 152.83"/>
        <polyline class="st73" points="198.13 152.83 197.22 152.83 197.22 160.42 198.13 160.42 198.13 152.83"/>
        <polyline class="st73" points="213.25 152.83 212.34 152.83 212.34 160.42 213.25 160.42 213.25 152.83"/>
        <polyline class="st73" points="228.37 152.83 227.46 152.83 227.46 160.42 228.37 160.42 228.37 152.83"/>
        <polyline class="st73" points="243.49 152.83 242.58 152.83 242.58 160.42 243.49 160.42 243.49 152.83"/>
        <path class="st73" d="M257.7,155.71v4.71h.91v-4.6c-.07,0-.15.01-.22.01-.24,0-.47-.04-.69-.12"/>
        <polyline class="st73" points="273.73 160.42 272.82 160.42 272.82 160.42 273.73 160.42 273.73 160.42"/>
        <path class="st47" d="M139.02,159.09v1.33h.47s0-.01,0-.02c0-.48-.16-.94-.47-1.31"/>
        <path class="st47" d="M154.14,157.73v2.61c.23-.28.38-.61.44-.97v-.67c-.06-.36-.21-.69-.44-.97M152.54,156.98c-.55,0-1.07.21-1.46.6-.39.39-.6.91-.6,1.46,0,.51.19,1,.53,1.38h1.76v-3.42c-.07,0-.15-.01-.22-.01"/>
        <path class="st47" d="M167.88,152.83h-2.06c-.15.29-.22.61-.22.93,0,.55.21,1.07.6,1.46.22.22.48.38.77.49.22.08.45.12.69.12.07,0,.15,0,.22-.01v-2.99M169.5,152.83h-.24v2.24c.3-.37.47-.83.47-1.31,0-.33-.08-.65-.22-.93"/>
        <path class="st47" d="M260.44,153.97c-.14.1-.3.17-.46.23v.87c.26-.32.42-.7.46-1.1M257.32,152.83h-.77c-.15.29-.22.61-.22.93,0,.55.22,1.07.6,1.46.22.22.48.38.77.49.22.08.45.12.69.12.07,0,.15,0,.22-.01v-1.62c-.29-.1-.55-.27-.77-.49-.25-.25-.43-.55-.52-.88"/>
        <path class="st47" d="M273.51,156.98c-.55,0-1.07.21-1.46.6-.39.39-.6.91-.6,1.46,0,.51.19,1,.53,1.38h1.76-.85c-.34-.38-.53-.87-.53-1.38,0-.55.22-1.07.6-1.46.28-.28.63-.47,1.01-.55-.15-.03-.3-.05-.45-.05"/>
        <path class="st47" d="M288.63,158.34c-.55,0-1.07.22-1.46.6-.39.39-.6.91-.6,1.46,0,0,0,.01,0,.02h2.3s0,0,0,0h-1.38c.03-.5.24-.97.6-1.32.28-.28.63-.47,1-.55v-.15c-.15-.03-.3-.05-.45-.05"/>
        <polyline class="st56" points="289.08 160.42 288.86 160.42 288.86 160.42 289.08 160.42 289.08 160.42"/>
        <path class="st67" d="M139.02,152.83h-1.14v5.56c.38.09.73.28,1,.55.05.05.09.1.14.15v-6.26"/>
        <path class="st56" d="M137.88,158.39v2.03h1.14v-1.33c-.04-.05-.09-.1-.14-.15-.28-.28-.63-.47-1-.55"/>
        <path class="st67" d="M154.14,160.35s-.04.05-.06.07h-.85s.91,0,.91,0v-.07M154.14,152.83h-1.37v4.16c.47.05.9.26,1.24.59.05.05.09.1.14.15v-4.91"/>
        <polyline class="st23" points="153.23 160.42 152.77 160.42 152.77 160.42 153.23 160.42 153.23 160.42"/>
        <path class="st56" d="M152.77,156.99v3.42h1.31s.04-.05.06-.07v-2.61c-.04-.05-.09-.1-.14-.15-.33-.34-.77-.54-1.24-.59"/>
        <path class="st67" d="M169.26,155.07c-.04.05-.09.1-.14.15-.22.22-.48.38-.77.49v4.71h.91v-5.35"/>
        <path class="st23" d="M168.35,155.71c-.15.05-.31.09-.47.11v4.6h.47v-4.71"/>
        <path class="st56" d="M169.26,152.83h-1.37v2.99c.16-.02.32-.05.47-.11.29-.1.55-.27.77-.49.05-.05.09-.1.14-.15v-2.24"/>
        <polyline class="st67" points="184.38 152.83 183.47 152.83 183.47 160.42 184.38 160.42 184.38 152.83"/>
        <polyline class="st23" points="183.47 152.83 183.01 152.83 183.01 160.42 183.47 160.42 183.47 152.83"/>
        <polyline class="st67" points="199.5 152.83 198.59 152.83 198.59 160.42 199.5 160.42 199.5 152.83"/>
        <polyline class="st23" points="198.59 152.83 198.13 152.83 198.13 160.42 198.59 160.42 198.59 152.83"/>
        <polyline class="st67" points="214.62 152.83 213.72 152.83 213.72 160.42 214.62 160.42 214.62 152.83"/>
        <polyline class="st23" points="213.72 152.83 213.25 152.83 213.25 160.42 213.72 160.42 213.72 152.83"/>
        <polyline class="st67" points="229.74 152.83 228.83 152.83 228.83 160.42 229.74 160.42 229.74 152.83"/>
        <polyline class="st23" points="228.83 152.83 228.37 152.83 228.37 160.42 228.83 160.42 228.83 152.83"/>
        <polyline class="st67" points="244.86 152.83 243.96 152.83 243.96 160.42 244.86 160.42 244.86 152.83"/>
        <polyline class="st23" points="243.96 152.83 243.49 152.83 243.49 160.42 243.96 160.42 243.96 152.83"/>
        <path class="st67" d="M259.98,155.07c-.04.05-.09.1-.14.15-.22.22-.48.38-.77.49v4.71h.91v-5.35"/>
        <path class="st23" d="M259.08,155.71c-.15.05-.31.09-.47.11v4.6h.47v-4.71"/>
        <path class="st56" d="M259.98,154.2c-.22.08-.45.12-.69.12s-.47-.04-.69-.12v1.62c.16-.02.32-.05.47-.11.29-.1.55-.27.77-.49.05-.05.09-.1.14-.15v-.87"/>
        <polyline class="st67" points="275.11 160.42 275.05 160.42 275.05 160.42 274.2 160.42 274.2 160.42 275.11 160.42 275.11 160.42"/>
        <polyline class="st23" points="274.2 160.42 273.73 160.42 273.73 160.42 274.2 160.42 274.2 160.42"/>
        <path class="st38" d="M261.28,152.83h-3.96c.1.33.27.63.52.88.22.22.48.39.77.49.22.08.45.12.69.12s.47-.04.69-.12c.16-.06.31-.13.46-.23.11-.07.22-.16.31-.26.25-.25.43-.55.52-.88"/>
        <path class="st38" d="M274.42,156.98c-.15,0-.31.02-.46.05-.38.08-.73.27-1.01.55-.39.39-.6.91-.6,1.46,0,.51.19,1,.53,1.38h3.07c.25-.28.41-.61.49-.97v-.81c-.08-.4-.27-.76-.56-1.05-.39-.39-.91-.6-1.46-.6"/>
        <path class="st38" d="M289.08,158.54c-.38.09-.73.28-1,.55-.36.35-.57.83-.6,1.32h1.6v-1.88"/>
        <path class="st20" d="M289.08,153.52h0v-1.37h0v1.37ZM282.21,153.52h3.44v-1.37h-3.44v1.37ZM275.34,153.52h3.44v-1.37h-3.44v1.37ZM268.47,153.52h3.44v-1.37h-3.44v1.37ZM261.59,153.52h3.44v-1.37h-3.44v1.37ZM254.72,153.52h3.44v-1.37h-3.44v1.37ZM247.85,153.52h3.44v-1.37h-3.44v1.37ZM240.97,153.52h3.44v-1.37h-3.44v1.37ZM234.1,153.52h3.44v-1.37h-3.44v1.37ZM227.23,153.52h3.44v-1.37h-3.44v1.37ZM220.35,153.52h3.44v-1.37h-3.44v1.37ZM213.48,153.52h3.44v-1.37h-3.44v1.37ZM206.61,153.52h3.44v-1.37h-3.44v1.37ZM199.74,153.52h3.44v-1.37h-3.44v1.37ZM192.86,153.52h3.44v-1.37h-3.44v1.37ZM185.99,153.52h3.44v-1.37h-3.44v1.37ZM179.12,153.52h3.44v-1.37h-3.44v1.37ZM172.24,153.52h3.44v-1.37h-3.44v1.37ZM165.37,153.52h3.44v-1.37h-3.44v1.37ZM158.5,153.52h3.44v-1.37h-3.44v1.37ZM151.62,153.52h3.44v-1.37h-3.44v1.37ZM144.75,153.52h3.44v-1.37h-3.44v1.37ZM137.88,153.52h3.44v-1.37h-3.44v1.37Z"/>
      </g>
      <polyline class="st51" points="137.79 160.55 137.79 158.18 137.96 158.18 137.96 160.55"/>
      <text class="st54" transform="translate(135.3 173.95)"><tspan x="0" y="0">0</tspan></text>
      <polyline class="st51" points="145.35 160.55 145.35 159.13 145.52 159.13 145.52 160.55"/>
      <polyline class="st51" points="152.91 160.55 152.91 159.13 153.09 159.13 153.09 160.55"/>
      <polyline class="st51" points="160.47 160.55 160.47 159.13 160.64 159.13 160.64 160.55"/>
      <polyline class="st51" points="168.03 160.55 168.03 158.18 168.2 158.18 168.2 160.55"/>
      <text class="st54" transform="translate(165.54 173.95)"><tspan x="0" y="0">2</tspan></text>
      <polyline class="st51" points="175.59 160.55 175.59 159.13 175.77 159.13 175.77 160.55"/>
      <polyline class="st51" points="183.15 160.55 183.15 159.13 183.33 159.13 183.33 160.55"/>
      <polyline class="st51" points="190.72 160.55 190.72 159.13 190.89 159.13 190.89 160.55"/>
      <polyline class="st51" points="198.27 160.55 198.27 158.18 198.44 158.18 198.44 160.55"/>
      <text class="st54" transform="translate(195.78 173.95)"><tspan x="0" y="0">4</tspan></text>
      <polyline class="st51" points="205.83 160.55 205.83 159.13 206.01 159.13 206.01 160.55"/>
      <polyline class="st51" points="213.4 160.55 213.4 159.13 213.57 159.13 213.57 160.55"/>
      <polyline class="st51" points="220.96 160.55 220.96 159.13 221.13 159.13 221.13 160.55"/>
      <polyline class="st51" points="228.52 160.55 228.52 158.18 228.69 158.18 228.69 160.55"/>
      <text class="st54" transform="translate(226.02 173.95)"><tspan x="0" y="0">6</tspan></text>
      <polyline class="st51" points="236.07 160.55 236.07 159.13 236.25 159.13 236.25 160.55"/>
      <polyline class="st51" points="243.64 160.55 243.64 159.13 243.81 159.13 243.81 160.55"/>
      <polyline class="st51" points="251.2 160.55 251.2 159.13 251.37 159.13 251.37 160.55"/>
      <polyline class="st51" points="258.76 160.55 258.76 158.18 258.93 158.18 258.93 160.55"/>
      <text class="st54" transform="translate(256.27 173.95)"><tspan x="0" y="0">8</tspan></text>
      <polyline class="st51" points="266.32 160.55 266.32 159.13 266.49 159.13 266.49 160.55"/>
      <polyline class="st51" points="273.88 160.55 273.88 159.13 274.05 159.13 274.05 160.55"/>
      <polyline class="st51" points="281.44 160.55 281.44 159.13 281.61 159.13 281.61 160.55"/>
      <polyline class="st51" points="289 160.55 289 158.18 289.17 158.18 289.17 160.55"/>
      <text class="st54" transform="translate(283.93 173.95)"><tspan x="0" y="0">10</tspan></text>
      <polyline class="st51" points="134.27 160.46 291.78 160.46 291.78 160.63 134.27 160.63"/>
      <polyline class="st51" points="137.88 160.46 140.24 160.46 140.24 160.63 137.88 160.63"/>
      <polyline class="st51" points="137.88 152.74 139.29 152.74 139.29 152.91 137.88 152.91"/>
      <polyline class="st51" points="137.88 145.02 139.29 145.02 139.29 145.19 137.88 145.19"/>
      <polyline class="st51" points="137.88 137.3 139.29 137.3 139.29 137.47 137.88 137.47"/>
      <polyline class="st51" points="137.88 129.58 140.24 129.58 140.24 129.75 137.88 129.75"/>
      <text class="st54" transform="translate(122.41 133.53)"><tspan x="0" y="0">0.2</tspan></text>
      <polyline class="st51" points="137.88 121.86 139.29 121.86 139.29 122.03 137.88 122.03"/>
      <polyline class="st51" points="137.88 114.13 139.29 114.13 139.29 114.31 137.88 114.31"/>
      <polyline class="st51" points="137.88 106.42 139.29 106.42 139.29 106.59 137.88 106.59"/>
      <polyline class="st51" points="137.88 98.69 140.24 98.69 140.24 98.87 137.88 98.87"/>
      <text class="st54" transform="translate(122.41 102.65)"><tspan x="0" y="0">0.4</tspan></text>
      <polyline class="st51" points="137.88 90.97 139.29 90.97 139.29 91.14 137.88 91.14"/>
      <polyline class="st51" points="137.88 83.25 139.29 83.25 139.29 83.43 137.88 83.43"/>
      <polyline class="st51" points="137.88 75.53 139.29 75.53 139.29 75.7 137.88 75.7"/>
      <polyline class="st51" points="137.88 67.81 140.24 67.81 140.24 67.98 137.88 67.98"/>
      <text class="st54" transform="translate(122.41 71.77)"><tspan x="0" y="0">0.6</tspan></text>
      <polyline class="st51" points="137.88 60.09 139.29 60.09 139.29 60.26 137.88 60.26"/>
      <polyline class="st51" points="137.88 52.37 139.29 52.37 139.29 52.54 137.88 52.54"/>
      <polyline class="st51" points="137.88 44.65 139.29 44.65 139.29 44.82 137.88 44.82"/>
      <polyline class="st51" points="137.88 36.93 140.24 36.93 140.24 37.1 137.88 37.1"/>
      <text class="st54" transform="translate(122.41 40.88)"><tspan x="0" y="0">0.8</tspan></text>
      <polyline class="st51" points="137.88 29.21 139.29 29.21 139.29 29.38 137.88 29.38"/>
      <polyline class="st51" points="137.88 21.49 139.29 21.49 139.29 21.66 137.88 21.66"/>
      <polyline class="st51" points="137.88 13.76 139.29 13.76 139.29 13.94 137.88 13.94"/>
      <polyline class="st51" points="137.88 6.04 140.24 6.04 140.24 6.21 137.88 6.21"/>
      <text class="st54" transform="translate(122.41 10)"><tspan x="0" y="0">1.0</tspan></text>
      <polyline class="st51" points="137.79 160.55 137.79 3.04 137.96 3.04 137.96 160.55"/>
    </g>
    <g id="LaTeX2AI">
      <g class="st5">
        <path d="M188.38,189.53c-.21,0-.33-.16-.33-.44,0-.17.04-.43.14-.83l.57-2.31c.09-.35.12-.58.12-.77,0-.16-.07-.26-.19-.26-.49,0-1.3.68-1.9,1.59-.49.75-.73,1.46-.94,2.84-.24.04-.49.11-.76.19l-.08-.12c.45-1.56.89-3.67.89-4.22,0-.16-.08-.27-.2-.27-.08,0-.12.01-.51.27l-.35.23-.08-.22.31-.22c.8-.57,1.22-.81,1.45-.81.16,0,.25.13.25.36,0,.12-.02.25-.07.45l-.41,1.76c.57-.8.87-1.17,1.29-1.55.64-.6,1.4-1.01,1.85-1.01.22,0,.34.14.34.39,0,.19-.04.49-.12.81l-.72,3.01s-.02.16-.02.22c0,.12.07.22.14.22.11,0,.35-.12.67-.33l.28-.19.11.2c-1.07.8-1.46,1.03-1.75,1.03Z"/>
        <path d="M195.52,191.07c-.37,0-.75,0-1.12.02l.03-.22.4-.02c.18,0,.26-.05.29-.11.04-.05.1-.27.17-.66l.32-1.71s-.89-.02-1.47-.02-1.47.02-1.47.02l-.33,1.97c-.02.15-.03.21-.03.28,0,.17.07.22.29.24l.39.02-.02.22c-.33-.02-.65-.02-.98-.02-.35,0-.7,0-1.05.02l.03-.22.33-.02c.32-.02.33-.04.46-.77l.59-3.46c.04-.25.07-.49.07-.61,0-.14-.09-.21-.28-.22l-.37-.02.02-.22c.37.02.75.02,1.12.02.3,0,.61,0,.91-.02l-.02.22-.33.02c-.29.02-.35.07-.41.38l-.33,1.82h2.95l.24-1.39c.04-.24.07-.49.07-.61,0-.14-.09-.21-.28-.22l-.38-.02.02-.22c.37.02.76.02,1.14.02.29,0,.57,0,.85-.02l-.02.22-.29.02c-.3.02-.35.07-.41.38l-.73,4.14c-.02.14-.03.21-.03.28,0,.17.08.23.29.24l.46.02-.02.22c-.35-.02-.7-.02-1.05-.02Z"/>
        <text class="st11" transform="translate(200.88 189.43)"><tspan x="0" y="0">(</tspan><tspan class="st64" x="3.1" y="0">#</tspan><tspan class="st68" x="11.24" y="0">heads)</tspan></text>
      </g>
    </g>
    <g id="LaTeX2AI1" data-name="LaTeX2AI">
      <g class="st57">
        <text class="st11" transform="translate(112.92 108.39) rotate(-90)"><tspan x="0" y="0">Probability</tspan></text>
      </g>
    </g>
    <g id="LaTeX2AI2" data-name="LaTeX2AI">
      <g class="st39">
        <path d="M319.15,157.21c-.32,0-.53-.05-.94-.25l-.02-.34c.4.15.62.21.86.21.96,0,1.75-.96,1.75-2.14,0-1.01-.53-1.49-1.65-1.49-.21,0-.38.02-.77.09-.03.14-.07.25-.08.31-.05.21-.1.44-.1.44l-.89,5.31c-.03.21-.04.28-.04.38,0,.23.11.32.39.33l.71.03-.03.31c-.5-.02-1-.03-1.52-.03-.48,0-.96.01-1.44.03l.04-.31.45-.03c.44-.03.46-.07.63-1.06l.81-4.73c.05-.34.1-.68.1-.83,0-.2-.12-.28-.38-.29l-.6-.02.03-.31c.6.02,1.2.03,1.81.03.5,0,1-.03,1.51-.03.95,0,1.99.55,1.99,1.65,0,1.48-1.2,2.76-2.61,2.76Z"/>
        <text class="st10" transform="translate(325.75 160.35)"><tspan x="0" y="0">&lt;</tspan></text>
        <text class="st11" transform="translate(336.32 160.35)"><tspan x="0" y="0">0</tspan></text>
        <text class="st12" transform="translate(341.95 160.35)"><tspan x="0" y="0">.</tspan></text>
        <text class="st11" transform="translate(344.86 160.35)"><tspan x="0" y="0">05</tspan></text>
      </g>
    </g>
    <g class="st72">
      <g>
        <line class="st2" x1="312.35" y1="156.15" x2="297.68" y2="156.15"/>
        <path class="st24" d="M293.16,156.15c2.13-.79,4.77-2.14,6.41-3.57l-1.29,3.57,1.29,3.57c-1.64-1.43-4.28-2.78-6.41-3.57Z"/>
      </g>
    </g>
  </g>
  <g id="Layer_5">
    <g>
      <path class="st3" d="M246.67,34.1h109.29c.89,0,1.33-.24,1.33-.71V2.34c0-.48-.44-.71-1.33-.71h-109.29c-.89,0-1.33.24-1.33.71v31.04c0,.48.44.71,1.33.71Z"/>
      <path class="st0" d="M246.67,34.1h109.29c.89,0,1.33-.24,1.33-.71V2.34c0-.48-.44-.71-1.33-.71h-109.29c-.89,0-1.33.24-1.33.71v31.04c0,.48.44.71,1.33.71Z"/>
    </g>
  </g>
  <g id="Layer_4">
    <g id="LaTeX2AI3" data-name="LaTeX2AI">
      <g class="st43">
        <path d="M263.67,10.1c-.32,0-.53-.05-.94-.25l-.02-.34c.4.15.62.21.86.21.96,0,1.75-.96,1.75-2.14,0-1.01-.53-1.49-1.65-1.49-.21,0-.38.02-.77.09-.03.14-.07.25-.08.31-.05.21-.1.44-.1.44l-.89,5.31c-.03.21-.04.28-.04.38,0,.23.11.32.39.33l.71.03-.03.31c-.5-.02-1-.03-1.52-.03-.48,0-.96.01-1.44.03l.04-.31.45-.03c.44-.03.46-.07.63-1.06l.81-4.73c.05-.34.1-.68.1-.83,0-.2-.12-.28-.38-.29l-.6-.02.03-.31c.6.02,1.2.03,1.81.03.5,0,1-.03,1.51-.03.95,0,1.99.55,1.99,1.65,0,1.48-1.2,2.76-2.61,2.76Z"/>
        <text class="st13" transform="translate(267.01 13.24)"><tspan x="0" y="0">(</tspan></text>
        <path d="M274.86,13.34c-.21,0-.33-.16-.33-.44,0-.17.04-.43.14-.83l.57-2.31c.09-.35.12-.58.12-.77,0-.16-.07-.26-.19-.26-.49,0-1.3.68-1.9,1.59-.49.75-.73,1.46-.94,2.84-.24.04-.49.11-.76.19l-.08-.12c.45-1.56.89-3.67.89-4.22,0-.16-.08-.27-.2-.27-.08,0-.12.01-.51.27l-.35.23-.08-.22.31-.22c.8-.57,1.22-.81,1.45-.81.16,0,.25.13.25.36,0,.12-.02.25-.07.45l-.41,1.76c.57-.8.87-1.17,1.29-1.55.64-.6,1.4-1.01,1.85-1.01.22,0,.34.14.34.39,0,.19-.04.49-.12.81l-.72,3.01s-.02.16-.02.22c0,.12.07.22.14.22.11,0,.35-.12.67-.33l.28-.19.11.2c-1.07.8-1.46,1.03-1.75,1.03Z"/>
        <path d="M282.01,14.87c-.37,0-.75,0-1.12.02l.03-.22.4-.02c.18,0,.26-.05.29-.11.04-.05.1-.27.17-.66l.32-1.71s-.89-.02-1.47-.02-1.47.02-1.47.02l-.33,1.97c-.02.15-.03.21-.03.28,0,.17.07.22.29.24l.39.02-.02.22c-.33-.02-.65-.02-.98-.02-.35,0-.7,0-1.05.02l.03-.22.33-.02c.32-.02.33-.04.46-.77l.59-3.46c.04-.25.07-.49.07-.61,0-.14-.09-.21-.28-.22l-.37-.02.02-.22c.37.02.75.02,1.12.02.3,0,.61,0,.91-.02l-.02.22-.33.02c-.29.02-.35.07-.41.38l-.33,1.82h2.95l.24-1.39c.04-.24.07-.49.07-.61,0-.14-.09-.21-.28-.22l-.38-.02.02-.22c.37.02.76.02,1.14.02.29,0,.57,0,.85-.02l-.02.22-.29.02c-.3.02-.35.07-.41.38l-.73,4.14c-.02.14-.03.21-.03.28,0,.17.08.23.29.24l.46.02-.02.22c-.35-.02-.7-.02-1.05-.02Z"/>
        <text class="st13" transform="translate(284.64 13.24)"><tspan x="0" y="0">|</tspan></text>
        <path d="M292.38,11.87c-.47.69-1.72,1.48-2.33,1.48-.12,0-.28-.02-.57-.12l-.1-.03-.46,2.86c-.35.05-.57.11-.8.19l-.08-.07.09-.4.53-2.63.63-3.74c.02-.11.04-.33.04-.41,0-.15-.08-.25-.19-.25-.1,0-.22.05-.52.25l-.35.23-.08-.22.31-.22c.81-.58,1.22-.81,1.45-.81.15,0,.24.12.24.33,0,.13-.02.29-.05.48l-.26,1.3c.39-.64.62-.92,1.06-1.31.58-.5,1.15-.8,1.6-.8.39,0,.64.48.64,1.21,0,.82-.37,2.02-.82,2.68ZM292,8.61c-.91,0-2.07,1.43-2.31,2.83l-.2,1.16c.28.17.56.25.89.25.45,0,.8-.16,1.01-.48.58-.83,1.01-2.13,1.01-3.01,0-.5-.13-.74-.41-.74Z"/>
        <text class="st14" transform="translate(297.16 13.24)"><tspan x="0" y="0">=</tspan></text>
        <text class="st11" transform="translate(307.49 13.24)"><tspan x="0" y="0">0</tspan></text>
        <text class="st12" transform="translate(313.12 13.24)"><tspan x="0" y="0">.</tspan></text>
        <text class="st11" transform="translate(316.03 13.24)"><tspan x="0" y="0">5</tspan></text>
        <text class="st13" transform="translate(321.48 13.24)"><tspan x="0" y="0">)</tspan></text>
      </g>
    </g>
    <g id="LaTeX2AI4" data-name="LaTeX2AI">
      <g class="st27">
        <path d="M263.73,24.53c-.32,0-.53-.05-.94-.25l-.02-.34c.4.15.62.21.86.21.96,0,1.75-.96,1.75-2.14,0-1.01-.53-1.49-1.65-1.49-.21,0-.38.02-.77.09-.03.14-.07.25-.08.31-.05.21-.1.44-.1.44l-.89,5.31c-.03.21-.04.28-.04.38,0,.23.11.32.39.33l.71.03-.03.31c-.5-.02-1-.03-1.52-.03-.48,0-.96.01-1.44.03l.04-.31.45-.03c.44-.03.46-.07.63-1.06l.81-4.73c.05-.34.1-.68.1-.83,0-.2-.12-.28-.38-.29l-.6-.02.03-.31c.6.02,1.2.03,1.81.03.5,0,1-.03,1.51-.03.95,0,1.99.55,1.99,1.65,0,1.48-1.2,2.76-2.61,2.76Z"/>
        <text class="st13" transform="translate(267.07 27.67)"><tspan x="0" y="0">(</tspan></text>
        <path d="M274.93,27.77c-.21,0-.33-.16-.33-.44,0-.17.04-.43.14-.83l.57-2.31c.09-.35.12-.58.12-.77,0-.16-.07-.26-.19-.26-.49,0-1.3.68-1.9,1.59-.49.75-.73,1.46-.94,2.84-.24.04-.49.11-.76.19l-.08-.12c.45-1.56.89-3.67.89-4.22,0-.16-.08-.27-.2-.27-.08,0-.12.01-.51.27l-.35.23-.08-.22.31-.22c.8-.57,1.22-.81,1.45-.81.16,0,.25.13.25.36,0,.12-.02.25-.07.45l-.41,1.76c.57-.8.87-1.17,1.29-1.55.64-.6,1.4-1.01,1.85-1.01.22,0,.34.14.34.39,0,.19-.04.49-.12.81l-.72,3.01s-.02.16-.02.22c0,.12.07.22.14.22.11,0,.35-.12.67-.33l.28-.19.11.2c-1.07.8-1.46,1.03-1.75,1.03Z"/>
        <path d="M279.93,20.8l-1.37,2.17c-.06.1-.21.27-.33.27-.08,0-.13-.1-.13-.18,0-.08.06-.23.08-.29l.88-2.54c.09-.25.23-.56.54-.56.27,0,.57.21.57.49,0,.22-.13.45-.24.63Z"/>
        <path d="M282.07,31.79c-.37,0-.75,0-1.12.02l.03-.22.4-.02c.18,0,.26-.05.29-.11.04-.05.1-.27.17-.66l.32-1.71s-.89-.02-1.47-.02-1.47.02-1.47.02l-.33,1.97c-.02.15-.03.21-.03.28,0,.17.07.22.29.24l.39.02-.02.22c-.33-.02-.65-.02-.98-.02-.35,0-.7,0-1.05.02l.03-.22.33-.02c.32-.02.33-.04.46-.77l.59-3.46c.04-.25.07-.49.07-.61,0-.14-.09-.21-.28-.22l-.37-.02.02-.22c.37.02.75.02,1.12.02.3,0,.61,0,.91-.02l-.02.22-.33.02c-.29.02-.35.07-.41.38l-.33,1.82h2.95l.24-1.39c.04-.24.07-.49.07-.61,0-.14-.09-.21-.28-.22l-.38-.02.02-.22c.37.02.76.02,1.14.02.29,0,.57,0,.85-.02l-.02.22-.29.02c-.3.02-.35.07-.41.38l-.73,4.14c-.02.14-.03.21-.03.28,0,.17.08.23.29.24l.46.02-.02.22c-.35-.02-.7-.02-1.05-.02Z"/>
        <text class="st13" transform="translate(287.73 27.67)"><tspan x="0" y="0">≥</tspan></text>
        <path d="M302.79,27.77c-.21,0-.33-.16-.33-.44,0-.17.04-.43.14-.83l.57-2.31c.09-.35.12-.58.12-.77,0-.16-.07-.26-.19-.26-.49,0-1.3.68-1.9,1.59-.49.75-.73,1.46-.94,2.84-.24.04-.49.11-.76.19l-.08-.12c.45-1.56.89-3.67.89-4.22,0-.16-.08-.27-.2-.27-.08,0-.12.01-.51.27l-.35.23-.08-.22.31-.22c.8-.57,1.22-.81,1.45-.81.16,0,.25.13.25.36,0,.12-.02.25-.07.45l-.41,1.76c.57-.8.87-1.17,1.29-1.55.64-.6,1.4-1.01,1.85-1.01.22,0,.34.14.34.39,0,.19-.04.49-.12.81l-.72,3.01s-.02.16-.02.22c0,.12.07.22.14.22.11,0,.35-.12.67-.33l.28-.19.11.2c-1.07.8-1.46,1.03-1.75,1.03Z"/>
        <path d="M309.94,29.31c-.37,0-.75,0-1.12.02l.03-.22.4-.02c.18,0,.26-.05.29-.11.04-.05.1-.27.17-.66l.32-1.71s-.89-.02-1.47-.02-1.47.02-1.47.02l-.33,1.97c-.02.15-.03.21-.03.28,0,.17.07.22.29.24l.39.02-.02.22c-.33-.02-.65-.02-.98-.02-.35,0-.7,0-1.05.02l.03-.22.33-.02c.32-.02.33-.04.46-.77l.59-3.46c.04-.25.07-.49.07-.61,0-.14-.09-.21-.28-.22l-.37-.02.02-.22c.37.02.75.02,1.12.02.3,0,.61,0,.91-.02l-.02.22-.33.02c-.29.02-.35.07-.41.38l-.33,1.82h2.95l.24-1.39c.04-.24.07-.49.07-.61,0-.14-.09-.21-.28-.22l-.38-.02.02-.22c.37.02.76.02,1.14.02.29,0,.57,0,.85-.02l-.02.22-.29.02c-.3.02-.35.07-.41.38l-.73,4.14c-.02.14-.03.21-.03.28,0,.17.08.23.29.24l.46.02-.02.22c-.35-.02-.7-.02-1.05-.02Z"/>
        <text class="st13" transform="translate(312.57 27.67)"><tspan x="0" y="0">|</tspan></text>
        <path d="M320.31,26.31c-.47.69-1.72,1.48-2.33,1.48-.12,0-.28-.02-.57-.12l-.1-.03-.46,2.86c-.35.05-.57.11-.8.19l-.08-.07.09-.4.53-2.63.63-3.74c.02-.11.04-.33.04-.41,0-.15-.08-.25-.19-.25-.1,0-.22.05-.52.25l-.35.23-.08-.22.31-.22c.81-.58,1.22-.81,1.45-.81.15,0,.24.12.24.33,0,.13-.02.29-.05.48l-.26,1.3c.39-.64.62-.92,1.06-1.31.58-.5,1.15-.8,1.6-.8.39,0,.64.48.64,1.21,0,.82-.37,2.02-.82,2.68ZM319.93,23.05c-.91,0-2.07,1.43-2.31,2.83l-.2,1.16c.28.17.56.25.89.25.45,0,.8-.16,1.01-.48.58-.83,1.01-2.13,1.01-3.01,0-.5-.13-.74-.41-.74Z"/>
        <text class="st14" transform="translate(325.09 27.67)"><tspan x="0" y="0">=</tspan></text>
        <text class="st11" transform="translate(335.42 27.67)"><tspan x="0" y="0">0</tspan></text>
        <text class="st12" transform="translate(341.05 27.67)"><tspan x="0" y="0">.</tspan></text>
        <text class="st11" transform="translate(343.96 27.67)"><tspan x="0" y="0">5</tspan></text>
        <text class="st13" transform="translate(349.41 27.67)"><tspan x="0" y="0">)</tspan></text>
      </g>
    </g>
    <g class="st28">
      <path class="st58" d="M255,25.49c0-.55-.22-1.07-.6-1.46-.39-.39-.91-.6-1.46-.6s-1.07.21-1.46.6c-.39.39-.6.91-.6,1.46s.21,1.07.6,1.46c.39.39.91.6,1.46.6s1.07-.21,1.46-.6c.39-.39.6-.91.6-1.46Z"/>
    </g>
    <g class="st71">
      <path class="st59" d="M254.97,9.88c0-.55-.22-1.07-.6-1.46-.39-.39-.91-.6-1.46-.6s-1.07.21-1.46.6c-.39.39-.6.91-.6,1.46s.22,1.07.6,1.46c.39.39.91.6,1.46.6s1.07-.21,1.46-.6c.39-.39.6-.91.6-1.46"/>
    </g>
  </g>
</svg>