<?xml version="1.0" encoding="UTF-8"?>
<svg id="Layer_1" xmlns="http://www.w3.org/2000/svg" version="1.1" xmlns:xlink="http://www.w3.org/1999/xlink" viewBox="0 0 237.96 130.78">
  <!-- Generator: Adobe Illustrator 29.5.1, SVG Export Plug-In . SVG Version: 2.1.0 Build 141)  -->
  <defs>
    <style>
      .st0 {
        fill: #6a7051;
      }

      .st1 {
        fill: #8cae89;
      }

      .st2 {
        fill: #487748;
      }

      .st3 {
        fill: #c29f93;
      }

      .st4 {
        fill: #312727;
      }

      .st5 {
        fill: #3f3d3d;
      }

      .st6 {
        fill: #698863;
      }

      .st7 {
        fill: #4c633a;
      }

      .st8 {
        fill: none;
      }

      .st9 {
        fill: #212d20;
      }

      .st10 {
        fill: #1d291c;
      }

      .st11 {
        fill: #272821;
      }

      .st12 {
        fill: #47824e;
      }

      .st13 {
        fill: #ed2024;
      }

      .st13, .st14 {
        fill-rule: evenodd;
      }

      .st15 {
        fill: #a16d5f;
      }

      .st16 {
        fill: #262c23;
      }

      .st17 {
        fill: #461111;
      }

      .st18 {
        fill: #586f48;
      }

      .st19 {
        fill: #151348;
      }

      .st20 {
        fill: #8d5143;
      }

      .st21 {
        fill: #1a2a1a;
      }

      .st14 {
        fill: #3953a4;
      }

      .st22 {
        fill: #373130;
      }

      .st23 {
        fill: #5b935f;
      }

      .st24 {
        clip-path: url(#clippath);
      }

      .st25 {
        fill: #2c342a;
      }
    </style>
    <clipPath id="clippath">
      <polyline class="st8" points="42.1 0 183.23 0 183.23 130.78 42.1 130.78 42.1 0"/>
    </clipPath>
  </defs>
  <g class="st24">
    <path class="st1" d="M84.02,110.01l-2.4,9.22c.31.05.62.13.91.24l2.42-9.31-.93-.15M86.57,103.94l-.99.05-1.33,5.11.93.15,1.38-5.31M88.26,97.45l-1.04.26-1.39,5.33.99-.05,1.44-5.54M90.35,89.44l-1.11.52-1.75,6.71,1.04-.26,1.81-6.97M90.28,85.98l-.73,2.8,1.11-.52.46-1.75-.84-.53M91.23,82.31l-.71,2.71.84.53.73-2.79-.85-.45M92.92,79.57l-1.19.84-.25.97.85.45.59-2.26M95.46,66.06l-3.37,12.93,1.19-.84,2.83-10.88-.66-1.22M96.12,63.55l-.31,1.18.66,1.22.6-2.32-.95-.08M98.84,56.83l-.99.06-1.49,5.73.95.08,1.53-5.87M99.86,49.19l-1.76,6.74.99-.06,1.51-5.82-.75-.87M101.45,43.06l-1.31,5.02.75.87,1.47-5.65c-.31-.05-.62-.13-.91-.24"/>
    <path class="st3" d="M112.93,114.67l-13.2,3.53-14.36,4.59.02.13.47-.03,29.34-7.84-2.27-.37M128.96,110.39l-13.81,3.69,2.27.37,12.62-3.37-1.08-.68M141.8,106.96l-11.6,3.1,1.08.68,10.63-2.84-.11-.94M142.84,106.68l-.12.03.11.94h.04s-.03-.98-.03-.98M145.9,105.86l-2.13.57.03.96,1.89-.51.2-1.03M147.71,105.38l-.79.21-.2,1.03.65-.17.34-1.07M152.04,104.22l-3.25.87-.34,1.07,2.91-.78.68-1.16M153.18,104.14l-.53.89,1.9-.51c-.48-.05-.94-.18-1.37-.38M170.82,99.31l-.57.04-11.32,3.03c-.19.31-.41.59-.67.85h0s0,0,0,0h0c-.16.16-.33.31-.51.44l13.29-3.55c-.1-.26-.17-.53-.22-.81"/>
    <path class="st1" d="M87.63,110.6l-4.93,8.95c.29.12.57.27.82.45l5.09-9.24-.99-.16M92.54,103.64l-1.1.06-3.32,6.02.99.16,3.44-6.24M97.17,95.23l-1.24.31-3.96,7.18,1.1-.06,4.1-7.44M98.38,91.09l-1.84,3.33,1.24-.31,1.39-2.52-.8-.5M100.51,87.23l-1.67,3.03.8.5,1.71-3.1-.83-.44M103.84,83.14l-1.45.68-1.43,2.59.83.44,2.04-3.71M103.73,81.39l-.57,1.03.89-.42-.33-.61M107.19,75.1l-2.92,5.31.53.99,2.6-4.71-.2-1.58M111.01,68.17l-3.05,5.54.2,1.58,3.68-6.67c-.29-.12-.57-.27-.82-.45"/>
    <path class="st1" d="M78.35,109.1l1.48,10.22c.3-.08.61-.12.93-.14l-1.44-9.93-.97-.16M78.62,104.34l-.94.05.54,3.74.97.16-.57-3.94M77.99,100l-.92.23.47,3.22.94-.05-.49-3.4M77.34,95.52l-.89.42.49,3.36.92-.23-.51-3.55M76.68,90.98l-.86.61.49,3.37.89-.42-.52-3.57M74.96,79.07l-.79,1.11,1.5,10.37.86-.61-1.57-10.87M73.48,75.38l.5,3.45.79-1.11-.24-1.68-1.05-.66M73.09,72.68l.21,1.47,1.05.66-.23-1.58-1.03-.55M71.49,61.6l1.43,9.93,1.03.55-1.5-10.4-.96-.08M71.98,58.44l-.94.06.31,2.15.96.08-.33-2.28M70.98,51.5l-.9.34.83,5.72.94-.06-.87-6M70.43,47.74l-.88.5.38,2.66.9-.34-.41-2.81M65.14,11.14c-.3.08-.62.12-.93.13l5.2,35.96.88-.5-5.15-35.6"/>
    <path class="st1" d="M72.71,108.19l5.81,11.7c.27-.17.55-.31.84-.42l-5.51-11.09-1.14-.18M72.01,104.67l-1.03.05,1.21,2.43,1.14.18-1.33-2.67M70.6,101.84l-.94.23.86,1.73,1.03-.05-.95-1.91M69.32,99.26l-.85.4.77,1.55.94-.23-.85-1.71M68.18,96.96l-.78.55.65,1.31.85-.4-.73-1.46M65.73,92.03l-.62.87,1.87,3.75.78-.55-2.03-4.08M58.64,77.74l-.15,1.81,6.15,12.39.62-.87-6.62-13.33M51.4,63.17c-.27.17-.55.31-.84.42l7.12,14.33.15-1.81-6.43-12.94"/>
    <path class="st3" d="M109.44,114.11l-24.36,7.78.08.2,14.56-3.89,11.77-3.76-2.06-.33M126.32,108.72l-14.89,4.76,2.06.33,13.88-4.43-1.04-.66M141.44,103.89l-13.95,4.46,1.04.66,13.02-4.16-.11-.95M142.73,103.48l-.38.12.11.95.3-.1-.03-.98M146.63,102.23l-2.96.95.03.98,2.72-.87.21-1.05M148.97,101.49l-1.32.42-.21,1.05,1.17-.37.36-1.1M150.64,100.95l-.57.18-.36,1.1,1.21-.39c-.13-.29-.22-.59-.29-.9"/>
    <path class="st15" d="M99.73,118.2l-14.56,3.89c.09.23.15.46.2.69l14.36-4.59"/>
    <path class="st1" d="M91.53,111.22l-7.93,8.83c.19.14.37.29.54.46h0s.16.17.16.17l8.33-9.28-1.1-.18M99.94,103.27l-1.32.07-6.34,7.06,1.1.18,6.56-7.3M105.55,95.62l-6.05,6.73,1.32-.07,5.53-6.16-.81-.51M106.42,94.65l-.23.26.81.51.12-.14c-.19-.14-.37-.29-.54-.46h0s-.16-.17-.16-.17"/>
    <path class="st3" d="M139.22,119.02l-53.36,3.86-.45.12c.04.23.06.47.06.71v.14s53.83-3.9,53.83-3.9c-.05-.26-.07-.53-.07-.8v-.14"/>
    <polyline class="st15" points="85.86 122.88 85.39 122.91 85.41 123 85.86 122.88"/>
    <path class="st1" d="M59.79,107.32c-.16.27-.35.52-.56.75l17.83,13.32c.16-.27.35-.52.56-.75l-17.82-13.32"/>
    <path class="st1" d="M110.67,56.12l-.99.06,1.77,4.3c.28-.15.57-.27.87-.36l-1.65-4M105.19,42.81c-.28.15-.57.27-.87.36l4.98,12.09.99-.06-5.11-12.39"/>
    <path class="st1" d="M96.59,32.92l-.88.5,3.55,2.92c.17-.25.36-.49.58-.71h0s0,0,0,0h0s.02-.02.02-.02l-3.27-2.69M67.72,9.37c-.12.17-.26.34-.4.49l.61.71,27.01,22.2.88-.5-27.39-22.51-.7-.4"/>
    <path class="st1" d="M59.59,54.82l-5.03,1.91-1.44.81c.09.21.17.43.23.65l6.15-2.34.09-1.04M69.94,50.89l-9.38,3.56-.09,1.04,9.6-3.64-.14-.95M84.34,45.42l-13.5,5.13.14.95,13.81-5.24-.45-.84M93.6,41.91l-8.38,3.18.45.84,8.58-3.26-.65-.76M98.67,39.99l-4.13,1.57.65.76,3.81-1.45c-.14-.28-.25-.58-.33-.88"/>
    <polyline class="st23" points="70.84 50.55 69.94 50.89 70.08 51.85 70.98 51.5 70.84 50.55"/>
    <path class="st1" d="M108.87,80.79l-.9.42.77,6.01c.3-.07.62-.11.93-.12l-.8-6.31M108.16,75.29l-.77,1.4.45,3.54.9-.42-.58-4.52M107.41,69.38l-.87.61.65,5.11.77-1.4-.55-4.32M105.82,64.31l.59,4.63.87-.61-.5-3.94-.96-.08M105.76,56.41l-.94.06.88,6.89.96.08-.9-7.02M104.59,54.69l.11.84.59-.04-.69-.81M104.08,43.23c-.3.07-.62.11-.93.12l1.23,9.65,1.11,1.3-1.41-11.06"/>
    <polyline class="st23" points="107.96 73.71 107.19 75.1 107.39 76.69 108.16 75.29 107.96 73.71"/>
    <path class="st1" d="M64.64,91.94l-6.5,9.13c.27.15.53.34.77.55l6.21-8.72-.47-.96M73.98,78.83l-8.72,12.24.47.96,8.44-11.85-.19-1.35M75.52,76.66l-.75,1.05.19,1.35,1.35-1.9-.8-.5M76.91,74.71l-.84,1.19.8.5.89-1.24-.84-.44M85.46,62.71l-8,11.23.84.44,8.25-11.59-1.09-.09M90.44,57.33l-1.21.07-3.14,4.41,1.09.09,3.25-4.57M90.12,56.15l-.19.27.32-.02-.13-.25M97.25,46.15l-6.52,9.15.5.92,6.65-9.34-.63-.74M100.05,42.22l-2.24,3.14.63.74,2.37-3.33c-.27-.15-.53-.34-.77-.55"/>
    <polyline class="st23" points="74.77 77.72 73.98 78.83 74.17 80.18 74.96 79.07 74.77 77.72"/>
    <polyline class="st23" points="65.26 91.07 64.64 91.94 65.11 92.9 65.73 92.03 65.26 91.07"/>
    <path class="st3" d="M113.89,35.31l-6.64,1.85c.12.29.2.6.25.91l7.55-2.11-1.16-.65M128.53,31.22l-13.36,3.73,1.16.65,11.68-3.26.52-1.12M137.65,28.68l-7.93,2.21-.52,1.12,8.37-2.34.09-1M140.14,27.98l-1.52.42-.09,1,1.64-.46-.03-.97M142.63,27.29l-1.57.44.03.97,1.69-.47-.15-.93M145.32,26.54l-1.77.49.15.93,1.9-.53-.28-.9M146.56,26.19l-.34.1.28.9.4-.11-.34-.88M171.9,19.12l-24.42,6.82.34.88,24.33-6.79c-.12-.29-.2-.6-.25-.91"/>
    <path class="st3" d="M131.79,51.68l-.86.64.74.34c.1-.3.23-.58.4-.85l-.27-.13M122.14,47.19l-.4.85,8.21,3.82.86-.64-8.67-4.04M107.32,40.3c-.1.3-.23.58-.4.85l13.97,6.5.4-.85-13.97-6.5"/>
    <path class="st3" d="M109.46,32.82l-3.28,2.75.06.06c.2.2.39.43.55.66l3.55-2.98-.88-.49M131.6,14.22l-21.37,17.96.88.49,21.8-18.32-1.3-.13M136.24,10.47l-.54.31-3.09,2.6,1.3.13,2.87-2.41-.06-.06c-.18-.18-.34-.37-.48-.57"/>
    <path class="st3" d="M158.5,88.71l-.24.94,12.84,7.09c.12-.29.27-.57.45-.82l-13.05-7.21M155.77,87.2l-.02,1.06,1.66.91.24-.94-1.88-1.04M154.76,86.65l-.3.91.36.2.02-1.06-.08-.04M153.2,85.78l.19,1.18.23.13.3-.91-.72-.4M151.09,84.62l-.19.97,1.45.8-.19-1.18-1.06-.59M148.57,83.23l.58,1.4.87.48.19-.97-1.65-.91M142.87,80.08l.04,1.1,4.92,2.72-.58-1.4-4.38-2.42M139.29,78.1l.14,1.15,2.52,1.39-.04-1.1-2.62-1.45M133.61,74.97l-.84.61,5.64,3.11-.14-1.15-4.66-2.57M127.98,71.86l-1.05.49,4.93,2.72.84-.61-4.72-2.61M125.2,70.33l-.54.78,1.25.69,1.05-.49-1.76-.97M117.76,66.22c-.12.28-.27.55-.44.81l.06.06,6.45,3.56.54-.78-6.61-3.65"/>
    <path class="st1" d="M170.05,98.43l-10.54.8c.05.26.07.54.07.81v.13s10.66-.81,10.66-.81l.55-.15c-.04-.23-.06-.47-.06-.7h0s-.69-.08-.69-.08"/>
    <polyline class="st6" points="170.8 99.21 170.25 99.36 170.82 99.31 170.8 99.21"/>
    <path class="st3" d="M157.38,96.15c.32.19.62.42.89.69.12.12.24.25.34.39l11.45,1.2.69-.05c0-.27.04-.55.1-.81l-13.47-1.42M151.87,95.57l-.28.86.07.06.52.05c.22-.18.46-.35.71-.48l-.17-.41-.86-.09M150.41,95.42l.41.35.1-.3-.51-.05M148.94,95.4l-.16.79,1.23.13-1.07-.92M143.37,94.68l.03.95,4.44.47.18-.93-4.66-.49M141.25,94.45l.12.96,1.09.11-.03-.95-1.17-.12M114.29,91.62c0,.32-.03.63-.1.94l26.21,2.76-.12-.96-26-2.73"/>
    <polyline class="st0" points="170.75 98.37 170.05 98.43 170.74 98.5 170.75 98.37"/>
    <path class="st1" d="M171.25,100.58l-24,15.73c.2.24.37.51.52.79l24-15.73c-.2-.25-.37-.51-.51-.79"/>
    <path class="st1" d="M175.83,22.85l-.97,71.14c.14-.01.27-.02.41-.02.18,0,.36.01.53.03l.97-71.15c-.14.01-.27.02-.41.02h0c-.18,0-.36-.01-.53-.03"/>
    <path class="st1" d="M160.48,81.12l-.29,1.1,11.73,13.24.14-.14h0s0,0,0,0c.18-.18.37-.34.57-.48l-12.15-13.71M157.6,77.86l-.34,1.04,2.18,2.46.29-1.1-2.13-2.4M155.98,76.03l-.03,1.39.59.67.34-1.04-.9-1.02M153.38,73.1l-.23,1.16,1.88,2.12.03-1.39-1.68-1.89M150.6,69.96l.29,1.74,1.48,1.66.23-1.16-1.99-2.25M146.67,65.53l-.77.55,3.81,4.3-.29-1.74-2.76-3.11M145.17,63.84l-.89.42,1,1.13.77-.55-.88-.99M142.19,60.48l.05,1.48,1.38,1.56.89-.42-2.32-2.62M139.27,57.18l-.14.14h0c-.18.18-.37.34-.57.48l2.7,3.04-.05-1.48-1.94-2.19"/>
    <path class="st1" d="M147.82,26.82l-.91.25,3.74,9.59.79-.58-3.61-9.27M142.78,15.37l1.84,5.85,1.94,4.97.91-.25-4.1-10.5-.6-.06M141.99,11.86c-.09.05-.18.09-.27.13l.76,2.4.52.05-1.01-2.59"/>
    <polyline class="st6" points="147.48 25.94 146.56 26.19 146.91 27.07 147.82 26.82 147.48 25.94"/>
    <path class="st1" d="M163.89,68.04l-.4,1.55,6.99,17.94,3.25,6.71c.11-.04.22-.08.34-.11l-10.17-26.1M162.19,63.68l-.46,1.42,1.17,3.01.4-1.55-1.12-2.87M160.32,58.88c-.06.51-.21,1.01-.44,1.46l1.31,3.36.46-1.42-1.33-3.41M158.49,54.19l-.19.36c.16.1.32.22.46.34l-.28-.71M152.87,39.77l-.75.66,5.33,13.68h.01s.57-1.1.57-1.1l-5.16-13.24M151.79,36.99l-.79.58.75,1.93.75-.66-.72-1.85"/>
    <path class="st1" d="M162.9,71.86l-.37,1.4,10.35,21.39c.1-.06.2-.12.31-.17l-2.71-6.95-7.58-15.67M160.89,67.71l-.42,1.29,1.43,2.96.37-1.4-1.38-2.85M158.21,62.18c-.27.17-.55.3-.85.41l2.51,5.19.42-1.29-2.08-4.3"/>
    <path class="st23" d="M170.48,87.54l2.71,6.95c.17-.09.35-.17.54-.24l-3.25-6.71"/>
    <path class="st1" d="M95.19,42.31l-.94.36,2.99,3.48.56-.79-2.62-3.05M90.22,36.53l-.83.47,4.21,4.91.94-.36-4.32-5.02M67.2,9.98c-.19.18-.39.35-.6.5l22.16,25.79.83-.47-21.67-25.23-.72-.59"/>
    <polyline class="st23" points="67.32 9.87 67.23 9.96 67.23 9.96 67.2 9.98 67.92 10.57 67.32 9.87"/>
    <polyline class="st23" points="94.54 41.55 93.6 41.91 94.26 42.67 95.19 42.31 94.54 41.55"/>
    <path class="st1" d="M100.89,48.95l-.29,1.11,3.99,4.64-.22-1.7-3.48-4.05M98.44,46.09l-.56.79,1.98,2.3.29-1.11-1.7-1.98"/>
    <polyline class="st23" points="100.15 48.08 99.86 49.19 100.6 50.05 100.89 48.95 100.15 48.08"/>
    <path class="st1" d="M107.23,56.32l-1.18.07,4.26,4.96.09-.09h0c.19-.19.4-.37.62-.52l-3.79-4.42M105.49,54.29l.15,1.18.82-.05-.97-1.13"/>
    <polyline class="st23" points="104.37 53 104.59 54.69 105.28 55.5 105.64 55.48 105.49 54.29 104.37 53"/>
    <polyline class="st23" points="97.81 45.36 97.25 46.15 97.88 46.88 98.44 46.09 97.81 45.36"/>
    <path class="st1" d="M72.31,60.72l.14.95,13.01,1.03.64-.89-13.78-1.09M60.12,59.76l-.08.94,11.44.9-.14-.95-11.23-.89M55.75,59.42l-2.26.14c0,.21-.03.42-.07.62l5.68.45.08-.94-3.43-.27"/>
    <polyline class="st23" points="71.35 60.65 71.49 61.6 72.45 61.68 72.31 60.72 71.35 60.65"/>
    <polyline class="st1" points="87.19 61.9 86.55 62.79 94.02 63.38 93.49 62.4 87.19 61.9"/>
    <polyline class="st23" points="86.09 61.81 85.46 62.71 86.55 62.79 87.19 61.9 86.09 61.81"/>
    <path class="st1" d="M97.31,62.7l-.24.92,8.74.69-.12-.95-8.38-.66M94.6,62.48l.53.99.98.08.24-.92-1.76-.14"/>
    <polyline class="st23" points="96.36 62.62 96.12 63.55 97.07 63.62 97.31 62.7 96.36 62.62"/>
    <path class="st1" d="M106.65,63.44l.12.95,2.3.18v-.11c0-.28.02-.55.07-.82l-2.5-.2"/>
    <polyline class="st23" points="105.69 63.36 105.82 64.31 106.77 64.39 106.65 63.44 105.69 63.36"/>
    <path class="st3" d="M151.58,96.48l-.3.92.07.06c.15-.22.33-.43.52-.62l.09-.09-.3-.25h-.09M150.02,96.32l.49.42.11-.35-.6-.06M149.15,94.34l-.18.92,1.44.15-1.25-1.08M143.18,89.22l.04,1.28,4.9,4.2.21-1.06-5.15-4.42M140.33,86.77l.17,1.38,1.76,1.51-.04-1.28-1.88-1.62M129.79,77.73l-.78.57,10.43,8.95-.17-1.38-9.48-8.13M124.73,73.38l-.94.44,4.48,3.85.78-.57-4.33-3.72M123.69,72.5l-.34.49.59-.28-.25-.21M117.31,67.04c-.15.22-.32.42-.51.61h0s0,0,0,0h0s0,0,0,0l-.09.09,5.73,4.91.54-.78-5.59-4.8-.07-.04"/>
    <polyline class="st15" points="117.32 67.03 117.31 67.04 117.38 67.09 117.32 67.03"/>
    <path class="st15" d="M151.59,96.43l-.02.05h.09s-.07-.05-.07-.05M148.97,95.26l-.03.14,1.07.92.6.06.2-.62-.41-.35-1.44-.15"/>
    <path class="st1" d="M111.98,79.34l-1.02.48-1.03,7.29c.32.01.63.06.93.13l1.11-7.89M112.51,68.84l-1.39,9.86,1.02-.48,1.3-9.25c-.32-.01-.63-.06-.93-.13"/>
    <path class="st1" d="M106.41,68.94l-6.04,4.24.45.83,5.72-4.02-.13-1.06M109.65,66.66l-2.37,1.67.13,1.06,2.78-1.95c-.21-.24-.39-.5-.54-.77"/>
    <polyline class="st23" points="107.28 68.33 106.41 68.94 106.54 69.99 107.41 69.38 107.28 68.33"/>
    <path class="st1" d="M66.98,96.65l-7.66,5.38c.18.2.33.42.47.64l.75-.35,6.86-4.82-.42-.85M75.67,90.54l-7.91,5.56.42.85,7.64-5.37-.15-1.04M86,83.28l-9.47,6.66.15,1.04,10.18-7.16-.86-.54M89.04,81.15l-2.2,1.55.86.54,2.27-1.6-.93-.49M92.1,79l-2.19,1.54.93.49.9-.63.37-1.41M99.59,73.73l-6.31,4.43-.37,1.41,7.12-5.01-.45-.83"/>
    <polyline class="st23" points="93.29 78.16 92.1 79 91.73 80.4 92.92 79.57 93.29 78.16"/>
    <polyline class="st23" points="76.53 89.94 75.67 90.54 75.82 91.59 76.68 90.98 76.53 89.94"/>
    <polyline class="st23" points="67.76 96.1 66.98 96.65 67.4 97.5 68.18 96.96 67.76 96.1"/>
    <path class="st3" d="M127.09,55.13l-1.73.1-8.42,6.18c.21.23.4.49.56.76l9.59-7.04M129.95,51.86l-3.19,2.35,1.73-.1,2.43-1.79-.97-.45M135.76,47.6l-4.94,3.63.97.45.78-.58.17-.18h0s0,0,0,0c.38-.38.83-.69,1.31-.91l1.89-1.39.08-.89-.26-.14M140.69,43.98l-3.63,2.67-.05.57.49.27,3.24-2.38-.04-1.14M144.87,40.91l-3.27,2.4.04,1.14,3.4-2.5-.17-1.04M148.91,37.94l-3.19,2.34.17,1.04,3.31-2.43-.3-.95M150.65,36.66l-.94.69.3.95.99-.73-.35-.91M172.45,20.65l-21.02,15.44.35.91,16.51-12.13,4.38-3.87c-.08-.11-.15-.23-.22-.35"/>
    <polyline class="st15" points="130.82 51.23 129.95 51.86 130.92 52.32 131.79 51.68 130.82 51.23"/>
    <polyline class="st0" points="151.43 36.09 150.65 36.66 151 37.57 151.79 36.99 151.43 36.09"/>
    <path class="st3" d="M118.2,55.67l-1.07.06-2.07,4.45c.3.1.58.23.85.4l2.28-4.91M120.89,47.65l-3.31,7.11,1.07-.06,3.09-6.65-.85-.4M123.99,40.99l-2.7,5.81.85.4,2.67-5.74-.82-.46M129.2,32.01l-1.19.33-3.62,7.79.82.46,3.99-8.58M136.21,14.69l-7.69,16.53,1.19-.33,7.48-16.1-.99-.1M137.59,11.72l-.96,2.07.99.1.82-1.77c-.3-.1-.58-.24-.85-.4"/>
    <polyline class="st15" points="129.72 30.89 128.53 31.22 128.01 32.35 129.2 32.01 129.72 30.89"/>
    <polyline class="st15" points="121.29 46.8 120.89 47.65 121.75 48.05 122.14 47.19 121.29 46.8"/>
    <path class="st1" d="M62.34,10.96l-12.58,43.94c.31.05.61.14.9.26l12.5-43.67.02-.29c-.29-.05-.58-.14-.85-.25"/>
    <path class="st1" d="M85.68,45.92l-.89.34,5.33,9.89.61-.85-5.05-9.38M82.86,40.7l-.82.46,2.3,4.26.89-.34-2.37-4.39M66.58,10.5c-.26.18-.54.33-.83.45l15.84,29.39.82-.46-15.83-29.37"/>
    <polyline class="st23" points="85.23 45.09 84.34 45.42 84.79 46.26 85.68 45.92 85.23 45.09"/>
    <path class="st1" d="M91.78,57.25l-1.04.06,2.74,5.08,1.12.09-2.82-5.23M91.23,56.22l-.09.13h.15s-.06-.13-.06-.13"/>
    <polyline class="st23" points="90.73 55.3 90.12 56.15 90.26 56.4 91.14 56.35 91.23 56.22 90.73 55.3"/>
    <path class="st1" d="M96.47,65.94l-.35,1.34,3.48,6.45.78-.54-3.9-7.24M94.02,63.38l1.44,2.68.35-1.34-.68-1.26-1.12-.09"/>
    <polyline class="st23" points="95.81 64.73 95.46 66.06 96.12 67.28 96.47 65.94 95.81 64.73"/>
    <polyline class="st23" points="93.49 62.4 94.02 63.38 95.14 63.47 94.6 62.48 93.49 62.4"/>
    <path class="st1" d="M105.36,82.43l-.85.4,2.72,5.05c.26-.18.54-.33.83-.45l-2.7-5M104.8,81.4l-.19.35.3-.14-.11-.21M100.82,74.02l-.78.54,3.68,6.83.54-.98-3.45-6.4"/>
    <polyline class="st23" points="104.27 80.41 103.73 81.39 104.06 82 104.61 81.74 104.8 81.4 104.27 80.41"/>
    <polyline class="st23" points="100.37 73.18 99.59 73.73 100.04 74.56 100.82 74.02 100.37 73.18"/>
    <path class="st1" d="M63.25,11.21l-.08.28-3.41,41.21.99-.56,3.38-40.86h-.1c-.26,0-.53-.02-.78-.07"/>
    <polyline class="st23" points="63.19 11.2 63.17 11.49 63.25 11.21 63.19 11.2"/>
    <path class="st1" d="M60.47,55.49l-.97.37-.2,2.4.95-.06.22-2.71M60.66,53.28l-.99.56-.08.99.97-.37.1-1.18"/>
    <polyline class="st23" points="60.56 54.45 59.59 54.82 59.5 55.86 60.47 55.49 60.56 54.45"/>
    <path class="st1" d="M59.11,60.63l-.28,3.42.9.48.32-3.83-.94-.07M60.17,59.15l-.95.06-.04.48.94.07.05-.61"/>
    <polyline class="st23" points="59.18 59.69 59.11 60.63 60.04 60.7 60.12 59.76 59.18 59.69"/>
    <path class="st1" d="M57.68,77.93l-1.86,22.56h.1s0,0,0,0c.28,0,.56.03.84.08l1.74-21.01-.81-1.63M58.66,66.02l-.83,10.09.81,1.63.92-11.15-.9-.57"/>
    <polyline class="st23" points="57.83 76.11 57.68 77.93 58.49 79.56 58.64 77.74 57.83 76.11"/>
    <path class="st3" d="M137.62,13.89l-.42.9,1.63.17.08-.94-1.29-.13M133.9,13.51l-1,.84,3.31.34.42-.9-2.73-.28M131.34,13.24l-1.41.8,1.67.17,1-.84-1.27-.13M68.52,7.29c-.02.13-.04.27-.07.4l59.85,6.18,1.41-.8-55.12-5.69-6.08-.09"/>
    <polyline class="st15" points="132.6 13.37 131.6 14.22 132.9 14.35 133.9 13.51 132.6 13.37"/>
    <polyline class="st15" points="136.63 13.79 136.21 14.69 137.2 14.79 137.62 13.89 136.63 13.79"/>
    <path class="st3" d="M143,14.45l.38.99,28.45,2.94h0c0-.28.02-.54.07-.8l-.73-.21-28.18-2.91M141.45,14.29l.16.96.15.02-.31-.98h0"/>
    <polyline class="st0" points="142.48 14.39 142.78 15.37 143.38 15.43 143 14.45 142.48 14.39"/>
    <polyline class="st3" points="140.64 15.13 140.64 15.15 140.64 15.15 140.64 15.13"/>
    <path class="st3" d="M68.53,6.35c.01.13.02.27.02.4l6.05.63,60.81.87c-.01-.13-.02-.27-.02-.4,0-.18.01-.36.03-.54l-66.89-.95"/>
    <path class="st15" d="M68.55,6.76h0c0,.19-.01.36-.03.54l6.08.09-6.05-.63"/>
    <path class="st3" d="M68.18,8.55c-.11.24-.23.48-.38.7l.62.51,33.7,18.94.96-.54-34.9-19.61"/>
    <polyline class="st0" points="67.8 9.25 67.72 9.37 68.43 9.77 67.8 9.25"/>
    <path class="st3" d="M125.21,40.59l-.4.86,10.94,6.15.29-.21.06-.67-10.89-6.12M116.33,35.61l-1.28.36,8.94,5.02.4-.86-8.06-4.53M111.1,32.67l-.77.65,3.55,2,1.28-.36-4.07-2.29M104.04,28.7l-.96.54,6.37,3.58.77-.65-6.18-3.47"/>
    <polyline class="st15" points="115.17 34.95 113.89 35.31 115.05 35.96 116.33 35.61 115.17 34.95"/>
    <polyline class="st15" points="110.23 32.17 109.46 32.82 110.33 33.31 111.1 32.67 110.23 32.17"/>
    <polyline class="st15" points="136.04 47.39 135.76 47.6 136.01 47.74 136.04 47.39"/>
    <polyline class="st15" points="124.39 40.13 123.99 40.99 124.81 41.45 125.21 40.59 124.39 40.13"/>
    <polyline class="st3" points="137.49 47.49 136.95 47.89 136.91 48.25 139.94 49.95 140.69 49.29 137.49 47.49"/>
    <polyline class="st15" points="137 47.22 136.95 47.89 137.49 47.49 137 47.22"/>
    <path class="st3" d="M147.87,53.32l.2,1.19,3.62,2.03c.12-.29.28-.56.46-.82l-4.27-2.4M140.91,50.36l-.09.08.1.05v-.14M141.83,49.93l.04,1.1,5.14,2.89-.2-1.19-4.98-2.8"/>
    <path class="st1" d="M92.33,81.83l-.24.94,4.84,2.57,1.07-.5-5.66-3M90.83,81.03l-.86.61,1.26.67.24-.94-.64-.34M78.3,74.38l-.55.77,11.29,5.99.86-.61-11.6-6.16M73.95,72.07l.17,1.15,2.79,1.48.55-.77-3.51-1.86M59.73,64.53l-.08,1.01.15.09,13.29,7.05-.17-1.15-13.19-7M53.17,61.05c-.04.11-.09.21-.14.31l5.72,3.61.08-.92-5.66-3"/>
    <polyline class="st23" points="91.48 81.37 91.23 82.31 92.09 82.76 92.33 81.83 91.48 81.37"/>
    <polyline class="st23" points="72.92 71.53 73.09 72.68 74.12 73.23 73.95 72.07 72.92 71.53"/>
    <polyline class="st23" points="77.46 73.94 76.91 74.71 77.75 75.15 78.3 74.38 77.46 73.94"/>
    <polyline class="st23" points="89.9 80.54 89.04 81.15 89.97 81.64 90.83 81.03 89.9 80.54"/>
    <path class="st1" d="M101.79,86.85l-.45.82,4.24,2.25c.12-.29.27-.57.44-.83l-4.23-2.24M99.03,85.38l-1.07.5,2.54,1.35.45-.82-1.93-1.02"/>
    <polyline class="st23" points="100.96 86.41 100.51 87.23 101.34 87.67 101.79 86.85 100.96 86.41"/>
    <polyline class="st23" points="58.82 64.05 58.75 64.97 59.64 65.53 59.73 64.53 58.82 64.05"/>
    <path class="st3" d="M91.36,85.55l-.25.96,1.4.89,1.01-.47-2.17-1.37M87.7,83.24l-.83.59,3.41,2.15.25-.96-2.83-1.79M76.86,76.4l-.55.77,9.69,6.11.83-.59-9.98-6.3M74.35,74.81l.18,1.22.99.63.55-.77-1.72-1.08M59.64,65.55l-.09,1.04,13.92,8.78-.18-1.22-13.51-8.52-.15-.08M52.73,61.88c-.06.09-.13.19-.2.28l6.13,3.87.08-.96-6.01-3.19"/>
    <polyline class="st0" points="90.53 85.02 90.28 85.98 91.11 86.51 91.36 85.55 90.53 85.02"/>
    <polyline class="st0" points="73.3 74.15 73.48 75.38 74.52 76.04 74.35 74.81 73.3 74.15"/>
    <polyline class="st0" points="76.06 75.9 75.52 76.66 76.31 77.17 76.86 76.4 76.06 75.9"/>
    <polyline class="st0" points="86.84 82.69 86 83.28 86.86 83.82 87.7 83.24 86.84 82.69"/>
    <path class="st3" d="M99.63,90.77l-.45.83,2.47,1.56,1.26-.31-3.28-2.07M94.48,87.51l-1.01.47,4.92,3.1.45-.83-4.36-2.75"/>
    <polyline class="st0" points="98.84 90.27 98.38 91.09 99.18 91.59 99.63 90.77 98.84 90.27"/>
    <path class="st3" d="M106.99,95.41l-.64.71,8.63,5.45,1.63-.08-9.63-6.08M104.01,93.53l-1.26.31,2.8,1.77.64-.71-2.17-1.37"/>
    <polyline class="st0" points="106.19 94.91 105.55 95.62 106.36 96.12 106.99 95.41 106.19 94.91"/>
    <path class="st3" d="M131.28,110.74l-1.24.33,9.64,6.09c.14-.28.31-.55.5-.8l-8.91-5.62M128.53,109l-1.17.37,1.6,1.01,1.24-.33-1.67-1.06M118.01,102.36l-1.63.08,9.94,6.28,1.17-.37-9.48-5.98"/>
    <polyline class="st15" points="130.2 110.06 128.96 110.39 130.04 111.07 131.28 110.74 130.2 110.06"/>
    <polyline class="st15" points="127.49 108.35 126.32 108.72 127.36 109.38 128.53 109 127.49 108.35"/>
    <polyline class="st0" points="58.74 65.07 58.66 66.02 59.56 66.59 59.64 65.55 58.74 65.07"/>
    <path class="st0" d="M59.64,65.53h0s.15.09.15.09l-.15-.09M53.03,61.36c-.09.18-.19.35-.3.52l6.01,3.19v-.1s-5.71-3.61-5.71-3.61"/>
    <polyline class="st7" points="58.75 64.97 58.74 65.07 59.64 65.55 59.64 65.53 58.75 64.97"/>
    <path class="st1" d="M50.12,63.73c-.3.08-.61.13-.93.14l5.58,36.76c.3-.08.61-.13.93-.14l-5.58-36.76"/>
    <path class="st3" d="M70.9,57.56l-10.65.64-.08.95,10.86-.65-.14-.93M90.62,57.08l-.18.26.31-.02-.13-.24M89.93,56.42l-18.09,1.09.14.93,17.25-1.04.7-.98M105.7,55.99l.05.42.29-.02-.35-.41M98.1,55.93l-6.81.41.49.91,6.07-.36.25-.96M104.7,55.53l-5.61.34-.25.96,5.98-.36-.12-.94M109.3,55.26l-2.84.17.77.9,2.45-.15-.38-.92M117.59,54.76l-7.29.44.38.92,6.46-.39.45-.97M126.76,54.21l-8.1.49-.45.97,7.16-.43,1.4-1.03M131.42,53.93l-2.93.18-1.4,1.03,4.39-.26c-.04-.24-.06-.49-.06-.74v-.2"/>
    <polyline class="st0" points="99.09 55.87 98.1 55.93 97.85 56.89 98.84 56.83 99.09 55.87"/>
    <polyline class="st0" points="71.84 57.51 70.9 57.56 71.04 58.5 71.98 58.44 71.84 57.51"/>
    <polyline class="st0" points="110.29 55.2 109.3 55.26 109.68 56.18 110.67 56.12 110.29 55.2"/>
    <polyline class="st0" points="105.28 55.5 104.7 55.53 104.82 56.47 105.76 56.41 105.7 55.99 105.28 55.5"/>
    <polyline class="st0" points="90.26 56.4 89.93 56.42 89.23 57.41 90.44 57.33 90.62 57.08 90.26 56.4"/>
    <polyline class="st0" points="106.46 55.43 105.64 55.48 105.7 55.99 106.05 56.4 107.23 56.32 106.46 55.43"/>
    <polyline class="st7" points="105.64 55.48 105.28 55.5 105.7 55.99 105.64 55.48"/>
    <polyline class="st15" points="128.49 54.11 126.76 54.21 125.36 55.24 127.09 55.13 128.49 54.11"/>
    <polyline class="st15" points="118.65 54.7 117.59 54.76 117.14 55.73 118.2 55.67 118.65 54.7"/>
    <polyline class="st0" points="91.29 56.34 91.14 56.35 90.62 57.08 90.75 57.31 91.78 57.25 91.29 56.34"/>
    <polyline class="st7" points="91.14 56.35 90.26 56.4 90.62 57.08 91.14 56.35"/>
    <path class="st3" d="M59.3,58.26l-5.87.35c.03.21.05.41.06.63l2.26.18,3.47-.21.08-.95"/>
    <polyline class="st0" points="53.5 59.24 53.5 59.35 53.49 59.55 55.75 59.42 53.5 59.24"/>
    <polyline class="st0" points="60.25 58.2 59.3 58.26 59.22 59.21 60.17 59.15 60.25 58.2"/>
    <path class="st3" d="M135.77,9.65l-6.05,3.43,1.61.17,4.36-2.47.48-.4c-.16-.23-.29-.47-.4-.73"/>
    <polyline class="st15" points="136.17 10.37 135.7 10.77 136.24 10.47 136.17 10.37"/>
    <path class="st3" d="M69.41,47.24l-8.66,4.9-.09,1.13,8.9-5.04-.14-1M81.6,40.34l-11.31,6.4.14,1,11.61-6.58-.45-.83M88.76,36.27l-6.35,3.6.45.83,6.53-3.7-.62-.73M94.94,32.78l-5.34,3.02.62.73,5.49-3.11-.78-.64M102.13,28.7l-6.31,3.58.78.64,6.49-3.68-.96-.54M128.31,13.88l-25.22,14.29.96.54,25.88-14.66-1.61-.17"/>
    <polyline class="st0" points="70.29 46.74 69.41 47.24 69.55 48.24 70.43 47.74 70.29 46.74"/>
    <polyline class="st0" points="95.81 32.28 94.94 32.78 95.72 33.42 96.59 32.92 95.81 32.28"/>
    <polyline class="st0" points="89.6 35.8 88.76 36.27 89.39 37 90.22 36.53 89.6 35.8"/>
    <polyline class="st0" points="82.41 39.87 81.6 40.34 82.04 41.16 82.86 40.7 82.41 39.87"/>
    <path class="st3" d="M59.76,52.7l-7.11,4.02c.13.19.25.39.36.59l1.55-.59,5.11-2.89.09-1.13"/>
    <polyline class="st0" points="54.56 56.73 53.01 57.32 53.12 57.55 54.56 56.73"/>
    <polyline class="st0" points="60.75 52.14 59.76 52.7 59.67 53.84 60.66 53.28 60.75 52.14"/>
    <polyline class="st15" points="129.72 13.08 128.31 13.88 129.92 14.04 131.34 13.24 129.72 13.08"/>
    <polyline class="st15" points="103.09 28.16 102.13 28.7 103.09 29.24 104.04 28.7 103.09 28.16"/>
    <path class="st1" d="M152.66,105.03l-1.3.35-5.73,9.67c.28.13.56.29.81.48l6.22-10.5M152.37,103.66l-.33.56.85-.23c-.18-.1-.35-.21-.52-.33"/>
    <path class="st6" d="M152.89,104l-.85.23-.68,1.16,1.3-.35.53-.89c-.1-.05-.2-.09-.29-.15"/>
    <path class="st3" d="M70.53,103.8l-9.81.49-.33.08c.03.21.04.42.04.63v.25s10.55-.53,10.55-.53l-.46-.92M77.54,103.45l-5.98.3.46.92,5.66-.28-.14-.94M85.84,103.04l-7.36.37.14.94,6.97-.35.25-.95M91.97,102.73l-5.14.26-.25.95,4.86-.24.53-.97M99.5,102.35l-6.43.32-.53.97,6.07-.3.89-.99M114.99,101.57l-14.17.71-.89.99,16.43-.82-1.38-.87M141,100.27l-24.38,1.22,1.38.87,23.11-1.16-.11-.94M147.08,99.96l-3.52.18.03.94,3.3-.17.19-.95M149.5,99.84l-1.45.07-.19.95,1.33-.07.31-.96M150.55,99.79h-.05s-.31.96-.31.96l.4-.02c-.04-.23-.05-.46-.05-.69v-.25"/>
    <polyline class="st0" points="86.82 102.99 85.84 103.04 85.59 103.99 86.57 103.94 86.82 102.99"/>
    <polyline class="st0" points="93.07 102.67 91.97 102.73 91.43 103.7 92.54 103.64 93.07 102.67"/>
    <polyline class="st0" points="78.48 103.4 77.54 103.45 77.67 104.39 78.62 104.34 78.48 103.4"/>
    <polyline class="st0" points="71.56 103.75 70.53 103.8 70.99 104.72 72.01 104.67 71.56 103.75"/>
    <polyline class="st0" points="100.82 102.28 99.5 102.35 98.61 103.34 99.94 103.27 100.82 102.28"/>
    <polyline class="st3" points="142.62 100.19 141.94 100.22 142.06 101.16 142.65 101.13 142.62 100.19"/>
    <polyline class="st15" points="116.62 101.49 114.99 101.57 116.37 102.45 118.01 102.36 116.62 101.49"/>
    <path class="st1" d="M157.41,89.18l-1.66,6.38c.31.05.62.13.91.24l1.6-6.15-.85-.47M159.45,81.36l-1.79,6.88.85.47,1.69-6.5-.75-.85M161.9,71.96l-2.17,8.31.75.85,2.05-7.85-.63-1.31M162.9,68.1l-.64,2.45.63,1.31.59-2.27-.58-1.49M175.42,22.79l-3.61,11.16-8.5,32.6.58,1.49,11.79-45.21-.26-.05"/>
    <polyline class="st6" points="157.65 88.24 157.41 89.18 158.26 89.65 158.5 88.71 157.65 88.24"/>
    <polyline class="st23" points="159.73 80.27 159.45 81.36 160.2 82.21 160.48 81.12 159.73 80.27"/>
    <polyline class="st23" points="163.31 66.55 162.9 68.1 163.49 69.6 163.89 68.04 163.31 66.55"/>
    <polyline class="st23" points="162.26 70.56 161.9 71.96 162.53 73.26 162.9 71.86 162.26 70.56"/>
    <path class="st1" d="M147.83,83.9l1.65,3.96.33-1.66-.66-1.58-1.32-.73M142.47,68.59l.09,2.67,4.68,11.24,1.32.73-6.1-14.64M138.1,58.1c-.28.15-.57.27-.87.36l2.8,6.73.85-.4-2.79-6.7"/>
    <polyline class="st6" points="147.25 82.5 147.83 83.9 149.15 84.63 148.57 83.23 147.25 82.5"/>
    <path class="st1" d="M152.68,93.08l-.45,1.38.5,1.2.88.09.15-.05-1.09-2.62M150.46,87.76l-.33,1.66,1.54,3.7.45-1.38-1.66-3.98"/>
    <path class="st6" d="M152.73,95.66l.17.41c.23-.12.47-.23.71-.31l-.88-.09"/>
    <polyline class="st1" points="141.25 65.66 140.4 66.06 141.31 68.25 141.52 68.1 141.45 66.13 141.25 65.66"/>
    <path class="st1" d="M145.89,41.32l-.85.62.5,3.05.83-.74-.48-2.94M143.7,27.97l-.91.25,2.08,12.68.85-.62-2.02-12.31M140.64,15.15l1.99,12.14.91-.25-1.94-11.78-.97-.1M140.82,12.27c-.09.02-.19.04-.28.05l.06,1.88.85.09v-.03s-.63-1.99-.63-1.99"/>
    <polyline class="st6" points="143.55 27.03 142.63 27.29 142.79 28.22 143.7 27.97 143.55 27.03"/>
    <polyline class="st6" points="145.72 40.28 144.87 40.91 145.04 41.95 145.89 41.32 145.72 40.28"/>
    <path class="st1" d="M149.28,61.92l-.89.41.12.72.85-.62-.08-.51M147.53,57.06l.71,4.3.89-.41-.6-3.68-.99-.21M147.01,53.92l.35,2.14.99.21-.29-1.76-1.05-.59M146.56,45.36l-.83.74,1.09,6.64,1.05.59-1.31-7.97"/>
    <polyline class="st6" points="140.6 14.2 140.64 15.13 140.64 15.15 141.61 15.25 141.45 14.29 140.6 14.2"/>
    <polyline class="st6" points="146.82 52.73 147.01 53.92 148.06 54.51 147.87 53.32 146.82 52.73"/>
    <path class="st1" d="M149.72,70.39l1.47,8.92.52-2.63-.82-4.98-1.17-1.32M149.53,63.47l-.85.62.75,4.56,1.17,1.32-1.07-6.5"/>
    <polyline class="st23" points="149.43 68.64 149.72 70.39 150.89 71.71 150.6 69.96 149.43 68.64"/>
    <path class="st1" d="M152.34,86.39l.51,3.09.63-1.95-.09-.56-1.05-.58M152.14,79.32l-.52,2.63.53,3.26,1.05.58-1.06-6.46"/>
    <polyline class="st6" points="152.15 85.21 152.34 86.39 153.39 86.97 153.2 85.78 152.15 85.21"/>
    <path class="st1" d="M153.82,89.55l-.63,1.95.68,4.17c.26-.07.53-.12.81-.14v-.68s-.86-5.3-.86-5.3"/>
    <path class="st1" d="M155.03,76.38l-.12,6.76,1-3.08.05-2.64-.92-1.04M155.41,62.84l-.15.76-.21,11.39.92,1.04.24-13.19c-.13.01-.26.02-.39.02h0c-.14,0-.28,0-.42-.02"/>
    <polyline class="st23" points="155.05 74.99 155.03 76.38 155.95 77.42 155.98 76.03 155.05 74.99"/>
    <path class="st1" d="M154.82,87.75l-.13,7.1.11.67h.27s0,0,0,0c.19,0,.37.01.55.03l.13-7.28-.93-.51M155.84,83.3l-1,3.08v.31s.93.51.93.51l.07-3.91"/>
    <polyline class="st6" points="154.84 86.69 154.82 87.75 155.75 88.27 155.77 87.2 154.84 86.69"/>
    <polyline class="st23" points="154.69 94.85 154.68 95.53 154.8 95.52 154.69 94.85"/>
    <path class="st1" d="M69.24,101.21l-8.73,2.17-.33.15c.09.25.15.52.19.78l.34-.02,8.95-2.23-.43-.86M76.94,99.29l-6.76,1.68.43.86,6.47-1.61-.14-.94M87.5,96.67l-9.64,2.4.14.94,9.24-2.3.27-1.04M96.55,94.42l-8.01,1.99-.27,1.04,7.66-1.9.62-1.12M101.65,93.15l-3.86.96-.62,1.12,5.58-1.39-1.1-.7M105.29,92.25l-2.38.59,1.1.7,1.51-.37c-.11-.29-.18-.6-.23-.91"/>
    <polyline class="st23" points="88.53 96.41 87.5 96.67 87.23 97.71 88.26 97.45 88.53 96.41"/>
    <polyline class="st23" points="97.79 94.11 96.55 94.42 95.93 95.54 97.17 95.23 97.79 94.11"/>
    <polyline class="st23" points="77.85 99.07 76.94 99.29 77.07 100.23 77.99 100 77.85 99.07"/>
    <polyline class="st23" points="70.18 100.97 69.24 101.21 69.67 102.07 70.6 101.84 70.18 100.97"/>
    <polyline class="st6" points="102.91 92.84 101.65 93.15 102.75 93.85 104.01 93.53 102.91 92.84"/>
    <polyline class="st6" points="60.72 104.3 60.38 104.31 60.39 104.38 60.72 104.3"/>
    <path class="st3" d="M122.43,72.66l-.79,1.13,1.36-.64-.57-.49M123.83,70.65l-.86,1.23.72.62.97-1.39-.83-.46M132.98,57.55l-8.6,12.32.83.46,8.55-12.24c-.27-.15-.53-.33-.77-.54"/>
    <polyline class="st15" points="124.38 69.87 123.83 70.65 124.66 71.11 125.2 70.33 124.38 69.87"/>
    <polyline class="st15" points="122.97 71.88 122.43 72.66 123.01 73.15 123.35 72.99 123.69 72.5 122.97 71.88"/>
    <path class="st3" d="M122.27,74.53l-1.7.8-8.61,12.33c.27.15.53.33.77.54l9.54-13.67"/>
    <path class="st3" d="M145.28,65.38l-2.85,2.06.04,1.13,3.43-2.48-.63-.71M148.51,63.05l-2.46,1.78.63.71,2.01-1.45-.17-1.04M151.95,60.67l-.43.2-2.16,1.56.17,1.04,2.93-2.12c-.19-.21-.36-.44-.51-.68"/>
    <polyline class="st0" points="146.05 64.83 145.28 65.38 145.91 66.09 146.67 65.53 146.05 64.83"/>
    <path class="st3" d="M128.27,77.67l-15.13,10.93c.21.24.4.49.55.76l15.31-11.07-.73-.63M131.86,75.08l-2.8,2.02.73.63,2.98-2.15-.91-.5M137.49,71.01l-4.79,3.46.91.5,4-2.89-.13-1.07"/>
    <polyline class="st15" points="132.7 74.47 131.86 75.08 132.77 75.58 133.61 74.97 132.7 74.47"/>
    <polyline class="st15" points="129.06 77.1 128.27 77.67 129.01 78.3 129.79 77.73 129.06 77.1"/>
    <polyline class="st3" points="141.31 68.25 138.36 70.38 138.49 71.45 141.55 69.23 141.54 68.79 141.31 68.25"/>
    <polyline class="st0" points="141.52 68.1 141.31 68.25 141.54 68.79 141.52 68.1"/>
    <polyline class="st0" points="149.36 62.43 148.51 63.05 148.68 64.08 149.53 63.47 149.36 62.43"/>
    <path class="st3" d="M117.43,114.44l-2.22.59,24.02,3.87c.02-.32.07-.63.15-.93l-21.95-3.54M113.48,113.81l-1.98.63,1.43.23,2.22-.59-1.68-.27M93.38,110.57l-.75.83,16.81,2.71,1.98-.63-18.05-2.91M89.1,109.88l-.48.88,2.91.47.75-.83-3.18-.51M85.19,109.25l-.24.91,2.68.43.48-.88-2.92-.47M79.19,108.28l.14.98,4.69.76.24-.91-5.07-.82M73.34,107.34l.51,1.04,4.5.73-.14-.98-4.87-.79M60.43,105.26c-.02.32-.07.63-.15.93l12.43,2-.51-1.04-11.77-1.9"/>
    <polyline class="st0" points="84.26 109.1 84.02 110.01 84.95 110.17 85.19 109.25 84.26 109.1"/>
    <polyline class="st15" points="115.16 114.08 112.93 114.67 115.2 115.04 117.43 114.44 115.16 114.08"/>
    <polyline class="st0" points="88.11 109.72 87.63 110.6 88.62 110.76 89.1 109.88 88.11 109.72"/>
    <polyline class="st0" points="78.21 108.13 78.35 109.1 79.33 109.26 79.19 108.28 78.21 108.13"/>
    <polyline class="st0" points="72.2 107.16 72.71 108.19 73.85 108.38 73.34 107.34 72.2 107.16"/>
    <polyline class="st15" points="111.42 113.48 109.44 114.11 111.5 114.44 113.48 113.81 111.42 113.48"/>
    <polyline class="st0" points="92.27 110.39 91.53 111.22 92.63 111.4 93.38 110.57 92.27 110.39"/>
    <path class="st1" d="M156.54,78.09l-.64,1.97-.06,3.24,1.42-4.39-.72-.82M159.87,67.78l-3,9.27.72.82,2.87-8.86-.59-1.22M161.19,63.71l-.9,2.78.59,1.22.85-2.61-.54-1.39M174.72,22.58l-.6,1.17-12.47,38.54.54,1.39,9.62-29.73,2.96-11.35-.05-.02"/>
    <polyline class="st23" points="156.88 77.05 156.54 78.09 157.26 78.9 157.6 77.86 156.88 77.05"/>
    <polyline class="st23" points="161.65 62.29 161.19 63.71 161.73 65.09 162.19 63.68 161.65 62.29"/>
    <polyline class="st23" points="160.29 66.48 159.87 67.78 160.47 69 160.89 67.71 160.29 66.48"/>
    <path class="st1" d="M153.62,87.09l-.14.43.33,2.03.65-2-.84-.46M154.9,83.14l-.98,3.04.84.46.09-.26.06-3.24"/>
    <polyline class="st6" points="153.92 86.18 153.62 87.09 154.46 87.56 154.76 86.65 153.92 86.18"/>
    <path class="st1" d="M150.5,96.74l-1,3.1,1.01-.05.06-.18c.06-.66.27-1.3.6-1.87l.11-.34-.77-.66M151.67,93.12l-.76,2.35.96.1.36-1.11-.56-1.34M152.85,89.48l-.73,2.27.56,1.34.51-1.57-.33-2.03"/>
    <polyline class="st6" points="150.91 95.47 150.82 95.77 151.59 96.43 151.87 95.57 150.91 95.47"/>
    <polyline class="st6" points="150.62 96.38 150.5 96.74 151.28 97.4 151.58 96.48 150.62 96.38"/>
    <polyline class="st18" points="150.82 95.77 150.62 96.38 151.58 96.48 151.59 96.43 150.82 95.77"/>
    <path class="st1" d="M148.45,106.16l-1.08.29-1.6,4.93-.69,3.47c.17.05.33.11.5.19l2.87-8.87M149.71,102.24l-1.1.35-.9,2.79,1.08-.29.92-2.86M150.2,100.75l-1.01.05-.22.69,1.1-.35.12-.39"/>
    <polyline class="st6" points="148.79 105.09 147.71 105.38 147.36 106.45 148.45 106.16 148.79 105.09"/>
    <polyline class="st6" points="150.07 101.13 148.97 101.49 148.61 102.59 149.71 102.24 150.07 101.13"/>
    <polyline class="st6" points="150.51 99.79 149.5 99.84 149.19 100.8 150.2 100.75 150.51 99.79"/>
    <path class="st23" d="M174.77,22.6l-2.96,11.35,3.61-11.16c-.22-.05-.44-.11-.65-.19"/>
    <polyline class="st23" points="152.12 91.75 151.67 93.12 152.23 94.46 152.68 93.08 152.12 91.75"/>
    <polyline class="st23" points="153.48 87.53 152.85 89.48 153.19 91.51 153.82 89.55 153.48 87.53"/>
    <polyline class="st23" points="155.9 80.06 154.9 83.14 154.84 86.38 155.84 83.3 155.9 80.06"/>
    <path class="st1" d="M140.41,95.31l.6,4.96.94-.05-.58-4.81-.96-.1M139.44,87.25l.85,7.11.96.1-.76-6.3-1.06-.91M138.41,78.7l.86,7.17,1.06.91-.9-7.51-1.01-.56M138.49,71.45l-.87.63.66,5.47,1.01.56-.8-6.66M137.98,67.19l-.9.42.41,3.4.87-.63-.38-3.19M136.94,58.54c-.3.07-.62.11-.93.11l.96,7.98.9-.42-.92-7.67"/>
    <polyline class="st6" points="138.27 77.54 138.41 78.7 139.43 79.26 139.29 78.1 138.27 77.54"/>
    <polyline class="st6" points="140.29 94.35 140.41 95.31 141.37 95.41 141.25 94.45 140.29 94.35"/>
    <polyline class="st6" points="139.27 85.86 139.44 87.25 140.49 88.15 140.33 86.77 139.27 85.86"/>
    <path class="st1" d="M142.84,107.66l-.92.25.82,6.85c.12-.03.25-.05.38-.07l-.23-6.57-.05-.45M142.46,104.55l-.91.29.25,2.11.92-.25-.26-2.16M142.06,101.16l-.94.05.32,2.69.91-.29-.29-2.44"/>
    <polyline class="st6" points="142.72 106.71 141.8 106.96 141.92 107.9 142.84 107.66 142.72 106.71"/>
    <polyline class="st6" points="142.35 103.6 141.44 103.89 141.55 104.84 142.46 104.55 142.35 103.6"/>
    <polyline class="st6" points="141.94 100.22 141 100.27 141.11 101.2 142.06 101.16 141.94 100.22"/>
    <polyline class="st6" points="138.36 70.38 137.49 71.01 137.62 72.08 138.49 71.45 138.36 70.38"/>
    <path class="st1" d="M141.64,44.44l-.92.67.14,4.02.91-.81-.13-3.89M141.1,28.69l-.93.26.52,15.03.92-.67-.5-14.61M139.77,15.06l-.05.63.42,12.29.93-.26-.43-12.58-.87-.09M140.18,12.36h-.18s-.15,1.77-.15,1.77l.63.07-.3-1.83"/>
    <polyline class="st6" points="141.07 27.72 140.14 27.98 140.17 28.95 141.1 28.69 141.07 27.72"/>
    <polyline class="st6" points="141.6 43.31 140.69 43.98 140.73 45.12 141.64 44.44 141.6 43.31"/>
    <polyline class="st6" points="139.85 14.12 139.77 15.06 140.64 15.15 140.64 15.13 140.48 14.19 139.85 14.12"/>
    <path class="st23" d="M140.54,12.32c-.12.02-.24.03-.36.04l.3,1.83h.12s-.06-1.87-.06-1.87"/>
    <polyline class="st12" points="140.48 14.19 140.64 15.13 140.6 14.2 140.48 14.19"/>
    <path class="st1" d="M140.91,50.5l.15,4.24.95.2-.13-3.9-.96-.54M141.82,49.55l-.26.23.27.15v-.38"/>
    <polyline class="st6" points="141.56 49.78 140.91 50.36 140.91 50.5 141.87 51.03 141.83 49.93 141.56 49.78"/>
    <path class="st1" d="M141.27,60.85l.13,3.71.93-.43-.07-2.17-.98-1.11M141.09,55.7l.13,3.67.98,1.11-.16-4.58-.95-.2"/>
    <polyline class="st23" points="141.22 59.38 141.27 60.85 142.25 61.96 142.19 60.48 141.22 59.38"/>
    <path class="st1" d="M142.46,95.53l.16,4.66.94-.05-.16-4.51-.94-.1M142.26,89.66l.17,4.91.94.1-.14-4.18-.97-.83M141.95,80.65l.27,7.74.97.83-.28-8.04-.96-.53M141.68,69.14l-.13.09.35,10.32.96.53-.3-8.82-.88-2.12M142.47,68.57h0s0,.02,0,.02v-.02M142.36,65.15l-.93.43.02.54.65,1.55.34-.24-.08-2.29"/>
    <polyline class="st6" points="141.91 79.55 141.95 80.65 142.91 81.18 142.87 80.08 141.91 79.55"/>
    <polyline class="st6" points="142.42 94.58 142.46 95.53 143.4 95.63 143.37 94.68 142.42 94.58"/>
    <polyline class="st6" points="142.21 88.39 142.26 89.66 143.23 90.5 143.18 89.22 142.21 88.39"/>
    <path class="st1" d="M143.81,107.4l-.93.25.02.46.78,6.53h.07s0,0,0,0c.11,0,.21,0,.32.01l-.25-7.25M143.7,104.16l-.93.3.08,2.23.93-.25-.08-2.27M143.59,101.08l-.94.05.08,2.35.93-.3-.07-2.1"/>
    <polyline class="st6" points="143.77 106.43 142.84 106.68 142.87 107.65 143.81 107.4 143.77 106.43"/>
    <polyline class="st6" points="143.66 103.18 142.73 103.48 142.76 104.46 143.7 104.16 143.66 103.18"/>
    <polyline class="st6" points="143.56 100.14 142.62 100.19 142.65 101.13 143.59 101.08 143.56 100.14"/>
    <path class="st23" d="M142.47,68.57l-.78.57.88,2.12-.09-2.67v-.02M141.45,66.13l.07,1.97.58-.42-.65-1.55"/>
    <path class="st6" d="M141.54,68.79l.02.44.13-.09-.14-.35M142.43,67.44l-.34.24.37.89h0s-.04-1.14-.04-1.14"/>
    <polyline class="st2" points="142.09 67.68 141.52 68.1 141.54 68.79 141.68 69.14 142.47 68.57 142.09 67.68"/>
    <path class="st23" d="M142.89,108.11l.23,6.57c.18-.03.37-.04.56-.04l-.78-6.53"/>
    <path class="st1" d="M152.36,73.37l-.66,3.31.43,2.64,1.01-5.07-.78-.88M154.49,62.66l-1.9,9.56.78.88,1.89-9.5v-.77c-.25-.03-.52-.09-.77-.17"/>
    <polyline class="st23" points="152.59 72.21 152.36 73.37 153.14 74.25 153.38 73.1 152.59 72.21"/>
    <path class="st1" d="M150.03,85.11l-.22,1.09.65,1.56.43-2.18-.86-.48M151.18,79.31l-.96,4.83.86.48.53-2.67-.43-2.64"/>
    <polyline class="st6" points="150.22 84.14 150.03 85.11 150.89 85.59 151.09 84.62 150.22 84.14"/>
    <path class="st1" d="M147.85,96.09l-.77,3.87.97-.05.74-3.72-.94-.1M148.12,94.7l-.09.47.73.08-.64-.55M149.48,87.86l-1.15,5.78.82.7.98-4.92-.65-1.56"/>
    <polyline class="st6" points="148.03 95.17 147.85 96.09 148.79 96.19 148.94 95.4 148.76 95.24 148.03 95.17"/>
    <polyline class="st6" points="148.33 93.64 148.12 94.7 148.76 95.24 148.97 95.26 149.15 94.34 148.33 93.64"/>
    <polyline class="st18" points="148.76 95.24 148.94 95.4 148.97 95.26 148.76 95.24"/>
    <path class="st1" d="M146.71,106.62l-1.01.27-1.54,7.77c.18.02.35.04.52.08l1.09-3.36.95-4.76M147.44,102.96l-1.02.33-.51,2.57,1.01-.27.52-2.63M147.86,100.87l-.97.05-.26,1.32,1.02-.33.21-1.04"/>
    <polyline class="st6" points="146.92 105.59 145.9 105.86 145.7 106.89 146.71 106.62 146.92 105.59"/>
    <polyline class="st6" points="147.65 101.91 146.63 102.23 146.42 103.29 147.44 102.96 147.65 101.91"/>
    <polyline class="st6" points="148.05 99.91 147.08 99.96 146.89 100.91 147.86 100.87 148.05 99.91"/>
    <polyline class="st23" points="149.81 86.2 149.48 87.86 150.13 89.42 150.46 87.76 149.81 86.2"/>
    <polyline class="st23" points="151.7 76.68 151.18 79.31 151.62 81.95 152.14 79.32 151.7 76.68"/>
    <polyline class="st23" points="155.28 62.82 155.26 63.6 155.41 62.84 155.28 62.82"/>
    <path class="st23" d="M145.77,111.38l-1.09,3.36c.13.03.27.06.4.1l.69-3.47"/>
    <path class="st3" d="M143.63,63.52l-1.31.61.04,1.02,1.92-.9-.65-.73M148.23,61.37l-3.72,1.74.65.73,3.22-1.51-.16-.96M151.56,59.81l-2.44,1.14.16.96,2.25-1.05.39-.28c-.14-.25-.26-.51-.35-.78"/>
    <polyline class="st0" points="144.52 63.1 143.63 63.52 144.28 64.25 145.17 63.84 144.52 63.1"/>
    <polyline class="st0" points="149.12 60.95 148.23 61.37 148.39 62.33 149.28 61.92 149.12 60.95"/>
    <polyline class="st15" points="151.91 60.59 151.52 60.87 151.95 60.67 151.91 60.59"/>
    <path class="st3" d="M140.04,65.19l-2.18,1.02.12.98,2.42-1.13-.36-.87M141.39,64.56l-.5.23.36.87.17-.08-.04-1.02"/>
    <polyline class="st0" points="140.89 64.79 140.04 65.19 140.4 66.06 141.25 65.66 140.89 64.79"/>
    <path class="st3" d="M123.15,73.27l-.88,1.26,1.52-.71-.64-.55M125.91,71.79l-1.97.92.78.67,2.2-1.03-1.02-.56M136.96,66.63l-10,4.67,1.02.56,9.1-4.25-.12-.98"/>
    <polyline class="st15" points="126.96 71.3 125.91 71.79 126.93 72.36 127.98 71.86 126.96 71.3"/>
    <polyline class="st15" points="123.94 72.71 123.35 72.99 123.15 73.27 123.79 73.82 124.73 73.38 123.94 72.71"/>
    <path class="st3" d="M103.16,82.42l-5.17,2.41,1.04.55,3.36-1.57.77-1.4M104.26,82.38l-.42.76.67-.31-.24-.45M107.85,80.23l-2.94,1.37.45.83,2.61-1.22-.12-.98M111.12,78.7l-2.38,1.11.12.98,2.09-.98.16-1.11M121.65,73.78l-9.51,4.44-.16,1.11,8.59-4.01,1.08-1.54"/>
    <polyline class="st0" points="104.06 82 103.16 82.42 102.39 83.82 103.84 83.14 104.26 82.38 104.06 82"/>
    <polyline class="st0" points="108.74 79.81 107.85 80.23 107.97 81.21 108.87 80.79 108.74 79.81"/>
    <polyline class="st0" points="112.13 78.23 111.12 78.7 110.96 79.81 111.98 79.34 112.13 78.23"/>
    <polyline class="st0" points="104.91 81.6 104.61 81.74 104.26 82.38 104.5 82.83 105.36 82.43 104.91 81.6"/>
    <polyline class="st7" points="104.61 81.74 104.06 82 104.26 82.38 104.61 81.74"/>
    <path class="st3" d="M68.05,98.82l-7.51,3.51-.68.48c.12.21.22.43.3.66l.35-.09,7.96-3.72-.42-.84M76.31,94.96l-7.4,3.46.42.84,7.12-3.33-.14-.97M89.55,88.78l-12.35,5.77.14.97,11.9-5.56.31-1.18M92.52,87.39l-1.86.87-.31,1.18,3.11-1.45-.95-.6M96.93,85.33l-3.4,1.59.95.6,3.49-1.63-1.04-.55"/>
    <polyline class="st0" points="90.66 88.26 89.55 88.78 89.24 89.96 90.35 89.44 90.66 88.26"/>
    <polyline class="st0" points="77.2 94.54 76.31 94.96 76.45 95.93 77.34 95.52 77.2 94.54"/>
    <polyline class="st0" points="68.91 98.42 68.05 98.82 68.47 99.66 69.32 99.26 68.91 98.42"/>
    <polyline class="st0" points="60.54 102.33 59.79 102.68 59.86 102.8 60.54 102.33"/>
    <polyline class="st0" points="97.99 84.83 96.93 85.33 97.97 85.88 99.03 85.38 97.99 84.83"/>
    <polyline class="st15" points="93.53 86.92 92.52 87.39 93.46 87.99 94.48 87.51 93.53 86.92"/>
    <polyline class="st0" points="60.52 103.38 60.16 103.46 60.19 103.53 60.52 103.38"/>
    <polyline class="st15" points="123.01 73.15 121.65 73.78 120.57 75.33 122.27 74.53 123.15 73.27 123.01 73.15"/>
    <polyline class="st20" points="123.35 72.99 123.01 73.15 123.15 73.27 123.35 72.99"/>
    <polyline class="st0" points="137.86 66.21 136.96 66.63 137.08 67.61 137.98 67.19 137.86 66.21"/>
    <polyline class="st0" points="142.32 64.13 141.39 64.56 141.43 65.58 142.36 65.15 142.32 64.13"/>
    <path class="st1" d="M151.75,39.5l-1.07.95.31.98,1.12-.99-.36-.93M173.01,21.4l-4.71,3.46-15.79,13.98.36.93,20.43-18.08-.14-.14-.15-.16"/>
    <polyline class="st23" points="152.51 38.84 151.75 39.5 152.12 40.44 152.87 39.77 152.51 38.84"/>
    <path class="st6" d="M172.68,20.99l-4.38,3.87,4.71-3.46c-.12-.13-.23-.27-.33-.41"/>
    <path class="st1" d="M145.54,45l-3.77,3.33.04,1.22,3.91-3.46-.18-1.1M149.91,41.13l-3.54,3.13.18,1.1,3.67-3.24-.31-.98"/>
    <polyline class="st23" points="146.38 44.26 145.54 45 145.72 46.1 146.56 45.36 146.38 44.26"/>
    <path class="st1" d="M139.94,49.95l-.95.84.14.13c.18.18.34.37.48.57l1.2-1.06-.87-.49M140.86,49.14l-.17.15.18.1v-.25"/>
    <polyline class="st6" points="140.69 49.29 139.94 49.95 140.81 50.44 140.91 50.36 140.87 49.39 140.69 49.29"/>
    <polyline class="st23" points="141.78 48.33 140.86 49.14 140.87 49.39 141.56 49.78 141.82 49.55 141.78 48.33"/>
    <polyline class="st12" points="140.87 49.39 140.91 50.36 141.56 49.78 140.87 49.39"/>
    <path class="st1" d="M144.37,8.64c-.06.31-.14.61-.26.9l27.07,7.82.75.08c.06-.26.13-.52.24-.77l-27.8-8.03"/>
    <polyline class="st6" points="171.18 17.36 171.91 17.57 171.93 17.44 171.18 17.36"/>
    <path class="st1" d="M173.88,22.15l-15.85,30.87.46,1.17,15.63-30.44.41-1.25c-.22-.1-.44-.21-.64-.35"/>
    <path class="st23" d="M158.03,53.02l-.57,1.1c.29.11.57.26.84.43l.19-.36-.46-1.17"/>
    <polyline class="st23" points="174.53 22.5 174.12 23.75 174.72 22.58 174.53 22.5"/>
    <path class="st1" d="M138.53,29.41l-.97.27-1.46,17.04.49.27.46-.34,1.48-17.24M138.83,14.96l-1.18,13.72.97-.27,1.09-12.72-.02-.64-.86-.09M139.06,12.28l-.15,1.74.75.08-.06-1.75c-.18-.01-.36-.04-.54-.07"/>
    <polyline class="st6" points="138.62 28.41 137.65 28.68 137.57 29.68 138.53 29.41 138.62 28.41"/>
    <polyline class="st6" points="137.05 46.65 136.59 46.99 137 47.22 137.05 46.65"/>
    <path class="st1" d="M136.66,48.11l-.72.53-.08.98h.08c.29,0,.57.03.85.08l.12-1.44-.26-.14"/>
    <polyline class="st6" points="136.01 47.74 135.94 48.63 136.66 48.11 136.01 47.74"/>
    <polyline class="st6" points="138.91 14.02 138.83 14.96 139.69 15.05 139.66 14.1 138.91 14.02"/>
    <path class="st6" d="M136.95,47.89l-.29.21.26.14.03-.36M136.1,46.71l-.06.67.55-.4-.49-.27"/>
    <polyline class="st18" points="136.59 46.99 136.04 47.39 136.01 47.74 136.66 48.11 136.95 47.89 137 47.22 136.59 46.99"/>
    <path class="st23" d="M139.69,15.05l.02.64.05-.63h-.08M139.6,12.35l.06,1.75.19.02.15-1.76h-.09s0,0,0,0c-.11,0-.21,0-.32-.01"/>
    <polyline class="st12" points="139.66 14.1 139.69 15.05 139.77 15.06 139.85 14.12 139.66 14.1"/>
    <path class="st1" d="M148.35,56.27l.16,1,2.82.6c.03-.31.1-.62.19-.92l-3.18-.67M142,54.93l.03.97,5.49,1.16-.16-1-5.36-1.13M140.43,54.6c-.03.31-.1.62-.19.92l.85.18-.03-.97-.62-.13"/>
    <polyline class="st23" points="147.36 56.07 147.53 57.06 148.51 57.27 148.35 56.27 147.36 56.07"/>
    <polyline class="st23" points="141.06 54.73 141.09 55.7 142.04 55.9 142 54.93 141.06 54.73"/>
    <polyline class="st1" points="141.11 12.2 141.11 12.2 141.45 14.26 141.46 14.29 141.94 14.34 141.11 12.2"/>
    <path class="st23" d="M141.72,11.99c-.2.09-.4.16-.61.21l.83,2.13.53.05-.76-2.4"/>
    <path class="st1" d="M150.01,38.3l-.8.59.71,2.24.77-.68-.68-2.15M146.51,27.18l-.91.25,3.31,10.5.8-.59-3.2-10.17M141.76,15.27l3.55,11.27.91-.25-1.6-5.07-2.3-5.89-.56-.06"/>
    <polyline class="st6" points="146.22 26.29 145.32 26.54 145.6 27.44 146.51 27.18 146.22 26.29"/>
    <polyline class="st23" points="142.33 15.32 144.63 21.22 142.78 15.37 142.33 15.32"/>
    <polyline class="st6" points="149.71 37.35 148.91 37.94 149.21 38.89 150.01 38.3 149.71 37.35"/>
    <polyline class="st6" points="141.46 14.29 141.76 15.27 142.33 15.32 141.94 14.34 141.46 14.29"/>
    <polyline class="st2" points="141.94 14.34 142.33 15.32 142.78 15.37 142.48 14.39 141.94 14.34"/>
    <path class="st23" d="M141.11,12.2c-.1.03-.19.05-.29.07l.63,1.99-.34-2.06"/>
    <path class="st1" d="M151,41.43l-.77.68,3.81,12.08c.29-.12.59-.22.9-.28l-3.93-12.48"/>
    <polyline class="st23" points="150.69 40.45 149.91 41.13 150.22 42.11 151 41.43 150.69 40.45"/>
    <path class="st13" d="M84.99,123.71c0-1.08-.43-2.11-1.19-2.87-.76-.76-1.79-1.19-2.86-1.19s-2.11.43-2.87,1.19c-.76.76-1.18,1.79-1.18,2.87s.43,2.1,1.18,2.86c.76.76,1.79,1.19,2.87,1.19s2.11-.43,2.86-1.19c.76-.76,1.19-1.79,1.19-2.86"/>
    <path class="st5" d="M77.65,121.35l-.23.31-.36-.27c-.41.69-.64,1.49-.64,2.32,0,1.2.48,2.35,1.32,3.19h0s0,0,0,0c.85.85,2,1.33,3.2,1.33,1.2,0,2.35-.48,3.2-1.33h0c.82-.81,1.29-1.91,1.32-3.05l-.45.03-.03-.4v.22c0,1.07-.42,2.1-1.18,2.86-.76.76-1.79,1.19-2.86,1.19s-2.11-.43-2.87-1.19c-.76-.76-1.18-1.79-1.18-2.86,0-.85.27-1.68.75-2.36M83.52,120l-.19.35.27-.3-.07-.05M82.53,119.48l-.11.43-.45-.12c.69.18,1.33.54,1.84,1.06.67.67,1.09,1.56,1.17,2.5l-.02-.32-.12-.46-.17-.54.42-.14c-.19-.44-.46-.85-.78-1.21l-.3.33-.7-.63-.82-.45.21-.39-.17-.07M79.83,119.33c-.16.04-.31.09-.47.15l.2.4-.84.42-.2-.4c-.28.18-.54.38-.78.62h0s0,0,0,0l-.12.13.36.27-.22.3c.1-.13.21-.25.32-.36.59-.59,1.35-.98,2.16-1.13l-.34.05-.06-.44M80.94,119.19h-.18s.06.45.06.45l-.33.05c.15-.02.3-.03.45-.03.34,0,.68.04,1.01.13l-.44-.12.11-.43c-.22-.03-.45-.05-.68-.05"/>
    <path class="st25" d="M81.62,119.24l-.11.43.44.12h.01s.45.12.45.12l.11-.43c-.29-.11-.6-.19-.91-.24"/>
    <polyline class="st22" points="84.83 122.56 84.95 123.03 84.95 122.95 85.39 122.91 85.37 122.79 84.94 122.92 84.83 122.56"/>
    <path class="st25" d="M82.7,119.54l-.21.39.82.45h0s.03-.03.03-.03l.19-.35c-.26-.18-.53-.33-.82-.45"/>
    <path class="st25" d="M80.76,119.19c-.32.01-.63.06-.93.14l.06.44.34-.05.25-.04.33-.05-.06-.44"/>
    <path class="st25" d="M79.36,119.47c-.29.11-.58.25-.84.42l.2.4.84-.42-.2-.4"/>
    <polyline class="st22" points="85.08 121.89 84.66 122.03 84.83 122.56 84.73 122.21 85.16 122.09 85.08 121.89"/>
    <path class="st4" d="M85.16,122.09l-.43.11.09.35.12.36.42-.14c-.05-.24-.12-.47-.2-.69"/>
    <path class="st25" d="M83.6,120.05l-.27.3-.02.04h0s.7.62.7.62l.3-.33-.16-.17h0c-.17-.17-.35-.32-.54-.46"/>
    <polyline class="st9" points="83.33 120.35 83.3 120.38 83.3 120.38 83.31 120.39 83.33 120.35"/>
    <path class="st22" d="M85.41,123l-.43.11-.02-.09.02.32v.15s.04.4.04.4l.45-.03v-.14c0-.24-.02-.48-.05-.71"/>
    <polyline class="st4" points="85.39 122.91 84.95 122.95 84.95 123.03 84.98 123.12 85.41 123 85.39 122.91"/>
    <path class="st25" d="M77.62,120.64c-.21.23-.4.49-.56.75l.36.27.23-.31.11-.15.22-.3-.36-.27"/>
    <path class="st17" d="M78.41,121.18h0M78.41,121.18c.67-.67,1.59-1.05,2.53-1.05h0c.95,0,1.86.38,2.53,1.05h0s0,0,0,0c.67.67,1.05,1.58,1.05,2.53,0,.95-.38,1.86-1.05,2.53h0s0,0,0,0c-.67.67-1.58,1.05-2.53,1.05s-1.86-.38-2.53-1.05c-.67-.67-1.05-1.58-1.05-2.53s.38-1.86,1.04-2.53M80.94,119.66c-.15,0-.3,0-.45.03l-.25.04c-.81.14-1.57.54-2.16,1.13-.11.11-.22.24-.32.36l-.11.15c-.49.68-.75,1.51-.75,2.36,0,1.07.43,2.1,1.18,2.86.76.76,1.79,1.19,2.87,1.19s2.11-.43,2.86-1.19c.76-.76,1.19-1.79,1.19-2.86v-.22s-.02-.15-.02-.15c-.09-.94-.5-1.82-1.17-2.5-.51-.51-1.15-.87-1.84-1.06h-.01c-.33-.09-.67-.13-1.01-.13"/>
    <path class="st13" d="M107.09,38.83c0-1.07-.43-2.1-1.19-2.86-.76-.76-1.79-1.19-2.86-1.19s-2.11.43-2.87,1.19c-.76.76-1.19,1.79-1.19,2.86s.43,2.11,1.19,2.87c.76.76,1.79,1.19,2.87,1.19s2.1-.43,2.86-1.19c.76-.76,1.19-1.79,1.19-2.87"/>
    <path class="st5" d="M102.12,42.77l.36.09-.11.43c.22.03.45.05.68.05h.1s-.06-.44-.06-.44l.4-.05c-.15.02-.3.02-.44.02-.31,0-.62-.04-.93-.11M104.53,42.6c-.29.12-.6.2-.91.24l.4-.05.06.44.24-.06-.17-.41.38-.16M100.8,42.2l.28.2-.26.37c.21.12.42.22.64.3l.11-.43.36.09c-.4-.11-.78-.29-1.12-.52M106.67,40.62c-.19.39-.45.76-.77,1.07-.37.37-.8.66-1.27.86l.38-.16.17.41c.38-.21.74-.47,1.05-.78h0s0,0,0,0c.26-.27.49-.56.68-.88l-.41-.19.16-.34M99.26,40.3l.15.41-.42.16c.21.43.5.82.84,1.16l.2.19.26-.36.28.2c-.14-.11-.28-.23-.41-.36-.4-.4-.71-.88-.91-1.39M106.97,37.84c.08.32.12.65.12.98,0,.57-.12,1.12-.34,1.63l.16-.35.4.19c.16-.47.25-.97.25-1.47,0-.25-.02-.51-.06-.76l-.43.12-.1-.35M99.85,36.32l-.24.3-.35-.28c-.48.73-.75,1.6-.75,2.49,0,.39.05.78.15,1.16l.42-.16.15.4c-.16-.45-.25-.92-.25-1.4,0-.91.31-1.79.87-2.5M103.04,34.31c-1.19,0-2.33.47-3.18,1.3l.35.28-.24.3.21-.23c.76-.76,1.79-1.19,2.87-1.19s2.1.43,2.86,1.19c.47.47.82,1.05,1.01,1.67l-.1-.35.43-.12c-.12-.31-.27-.6-.46-.87l-.34.29-.61-.72.34-.29c-.84-.81-1.97-1.27-3.14-1.27"/>
    <path class="st25" d="M101.56,42.63l-.11.43c.29.11.6.19.91.24l.11-.43-.36-.09-.2-.05-.36-.09"/>
    <path class="st25" d="M105.02,42.4l-.38.16-.1.04-.38.16.17.41c.3-.09.59-.21.87-.36l-.17-.41"/>
    <path class="st25" d="M99.86,35.61l-.02.02c-.22.22-.41.45-.58.71l.35.28.24-.3.11-.13.24-.3-.35-.28"/>
    <path class="st25" d="M99.08,39.83l-.42.16c.08.3.19.6.33.88l.42-.16-.15-.41-.03-.07-.15-.4"/>
    <path class="st25" d="M104.02,42.79l-.4.05-.13.02-.4.05.06.44c.32,0,.63-.05.93-.12l-.06-.44"/>
    <path class="st25" d="M100.31,41.85l-.26.36c.24.21.49.39.77.55l.26-.37-.28-.2-.21-.15-.28-.2"/>
    <path class="st22" d="M107.24,37.16l-.43.12.1.35.06.21.1.35.43-.12c-.05-.31-.14-.61-.25-.91"/>
    <path class="st22" d="M106.91,40.11l-.16.35-.08.17-.16.34.41.19c.16-.27.29-.56.4-.85l-.4-.19"/>
    <path class="st22" d="M106.18,35.57l-.34.29.61.72.34-.29c-.16-.24-.34-.46-.55-.66l-.06-.06"/>
    <polyline class="st25" points="99.84 35.63 99.84 35.63 99.84 35.63 99.84 35.63"/>
    <path class="st17" d="M105.57,41.36h0M100.51,36.3h0M100.51,36.3h0c.67-.67,1.58-1.05,2.53-1.05.95,0,1.86.38,2.53,1.05.67.67,1.05,1.58,1.05,2.53,0,.95-.38,1.86-1.05,2.53-.67.67-1.58,1.05-2.53,1.05-.95,0-1.86-.38-2.53-1.05-.67-.67-1.05-1.58-1.05-2.53,0-.95.38-1.86,1.05-2.53M103.04,34.78c-1.08,0-2.11.43-2.87,1.19l-.21.23-.11.13c-.56.71-.87,1.59-.87,2.5,0,.48.09.96.25,1.4l.03.07c.2.52.51.99.91,1.39.13.13.27.25.41.36l.21.15c.35.23.72.4,1.12.52l.2.05c.3.07.61.11.93.11.15,0,.3,0,.44-.02l.13-.02c.31-.05.62-.13.91-.24l.1-.04c.47-.2.9-.49,1.27-.86.32-.32.57-.68.77-1.07l.08-.17c.22-.51.34-1.06.34-1.63,0-.33-.04-.67-.12-.98l-.06-.21c-.19-.63-.54-1.2-1.01-1.67-.76-.76-1.79-1.19-2.86-1.19"/>
    <path class="st14" d="M179.31,98.5c0-1.08-.43-2.11-1.19-2.87-.76-.76-1.79-1.19-2.86-1.19s-2.11.43-2.87,1.19c-.76.76-1.18,1.79-1.18,2.87s.43,2.1,1.18,2.86c.76.76,1.79,1.19,2.87,1.19s2.11-.43,2.86-1.19c.76-.76,1.19-1.79,1.19-2.86"/>
    <path class="st5" d="M171.93,95.45c-.14.15-.26.31-.37.47l.39.22-.2.36c.18-.31.4-.6.65-.86l.05-.05-.22.2-.3-.34M172.88,94.66l-.25.17.3.34-.24.21c.31-.25.64-.45,1.01-.6l-.08.03-.54.26-.19-.4M175.8,94.01v.45s-.31,0-.31,0c.99.05,1.94.48,2.64,1.18.76.76,1.19,1.79,1.19,2.87s-.43,2.1-1.19,2.86c-.76.76-1.79,1.19-2.86,1.19s-2.11-.43-2.87-1.19c-.76-.76-1.18-1.79-1.18-2.86,0-.68.17-1.34.48-1.92l-.21.37-.39-.22c-.11.26-.2.54-.26.82l.44.05-.09.84.06.74.22.82-.43.11c.06.16.13.31.2.46l.37-.24.52.79-.37.24c.09.12.2.23.3.34h0c.85.85,2,1.33,3.2,1.33h0c1.2,0,2.35-.48,3.2-1.33h0c.85-.85,1.33-2,1.33-3.19,0-1.2-.48-2.35-1.33-3.2-.72-.72-1.66-1.17-2.66-1.29M174.85,94c-.27.02-.53.07-.79.14l.16.42-.34.13c.4-.15.83-.23,1.27-.24h-.3s0-.45,0-.45"/>
    <path class="st22" d="M171.25,99.19v.09s-.44.03-.44.03c.05.28.13.55.22.81l.43-.11-.22-.82"/>
    <path class="st22" d="M171.55,95.92c-.18.26-.33.54-.45.82l.39.22.21-.37.05-.09.2-.36-.39-.22"/>
    <path class="st25" d="M171.2,98.45v.1s-.45-.05-.45-.05h0c0,.24.02.48.06.71l.43-.11.02.09-.06-.74"/>
    <polyline class="st16" points="171.23 99.09 170.8 99.21 170.82 99.31 171.26 99.28 171.25 99.19 171.23 99.09"/>
    <path class="st22" d="M170.84,97.56c-.06.27-.09.54-.1.81l.44-.03v.11s.1-.84.1-.84l-.44-.05"/>
    <polyline class="st11" points="171.19 98.34 170.75 98.37 170.74 98.5 171.19 98.55 171.2 98.45 171.19 98.34"/>
    <path class="st25" d="M171.62,100.33l-.37.24c.14.28.32.54.51.79l.37-.24-.52-.79"/>
    <path class="st25" d="M175.26,93.98c-.14,0-.27,0-.41.02v.45s.3,0,.3,0h.11s.22,0,.22,0h.31s0-.44,0-.44c-.18-.02-.35-.03-.53-.03"/>
    <path class="st25" d="M172.63,94.83c-.2.14-.39.3-.57.48h0s0,0,0,0l-.14.14.3.34.22-.2.25-.22.24-.21-.3-.34"/>
    <path class="st25" d="M174.07,94.14c-.11.03-.23.07-.34.11l.19.4-.31.15.08-.03.19-.07.34-.13-.16-.42"/>
    <path class="st25" d="M173.19,94.49c-.1.05-.21.11-.31.17l.19.4.54-.26-.26.1-.16-.42"/>
    <path class="st9" d="M173.73,94.25c-.18.07-.37.15-.54.24l.16.42.26-.1.31-.15-.19-.4"/>
    <path class="st19" d="M172.73,95.97c.67-.67,1.58-1.05,2.54-1.05h0c.95,0,1.86.38,2.53,1.05.67.67,1.05,1.58,1.05,2.53,0,.95-.38,1.86-1.05,2.53h0c-.67.67-1.58,1.05-2.53,1.05-.95,0-1.86-.38-2.53-1.05h0c-.67-.67-1.05-1.58-1.05-2.53s.38-1.86,1.05-2.54h0M175.26,94.45h-.11c-.44.01-.86.1-1.27.24l-.19.07c-.36.15-.7.35-1.01.6l-.25.22-.05.05c-.26.26-.47.55-.65.86l-.05.09c-.31.58-.48,1.24-.48,1.92,0,1.07.43,2.1,1.18,2.86.76.76,1.79,1.19,2.87,1.19s2.11-.43,2.86-1.19c.76-.76,1.19-1.79,1.19-2.86s-.43-2.11-1.19-2.87c-.7-.7-1.65-1.13-2.64-1.18h-.22"/>
    <path class="st13" d="M117.65,64.46c0-1.07-.43-2.11-1.19-2.86-.76-.76-1.79-1.19-2.87-1.19s-2.1.43-2.86,1.19c-.76.76-1.19,1.79-1.19,2.86s.43,2.11,1.19,2.87c.76.76,1.79,1.18,2.86,1.18s2.11-.43,2.87-1.18c.76-.76,1.19-1.79,1.19-2.87"/>
    <path class="st5" d="M110.37,66.91l.19.26-.37.26.21.23h0s0,0,0,0c.19.19.4.36.61.51l.21-.39.82.45-.21.39c.22.09.44.17.67.22l.06-.44.93.13-.06.44h.16c1.16,0,2.27-.44,3.11-1.23l-.34-.29.25-.3-.16.17c-.76.76-1.79,1.18-2.87,1.18s-2.1-.43-2.86-1.18c-.13-.13-.25-.27-.36-.42M117.07,66.54c-.1.17-.22.34-.35.49l.21-.25.14-.25M109.55,64.25l-.03.36-.45-.04c.02.74.22,1.45.57,2.09l.37-.26.19.27c-.42-.65-.66-1.42-.66-2.21v-.21M116.92,62.13c.47.68.73,1.49.73,2.32,0,.64-.15,1.27-.44,1.83l.16-.28.39.22c.23-.55.36-1.15.36-1.76,0-.81-.22-1.6-.62-2.28l-.36.26-.22-.31M115.92,60.58l-.19.41-.35-.16c.4.19.76.45,1.08.77.13.13.24.26.35.4l-.23-.31.36-.26-.15-.16h0c-.26-.26-.56-.49-.88-.68M111.45,60.48c-.15.08-.29.17-.43.26l.29.34-.71.61-.29-.34c-.6.64-1,1.43-1.16,2.28l.45.04-.03.36c.1-.92.51-1.78,1.16-2.43.37-.37.81-.66,1.28-.86l-.39.16-.17-.41M113.6,59.94h0c-.44,0-.86.06-1.27.18l.17.41-.39.16c.47-.19.98-.29,1.5-.29.57,0,1.12.12,1.63.34l-.35-.16.19-.41c-.47-.16-.97-.25-1.47-.25"/>
    <path class="st25" d="M111.23,67.78l-.21.39c.26.18.54.33.82.45l.21-.39-.82-.45"/>
    <path class="st25" d="M112.32,60.12c-.3.09-.59.21-.87.36l.17.41.39-.16.09-.04.39-.16-.17-.41"/>
    <path class="st22" d="M117.37,66l-.16.28-.14.25-.14.25.04-.05.34.29c.18-.25.32-.53.44-.81l-.39-.22"/>
    <path class="st25" d="M111.02,60.74c-.22.15-.43.33-.62.52h0s-.09.09-.09.09l.29.34.71-.61-.29-.34"/>
    <path class="st25" d="M109.15,63.63c-.05.27-.08.55-.08.82v.11s.45.04.45.04l.03-.36.02-.22.03-.36-.45-.04"/>
    <path class="st22" d="M116.94,66.79l-.21.25-.1.12-.25.3.34.29.09-.09h0c.19-.19.36-.4.51-.61l-.39-.22.02-.04"/>
    <polyline class="st4" points="116.98 66.74 116.94 66.79 116.92 66.83 117.31 67.04 117.32 67.03 116.98 66.74"/>
    <path class="st25" d="M112.57,68.4l-.06.44c.3.08.62.12.93.13l.06-.44-.93-.13"/>
    <path class="st25" d="M110.01,66.4l-.37.26c.15.27.33.53.54.77l.37-.26-.19-.26-.17-.24-.19-.27"/>
    <path class="st22" d="M116.94,61.42l-.36.26.23.31.1.14.22.31.36-.26c-.16-.27-.34-.52-.56-.76"/>
    <path class="st22" d="M115.07,60.18l-.19.41.35.16.15.07.35.16.19-.41c-.27-.16-.56-.29-.85-.4"/>
    <polyline class="st22" points="116.79 67.66 116.79 67.66 116.79 67.66 116.79 67.66"/>
    <path class="st17" d="M111.06,66.99c-.67-.67-1.05-1.58-1.05-2.53,0-.95.38-1.86,1.05-2.53h0c.67-.67,1.58-1.05,2.53-1.05.95,0,1.86.38,2.53,1.05h0c.67.67,1.05,1.58,1.05,2.53,0,.95-.38,1.86-1.05,2.53h0c-.67.67-1.58,1.05-2.54,1.05h0c-.95,0-1.86-.38-2.53-1.05M113.6,60.41c-.52,0-1.02.1-1.5.29l-.09.04c-.47.2-.91.49-1.28.86-.66.66-1.07,1.52-1.16,2.43l-.02.22v.21c0,.79.23,1.56.65,2.21l.17.24c.11.15.23.29.36.42.76.76,1.79,1.18,2.86,1.18s2.11-.43,2.87-1.18l.16-.17.1-.12c.13-.16.25-.32.35-.49l.14-.25c.28-.56.44-1.19.44-1.83,0-.84-.26-1.65-.73-2.32l-.1-.14c-.11-.14-.22-.27-.35-.4-.32-.32-.68-.58-1.08-.77l-.15-.07c-.51-.22-1.06-.34-1.63-.34"/>
    <path class="st13" d="M68.08,6.76c0-1.08-.43-2.11-1.19-2.87-.76-.76-1.79-1.19-2.86-1.19s-2.11.43-2.87,1.19c-.76.76-1.18,1.79-1.18,2.87s.43,2.1,1.18,2.86c.76.76,1.79,1.19,2.87,1.19s2.11-.43,2.86-1.19c.76-.76,1.19-1.79,1.19-2.86"/>
    <path class="st5" d="M64.16,10.92l-.03.36h.08s-.05-.36-.05-.36M63.04,10.69l.27.08.35.03c-.21-.02-.42-.06-.62-.11M66.51,10.37l.07.12.02-.02-.09-.1M68.05,7.23c-.1.9-.51,1.75-1.16,2.39-.76.76-1.79,1.19-2.86,1.19-.1,0-.19,0-.29-.01l.42.03.91-.13.06.44c.21-.05.41-.12.61-.2l-.21-.39.8-.43.6-.52.45-.55.41-.73.39.22c.12-.28.21-.56.27-.86l-.44-.05.04-.42M64.03,2.24c-1.2,0-2.35.48-3.2,1.33h0c-.85.85-1.32,2-1.32,3.2,0,1.2.48,2.35,1.32,3.19h0c.44.44.95.77,1.51,1l.12-.43.33.09c-.61-.19-1.17-.53-1.63-.99-.76-.76-1.18-1.79-1.18-2.86s.43-2.11,1.18-2.87c.76-.76,1.79-1.19,2.87-1.19s2.11.43,2.86,1.19c.76.76,1.19,1.79,1.19,2.87,0,.12,0,.24-.02.36v-.13s.02-.65.02-.65h.45c-.1-1.04-.55-2.03-1.31-2.78h0c-.85-.85-2-1.33-3.2-1.33"/>
    <path class="st25" d="M65.08,10.7l-.91.13h0s0,.08,0,.08l.05.36c.32-.01.63-.06.93-.13l-.06-.44"/>
    <path class="st25" d="M67.39,9.06l-.45.55.09-.08.29.34c.15-.16.28-.32.4-.49l-.39-.22.05-.1"/>
    <path class="st25" d="M66.94,9.61l-.6.52.03-.02.15.27.09.1c.21-.15.41-.31.6-.5l-.34-.28.08-.09"/>
    <polyline class="st9" points="67.03 9.53 66.94 9.61 66.86 9.7 67.2 9.98 67.23 9.96 67.23 9.96 67.32 9.87 67.03 9.53"/>
    <path class="st25" d="M62.47,10.52l-.12.43c.27.11.56.19.85.25l.04-.44h.08s-.27-.07-.27-.07l-.24-.07-.33-.09"/>
    <path class="st25" d="M66.34,10.12l-.8.43.21.39c.29-.12.57-.27.83-.45l-.07-.12-.2-.23.02-.02"/>
    <polyline class="st9" points="66.37 10.1 66.34 10.12 66.31 10.14 66.51 10.37 66.37 10.1"/>
    <path class="st25" d="M63.31,10.77l.06.02-.12.43c.26.05.52.07.78.07h.1s.03-.36.03-.36v-.08s0,0,0,0l-.42-.03h-.09s-.35-.04-.35-.04"/>
    <polyline class="st9" points="64.16 10.84 64.15 10.84 64.16 10.92 64.17 10.84 64.16 10.84"/>
    <polyline class="st9" points="63.23 10.76 63.19 11.2 63.25 11.21 63.37 10.78 63.31 10.77 63.23 10.76"/>
    <path class="st22" d="M68.08,6.99v.13s-.02.1-.02.1l-.04.42.44.05c.03-.13.05-.26.07-.4h-.45s0-.3,0-.3"/>
    <path class="st22" d="M68.09,6.35v.65s.02-.28.02-.28l.44.05c0-.13,0-.27-.02-.4h-.45"/>
    <path class="st4" d="M68.11,6.71l-.03.28v.3s.44,0,.44,0c.02-.18.03-.35.03-.53h0s-.44-.05-.44-.05"/>
    <path class="st22" d="M67.79,8.33l-.41.73.07-.09.34.28c.15-.22.27-.46.38-.7l-.39-.22"/>
    <polyline class="st11" points="67.46 8.97 67.39 9.06 67.33 9.15 67.72 9.37 67.8 9.25 67.46 8.97"/>
    <path class="st17" d="M61.5,4.23h0M61.5,4.23c.67-.67,1.58-1.05,2.53-1.05s1.86.38,2.53,1.05h0c.67.67,1.05,1.58,1.05,2.53,0,.95-.38,1.86-1.05,2.53h0s0,0,0,0c-.67.67-1.58,1.05-2.53,1.05h0c-.95,0-1.86-.38-2.53-1.05h0c-.67-.67-1.05-1.58-1.05-2.53,0-.95.38-1.86,1.05-2.53M64.03,2.71c-1.07,0-2.11.43-2.87,1.19-.76.76-1.18,1.79-1.18,2.87s.43,2.1,1.18,2.86c.46.46,1.02.8,1.63.99l.24.07c.2.05.41.09.62.11h.09c.1.01.19.02.29.02,1.07,0,2.11-.43,2.86-1.19.65-.65,1.05-1.49,1.16-2.39v-.1c.02-.12.03-.24.03-.36,0-1.08-.43-2.11-1.19-2.87-.76-.76-1.79-1.19-2.86-1.19"/>
    <path class="st13" d="M53.03,59.35c0-1.07-.43-2.1-1.19-2.86-.76-.76-1.79-1.19-2.87-1.19s-2.1.43-2.86,1.19c-.76.76-1.19,1.79-1.19,2.86s.43,2.11,1.19,2.87c.76.76,1.79,1.19,2.86,1.19s2.11-.43,2.87-1.19c.76-.76,1.19-1.79,1.19-2.87"/>
    <path class="st5" d="M50.77,62.99c-.33.17-.69.28-1.06.35l.34-.05.07.44c.15-.04.3-.09.44-.14l-.2-.4.41-.2M52.35,61.6c-.15.22-.32.43-.51.62-.31.31-.67.57-1.05.76l.41-.21.2.4c.28-.18.54-.38.78-.62h0s0,0,0,0c.13-.13.24-.26.35-.4l-.38-.24.2-.32M52.54,61.29l-.09.15.04-.06.05-.09M53,59.78c-.05.51-.2.99-.43,1.44l.2-.38.39.21c.11-.28.2-.57.25-.87l-.45-.04.03-.36M53.02,59.15v.2s0,.21,0,.21v-.18s0-.23,0-.23M52.53,57.42c.28.51.44,1.07.48,1.65l-.03-.43.44-.03c-.02-.14-.05-.28-.09-.42l-.42.16-.27-.72-.12-.22M50.67,55.16l-.12.43-.35-.1c.62.19,1.18.53,1.65,1,.24.24.45.52.62.81l-.2-.35.39-.22c-.14-.2-.3-.39-.48-.57h0s0,0,0,0c-.43-.43-.95-.77-1.51-1M48.97,54.83h0c-1.2,0-2.35.48-3.2,1.33-.85.85-1.33,2-1.33,3.2,0,1.2.48,2.35,1.33,3.2.85.85,2,1.33,3.2,1.33h.21s-.07-.45-.07-.45l.34-.05c-.16.02-.32.03-.48.03-1.07,0-2.1-.43-2.86-1.19-.76-.76-1.19-1.79-1.19-2.87s.43-2.1,1.19-2.86c.76-.76,1.79-1.19,2.86-1.19.34,0,.68.04,1.01.13l-.35-.1.12-.43c-.26-.05-.52-.07-.79-.07"/>
    <path class="st25" d="M51.2,62.77l-.41.21h-.02s-.41.21-.41.21l.2.4c.29-.11.58-.25.84-.42l-.2-.4"/>
    <path class="st25" d="M53.12,57.55l-.39.22-.07-.13.27.72.42-.16c-.06-.22-.14-.44-.23-.65"/>
    <path class="st25" d="M53.04,59.38v.18s-.03.22-.03.22l-.03.36.45.04c.04-.2.06-.41.07-.62l-.45.03v-.2"/>
    <path class="st25" d="M49.76,54.9l-.12.43.35.1.21.06.35.1.12-.43c-.29-.12-.59-.2-.9-.26"/>
    <path class="st25" d="M52.77,60.84l-.2.38-.03.07-.05.09.16-.26.38.24c.05-.1.1-.21.14-.31l-.39-.21"/>
    <path class="st22" d="M52.49,61.38l-.04.06-.1.16-.2.32.38.24c.07-.09.14-.18.2-.28l-.39-.21.15-.29"/>
    <path class="st11" d="M52.65,61.12l-.16.26-.15.29.39.21c.11-.17.21-.34.3-.52l-.38-.24"/>
    <path class="st25" d="M50.05,63.29l-.34.05-.25.04-.34.05.07.44c.32-.01.63-.06.93-.14l-.07-.44"/>
    <path class="st22" d="M53.44,58.61l-.44.03.03.43v.08s.02.23.02.23v-.18s.46.04.46.04c0-.21-.03-.42-.06-.63"/>
    <polyline class="st11" points="53.05 59.2 53.04 59.38 53.05 59.58 53.49 59.55 53.5 59.35 53.5 59.24 53.05 59.2"/>
    <path class="st22" d="M52.66,56.73l-.39.22.2.35.07.12.12.22-.06-.16.42-.16c-.1-.21-.22-.4-.36-.59"/>
    <polyline class="st11" points="53.01 57.32 52.6 57.48 52.66 57.64 52.73 57.77 53.12 57.55 53.01 57.32"/>
    <polyline class="st5" points="45.78 56.16 45.78 56.16 45.78 56.16 45.78 56.16"/>
    <polyline class="st5" points="45.78 62.55 45.78 62.55 45.78 62.55 45.78 62.55"/>
    <path class="st17" d="M51.51,61.89h0M48.97,62.94c-.95,0-1.86-.38-2.53-1.05h0c-.67-.67-1.05-1.58-1.05-2.53,0-.95.38-1.86,1.05-2.53h0c.67-.67,1.58-1.05,2.53-1.05.95,0,1.86.38,2.53,1.05.67.67,1.05,1.58,1.05,2.53,0,.95-.38,1.86-1.05,2.53-.67.67-1.58,1.05-2.53,1.05M48.97,55.3c-1.07,0-2.1.43-2.86,1.19-.76.76-1.19,1.79-1.19,2.86s.43,2.11,1.19,2.87c.76.76,1.79,1.19,2.86,1.19.16,0,.32,0,.48-.03l.25-.04c.37-.07.73-.19,1.06-.35h.02c.39-.2.74-.46,1.05-.77.19-.19.36-.4.51-.62l.1-.16.09-.15.03-.07c.23-.45.38-.93.43-1.44l.02-.22v-.21s0-.2,0-.2v-.08c-.05-.58-.21-1.15-.49-1.65l-.07-.12c-.17-.29-.38-.56-.62-.81-.47-.47-1.03-.81-1.65-1l-.21-.06c-.33-.08-.67-.13-1.01-.13"/>
    <path class="st14" d="M159.11,100.03c0-1.07-.43-2.11-1.18-2.86-.76-.76-1.79-1.19-2.87-1.19s-2.11.43-2.86,1.19c-.76.76-1.19,1.79-1.19,2.86s.43,2.11,1.19,2.86c.76.76,1.79,1.19,2.86,1.19s2.11-.43,2.87-1.19c.76-.76,1.18-1.79,1.18-2.86"/>
    <path class="st5" d="M157.75,103.67l-3.2.86c.17.02.34.03.51.03.97,0,1.91-.31,2.69-.89M157.91,97.15l.02.02c.76.76,1.18,1.79,1.18,2.86,0,.93-.32,1.82-.89,2.54l.7-.19c.4-.67.63-1.43.65-2.22l-.44.03-.07-.94.44-.03c-.13-.73-.44-1.42-.9-2l-.7-.07M152.19,96.55l-.23.2.34.29-.61.71-.34-.29c-.06.09-.12.18-.18.28l-.6,1.87v.18s.43-.02.43-.02l.05.94-.44.02.04.22.42-.14.29.9-.42.14c.22.51.54.98.95,1.38h0c.16.16.33.3.5.43l.23-.38.81.48-.07.11.25-.07c-.52-.2-.99-.51-1.39-.91-.76-.76-1.19-1.79-1.19-2.86s.43-2.11,1.19-2.86c.21-.21.44-.39.68-.55l-.7-.07M156.65,95.8l-.07.26.79.08c-.23-.14-.47-.25-.72-.35M153.87,95.67l-.1.03.03.07h.09s-.02-.1-.02-.1M155.62,95.55v.42s.02,0,.02,0l.1-.4-.13-.02"/>
    <path class="st22" d="M158.93,102.38l-.7.19c-.09.11-.19.22-.29.33-.76.76-1.79,1.19-2.87,1.19-.51,0-1.01-.1-1.47-.28l-.25.07-.16.27c.43.2.89.33,1.37.38l3.2-.86c.18-.13.35-.28.51-.44.26-.26.48-.54.67-.85"/>
    <path class="st22" d="M151.06,100.82l-.42.14c.06.31.16.61.29.9l.42-.14-.29-.9"/>
    <path class="st25" d="M159.51,99.23l-.44.03.07.94.44-.03v-.13c0-.27-.02-.54-.07-.81"/>
    <path class="st22" d="M152.9,96.07c-.25.14-.49.3-.71.48l.7.07c.18-.11.37-.21.56-.3l-.37.15-.17-.41M153.8,95.77l.14.34-.37.15c.47-.19.98-.29,1.49-.29,1.07,0,2.09.42,2.85,1.17l.7.07c-.11-.13-.22-.26-.34-.39-.27-.27-.57-.5-.89-.69l-.79-.08-.04.17-.91-.24v-.03s-.02,0-.02,0v.03s-.85-.02-.85-.02l-.82.13-.05-.33h-.09"/>
    <path class="st22" d="M151.87,96.84h0M151.96,96.75l-.09.09c-.19.19-.37.4-.52.62l.34.29.61-.71-.34-.29"/>
    <path class="st25" d="M152.6,103.28l-.23.38c.16.12.34.23.52.33l.45-.12.07-.11-.81-.48"/>
    <path class="st16" d="M153.34,103.87l-.45.12c.1.05.19.1.29.15l.16-.27"/>
    <path class="st22" d="M150.99,99.77l-.44.02v.25c0,.23.01.47.05.69l.44-.02-.05-.94"/>
    <path class="st25" d="M155.74,95.56l-.1.4.95.1.07-.26c-.29-.11-.6-.19-.91-.24"/>
    <polyline class="st16" points="155.64 95.97 155.63 95.99 156.54 96.23 156.58 96.06 155.64 95.97"/>
    <polyline class="st25" points="153.77 95.7 153.61 95.75 153.8 95.77 153.77 95.7"/>
    <path class="st16" d="M153.61,95.75c-.25.08-.49.19-.71.31l.17.41.37-.15.13-.05.37-.15-.14-.34-.18-.02"/>
    <path class="st25" d="M154.68,95.53c-.27.02-.54.07-.81.14l.02.11.78.08v-.33"/>
    <polyline class="st16" points="153.89 95.78 153.94 96.11 154.76 95.98 154.67 95.98 154.67 95.86 153.89 95.78"/>
    <path class="st25" d="M155.07,95.51h-.27s.06.37.06.37l.75.08v-.42c-.17-.02-.36-.03-.54-.03"/>
    <polyline class="st16" points="154.86 95.88 154.87 95.96 154.76 95.98 155.61 95.99 155.61 95.96 154.86 95.88"/>
    <polyline class="st9" points="154.8 95.52 154.68 95.53 154.67 95.86 154.86 95.88 154.8 95.52"/>
    <polyline class="st10" points="154.67 95.86 154.67 95.98 154.76 95.98 154.87 95.96 154.86 95.88 154.67 95.86"/>
    <path class="st25" d="M151.17,97.74c-.34.57-.54,1.21-.6,1.87l.6-1.87"/>
    <polyline class="st22" points="158.26 103.23 158.26 103.23 158.26 103.23 158.26 103.23"/>
    <path class="st19" d="M155.06,103.61c-.95,0-1.86-.38-2.53-1.05h0s0,0,0,0c-.67-.67-1.05-1.58-1.05-2.53,0-.95.38-1.86,1.05-2.53h0s0,0,0,0c.67-.67,1.58-1.05,2.53-1.05.95,0,1.86.38,2.53,1.05.67.67,1.05,1.58,1.05,2.53,0,.95-.38,1.86-1.05,2.53h0c-.67.67-1.58,1.05-2.53,1.05h0M155.06,95.98c-.52,0-1.02.1-1.49.29l-.13.05c-.19.08-.38.18-.56.3-.24.16-.47.34-.68.55-.76.76-1.19,1.79-1.19,2.86s.43,2.11,1.19,2.86c.4.4.87.71,1.39.91.47.18.96.28,1.47.28,1.08,0,2.11-.43,2.87-1.19.1-.1.2-.21.29-.33.57-.71.89-1.61.89-2.54,0-1.07-.43-2.11-1.18-2.86l-.02-.02c-.76-.75-1.78-1.17-2.85-1.17"/>
    <path class="st13" d="M113.82,91.62c0-1.07-.43-2.11-1.19-2.86-.76-.76-1.79-1.19-2.86-1.19s-2.11.43-2.87,1.19c-.76.76-1.19,1.79-1.19,2.86s.43,2.11,1.19,2.87c.76.76,1.79,1.18,2.87,1.18s2.1-.43,2.86-1.18c.76-.76,1.19-1.79,1.19-2.87"/>
    <path class="st5" d="M105.87,92.72l.08.33-.43.11c.2.55.5,1.05.9,1.49l.3-.33.25.23-.06-.06c-.49-.49-.85-1.1-1.03-1.76M106.16,89.78l-.19.35-.39-.21c-.22.53-.33,1.11-.33,1.69,0,.21.01.42.04.63l.43-.11.08.33c-.06-.28-.09-.56-.09-.85,0-.64.15-1.27.44-1.84M113.11,89.32c.46.67.71,1.47.71,2.29,0,1.08-.43,2.11-1.19,2.87-.76.76-1.79,1.18-2.86,1.18-.97,0-1.89-.34-2.62-.96l.27.24-.3.33c.77.56,1.7.86,2.66.86h0c1.2,0,2.35-.48,3.19-1.32h0c.62-.63,1.05-1.41,1.23-2.26l-.44-.05.1-.94.44.05h0c0-.8-.21-1.57-.6-2.25l-.36.26-.22-.3M107.23,87.88c-.23.16-.45.34-.65.54h0c-.21.21-.39.43-.55.67l.39.21-.19.36c.18-.33.41-.63.68-.9.26-.26.55-.48.86-.65l-.32.18-.21-.39M110.86,87.23l-.06.44-.36-.05c.83.14,1.6.53,2.2,1.13.13.13.25.27.36.42l-.22-.31.36-.26-.17-.18h0s-.24-.22-.24-.22l-.26.37-.77-.54.26-.37c-.34-.19-.71-.34-1.09-.43M108.74,87.22c-.23.05-.46.13-.68.22l.21.39-.33.18c.4-.2.82-.34,1.27-.4l-.42.05-.06-.44M109.77,87.1h-.1s.06.44.06.44l-.42.05c.15-.02.31-.03.46-.03s.31,0,.46.03l-.37-.05.06-.44h-.16"/>
    <path class="st25" d="M106.72,94.32l-.3.33.16.17h0c.17.17.35.32.54.46l.3-.33-.27-.24-.18-.16-.25-.23"/>
    <path class="st25" d="M109.67,87.1c-.32,0-.63.05-.93.12l.06.44.42-.05h.1s.42-.07.42-.07l-.06-.44"/>
    <path class="st22" d="M113.85,91.57l-.1.94.44.05c.06-.31.1-.62.1-.94l-.44-.05"/>
    <path class="st25" d="M109.93,87.1l-.06.44.37.05.2.03.36.05.06-.44c-.3-.08-.62-.12-.93-.13"/>
    <path class="st25" d="M108.05,87.44c-.29.12-.57.27-.83.45l.21.39.32-.18.18-.1.33-.18-.21-.39"/>
    <path class="st25" d="M106.02,89.09c-.18.26-.32.54-.44.83l.39.21.19-.35.07-.12.19-.36-.39-.21"/>
    <path class="st25" d="M105.73,92.14l-.43.11c.04.31.12.62.23.91l.43-.11-.08-.33-.06-.25-.08-.33"/>
    <path class="st22" d="M111.96,87.66l-.26.37.77.54.26-.37c-.24-.21-.5-.39-.77-.54"/>
    <path class="st22" d="M113.14,88.6l-.36.26.22.31.11.15.22.3.36-.26c-.16-.27-.34-.53-.55-.76"/>
    <path class="st17" d="M112.31,94.15h0M107.24,94.15c-.67-.67-1.05-1.58-1.05-2.53,0-.95.38-1.86,1.05-2.53h0c.67-.67,1.58-1.05,2.53-1.05.95,0,1.86.38,2.53,1.05h0c.67.67,1.05,1.58,1.05,2.53,0,.95-.38,1.86-1.05,2.53-.67.67-1.58,1.05-2.53,1.05-.95,0-1.86-.38-2.54-1.05h0M109.77,87.57c-.16,0-.31,0-.46.03h-.1c-.44.08-.87.21-1.27.41l-.18.1c-.31.18-.6.4-.86.65-.27.27-.5.57-.68.9l-.07.12c-.29.56-.44,1.19-.44,1.84,0,.29.03.58.09.85l.06.25c.19.66.54,1.27,1.03,1.76l.06.06.18.16c.73.62,1.66.96,2.62.96,1.07,0,2.1-.43,2.86-1.18.76-.76,1.19-1.79,1.19-2.87,0-.82-.25-1.62-.71-2.29l-.11-.15c-.11-.15-.23-.29-.36-.42-.6-.6-1.37-.99-2.2-1.13l-.2-.03c-.15-.02-.31-.03-.46-.03"/>
    <path class="st14" d="M147.79,119.16c0-1.07-.43-2.1-1.19-2.86-.76-.76-1.79-1.19-2.87-1.19s-2.1.43-2.86,1.19c-.76.76-1.19,1.79-1.19,2.86s.43,2.11,1.19,2.87c.76.76,1.79,1.19,2.86,1.19s2.11-.43,2.87-1.19c.76-.76,1.19-1.79,1.19-2.87"/>
    <path class="st5" d="M145.1,115.34c.23.08.44.18.65.3l-.33-.2-.32-.1M143.5,115.12h-.08s-.1.01-.1.01h.18M144.07,115.1h0s-.36.01-.36.01h.03c.39,0,.77.06,1.14.16l-.13-.04-.68-.13M145.58,115.03l-.08.25.14-.23-.05-.02M142.74,114.75c-.82.19-1.59.6-2.19,1.21h0s0,0,0,0c-.13.13-.24.26-.35.4l.38.24-.5.8-.38-.24c-.13.26-.23.54-.31.82l.44.07-.15.93-.44-.07v.11s.44-.03.44-.03l.07.94-.44.03c.16.9.6,1.75,1.25,2.4h0c.85.85,2,1.33,3.19,1.33,1.2,0,2.35-.48,3.2-1.32h0s0,0,0,0c.84-.85,1.32-2,1.32-3.2,0-.73-.18-1.44-.5-2.07l-.37.24-.52-.79.37-.24c-.09-.12-.2-.23-.3-.33h0c-.16-.16-.32-.31-.5-.44l-.23.38-.35-.21c.27.17.52.36.75.59.76.76,1.19,1.79,1.19,2.86s-.43,2.11-1.19,2.87c-.76.76-1.79,1.19-2.87,1.19s-2.1-.43-2.86-1.19c-.76-.76-1.19-1.79-1.19-2.87s.43-2.1,1.19-2.86c.63-.63,1.45-1.03,2.32-1.15l-.4.05-.05-.44M144.06,114.65v.44s.1-.43.1-.43h-.1"/>
    <path class="st22" d="M139.67,118.98l-.44.03v.14c0,.27.02.53.07.8l.44-.03-.07-.94"/>
    <path class="st25" d="M147.24,116.3l-.37.24.52.79.37-.24c-.14-.28-.32-.54-.52-.79"/>
    <path class="st22" d="M140.19,116.36c-.2.25-.36.52-.5.8l.38.24.5-.8-.38-.24"/>
    <path class="st25" d="M145.63,115.05l-.14.23-.06.17h-.01s.33.19.33.19l.11.06.35.21.23-.38c-.25-.19-.52-.35-.81-.48"/>
    <path class="st22" d="M139.38,117.98c-.08.3-.13.61-.15.93l.44.07.15-.93-.44-.07"/>
    <path class="st25" d="M145.08,114.84l-.09.44-.24-.05.13.04.22.07.32.1h-.02s.09-.17.09-.17l.08-.25c-.16-.07-.33-.13-.5-.19"/>
    <polyline class="st9" points="145.49 115.28 145.4 115.44 145.42 115.45 145.44 115.45 145.49 115.28"/>
    <path class="st25" d="M143.12,114.68c-.13.02-.25.04-.38.07l.05.44.4-.05h.12s.1-.03.1-.03h-.29s-.02-.44-.02-.44"/>
    <path class="st25" d="M143.74,114.64h-.07s.05.44.05.44l-.31.04h.08s.21,0,.21,0h.36s0-.01,0-.01h0s0,0,0,0v-.44c-.12,0-.22-.01-.33-.01"/>
    <path class="st9" d="M143.67,114.64c-.19,0-.37.02-.56.04l.02.45h.29s.31-.05.31-.05l-.05-.44"/>
    <path class="st25" d="M144.16,114.66l-.09.43h0s.68.14.68.14l-.21-.07.14-.43c-.17-.04-.35-.06-.52-.08"/>
    <path class="st9" d="M144.68,114.74l-.14.43.21.07.24.05.09-.44c-.13-.04-.26-.08-.4-.1"/>
    <polyline class="st9" points="144.07 115.09 144.07 115.1 144.07 115.1 144.07 115.09"/>
    <path class="st5" d="M146.94,122.36h0M148.27,119.16h0M146.94,115.96h0s0,0,0,0h0M140.55,115.96h0"/>
    <path class="st19" d="M146.28,121.69h0M141.21,116.63h0M141.21,116.63c.67-.67,1.58-1.05,2.53-1.05.95,0,1.86.38,2.53,1.05h0c.67.67,1.05,1.58,1.05,2.53,0,.95-.38,1.86-1.05,2.53-.67.67-1.58,1.05-2.53,1.05h0c-.95,0-1.86-.38-2.53-1.05-.67-.67-1.05-1.58-1.05-2.53,0-.95.38-1.86,1.05-2.53M143.74,115.11h-.03s-.21,0-.21,0h-.18s-.12.03-.12.03c-.87.12-1.69.52-2.32,1.15-.76.76-1.19,1.79-1.19,2.86s.43,2.11,1.19,2.87c.76.76,1.79,1.19,2.86,1.19s2.11-.43,2.87-1.19c.76-.76,1.19-1.79,1.19-2.87s-.43-2.1-1.19-2.86c-.23-.23-.48-.42-.75-.59l-.11-.06c-.21-.12-.43-.22-.65-.3l-.22-.07c-.37-.11-.75-.16-1.14-.16"/>
    <path class="st13" d="M59.96,105.01c0-1.07-.43-2.11-1.19-2.86-.76-.76-1.79-1.19-2.87-1.19s-2.1.43-2.86,1.19c-.76.76-1.19,1.79-1.19,2.86s.43,2.11,1.19,2.87c.76.76,1.79,1.18,2.86,1.18s2.11-.43,2.87-1.18c.76-.76,1.19-1.79,1.19-2.87"/>
    <path class="st5" d="M60.43,105.25h-.04s.04,0,.04,0h0M59.96,104.92v.09c0,.83-.26,1.64-.73,2.32l.2-.27.36.27c.21-.35.37-.74.48-1.14l-.44-.07.14-.88-.02-.32M59.87,104.14c.04.18.07.36.08.55v-.28s-.08-.27-.08-.27M59.63,103.41c.07.17.13.34.18.51l-.07-.27-.11-.24M59.28,102.76c.09.14.17.28.25.42l-.1-.21-.15-.21M56.75,100.56l-.04.45-.41-.03c.93.09,1.81.5,2.48,1.17.14.14.28.3.4.46l-.22-.31.37-.26-.21-.22h0s-.21-.19-.21-.19l-.26.36-.77-.55.26-.36c-.43-.24-.9-.42-1.39-.51M55.81,100.49h-.11s.07.44.07.44l-.93.14-.07-.44c-.77.2-1.48.6-2.06,1.18h0c-.85.84-1.33,2-1.33,3.19,0,1.2.48,2.35,1.33,3.2h0c.85.85,2,1.32,3.2,1.32s2.35-.48,3.2-1.32h0s0,0,0,0l.12-.13-.36-.27.2-.27c-.09.12-.19.23-.3.33-.76.76-1.79,1.18-2.87,1.18s-2.1-.43-2.86-1.18c-.76-.76-1.19-1.79-1.19-2.87s.43-2.11,1.19-2.86c.76-.76,1.79-1.19,2.86-1.19.09,0,.19,0,.28,0l-.41-.03.04-.44"/>
    <path class="st25" d="M59.44,107.06l-.2.27-.16.22-.2.27.36.27c.21-.23.4-.49.56-.75l-.36-.27"/>
    <path class="st25" d="M58.14,101.07l-.26.36.77.55.26-.36c-.24-.21-.49-.39-.77-.55"/>
    <path class="st25" d="M59.32,102.03l-.37.26.22.31.11.15.15.21-.05-.1.41-.19c-.14-.23-.29-.44-.47-.64"/>
    <path class="st25" d="M55.91,100.49h-.1s-.04.45-.04.45l.41.03h.11s.41.04.41.04l.04-.45c-.27-.05-.56-.08-.84-.08"/>
    <path class="st25" d="M55.7,100.49c-.32.01-.63.06-.93.14l.07.44.93-.14-.07-.44"/>
    <path class="st22" d="M60.39,104.38l-.43.11-.02-.07v.28s.03.23.03.23l.02.32v-.05s.41.07.41.07h.04s0-.25,0-.25c0-.21-.01-.42-.04-.63"/>
    <path class="st25" d="M60.19,103.53l-.41.19-.03-.07.07.27.05.22.07.27v-.08s.44-.02.44-.02c-.04-.27-.11-.53-.19-.78"/>
    <polyline class="st16" points="60.38 104.31 59.93 104.33 59.94 104.41 59.95 104.49 60.39 104.38 60.38 104.31"/>
    <path class="st22" d="M59.98,105.24l-.14.88.44.07c.08-.3.13-.61.15-.93h-.04s-.41.01-.41.01v-.03"/>
    <polyline class="st4" points="59.99 105.19 59.98 105.24 59.98 105.27 60.39 105.25 59.99 105.19"/>
    <path class="st22" d="M59.86,102.8l-.37.26-.07-.1.1.21.11.23.11.24-.02-.08.43-.11c-.08-.23-.18-.45-.3-.66"/>
    <polyline class="st11" points="59.79 102.68 59.38 102.87 59.43 102.97 59.49 103.06 59.86 102.8 59.79 102.68"/>
    <polyline class="st11" points="60.16 103.46 59.73 103.57 59.75 103.65 59.78 103.72 60.19 103.53 60.16 103.46"/>
    <path class="st17" d="M53.38,107.54c-.67-.67-1.05-1.58-1.05-2.53,0-.95.38-1.86,1.05-2.53h0s0,0,0,0c.67-.67,1.58-1.05,2.53-1.05.95,0,1.86.38,2.53,1.05h0c.67.67,1.05,1.58,1.05,2.53,0,.95-.38,1.86-1.05,2.53h0c-.67.67-1.58,1.05-2.53,1.05-.95,0-1.86-.38-2.53-1.05M55.91,100.96c-1.07,0-2.1.43-2.86,1.19-.76.76-1.19,1.79-1.19,2.86s.43,2.11,1.19,2.87c.76.76,1.79,1.18,2.86,1.18s2.11-.43,2.87-1.18c.11-.11.2-.22.3-.33l.16-.22c.47-.68.73-1.49.73-2.32v-.09s-.01-.23-.01-.23c-.01-.19-.04-.37-.08-.55l-.05-.22c-.05-.17-.11-.34-.18-.51l-.11-.23c-.07-.14-.15-.28-.25-.42l-.11-.15c-.12-.16-.25-.32-.4-.46-.67-.67-1.54-1.08-2.48-1.17h-.11c-.09-.02-.19-.02-.28-.02"/>
    <path class="st14" d="M180.41,18.37c0-1.07-.43-2.11-1.19-2.87-.76-.76-1.79-1.18-2.86-1.18s-2.11.43-2.87,1.18c-.76.76-1.19,1.79-1.19,2.87s.43,2.11,1.19,2.86c.76.76,1.79,1.19,2.87,1.19s2.1-.43,2.86-1.19c.76-.76,1.19-1.79,1.19-2.86"/>
    <path class="st5" d="M174.58,22l.23.12.35.11.07.02c-.23-.07-.45-.15-.66-.25M173.38,21.12l.25.28-.33.3c.18.17.38.32.58.45l.2-.4.35.18c-.34-.18-.66-.42-.94-.7l-.11-.11M173.14,20.83l.06.08.07.07-.13-.16M172.48,19.53l.11.38-.43.12c.08.21.19.42.3.62l.36-.26.24.32c-.25-.36-.45-.75-.57-1.17M172.32,17.98l-.04.43-.44-.05c0,.25.02.5.06.75l.43-.12.1.37c-.08-.33-.13-.66-.13-1,0-.13,0-.26.02-.38M172.43,17.36l-.07.25-.03.32c.02-.19.06-.38.1-.57M176.36,13.84c-1.2,0-2.35.48-3.2,1.32h0c-.43.43-.76.94-.99,1.5l.43.12-.1.35c.2-.61.53-1.17.99-1.64.76-.76,1.79-1.18,2.87-1.18s2.1.43,2.86,1.18c.76.76,1.19,1.79,1.19,2.87s-.43,2.11-1.19,2.86c-.76.76-1.79,1.19-2.86,1.19-.32,0-.63-.04-.93-.11l.36.09-.11.43.15.02v-.45s.95.01.95.01v.45c1.04-.1,2.03-.55,2.78-1.31h0c.85-.85,1.33-2,1.33-3.2,0-1.2-.48-2.35-1.33-3.2-.85-.85-2-1.32-3.2-1.32"/>
    <path class="st22" d="M172.33,19l-.43.12c.05.31.14.61.25.91l.43-.12-.11-.38-.04-.16-.1-.37"/>
    <path class="st25" d="M175.83,22.41v.45c.17.02.35.03.52.03h0c.14,0,.27,0,.41-.02v-.45s-.93-.01-.93-.01"/>
    <path class="st22" d="M172.81,20.38l-.36.26c.07.12.14.23.22.35l.33-.3.19.21-.06-.08-.09-.12-.24-.32"/>
    <path class="st22" d="M171.91,17.57c-.05.26-.07.53-.07.8h0s.44.05.44.05l.04-.43v-.06s.04-.32.04-.32l-.03.09-.43-.12"/>
    <polyline class="st25" points="175.17 22.24 175.56 22.37 175.42 22.79 175.68 22.83 175.79 22.4 175.43 22.31 175.24 22.26 175.17 22.24"/>
    <path class="st25" d="M174.83,22.37l-.11.21.05.02.06-.22M174.81,22.12l.09.05.27.07-.35-.11"/>
    <path class="st9" d="M174.9,22.17h.02s-.1.2-.1.2l-.06.22c.21.08.43.14.65.19l.14-.42-.39-.13-.27-.07"/>
    <polyline class="st25" points="173.2 20.91 173.37 21.14 173.01 21.4 173.16 21.56 173.3 21.7 173.64 21.4 173.38 21.12 173.27 20.98 173.2 20.91"/>
    <path class="st16" d="M173.01,20.7l-.33.3c.1.14.21.28.33.41l.36-.26-.17-.23-.19-.21"/>
    <path class="st25" d="M172.17,16.66c-.1.25-.18.51-.24.77l.44.05v.12s.06-.25.06-.25l.06-.22.1-.35-.43-.12"/>
    <polyline class="st16" points="171.93 17.44 171.91 17.57 172.34 17.69 172.36 17.6 172.38 17.48 171.93 17.44"/>
    <path class="st25" d="M174.09,21.75l-.2.4c.2.13.42.25.64.35l.14-.42.15.05-.23-.12-.15-.07-.35-.18"/>
    <polyline class="st9" points="174.66 22.08 174.53 22.5 174.72 22.58 174.83 22.37 174.88 22.16 174.9 22.17 174.81 22.12 174.66 22.08"/>
    <polyline class="st21" points="174.88 22.16 174.83 22.37 174.93 22.18 174.9 22.17 174.88 22.16"/>
    <path class="st19" d="M173.83,15.83h0M173.82,15.83c.67-.67,1.58-1.05,2.53-1.05s1.86.38,2.53,1.05c.67.67,1.05,1.59,1.05,2.53,0,.95-.38,1.86-1.05,2.53h0c-.67.67-1.58,1.05-2.53,1.05-.95,0-1.86-.38-2.53-1.05-.67-.67-1.05-1.58-1.05-2.53,0-.95.38-1.86,1.05-2.53M176.36,14.32c-1.08,0-2.11.43-2.87,1.18-.46.46-.8,1.02-.99,1.64l-.06.22c-.05.19-.08.37-.1.57v.06c-.02.13-.02.25-.02.38,0,.34.04.68.13,1l.04.16c.13.42.32.81.57,1.17l.09.12.13.16.12.13.11.11c.28.28.6.52.94.7l.15.07c.21.1.43.19.66.25l.19.05c.3.07.61.11.93.11,1.07,0,2.1-.43,2.86-1.19.76-.76,1.19-1.79,1.19-2.86s-.43-2.11-1.19-2.87c-.76-.76-1.79-1.18-2.86-1.18"/>
    <path class="st14" d="M139.99,54.13c0-1.07-.43-2.11-1.19-2.87-.76-.76-1.79-1.18-2.86-1.18s-2.11.43-2.87,1.18c-.76.76-1.18,1.79-1.18,2.87s.43,2.11,1.18,2.86c.76.76,1.79,1.19,2.87,1.19s2.11-.43,2.86-1.19c.76-.76,1.19-1.79,1.19-2.86"/>
    <path class="st5" d="M137.43,57.89c-.3.12-.62.21-.95.25l.4-.05.05.44c.1-.02.2-.05.29-.08l-.17-.41.37-.16M139.88,55.05c-.17.73-.54,1.41-1.08,1.95-.36.36-.78.65-1.24.85l.37-.16.17.41c.16-.09.32-.18.46-.29l-.29-.33.7-.62.29.33c.44-.48.77-1.05.97-1.66l-.44-.09.08-.38M131.9,54.42l.03.42-.45.03c.15.92.59,1.79,1.26,2.46l.24.22.25-.36.77.54-.25.36c.66.37,1.42.56,2.19.56h.07s-.05-.44-.05-.44l.41-.05c-.14.01-.28.02-.42.02-1.07,0-2.11-.43-2.87-1.19-.69-.69-1.1-1.61-1.17-2.57M139.01,51.49c.63.73.98,1.67.98,2.64,0,.26-.02.51-.07.76l.08-.38.44.09c.02-.16.02-.31.02-.47,0-.95-.3-1.87-.84-2.63l-.33.3-.27-.31M135.85,49.61c-.63.01-1.24.15-1.8.41l-1.48,1.08c-.19.22-.37.45-.52.7l.4.19-.4.85-.4-.19c-.14.41-.22.83-.24,1.27l.45-.03.03.43v-.2c0-1.07.42-2.11,1.18-2.87.76-.76,1.79-1.18,2.87-1.18s2.11.43,2.86,1.18l.13.14-.27-.31.33-.3c-.62-.57-1.38-.95-2.2-1.1l-.04.44-.94-.08.04-.44"/>
    <path class="st22" d="M132.06,51.81c-.16.27-.29.56-.4.85l.4.19.4-.85-.4-.19"/>
    <path class="st25" d="M138.98,56.85l-.7.62.29.33c.2-.14.39-.31.57-.48h0s.14-.14.14-.14l-.29-.33"/>
    <path class="st22" d="M134.05,50.02c-.48.22-.93.53-1.31.91h0s0,0,0,0l-.17.18,1.48-1.08"/>
    <path class="st22" d="M131.87,53.9l-.45.03v.2c0,.25.02.5.06.74l.45-.03-.03-.42v-.09s-.03-.43-.03-.43"/>
    <path class="st25" d="M137.93,57.69l-.37.16-.12.05-.37.16.17.41c.3-.09.59-.21.87-.36l-.17-.41"/>
    <path class="st22" d="M133.23,57.18l-.25.36c.24.21.5.39.77.54l.25-.36-.77-.54"/>
    <path class="st25" d="M136.89,58.09l-.4.05h-.12s-.41.06-.41.06l.05.44c.32,0,.63-.04.93-.11l-.05-.44"/>
    <path class="st25" d="M138.99,50.8l-.33.3.27.31.08.09.27.31.33-.3c-.14-.2-.31-.39-.48-.57l-.14-.13"/>
    <path class="st25" d="M135.94,49.61h-.08s-.04.44-.04.44l.94.08.04-.44c-.28-.05-.56-.08-.85-.08"/>
    <path class="st25" d="M140,54.51l-.08.38-.03.16-.08.38.44.09c.1-.3.16-.61.19-.92l-.44-.09"/>
    <polyline class="st5" points="132.74 57.32 132.74 57.33 132.74 57.33 132.74 57.32"/>
    <path class="st19" d="M133.41,51.59h0M133.4,51.6c.67-.67,1.59-1.05,2.53-1.04h0c.95,0,1.86.38,2.53,1.04.67.67,1.05,1.59,1.05,2.53s-.38,1.86-1.05,2.53h0s0,0,0,0c-.67.67-1.58,1.05-2.53,1.05h0c-.95,0-1.86-.38-2.53-1.05h0c-.67-.67-1.05-1.58-1.05-2.53,0-.95.38-1.86,1.05-2.53M135.94,50.08c-1.07,0-2.11.43-2.87,1.18-.76.76-1.18,1.79-1.18,2.87v.2s.01.09.01.09c.07.97.48,1.89,1.17,2.57.76.76,1.79,1.19,2.87,1.19.14,0,.28,0,.42-.02h.12c.33-.06.65-.14.95-.26l.12-.05c.46-.2.88-.49,1.24-.85.54-.54.91-1.21,1.08-1.95l.03-.16c.05-.25.07-.5.07-.76,0-.97-.35-1.91-.98-2.64l-.08-.09-.13-.14c-.76-.76-1.79-1.18-2.86-1.18"/>
    <path class="st14" d="M143.97,7.84c0-1.08-.43-2.11-1.19-2.87-.76-.76-1.79-1.19-2.87-1.19s-2.1.43-2.86,1.19c-.76.76-1.19,1.79-1.19,2.87s.43,2.1,1.19,2.86c.76.76,1.79,1.19,2.86,1.19s2.11-.43,2.87-1.19c.76-.76,1.19-1.79,1.19-2.86"/>
    <path class="st5" d="M139.62,11.88l.18.02h.15s-.03,0-.03,0c-.1,0-.2,0-.3-.01M140.45,11.86c-.1.01-.19.02-.29.03h.15s.14-.03.14-.03M141.08,11.72c-.12.04-.25.07-.38.09l.17-.03.21-.07M138.32,11.56l.32.15-.19.41c.2.07.41.12.62.16l.04-.44.42.04c-.42-.04-.82-.15-1.2-.31M143.76,9.12c-.2.59-.53,1.14-.98,1.59-.45.45-1,.78-1.59.98l.09-.03.54-.21.16.41c.41-.21.79-.49,1.13-.82.43-.43.77-.94.99-1.5l-.43-.12.09-.3M139.92,3.32h0c-1.2,0-2.35.48-3.2,1.33-.72.72-1.17,1.66-1.29,2.66h.45s-.01.95-.01.95h-.45c.04.48.17.95.36,1.39l.39-.22.42.74.54.64-.34.29c.25.24.52.45.82.63l.19-.41.32.15c-.39-.19-.74-.45-1.05-.76-.76-.76-1.19-1.79-1.19-2.86s.43-2.11,1.19-2.87c.76-.76,1.79-1.19,2.86-1.19s2.11.43,2.87,1.19c.76.76,1.19,1.79,1.19,2.87,0,.33-.04.65-.12.97l.09-.3.43.12c.05-.26.07-.53.07-.79,0-1.2-.48-2.35-1.33-3.2-.85-.85-2-1.33-3.2-1.33"/>
    <path class="st22" d="M136.58,10.17l.05.08-.39.22c.14.2.31.39.48.57l.06.06.34-.29-.54-.64"/>
    <path class="st25" d="M141.83,11.45l-.54.21.3-.09.13.43c.09-.04.18-.08.27-.13l-.16-.41"/>
    <path class="st22" d="M137.78,11.32l-.19.41c.27.16.56.29.85.4l.19-.41-.32-.15-.21-.1-.32-.15"/>
    <path class="st22" d="M135.43,7.31c-.02.18-.03.36-.03.54,0,.14,0,.27.02.4h.45s.01-.93.01-.93h-.45"/>
    <path class="st22" d="M136.16,9.43l-.39.22c.11.25.24.5.4.73l.34-.29.07.08-.42-.74"/>
    <polyline class="st4" points="136.51 10.09 136.17 10.37 136.24 10.47 136.62 10.25 136.58 10.17 136.51 10.09"/>
    <path class="st25" d="M140.87,11.79l-.17.03-.25.04-.14.02h.21s.02.44.02.44c.09-.01.19-.03.28-.05l-.13-.43.18-.06"/>
    <polyline class="st25" points="140.31 11.88 140.16 11.89 139.95 11.89 139.8 11.9 140.04 11.92 140 12.36 140.18 12.36 140.11 11.91 140.31 11.88"/>
    <path class="st9" d="M140.52,11.87h-.21s-.2.04-.2.04l.07.44c.12,0,.24-.02.36-.04l-.02-.45"/>
    <path class="st25" d="M143.94,8.51l-.09.3c-.03.1-.06.21-.09.31l-.09.3.43.12c.12-.29.21-.59.26-.9l-.43-.12"/>
    <path class="st25" d="M139.1,11.84l-.04.44c.18.03.36.06.54.07l-.02-.45h.22s-.18-.02-.18-.02h-.1s-.42-.04-.42-.04"/>
    <path class="st9" d="M139.8,11.9h-.22s.02.45.02.45c.1,0,.21.01.32.01h.09s.04-.45.04-.45l-.24-.02"/>
    <path class="st25" d="M141.11,12.19h0s0,0,0,0h0M141.29,11.66l-.09.03-.12.04-.21.07.14-.02.28-.11"/>
    <path class="st9" d="M141.58,11.56l-.3.09-.28.11h.03s.07.43.07.43h0c.21-.05.41-.12.61-.2l-.13-.43"/>
    <path class="st9" d="M141.01,11.77l-.14.02-.18.06.13.43c.1-.02.19-.04.29-.07h0s-.16-.42-.16-.42l.06-.02"/>
    <polyline class="st21" points="141.04 11.76 141.01 11.77 140.95 11.79 141.11 12.19 141.04 11.76"/>
    <path class="st19" d="M139.92,11.42c-.95,0-1.86-.38-2.53-1.05-.67-.67-1.05-1.58-1.05-2.53,0-.95.38-1.86,1.05-2.53.67-.67,1.58-1.05,2.53-1.05.95,0,1.86.38,2.53,1.05.67.67,1.05,1.58,1.05,2.53,0,.95-.38,1.86-1.05,2.53-.67.67-1.58,1.05-2.53,1.05M139.92,3.79c-1.07,0-2.1.43-2.86,1.19-.76.76-1.19,1.79-1.19,2.87s.43,2.1,1.19,2.86c.31.31.67.57,1.05.76l.21.1c.38.16.79.27,1.2.31h.1c.1.02.2.02.3.02h.03s.21,0,.21,0c.1,0,.19-.02.29-.03l.25-.04c.13-.03.25-.06.38-.09l.12-.04c.59-.2,1.14-.53,1.59-.98.45-.45.78-1,.98-1.59.03-.1.06-.2.09-.31.08-.31.12-.64.12-.97,0-1.08-.43-2.11-1.19-2.87-.76-.76-1.79-1.19-2.87-1.19"/>
    <path class="st14" d="M159.88,58.34c0-1.08-.43-2.11-1.19-2.87-.76-.76-1.79-1.18-2.87-1.18s-2.1.43-2.86,1.18c-.76.76-1.19,1.79-1.19,2.87s.43,2.11,1.19,2.86c.76.76,1.79,1.19,2.86,1.19s2.11-.43,2.87-1.19c.76-.76,1.19-1.79,1.19-2.86"/>
    <path class="st5" d="M152.62,60.81l.2.28-.36.26.17.18h0c.52.52,1.16.91,1.86,1.12l.09-.44.82.16.83.02v.45c.39-.03.77-.12,1.14-.25l-.19-.4.36-.17c-.53.24-1.1.37-1.7.37-1.07,0-2.1-.43-2.86-1.19-.12-.12-.24-.25-.35-.39M152.23,60.19l.1.21.15.2c-.09-.13-.17-.27-.24-.41M159.64,59.72c-.2.55-.52,1.06-.94,1.48-.31.31-.66.56-1.03.75l.35-.17.19.4c.29-.18.57-.4.82-.65.35-.35.64-.75.85-1.19l-.24-.62M151.85,57.59l-.08.37-.44-.09c-.02.16-.02.31-.02.47,0,.51.09,1.01.25,1.48l.41-.19.13.29c-.21-.49-.32-1.03-.32-1.57,0-.25.02-.5.07-.75M152.28,56.38l-.22.39-.39-.22c-.06.13-.11.27-.15.4l.44.09-.08.36c.08-.36.22-.7.4-1.02M158.77,54.9l.51,1.31c.26.42.44.89.54,1.37l.51,1.31c.02-.18.03-.36.03-.55,0-1.2-.48-2.35-1.32-3.2h0c-.08-.09-.17-.17-.26-.24M154.03,54.19c-.52.22-.99.54-1.4.95h0c-.18.18-.35.38-.49.59l.39.22-.22.38c.18-.31.4-.6.65-.86.46-.45,1.01-.79,1.61-.98l-.41.13-.13-.43M155.83,53.82c-.31,0-.61.03-.9.09l.13.43-.41.13c.38-.11.77-.17,1.18-.17.66,0,1.3.16,1.87.45h0s-.43-.22-.43-.22l.2-.38v-.02c-.52-.2-1.07-.3-1.63-.3"/>
    <path class="st25" d="M159.81,57.58c.05.25.07.5.07.76,0,.48-.08.95-.25,1.39l.24.62c.23-.46.38-.95.44-1.46l-.51-1.31M158.3,54.55l-.2.4-.41-.21h0c.37.19.7.44,1,.73.22.22.42.47.58.73l-.51-1.31c-.15-.13-.3-.24-.46-.34M157.45,54.12v.02s.01-.01.01-.01h-.01"/>
    <path class="st25" d="M158.02,61.78l-.35.17-.14.07-.36.17.19.4c.3-.11.58-.24.85-.41l-.19-.4"/>
    <path class="st22" d="M152.14,55.72c-.18.26-.34.53-.46.82l.39.22.22-.39.03-.05.22-.38-.39-.22"/>
    <path class="st25" d="M155.39,62.38l.11.02-.09.44c.14.01.28.02.42.02h0c.13,0,.26,0,.39-.02v-.45s-.82-.02-.82-.02"/>
    <path class="st22" d="M152.32,60.4l.04.08-.41.19c.15.24.32.47.51.68l.36-.26-.2-.28-.15-.21-.15-.2"/>
    <path class="st25" d="M154.58,62.22l-.09.44c.26.08.52.14.79.17v-.45s.12,0,.12,0l-.82-.16"/>
    <polyline class="st9" points="155.29 62.38 155.28 62.82 155.41 62.84 155.5 62.4 155.39 62.38 155.29 62.38"/>
    <path class="st22" d="M151.96,59.62l-.41.19c.09.27.21.53.35.78l.36-.26.05.07-.1-.21c-.05-.09-.09-.18-.13-.28l-.13-.29"/>
    <polyline class="st4" points="152.27 60.33 151.91 60.59 151.95 60.67 152.36 60.48 152.32 60.4 152.27 60.33"/>
    <polyline class="st25" points="157.46 54.14 157.26 54.52 157.69 54.74 157.46 54.14"/>
    <path class="st9" d="M157.47,54.12h0s.24.62.24.62l.41.21.2-.4c-.26-.17-.54-.32-.84-.43"/>
    <path class="st25" d="M151.53,56.95c-.1.3-.16.61-.19.92l.44.09.08-.37.04-.19.08-.36-.44-.09"/>
    <path class="st25" d="M154.93,53.91c-.31.06-.61.16-.9.28l.13.43.41-.13.08-.03.41-.13-.13-.43"/>
    <path class="st19" d="M153.3,55.8c.67-.67,1.58-1.05,2.53-1.05.95,0,1.86.38,2.53,1.05.67.67,1.05,1.58,1.05,2.53,0,.95-.38,1.86-1.05,2.53-.67.67-1.58,1.05-2.53,1.05-.95,0-1.86-.38-2.53-1.05h0c-.67-.67-1.05-1.58-1.05-2.53,0-.95.38-1.86,1.05-2.53h0M155.83,54.29c-.4,0-.8.06-1.18.17l-.08.03c-.6.2-1.15.53-1.61.98-.26.26-.48.55-.65.86l-.03.05c-.18.32-.31.67-.4,1.02l-.04.19c-.05.24-.07.49-.07.75,0,.55.11,1.08.32,1.57.04.09.08.19.13.28.07.14.15.28.24.41l.15.21c.11.14.22.27.35.39.76.76,1.79,1.19,2.86,1.19.59,0,1.17-.13,1.7-.37l.14-.07c.38-.19.73-.44,1.03-.75.42-.42.74-.93.94-1.48.16-.44.25-.91.25-1.39,0-.26-.02-.51-.07-.76-.09-.49-.28-.95-.54-1.37-.16-.26-.36-.51-.58-.73-.3-.3-.64-.54-1-.73-.57-.3-1.21-.45-1.87-.45"/>
  </g>
</svg>