<?xml version="1.0" encoding="UTF-8"?>
<svg id="Layer_1" xmlns="http://www.w3.org/2000/svg" version="1.1" xmlns:xlink="http://www.w3.org/1999/xlink" viewBox="0 0 270.94 169.72">
  <!-- Generator: Adobe Illustrator 29.5.1, SVG Export Plug-In . SVG Version: 2.1.0 Build 141)  -->
  <defs>
    <style>
      .st0 {
        fill: #99aad7;
      }

      .st1 {
        fill: #272626;
      }

      .st2 {
        clip-path: url(#clippath-4);
      }

      .st3 {
        fill: #433929;
      }

      .st4 {
        fill: #1d1f26;
      }

      .st5 {
        fill: #231f20;
      }

      .st6 {
        fill: #fff;
      }

      .st7 {
        fill: #ed1c24;
      }

      .st8 {
        fill: none;
      }

      .st9 {
        fill: #413f3c;
      }

      .st10 {
        fill: #28241f;
      }

      .st11 {
        fill: #5c503f;
      }

      .st12 {
        clip-path: url(#clippath-1);
      }

      .st13 {
        fill: #323b54;
      }

      .st14 {
        clip-path: url(#clippath-5);
      }

      .st15 {
        fill: #ffe7be;
      }

      .st16 {
        clip-path: url(#clippath-3);
      }

      .st17 {
        fill: #3d3c3e;
      }

      .st18 {
        fill: #666766;
      }

      .st19 {
        fill: #dadbdc;
      }

      .st20 {
        fill: #6d6e71;
      }

      .st21 {
        fill: #1b263e;
      }

      .st22 {
        clip-path: url(#clippath-2);
      }

      .st23 {
        clip-path: url(#clippath);
      }

      .st24 {
        fill: #6d6a66;
      }

      .st25 {
        fill: #535150;
      }
    </style>
    <clipPath id="clippath">
      <polyline class="st8" points="18.8 2.19 268.8 2.19 268.8 157.19 18.8 157.19 18.8 2.19"/>
    </clipPath>
    <clipPath id="clippath-1">
      <polyline class="st8" points="170.25 4.36 228.19 4.36 228.19 14.23 170.25 14.23 170.25 4.36"/>
    </clipPath>
    <clipPath id="clippath-2">
      <polyline class="st8" points="170.33 16.77 262.7 16.77 262.7 29.81 170.33 29.81 170.33 16.77"/>
    </clipPath>
    <clipPath id="clippath-3">
      <polyline class="st8" points="114.97 157.19 187.74 157.19 187.74 170.23 114.97 170.23 114.97 157.19"/>
    </clipPath>
    <clipPath id="clippath-4">
      <polyline class="st8" points="0 99.98 0 47.44 12.71 47.44 12.71 99.98 0 99.98"/>
    </clipPath>
    <clipPath id="clippath-5">
      <polyline class="st8" points="87.15 65.92 183.17 65.92 183.17 78.96 87.15 78.96 87.15 65.92"/>
    </clipPath>
  </defs>
  <g class="st23">
    <polyline class="st0" points="181.38 136.59 165.43 136.59 165.43 137.3 165.43 137.32 181.38 137.32 181.38 136.59"/>
    <path class="st25" d="M181.38,137.57h-15.94v.25h-.5s16.95,0,16.95,0h-.5v-.25M181.38,136.09h-16.45v1.21h.25v-.96h16.19v-.25"/>
    <polyline class="st13" points="181.38 136.34 165.18 136.34 165.18 137.3 165.43 137.3 165.43 136.59 181.38 136.59 181.38 137.32 165.43 137.32 165.43 137.57 165.43 137.57 181.38 137.57 181.38 136.34"/>
    <polyline class="st0" points="197.82 117.71 181.88 117.71 181.88 137.32 197.82 137.32 197.82 117.71"/>
    <path class="st25" d="M197.82,137.57h-15.94v.25h16.44s-.5,0-.5,0v-.25M197.82,117.21h-16.44v18.87h.25v-18.62h16.19v-.25"/>
    <polyline class="st1" points="181.63 136.09 181.38 136.09 181.38 136.34 181.63 136.34 181.63 137.57 181.38 137.57 181.38 137.82 181.88 137.82 181.88 137.57 181.63 137.57 181.63 136.09"/>
    <polyline class="st4" points="181.63 136.34 181.38 136.34 181.38 137.57 181.63 137.57 181.63 136.34"/>
    <path class="st13" d="M181.88,117.71h15.94v19.6h-15.94v-19.6M197.82,117.46h-16.19v18.62h.25v1.48h15.94v-20.1"/>
    <polyline class="st21" points="181.88 136.09 181.63 136.09 181.63 137.57 181.88 137.57 181.88 136.09"/>
    <polyline class="st0" points="214.27 53.89 198.32 53.89 198.32 137.32 214.27 137.32 214.27 53.89"/>
    <path class="st25" d="M214.27,137.57h-15.95v.25h16.45-.5v-.25M214.77,53.39h-16.94v63.82h.25v-63.57h16.44v41.4h.25v-41.65"/>
    <polyline class="st1" points="198.07 117.21 197.82 117.21 197.82 117.46 198.07 117.46 198.07 137.57 197.82 137.57 197.82 137.82 198.32 137.82 198.32 137.57 198.07 137.57 198.07 117.21"/>
    <polyline class="st4" points="198.07 117.46 197.82 117.46 197.82 137.57 198.07 137.57 198.07 117.46"/>
    <path class="st13" d="M198.32,53.89h15.94v83.42h-15.94V53.89M214.52,53.64h-16.44v63.57h.25v20.35h15.95v-42.52h.25v-41.4"/>
    <polyline class="st21" points="198.32 117.21 198.07 117.21 198.07 137.57 198.32 137.57 198.32 117.21"/>
    <polyline class="st0" points="230.71 95.54 214.77 95.54 214.77 137.32 230.71 137.32 230.71 95.54"/>
    <path class="st25" d="M230.71,137.57h-15.95v.25h16.45-.5v-.25M231.21,95.04h-16.45v.25h16.2v32.59h.25v-32.84"/>
    <polyline class="st1" points="214.77 95.04 214.52 95.04 214.52 137.57 214.27 137.57 214.27 137.82 214.77 137.82 214.77 137.57 214.52 137.57 214.52 95.29 214.77 95.29 214.77 95.04"/>
    <polyline class="st4" points="214.52 95.04 214.27 95.04 214.27 137.57 214.52 137.57 214.52 95.04"/>
    <path class="st13" d="M214.77,95.54h15.94v41.77h-15.94v-41.77M230.96,95.29h-16.2v42.27h15.95v-9.68h.25v-32.59"/>
    <polyline class="st21" points="214.77 95.29 214.52 95.29 214.52 137.57 214.77 137.57 214.77 95.29"/>
    <polyline class="st0" points="247.15 128.39 231.21 128.39 231.21 137.32 247.15 137.32 247.15 128.39"/>
    <path class="st25" d="M247.15,137.57h-15.94v.25h16.44-.5v-.25M247.65,127.89h-16.44v.25h16.19v7.3h.25v-7.55"/>
    <polyline class="st1" points="231.21 127.89 230.96 127.89 230.96 137.57 230.71 137.57 230.71 137.82 231.21 137.82 231.21 137.57 230.96 137.57 230.96 128.14 231.21 128.14 231.21 127.89"/>
    <polyline class="st4" points="230.96 127.89 230.71 127.89 230.71 137.57 230.96 137.57 230.96 127.89"/>
    <path class="st13" d="M231.21,128.39h15.94v8.93h-15.94v-8.93M247.4,128.14h-16.19v9.43h15.94v-2.13h.25v-7.3"/>
    <polyline class="st21" points="231.21 128.14 230.96 128.14 230.96 137.57 231.21 137.57 231.21 128.14"/>
    <polyline class="st0" points="263.6 135.94 247.65 135.94 247.65 137.32 263.6 137.32 263.6 135.94"/>
    <path class="st25" d="M263.6,137.57h-15.95v.25h16.45-.5v-.25M264.1,135.44h-16.45v.25h16.2v1.39h.25v-1.64"/>
    <polyline class="st1" points="247.65 135.44 247.4 135.44 247.4 135.44 247.4 137.57 247.15 137.57 247.15 137.82 247.65 137.82 247.65 137.57 247.4 137.57 247.4 135.69 247.65 135.69 247.65 135.44"/>
    <polyline class="st4" points="247.4 135.44 247.15 135.44 247.15 137.57 247.4 137.57 247.4 135.44"/>
    <path class="st13" d="M247.65,135.94h15.94v1.38h-15.94v-1.38M263.85,135.69h-16.2v1.88h15.95v-.49h.25v-1.39"/>
    <polyline class="st21" points="247.65 135.69 247.4 135.69 247.4 137.57 247.65 137.57 247.65 135.69"/>
    <path class="st25" d="M268.8,137.57h-4.7v.25h4.7v-.25M268.8,137.08h-4.7v.25h4.7v-.25"/>
    <polyline class="st1" points="264.1 137.08 263.85 137.08 263.85 137.57 263.6 137.57 263.6 137.82 264.1 137.82 264.1 137.57 263.85 137.57 263.85 137.33 264.1 137.33 264.1 137.08"/>
    <polyline class="st4" points="263.85 137.08 263.6 137.08 263.6 137.33 263.6 137.57 263.85 137.57 263.85 137.08"/>
    <polyline class="st13" points="268.8 137.33 264.1 137.33 264.1 137.57 268.8 137.57 268.8 137.33"/>
    <polyline class="st21" points="264.1 137.33 263.85 137.33 263.85 137.57 264.1 137.57 264.1 137.33"/>
    <polyline class="st15" points="66.27 9.83 50.33 9.83 50.33 137.32 66.27 137.32 66.27 9.83"/>
    <polyline class="st25" points="66.77 9.33 50.08 9.33 49.83 9.33 49.83 137.82 66.77 137.82 66.27 137.82 66.27 137.57 50.08 137.57 50.08 9.58 66.52 9.58 66.52 112.39 66.52 112.39 66.77 112.39 66.77 9.33"/>
    <path class="st11" d="M50.33,9.83h15.94v127.49h-15.94V9.83M66.52,9.58h-16.44v127.99h16.19v-25.17h.25V9.58"/>
    <polyline class="st15" points="82.71 112.89 66.77 112.89 66.77 137.32 82.71 137.32 82.71 112.89"/>
    <path class="st25" d="M82.71,137.57h-15.95v.25h16.45-.5v-.25M83.22,112.39h-16.45v.25h16.2v19.74h.25v-19.99"/>
    <polyline class="st1" points="66.77 112.39 66.52 112.39 66.52 112.39 66.52 137.57 66.27 137.57 66.27 137.82 66.77 137.82 66.77 137.57 66.52 137.57 66.52 112.64 66.77 112.64 66.77 112.39"/>
    <polyline class="st10" points="66.52 112.39 66.27 112.39 66.27 137.57 66.52 137.57 66.52 112.39"/>
    <path class="st11" d="M66.77,112.89h15.94v24.42h-15.94v-24.42M82.97,112.64h-16.2v24.92h15.95v-5.18h.25v-19.74"/>
    <polyline class="st3" points="66.77 112.64 66.52 112.64 66.52 137.57 66.77 137.57 66.77 112.64"/>
    <polyline class="st15" points="99.16 132.89 83.22 132.89 83.22 137.32 99.16 137.32 99.16 132.89"/>
    <path class="st25" d="M99.16,137.57h-15.94v.25h16.44-.5v-.25M99.66,132.39h-16.44v.25h16.19v3.72h.25v-3.97"/>
    <polyline class="st1" points="83.22 132.39 82.97 132.39 82.97 137.57 82.71 137.57 82.71 137.82 83.22 137.82 83.22 137.57 82.97 137.57 82.97 132.64 83.22 132.64 83.22 132.39"/>
    <polyline class="st10" points="82.97 132.39 82.71 132.39 82.71 137.57 82.97 137.57 82.97 132.39"/>
    <path class="st11" d="M83.22,132.89h15.94v4.43h-15.94v-4.43M99.41,132.64h-16.19v4.93h15.94v-1.21h.25v-3.72"/>
    <polyline class="st3" points="83.22 132.64 82.97 132.64 82.97 137.57 83.22 137.57 83.22 132.64"/>
    <polyline class="st15" points="115.6 136.86 99.66 136.86 99.66 137.32 115.6 137.32 115.6 136.86"/>
    <path class="st25" d="M115.6,137.57h-15.95v.25h16.45-.5v-.25M116.1,136.36h-16.45v.25h16.19v.5h.25v-.75"/>
    <polyline class="st1" points="99.66 136.36 99.41 136.36 99.41 137.57 99.16 137.57 99.16 137.82 99.66 137.82 99.66 137.57 99.41 137.57 99.41 136.61 99.66 136.61 99.66 136.36"/>
    <polyline class="st10" points="99.41 136.36 99.16 136.36 99.16 136.61 99.16 137.57 99.41 137.57 99.41 136.36"/>
    <path class="st11" d="M99.66,136.86h15.94v.46h-15.94v-.46M115.85,136.61h-16.19v.96h15.95v-.46h.25v-.5"/>
    <polyline class="st3" points="99.66 136.61 99.41 136.61 99.41 137.57 99.66 137.57 99.66 136.61"/>
    <path class="st25" d="M132.05,137.57h-15.95v.25h16.45-.5v-.25M132.55,137.11h-16.45v.25h15.95v-.11h.5v-.14"/>
    <polyline class="st1" points="116.1 137.11 115.85 137.11 115.85 137.11 115.85 137.57 115.6 137.57 115.6 137.82 116.1 137.82 116.1 137.57 115.85 137.57 115.85 137.36 116.1 137.36 116.1 137.11"/>
    <polyline class="st10" points="115.85 137.11 115.6 137.11 115.6 137.36 115.6 137.57 115.85 137.57 115.85 137.11"/>
    <polyline class="st11" points="132.05 137.36 116.1 137.36 116.1 137.57 132.05 137.57 132.05 137.5 132.05 137.36"/>
    <polyline class="st3" points="116.1 137.36 115.85 137.36 115.85 137.57 116.1 137.57 116.1 137.36"/>
    <path class="st25" d="M148.49,137.57h-15.94v.25h16.44-.5v-.25M148.99,137.25h-16.44v.25h15.94v-.2h.5v-.05"/>
    <polyline class="st1" points="132.55 137.25 132.3 137.25 132.05 137.25 132.05 137.36 132.3 137.36 132.3 137.57 132.05 137.57 132.05 137.82 132.55 137.82 132.55 137.57 132.3 137.57 132.3 137.5 132.55 137.5 132.55 137.25"/>
    <polyline class="st10" points="132.3 137.36 132.05 137.36 132.05 137.5 132.05 137.57 132.3 137.57 132.3 137.36"/>
    <polyline class="st11" points="148.49 137.5 132.55 137.5 132.55 137.57 148.49 137.57 148.49 137.55 148.49 137.5"/>
    <polyline class="st3" points="132.55 137.5 132.3 137.5 132.3 137.57 132.55 137.57 132.55 137.5"/>
    <path class="st25" d="M164.93,137.57h-15.95v.25h15.95v-.25M164.93,137.3h-15.95v.25h15.95v-.25"/>
    <path class="st1" d="M165.18,137.57h-.25v.25h.5v-.25h-.25M165.18,137.3h-.25v.25h.25v-.25"/>
    <polyline class="st4" points="165.43 137.3 165.18 137.3 165.18 137.55 165.18 137.57 165.18 137.57 165.43 137.57 165.43 137.57 165.43 137.32 165.43 137.3"/>
    <polyline class="st1" points="148.99 137.3 148.74 137.3 148.49 137.3 148.49 137.5 148.74 137.5 148.74 137.57 148.49 137.57 148.49 137.82 148.99 137.82 148.99 137.57 148.74 137.57 148.74 137.55 148.99 137.55 148.99 137.3"/>
    <polyline class="st10" points="148.74 137.5 148.49 137.5 148.49 137.55 148.49 137.57 148.74 137.57 148.74 137.5"/>
    <polyline class="st11" points="164.93 137.55 148.99 137.55 148.99 137.57 164.93 137.57 164.93 137.55"/>
    <polyline class="st3" points="165.18 137.55 164.93 137.55 164.93 137.57 165.18 137.57 165.18 137.55"/>
    <polyline class="st3" points="148.99 137.55 148.74 137.55 148.74 137.57 148.99 137.57 148.99 137.55"/>
    <polyline class="st18" points="58.2 137.57 58.2 134.94 58.4 134.94 58.4 137.57"/>
    <path d="M56.88,146.21l.58-.26c.14-.06.23-.1.26-.11h.06c.06-.01.1.04.1.13s0,.71,0,1.85v2.31s0,.36-.03,1.03-.04,1.08-.07,1.21-.06.23-.11.28l-.19.1c-.08.02-.42.05-1,.09l-.05.05v.26l.04.05c1.04-.03,1.69-.05,1.95-.05.35,0,.96.02,1.81.05l.04-.05v-.26l-.04-.05c-.5-.03-.81-.05-.91-.06s-.18-.04-.24-.09l-.12-.2c-.02-.08-.04-.36-.05-.83s-.02-.97-.02-1.51v-2.17c0-.34.03-1.37.09-3.08l-.15-.06c-.26.13-.69.32-1.28.57s-1.09.43-1.48.54l-.06.06.06.48.11.04c.21-.12.44-.23.69-.33Z"/>
    <polyline class="st18" points="74.64 137.57 74.64 134.94 74.84 134.94 74.84 137.57"/>
    <path d="M73.32,153.18c.64,0,1.15-.01,1.53-.01.19,0,.57,0,1.15.02s1.01.03,1.29.04l.04-.06c-.02-.11-.04-.27-.04-.46,0-.21.01-.39.04-.52l-.04-.05c-.47.05-1.06.08-1.78.08h-2.31l1.83-1.86c.45-.45.8-.83,1.06-1.16s.46-.66.59-1,.2-.69.2-1.03c0-.46-.12-.87-.35-1.22s-.54-.6-.91-.76-.78-.23-1.19-.23c-.35,0-.68.05-1,.15s-.66.33-1.03.69c-.04.52-.1,1.04-.19,1.56l.06.05h.24l.05-.05c.15-.56.27-.9.35-1.02s.24-.23.47-.33.51-.15.83-.15c.49,0,.88.16,1.17.47s.43.71.43,1.19c0,.41-.12.84-.36,1.31s-.76,1.13-1.57,1.99l-1.96,2.08v.27l.07.06c.23-.02.67-.03,1.31-.04Z"/>
    <polyline class="st18" points="91.09 137.57 91.09 134.94 91.29 134.94 91.29 137.57"/>
    <path d="M89.6,153.3c.23.04.48.07.74.07.89,0,1.68-.3,2.36-.9s1.02-1.27,1.02-2.02c0-.46-.14-.85-.41-1.17s-.75-.52-1.43-.61c.41-.29.73-.6.96-.92s.35-.68.35-1.08c0-.51-.2-.94-.59-1.27s-.91-.51-1.54-.51c-.84,0-1.5.28-1.99.83l-.35,1.36.05.05h.26l.06-.05c.14-.39.25-.65.32-.79.16-.16.35-.29.59-.4s.5-.16.76-.16c.41,0,.75.13,1.03.39s.42.59.42.97c0,.44-.13.82-.4,1.15s-.63.49-1.09.49c-.11,0-.32,0-.63-.03l-.13.64.06.06c.27-.11.47-.18.6-.21s.28-.05.44-.05c.48,0,.86.15,1.13.45s.41.71.41,1.22c0,.39-.07.73-.21,1.04s-.33.55-.58.73-.59.27-1.02.27c-.34,0-.66-.06-.95-.19s-.52-.3-.67-.54-.3-.53-.44-.89l-.08-.04-.22.08-.03.09c.19.65.32,1.2.39,1.66.31.14.58.23.81.27Z"/>
    <polyline class="st18" points="107.53 137.57 107.53 134.94 107.73 134.94 107.73 137.57"/>
    <path d="M106.61,148.32c.57-.93,1.04-1.67,1.42-2.2l-.05,4.17h-2.5c.19-.38.57-1.03,1.14-1.96ZM108.53,153.16c.46,0,1.04.02,1.73.05l.05-.05v-.25l-.05-.05c-.38,0-.65-.02-.8-.04s-.26-.06-.31-.12-.09-.17-.11-.35-.04-.49-.04-.93v-.39h.3c.25,0,.57.01.95.04l.06-.05c0-.12-.01-.25-.02-.38,0-.07,0-.17.01-.32l-.05-.06c-.29.02-.71.03-1.25.04v-1.21l.02-1.65c0-.98.02-1.8.06-2.47l-.15-.07-.83.33c-1.59,2.41-2.72,4.26-3.4,5.53l.1.32c.52-.02,1.15-.04,1.89-.04h1.28v.43c0,.27-.01.53-.04.77s-.06.39-.11.46-.13.1-.24.12-.45.04-1.03.05l-.05.05v.25l.05.05c.55-.03,1.21-.05,1.97-.05Z"/>
    <polyline class="st18" points="123.97 137.57 123.97 134.94 124.17 134.94 124.17 137.57"/>
    <path d="M122.42,153.31c.18.05.4.07.68.07,1.02,0,1.86-.33,2.51-1s.98-1.4.98-2.19c0-.43-.1-.83-.29-1.2s-.49-.65-.88-.85-.8-.29-1.22-.29c-.3,0-.58.04-.84.13s-.55.24-.87.48c.02-1.16.06-1.98.12-2.44.16,0,.76-.01,1.78-.01.75,0,1.35.02,1.79.05l.06-.04c-.01-.19-.02-.33-.02-.41,0-.16.01-.34.04-.53l-.02-.06c-.81.05-1.51.07-2.09.07-.77,0-1.45-.02-2.04-.07l-.08.06s0,.16.02.33c.02.29.03.58.03.9v1.04c0,.24,0,.48-.02.72l-.06,1.26.24.07c.16-.18.31-.32.42-.41s.27-.17.45-.23.38-.09.59-.09c.35,0,.67.08.97.23s.52.39.67.69.22.66.22,1.08-.07.81-.22,1.14-.38.59-.68.76-.65.26-1.05.26c-.32,0-.62-.05-.9-.16s-.47-.2-.55-.28-.28-.42-.61-1l-.07-.02-.21.12v.08c.28.7.47,1.21.57,1.51.21.11.4.18.58.23Z"/>
    <polyline class="st18" points="140.42 137.57 140.42 134.94 140.62 134.94 140.62 137.57"/>
    <path d="M139.05,149.97c.04-.16.12-.32.24-.46s.31-.27.54-.39.47-.17.7-.17c.32,0,.59.08.83.25s.42.4.54.7.19.64.19,1.02-.06.74-.19,1.08-.31.59-.55.75-.51.24-.79.24c-.33,0-.62-.1-.87-.31s-.42-.5-.54-.88-.17-.76-.17-1.15c0-.29.02-.52.05-.68ZM142.15,144.85c-.56.13-1.13.38-1.7.74s-1.05.78-1.42,1.25-.65.99-.83,1.56-.27,1.18-.27,1.8c0,.94.22,1.71.65,2.29s1.04.88,1.83.88c.46,0,.87-.09,1.22-.28s.69-.5,1.01-.94.47-.99.47-1.64c0-.46-.08-.86-.24-1.21s-.4-.61-.72-.79-.68-.27-1.08-.27c-.23,0-.43.02-.6.07s-.31.1-.42.16-.27.18-.49.35c-.17.13-.32.25-.46.34.06-.8.27-1.48.64-2.05s.83-1.02,1.37-1.35,1.03-.55,1.46-.64v-.07l-.43-.21Z"/>
    <polyline class="st18" points="156.86 137.57 156.86 134.94 157.06 134.94 157.06 137.57"/>
    <path d="M155.31,153.18c.11,0,.28,0,.5.03l.06-.05c.3-.8.78-1.82,1.44-3.07s1.24-2.33,1.75-3.25l.84-1.49v-.3l-.05-.05c-.94.05-1.8.08-2.6.08-.22,0-.66-.01-1.32-.04s-1.09-.05-1.31-.08l-.12.06c.02.38.03.67.03.85l-.03,1.61.05.05h.25l.05-.05.11-.83c.03-.25.06-.4.08-.45l.13-.11c.06-.03.27-.05.63-.07s.76-.02,1.22-.02h1.82l.06.06c-.11.2-.26.47-.45.8l-.88,1.51-1.01,1.65-1.07,1.71c-.44.7-.73,1.15-.87,1.36l.12.12c.19-.02.38-.03.56-.03Z"/>
    <polyline class="st18" points="173.31 137.57 173.31 134.94 173.51 134.94 173.51 137.57"/>
    <path d="M174.54,150.12c.32.26.48.62.48,1.08,0,.32-.07.62-.2.89s-.34.49-.61.64-.58.23-.91.23c-.49,0-.89-.16-1.21-.48s-.47-.76-.47-1.32c0-.4.09-.75.27-1.07s.5-.61.96-.88c.8.34,1.37.64,1.69.9ZM172.21,147.49c-.18-.23-.27-.51-.27-.82,0-.42.14-.74.41-.98s.62-.35,1.03-.35.78.13,1.04.39.39.62.39,1.07c0,.3-.07.59-.22.85s-.43.53-.85.79c-.84-.4-1.35-.72-1.53-.95ZM172.37,149.06c-.45.21-.83.5-1.13.87s-.46.82-.46,1.33c0,.64.22,1.15.67,1.53s1.01.57,1.69.57c.47,0,.92-.11,1.36-.33s.79-.55,1.06-.98.4-.87.4-1.34c0-.34-.07-.64-.21-.9s-.32-.47-.54-.62-.56-.34-1.02-.56v-.05c.54-.32.91-.64,1.12-.96s.32-.64.32-.99-.09-.63-.27-.89-.43-.47-.76-.6-.69-.2-1.08-.2c-.76,0-1.36.21-1.8.64s-.66.94-.66,1.54c0,.43.11.79.34,1.09s.55.56.99.79v.05Z"/>
    <polyline class="st18" points="189.75 137.57 189.75 134.94 189.95 134.94 189.95 137.57"/>
    <path d="M188.6,145.85c.29-.34.67-.52,1.13-.52s.87.2,1.14.61.42.93.42,1.57-.14,1.08-.42,1.39-.65.47-1.11.47c-.33,0-.62-.09-.87-.27s-.43-.43-.55-.76-.18-.66-.18-1c0-.66.15-1.16.44-1.51ZM188.02,153.4c.48-.07.97-.23,1.46-.48s.94-.57,1.33-.95.71-.79.95-1.23.4-.87.49-1.29.13-.86.13-1.32c0-1.04-.24-1.83-.71-2.38s-1.09-.83-1.85-.83-1.39.26-1.9.77-.76,1.19-.76,2.04c0,.46.08.86.24,1.21s.41.62.74.84.73.32,1.17.32c.71,0,1.35-.34,1.93-1.03-.08,1.02-.43,1.88-1.05,2.59s-1.47,1.18-2.56,1.43v.11l.39.19Z"/>
    <polyline class="st18" points="206.19 137.57 206.19 134.94 206.39 134.94 206.39 137.57"/>
    <path d="M208.06,146.08c.26-.5.65-.74,1.16-.74.59,0,1.01.32,1.26.96s.38,1.63.38,2.96c0,.85-.05,1.57-.16,2.14s-.28.99-.51,1.22-.52.36-.87.36-.67-.13-.93-.4-.45-.71-.56-1.32-.17-1.29-.17-2.03c0-1.61.13-2.67.39-3.16ZM206.78,151.09c.08.47.23.88.44,1.23s.48.61.8.8.7.28,1.13.28c.85,0,1.51-.37,1.99-1.11s.72-1.89.72-3.45c0-.96-.09-1.72-.26-2.28s-.46-.97-.86-1.24-.86-.4-1.38-.4c-.46,0-.87.11-1.23.33s-.66.54-.9.98-.4.93-.47,1.49-.11,1.18-.11,1.88c0,.54.04,1.04.13,1.51ZM201.88,146.21l.58-.26c.14-.06.23-.1.26-.11h.06c.06-.01.1.04.1.13s0,.71,0,1.85v2.31s0,.36-.03,1.03-.04,1.08-.07,1.21-.06.23-.11.28l-.19.1c-.08.02-.42.05-1,.09l-.05.05v.26l.04.05c1.04-.03,1.69-.05,1.95-.05.35,0,.96.02,1.81.05l.04-.05v-.26l-.04-.05c-.5-.03-.81-.05-.91-.06s-.18-.04-.24-.09l-.12-.2c-.02-.08-.04-.36-.05-.83s-.02-.97-.02-1.51v-2.17c0-.34.03-1.37.09-3.08l-.15-.06c-.26.13-.69.32-1.28.57s-1.09.43-1.48.54l-.06.06.06.48.11.04c.21-.12.44-.23.69-.33Z"/>
    <polyline class="st18" points="222.64 137.57 222.64 134.94 222.84 134.94 222.84 137.57"/>
    <path d="M224.32,146.21l.58-.26c.14-.06.23-.1.26-.11h.06c.06-.01.1.04.1.13s0,.71,0,1.85v2.31s0,.36-.03,1.03-.04,1.08-.07,1.21-.06.23-.11.28l-.19.1c-.08.02-.42.05-1,.09l-.05.05v.26l.04.05c1.04-.03,1.69-.05,1.95-.05.35,0,.96.02,1.81.05l.04-.05v-.26l-.04-.05c-.5-.03-.81-.05-.91-.06s-.18-.04-.24-.09l-.12-.2c-.02-.08-.04-.36-.05-.83s-.02-.97-.02-1.51v-2.17c0-.34.03-1.37.09-3.08l-.15-.06c-.26.13-.69.32-1.28.57s-1.09.43-1.48.54l-.06.06.06.48.11.04c.21-.12.44-.23.69-.33ZM218.32,146.21l.58-.26c.14-.06.23-.1.26-.11h.06c.06-.01.1.04.1.13s0,.71,0,1.85v2.31s0,.36-.03,1.03-.04,1.08-.07,1.21-.06.23-.11.28l-.19.1c-.08.02-.42.05-1,.09l-.05.05v.26l.04.05c1.04-.03,1.69-.05,1.95-.05.35,0,.96.02,1.81.05l.04-.05v-.26l-.04-.05c-.5-.03-.81-.05-.91-.06s-.18-.04-.24-.09l-.12-.2c-.02-.08-.04-.36-.05-.83s-.02-.97-.02-1.51v-2.17c0-.34.03-1.37.09-3.08l-.15-.06c-.26.13-.69.32-1.28.57s-1.09.43-1.48.54l-.06.06.06.48.11.04c.21-.12.44-.23.69-.33Z"/>
    <polyline class="st18" points="239.08 137.57 239.08 134.94 239.28 134.94 239.28 137.57"/>
    <path d="M240.76,153.18c.64,0,1.15-.01,1.53-.01.19,0,.57,0,1.15.02s1.01.03,1.29.04l.04-.06c-.02-.11-.04-.27-.04-.46,0-.21.01-.39.04-.52l-.04-.05c-.47.05-1.06.08-1.78.08h-2.31l1.83-1.86c.45-.45.8-.83,1.06-1.16s.46-.66.59-1,.2-.69.2-1.03c0-.46-.12-.87-.35-1.22s-.54-.6-.91-.76-.78-.23-1.19-.23c-.35,0-.68.05-1,.15s-.66.33-1.03.69c-.04.52-.1,1.04-.19,1.56l.06.05h.24l.05-.05c.15-.56.27-.9.35-1.02s.24-.23.47-.33.51-.15.83-.15c.49,0,.88.16,1.17.47s.43.71.43,1.19c0,.41-.12.84-.36,1.31s-.76,1.13-1.57,1.99l-1.96,2.08v.27l.07.06c.23-.02.67-.03,1.31-.04ZM234.76,146.21l.58-.26c.14-.06.23-.1.26-.11h.06c.06-.01.1.04.1.13s0,.71,0,1.85v2.31s0,.36-.03,1.03-.04,1.08-.07,1.21-.06.23-.11.28l-.19.1c-.08.02-.42.05-1,.09l-.05.05v.26l.04.05c1.04-.03,1.69-.05,1.95-.05.35,0,.96.02,1.81.05l.04-.05v-.26l-.04-.05c-.5-.03-.81-.05-.91-.06s-.18-.04-.24-.09l-.12-.2c-.02-.08-.04-.36-.05-.83s-.02-.97-.02-1.51v-2.17c0-.34.03-1.37.09-3.08l-.15-.06c-.26.13-.69.32-1.28.57s-1.09.43-1.48.54l-.06.06.06.48.11.04c.21-.12.44-.23.69-.33Z"/>
    <polyline class="st18" points="255.53 137.57 255.53 134.94 255.73 134.94 255.73 137.57"/>
    <path d="M257.04,153.3c.23.04.48.07.74.07.89,0,1.68-.3,2.36-.9s1.02-1.27,1.02-2.02c0-.46-.14-.85-.41-1.17s-.75-.52-1.43-.61c.41-.29.73-.6.96-.92s.35-.68.35-1.08c0-.51-.2-.94-.59-1.27s-.91-.51-1.54-.51c-.84,0-1.5.28-1.99.83l-.35,1.36.05.05h.26l.06-.05c.14-.39.25-.65.32-.79.16-.16.35-.29.59-.4s.5-.16.76-.16c.41,0,.75.13,1.03.39s.42.59.42.97c0,.44-.13.82-.4,1.15s-.63.49-1.09.49c-.11,0-.32,0-.63-.03l-.13.64.06.06c.27-.11.47-.18.6-.21s.28-.05.44-.05c.48,0,.86.15,1.13.45s.41.71.41,1.22c0,.39-.07.73-.21,1.04s-.33.55-.58.73-.59.27-1.02.27c-.34,0-.66-.06-.95-.19s-.52-.3-.67-.54-.3-.53-.44-.89l-.08-.04-.22.08-.03.09c.19.65.32,1.2.39,1.66.31.14.58.23.81.27ZM251.21,146.21l.58-.26c.14-.06.23-.1.26-.11h.06c.06-.01.1.04.1.13s0,.71,0,1.85v2.31s0,.36-.03,1.03-.04,1.08-.07,1.21-.06.23-.11.28l-.19.1c-.08.02-.42.05-1,.09l-.05.05v.26l.04.05c1.04-.03,1.69-.05,1.95-.05.35,0,.96.02,1.81.05l.04-.05v-.26l-.04-.05c-.5-.03-.81-.05-.91-.06s-.18-.04-.24-.09l-.12-.2c-.02-.08-.04-.36-.05-.83s-.02-.97-.02-1.51v-2.17c0-.34.03-1.37.09-3.08l-.15-.06c-.26.13-.69.32-1.28.57s-1.09.43-1.48.54l-.06.06.06.48.11.04c.21-.12.44-.23.69-.33Z"/>
    <polyline class="st18" points="45.62 137.47 268.3 137.47 268.3 137.67 45.62 137.67"/>
    <polyline class="st18" points="45.8 137.47 48.43 137.47 48.43 137.67 45.8 137.67"/>
    <path d="M38.56,134.98c.26-.5.65-.74,1.16-.74.59,0,1.01.32,1.26.96s.38,1.63.38,2.96c0,.85-.05,1.57-.16,2.14s-.28.99-.51,1.22-.52.36-.87.36-.67-.13-.93-.4-.45-.71-.56-1.32-.17-1.29-.17-2.03c0-1.61.13-2.67.39-3.16ZM37.29,140c.08.47.23.88.44,1.23s.48.61.8.8.7.28,1.13.28c.85,0,1.51-.37,1.99-1.11s.72-1.89.72-3.45c0-.96-.09-1.72-.26-2.28s-.46-.97-.86-1.24-.86-.4-1.38-.4c-.46,0-.87.11-1.23.33s-.66.54-.9.98-.4.93-.47,1.49-.11,1.18-.11,1.88c0,.54.04,1.04.13,1.51Z"/>
    <polyline class="st18" points="45.8 105.66 48.43 105.66 48.43 105.86 45.8 105.86"/>
    <path d="M38.56,103.18c.26-.5.65-.74,1.16-.74.59,0,1.01.32,1.26.96s.38,1.63.38,2.96c0,.85-.05,1.57-.16,2.14s-.28.99-.51,1.22-.52.36-.87.36-.67-.13-.93-.4-.45-.71-.56-1.32-.17-1.29-.17-2.03c0-1.61.13-2.67.39-3.16ZM37.29,108.19c.08.47.23.88.44,1.23s.48.61.8.8.7.28,1.13.28c.85,0,1.51-.37,1.99-1.11s.72-1.89.72-3.45c0-.96-.09-1.72-.26-2.28s-.46-.97-.86-1.24-.86-.4-1.38-.4c-.46,0-.87.11-1.23.33s-.66.54-.9.98-.4.93-.47,1.49-.11,1.18-.11,1.88c0,.54.04,1.04.13,1.51ZM32.56,103.18c.26-.5.65-.74,1.16-.74.59,0,1.01.32,1.26.96s.38,1.63.38,2.96c0,.85-.05,1.57-.16,2.14s-.28.99-.51,1.22-.52.36-.87.36-.67-.13-.93-.4-.45-.71-.56-1.32-.17-1.29-.17-2.03c0-1.61.13-2.67.39-3.16ZM31.29,108.19c.08.47.23.88.44,1.23s.48.61.8.8.7.28,1.13.28c.85,0,1.51-.37,1.99-1.11s.72-1.89.72-3.45c0-.96-.09-1.72-.26-2.28s-.46-.97-.86-1.24-.86-.4-1.38-.4c-.46,0-.87.11-1.23.33s-.66.54-.9.98-.4.93-.47,1.49-.11,1.18-.11,1.88c0,.54.04,1.04.13,1.51ZM26.56,103.18c.26-.5.65-.74,1.16-.74.59,0,1.01.32,1.26.96s.38,1.63.38,2.96c0,.85-.05,1.57-.16,2.14s-.28.99-.51,1.22-.52.36-.87.36-.67-.13-.93-.4-.45-.71-.56-1.32-.17-1.29-.17-2.03c0-1.61.13-2.67.39-3.16ZM25.29,108.19c.08.47.23.88.44,1.23s.48.61.8.8.7.28,1.13.28c.85,0,1.51-.37,1.99-1.11s.72-1.89.72-3.45c0-.96-.09-1.72-.26-2.28s-.46-.97-.86-1.24-.86-.4-1.38-.4c-.46,0-.87.11-1.23.33s-.66.54-.9.98-.4.93-.47,1.49-.11,1.18-.11,1.88c0,.54.04,1.04.13,1.51ZM20.38,110.28c.64,0,1.15-.01,1.53-.01.19,0,.57,0,1.15.02s1.01.03,1.29.04l.04-.06c-.02-.11-.04-.27-.04-.46,0-.21.01-.39.04-.52l-.04-.05c-.47.05-1.06.08-1.78.08h-2.31l1.83-1.86c.45-.45.8-.83,1.06-1.16s.46-.66.59-1,.2-.69.2-1.03c0-.46-.12-.87-.35-1.22s-.54-.6-.91-.76-.78-.23-1.19-.23c-.35,0-.68.05-1,.15s-.66.33-1.03.69c-.04.52-.1,1.04-.19,1.56l.06.05h.24l.05-.05c.15-.56.27-.9.35-1.02s.24-.23.47-.33.51-.15.83-.15c.49,0,.88.16,1.17.47s.43.71.43,1.19c0,.41-.12.84-.36,1.31s-.76,1.13-1.57,1.99l-1.96,2.08v.27l.07.06c.23-.02.67-.03,1.31-.04Z"/>
    <polyline class="st18" points="45.8 73.85 48.43 73.85 48.43 74.05 45.8 74.05"/>
    <path d="M38.56,71.37c.26-.5.65-.74,1.16-.74.59,0,1.01.32,1.26.96s.38,1.63.38,2.96c0,.85-.05,1.57-.16,2.14s-.28.99-.51,1.22-.52.36-.87.36-.67-.13-.93-.4-.45-.71-.56-1.32-.17-1.29-.17-2.03c0-1.61.13-2.67.39-3.16ZM37.29,76.39c.08.47.23.88.44,1.23s.48.61.8.8.7.28,1.13.28c.85,0,1.51-.37,1.99-1.11s.72-1.89.72-3.45c0-.96-.09-1.72-.26-2.28s-.46-.97-.86-1.24-.86-.4-1.38-.4c-.46,0-.87.11-1.23.33s-.66.54-.9.98-.4.93-.47,1.49-.11,1.18-.11,1.88c0,.54.04,1.04.13,1.51ZM32.56,71.37c.26-.5.65-.74,1.16-.74.59,0,1.01.32,1.26.96s.38,1.63.38,2.96c0,.85-.05,1.57-.16,2.14s-.28.99-.51,1.22-.52.36-.87.36-.67-.13-.93-.4-.45-.71-.56-1.32-.17-1.29-.17-2.03c0-1.61.13-2.67.39-3.16ZM31.29,76.39c.08.47.23.88.44,1.23s.48.61.8.8.7.28,1.13.28c.85,0,1.51-.37,1.99-1.11s.72-1.89.72-3.45c0-.96-.09-1.72-.26-2.28s-.46-.97-.86-1.24-.86-.4-1.38-.4c-.46,0-.87.11-1.23.33s-.66.54-.9.98-.4.93-.47,1.49-.11,1.18-.11,1.88c0,.54.04,1.04.13,1.51ZM26.56,71.37c.26-.5.65-.74,1.16-.74.59,0,1.01.32,1.26.96s.38,1.63.38,2.96c0,.85-.05,1.57-.16,2.14s-.28.99-.51,1.22-.52.36-.87.36-.67-.13-.93-.4-.45-.71-.56-1.32-.17-1.29-.17-2.03c0-1.61.13-2.67.39-3.16ZM25.29,76.39c.08.47.23.88.44,1.23s.48.61.8.8.7.28,1.13.28c.85,0,1.51-.37,1.99-1.11s.72-1.89.72-3.45c0-.96-.09-1.72-.26-2.28s-.46-.97-.86-1.24-.86-.4-1.38-.4c-.46,0-.87.11-1.23.33s-.66.54-.9.98-.4.93-.47,1.49-.11,1.18-.11,1.88c0,.54.04,1.04.13,1.51ZM20.78,73.61c.57-.93,1.04-1.67,1.42-2.2l-.05,4.17h-2.5c.19-.38.57-1.03,1.14-1.96ZM22.7,78.45c.46,0,1.04.02,1.73.05l.05-.05v-.25l-.05-.05c-.38,0-.65-.02-.8-.04s-.26-.06-.31-.12-.09-.17-.11-.35-.04-.49-.04-.93v-.39h.3c.25,0,.57.01.95.04l.06-.05c0-.12-.01-.25-.02-.38,0-.07,0-.17.01-.32l-.05-.06c-.29.02-.71.03-1.25.04v-1.21l.02-1.65c0-.98.02-1.8.06-2.47l-.15-.07-.83.33c-1.59,2.41-2.72,4.26-3.4,5.53l.1.32c.52-.02,1.15-.04,1.89-.04h1.28v.43c0,.27-.01.53-.04.77s-.06.39-.11.46-.13.1-.24.12-.45.04-1.03.05l-.05.05v.25l.05.05c.55-.03,1.21-.05,1.97-.05Z"/>
    <polyline class="st18" points="45.8 42.04 48.43 42.04 48.43 42.24 45.8 42.24"/>
    <path d="M38.56,39.56c.26-.5.65-.74,1.16-.74.59,0,1.01.32,1.26.96s.38,1.63.38,2.96c0,.85-.05,1.57-.16,2.14s-.28.99-.51,1.22-.52.36-.87.36-.67-.13-.93-.4-.45-.71-.56-1.32-.17-1.29-.17-2.03c0-1.61.13-2.67.39-3.16ZM37.29,44.58c.08.47.23.88.44,1.23s.48.61.8.8.7.28,1.13.28c.85,0,1.51-.37,1.99-1.11s.72-1.89.72-3.45c0-.96-.09-1.72-.26-2.28s-.46-.97-.86-1.24-.86-.4-1.38-.4c-.46,0-.87.11-1.23.33s-.66.54-.9.98-.4.93-.47,1.49-.11,1.18-.11,1.88c0,.54.04,1.04.13,1.51ZM32.56,39.56c.26-.5.65-.74,1.16-.74.59,0,1.01.32,1.26.96s.38,1.63.38,2.96c0,.85-.05,1.57-.16,2.14s-.28.99-.51,1.22-.52.36-.87.36-.67-.13-.93-.4-.45-.71-.56-1.32-.17-1.29-.17-2.03c0-1.61.13-2.67.39-3.16ZM31.29,44.58c.08.47.23.88.44,1.23s.48.61.8.8.7.28,1.13.28c.85,0,1.51-.37,1.99-1.11s.72-1.89.72-3.45c0-.96-.09-1.72-.26-2.28s-.46-.97-.86-1.24-.86-.4-1.38-.4c-.46,0-.87.11-1.23.33s-.66.54-.9.98-.4.93-.47,1.49-.11,1.18-.11,1.88c0,.54.04,1.04.13,1.51ZM26.56,39.56c.26-.5.65-.74,1.16-.74.59,0,1.01.32,1.26.96s.38,1.63.38,2.96c0,.85-.05,1.57-.16,2.14s-.28.99-.51,1.22-.52.36-.87.36-.67-.13-.93-.4-.45-.71-.56-1.32-.17-1.29-.17-2.03c0-1.61.13-2.67.39-3.16ZM25.29,44.58c.08.47.23.88.44,1.23s.48.61.8.8.7.28,1.13.28c.85,0,1.51-.37,1.99-1.11s.72-1.89.72-3.45c0-.96-.09-1.72-.26-2.28s-.46-.97-.86-1.24-.86-.4-1.38-.4c-.46,0-.87.11-1.23.33s-.66.54-.9.98-.4.93-.47,1.49-.11,1.18-.11,1.88c0,.54.04,1.04.13,1.51ZM20.33,43.45c.04-.16.12-.32.24-.46s.31-.27.54-.39.47-.17.7-.17c.32,0,.59.08.83.25s.42.4.54.7.19.64.19,1.02-.06.74-.19,1.08-.31.59-.55.75-.51.24-.79.24c-.33,0-.62-.1-.87-.31s-.42-.5-.54-.88-.17-.76-.17-1.15c0-.29.02-.52.05-.68ZM23.44,38.34c-.56.13-1.13.38-1.7.74s-1.05.78-1.42,1.25-.65.99-.83,1.56-.27,1.18-.27,1.8c0,.94.22,1.71.65,2.29s1.04.88,1.83.88c.46,0,.87-.09,1.22-.28s.69-.5,1.01-.94.47-.99.47-1.64c0-.46-.08-.86-.24-1.21s-.4-.61-.72-.79-.68-.27-1.08-.27c-.23,0-.43.02-.6.07s-.31.1-.42.16-.27.18-.49.35c-.17.13-.32.25-.46.34.06-.8.27-1.48.64-2.05s.83-1.02,1.37-1.35,1.03-.55,1.46-.64v-.07l-.43-.21Z"/>
    <polyline class="st18" points="45.8 10.24 48.43 10.24 48.43 10.44 45.8 10.44"/>
    <path d="M38.56,7.76c.26-.5.65-.74,1.16-.74.59,0,1.01.32,1.26.96s.38,1.63.38,2.96c0,.85-.05,1.57-.16,2.14s-.28.99-.51,1.22-.52.36-.87.36-.67-.13-.93-.4-.45-.71-.56-1.32-.17-1.29-.17-2.03c0-1.61.13-2.67.39-3.16ZM37.29,12.77c.08.47.23.88.44,1.23s.48.61.8.8.7.28,1.13.28c.85,0,1.51-.37,1.99-1.11s.72-1.89.72-3.45c0-.96-.09-1.72-.26-2.28s-.46-.97-.86-1.24-.86-.4-1.38-.4c-.46,0-.87.11-1.23.33s-.66.54-.9.98-.4.93-.47,1.49-.11,1.18-.11,1.88c0,.54.04,1.04.13,1.51ZM32.56,7.76c.26-.5.65-.74,1.16-.74.59,0,1.01.32,1.26.96s.38,1.63.38,2.96c0,.85-.05,1.57-.16,2.14s-.28.99-.51,1.22-.52.36-.87.36-.67-.13-.93-.4-.45-.71-.56-1.32-.17-1.29-.17-2.03c0-1.61.13-2.67.39-3.16ZM31.29,12.77c.08.47.23.88.44,1.23s.48.61.8.8.7.28,1.13.28c.85,0,1.51-.37,1.99-1.11s.72-1.89.72-3.45c0-.96-.09-1.72-.26-2.28s-.46-.97-.86-1.24-.86-.4-1.38-.4c-.46,0-.87.11-1.23.33s-.66.54-.9.98-.4.93-.47,1.49-.11,1.18-.11,1.88c0,.54.04,1.04.13,1.51ZM26.56,7.76c.26-.5.65-.74,1.16-.74.59,0,1.01.32,1.26.96s.38,1.63.38,2.96c0,.85-.05,1.57-.16,2.14s-.28.99-.51,1.22-.52.36-.87.36-.67-.13-.93-.4-.45-.71-.56-1.32-.17-1.29-.17-2.03c0-1.61.13-2.67.39-3.16ZM25.29,12.77c.08.47.23.88.44,1.23s.48.61.8.8.7.28,1.13.28c.85,0,1.51-.37,1.99-1.11s.72-1.89.72-3.45c0-.96-.09-1.72-.26-2.28s-.46-.97-.86-1.24-.86-.4-1.38-.4c-.46,0-.87.11-1.23.33s-.66.54-.9.98-.4.93-.47,1.49-.11,1.18-.11,1.88c0,.54.04,1.04.13,1.51ZM22.93,11.8c.32.26.48.62.48,1.08,0,.32-.07.62-.2.89s-.34.49-.61.64-.58.23-.91.23c-.49,0-.89-.16-1.21-.48s-.47-.76-.47-1.32c0-.4.09-.75.27-1.07s.5-.61.96-.88c.8.34,1.37.64,1.69.9ZM20.61,9.17c-.18-.23-.27-.51-.27-.82,0-.42.14-.74.41-.98s.62-.35,1.03-.35.78.13,1.04.39.39.62.39,1.07c0,.3-.07.59-.22.85s-.43.53-.85.79c-.84-.4-1.35-.72-1.53-.95ZM20.77,10.74c-.45.21-.83.5-1.13.87s-.46.82-.46,1.33c0,.64.22,1.15.67,1.53s1.01.57,1.69.57c.47,0,.92-.11,1.36-.33s.79-.55,1.06-.98.4-.87.4-1.34c0-.34-.07-.64-.21-.9s-.32-.47-.54-.62-.56-.34-1.02-.56v-.05c.54-.32.91-.64,1.12-.96s.32-.64.32-.99-.09-.63-.27-.89-.43-.47-.76-.6-.69-.2-1.08-.2c-.76,0-1.36.21-1.8.64s-.66.94-.66,1.54c0,.43.11.79.34,1.09s.55.56.99.79v.05Z"/>
    <polyline class="st18" points="45.7 140.32 45.7 2.69 45.9 2.69 45.9 140.32"/>
  </g>
  <path class="st6" d="M265.36,2.19s-.02,0-.03,0h-123.05c-.33,0-.59.03-.76.07-.13.03-.21.07-.23.09v27.7l.07.04c.14.06.45.12.9.12,0,0,.02,0,.03,0h123.05c.33,0,.59-.03.76-.07.13-.03.2-.07.23-.09V2.35l-.07-.04c-.14-.06-.45-.12-.9-.12"/>
  <path class="st19" d="M141.26,2.35h0M141.22,2.32h0M142.29,2.19h123.04s.02,0,.03,0c.45,0,.77.06.9.12l.07.04v27.7s-.1.06-.23.09c-.17.04-.43.07-.76.07h-123.05s-.02,0-.03,0c-.45,0-.77-.06-.9-.12l-.07-.04V2.35s.1-.06.23-.09c.17-.04.43-.07.76-.07h0M265.33,1.19h-123.04c-.54,0-.96.05-1.32.2-.18.08-.35.19-.48.35-.13.16-.2.38-.2.59v27.74c0,.2.07.42.2.59.2.25.47.37.76.44.3.07.64.1,1.04.11h123.04c.54,0,.96-.05,1.32-.2.18-.08.35-.19.48-.35.13-.16.2-.38.2-.59V2.33c0-.2-.07-.42-.2-.59-.2-.25-.47-.37-.76-.44-.3-.07-.64-.1-1.04-.11"/>
  <g class="st12">
    <path d="M224.09,10.06h-2.76l1.39-3.25,1.37,3.25ZM226.96,13.03v-.33l-.37-.03c-.28-.02-.4-.23-.79-1.11l-2.64-6.2h-.35s-.12.37-.53,1.3l-2.41,5.48c-.14.32-.35.51-.59.53l-.4.03v.33c.39-.02.8-.03,1.19-.03.44,0,.88.01,1.32.03v-.33l-.4-.03c-.38-.03-.52-.11-.52-.28,0-.14.15-.61.38-1.16l.31-.73h3.14l.5,1.25c.19.46.23.6.23.7,0,.12-.17.2-.45.22l-.51.03v.33c.5-.02,1.01-.03,1.52-.03.46,0,.93.01,1.39.03ZM218.47,13.03v-.33l-.52-.03c-.5-.03-.56-.12-.56-.98v-4.9c0-.86.05-.95.56-.98l.52-.03v-.33c-.53.02-1.07.03-1.6.03s-1.06-.01-1.59-.03v.33l.52.03c.5.03.56.12.56.98v4.9c0,.86-.05.95-.56.98l-.52.03v.33c.53-.02,1.06-.03,1.59-.03s1.07.01,1.6.03ZM212.2,13.03v-.33l-.45-.03c-.37-.02-.4-.09-.4-.79v-2.11c0-1.28-.6-1.9-1.82-1.9-.4,0-.63.08-.86.27l-.83.72v-.95l-.1-.04c-.56.23-1.12.38-1.7.45v.31h.4c.44,0,.48.08.48.8v2.45c0,.69-.03.76-.4.79l-.49.03v.33c.45-.02.91-.03,1.35-.03s.91.01,1.35.03v-.33l-.49-.03c-.37-.02-.4-.1-.4-.79v-2.31c0-.49.72-1.03,1.39-1.03.73,0,1.21.55,1.21,1.39v3.1c.28-.02.58-.03.86-.03.31,0,.6.01.91.03ZM204.59,10.82c0,1.25-.56,2.04-1.44,2.04-1.07,0-1.79-1.05-1.79-2.6,0-1.31.52-2.02,1.48-2.02s1.75,1.09,1.75,2.57ZM205.61,10.41c0-1.47-1.07-2.53-2.56-2.53-1.59,0-2.69,1.12-2.69,2.75,0,1.54.97,2.59,2.38,2.59,1.68,0,2.88-1.17,2.88-2.8ZM198.96,6.05c0-.32-.22-.55-.53-.55-.34,0-.56.22-.56.55s.22.55.55.55.55-.22.55-.55ZM199.78,13.03v-.33l-.5-.03c-.37-.02-.4-.1-.4-.79v-3.96l-.1-.04c-.56.23-1.12.38-1.7.45v.31h.4c.44,0,.48.08.48.8v2.45c0,.69-.03.76-.4.79l-.5.03v.33c.46-.02.91-.03,1.36-.03s.91.01,1.36.03ZM196.47,11.38c0-.34-.09-.59-.31-.81-.28-.28-.64-.4-1.6-.59-.89-.17-1.19-.39-1.19-.89,0-.55.38-.85,1.05-.85.73,0,1.29.38,1.29.89v.25h.31c.01-.63.02-.89.05-1.23-.58-.2-.97-.27-1.42-.27-1.27,0-2.04.6-2.04,1.58,0,.52.24.89.74,1.12.29.13.87.31,1.61.47.49.11.7.34.7.75,0,.59-.55,1-1.32,1s-1.36-.38-1.36-.93v-.45h-.33c0,.75-.03,1.08-.12,1.52.57.19.99.26,1.49.26,1.43,0,2.44-.76,2.44-1.83ZM191.16,6.05c0-.32-.22-.55-.53-.55-.34,0-.56.22-.56.55s.22.55.55.55.55-.22.55-.55ZM191.98,13.03v-.33l-.5-.03c-.37-.02-.4-.1-.4-.79v-3.96l-.1-.04c-.56.23-1.12.38-1.7.45v.31h.4c.44,0,.48.08.48.8v2.45c0,.69-.03.76-.4.79l-.5.03v.33c.46-.02.91-.03,1.36-.03s.91.01,1.36.03ZM188.74,8.3v-.31c-.34.02-.69.03-1.03.03s-.69-.01-1.03-.03v.31l.45.02c.19.01.27.1.27.29,0,.17-.08.43-.22.79l-.46,1.16-.68,1.53-1.3-3.14c-.05-.13-.09-.26-.09-.37,0-.14.07-.24.26-.25l.53-.02v-.31c-.43.02-.85.03-1.28.03s-.84-.01-1.27-.03v.31l.37.02c.2.01.23.11.34.36l1.88,4.4h.55c.07-.36.23-.7.45-1.19l1.29-2.84c.25-.56.39-.72.61-.73l.34-.02ZM181.82,6.05c0-.32-.22-.55-.53-.55-.34,0-.56.22-.56.55s.22.55.55.55.55-.22.55-.55ZM182.64,13.03v-.33l-.5-.03c-.37-.02-.4-.1-.4-.79v-3.96l-.1-.04c-.56.23-1.12.38-1.7.45v.31h.4c.44,0,.48.08.48.8v2.45c0,.69-.03.76-.4.79l-.5.03v.33c.46-.02.91-.03,1.36-.03s.91.01,1.36.03ZM178.27,9.08c0,1.22-.37,2.16-1.09,2.75-.65.53-1.31.72-2.54.72-.5,0-.84-.02-1.12-.09v-6.49c.28-.05.67-.09,1.21-.09,1.21,0,2.19.22,2.77.8.52.52.77,1.31.77,2.4ZM179.44,8.8c0-2.03-1.51-3.35-3.81-3.35-.63,0-1.27.03-1.9.03-.75,0-1.49-.01-2.25-.03v.33l.44.03c.5.03.56.13.56.98v5.17c0,.32-.1.56-.27.64l-.34.17v.25c.5-.02,1.01-.03,1.52-.03s1.06.03,1.58.03c1.4,0,2.44-.36,3.21-1.11.79-.77,1.27-1.95,1.27-3.12Z"/>
  </g>
  <g class="st22">
    <path d="M260.4,22.83l-1.22.03c-.5,0-.79-.01-1.37-.07,0-.51.04-.75.19-1.04.23-.48.7-.77,1.22-.77.36,0,.64.14.84.44.24.36.35.68.35,1.41ZM261.37,22.7c0-1.25-.81-2.07-2.03-2.07-.4,0-.87.14-1.32.4-.89.51-1.25,1.19-1.25,2.32,0,.69.15,1.28.46,1.69.43.58,1.17.92,1.99.92.4,0,.81-.09,1.25-.28.29-.12.52-.26.57-.33l.22-.37-.14-.11c-.7.41-.95.51-1.42.51-.71,0-1.3-.32-1.6-.85-.21-.36-.28-.67-.31-1.3h1.59c.75,0,1.22-.03,1.97-.15.01-.15.02-.25.02-.38ZM256.15,25.24l-.11-.16c-.4.22-.75.32-1.15.32-1.21,0-2.01-.94-2.01-2.38,0-1.17.55-1.82,1.53-1.82.48,0,1,.22,1.2.49l.08.67h.31c0-.5.05-.95.15-1.34-.44-.26-.82-.38-1.27-.38-.52,0-1.13.21-1.79.62-.76.48-1.17,1.24-1.17,2.2,0,1.47,1.04,2.51,2.5,2.51.57,0,1.39-.21,1.49-.37l.23-.35ZM251.53,25.77v-.33l-.45-.03c-.37-.02-.4-.09-.4-.79v-2.11c0-1.28-.6-1.9-1.82-1.9-.4,0-.63.08-.86.27l-.83.72v-.95l-.1-.04c-.56.23-1.12.38-1.7.45v.31h.4c.44,0,.48.08.48.8v2.45c0,.69-.03.76-.4.79l-.49.03v.33c.45-.02.91-.03,1.35-.03s.91.01,1.35.03v-.33l-.49-.03c-.37-.02-.4-.1-.4-.79v-2.31c0-.49.72-1.03,1.39-1.03.73,0,1.21.55,1.21,1.39v3.1c.28-.02.58-.03.86-.03.31,0,.6.01.91.03ZM243.98,22.83l-1.22.03c-.5,0-.79-.01-1.37-.07,0-.51.04-.75.19-1.04.23-.48.7-.77,1.22-.77.36,0,.64.14.84.44.24.36.35.68.35,1.41ZM244.95,22.7c0-1.25-.81-2.07-2.03-2.07-.4,0-.87.14-1.32.4-.89.51-1.25,1.19-1.25,2.32,0,.69.15,1.28.46,1.69.43.58,1.17.92,1.99.92.4,0,.81-.09,1.25-.28.29-.12.52-.26.57-.33l.22-.37-.14-.11c-.7.41-.95.51-1.42.51-.71,0-1.3-.32-1.6-.85-.21-.36-.28-.67-.31-1.3h1.59c.75,0,1.22-.03,1.97-.15.01-.15.02-.25.02-.38ZM239.84,20.74c-.12-.08-.32-.12-.51-.12-.33,0-.68.17-.91.45l-.61.72v-1.12l-.1-.04c-.56.23-1.12.38-1.7.45v.31h.4c.44,0,.48.08.48.8v2.45c0,.69-.03.76-.4.79l-.5.03v.33c.45-.02.89-.03,1.34-.03.52,0,1.04.01,1.56.03v-.33l-.57-.03c-.49-.03-.51-.07-.51-.79v-1.88c0-.65.44-1.2.97-1.2.33,0,.56.15.73.5h.23l.1-1.31ZM234.45,22.83l-1.22.03c-.5,0-.79-.01-1.37-.07,0-.51.04-.75.19-1.04.23-.48.7-.77,1.22-.77.36,0,.64.14.84.44.24.36.35.68.35,1.41ZM235.42,22.7c0-1.25-.81-2.07-2.03-2.07-.4,0-.87.14-1.32.4-.89.51-1.25,1.19-1.25,2.32,0,.69.15,1.28.46,1.69.43.58,1.17.92,1.99.92.4,0,.81-.09,1.25-.28.29-.12.52-.26.57-.33l.22-.37-.14-.11c-.7.41-.95.51-1.42.51-.71,0-1.3-.32-1.6-.85-.21-.36-.28-.67-.31-1.3h1.59c.75,0,1.22-.03,1.97-.15.01-.15.02-.25.02-.38ZM230.78,18.76v-.84c-.23-.09-.36-.12-.5-.12-.35,0-.73.19-.97.46l-.63.72c-.32.36-.46.85-.46,1.57v.46l-.75.34v.24l.75-.04v3.09c0,.69-.03.76-.4.79l-.5.03v.33c.46-.02.91-.03,1.36-.03s.91.01,1.36.03v-.33l-.5-.03c-.37-.02-.4-.1-.4-.79v-3.09h1.35l.08-.58c-.48.03-.95.04-1.43.04v-.93c0-1.25.14-1.56.76-1.56.29,0,.49.08.75.31l.13-.07ZM226.95,25.77v-.33l-.45-.03c-.37-.02-.4-.09-.4-.79v-2.11c0-1.28-.6-1.9-1.82-1.9-.4,0-.63.08-.86.27l-.83.72v-.95l-.1-.04c-.56.23-1.12.38-1.7.45v.31h.4c.44,0,.48.08.48.8v2.45c0,.69-.03.76-.4.79l-.49.03v.33c.45-.02.91-.03,1.35-.03s.91.01,1.35.03v-.33l-.49-.03c-.37-.02-.4-.1-.4-.79v-2.31c0-.49.72-1.03,1.39-1.03.73,0,1.21.55,1.21,1.39v3.1c.28-.02.58-.03.86-.03.31,0,.6.01.91.03ZM219.35,23.56c0,1.25-.56,2.04-1.44,2.04-1.07,0-1.79-1.05-1.79-2.6,0-1.31.52-2.02,1.48-2.02s1.75,1.09,1.75,2.57ZM220.36,23.16c0-1.47-1.07-2.53-2.56-2.53-1.59,0-2.69,1.12-2.69,2.75,0,1.54.97,2.59,2.38,2.59,1.68,0,2.88-1.17,2.88-2.8ZM214.42,25.24l-.11-.16c-.4.22-.75.32-1.15.32-1.21,0-2.01-.94-2.01-2.38,0-1.17.55-1.82,1.53-1.82.48,0,1,.22,1.2.49l.08.67h.31c0-.5.05-.95.15-1.34-.44-.26-.82-.38-1.27-.38-.52,0-1.13.21-1.79.62-.76.48-1.17,1.24-1.17,2.2,0,1.47,1.04,2.51,2.5,2.51.57,0,1.39-.21,1.49-.37l.23-.35ZM207.08,25.77v-.33l-.45-.03c-.37-.02-.4-.09-.4-.79v-2.11c0-1.28-.6-1.9-1.82-1.9-.4,0-.63.08-.86.27l-.83.72v-.95l-.1-.04c-.56.23-1.12.38-1.7.45v.31h.4c.44,0,.48.08.48.8v2.45c0,.69-.03.76-.4.79l-.49.03v.33c.45-.02.91-.03,1.35-.03s.91.01,1.35.03v-.33l-.49-.03c-.37-.02-.4-.1-.4-.79v-2.31c0-.49.72-1.03,1.39-1.03.73,0,1.21.55,1.21,1.39v3.1c.28-.02.58-.03.86-.03.31,0,.6.01.91.03ZM199.53,22.83l-1.22.03c-.5,0-.79-.01-1.37-.07,0-.51.04-.75.19-1.04.23-.48.7-.77,1.22-.77.36,0,.64.14.84.44.24.36.35.68.35,1.41ZM200.5,22.7c0-1.25-.81-2.07-2.03-2.07-.4,0-.87.14-1.32.4-.89.51-1.25,1.19-1.25,2.32,0,.69.15,1.28.46,1.69.43.58,1.17.92,1.99.92.4,0,.81-.09,1.25-.28.29-.12.52-.26.57-.33l.22-.37-.14-.11c-.7.41-.95.51-1.42.51-.71,0-1.3-.32-1.6-.85-.21-.36-.28-.67-.31-1.3h1.59c.75,0,1.22-.03,1.97-.15.01-.15.02-.25.02-.38ZM196.45,18.19l-2.36.03h-1.72l-2.21-.03c.05.62.08,1.05.08,1.76h.34l.04-.86c.01-.26.13-.36.44-.36h1.69c.03.37.04.62.04,1.09v4.61c0,.86-.05.95-.56.98l-.52.03v.33c.53-.02,1.06-.03,1.59-.03s1.07.01,1.6.03v-.33l-.52-.03c-.5-.03-.56-.12-.56-.98v-4.61c0-.49.01-.73.04-1.09h1.69c.31,0,.43.1.44.36l.04.86h.34c0-.71.02-1.13.08-1.76ZM185.96,26.85c0,.94-.86,1.64-2.01,1.64-.95,0-1.6-.56-1.6-1.36,0-.49.28-.93.72-1.12.17-.08.48-.11,1.23-.11,1.23,0,1.66.25,1.66.96ZM185.03,22.53c0,.71-.46,1.2-1.12,1.2-.73,0-1.22-.57-1.22-1.41s.4-1.33,1.1-1.33c.74,0,1.24.61,1.24,1.54ZM187.1,21.17l-.04-.13-1.55.04c-.4-.33-.8-.46-1.33-.46-.48,0-1.04.15-1.48.41-.61.35-.93.88-.93,1.55,0,.81.5,1.36,1.31,1.45l-.86.67c-.11.16-.16.31-.16.47,0,.31.2.48.72.63l-.95.51c-.15.09-.31.49-.31.83,0,.99.97,1.68,2.36,1.68,1.65,0,2.95-1.04,2.95-2.37,0-.79-.52-1.33-1.29-1.33h-1.75c-.57,0-.83-.13-.83-.43,0-.14.09-.26.37-.5l.13-.12c.11.01.17.02.26.02.47,0,1.05-.21,1.49-.52.49-.36.73-.8.73-1.37,0-.22-.03-.36-.12-.59h1l.27-.45ZM180.13,18.79c0-.32-.22-.55-.53-.55-.34,0-.56.22-.56.55s.22.55.55.55.55-.22.55-.55ZM180.95,25.77v-.33l-.5-.03c-.37-.02-.4-.1-.4-.79v-3.96l-.1-.04c-.56.23-1.12.38-1.7.45v.31h.4c.44,0,.48.08.48.8v2.45c0,.69-.03.76-.4.79l-.5.03v.33c.46-.02.91-.03,1.36-.03s.91.01,1.36.03ZM176.16,19.93c0,.95-.65,1.46-1.9,1.46-.19,0-.33,0-.67-.02v-2.65c.28-.07.53-.09.88-.09,1.17,0,1.68.39,1.68,1.3ZM176.49,23.47c0,1.16-.75,1.84-2.05,1.84-.32,0-.57-.02-.84-.09v-3.44c.43-.02.52-.02.73-.02,1.47,0,2.16.53,2.16,1.7ZM177.61,23.25c0-.56-.22-1-.63-1.3-.41-.31-.79-.4-1.63-.47.53-.11.79-.21,1.09-.41.52-.36.8-.83.8-1.4,0-.96-.63-1.48-1.95-1.48-.65,0-1.3.03-1.95.03-.58,0-1.15-.01-1.72-.03v.33l.39.03c.51.04.56.12.56.98v5.17c0,.4-.09.65-.24.71l-.28.11v.25c.39-.02.8-.03,1.19-.03.45,0,.91.03,1.35.03.81,0,1.52-.2,2.01-.56.64-.46,1.03-1.2,1.03-1.96Z"/>
  </g>
  <rect class="st15" x="146.57" y="18.29" width="19.83" height="7.1"/>
  <polygon class="st5" points="166.39 25.39 166.39 25.27 146.69 25.27 146.69 18.42 166.27 18.42 166.27 25.39 166.39 25.39 166.39 25.27 166.39 25.39 166.52 25.39 166.52 18.17 146.44 18.17 146.44 25.52 166.52 25.52 166.52 25.39 166.39 25.39"/>
  <rect class="st0" x="146.57" y="6.29" width="19.83" height="7.1"/>
  <polygon class="st5" points="166.39 13.39 166.39 13.27 146.69 13.27 146.69 6.42 166.27 6.42 166.27 13.39 166.39 13.39 166.39 13.27 166.39 13.39 166.52 13.39 166.52 6.17 146.44 6.17 146.44 13.52 166.52 13.52 166.52 13.39 166.39 13.39"/>
  <g class="st16">
    <path d="M120.23,161.73l-.23,1.04c-.12.56-.36,1.04-.76,1.54-.57.7-1.23,1.21-1.55,1.21-.15,0-.24-.23-.24-.59,0-1.05.47-2.68.93-3.23.13-.16.45-.26.8-.26.31,0,.53.07,1.06.29ZM121.12,160.99l-.15-.07-.36.24c-.47-.19-.79-.26-1.1-.26-.29,0-.56.09-.86.27-.39.24-.87.63-1.11.91-.44.51-.86,2.11-.86,3.23,0,.64.13.97.39.97.24,0,.46-.08.8-.33l.09-.07c.7-.52,1.42-1.29,1.82-2.01l-.83,4.52c-.04.26-.16.48-.29.62l.1.15c.34-.09.68-.15.94-.19.04-.59.11-1.19.21-1.73l.94-4.97c.12-.67.19-.95.29-1.29Z"/>
    <path d="M186.09,163.27c0-.84-.14-1.61-.43-2.35-.41-1.06-.86-1.66-2-2.68l-.21.28c.8.94,1.09,1.45,1.36,2.35.22.71.33,1.48.33,2.39s-.11,1.76-.34,2.54c-.28.98-.57,1.51-1.35,2.48l.21.23c.75-.71,1.07-1.07,1.41-1.6.67-1.06,1.01-2.32,1.01-3.63ZM182.75,164.55c0-.34-.09-.59-.31-.81-.28-.28-.64-.4-1.6-.59-.89-.17-1.19-.39-1.19-.89,0-.55.38-.85,1.05-.85.73,0,1.29.38,1.29.89v.25h.31c.01-.63.02-.89.05-1.23-.58-.2-.97-.27-1.42-.27-1.27,0-2.04.6-2.04,1.58,0,.52.24.89.74,1.12.29.13.87.31,1.61.47.49.11.7.34.7.75,0,.59-.55,1-1.32,1s-1.36-.38-1.36-.93v-.45h-.33c0,.75-.03,1.08-.12,1.52.57.19.99.26,1.49.26,1.43,0,2.44-.76,2.44-1.83ZM177.02,163.61c0,1.22-.73,2.13-1.71,2.13-.6,0-1.05-.2-1.47-.64v-2.27c0-.15.05-.27.2-.46.32-.4.76-.61,1.31-.61,1.03,0,1.68.72,1.68,1.85ZM177.97,163.2c0-1.21-1-2.16-2.27-2.16-.4,0-.8.11-.97.27l-.89.82v-1.05l-.1-.04c-.56.23-1.12.38-1.7.45v.31h.4c.44,0,.48.08.48.8v5.49c0,.69-.03.76-.4.79l-.5.03v.33c.46-.02.91-.03,1.36-.03s.91.01,1.36.03v-.33l-.5-.03c-.37-.02-.4-.1-.4-.79v-2.06c.33.2.68.27,1.17.27.32,0,.6-.07.77-.17l1.24-.81c.44-.28.95-1.41.95-2.11ZM171.69,166.19v-.33l-.45-.03c-.37-.02-.4-.09-.4-.79v-3.96l-.1-.04c-.56.23-1.12.38-1.7.45v.31h.4c.44,0,.48.08.48.8v1.78c0,.24-.15.55-.4.8-.31.31-.65.46-1.08.46-.38,0-.69-.12-.86-.33-.15-.17-.23-.51-.23-.99v-3.22l-.1-.04c-.56.23-1.12.38-1.7.45v.31h.4c.44,0,.48.08.48.8v1.83c0,.76.07,1.1.26,1.37.24.33.65.49,1.28.49.49,0,.93-.15,1.22-.43l.73-.68c0,.32-.01.49-.04,1,.31-.02.6-.03.91-.03s.6.01.91.03ZM163.99,163.98c0,1.25-.56,2.04-1.44,2.04-1.07,0-1.79-1.05-1.79-2.6,0-1.31.52-2.02,1.48-2.02s1.75,1.09,1.75,2.57ZM165,163.58c0-1.47-1.07-2.53-2.56-2.53-1.59,0-2.69,1.12-2.69,2.75,0,1.54.97,2.59,2.38,2.59,1.68,0,2.88-1.17,2.88-2.8ZM159.17,161.16c-.12-.08-.32-.12-.51-.12-.33,0-.68.17-.91.45l-.61.72v-1.12l-.1-.04c-.56.23-1.12.38-1.7.45v.31h.4c.44,0,.48.08.48.8v2.45c0,.69-.03.76-.4.79l-.5.03v.33c.45-.02.89-.03,1.34-.03.52,0,1.04.01,1.56.03v-.33l-.57-.03c-.49-.03-.51-.07-.51-.79v-1.88c0-.65.44-1.2.97-1.2.33,0,.56.15.73.5h.23l.1-1.31ZM153.65,167.27c0,.94-.86,1.64-2.01,1.64-.95,0-1.6-.56-1.6-1.36,0-.49.28-.93.72-1.12.17-.08.48-.11,1.23-.11,1.23,0,1.66.25,1.66.96ZM152.72,162.95c0,.71-.46,1.2-1.12,1.2-.73,0-1.22-.57-1.22-1.41s.4-1.33,1.1-1.33c.74,0,1.24.61,1.24,1.54ZM154.79,161.59l-.04-.13-1.55.04c-.4-.33-.8-.46-1.33-.46-.48,0-1.04.15-1.48.41-.61.35-.93.88-.93,1.55,0,.81.5,1.36,1.31,1.45l-.86.67c-.11.16-.16.31-.16.47,0,.31.2.48.72.63l-.95.51c-.15.09-.31.49-.31.83,0,.99.97,1.68,2.36,1.68,1.65,0,2.95-1.04,2.95-2.37,0-.79-.52-1.33-1.29-1.33h-1.75c-.57,0-.83-.13-.83-.43,0-.14.09-.26.37-.5l.13-.12c.11.01.17.02.26.02.47,0,1.05-.21,1.49-.52.49-.36.73-.8.73-1.37,0-.22-.03-.36-.12-.59h1l.27-.45ZM146.22,159.18v-.84c-.23-.09-.36-.12-.5-.12-.35,0-.73.19-.97.46l-.63.72c-.32.36-.46.85-.46,1.57v.46l-.75.34v.24l.75-.04v3.09c0,.69-.03.76-.4.79l-.5.03v.33c.46-.02.91-.03,1.36-.03s.91.01,1.36.03v-.33l-.5-.03c-.37-.02-.4-.1-.4-.79v-3.09h1.35l.08-.58c-.48.03-.95.04-1.43.04v-.93c0-1.25.14-1.56.76-1.56.29,0,.49.08.75.31l.13-.07ZM141.13,163.98c0,1.25-.56,2.04-1.44,2.04-1.07,0-1.79-1.05-1.79-2.6,0-1.31.52-2.02,1.48-2.02s1.75,1.09,1.75,2.57ZM142.15,163.58c0-1.47-1.07-2.53-2.56-2.53-1.59,0-2.69,1.12-2.69,2.75,0,1.54.97,2.59,2.38,2.59,1.68,0,2.88-1.17,2.88-2.8ZM131.98,161.59l-.22,1.52h-1.46l.23-1.52h1.45ZM133.76,161.59v-.61h-1.06l.33-2.28h-.63l-.33,2.28h-1.45l.34-2.28h-.63l-.34,2.28h-1.29v.61h1.2l-.23,1.52h-1.27v.61h1.17l-.36,2.44h.63l.36-2.44h1.46l-.34,2.44h.63l.34-2.44h1.19v-.61h-1.09l.22-1.52h1.15ZM128.01,168.28c-.79-.97-1.07-1.49-1.35-2.48-.23-.79-.34-1.61-.34-2.54s.1-1.68.32-2.39c.27-.91.58-1.42,1.37-2.35l-.21-.28c-1.13,1.01-1.58,1.61-2,2.68-.28.73-.43,1.51-.43,2.33,0,1.17.27,2.27.8,3.25.38.73.73,1.16,1.63,2l.21-.23Z"/>
  </g>
  <g class="st2">
    <path d="M3.93,48.57h-.31c.02.35.03.69.03,1.04s-.01.69-.03,1.04h.31l.02-.28c.02-.33.1-.47.27-.47.08,0,.16.03.28.08l3.19,1.3c-.41.24-.67.35-1.2.56l-1.83.7c-.19.07-.33.11-.44.11-.17,0-.26-.11-.27-.37l-.02-.41h-.31c.02.43.03.84.03,1.27s-.01.84-.03,1.27h.31l.02-.2c.03-.27.15-.41.53-.57l4.41-1.8.67.25c.92.35,1.43.77,1.43,1.19,0,.17-.09.37-.25.56v.14l.82.26c.11-.21.16-.38.16-.59,0-.73-.39-1.2-1.34-1.61l-5.11-2.21c-.99-.44-1.3-.64-1.32-.92l-.02-.31ZM8.13,54.84l-.16.11c.22.4.32.75.32,1.15,0,1.21-.94,2.01-2.38,2.01-1.17,0-1.82-.55-1.82-1.53,0-.48.22-1,.49-1.2l.67-.08v-.31c-.5,0-.95-.05-1.34-.15-.26.44-.38.82-.38,1.27,0,.52.21,1.13.62,1.79.48.76,1.24,1.17,2.2,1.17,1.47,0,2.51-1.04,2.51-2.5,0-.57-.21-1.39-.37-1.49l-.35-.23ZM8.67,59.45h-.33l-.03.45c-.02.37-.09.4-.79.4h-2.11c-1.28,0-1.9.6-1.9,1.82,0,.4.08.63.27.86l.72.83h-.95l-.04.1c.23.56.38,1.12.45,1.7h.31v-.4c0-.44.08-.48.8-.48h2.45c.69,0,.76.03.79.4l.03.49h.33c-.02-.45-.03-.91-.03-1.35s.01-.91.03-1.35h-.33l-.03.49c-.02.37-.1.4-.79.4h-2.31c-.49,0-1.03-.72-1.03-1.39,0-.73.55-1.21,1.39-1.21h3.1c-.02-.28-.03-.58-.03-.86,0-.31.01-.6.03-.91ZM5.72,67l.03,1.22c0,.5-.01.79-.07,1.37-.51,0-.75-.04-1.04-.19-.48-.23-.77-.7-.77-1.22,0-.36.14-.64.44-.84.36-.24.68-.35,1.41-.35ZM5.59,66.03c-1.25,0-2.07.81-2.07,2.03,0,.4.14.87.4,1.32.51.89,1.19,1.25,2.32,1.25.69,0,1.28-.15,1.69-.46.58-.43.92-1.17.92-1.99,0-.4-.09-.81-.28-1.25-.12-.29-.26-.52-.33-.57l-.37-.22-.11.14c.41.7.51.95.51,1.42,0,.71-.32,1.3-.85,1.6-.36.21-.67.28-1.3.31v-1.59c0-.75-.03-1.22-.15-1.97-.15-.01-.25-.02-.38-.02ZM8.67,71.16h-.33l-.03.45c-.02.37-.09.4-.79.4h-3.96l-.04.1c.23.56.38,1.12.45,1.7h.31v-.4c0-.44.08-.48.8-.48h1.78c.24,0,.55.15.8.4.31.31.46.65.46,1.08,0,.38-.12.69-.33.86-.17.15-.51.23-.99.23h-3.22l-.04.1c.23.56.38,1.12.45,1.7h.31v-.4c0-.44.08-.48.8-.48h1.83c.76,0,1.1-.07,1.37-.26.33-.24.49-.65.49-1.28,0-.49-.15-.93-.43-1.22l-.68-.73c.32,0,.49.01,1,.04-.02-.31-.03-.6-.03-.91s.01-.6.03-.91ZM7.33,79.32c.15,0,.44.26.6.56.14.26.22.51.22.77,0,.96-.89,1.63-2.21,1.63-1.2,0-1.9-.61-1.9-1.66,0-.53.13-.92.45-1.3h2.85ZM11.7,77.5h-.33l-.03.5c-.02.37-.1.4-.79.4h-5.39c-.68,0-1.09-.07-1.51-.25l-.12.21.34.53c-.25.56-.36,1.03-.36,1.49,0,.32.09.7.19.86l.59.92c.45.7,1.17,1.06,2.12,1.06,1.43,0,2.36-.86,2.36-2.21,0-.23-.04-.41-.13-.56l-.72-1.13h2.64c.69,0,.76.04.79.4l.03.63h.33c-.02-.5-.03-1.01-.03-1.52,0-.45.01-.89.03-1.34ZM5.72,84.91l.03,1.22c0,.5-.01.79-.07,1.37-.51,0-.75-.04-1.04-.19-.48-.23-.77-.7-.77-1.22,0-.36.14-.64.44-.84.36-.24.68-.35,1.41-.35ZM5.59,83.94c-1.25,0-2.07.81-2.07,2.03,0,.4.14.87.4,1.32.51.89,1.19,1.25,2.32,1.25.69,0,1.28-.15,1.69-.46.58-.43.92-1.17.92-1.99,0-.4-.09-.81-.28-1.25-.12-.29-.26-.52-.33-.57l-.37-.22-.11.14c.41.7.51.95.51,1.42,0,.71-.32,1.3-.85,1.6-.36.21-.67.28-1.3.31v-1.59c0-.75-.03-1.22-.15-1.97-.15-.01-.25-.02-.38-.02ZM3.64,89.06c-.08.12-.12.32-.12.51,0,.33.17.68.45.91l.72.61h-1.12l-.04.1c.23.56.38,1.12.45,1.7h.31v-.4c0-.44.08-.48.8-.48h2.45c.69,0,.76.03.79.4l.03.5h.33c-.02-.45-.03-.89-.03-1.34,0-.52.01-1.04.03-1.56h-.33l-.03.57c-.03.49-.07.51-.79.51h-1.88c-.65,0-1.2-.44-1.2-.97,0-.33.15-.56.5-.73v-.23l-1.31-.1ZM1.12,93.14l-.03,1.33c.02.79.03,1.57.03,2.36,0,.64-.01,1.28-.03,1.92h.33l.03-.52c.03-.5.12-.56.98-.56h4.9c.86,0,.95.05.98.56l.03.52h.33c-.02-.53-.03-1.06-.03-1.59s.01-1.07.03-1.6h-.33l-.03.52c-.03.5-.12.56-.98.56h-2.26l-.03-1.75c0-.48.04-.69.4-.76.24-.04.64-.05.64-.05v-.33c-.4.02-.81.03-1.21.03-.43,0-.84-.01-1.27-.03v.33l.57.05c.37.03.41.31.41.79,0,.59-.01,1.24-.04,1.72H1.63c-.08-.33-.09-.52-.09-1.17,0-.52.07-1.13.15-1.47.07-.26.12-.29.37-.29h.71v-.38c-.65,0-1.18-.05-1.66-.17Z"/>
  </g>
  <g class="st14">
    <path d="M153.35,77.01c-.79-.97-1.07-1.49-1.35-2.48-.23-.79-.34-1.61-.34-2.54s.1-1.68.32-2.39c.27-.91.58-1.42,1.37-2.35l-.21-.28c-1.13,1.01-1.58,1.61-2,2.68-.28.73-.43,1.51-.43,2.33,0,1.17.27,2.27.8,3.25.38.73.73,1.16,1.63,2l.21-.23ZM146.3,67.94c0-.32-.22-.55-.53-.55-.34,0-.56.22-.56.55s.22.55.55.55.55-.22.55-.55ZM147.12,74.92v-.33l-.5-.03c-.37-.02-.4-.1-.4-.79v-3.96l-.1-.04c-.56.23-1.12.38-1.7.45v.31h.4c.44,0,.48.08.48.8v2.45c0,.69-.03.76-.4.79l-.5.03v.33c.46-.02.91-.03,1.36-.03s.91.01,1.36.03ZM144.03,70.19v-.31c-.35.02-.69.03-1.04.03s-.69-.01-1.04-.03v.31l.28.02c.33.02.47.1.47.27,0,.08-.03.16-.08.28l-1.3,3.19c-.24-.41-.35-.67-.56-1.2l-.7-1.83c-.07-.19-.11-.33-.11-.44,0-.17.11-.26.37-.27l.41-.02v-.31c-.43.02-.84.03-1.27.03s-.84-.01-1.27-.03v.31l.2.02c.27.03.41.15.57.53l1.8,4.41-.25.67c-.35.92-.77,1.43-1.19,1.43-.17,0-.37-.09-.56-.25h-.14l-.26.82c.21.11.38.16.59.16.73,0,1.2-.39,1.61-1.34l2.21-5.11c.44-.99.64-1.3.92-1.32l.31-.02ZM138.37,74.92v-.33l-.45-.03c-.37-.02-.4-.09-.4-.79v-2.11c0-1.28-.6-1.9-1.82-1.9-.4,0-.63.08-.86.27l-.83.72v-.95l-.1-.04c-.56.23-1.12.38-1.7.45v.31h.4c.44,0,.48.08.48.8v2.45c0,.69-.03.76-.4.79l-.49.03v.33c.45-.02.91-.03,1.35-.03s.91.01,1.35.03v-.33l-.49-.03c-.37-.02-.4-.1-.4-.79v-2.31c0-.49.72-1.03,1.39-1.03.73,0,1.21.55,1.21,1.39v3.1c.28-.02.58-.03.86-.03.31,0,.6.01.91.03ZM131.23,67.88c0-.21-.15-.37-.34-.37-.16,0-.36.12-.6.36l-1.51,1.51h.44l1.57-.98c.36-.23.44-.32.44-.51ZM130.82,71.98l-1.22.03c-.5,0-.79-.01-1.37-.07,0-.51.04-.75.19-1.04.23-.48.7-.77,1.22-.77.36,0,.64.14.84.44.24.36.35.68.35,1.41ZM131.79,71.85c0-1.25-.81-2.07-2.03-2.07-.4,0-.87.14-1.32.4-.89.51-1.25,1.19-1.25,2.32,0,.69.15,1.28.46,1.69.43.58,1.17.92,1.99.92.4,0,.81-.09,1.25-.28.29-.12.52-.26.57-.33l.22-.37-.14-.11c-.7.41-.95.51-1.42.51-.71,0-1.3-.32-1.6-.85-.21-.36-.28-.67-.31-1.3h1.59c.75,0,1.22-.03,1.97-.15.01-.15.02-.25.02-.38ZM127.13,74.92v-.33c-.35-.03-.52-.1-.67-.28l-2.48-3.23c.61-.15.89-.27,1.25-.52.57-.4.87-.95.87-1.58,0-1.05-.71-1.64-2.13-1.64-.65,0-1.3.03-1.95.03s-1.25-.01-1.89-.03v.33l.45.03c.5.03.56.13.56.98v4.9c0,.86-.05.95-.56.98l-.52.03v.33c.53-.02,1.06-.03,1.59-.03s1.07.01,1.6.03v-.33l-.52-.03c-.5-.03-.56-.12-.56-.98v-5.7c.37-.09.7-.13,1.07-.13,1.13,0,1.77.52,1.77,1.45,0,1-.8,1.64-2.06,1.64h-.32v.17c.24.26.33.38.5.62.82,1.09,1.63,2.19,2.45,3.28.25-.02.49-.03.74-.03s.52.01.79.03ZM119.6,71.81l-.05-.05h-2.87l-.29.73.05.05h2.84l.33-.73ZM115.84,73.28c0-.34-.09-.59-.31-.81-.28-.28-.64-.4-1.6-.59-.89-.17-1.19-.39-1.19-.89,0-.55.38-.85,1.05-.85.73,0,1.29.38,1.29.89v.25h.31c.01-.63.02-.89.05-1.23-.58-.2-.97-.27-1.42-.27-1.27,0-2.04.6-2.04,1.58,0,.52.24.89.74,1.12.29.13.87.31,1.61.47.49.11.7.34.7.75,0,.59-.55,1-1.32,1s-1.36-.38-1.36-.93v-.45h-.33c0,.75-.03,1.08-.12,1.52.57.19.99.26,1.49.26,1.43,0,2.44-.76,2.44-1.83ZM111.36,67.8c0-.2-.15-.36-.34-.36-.17,0-.41.14-.6.36l-1.4,1.61h.44l1.47-1.07c.32-.23.43-.37.43-.55ZM109.72,67.8c0-.2-.15-.36-.34-.36-.17,0-.41.14-.6.36l-1.4,1.61h.44l1.47-1.07c.32-.23.43-.37.43-.55ZM110.21,72.71c0,1.25-.56,2.04-1.44,2.04-1.07,0-1.79-1.05-1.79-2.6,0-1.31.52-2.02,1.48-2.02s1.75,1.09,1.75,2.57ZM111.23,72.31c0-1.47-1.07-2.53-2.56-2.53-1.59,0-2.69,1.12-2.69,2.75,0,1.54.97,2.59,2.38,2.59,1.68,0,2.88-1.17,2.88-2.8ZM103.45,72.48c0,.71-.02.82-.16,1.07-.31.51-.84.85-1.35.85-.96,0-1.65-.93-1.65-2.23,0-1.19.59-1.89,1.57-1.89.41,0,.85.14,1.23.4.23.15.36.29.36.38v1.41ZM105.27,74.92v-.33l-.5-.03c-.37-.02-.4-.1-.4-.79v-6.72l-.1-.09c-.48.19-.84.27-1.7.4v.31h.61c.2,0,.27.12.27.45v2c-.61-.26-.92-.35-1.3-.35-.29,0-.56.07-.83.21l-.96.5c-.62.33-1.03,1.12-1.03,2.05,0,.87.29,1.59.83,2.03.37.32.88.46,1.59.46.22,0,.47-.04.52-.09l1.21-1.01-.05,1c.28-.02.56-.03.84-.03.33,0,.67.01.99.03ZM98.89,69.89c-.12-.08-.32-.12-.51-.12-.33,0-.68.17-.91.45l-.61.72v-1.12l-.1-.04c-.56.23-1.12.38-1.7.45v.31h.4c.44,0,.48.08.48.8v2.45c0,.69-.03.76-.4.79l-.5.03v.33c.45-.02.89-.03,1.34-.03.52,0,1.04.01,1.56.03v-.33l-.57-.03c-.49-.03-.51-.07-.51-.79v-1.88c0-.65.44-1.2.97-1.2.33,0,.56.15.73.5h.23l.1-1.31ZM94.38,73.1h-.38l-.05.37c-.07.47-.21.81-.36.86-.23.08-1.03.13-2.01.13-.57,0-.76-.02-1.08-.09v-3.05l1.75-.03c.48,0,.69.04.76.4.04.24.05.64.05.64h.33c-.02-.4-.03-.81-.03-1.21,0-.43.01-.84.03-1.27h-.33s0,.36-.05.57c-.09.37-.29.41-.76.41-.55,0-1.27-.01-1.75-.04v-2.91c.34-.08.52-.09,1.28-.09.62,0,1.23.05,1.58.15.26.08.29.12.29.37v.71h.38c0-.65.05-1.18.17-1.66l-1.35-.03c-.84.02-1.69.03-2.53.03-.64,0-1.3-.01-1.94-.03v.33l.52.03c.5.03.56.12.56.98v4.9c0,.86-.04.94-.56.98l-.39.03v.33c.45-.02.89-.03,1.34-.03.84,0,1.69.01,2.53.03l1.82-.03c0-.63.07-1.22.17-1.79Z"/>
    <path d="M157.96,70.46l-.23,1.04c-.12.56-.36,1.04-.76,1.54-.57.7-1.23,1.21-1.55,1.21-.15,0-.24-.23-.24-.59,0-1.05.47-2.68.93-3.23.13-.16.45-.26.8-.26.31,0,.53.07,1.06.29ZM158.84,69.72l-.15-.07-.36.24c-.47-.19-.79-.26-1.1-.26-.29,0-.56.09-.86.27-.39.24-.87.63-1.11.91-.44.51-.86,2.11-.86,3.23,0,.64.13.97.39.97.24,0,.46-.08.8-.33l.09-.07c.7-.52,1.42-1.29,1.82-2.01l-.83,4.52c-.04.26-.16.48-.29.62l.1.15c.34-.09.68-.15.94-.19.04-.59.11-1.19.21-1.73l.94-4.97c.12-.67.19-.95.29-1.29Z"/>
    <path d="M163.47,73.43h5.88v-.64h-5.88v.64ZM163.47,71.12h5.88v-.65h-5.88v.65Z"/>
    <path d="M177.65,74.92v-.33l-.57-.03c-.6-.03-.71-.15-.71-.72v-6.47l-.15-.05c-.71.37-1.48.7-2.48,1.05l.08.47h.11c.48-.22.96-.44,1.44-.64.07,0,.09.1.09.36v5.29c0,.57-.12.69-.71.72l-.61.03v.33c.6-.02,1.2-.03,1.8-.03.57,0,1.15.01,1.71.03Z"/>
    <path d="M181.52,72c0-.84-.14-1.61-.43-2.35-.41-1.06-.86-1.66-2-2.68l-.21.28c.8.94,1.09,1.45,1.36,2.35.22.71.33,1.48.33,2.39s-.11,1.76-.34,2.54c-.28.98-.57,1.51-1.35,2.48l.21.23c.75-.71,1.07-1.07,1.41-1.6.67-1.06,1.01-2.32,1.01-3.63Z"/>
  </g>
  <polyline class="st7" points="59.31 2.38 58.31 2.38 58.31 137.9 59.31 137.9 59.31 2.38"/>
  <polyline class="st20" points="84.85 70.94 67.63 70.94 67.45 71.44 67.63 71.94 84.85 71.94 84.85 70.94"/>
  <path class="st20" d="M68.74,67.88c-.56.49-1.24.97-1.97,1.42v4.3c.73.45,1.41.93,1.97,1.42l-1.11-3.07-.18-.5.18-.5,1.11-3.07"/>
  <path class="st24" d="M66.27,69.59c-1.29.74-2.7,1.39-3.94,1.85,1.24.46,2.65,1.11,3.94,1.85v-3.7"/>
  <path class="st17" d="M66.77,69.29c-.08.05-.17.1-.25.15v4c.08.05.17.1.25.15v-4.3"/>
  <path class="st9" d="M66.52,69.45c-.08.05-.17.1-.25.15v3.7c.08.05.17.1.25.15v-4"/>
</svg>