<?xml version="1.0" encoding="UTF-8"?>
<svg id="Layer_2" data-name="Layer 2" xmlns="http://www.w3.org/2000/svg" viewBox="0 0 74.44 58.76">
  <defs>
    <style>
      .cls-1 {
        fill: #231f20;
        stroke-width: 0px;
      }
    </style>
  </defs>
  <g id="Layer_1-2" data-name="Layer 1">
    <g>
      <path class="cls-1" d="m28.02,34.15c-.98.73-1.15.93-.52.61-4.33,1.44-5.45,9.16,0,9.95,2.61.38,4.65.13,6.87-1.39,1.03-.71,1.81-1.57,2.61-2.53l.64-.83c.97-.97.93-1.09-.12-.36l-3.2-.86.8.51-2.28-2.28c-.11-1.07-.16-1.02-.15.15l-.32,1.27c-.35,1.19-.93,2.24-1.54,3.32-.31.55-2.12,2.82-2.13,3.43-.66.71-.34.95.96.72.72-.15,1.28.02,1.69.53-.46.39-1.11-5.62-1.11-5.62.07-.61.36-1.23.43-1.79.12-1.02,1.41.04-.08-.45l-2.74-1.6c-.45-1.23-.77-1.35-.96-.36-.28,1.01-.53,2.02-.74,3.05-.29,1.8-.27,3.24.23,4.98.56,1.95,2.83,2.89,4.6,1.87,2.95-1.7,4-4.27,5.7-7.08,1.5-2.47,2.73-4.64,1.95-7.66-1.6-6.21-9.31-7.55-14.29-4.63-9.57,5.6-9.74,22.41-1.37,29.17,10.89,8.8,20.81-7.85,22.21-17.05.88-5.79-1.65-12.55-8.58-12.36-2.71.07-5.3,1.48-7.19,3.37-1.76,1.76-2.33,4.23-4.17,5.86l8.81,3.65c.06-.63.23-1.22.51-1.79,1.43-3.9-3.86-6.21-6.52-3.8h0Z"/>
      <path class="cls-1" d="m37.53,31.69c1.33-7.02,4.73-13.2,10.07-17.98,4.22-3.78,13.33-10.15,19.36-8.1,11.08,3.79-8.02,17.93-11.59,20.42-6.59,4.59-13.69,8.28-21.17,11.17l3.57,4.64c1.24-1.8,2.02-2.8,2.01-4.97,0-1.38-1.3-2.25-2.58-1.97-2.12.47-2.93,1.54-4.39,3.11-2.56,2.75.64,6.38,3.83,4.96,10.51-4.68,20.18-11.15,28.51-19.09,5.24-5,14.3-14.72,5.85-21.48-6.61-5.29-18.12-.75-24.14,3.37-8.15,5.56-13.79,14.55-15.49,24.22-.71,4.01,5.4,5.76,6.17,1.7h0Z"/>
      <path class="cls-1" d="m30.81,29.92c-3.04-9.05-8.99-16.27-16.68-21.88-2.78-2.03-6.29-3.89-9.3-1.09C1.98,9.61,1,15.22.39,18.86c-1.35,8.07.65,16.77,8.39,20.85,6.88,3.63,18.59,2.97,24.51-2.24,1.22-1.07.69-3.62-1.02-3.88-5.36-.79-10.57,1.6-16,1.01-7.22-.78-10.04-6.66-9.35-13.38.27-2.67.89-6.15,2.22-8.55.52-.97.43-1.05-.27-.25l1.31.84c1.05,1.29,3,2.15,4.3,3.27,4.89,4.25,8.83,9.62,12.23,15.1,1.3,2.09,4.95.77,4.11-1.73h0Z"/>
    </g>
  </g>
</svg>