<?xml version="1.0" encoding="utf-8"?>
<!-- Generator: Adobe Illustrator 27.9.6, SVG Export Plug-In . SVG Version: 9.03 Build 54986)  -->
<svg version="1.1" xmlns="http://www.w3.org/2000/svg" xmlns:xlink="http://www.w3.org/1999/xlink" x="0px" y="0px"
	 viewBox="0 0 595.3 841.9" style="enable-background:new 0 0 595.3 841.9;" xml:space="preserve">
<style type="text/css">
	.st1{fill:#739056;stroke:#739056;stroke-miterlimit:10;}
	.st2{fill:#739056;}
</style>
<g id="Background">
	<path class="st1" d="M90.7,449c-5,8.6-14.4,6.5-23.8,13.5c-8.8,6.6-11.1,16.8-15.4,36.8c-5,23.6-7.6,36.1-3.7,52.7
		c1.2,4.9,7.5,30,28.9,47.1c7.7,6.1,32.1,23.1,36.3,26.1c6.6,4.6,12.7,8.8,13,14.9c0.4,6.8-6.6,9-13,18.2
		c-6.8,9.7-7.3,22.8-8.4,48.9c-0.8,20.6,1.2,24.2,3.7,25.6c4.8,2.7,12.3-1.7,17.7-5.1c9.9-6.2,15.7-13.2,26.1-27.5
		c10.2-14,16.5-22.6,24.7-36.3c12.6-21.1,13.4-26.8,13-31.7c-0.7-8.5-4.9-16.1-8.4-22.4c-5-9-7.5-9.7-11.7-17.2
		c-1.2-2.2-6.7-12.7-7.5-25.6c-0.7-12,3.7-11.6,10.7-38.7c3-11.6,4.2-19.4,10.7-27.5c6-7.5,11-8.3,13-8.4c2.8-0.1,4.9,0.8,6.5,1.4
		c6.9,2.8,14.4,3.8,21.4,6.1c6.2,2,11.4,1.9,50.3-0.9c31.6-2.3,33.5-2.6,37.3-3.7c10.5-3.1,15.2-6.4,27-7.5
		c6.3-0.5,15.1-1.2,23.8,3.3c5.3,2.7,7.2,5.6,14.4,14c16.5,19.2,17.1,16.4,25.6,28c3.6,4.9,9.9,14.2,14.9,27
		c4.3,11.1,4.2,16.2,3.3,20c-1,4.2-3.2,7.7-6.5,13c-5.4,8.6-7,8.3-8.4,11.7c-3.6,9,5.5,18.1,15.4,36.3c8.5,15.8,4.4,14.1,12.6,29.4
		c8.6,16.1,16.9,24.7,33.6,41.9c7.3,7.6,10.9,10.5,15.8,10.7c11.8,0.5,20.7-14.8,21.9-16.8c4.8-8.3,5.3-16.2,6.1-31.7
		c0.8-17.5,1.3-26.5-2.8-37.3c-5.9-15.7-14.1-16.2-14-25.6c0.2-12.9,15.4-14.5,23.3-33.1c1.8-4.3,2.8-8.4,2.8-36.3
		c0-27.7,0-41.6-0.9-44.3c-7.7-22.9-28.5-34.9-35-58.7c-0.4-1.6-1-3.9-1.4-7c-1.6-13.5,3.9-19.1,5.1-31.2
		c1.1-11.1-3.1-11.1-3.3-25.2c-0.1-12.6,3.2-21.6,4.7-26.6c10.4-34.4-10.2-55.6-3.7-109.5c1.7-14.1,3.3-14.6,4.2-28
		c1.2-19.2-1.7-24.1-4.7-56.9c-2.6-29-1-33.7-6.5-43.8c-3.7-6.7-9.7-12.4-21.9-23.8c-19.7-18.4-27.2-19.5-31.2-19.6
		c-1.7,0-11.8-0.1-16.8,6.5c-2.7,3.6-1.9,6.3-2.3,18.2c-0.6,17.4-2.6,16.4-2.3,29.4c0.1,3.4,0.3,9.4,0,18.2
		c-0.4,10.1-1,11.9-2.3,12.6c-3.7,1.9-8.8-7-20-11.2c-7.5-2.8-13.2-1.7-20-1.4c-22.5,1.1-25.9-7.1-49.9-8.9
		c-9.6-0.7-5.5,0.9-44.7,4.7c-31.2,3-32.2,1.9-41.9,4.7c-19.8,5.7-33.6,15.6-35.9,12.6c-1-1.4,0.9-4.6,3.3-8.4
		c4.2-6.9,9.1-11,9.8-11.7c9.3-8,13.7-24.5,14.4-34c1.6-19.9-10.5-43.1-21.9-43.3c-3.4-0.1-7.1,1.9-20,20
		c-15.7,22.1-23.8,37.7-23.8,37.7c-11.9,23.2-21.1,44.2-29.8,65.7c-10,24.7-15,37-18.6,49.4c-6.4,21.7-8.4,37.8-12.1,69
		c-6.1,50.4-9.1,75.6-4.7,95.1c5,22.1,0.7,5.7,4.7,36.8C92.9,439.2,93.6,444.1,90.7,449z"/>
	<g>
		<g>
			<path class="st2" d="M78.7,459c1-0.9,2-1.9,3-2.7c0.4-0.4,0.9-0.7,1.4-1c0.3-0.2,0.6-0.4,0.9-0.5c1-0.5,0.8-0.5-0.6,0.1
				c-0.9-0.2-1.7-0.5-2.6-0.7c-0.1,0-1.2-1.2-1-1.3c0.1,0,0.3,1.4,0.2,0.8c-0.1-0.7,0.1,0.8,0,0.1c-0.1-0.6-0.3,0.9,0.1,0
				c-0.1,0.3-0.3,0.6-0.5,0.9c0.4-0.5,0.1,0-0.2,0.1c1.5-0.4,2.6-1.5,3.7,1.8c-0.8-2.6-3.5-4.3-6.2-3.5c-2.4,0.7-4.5,3.6-3.5,6.2
				c0,0.1,0.1,0.2,0.1,0.2c0.1-1.1,0.3-2.3,0.4-3.4c-0.1,0.2-0.2,0.3-0.3,0.5c0.5-0.5,1-1,1.5-1.5c-0.7,0.4-1.3,0.8-2.1,0.9
				c1.8,1.4,3.6,2.7,5.3,4.1c0,0.1,0,0.3,0,0.4c1.3-4-4.2-7.1-7-4.1c-1.3,1.4-1.8,2.9-1.2,4.8c0.8,2.8,3.7,3.7,6.2,2.5
				c0.7-0.4,1.8-1,2.7-1.2c-1.1-0.1-2.3-0.3-3.4-0.4c0.1,0,0.1,0.1,0.2,0.1c-0.8-1.5-1.7-2.9-2.5-4.4c0.2,5.4,6,8,10.6,6
				c4-1.7,6.5-5.8,6.7-10.1c0.1-4.7-3.4-10.4-8.8-9c-4.3,1.1-8.1,5-10.4,8.6C68.4,457.9,74.9,462.7,78.7,459L78.7,459z"/>
		</g>
	</g>
	<g>
		<g>
			<path class="st2" d="M198,486.8c-7.4-3.1-13,2.6-17.4,7.9c-5.9,7.1-10.9,14.8-15.1,23c-3.8,7.4,6.1,12.7,10.9,6.4
				c7.8-10.4,16-21.1,25.4-29.9c4.8-4.5-2.2-11.2-7.1-7.1c-13.4,11-24.1,25.2-31.1,41.1c-2.1,4.7,2.6,11.6,7.9,7.9
				c6.1-4.2,11-9.4,14.6-15.9c3.3-6.1-5.6-11.2-9.3-5.4c-4.3,6.8-9,13.3-12.2,20.8c-3.3,7.8-4.8,16.2-6.7,24.5
				c-1.9,8.3-3.9,16.4-2.7,24.9c1.1,7.7,3.9,15.5,7.4,22.5c1.3,2.6,3.1,5.3,5.7,6.9c1.8,1.2,3.7,0.8,5.6,1.6c2.2,1,2.4,2.5,3.2,4.4
				c1.5,3.9,3,7.9,4.5,11.8c1.4,3.5,3.8,7.7,4,11.5c0.3,5.4-4.7,9.7-8,13.4c-4,4.4-7.7,8.9-9.4,14.8c-2.2,7.1,9.3,10.3,11.1,3.1
				c2.8-10.7,15-16,16.7-27.5c1.1-7.4-2.9-14.3-5.8-20.9c-2.9-6.3-5.1-13.3-11-17.5c-6.4-4.5-8.1-11-10.4-18.3
				c-2.7-8.8-2.2-16-0.4-24.9c1.7-8.2,2.8-16.7,5.6-24.5c2.7-7.6,7.2-14.7,11.9-21.2c-3.1-1.8-6.2-3.6-9.3-5.4
				c-3,4.5-6.7,8.3-11.2,11.4c2.8,2.2,5.7,4.4,8.5,6.5c6-14.9,15.6-27.8,27.6-38.5c-2.4-2.4-4.8-4.8-7.1-7.1
				c-10.6,9.7-20.5,19.2-29.1,30.7c3.6,2.1,7.2,4.2,10.9,6.4c2.9-5.6,6-11.1,9.3-16.5c1.2-1.9,7.3-15,9.8-14.5
				C198.9,493.8,201.8,488.4,198,486.8L198,486.8z"/>
		</g>
	</g>
	<g>
		<g>
			<path class="st2" d="M67.6,593.2c1.6,13,10.4,24.9,20.4,32.8c5.5,4.4,11.5,7.3,18.3,9.1c3,0.8,6.2,1.4,8.8,3.2
				c3,2.1,4.7,4.5,8.5,5.5c7.5,1.8,10.6-9.3,3.2-11.6c-5.1-1.6-10.2-3.1-15.3-4.8c-4.5-1.4-6.6-3-8.5-7.3c-1.4-3.3-2.5-6.7-4.9-9.6
				c-1-1.3-2.2-2.4-3.6-3.3c-0.9-0.6-2-1.1-3-1.4c-0.8-0.3-1.8-1.3-1-0.1c-3.2,2.5-6.5,5-9.7,7.5c3.9,3.5,8.1,6.6,12.7,9.1
				c3.8,2.1,8.7,3.7,11.2,7.4c4.4,6.5,15.1,0.4,10.6-6.2c-6-9-17.6-12.4-25.9-19c-4.9-4-14.3,1.4-9.7,7.5c1.6,2.1,3,3.4,5.4,4.4
				c1.7,0.7,3,0.9,4.2,2.3c2.5,3.1,2.9,7.6,5.1,11c5.9,9.3,19.4,11,29.1,14.1c1.1-3.9,2.1-7.7,3.2-11.6c-2.2-0.5-4.2-3.4-6.2-4.7
				c-2.4-1.5-5.2-2.4-7.9-3.2c-5.8-1.7-11-3-16-6.7c-9.7-7.1-14.6-16.8-20.5-26.8C73.9,587.3,67,588.6,67.6,593.2L67.6,593.2z"/>
		</g>
	</g>
	<g>
		<g>
			<path class="st2" d="M305.8,499.4c13.7,5.1,29.5-0.4,39.8-10c4.8-4.5-3.2-11.5-7.5-5.8c-0.2,0.3-0.4,0.6-0.6,0.9
				c-0.6,0.8-0.5,2.2,0,3c0.2,0.3,0.4,0.6,0.6,0.9c0.2-1.9,0.5-3.8,0.7-5.8c-9.3,8-20.4,10.2-32.3,10.6
				C303,493.3,302.6,498.2,305.8,499.4L305.8,499.4z"/>
		</g>
	</g>
	<g>
		<g>
			<path class="st2" d="M482.9,446.7c7.6,8,14.8,15.2,19.2,25.5c4.7,11,6.1,23.3,8,35.1c2.1,12.2,4.8,24.5,4.1,37
				c-0.7,12.3-4.1,24.6-7.8,36.3c-1.7,5.3,6,10.3,9.8,5.7c6.6-8.1,11.2-17.3,13.4-27.6c1.5-7-9.2-10.1-10.8-3
				c-2.5,10.6-6.8,20.6-12.9,29.6c-3,4.4-6.4,8.5-10.1,12.3c-1.9,1.9-3.8,3.7-5.8,5.4c-1.3,1.1-4.2,4-5.5,4.5
				c-3.6,1.3-5.3,7-1.2,8.9c6.7,3.2,11.8-2.5,16.5-6.8c4.8-4.5,9-9.4,12.9-14.7c8-10.8,13.6-23.1,16.8-36.2c-3.6-1-7.2-2-10.8-3
				c-1.9,8.3-5.3,15.8-10.8,22.3c3.3,1.9,6.5,3.8,9.8,5.7c4.2-12.5,8-25.2,9.1-38.5c1.1-14.1-1.9-28.4-4.3-42.2
				c-2.3-12.9-4.2-25.9-9.7-37.8c-4.8-10.4-13.1-21.3-23.4-26.8C484.1,435.4,478.6,442.2,482.9,446.7L482.9,446.7z"/>
		</g>
	</g>
	<g>
		<g>
			<path class="st2" d="M102.9,686.8c-6.7,13.5-6.5,36.2,5.9,46.7c6.4,5.4,14.3,4.9,20.6-0.1c7.2-5.7,13.5-12.9,19.6-19.7
				c11.6-13.2,20.2-28.8,33.4-40.5c6.1-5.4,8.4-13.4,10.9-20.9c2.5-7.6,6.4-19.5,0.7-26.4c-2.1-2.5-6.5-1.6-8,1
				c-1.9,3.3-1.3,6.1-1.6,9.7c-0.3,3.6-1.3,7.2-2.3,10.7c-1.8,6-3.5,12.9-8.4,17.1c-10.1,8.9-17.3,19.8-25.6,30.2
				c-4.4,5.5-9,10.8-13.8,15.9c-2.5,2.7-5.1,5.3-7.7,7.8c-1.7,1.7-5,6.1-7.6,6.2c-4.7,0.1-6.9-9.9-7.5-13.1
				c-1.3-7.1-0.2-13.5,1.3-20.5C114,685.3,105.7,681,102.9,686.8L102.9,686.8z"/>
		</g>
	</g>
	<g>
		<g>
			<path class="st2" d="M456.1,701.2c1.8,8,8.8,13.3,15.3,17.5c5.5,3.5,13.9,11,20.9,8.8c2-0.6,3.9-2.2,4.4-4.4
				c0-0.2,0.1-0.4,0.1-0.7c1.2-5.6-5.9-10.8-10.2-6c3.8-0.4,4.8-0.9,2.9-1.5c-0.5-0.2-1-0.5-1.5-0.7c-1.2-0.6-2.4-1.4-3.5-2.1
				c-2.5-1.5-5-3.1-7.5-4.6c-5.2-3.2-8.8-6.5-13-10.8C460.6,693.2,455.1,696.8,456.1,701.2L456.1,701.2z"/>
		</g>
	</g>
	<g>
		<g>
			<path class="st2" d="M482,240.6c-1.7,3-0.9,5.4-0.8,8.7c0.2,4-0.1,8-0.1,12c-0.1,8.1-1,16.7,0,24.8c1.1,8.7,12.8,8.9,13.7,0
				c0.9-9-0.3-18.7-0.7-27.7c-0.3-6.3-0.1-17.5-7.6-19.5C484.8,238.3,482.9,239.1,482,240.6L482,240.6z"/>
		</g>
	</g>
	<g>
		<g>
			<path class="st2" d="M201.6,124.3c-3.3,2.4-4.1,7.2-5.4,10.9c-0.7,2-1.3,4.1-1.5,6.2c-0.1,0.9-0.5,2.5-0.2,3.4c0,0.3,0,0.7,0,1
				c2.4-1.2,2.8-1.9,1.3-1.9c-4.9-0.6-6.3,5.9-3.7,8.9c2.3,2.6,6.1,2.7,9,1c3.3-1.9,4.1-5.5,4.1-9c0-6,5.9-16.4-0.6-20.6
				C203.8,123.7,202.4,123.7,201.6,124.3L201.6,124.3z"/>
		</g>
	</g>
	<g>
		<g>
			<path class="st2" d="M169.9,76.7c-9.4,7.8-13.8,20.2-19.4,30.7c-5.5,10.3-12.4,19.9-17.2,30.5c-2.4,5.2-4.2,10.6-5.8,16.1
				c-1.8,6-4.3,11.1-7.4,16.5c-6.2,11-9.5,23-11.7,35.3c-1.6,8.9,12.1,12.7,13.6,3.8c2-12,3.7-23.5,9.8-34.2
				c5.8-10.2,7.8-21.5,12.6-32.1c4.7-10.1,11.1-19.3,16.2-29.2c2.7-5.4,4.5-11.1,7-16.6c2.5-5.6,6.2-10.3,9.4-15.5
				C179.9,77.6,173.6,73.6,169.9,76.7L169.9,76.7z"/>
		</g>
	</g>
</g>
</svg>