<?xml version="1.0" encoding="UTF-8"?>
<svg id="Layer_2" data-name="Layer 2" xmlns="http://www.w3.org/2000/svg" viewBox="0 0 81.62 55.38">
  <defs>
    <style>
      .cls-1 {
        fill: #231f20;
        stroke-width: 0px;
      }
    </style>
  </defs>
  <g id="Layer_1-2" data-name="Layer 1">
    <g>
      <path class="cls-1" d="m33.74,39.12c-.11,1.69-.06-.5.57.23.15.18.41.4.61.66.72.97.51,4.18-.45,4.9-1.62,1.22-3.57-2.26-3.44-3.97.11-1.39.82-2.77,1.76-3.77.2-.21,1.83-1.28,1.94-1.46.23-.08.46-.16.69-.24.66-.15.4-.52-.76-1.13.17-.09-.05,5.64-.14,5.5l2,.49c-.16-.24-.23-.5-.2-.78.49-.79.63-3.05.86-4.02l-6.89,3.91-.82-.49c.51,2.73,3.87,2.95,5.64,1.49,2.9-2.39,2.98-6.04,1.51-9.23-2.25-4.86-8.67-2.64-10.24,1.34-2.17,5.49-2.07,12.35,3.12,16.1,4.85,3.5,11.28,1.58,14.32-3.37,2.65-4.31,2.66-11.99.2-16.41-2.97-5.33-10.02-5.07-14.78-2.56-8.97,4.73-12.13,18.03-4.43,25.31,3.57,3.37,9.14,4.91,13.71,2.75s7.01-7.76,6.79-12.83c-.24-5.65-4.03-11.58-10.12-11.95-5.4-.32-10.69,3.88-10.38,9.52s8.55,5.74,8.93,0h0Z"/>
      <path class="cls-1" d="m26.15,37.71c-7.39,1.13-24.36-11.63-15.01-18.5s18.73,8.08,23.63,13.84c1.07,1.26,3.14-.09,2.7-1.57-2.47-8.46-6.51-16.12-15.01-19.86-6.92-3.04-15.83-1.6-20.16,5.07-9.26,14.28,11.51,33.58,25.42,24.75,2.06-1.31.65-4.07-1.57-3.73h0Z"/>
      <path class="cls-1" d="m39.32,35.75c8.26,7.72,24.93,7.09,34.19,1.37,11.68-7.22,9.44-20.08,1.47-29.24s-19.82-11.18-28.23-1.38c-5.53,6.45-17.63,22.66-10.21,31.08.82.93,2.59.7,3.15-.41,1.84-3.64,1.7-7.91,3.39-11.72,1.58-3.55,3.65-6.86,5.8-10.09,1.9-2.85,4.12-6.38,7.23-8.09,4.67-2.57,9.23.23,12.58,3.61,6.87,6.92,7.97,17.11-2.36,21.05-6.95,2.65-17.99,2.9-24.9.18-2.07-.81-3.63,2.23-2.12,3.64h0Z"/>
    </g>
  </g>
</svg>