<?xml version="1.0" encoding="UTF-8"?>
<svg id="Layer_2" data-name="Layer 2" xmlns="http://www.w3.org/2000/svg" viewBox="0 0 60 52.18">
  <defs>
    <style>
      .cls-1 {
        fill: #231f20;
        stroke-width: 0px;
      }
    </style>
  </defs>
  <g id="Layer_1-2" data-name="Layer 1">
    <g>
      <path class="cls-1" d="m17.59,41.73c1.59-.37,2.99-.95,4.48-1.6l-6.96-2.83c.4,1.19.63,2.27.43,3.53-.06.39-.18.85-.33,1.22l-.37.7c-.85,1.13-.44,1.01,1.21-.35l2.48.67c-2-.97.91.76.71.86.07-.03.02-2.44.02-2.49.01-.78.03-1.57.04-2.35,0-.47.02-.94.03-1.41.3-1.46-.29-1.44-1.76.05-.88,1.18-1.72,1.34-2.52.5l-.31-.27c-.1.06-.08,2.01-.09,2.06.08-.6-.2,1.35-.28,1.12-.4-1.16,3.55-.92,1.56-1.18l2.52.68c-1.23-.52.42.54.53.95.08.29-.1,1.39-.21,1.32.1.06,2.51-1.3,2.73-1.4l-7.36-5.66c-.2.59-1.58,1.07-2.02,1.65-.79,1.06-1.28,2.65-.81,3.95.86,2.38,3.03,3.75,5.58,3.17,2.72-.62,5.16-2.4,6.42-4.91,1.86-3.73-1.24-8.7-5.66-7.36s-8.86,4.82-8.62,9.99c.21,4.72,4.55,8.73,9.37,7.4,8.55-2.37,8.76-18.47.11-20.81-5.49-1.49-9.07,2.75-9.26,7.81-.15,3.97-.58,9.03,1.73,12.5,3.13,4.69,9.13,3.32,11.88-.9,2.56-3.93,3-9.19,1.41-13.55-1.12-3.05-4.03-4.2-6.96-2.83-1.11.52-2.06,1.07-3.07,1.78-3.94,2.82-1.67,9.15,3.37,7.99h0Z"/>
      <path class="cls-1" d="m12.06,36.38c-3.04-6.18-7.62-22.77-.61-27.69,9.05-6.35,6.06,18.32,6.56,21.48s5.21,2.75,5.97,0c2.62-9.58,2.46-36.18-14.74-28.94C-5,7.23-.79,30.73,8.52,39.1c1.93,1.74,4.67-.42,3.53-2.73h0Z"/>
      <path class="cls-1" d="m23.87,35.39c3.82-4.62,7.1-9.39,12.2-12.74,2.23-1.47,17.09-8.06,16.64-3.18-.24,2.57-4.33,5.74-6.1,7.32-2.54,2.27-5.33,4.2-8.3,5.87-5.64,3.16-12.22,4.39-17.73,7.71-1.21.73-.99,2.64.39,3.02,9.18,2.56,19.69-3.32,26.77-8.65,5.29-3.99,15-12.01,11.52-19.8s-16.12-3.26-21.5-.84c-7.8,3.51-15.94,10.44-17.36,19.28-.29,1.8,1.99,3.8,3.47,2.02h0Z"/>
    </g>
  </g>
</svg>