<?xml version="1.0" encoding="UTF-8"?>
<svg xmlns="http://www.w3.org/2000/svg" version="1.1" xmlns:xlink="http://www.w3.org/1999/xlink" viewBox="0 0 152.99 92.76">
  <!-- Generator: Adobe Illustrator 29.5.1, SVG Export Plug-In . SVG Version: 2.1.0 Build 141)  -->
  <defs>
    <style>
      .st0 {
        clip-path: url(#clippath-6);
      }

      .st1 {
        clip-path: url(#clippath-4);
      }

      .st2 {
        fill: #231f20;
      }

      .st3 {
        font-family: TeXGyrePagellaX-Regular, 'TeXGyrePagellaX Regular';
      }

      .st3, .st4, .st5, .st6 {
        font-size: 10.91px;
      }

      .st7, .st8 {
        fill: none;
      }

      .st9 {
        clip-path: url(#clippath-1);
      }

      .st4 {
        font-family: NewPXMI, NewPXMI;
      }

      .st10 {
        clip-path: url(#clippath-5);
      }

      .st11 {
        clip-path: url(#clippath-3);
      }

      .st5 {
        font-family: pxsys, pxsys;
      }

      .st12 {
        fill: #f6f086;
        stroke-width: .5px;
      }

      .st12, .st8 {
        stroke: #231f20;
        stroke-miterlimit: 10;
      }

      .st6 {
        font-family: pxmiaX, pxmiaX;
      }

      .st13 {
        clip-path: url(#clippath-2);
      }

      .st14 {
        clip-path: url(#clippath);
      }

      .st15 {
        opacity: .7;
      }
    </style>
    <clipPath id="clippath">
      <rect class="st7" x="12.87" y="9.91" width="8.68" height="9.69"/>
    </clipPath>
    <clipPath id="clippath-1">
      <rect class="st7" x="41.68" y="9.91" width="11.07" height="9.69"/>
    </clipPath>
    <clipPath id="clippath-2">
      <rect class="st7" x="72.87" y="9.91" width="8.68" height="9.69"/>
    </clipPath>
    <clipPath id="clippath-3">
      <rect class="st7" x="102.87" y="9.91" width="8.68" height="9.69"/>
    </clipPath>
    <clipPath id="clippath-4">
      <rect class="st7" x="131.68" y="9.91" width="11.07" height="9.69"/>
    </clipPath>
    <clipPath id="clippath-5">
      <rect class="st7" x="36.77" y="78.7" width="77.99" height="12.57"/>
    </clipPath>
    <clipPath id="clippath-6">
      <rect class="st7" x="8.41" y="30.3" width="132.9" height="21.42"/>
    </clipPath>
  </defs>
  <g id="Layer_3">
    <g class="st15">
      <g>
        <line class="st8" x1="74.86" y1="43.14" x2="74.86" y2="71.17"/>
        <path class="st2" d="M74.86,75.7c-.79-2.13-2.14-4.77-3.57-6.41l3.57,1.29,3.57-1.29c-1.43,1.64-2.78,4.28-3.57,6.41Z"/>
      </g>
    </g>
  </g>
  <g id="Layer_2">
    <g>
      <g>
        <circle class="st12" cx="16.27" cy="15.57" r="11.13"/>
        <circle class="st12" cx="16.98" cy="14.86" r="10.84"/>
      </g>
      <g id="LaTeX2AI">
        <g class="st14">
          <text class="st3" transform="translate(13.87 18.55)"><tspan x="0" y="0">T</tspan></text>
        </g>
      </g>
    </g>
    <g>
      <g>
        <circle class="st12" cx="46.27" cy="15.57" r="11.13"/>
        <circle class="st12" cx="46.98" cy="14.86" r="10.84"/>
      </g>
      <g id="LaTeX2AI1" data-name="LaTeX2AI">
        <g class="st9">
          <text class="st3" transform="translate(42.67 18.55)"><tspan x="0" y="0">H</tspan></text>
        </g>
      </g>
    </g>
    <g>
      <g>
        <circle class="st12" cx="76.27" cy="15.57" r="11.13"/>
        <circle class="st12" cx="76.98" cy="14.86" r="10.84"/>
      </g>
      <g id="LaTeX2AI2" data-name="LaTeX2AI">
        <g class="st13">
          <text class="st3" transform="translate(73.87 18.55)"><tspan x="0" y="0">T</tspan></text>
        </g>
      </g>
    </g>
    <g>
      <g>
        <circle class="st12" cx="106.27" cy="15.57" r="11.13"/>
        <circle class="st12" cx="106.98" cy="14.86" r="10.84"/>
      </g>
      <g id="LaTeX2AI3" data-name="LaTeX2AI">
        <g class="st11">
          <text class="st3" transform="translate(103.87 18.55)"><tspan x="0" y="0">T</tspan></text>
        </g>
      </g>
    </g>
    <g>
      <g>
        <circle class="st12" cx="136.27" cy="15.57" r="11.13"/>
        <circle class="st12" cx="136.98" cy="14.86" r="10.84"/>
      </g>
      <g id="LaTeX2AI4" data-name="LaTeX2AI">
        <g class="st1">
          <text class="st3" transform="translate(132.67 18.55)"><tspan x="0" y="0">H</tspan></text>
        </g>
      </g>
    </g>
    <g id="LaTeX2AI5" data-name="LaTeX2AI">
      <g class="st10">
        <path d="M41.75,84.83c-.32,0-.53-.05-.94-.25l-.02-.34c.4.15.62.21.86.21.96,0,1.75-.96,1.75-2.14,0-1.01-.53-1.49-1.65-1.49-.21,0-.38.02-.77.09-.03.14-.07.25-.08.31-.05.21-.1.44-.1.44l-.89,5.31c-.03.21-.04.28-.04.38,0,.23.11.32.39.33l.71.03-.03.31c-.5-.02-1-.03-1.52-.03-.48,0-.96.01-1.44.03l.04-.31.45-.03c.44-.03.46-.07.63-1.06l.81-4.73c.05-.34.1-.68.1-.83,0-.2-.12-.28-.38-.29l-.6-.02.03-.31c.6.02,1.2.03,1.81.03.5,0,1-.03,1.51-.03.95,0,1.99.55,1.99,1.65,0,1.48-1.2,2.76-2.61,2.76Z"/>
        <text class="st5" transform="translate(45.08 87.97)"><tspan x="0" y="0">(</tspan></text>
        <text class="st3" transform="translate(51.58 87.97)"><tspan x="0" y="0">heads</tspan></text>
        <text class="st5" transform="translate(82.63 87.97)"><tspan x="0" y="0">)</tspan></text>
        <text class="st6" transform="translate(89.44 87.97)"><tspan x="0" y="0">=</tspan></text>
        <text class="st3" transform="translate(99.76 87.97)"><tspan x="0" y="0">0</tspan></text>
        <text class="st4" transform="translate(105.39 87.97)"><tspan x="0" y="0">.</tspan></text>
        <text class="st3" transform="translate(108.31 87.97)"><tspan x="0" y="0">4</tspan></text>
      </g>
    </g>
    <g id="LaTeX2AI6" data-name="LaTeX2AI">
      <g class="st0">
        <path d="M16.6,37.42c-3.93,0-6.1-.79-7.14-2.73-.02-.05-.11-.23-.11-.33,0-.05.02-.07.06-.07.09,0,.22.2.3.3,1.28,1.72,4.12,1.8,6.24,1.8h.67v1.03h-.01Z"/>
        <path d="M16.34,37.42v-1.03h2.41v1.03h-2.41ZM18.04,37.42v-1.03h2.41v1.03h-2.41ZM19.73,37.42v-1.03h2.41v1.03h-2.41ZM21.43,37.42v-1.03h2.41v1.03h-2.41ZM23.11,37.42v-1.03h2.41v1.03h-2.41ZM24.81,37.42v-1.03h2.41v1.03h-2.41ZM26.51,37.42v-1.03h2.41v1.03h-2.41ZM28.2,37.42v-1.03h2.41v1.03h-2.41ZM29.9,37.42v-1.03h2.41v1.03h-2.41ZM31.6,37.42v-1.03h2.41v1.03h-2.41ZM33.29,37.42v-1.03h2.41v1.03h-2.41ZM34.99,37.42v-1.03h2.41v1.03h-2.41ZM36.68,37.42v-1.03h2.41v1.03h-2.41ZM38.38,37.42v-1.03h2.41v1.03h-2.41ZM40.08,37.42v-1.03h2.41v1.03h-2.41ZM41.77,37.42v-1.03h2.41v1.03h-2.41ZM43.47,37.42v-1.03h2.41v1.03h-2.41ZM45.17,37.42v-1.03h2.41v1.03h-2.41ZM46.86,37.42v-1.03h2.41v1.03h-2.41ZM48.56,37.42v-1.03h2.41v1.03h-2.41ZM50.25,37.42v-1.03h2.41v1.03h-2.41ZM51.95,37.42v-1.03h2.41v1.03h-2.41ZM53.65,37.42v-1.03h2.41v1.03h-2.41ZM55.33,37.42v-1.03h2.41v1.03h-2.41ZM57.03,37.42v-1.03h2.41v1.03h-2.41ZM58.73,37.42v-1.03h2.41v1.03h-2.41ZM60.42,37.42v-1.03h2.41v1.03h-2.41ZM62.12,37.42v-1.03h2.41v1.03h-2.41ZM63.81,37.42v-1.03h2.41v1.03h-2.41ZM65.51,37.42v-1.03h2.41v1.03h-2.41Z"/>
        <path d="M74.86,39.52c-.09,0-.22-.2-.3-.3-1.28-1.72-4.12-1.8-6.24-1.8h-.67v-1.03h.01c3.93,0,6.1.79,7.14,2.73.02.05.11.23.11.33,0,.05-.02.07-.06.07ZM81.4,37.42c-2.11,0-4.96.08-6.24,1.8-.08.1-.21.3-.3.3-.03,0-.06-.02-.06-.07,0-.1.09-.29.11-.33,1.03-1.94,3.21-2.73,7.14-2.73h.01v1.03h-.67Z"/>
        <path d="M81.79,37.42v-1.03h2.41v1.03h-2.41ZM83.49,37.42v-1.03h2.41v1.03h-2.41ZM85.18,37.42v-1.03h2.41v1.03h-2.41ZM86.88,37.42v-1.03h2.41v1.03h-2.41ZM88.58,37.42v-1.03h2.41v1.03h-2.41ZM90.27,37.42v-1.03h2.41v1.03h-2.41ZM91.97,37.42v-1.03h2.41v1.03h-2.41ZM93.66,37.42v-1.03h2.41v1.03h-2.41ZM95.36,37.42v-1.03h2.41v1.03h-2.41ZM97.06,37.42v-1.03h2.41v1.03h-2.41ZM98.75,37.42v-1.03h2.41v1.03h-2.41ZM100.45,37.42v-1.03h2.41v1.03h-2.41ZM102.15,37.42v-1.03h2.41v1.03h-2.41ZM103.83,37.42v-1.03h2.41v1.03h-2.41ZM105.53,37.42v-1.03h2.41v1.03h-2.41ZM107.22,37.42v-1.03h2.41v1.03h-2.41ZM108.92,37.42v-1.03h2.41v1.03h-2.41ZM110.62,37.42v-1.03h2.41v1.03h-2.41ZM112.31,37.42v-1.03h2.41v1.03h-2.41ZM114.01,37.42v-1.03h2.41v1.03h-2.41ZM115.71,37.42v-1.03h2.41v1.03h-2.41ZM117.4,37.42v-1.03h2.41v1.03h-2.41ZM119.1,37.42v-1.03h2.41v1.03h-2.41ZM120.79,37.42v-1.03h2.41v1.03h-2.41ZM122.49,37.42v-1.03h2.41v1.03h-2.41ZM124.19,37.42v-1.03h2.41v1.03h-2.41ZM125.88,37.42v-1.03h2.41v1.03h-2.41ZM127.58,37.42v-1.03h2.41v1.03h-2.41ZM129.27,37.42v-1.03h2.41v1.03h-2.41ZM130.97,37.42v-1.03h2.41v1.03h-2.41Z"/>
        <path d="M140.26,34.68c-1.03,1.94-3.21,2.73-7.14,2.73h-.01v-1.03h.67c2.11,0,4.96-.08,6.24-1.8.08-.1.21-.3.3-.3.03,0,.06.02.06.07,0,.1-.09.29-.11.33Z"/>
      </g>
    </g>
  </g>
</svg>