<?xml version="1.0" encoding="utf-8"?>
<!-- Generator: Adobe Illustrator 27.9.6, SVG Export Plug-In . SVG Version: 9.03 Build 54986)  -->
<svg version="1.1" xmlns="http://www.w3.org/2000/svg" xmlns:xlink="http://www.w3.org/1999/xlink" x="0px" y="0px"
	 viewBox="0 0 595.3 841.9" style="enable-background:new 0 0 595.3 841.9;" xml:space="preserve">
<style type="text/css">
	.st0{display:none;}
	.st1{fill:#4735ea;}
	.st2{fill:#3e2ecb;}
	.st3{filter:url(#Adobe_OpacityMaskFilter);}
	.st4{filter:url(#Adobe_OpacityMaskFilter_00000007393910079183337420000011161154156659359387_);}
	.st5{mask:url(#SVGID_1_);}
	.st6{opacity:0.5;}
	.st7{fill:#BE1E2D;}
</style>
<g id="Raster" class="st0">
	
		<image style="display:inline;overflow:visible;" width="902" height="721" xlink:href="CA8A5CA9.jpg"  transform="matrix(0.6655 0 0 0.6655 -2.5 160.1788)">
	</image>
</g>
<g id="Background_00000079466879686554787450000008118172538642423425_">
	<path class="st1" d="M236,220.6c-12,11.3-22.9,26.8-33.7,24.1c-3.1-0.8-9.5-3.9-12.5-5.3c-8.5-4.1-9.6-5.7-13.5-6.3
		c-5.8-0.9-10.5,1.7-16.4,4.8c-9.1,4.9-14.6,11.1-18.3,15.4c-8,9.3-11.3,17.4-12.1,19.3c-2.2,5.7-3.4,8.6-2.9,12.1
		c1.3,9.8,11.9,10.8,12.5,18.8c0.5,5.6-4.5,6.9-10.6,19.3c-2.4,4.8-3.5,8.4-5.3,14.5c-5.6,18.5-2.6,21.6-7.2,36.6
		c-3.8,12.3-6.4,12-9.2,24.1c-2.6,11.2-3.4,19.3-3.4,19.3c-0.8,8.4-0.5,13.2-1.9,13.5c-1.5,0.3-3.2-4.5-7.2-12.1
		c-6.1-11.4-10.4-19-18.3-23.1c-2-1-8.9-4.6-14.9-1.9c-5,2.2-7.7,7.9-9.6,17.8c-2.4,12.3-5.7,28.7,1.9,50.6
		C62,487.4,78.8,501.7,75,506c-1.4,1.6-4.9,0.9-7.7,0c-1.8-2.4-4.9-5.8-9.6-8.7c-4-2.4-9.2-5.6-13.5-3.9c-4.7,1.9-5.9,8.7-6.3,11.1
		c-1.3,7.4,0,18.1,14.9,39c10.7,15.1,20.2,28.3,38.6,40c10.4,6.6,26.7,17.1,49.2,16.9c11.3-0.1,21.6-0.2,29.9-7.2
		c10.8-9.2,11.5-24.5,23.1-27c1.5-0.3,2.7-0.4,6.3,0c18.3,1.8,33,7.6,33.3,7.7c7.5,3,21.9,3.7,50.6,5.3c26.9,1.5,40.4,2.2,51.6,0
		c20.7-4.1,36.2-12.9,39.5-8.2c2.5,3.5-5.5,9.6-2.9,16.9c1.9,5.3,7.5,5.8,22.7,12.5c17.6,7.8,17.9,10.5,25.6,11.6
		c6.9,0.9,13.3-0.3,27-6.3c18.8-8.2,37.4-19.2,59.8-36.6c16.6-13,22.8-19.7,24.6-21.7c12-13.3,26.4-34.5,21.2-41
		c-1.7-2.1-5.2-2.2-10.1-2.4c-10.1-0.3-15.8,3.9-16.9,2.4c-1.4-1.9,7.8-10,14.9-18.8c7.5-9.3,11.3-18.9,18.8-38.1
		c9.1-23.3,13.7-35.2,12.5-49.2c-0.6-7.3-1.8-22.4-11.6-27c-10.8-5-25.3,6.1-27.5,7.7c-13.4,10.2-17.1,25.1-20.2,24.1
		c-1.6-0.5-1.4-4.5-1.4-9.2c-0.1-17.6-3-32-5.3-39c-3.4-10.6-5.9-6.7-13-21.7c-10.2-21.6-7.3-34.7-19.3-43.4
		c-3.8-2.8-9.1-5.1-8.7-6.3c0.4-1.1,5.1,0.2,13.5-0.5c4.7-0.4,7.1-0.6,8.2-1.4c7.8-6.1-9.4-39.3-12.1-44.4
		c-14.6-28.1-24.2-30-27-30.4c-1.2-0.1-6.7-0.9-11.1,2.4c-6.2,4.6-6.2,14.4-6.3,17.8c-0.1,8.2,2.7,12.8,1,14
		c-0.8,0.5-2.9,0.7-10.6-6.3c-7-6.3-10.5-9.4-16.4-18.3c-13.2-20-44-26.7-56.4-29.4c-19.1-4.1-34.4-2.6-39.5-1.9
		C297.5,188.7,263.4,194.6,236,220.6z"/>
</g>
<g id="Shading">
	<g>
		<g>
			<path class="st2" d="M85.2,426c-3.9,18.2,7.4,36.1,11.5,53.4c3-1.3,6-2.5,9-3.8c-4.5-9.1-7.9-18.6-10.2-28.4
				c-2.1-8.9-2.1-18.2-6.9-26.2c-2.5-4.2-9.5-1.5-8,3.4c7.2,24,15.1,47.8,23.6,71.4c1.9,5.3,10.3,3.2,8.6-2.4
				c-6.5-22.1-11.4-44.6-14.7-67.4c-2.9,0.8-5.9,1.6-8.8,2.4c4.3,25.3,8.9,55.4,28,74.3c2.8,2.7,7.8-0.8,5.5-4.3
				c-7.2-11-12.8-21.9-16.6-34.6c-3.8-12.4-6-25.1-8.1-37.9c-1-5.8-9.6-3.3-8.8,2.4c3.2,22.8,8.2,45.3,14.9,67.4
				c2.9-0.8,5.8-1.6,8.6-2.4c-8.7-23.5-16.6-47.4-23.8-71.4c-2.7,1.1-5.4,2.3-8,3.4c1.9,3.9,2.3,8.8,2.9,13.1c0.7,5,1.6,10,2.9,14.9
				c2.4,9.5,6,18.6,10.4,27.3c2.6,5.1,10.4,1.5,9-3.8c-2.1-8.4-5.4-16.4-8.3-24.5c-2.9-8.3-4.7-16.5-5.6-25.2
				C92,423.2,86.1,421.6,85.2,426L85.2,426z"/>
		</g>
	</g>
	<g>
		<g>
			<path class="st2" d="M45.4,503.1c1.9-0.3,3.1-1,4.5-2.2c2.3-2.1,0.5-6.1-2.5-6.1C34.8,495,34,511.3,40.2,519
				c4.5,5.6,10.4,5.5,16.5,8.2c6,2.7,10.4,6.6,17.3,7.3c3.1,0.3,5.6-3.9,3.7-6.5c-3.4-4.5-7.2-8.4-11.7-11.8c-2-1.5-5-2.6-6.7-4.4
				c-2.4-2.5-2.8-8-3.7-11.2c-2.3,1.8-4.6,3.5-6.9,5.3c3.9,2,6.1,5.4,8.5,8.9c2.5,3.7,5.2,7,8.5,9.9c3.5,3.1,5.6,5.3,7.2,9.5
				c1.4,3.8,4.9,6.4,9,5.9c4.3-0.4,7.3-6.8,2.5-9.1c-8.7-4-13.6-15.4-18.7-23c-4.4-6.7-8.9-14.1-17.7-14.5c-6.4-0.2-6.4,9.8,0,9.9
				c3.7,0.1,6,4.4,7.8,7.1c2.6,3.8,5.2,7.7,7.8,11.6c4.5,6.7,8.5,13.4,15.9,17.3c0.8-3,1.6-6.1,2.5-9.1c0.3,0,0.7,1.4,0.2-0.5
				c-0.2-0.8-0.6-1.7-1-2.5c-0.9-1.8-2.1-3.4-3.4-4.9c-2.6-3-6-5.2-8.7-8.1c-5.3-5.7-8.1-13.2-15.6-16.6c-3.5-1.6-8.1,1.1-6.9,5.3
				c1.9,6.5,2.9,13.1,9,17c5.9,3.8,11,7.4,15.3,13.1c1-2.4,2-4.9,3-7.3c-3.8-0.4-7-2.8-10.2-4.7c-3.2-1.8-6.2-2.9-9.8-3.8
				c-3.8-0.9-6.7-2.2-8.6-5.9c-1.3-2.6-2.5-9.4,2-9.8c-0.8-2-1.7-4.1-2.5-6.1c-0.8,0.8-1.5,1.6-2.3,2.4
				C40.2,500.4,42.8,503.4,45.4,503.1L45.4,503.1z"/>
		</g>
	</g>
	<g>
		<g>
			<path class="st2" d="M384.7,579.8c7-2.4,13.9-5,20.9-7.7c-1.2-2.7-2.3-5.5-3.5-8.2c-10.5,5.4-20.1,12.2-29.2,19.8
				c-4.3,3.6,1.2,9.7,5.7,7.4c10.5-5.3,20.9-10.7,31.3-16.2c-1.6-2.7-3.2-5.4-4.8-8.1c-10.3,6.5-20.4,13.4-26.8,24
				c-2.5,4,2.4,8.8,6.4,6.4c10.8-6.5,21.6-12.9,32.5-19.4c-1.9-2.4-3.8-4.9-5.7-7.3c-5.7,5.6-11.8,10.5-18.6,14.7
				c-5,3.1-0.6,10.2,4.6,7.8c9.6-4.4,19-8.9,28-14.5c7.5-4.7,14.7-10.1,18.9-18.1c2.2-4.3-2.3-8.9-6.6-6.6
				c-12.1,6.4-24,13.4-36.1,19.8c1.4,2.4,2.9,4.9,4.3,7.3c12.9-7.7,26-15,38.9-22.8c4.5-2.7,1.6-10.7-3.7-8.7
				c-6.9,2.5-13.5,6-20.5,8.7c-6.9,2.7-13.8,5.3-20.9,7.2c-5,1.3-2.9,9,2.1,7.7c20.1-5.1,41.7-12.9,58.6-25.4
				c4.8-3.5,0.8-10.7-4.7-8c-8.2,4-15.8,9.2-23,14.8c-4,3.1,1.2,9.8,5.4,7.1c14.1-9.2,27.2-20.3,37.6-33.6c3.5-4.5-2.4-11-6.5-6.5
				c-10.8,12-22.3,23.1-35.6,32.3c1.8,2.4,3.6,4.7,5.4,7.1c6.3-5.2,12-10.7,20.2-12.7c-1.2-2.8-2.4-5.7-3.6-8.5
				c-9,4.8-17.6,10.2-26.9,14.5c-9.5,4.3-19.1,8.1-29.1,11.2c1,2.4,2.1,4.9,3.1,7.3c6.6-3.1,13.7-5.5,20.6-7.9
				c6.7-2.3,13.6-3.8,20.2-6.2c-1.2-2.9-2.5-5.8-3.7-8.7c-12.9,7.8-25.5,15.9-38.3,23.7c-4.7,2.8-0.5,9.9,4.3,7.3
				c12.1-6.5,24.6-12.4,36.7-18.8c-2.2-2.2-4.4-4.4-6.6-6.6c-4,7.7-11.2,12.2-18.4,16.5c-8,4.8-16.2,9.4-24.8,13.2
				c1.5,2.6,3,5.2,4.6,7.8c7.5-4.5,14.4-9.7,20.6-15.9c3.8-3.7-1.1-10.1-5.7-7.3c-10.8,6.4-21.7,12.9-32.5,19.3
				c2.1,2.1,4.3,4.3,6.4,6.4c5.6-9.1,14.6-15,23.5-20.6c5.1-3.3,0.6-11-4.8-8.1c-10.4,5.5-20.8,10.9-31.3,16.2
				c1.9,2.5,3.8,5,5.7,7.4c8.4-7,17.6-13.1,27.1-18.7c5.1-3,0.6-10.1-4.5-7.7c-6.7,3.1-13.4,6.3-20,9.7
				C378.8,575.3,381.1,581,384.7,579.8L384.7,579.8z"/>
		</g>
	</g>
	<g>
		<g>
			<path class="st2" d="M510.2,515.9c-8.7-0.4-16.3,8.6-21.6,14.5c-5.7,6.3-13.5,14.4-14.3,23.2c-0.2,2.1,1.7,4.4,3.7,4.9
				c7.5,1.7,13.4-2.1,18.7-7c6.2-5.7,11.7-12.1,17.1-18.5c1.8-2.1,2.1-6.4-1-7.7c-5-2.2-8.5,1.1-12.6,3.9
				c-4.9,3.3-9.7,6.8-14.4,10.4c1.9,2.5,3.8,4.9,5.7,7.4c5.9-4.6,11.8-9.1,17.6-13.7c4.3-3.4-1.3-10.5-5.9-7.6
				c-9,5.6-14,15.4-22.8,21.2c1.9,2.5,3.8,5,5.8,7.5c3.5-3,7.1-5.9,10.9-8.6c-1.9-2.5-3.9-5-5.8-7.5c-4.6,5.6-9.9,10.4-16.1,14.2
				c-5.2,3.2-0.5,11.5,4.8,8.3c7.4-4.4,14.6-9.1,21.5-14.2c4.9-3.7,0.8-10.8-4.8-8.2c-9.2,4.2-16.3,11.4-23.2,18.7
				c2.2,2.2,4.5,4.5,6.7,6.7c4.9-5.2,12.2-7.4,17.5-12.1c5.8-5.1,9.6-11.8,16.1-16.2c4.2-2.8,0.3-9.6-4-6.8
				c-6.5,4.2-11.9,10.1-17.7,15.2c-5.8,5.1-13.4,7.5-18.6,13.3c-4.1,4.5,2.6,11.2,6.7,6.7c5.9-6.4,12-13.3,20.2-16.7
				c-1.2-2.9-2.5-5.8-3.7-8.7c-7.1,4.9-14.2,9.7-21.5,14.2c1.6,2.8,3.2,5.5,4.8,8.3c6.9-4.2,12.9-9.5,18-15.7
				c3.1-3.8-1-10.9-5.8-7.5c-4.4,3.2-8.7,6.5-12.8,10.1c-4,3.5,1.3,10.5,5.8,7.5c8.8-5.8,13.9-15.6,22.9-21.1
				c-2-2.5-3.9-5.1-5.9-7.6c-5.8,4.6-11.6,9.3-17.4,14c-4.7,3.8,1.9,10.3,6.6,6.6c3.2-2.5,6.5-4.8,9.9-7c2.9-1.9,6.3-4.8,9.6-6
				c-1.3-0.2-2.5-0.3-3.8-0.5c0.2,0.1,0.5,0.2,0.7,0.3c-0.3-2.6-0.7-5.2-1-7.7c-4,4.5-8,9-12.2,13.2c-3,3-9,10.4-13.9,9.5
				c1.2,1.6,2.5,3.3,3.7,4.9c0.2-3.2,3.3-6.6,5-9.2c1.9-2.8,4-5.5,6.2-8.1c3.9-4.5,9.2-11.9,15.5-12.8
				C515.8,522.9,514.4,516.1,510.2,515.9L510.2,515.9z"/>
		</g>
	</g>
	<defs>
		<filter id="Adobe_OpacityMaskFilter" filterUnits="userSpaceOnUse" x="105.6" y="387.8" width="403.5" height="191.3">
			<feFlood  style="flood-color:white;flood-opacity:1" result="back"/>
			<feBlend  in="SourceGraphic" in2="back" mode="normal"/>
		</filter>
	</defs>
	<mask maskUnits="userSpaceOnUse" x="105.6" y="387.8" width="403.5" height="191.3" id="SVGID_1_">
		<g class="st3">
			<g>
				<defs>
					
						<filter id="Adobe_OpacityMaskFilter_00000016057364677867830180000014121379036189061259_" filterUnits="userSpaceOnUse" x="-14.7" y="201.7" width="644.1" height="363.5">
						<feFlood  style="flood-color:white;flood-opacity:1" result="back"/>
						<feBlend  in="SourceGraphic" in2="back" mode="normal"/>
					</filter>
				</defs>
				<mask maskUnits="userSpaceOnUse" x="-14.7" y="201.7" width="644.1" height="363.5" id="SVGID_1_">
					<g style="filter:url(#Adobe_OpacityMaskFilter_00000016057364677867830180000014121379036189061259_);">
						
							<image style="overflow:visible;" width="2701" height="1532" xlink:href="CA8A5CAE.jpg"  transform="matrix(0.24 0 0 0.24 -16.7372 199.7098)">
						</image>
					</g>
				</mask>
				<g class="st5">
					<path d="M621.3,265c-40.4,7.8-81.7,2.8-122-3.4c-39.8-6.1-79.2-11.8-119.5-13.6c-40.8-1.8-81.7-1.5-122.5-4
						c-41-2.5-81.7-8-122.2-14.9c-46-7.8-91.7-16.9-137.2-27.3c-3.9-0.9-6.8,1.7-7.7,4.7c-3,1-5.5,3.9-4.6,8
						c7.4,36.3,16,72.2,26,107.8c9.4,33.7,18.6,68.8,35.1,99.7c14.9,27.9,35.5,52.3,57.6,74.3c22,21.9,45.9,44,74.2,56.9
						c31.3,14.2,65.3,12.2,98.7,11c34.9-1.3,70-4,104.1-12.5c58.3-14.7,111.8-47.4,153.6-91.6c48.3-51.2,80.4-117.3,94.5-187
						C630.3,268,626.3,264.1,621.3,265z"/>
				</g>
			</g>
		</g>
	</mask>
	<path class="st2" d="M508.9,394.4c-0.1-2.7-1.9-5.6-4.7-6.1c-12.4-2.6-23.2,5.7-34.7,9c-11.7,3.4-23.9,4.7-36,4.9
		c-25.3,0.5-50.4-2.9-75.7-2.4c-26.7,0.5-53.3,3.2-80.1,2.3c-27.3-0.9-54.5-3.6-81.7-0.6c-25.4,2.8-56.9,10-78.7-7.9
		c-6.2-5.1-15,2.9-10.6,8.4c-0.1,39.4,7.9,80.2,29.9,113.4c20.3,30.6,52.9,54,89.8,58.7c9.9,1.3,19.4-0.3,29.2,0.1
		c5.1,0.2,9.8,2.1,14.7,3.3c5.6,1.3,11.4,1.8,17.2,1.6c11.1-0.4,22-3.1,33-4.8c10.9-1.8,21.8-0.9,32.7-1.6
		c22.2-1.4,42.3-10.6,62.1-20c9.9-4.7,19.9-9.3,28.9-15.5c8.3-5.7,15.6-12.6,22.2-20.2C495.6,483.3,511.1,438.9,508.9,394.4z"/>
</g>
<g id="Blush">
	<g class="st6">
		<g>
			<path class="st7" d="M233.4,248.3c4.7-3,23.3-12.7,25.8-3.8c2.6,9.2-6.7,16-14.3,18.3c-2,0.6-4.1,1.1-6.2,1.5
				c-0.8,0.1-2.7,0.7-3.5,0.5c-3.7-0.7-0.2,0.6-1.3-0.7c-1.1-1.4-1.3-5.6-1.6-7.4c-0.5-3-0.8-6.2-0.3-9.2c0.6-3.9,2.5-8,6-10
				c4.1-2.3,8.1,0.2,10.9,3.4c2.6,2.9,4.7,6.7,6.3,10.2c1.4,3,1.8,5.5-0.8,7.7c-1.9,1.6-5.2,2.5-7.5,3.3c-3.7,1.2-11.2,4.1-14.7,1.8
				c-3.8-2.5-2.6-10-0.4-13.4c2.2-3.4,6.7-5.7,10.8-4.6c4.5,1.2,7.4,6.6,5,10.7c-1.9,3.3-5.8,4.9-9.2,5.9c-1.2,0.4-3.2,1.2-4.6,1.1
				c-3.5-0.3-3.7-4.3-3.6-7c0.3-9.5,8.8-15.7,17.4-17.3c1.5-0.3,4.9-1.1,6.5-0.5c1.6,0.6,1.5,1.6,1.2,3.4c-0.8,4.3-4.1,8.4-7.3,11.3
				c-3.1,2.7-6.8,4.7-10.8,5.7c-1.2,0.3-4.8,1.4-6,0.7c-0.7-0.4-0.9-3.8-1-4.9c-0.4-3.6-0.6-8.1,2-11.1c2.6-3,9.8-5,13.7-4.6
				c3.5,0.3,4.9,3.8,4.6,7c-0.4,3.9-4,6.4-7.5,7.5c-1.9,0.6-3.8,0.9-5.8,1c-2.8,0.1-2.7,0-2.7-2.6c0.1-5.3,0.5-10.7,4.4-14.8
				c2.2-2.4,7.8-5.9,9-1.2c1.1,4.2,1.6,9.8,0.7,14.1c-1,4.2-3.9,7.5-8.2,8.6c-1.2,0.3-4.8,0.9-5.7-0.1c-0.7-0.8,0.1-4.8,0.3-5.9
				c0.6-3.9,1.9-8.1,4.7-11.1c1.5-1.5,3.6-3,5.8-2.9c4,0.2,3.6,4.1,2.1,6.8c-0.8,1.5-3.6,5.7-5.3,6.2c-3.6,1-2.7-4.2-2.1-5.9
				c1.4-3.7,7.8-9.6,10.2-3.6c1.5,3.8,0.1,10-4.6,10.9c-4.8,0.9-8-4-4.7-7.7c1.6-1.8,4-2.8,6.4-3.1c2.4-0.3,8.3,0.8,5.8,4.7
				c-1.6,2.5-6.8,2.5-8.7,0.5c-0.7-0.7-1.4-2-1.2-3c0.5-3.3,3.8-1.5,5.4-0.3c0.4,0.9,0.7,1.8,1.1,2.7c0-0.3-0.1-0.6-0.1-0.8
				c-0.6-4.8-7.5-5.1-7.7,0c0.1-2.1,4.3,0.2,4.6,0.5c2.1,2.3,5.2-0.6,4.1-3.2c-3.8-8.3-16.7-6.4-15.7,3.4c0.9,9.3,14.6,8.3,14.7-0.8
				c-2.6,0-5.1,0-7.7,0c1.1,8.5,12.4,5.7,12.6-2c0.2-8-8.7-11.9-14.9-7.3c-7,5.3-4,15.8,3.5,18.9c7.1,2.9,18.1-1,18.6-9.6
				c1.2-20.1-37-12.3-29.7,6.9c2.7,7.1,12.3,10.3,18.9,6.6c6.9-3.8,9.4-12.8,6.9-19.9c-6.9-19.5-34.4,0.9-24.5,16.8
				c6,9.6,16,0.7,20.2-5.6c4.4-6.6,4.3-17.5-4.8-20.1c-8.7-2.4-16.5,5-19.6,12.3c-2.4,5.7-5.7,18.1,1,22.1
				c7.1,4.2,17.2,0.6,22.1-5.3c5.8-7,5.4-18.4,3-26.7c-2.6-9.4-12.9-8.9-19.6-4c-8,5.9-10.3,16.5-9.1,26c1.1,9.3,12.2,8.4,19.1,6
				c7.6-2.6,13.6-9,12.9-17.5c-0.7-7.9-6.7-13.8-14.8-12.9c-8.8,0.9-18.6,4.1-21.4,13.5c-1.8,6-2,20,5.1,22.9c7.5,3,18.2-1.8,24-6.3
				c6.3-4.9,13.1-13.7,11.9-22.2c-1.5-9.9-12.8-8.7-20.1-6.7c-8.8,2.5-16.4,8.5-19.5,17.2c-2.4,6.7-2.3,19.1,6,21.9
				c6.9,2.3,18-2.8,22.7-7.8c5.9-6.3,5.1-15.8-1.1-21.6c-6.4-6-16.2-5.2-22.7,0.2c-7.1,5.9-8.6,16.4-5,24.7c4.1,9.5,16.8,6,24.5,3.5
				c9.2-2.9,19.1-7.9,15.7-19.2c-2.3-7.7-7.9-17.1-15.2-21.1c-8.2-4.4-17.5-0.9-22.6,6.4c-6.1,8.7-4.3,20.7-1.4,30.3
				c1.4,4.5,4,7.7,9,7.7c4.9,0,10.4-1.4,15-3.1c8.6-3.1,16.1-8.9,19-17.9c2.6-8.2,0.1-19.8-9.6-21.4c-9.9-1.6-21.4,3.2-29.2,9
				C224.7,244.1,228.6,251.4,233.4,248.3L233.4,248.3z"/>
		</g>
	</g>
	<g class="st6">
		<g>
			<path class="st7" d="M390.4,268.3c4.7-3,23.3-12.7,25.8-3.8c2.6,9.2-6.7,16-14.3,18.3c-2,0.6-4.1,1.1-6.2,1.5
				c-0.8,0.1-2.7,0.7-3.5,0.5c-3.7-0.7-0.2,0.6-1.3-0.7c-1.1-1.4-1.3-5.6-1.6-7.4c-0.5-3-0.8-6.2-0.3-9.2c0.6-3.9,2.5-8,6-10
				c4.1-2.3,8.1,0.2,10.9,3.4c2.6,2.9,4.7,6.7,6.3,10.2c1.4,3,1.8,5.5-0.8,7.7c-1.9,1.6-5.2,2.5-7.5,3.3c-3.7,1.2-11.2,4.1-14.7,1.8
				c-3.8-2.5-2.6-10-0.4-13.4c2.2-3.4,6.7-5.7,10.8-4.6c4.5,1.2,7.4,6.6,5,10.7c-1.9,3.3-5.8,4.9-9.2,5.9c-1.2,0.4-3.2,1.2-4.6,1.1
				c-3.5-0.3-3.7-4.3-3.6-7c0.3-9.5,8.8-15.7,17.4-17.3c1.5-0.3,4.9-1.1,6.5-0.5c1.6,0.6,1.5,1.6,1.2,3.4c-0.8,4.3-4.1,8.4-7.3,11.3
				c-3.1,2.7-6.8,4.7-10.8,5.7c-1.2,0.3-4.8,1.4-6,0.7c-0.7-0.4-0.9-3.8-1-4.9c-0.4-3.6-0.6-8.1,2-11.1c2.6-3,9.8-5,13.7-4.6
				c3.5,0.3,4.9,3.8,4.6,7c-0.4,3.9-4,6.4-7.5,7.5c-1.9,0.6-3.8,0.9-5.8,1c-2.8,0.1-2.7,0-2.7-2.6c0.1-5.3,0.5-10.7,4.4-14.8
				c2.2-2.4,7.8-5.9,9-1.2c1.1,4.2,1.6,9.8,0.7,14.1c-1,4.2-3.9,7.5-8.2,8.6c-1.2,0.3-4.8,0.9-5.7-0.1c-0.7-0.8,0.1-4.8,0.3-5.9
				c0.6-3.9,1.9-8.1,4.7-11.1c1.5-1.5,3.6-3,5.8-2.9c4,0.2,3.6,4.1,2.1,6.8c-0.8,1.5-3.6,5.7-5.3,6.2c-3.6,1-2.7-4.2-2.1-5.9
				c1.4-3.7,7.8-9.6,10.2-3.6c1.5,3.8,0.1,10-4.6,10.9c-4.8,0.9-8-4-4.7-7.7c1.6-1.8,4-2.8,6.4-3.1c2.4-0.3,8.3,0.8,5.8,4.7
				c-1.6,2.5-6.8,2.5-8.7,0.5c-0.7-0.7-1.4-2-1.2-3c0.5-3.3,3.8-1.5,5.4-0.3c0.4,0.9,0.7,1.8,1.1,2.7c0-0.3-0.1-0.6-0.1-0.8
				c-0.6-4.8-7.5-5.1-7.7,0c0.1-2.1,4.3,0.2,4.6,0.5c2.1,2.3,5.2-0.6,4.1-3.2c-3.8-8.3-16.7-6.4-15.7,3.4c0.9,9.3,14.6,8.3,14.7-0.8
				c-2.6,0-5.1,0-7.7,0c1.1,8.5,12.4,5.7,12.6-2c0.2-8-8.7-11.9-14.9-7.3c-7,5.3-4,15.8,3.5,18.9c7.1,2.9,18.1-1,18.6-9.6
				c1.2-20.1-37-12.3-29.7,6.9c2.7,7.1,12.3,10.3,18.9,6.6c6.9-3.8,9.4-12.8,6.9-19.9c-6.9-19.5-34.4,0.9-24.5,16.8
				c6,9.6,16,0.7,20.2-5.6c4.4-6.6,4.3-17.5-4.8-20.1c-8.7-2.4-16.5,5-19.6,12.3c-2.4,5.7-5.7,18.1,1,22.1
				c7.1,4.2,17.2,0.6,22.1-5.3c5.8-7,5.4-18.4,3-26.7c-2.6-9.4-12.9-8.9-19.6-4c-8,5.9-10.3,16.5-9.1,26c1.1,9.3,12.2,8.4,19.1,6
				c7.6-2.6,13.6-9,12.9-17.5c-0.7-7.9-6.7-13.8-14.8-12.9c-8.8,0.9-18.6,4.1-21.4,13.5c-1.8,6-2,20,5.1,22.9c7.5,3,18.2-1.8,24-6.3
				c6.3-4.9,13.1-13.7,11.9-22.2c-1.5-9.9-12.8-8.7-20.1-6.7c-8.8,2.5-16.4,8.5-19.5,17.2c-2.4,6.7-2.3,19.1,6,21.9
				c6.9,2.3,18-2.8,22.7-7.8c5.9-6.3,5.1-15.8-1.1-21.6c-6.4-6-16.2-5.2-22.7,0.2c-7.1,5.9-8.6,16.4-5,24.7c4.1,9.5,16.8,6,24.5,3.5
				c9.2-2.9,19.1-7.9,15.7-19.2c-2.3-7.7-7.9-17.1-15.2-21.1c-8.2-4.4-17.5-0.9-22.6,6.4c-6.1,8.7-4.3,20.7-1.4,30.3
				c1.4,4.5,4,7.7,9,7.7c4.9,0,10.4-1.4,15-3.1c8.6-3.1,16.1-8.9,19-17.9c2.6-8.2,0.1-19.8-9.6-21.4c-9.9-1.6-21.4,3.2-29.2,9
				C381.7,264.1,385.6,271.4,390.4,268.3L390.4,268.3z"/>
		</g>
	</g>
</g>
<g id="Eyes">
	<g>
		<g>
			<path d="M260.5,271.1c2-3.1,6.1-8.4,9.8-9.3c-1.4-0.2-2.9-0.4-4.3-0.6c-0.9-1.2-1.2-1.1-0.8,0.3c0,0.8-0.1,1.6-0.4,2.4
				c-0.4,1.3-1.2,2.4-2.1,3.4c-1.8,2-4.4,3.7-7,4.1c1,0,2.1,0,3.1,0c2.8,0.5,0.7,2.7,1.3,0.4c0.3-1.1,0-2.4,0.2-3.5
				c0.2-1,0.5-2,0.9-2.8c0.3-0.5,1.3-1.4,1.4-1.8c0.2-0.1,0.4-0.2,0.5-0.3c-0.9-0.6-1.8-1.2-2.6-1.8c-0.1,0.1-0.2,1.1-0.3,1.3
				c-0.9,1-1.3,2.1-2.9,2.1c1,0.3,2.1,0.6,3.1,0.8c-0.2-0.1-0.4-0.2-0.7-0.3c0.9,1.2,1.9,2.4,2.8,3.7c-1.1-2.8,1.8-5.5,3.8-7.1
				c5.4-4.4-1.5-12.1-7.1-9.2c-5.5,2.8-8.8,8.5-9.2,14.5c-0.5,7.3,5,11.4,11.9,9.1c5.8-2,10.4-7.7,10.7-13.9c0.3-6.4-4.3-12.1-11-11
				c-6,0.9-10.3,6-12.1,11.6c-1.8,5.4-2.4,13.8,2.4,17.9c5.3,4.5,12.5,0.1,17-3.5c4.7-3.9,7.9-9.7,7.8-16
				c-0.2-7.7-5.7-13.3-13.1-8.8c-6.2,3.8-9.6,9.3-9.7,16.5C253.7,273,258.7,274,260.5,271.1L260.5,271.1z"/>
		</g>
	</g>
	<g>
		<g>
			<path d="M368.5,275.5c0.7,0.8-0.1-0.3,1.1-0.6c0.6-0.2,1.3-0.4,1.9-0.2c2.4,0.7,1.6,3,0.7,4.6c-1.2,2.1-2.7,4.1-4.3,6
				c-0.4,0.5-0.9,1-1.3,1.5c0.9,0.7,1.8,1.3,2.7,2c-0.4,0.5,0.1-3.8,0-3.6c0.6-1.7,2.1-3,3.5-4c1.4-1,2.7-0.4,0.9-1.9
				c-2.2-1.9-0.8,1.1-0.7,2.2c0.1,0.8,0.1,1.5,0,2.3c-0.2,1.8,0.4,1.2,1.9-1.7c-0.3,0-0.6,0-0.8,0c0.9,2.8,1.5,3.6,2,2.3
				c0.9-0.6,1.3-4.3,1.4-5.2c0.3-2.2-2.1-3.9-4-4c-6.4-0.3-11.1,6.2-9.4,12.2c1.8,6.5,10.4,8.5,15.9,5.8c6.6-3.2,6.1-12.5,4.2-18.5
				c-2.3-7.5-9.8-8.3-16-5.1c-5.6,2.9-10.1,8.1-11.1,14.4c-0.9,6,1.7,14,8.9,14c6.8,0,10.9-6.5,14.2-11.7c3.4-5.2,4.9-11.3,1-16.7
				c-3.8-5.4-11.6-6.7-17-3c-5.3,3.6-5.7,11.2-0.5,15C367.6,284.4,371.2,278.7,368.5,275.5L368.5,275.5z"/>
		</g>
	</g>
</g>
<g id="Outline">
	<g>
		<g>
			<path d="M196.7,237.1c-3.5-4.6-11.5-6.6-17-7.3c-6.3-0.8-12.6,0.3-18.2,3.2c-11.7,5.9-23.3,14.3-31.3,24.8
				c-7.5,9.9-11.7,23.2-8.3,35.5c1.5,5.4,4.8,10.8,10.5,12.3c5.5,1.4,10.6-1.2,12.6-6.4c1.9-5-5.3-8.7-8.8-5.1
				c-2.4,2.5-3.8-4.6-4.1-6.1c-0.7-4.2-0.1-8.5,1.2-12.6c2.5-8,7.8-14.5,14-20c6.2-5.5,13.3-10.5,20.2-15c4.7-3,9-2.7,14.3-1.3
				c4.1,1.1,8.2,3.6,12.6,3.4C197.4,242.3,198.4,239.3,196.7,237.1L196.7,237.1z"/>
		</g>
	</g>
	<g>
		<g>
			<path d="M333.8,182.8c-42.6-7.3-80.8,18.5-114.4,41.2c-33.5,22.7-66.4,48.2-88.2,82.9c-5.5,8.7-10.1,17.9-13.5,27.6
				c-3.7,10.3-5.1,21.1-7.1,31.8c-2,11-6.2,21.1-9.5,31.7c-3.3,10.5-4.5,21.5-3.7,32.5c1.5,21.6,7.9,43.7,15.6,63.9
				c3.7,9.7,8.7,18.2,15.6,26c7,7.9,13.6,16.3,20.6,24.2c13.5,15.3,32.6,24,51.8,29.7c21.8,6.5,44.6,9.7,67.2,11.5
				c44.3,3.6,90.1,0,132.1-15.3c37.4-13.6,71.4-36.8,93.5-70.4c10.7-16.3,17.9-34.2,20.9-53.5c3.3-21.7,3.9-45.2,1-67
				c-2.9-21.9-12.9-42.4-22-62.4c-9.1-19.9-20.6-37.8-35-54.2c-14.1-16.1-29.6-31-45.5-45.3c-15.3-13.7-32.3-26.2-52.6-31.1
				c-9.8-2.4-19.9-2.6-29.8-0.7c-5.2,1-2.9,8.5,2.1,7.8c42.1-6,73.3,30.2,99.6,57.2c14.4,14.7,28.3,30,38.9,47.8
				c10.4,17.6,18.8,36.9,26.1,55.9c7.8,20.3,8.9,40.9,8.4,62.5c-0.5,19.6-4.1,38.3-12.3,56.2c-15.3,33.5-43.2,59.1-75.8,75.4
				C381.1,567,339.6,574,299,574.1c-21.5,0.1-43.2-1.5-64.3-5.3c-19.2-3.4-39.2-7.9-56.5-17.4c-17.2-9.4-28.1-25.6-40.7-40
				c-13.1-14.8-17.8-35.4-22.6-54.1c-5.4-20.7-7-40.6-0.2-61.2c3.3-10.1,6.2-19.8,7.9-30.3c1.6-9.8,3.2-19.6,6.6-29
				c12.9-35.9,42.5-64.1,72.2-86.6c15.5-11.7,31.6-22.8,48.1-33c16.8-10.5,34.8-20,54.4-23.9c9.5-1.9,19-2.3,28.6-1.1
				C337.7,192.8,339,183.7,333.8,182.8L333.8,182.8z"/>
		</g>
	</g>
	<g>
		<g>
			<path d="M433.9,233.7c0.4-4.4,1.5-9.1,2.8-13.3c0.7-2.2,1.7-4.7,3.2-6.5c2.2-2.7,3.5,0,5.7,1.9c7.5,6.4,14.8,13.3,20.2,21.6
				c4.9,7.6,8.5,16,10.7,24.8c1.1,4.6,1.8,9.3,2.1,14.1c0.1,1.6-0.6,5,0.1,6.4c0.3,0.5,0.5,1.7,0.8,0.1c-0.2,0.8-1.1-1.6,0,0.2
				c-3.2-5.2-12.2-1.9-10.2,4.3c2,6.1,8.3,9.3,14.5,7.1c7.1-2.6,7.5-10,7.4-16.5c-0.2-15.4-4.9-30.9-13-44
				c-3.9-6.3-8.6-12.2-14-17.3c-3.2-3.1-6.9-5.7-10.5-8.2c-3.2-2.2-7-5.9-10.9-6.6c-7.2-1.2-11.8,6.7-14,12.4
				c-2.8,7.2-2.7,14.1,1.6,20.5C431.4,236.4,433.7,235.6,433.9,233.7L433.9,233.7z"/>
		</g>
	</g>
	<g>
		<g>
			<path d="M102.2,426.5c-1.5-7.5-6.1-14.4-10.3-20.6c-4.3-6.4-9-13.6-16.1-17.3c-6.5-3.4-14.4-3.7-20.6,0.7
				c-6.1,4.4-9.7,12.1-11.8,19.1c-4.9,15.9-2.4,33.1,2.1,48.8c4.6,15.8,9.6,31.9,17.1,46.5c4.1,8,9.2,15.2,15.2,21.9
				c3.1,3.4,4.6,6.4,6.2,10.8c1.5,4.1,3.6,8.2,8.1,9.2c2.3,0.5,5.3-0.7,5.8-3.3c1.3-7-2.8-16.3-7-21.8c-5.1-6.7-10.6-12.5-14.7-20
				c-8.5-15.4-13.7-32.9-18.3-49.8c-4.1-15.3-7.8-35.7,3.1-49.3c10-12.5,28,22.9,31.2,29.3C95.3,436.3,103.4,432.2,102.2,426.5
				L102.2,426.5z"/>
		</g>
	</g>
	<g>
		<g>
			<path d="M521.5,404.6c4.4-6.2,8.6-12.1,13.8-17.6c4.4-4.6,10.4-11.4,17.5-10.3c6.5,1,8.7,9.8,10.4,15.1
				c2.5,7.7,3.2,15.2,1.5,23.1c-3,14.7-9.2,29.4-16.1,42.7c-6.7,13.1-15.7,24.5-24.4,36.3c-4.8,6.6-9,13.4-12.4,20.8
				c-1.5,3.1-2.9,6.3-4.7,9.3c-1.9,3.1-4.5,5.4-7.1,8.1c-3.2,3.4-0.1,10.3,4.9,8.4c7.2-2.8,11.3-9.4,14.7-16
				c3.9-7.5,7.7-14.9,12.6-21.8c10.6-14.9,21.8-28.7,29.5-45.4c7.4-15.8,15.7-34.6,15.2-52.4c-0.2-8.9-3.4-17.7-7.1-25.7
				c-3.2-6.9-8.5-12.4-16.4-13.2c-9.1-0.9-16.8,4.5-23,10.5c-7.2,7-14.3,15.1-18,24.5C510.4,406.3,518.6,408.8,521.5,404.6
				L521.5,404.6z"/>
		</g>
	</g>
	<g>
		<g>
			<path d="M527,514c2.9-2.2,6.2-4.1,9.7-5.1c1.3-0.4,8.6-1.8,9.4-0.5c0.4,0.6-1.2,4.9-1.5,5.8c-0.6,1.9-1.2,3.8-2,5.6
				c-1.7,4.1-3.8,8-6.2,11.6c-9.7,14.7-25.3,25.7-38.6,37c-13.5,11.5-28.9,19.3-44.7,27.2c-7.7,3.9-15.5,8.3-23.8,10.7
				c-3.9,1.1-8.2,2-12.1,0.4c-3.5-1.4-6.4-4-9.5-6.1c-7.5-5.1-16.1-5.4-24.5-8.2c-3-1-7-2.8-8.4-5.9c-0.6-1.4-0.9-5.8,1.5-6.1
				c6.6-0.7,6.9-10.9,0-10.5c-8.6,0.4-14.4,8.3-13.7,16.7c0.8,9.5,9.7,15.3,18,17.9c4.7,1.5,9.6,2,14.2,3.5
				c5.2,1.8,9.2,5.6,13.9,8.2c10.6,5.8,21.8,2.8,32.3-1.8c10.8-4.7,21.2-10.4,31.6-15.9c10.4-5.6,20.7-11.3,29.7-19
				c9.4-8.1,18.2-17.1,27.2-25.6c8-7.5,15.2-15.7,19.9-25.7c3.5-7.4,11.9-24.6,0.1-28.7c-9.7-3.3-22.3,0.6-28.6,8.6
				C518,512.4,522.9,517.3,527,514L527,514z"/>
		</g>
	</g>
	<g>
		<g>
			<path d="M70,508.9c0.5-4.2-3.1-7.5-5.7-10.4c-3-3.4-6.4-6.9-10.6-8.9c-7.3-3.5-15.8-2-19.9,5.4c-9.1,16.3,5.8,36.6,14.6,49.4
				c11.3,16.5,23.2,33.3,39.8,44.9c16.4,11.5,35.9,14.8,55.6,14.8c10.5,0,21.9,0,30.8-6.3c8.9-6.2,17.1-15.5,22.2-25
				c3.9-7.3-6.1-12.6-10.8-6.3c-4.8,6.4-9.5,12.8-15,18.6c-2.3,2.5-4.6,5.2-7.3,7.3c-3.6,2.9-8.5,2.9-12.9,3.1
				c-16.3,0.7-33-0.8-47.8-8.2c-14.4-7.2-25.8-19.3-35.5-31.9c-5-6.5-9.7-13.2-14.3-20c-4.6-6.6-9.3-13.5-11.7-21.3
				c-1.6-5.3-3.2-19.1,6.5-16.9c4.3,1,8.1,4.8,11.3,7.5c2.8,2.4,5.8,5.5,9.8,5C69.7,509.7,70,509.4,70,508.9L70,508.9z"/>
		</g>
	</g>
</g>
</svg>
