<?xml version="1.0" encoding="utf-8"?>
<!-- Generator: Adobe Illustrator 27.9.6, SVG Export Plug-In . SVG Version: 9.03 Build 54986)  -->
<svg version="1.1" xmlns="http://www.w3.org/2000/svg" xmlns:xlink="http://www.w3.org/1999/xlink" x="0px" y="0px"
	 viewBox="0 0 595.3 841.9" style="enable-background:new 0 0 595.3 841.9;" xml:space="preserve">
<style type="text/css">
	.st1{fill:#739056;}
</style>
<g id="Background_00000079466879686554787450000008118172538642423425_">
	<path class="st1" d="M236,220.6c-12,11.3-22.9,26.8-33.7,24.1c-3.1-0.8-9.5-3.9-12.5-5.3c-8.5-4.1-9.6-5.7-13.5-6.3
		c-5.8-0.9-10.5,1.7-16.4,4.8c-9.1,4.9-14.6,11.1-18.3,15.4c-8,9.3-11.3,17.4-12.1,19.3c-2.2,5.7-3.4,8.6-2.9,12.1
		c1.3,9.8,11.9,10.8,12.5,18.8c0.5,5.6-4.5,6.9-10.6,19.3c-2.4,4.8-3.5,8.4-5.3,14.5c-5.6,18.5-2.6,21.6-7.2,36.6
		c-3.8,12.3-6.4,12-9.2,24.1c-2.6,11.2-3.4,19.3-3.4,19.3c-0.8,8.4-0.5,13.2-1.9,13.5c-1.5,0.3-3.2-4.5-7.2-12.1
		c-6.1-11.4-10.4-19-18.3-23.1c-2-1-8.9-4.6-14.9-1.9c-5,2.2-7.7,7.9-9.6,17.8c-2.4,12.3-5.7,28.7,1.9,50.6
		C62,487.4,78.8,501.7,75,506c-1.4,1.6-4.9,0.9-7.7,0c-1.8-2.4-4.9-5.8-9.6-8.7c-4-2.4-9.2-5.6-13.5-3.9c-4.7,1.9-5.9,8.7-6.3,11.1
		c-1.3,7.4,0,18.1,14.9,39c10.7,15.1,20.2,28.3,38.6,40c10.4,6.6,26.7,17.1,49.2,16.9c11.3-0.1,21.6-0.2,29.9-7.2
		c10.8-9.2,11.5-24.5,23.1-27c1.5-0.3,2.7-0.4,6.3,0c18.3,1.8,33,7.6,33.3,7.7c7.5,3,21.9,3.7,50.6,5.3c26.9,1.5,40.4,2.2,51.6,0
		c20.7-4.1,36.2-12.9,39.5-8.2c2.5,3.5-5.5,9.6-2.9,16.9c1.9,5.3,7.5,5.8,22.7,12.5c17.6,7.8,17.9,10.5,25.6,11.6
		c6.9,0.9,13.3-0.3,27-6.3c18.8-8.2,37.4-19.2,59.8-36.6c16.6-13,22.8-19.7,24.6-21.7c12-13.3,26.4-34.5,21.2-41
		c-1.7-2.1-5.2-2.2-10.1-2.4c-10.1-0.3-15.8,3.9-16.9,2.4c-1.4-1.9,7.8-10,14.9-18.8c7.5-9.3,11.3-18.9,18.8-38.1
		c9.1-23.3,13.7-35.2,12.5-49.2c-0.6-7.3-1.8-22.4-11.6-27c-10.8-5-25.3,6.1-27.5,7.7c-13.4,10.2-17.1,25.1-20.2,24.1
		c-1.6-0.5-1.4-4.5-1.4-9.2c-0.1-17.6-3-32-5.3-39c-3.4-10.6-5.9-6.7-13-21.7c-10.2-21.6-7.3-34.7-19.3-43.4
		c-3.8-2.8-9.1-5.1-8.7-6.3c0.4-1.1,5.1,0.2,13.5-0.5c4.7-0.4,7.1-0.6,8.2-1.4c7.8-6.1-9.4-39.3-12.1-44.4
		c-14.6-28.1-24.2-30-27-30.4c-1.2-0.1-6.7-0.9-11.1,2.4c-6.2,4.6-6.2,14.4-6.3,17.8c-0.1,8.2,2.7,12.8,1,14
		c-0.8,0.5-2.9,0.7-10.6-6.3c-7-6.3-10.5-9.4-16.4-18.3c-13.2-20-44-26.7-56.4-29.4c-19.1-4.1-34.4-2.6-39.5-1.9
		C297.5,188.7,263.4,194.6,236,220.6z"/>
</g>
</svg>