<svg xmlns="http://www.w3.org/2000/svg" viewBox="0 0 200 140" width="200" height="140">
  <rect width="200" height="140" fill="#f8f9fa" rx="4"/>
  <!-- edges -->
  <line x1="60" y1="50" x2="100" y2="30" stroke="#aaa" stroke-width="1.5"/>
  <line x1="60" y1="50" x2="40" y2="90" stroke="#aaa" stroke-width="1.5"/>
  <line x1="60" y1="50" x2="100" y2="80" stroke="#aaa" stroke-width="1.5"/>
  <line x1="100" y1="30" x2="140" y2="50" stroke="#aaa" stroke-width="1.5"/>
  <line x1="140" y1="50" x2="160" y2="90" stroke="#aaa" stroke-width="1.5"/>
  <line x1="140" y1="50" x2="100" y2="80" stroke="#aaa" stroke-width="1.5"/>
  <line x1="100" y1="80" x2="100" y2="115" stroke="#aaa" stroke-width="1.5"/>
  <line x1="40" y1="90" x2="100" y2="115" stroke="#aaa" stroke-width="1.5"/>
  <line x1="160" y1="90" x2="100" y2="115" stroke="#aaa" stroke-width="1.5"/>
  <!-- nodes -->
  <circle cx="60" cy="50" r="10" fill="#4e79a7" stroke="#fff" stroke-width="1.5"/>
  <circle cx="100" cy="30" r="8" fill="#f28e2b" stroke="#fff" stroke-width="1.5"/>
  <circle cx="140" cy="50" r="10" fill="#4e79a7" stroke="#fff" stroke-width="1.5"/>
  <circle cx="40" cy="90" r="7" fill="#59a14f" stroke="#fff" stroke-width="1.5"/>
  <circle cx="100" cy="80" r="12" fill="#e15759" stroke="#fff" stroke-width="1.5"/>
  <circle cx="160" cy="90" r="7" fill="#59a14f" stroke="#fff" stroke-width="1.5"/>
  <circle cx="100" cy="115" r="9" fill="#76b7b2" stroke="#fff" stroke-width="1.5"/>
</svg>
