<?xml version="1.0" encoding="UTF-8" standalone="no"?>
<!-- Created with Inkscape (http://www.inkscape.org/) -->

<svg
   version="1.1"
   id="svg1"
   width="624"
   height="203.59599"
   viewBox="0 0 624 203.59599"
   sodipodi:docname="BT-curve.svg"
   inkscape:version="1.4.2 (ebf0e940, 2025-05-08)"
   xmlns:inkscape="http://www.inkscape.org/namespaces/inkscape"
   xmlns:sodipodi="http://sodipodi.sourceforge.net/DTD/sodipodi-0.dtd"
   xmlns="http://www.w3.org/2000/svg"
   xmlns:svg="http://www.w3.org/2000/svg">
  <defs
     id="defs1" />
  <sodipodi:namedview
     id="namedview1"
     pagecolor="#ffffff"
     bordercolor="#000000"
     borderopacity="0.25"
     inkscape:showpageshadow="2"
     inkscape:pageopacity="0.0"
     inkscape:pagecheckerboard="0"
     inkscape:deskcolor="#d1d1d1"
     inkscape:zoom="2.0432622"
     inkscape:cx="294.87161"
     inkscape:cy="125.04514"
     inkscape:window-width="1440"
     inkscape:window-height="900"
     inkscape:window-x="0"
     inkscape:window-y="0"
     inkscape:window-maximized="0"
     inkscape:current-layer="layer-MC3">
    <inkscape:page
       x="0"
       y="0"
       inkscape:label="1"
       id="page1"
       width="624"
       height="203.59599"
       margin="0 190.03867 0.63866669 193.468"
       bleed="0" />
  </sodipodi:namedview>
  <g
     id="layer-MC0"
     inkscape:groupmode="layer"
     inkscape:label="Layer 3" />
  <g
     id="layer-MC1"
     inkscape:groupmode="layer"
     inkscape:label="Layer 1" />
  <g
     id="layer-MC2"
     inkscape:groupmode="layer"
     inkscape:label="Layer 4" />
  <g
     id="layer-MC3"
     inkscape:groupmode="layer"
     inkscape:label="Layer 2">
    <path
       id="path1"
       d="m 3.6449219,-1.8983359 c 0,-0.5859375 -0.3398438,-0.9023438 -1.1601563,-1.0546875 l -0.46875,-0.09375 c -0.65625,-0.1171875 -0.8554687,-0.3046875 -0.8554687,-0.75 0,-0.5742188 0.4804687,-1.03125 1.1132812,-1.03125 0.4453125,0 0.8554688,0.1992187 1.03125,0.4921875 v 0.609375 h 0.2578125 c 0.035156,-0.3867188 0.082031,-0.6796875 0.1992188,-1.2421875 -0.421875,-0.1992188 -0.7265625,-0.2929688 -1.0898438,-0.2929688 -0.5625,0 -1.2304687,0.3164063 -1.75781248,0.8554688 -0.28125,0.2929687 -0.3984375,0.5625 -0.3984375,0.9609375 0,0.609375 0.33984375,0.9609375 1.05468748,1.1015625 l 0.6914063,0.1289062 c 0.4804687,0.082031 0.65625,0.2695313 0.65625,0.7148438 0,0.71484371 -0.5039063,1.18359371 -1.2773438,1.18359371 -0.3984375,0 -0.72656248,-0.1171875 -1.03124998,-0.38671875 V -1.6170859 H 0.34023437 c -0.0585938,0.5625 -0.1171875,0.93749996 -0.24609375,1.44140621 0.421875,0.2109375 0.78515625,0.29296875 1.17187498,0.29296875 0.5390625,0 1.03125,-0.19921875 1.59375,-0.6328125 0.5507813,-0.43359375 0.7851563,-0.83203126 0.7851563,-1.38281246 z m 0,0"
       style="fill:#000000;fill-opacity:1;fill-rule:nonzero;stroke:none"
       aria-label="ð‘ "
       transform="matrix(1.3333333,0,0,1.3333333,240.86667,197.10533)" />
    <path
       id="path2"
       d="m 1.9226125,-0.68082031 -0.082031,-0.140625 -0.2109375,0.140625 c -0.234375,0.15234375 -0.3984375,0.234375 -0.4804687,0.234375 -0.058594,0 -0.1054688,-0.0703125 -0.1054688,-0.1640625 0,-0.0703125 0.011719,-0.140625 0.058594,-0.31640625 L 1.711675,-3.3526953 c 0.035156,-0.1289063 0.046875,-0.2109375 0.046875,-0.28125 0,-0.140625 -0.058594,-0.2109375 -0.1992188,-0.2109375 -0.1757812,0 -0.4570312,0.1640625 -1.0664062,0.5976562 l -0.22265625,0.1523438 0.0585938,0.1640625 0.2578125,-0.1757813 c 0.22265625,-0.140625 0.3046875,-0.1757812 0.375,-0.1757812 0.0820311,0 0.14062505,0.070312 0.14062505,0.1640625 0,0.070312 -0.035156,0.234375 -0.070312,0.3515625 l -0.51562505,1.91015624 c -0.0820312,0.2578125 -0.10546875,0.45703125 -0.10546875,0.62109375 0,0.1875 0.0820313,0.3046875 0.234375,0.3046875 0.2109375,0 0.5039063,-0.17578125 1.2773432,-0.75 z m 0.1875,-4.65234379 c 0,-0.1875 -0.1289063,-0.328125 -0.2929688,-0.328125 -0.234375,0 -0.4570312,0.2695313 -0.4570312,0.5390625 0,0.1992188 0.1171875,0.328125 0.3164062,0.328125 0.2460938,0 0.4335938,-0.234375 0.4335938,-0.5390625 z m 0,0"
       style="fill:#000000;fill-opacity:1;fill-rule:nonzero;stroke:none"
       aria-label="ð‘–"
       transform="matrix(1.3333333,0,0,1.3333333,247.28027,199.28667)" />
    <g
       id="g2"
       aria-label="âˆ’ð‘ "
       transform="matrix(1.3333333,0,0,1.3333333,254.66147,197.10533)">
      <path
         id="path3"
         d="M 6.5849547,-2.6248984 V -3.2694297 H 0.71386094 v 0.6445313 z m 0,0"
         style="fill:#000000;fill-opacity:1;fill-rule:nonzero;stroke:none" />
      <path
         id="path4"
         d="m 13.692377,-1.8983359 c 0,-0.5859375 -0.339844,-0.9023438 -1.160157,-1.0546875 l -0.46875,-0.09375 c -0.65625,-0.1171875 -0.855468,-0.3046875 -0.855468,-0.75 0,-0.5742188 0.480468,-1.03125 1.113281,-1.03125 0.445312,0 0.855469,0.1992187 1.03125,0.4921875 v 0.609375 h 0.257812 c 0.03516,-0.3867188 0.08203,-0.6796875 0.199219,-1.2421875 -0.421875,-0.1992188 -0.726562,-0.2929688 -1.089844,-0.2929688 -0.5625,0 -1.230468,0.3164063 -1.757812,0.8554688 -0.28125,0.2929687 -0.398438,0.5625 -0.398438,0.9609375 0,0.609375 0.339844,0.9609375 1.054688,1.1015625 l 0.691406,0.1289062 c 0.480469,0.082031 0.65625,0.2695313 0.65625,0.7148438 0,0.71484371 -0.503906,1.18359371 -1.277344,1.18359371 -0.398437,0 -0.726562,-0.1171875 -1.03125,-0.38671875 V -1.6170859 h -0.269531 c -0.05859,0.5625 -0.117187,0.93749996 -0.246094,1.44140621 0.421875,0.2109375 0.785157,0.29296875 1.171875,0.29296875 0.539063,0 1.03125,-0.19921875 1.59375,-0.6328125 0.550782,-0.43359375 0.785157,-0.83203126 0.785157,-1.38281246 z m 0,0"
         style="fill:#000000;fill-opacity:1;fill-rule:nonzero;stroke:none" />
    </g>
    <path
       id="path5"
       d="m 1.7683594,-3.3526953 c 0.035156,-0.1289063 0.046875,-0.2460938 0.046875,-0.2929688 0,-0.1289062 -0.070312,-0.1992187 -0.1992188,-0.1992187 -0.1757812,0 -0.4570312,0.1640625 -1.06640622,0.5976562 l -0.22265625,0.1523438 0.0585938,0.1640625 0.24609375,-0.1757813 c 0.1171875,-0.046875 0.2578125,-0.1992187 0.37500002,-0.1992187 0.082031,0 0.1523438,0.082031 0.1523438,0.1875 0,0.1054687 -0.035156,0.2109375 -0.058594,0.3164062 L 0.30351563,1.1473047 c -0.09375,0.4101562 -0.234375,0.6914062 -0.375,0.6914062 -0.1171875,0 -0.24609375,-0.046875 -0.421875,-0.1523437 l -0.0703125,0.4570312 c 0.0820312,0.035156 0.1875,0.058594 0.3046875,0.058594 0.31640625,0 0.62109375,-0.328125 0.9140625,-0.9492188 0.1640625,-0.37499996 0.28125,-0.76171871 0.50390627,-1.81640621 z m 0.3398437,-1.9804688 c 0,-0.1875 -0.1171875,-0.328125 -0.28125,-0.328125 -0.2460937,0 -0.46875,0.2695313 -0.46875,0.5390625 0,0.1992188 0.1171875,0.328125 0.3164063,0.328125 0.2578125,0 0.4335937,-0.234375 0.4335937,-0.5390625 z m 0,0"
       style="fill:#000000;fill-opacity:1;fill-rule:nonzero;stroke:none"
       aria-label="ð‘—"
       transform="matrix(1.3333333,0,0,1.3333333,274.9,199.28667)" />
    <path
       id="path6"
       d="M 3.2798453,2.1211953 C 2.4946891,1.1485391 2.2134391,0.62119531 1.9321891,-0.36317969 1.6978141,-1.1483359 1.5923453,-1.9803672 1.5923453,-2.9061484 c 0,-0.9023438 0.09375,-1.6757813 0.3164063,-2.390625 0.2695312,-0.9023438 0.5742187,-1.4179688 1.3710937,-2.34375 l -0.1992187,-0.28125 c -1.1367188,1.0195312 -1.5820313,1.6171875 -2.0039063,2.6835937 -0.28124999,0.7265625 -0.42187499,1.5117188 -0.42187499,2.3320313 0,1.171875 0.26953125,2.27343746 0.79687499,3.25781246 0.375,0.72656254 0.7265625,1.14843754 1.6289063,1.99218754 z m 4.6171875,-3.7382812 c 0,-0.3398438 -0.082031,-0.5859375 -0.3046875,-0.8085938 -0.28125,-0.28125 -0.6445312,-0.3984375 -1.6054687,-0.5859375 -0.890625,-0.1757812 -1.1835938,-0.3867187 -1.1835938,-0.890625 0,-0.5507812 0.375,-0.8554687 1.0429688,-0.8554687 0.7265625,0 1.2890625,0.3867187 1.2890625,0.890625 v 0.2578125 h 0.3046875 c 0.011719,-0.6328125 0.023437,-0.9023438 0.058594,-1.2304688 -0.5859375,-0.1992187 -0.9726562,-0.28125 -1.4179687,-0.28125 -1.265625,0 -2.0507813,0.609375 -2.0507813,1.5820313 0,0.5273437 0.2460938,0.9023437 0.75,1.125 0.2929688,0.1289062 0.8671875,0.3046875 1.6171875,0.46875 0.4804688,0.1171875 0.6914063,0.3398437 0.6914063,0.7617187 0,0.58593751 -0.5390625,0.99609376 -1.3242188,0.99609376 -0.7851562,0 -1.359375,-0.375 -1.359375,-0.92578126 v -0.4453125 h -0.328125 c 0,0.75000001 -0.035156,1.07812501 -0.1171875,1.51171876 0.5625,0.1875 0.9960938,0.26953125 1.4882813,0.26953125 1.4296875,0 2.4492187,-0.7734375 2.4492184,-1.83984371 z m 4.8720702,1.11328121 -0.117187,-0.1640625 c -0.398438,0.22265625 -0.75,0.31640625 -1.148438,0.31640625 -1.207031,0 -2.0039061,-0.93749996 -2.0039061,-2.37890626 0,-1.1601562 0.5507811,-1.8164062 1.5234371,-1.8164062 0.480469,0 1.007813,0.2109375 1.207032,0.4921875 l 0.07031,0.65625 h 0.304688 c 0,-0.4921875 0.05859,-0.9492188 0.164062,-1.3359375 -0.445312,-0.2578125 -0.820312,-0.3867188 -1.265625,-0.3867188 -0.527344,0 -1.136719,0.2109375 -1.7929686,0.6210938 -0.7617188,0.4804687 -1.171875,1.2539062 -1.171875,2.203125 0,1.47656246 1.0429687,2.51953121 2.4960936,2.51953121 0.574219,0 1.394531,-0.2109375 1.5,-0.375 z m 5.947266,-2.08593751 c 0,-1.4648437 -1.078125,-2.53125 -2.566406,-2.53125 -1.59375,0 -2.695313,1.125 -2.695313,2.7539063 0,1.53515621 0.972656,2.58984371 2.378906,2.58984371 1.675782,0 2.882813,-1.171875 2.882813,-2.81250001 z m -1.019531,0.4101563 c 0,1.25390621 -0.5625,2.03906246 -1.441407,2.03906246 -1.066406,0 -1.792968,-1.04296876 -1.792968,-2.60156246 0,-1.3007813 0.527343,-2.015625 1.488281,-2.015625 1.007812,0 1.746094,1.0898437 1.746094,2.578125 z m 5.440429,-2.8125 c -0.117187,-0.082031 -0.316406,-0.1289063 -0.515625,-0.1289063 -0.316406,0 -0.667969,0.1757813 -0.902344,0.4570313 l -0.609375,0.7148437 v -1.125 l -0.09375,-0.046875 c -0.5625,0.234375 -1.125,0.3867188 -1.710937,0.4570313 v 0.3046875 h 0.410156 c 0.433594,0 0.480469,0.070312 0.480469,0.796875 v 2.4492187 c 0,0.69140626 -0.03516,0.76171876 -0.410156,0.78515626 l -0.492188,0.0351563 v 0.328125 c 0.445313,-0.0234375 0.890625,-0.0351562475 1.335938,-0.0351562475 0.527343,0 1.042968,0.0117187475 1.558593,0.0351562475 v -0.328125 l -0.5625,-0.0351563 c -0.492187,-0.0351563 -0.515625,-0.0703125 -0.515625,-0.78515626 v -1.875 c 0,-0.65625 0.433594,-1.2070312 0.972657,-1.2070312 0.328125,0 0.550781,0.1640625 0.726562,0.5039062 h 0.234375 z m 5.118164,1.9453125 c 0,-1.2539063 -0.808593,-2.0742188 -2.027343,-2.0742188 -0.410157,0 -0.878907,0.140625 -1.324219,0.4101563 -0.890625,0.515625 -1.253906,1.1835937 -1.253906,2.3203125 0,0.6914062 0.152343,1.2773437 0.457031,1.68749996 0.433594,0.5859375 1.171875,0.92578125 1.992187,0.92578125 0.398438,0 0.808594,-0.09375 1.253907,-0.29296875 0.292968,-0.1171875 0.527343,-0.2578125 0.5625,-0.328125 l 0.222656,-0.36328125 -0.140625,-0.10546875 c -0.703125,0.41015625 -0.949219,0.50390625 -1.417969,0.50390625 -0.714844,0 -1.300781,-0.31640625 -1.605469,-0.84375001 -0.210937,-0.3632812 -0.28125,-0.6679687 -0.304687,-1.3007812 h 1.59375 c 0.75,0 1.21875,-0.035156 1.96875,-0.1523438 0.01172,-0.1523437 0.02344,-0.2578125 0.02344,-0.3867187 z m -0.972656,0.1289062 -1.21875,0.035156 c -0.503906,0 -0.785156,-0.011719 -1.371094,-0.058594 0,-0.515625 0.03516,-0.7617187 0.175782,-1.0429687 0.234375,-0.4804688 0.703125,-0.7734375 1.230468,-0.7734375 0.351563,0 0.644532,0.140625 0.832032,0.4335937 0.246093,0.3632813 0.351562,0.6796875 0.351562,1.4062505 z m 10.353516,2.95312501 v -0.328125 l -0.503907,-0.0351563 c -0.363281,-0.0234375 -0.398437,-0.09375 -0.398437,-0.78515621 v -6.7148437 l -0.105469,-0.09375 c -0.480469,0.1875 -0.832031,0.2695312 -1.699219,0.4101562 v 0.3046875 h 0.609375 c 0.199219,0 0.28125,0.1171875 0.28125,0.4453125 v 1.9921875 c -0.621093,-0.2578125 -0.925781,-0.3515625 -1.300781,-0.3515625 -0.292969,0 -0.5625,0.070312 -0.832031,0.2109375 l -0.960938,0.5039063 c -0.621093,0.328125 -1.019531,1.1249999 -1.019531,2.0507811 0,0.8671876 0.292969,1.59375006 0.820313,2.02734381 0.375,0.31640625 0.890625,0.45703125 1.59375,0.45703125 0.222656,0 0.46875,-0.046875 0.527343,-0.08203125 l 1.207032,-1.01953125 -0.04687,1.0078125 c 0.28125,-0.0234375 0.550781,-0.0351562475 0.832031,-0.0351562475 0.328125,0 0.667969,0.0117187475 0.996094,0.0351562475 z M 35.819884,-2.4139609 c 0,0.7148437 -0.02344,0.8203125 -0.164062,1.0664062 -0.304688,0.51562501 -0.84375,0.85546876 -1.359375,0.85546876 -0.960938,0 -1.640625,-0.92578126 -1.640625,-2.22656246 0,-1.1835938 0.585937,-1.8867188 1.570312,-1.8867188 0.410157,0 0.84375,0.140625 1.230469,0.4101563 0.222656,0.1523437 0.363281,0.2929687 0.363281,0.375 z m 5.118164,2.44921871 v -0.328125 l -0.503906,-0.0351563 c -0.363281,-0.0234375 -0.398437,-0.09375 -0.398437,-0.78515631 v -3.9609375 l -0.09375,-0.046875 c -0.5625,0.234375 -1.125,0.3867188 -1.710938,0.4570313 v 0.3046875 h 0.410156 c 0.433594,0 0.480469,0.070312 0.480469,0.796875 v 2.4492187 c 0,0.69140631 -0.03516,0.76171881 -0.410156,0.78515631 l -0.492188,0.0351563 v 0.328125 c 0.457032,-0.0234375 0.902344,-0.0351562475 1.359375,-0.0351562475 0.457032,0 0.902344,0.0117187475 1.359375,0.0351562475 z M 40.117736,-6.9491172 c 0,-0.3164062 -0.210938,-0.5507812 -0.527344,-0.5507812 -0.339844,0 -0.5625,0.2226562 -0.5625,0.5507812 0,0.328125 0.222656,0.5507813 0.550781,0.5507813 0.328125,0 0.539063,-0.2226563 0.539063,-0.5507813 z m 7.921875,-0.035156 v -0.84375 c -0.210938,-0.082031 -0.339844,-0.1171875 -0.503906,-0.1171875 -0.339844,0 -0.714844,0.1757812 -0.960938,0.4570312 l -0.632812,0.7265625 c -0.316407,0.3632813 -0.457032,0.84375 -0.457032,1.5703125 v 0.4570313 h -2.25 v -0.9257813 c 0,-1.265625 0.140625,-1.5585937 0.761719,-1.5585937 0.292969,0 0.492188,0.070312 0.75,0.3046875 l 0.128906,-0.070312 v -0.84375 c -0.210937,-0.082031 -0.339843,-0.1171875 -0.503906,-0.1171875 -0.339844,0 -0.714844,0.1757812 -0.960937,0.4570312 l -0.632813,0.7265625 c -0.316406,0.3632813 -0.457031,0.84375 -0.457031,1.5703125 v 0.4570313 l -0.761719,0.3398437 v 0.234375 l 0.761719,-0.035156 v 3.0820312 c 0,0.69140626 -0.03516,0.76171876 -0.410156,0.78515626 l -0.503907,0.0351563 v 0.328125 c 0.46875,-0.0234375 0.914063,-0.0351562475 1.371094,-0.0351562475 0.457031,0 0.902344,0.0117187475 1.359375,0.0351562475 v -0.328125 l -0.503906,-0.0351563 c -0.363281,-0.0234375 -0.398438,-0.09375 -0.398438,-0.78515626 V -4.19521 h 2.25 v 3.0820312 c 0,0.69140626 -0.03516,0.76171876 -0.410156,0.78515626 l -0.503906,0.0351563 v 0.328125 c 0.46875,-0.0234375 0.914062,-0.0351562475 1.371094,-0.0351562475 0.457031,0 0.902343,0.0117187475 1.359375,0.0351562475 v -0.328125 l -0.503907,-0.0351563 c -0.363281,-0.0234375 -0.398437,-0.09375 -0.398437,-0.78515626 V -4.19521 h 1.347656 l 0.08203,-0.5859375 -1.429687,0.046875 v -0.9257813 c 0,-1.265625 0.140625,-1.5585937 0.761719,-1.5585937 0.292968,0 0.492187,0.070312 0.75,0.3046875 z m 4.640625,3.9375 c 0,-1.2539063 -0.808594,-2.0742188 -2.027344,-2.0742188 -0.410156,0 -0.878906,0.140625 -1.324219,0.4101563 -0.890625,0.515625 -1.253906,1.1835937 -1.253906,2.3203125 0,0.6914062 0.152344,1.2773437 0.457031,1.68749996 0.433594,0.5859375 1.171875,0.92578125 1.992188,0.92578125 0.398437,0 0.808594,-0.09375 1.253906,-0.29296875 0.292969,-0.1171875 0.527344,-0.2578125 0.5625,-0.328125 l 0.222656,-0.36328125 -0.140625,-0.10546875 c -0.703125,0.41015625 -0.949218,0.50390625 -1.417968,0.50390625 -0.714844,0 -1.300782,-0.31640625 -1.605469,-0.84375001 -0.210938,-0.3632812 -0.28125,-0.6679687 -0.304688,-1.3007812 h 1.59375 c 0.75,0 1.21875,-0.035156 1.96875,-0.1523438 0.01172,-0.1523437 0.02344,-0.2578125 0.02344,-0.3867187 z m -0.972656,0.1289062 -1.21875,0.035156 c -0.503907,0 -0.785157,-0.011719 -1.371094,-0.058594 0,-0.515625 0.03516,-0.7617187 0.175781,-1.0429687 0.234375,-0.4804688 0.703125,-0.7734375 1.230469,-0.7734375 0.351562,0 0.644531,0.140625 0.832031,0.4335937 0.246094,0.3632813 0.351563,0.6796875 0.351563,1.4062505 z m 5.387695,-2.0742187 c -0.117187,-0.082031 -0.316406,-0.1289063 -0.515625,-0.1289063 -0.316406,0 -0.667969,0.1757813 -0.902344,0.4570313 l -0.609375,0.7148437 v -1.125 l -0.09375,-0.046875 c -0.5625,0.234375 -1.125,0.3867188 -1.710937,0.4570313 v 0.3046875 H 53.6734 c 0.433594,0 0.480469,0.070312 0.480469,0.796875 v 2.4492187 c 0,0.69140626 -0.03516,0.76171876 -0.410156,0.78515626 l -0.492188,0.0351563 v 0.328125 c 0.445313,-0.0234375 0.890625,-0.0351562475 1.335938,-0.0351562475 0.527343,0 1.042968,0.0117187475 1.558593,0.0351562475 v -0.328125 l -0.5625,-0.0351563 c -0.492187,-0.0351563 -0.515625,-0.0703125 -0.515625,-0.78515626 v -1.875 c 0,-0.65625 0.433594,-1.2070312 0.972657,-1.2070312 0.328125,0 0.550781,0.1640625 0.726562,0.5039062 h 0.234375 z m 5.118164,1.9453125 c 0,-1.2539063 -0.808594,-2.0742188 -2.027344,-2.0742188 -0.410156,0 -0.878906,0.140625 -1.324218,0.4101563 -0.890625,0.515625 -1.253907,1.1835937 -1.253907,2.3203125 0,0.6914062 0.152344,1.2773437 0.457032,1.68749996 0.433593,0.5859375 1.171875,0.92578125 1.992187,0.92578125 0.398438,0 0.808594,-0.09375 1.253906,-0.29296875 0.292969,-0.1171875 0.527344,-0.2578125 0.5625,-0.328125 l 0.222657,-0.36328125 -0.140625,-0.10546875 c -0.703125,0.41015625 -0.949219,0.50390625 -1.417969,0.50390625 -0.714844,0 -1.300781,-0.31640625 -1.605469,-0.84375001 -0.210937,-0.3632812 -0.28125,-0.6679687 -0.304687,-1.3007812 h 1.59375 c 0.75,0 1.21875,-0.035156 1.96875,-0.1523438 0.01172,-0.1523437 0.02344,-0.2578125 0.02344,-0.3867187 z m -0.972656,0.1289062 -1.21875,0.035156 c -0.503906,0 -0.785156,-0.011719 -1.371094,-0.058594 0,-0.515625 0.03516,-0.7617187 0.175781,-1.0429687 0.234375,-0.4804688 0.703125,-0.7734375 1.230469,-0.7734375 0.351563,0 0.644531,0.140625 0.832031,0.4335937 0.246094,0.3632813 0.351563,0.6796875 0.351563,1.4062505 z m 7.558594,2.95312501 v -0.328125 l -0.457032,-0.0351563 c -0.363281,-0.0234375 -0.398437,-0.0820313 -0.398437,-0.78515621 v -2.1093751 c 0,-1.2773436 -0.597656,-1.8984374 -1.828125,-1.8984374 -0.398438,0 -0.632813,0.082031 -0.855469,0.28125 l -0.832031,0.7148438 V -5.074117 l -0.09375,-0.046875 c -0.5625,0.234375 -1.125,0.3867188 -1.699219,0.4570313 v 0.3046875 h 0.398438 c 0.433593,0 0.480468,0.070312 0.480468,0.7968749 v 2.4492187 c 0,0.69140631 -0.03516,0.76171881 -0.410156,0.78515631 l -0.480469,0.0351563 v 0.328125 c 0.445313,-0.0234375 0.902344,-0.0351562475 1.347657,-0.0351562475 0.445312,0 0.902343,0.0117187475 1.347656,0.0351562475 v -0.328125 l -0.480469,-0.0351563 c -0.375,-0.0234375 -0.410156,-0.09375 -0.410156,-0.78515631 v -2.3085937 c 0,-0.4921875 0.726562,-1.0312499 1.382812,-1.0312499 0.738282,0 1.21875,0.5507811 1.21875,1.3828124 v 3.10546876 c 0.28125,-0.0234375 0.574219,-0.0351562475 0.855469,-0.0351562475 0.304688,0 0.597656,0.0117187475 0.914063,0.0351562975 z m 4.614257,-0.5390625 -0.117187,-0.1640625 c -0.398438,0.22265625 -0.75,0.31640625 -1.148438,0.31640625 -1.207031,0 -2.003906,-0.93749996 -2.003906,-2.37890626 0,-1.1601562 0.550781,-1.8164062 1.523438,-1.8164062 0.480468,0 1.007812,0.2109375 1.207031,0.4921875 l 0.07031,0.65625 h 0.304688 c 0,-0.4921875 0.05859,-0.9492188 0.164062,-1.3359375 -0.445312,-0.2578125 -0.820312,-0.3867188 -1.265625,-0.3867188 -0.527343,0 -1.136718,0.2109375 -1.792968,0.6210938 -0.761719,0.4804687 -1.171875,1.2539062 -1.171875,2.203125 0,1.47656246 1.042968,2.51953121 2.496093,2.51953121 0.574219,0 1.394532,-0.2109375 1.5,-0.375 z m 5.217774,-2.54296871 c 0,-1.2539063 -0.808594,-2.0742188 -2.027344,-2.0742188 -0.410156,0 -0.878906,0.140625 -1.324219,0.4101563 -0.890625,0.515625 -1.253906,1.1835937 -1.253906,2.3203125 0,0.6914062 0.152344,1.2773437 0.457031,1.68749996 0.433594,0.5859375 1.171875,0.92578125 1.992188,0.92578125 0.398437,0 0.808594,-0.09375 1.253906,-0.29296875 0.292969,-0.1171875 0.527344,-0.2578125 0.5625,-0.328125 l 0.222656,-0.36328125 -0.140625,-0.10546875 c -0.703125,0.41015625 -0.949218,0.50390625 -1.417968,0.50390625 -0.714844,0 -1.300782,-0.31640625 -1.605469,-0.84375001 -0.210938,-0.3632812 -0.28125,-0.6679687 -0.304688,-1.3007812 h 1.59375 c 0.75,0 1.21875,-0.035156 1.96875,-0.1523438 0.01172,-0.1523437 0.02344,-0.2578125 0.02344,-0.3867187 z m -0.972656,0.1289062 -1.21875,0.035156 c -0.503907,0 -0.785157,-0.011719 -1.371094,-0.058594 0,-0.515625 0.03516,-0.7617187 0.175781,-1.0429687 0.234375,-0.4804688 0.703125,-0.7734375 1.230469,-0.7734375 0.351562,0 0.644531,0.140625 0.832031,0.4335937 0.246094,0.3632813 0.351563,0.6796875 0.351563,1.4062505 z m 4.289062,0.023437 c 0,-0.8320312 -0.140625,-1.6171875 -0.421875,-2.34375 -0.421875,-1.0546875 -0.867187,-1.6523437 -2.003906,-2.6835937 l -0.199219,0.28125 c 0.796875,0.9375 1.089844,1.453125 1.359375,2.34375 0.222656,0.7148437 0.328125,1.4882812 0.328125,2.390625 0,0.9257812 -0.105469,1.7578125 -0.339844,2.54296871 -0.28125,0.984375 -0.5625,1.51171879 -1.347656,2.48437499 l 0.199219,0.2226563 C 80.283752,1.6407263 80.600158,1.277445 80.940002,0.73838251 81.596252,-0.31630499 81.947814,-1.58193 81.947814,-2.89443 Z m 0,0"
       style="fill:#000000;fill-opacity:1;fill-rule:nonzero;stroke:none"
       aria-label="(scorediference)"
       transform="matrix(1.3333333,0,0,1.3333333,282.68547,197.10533)" />
    <path
       id="path7"
       d="m 0,0 0.068,-1 h 2.493 v 1 z m -173.087,0 v -1 h 146.274 l 1.691,0.168 0.112,0.009 0.099,0.008 0.194,0.018 0.413,0.038 0.005,0.001 0.829,0.071 0.006,0.001 0.06,0.005 h 0.003 l 0.151,0.01 h -0.004 l 0.207,0.016 h -0.007 l 0.414,0.035 h 0.003 l 0.828,0.063 0.013,0.001 0.06,0.003 0.153,0.011 0.229,0.016 0.447,0.032 h -0.001 l 0.898,0.063 h 0.005 l 0.11,0.007 h -0.006 l 0.115,0.007 0.009,0.001 0.222,0.012 0.442,0.03 0.006,0.001 0.889,0.051 0.041,0.003 h 0.001 l 0.059,0.005 0.016,0.001 0.112,0.004 0.204,0.011 -0.004,-0.001 1.254,0.071 0.006,0.001 1.66,0.078 0.035,0.002 0.039,0.003 h 0.05 l 0.063,0.005 0.023,0.002 0.222,0.007 0.402,0.02 h 0.006 l 0.801,0.031 0.029,0.002 0.039,0.003 h 0.072 l 0.077,0.003 0.192,0.012 h 0.011 l 1.24,0.047 0.019,0.001 h 0.047 l 0.028,0.002 h 0.01 l 0.122,0.004 0.128,0.005 z"
       style="fill:#b6b3b1;fill-opacity:1;fill-rule:nonzero;stroke:none"
       transform="matrix(1.3333333,0,0,-1.3333333,429.8808,27.814)" />
    <path
       id="path8"
       d="m 0,0 -1.021,-0.07 h -0.16 l -0.017,-10e-4 -0.096,-0.003 h -0.109 l -0.008,-0.001 -0.238,-0.004 h -0.009 l -0.1,-0.003 h -0.108 l -0.012,-0.001 -0.465,-0.011 0.007,0.001 -0.223,-0.004 H -2.701 L -2.734,-0.1 -2.76,-0.101 h -0.031 l -0.01,-10e-4 -0.926,-0.02 -0.468,-0.007 H -4.206 L -4.418,-0.136 H -4.553 L -4.588,-0.139 -4.611,-0.14 h -0.037 l -0.012,-10e-4 -0.828,-0.02 0.005,0.001 -0.421,-0.009 h -0.008 l -0.19,-0.006 H -6.229 L -6.268,-0.178 -6.28,-0.179 H -6.304 L -6.316,-0.18 -7.147,-0.2 H -7.15 l -0.421,-0.011 h -0.005 l -0.208,-0.008 -0.082,-0.003 h -0.102 l -0.015,-0.001 -0.891,-0.028 h 0.006 L -9.313,-0.262 H -9.32 L -9.542,-0.27 -9.674,-0.275 -9.692,-0.276 -9.711,-0.277 h -0.033 l -0.015,-0.001 -0.894,-0.027 h -0.003 l -0.442,-0.016 -0.093,-0.003 H 0.022 L 0,0 m -3.721,-0.121 v 0 M 0.091,-1.324 H -26.79 l -0.093,-0.01 h -0.006 l -0.89,-0.098 h -0.003 l -0.443,-0.051 -0.003,-10e-4 -0.218,-0.026 -0.121,-0.013 -0.017,-0.003 -0.017,-0.002 -0.049,-0.004 -0.029,-0.003 -0.898,-0.113 h 0.005 l -0.462,-0.056 -0.009,-0.001 -0.225,-0.031 -0.112,-0.016 -0.055,-0.007 h 0.007 l -0.058,-0.007 -0.005,-10e-4 -0.909,-0.126 h -0.004 l -0.443,-0.066 -0.241,-0.033 -0.019,-0.004 -0.089,-0.015 -0.036,-0.005 -0.005,-10e-4 -0.067,-0.009 -0.008,-0.001 -0.839,-0.13 -0.008,-0.002 -0.607,-0.103 -0.099,-0.014 -0.008,-0.001 -0.082,-0.013 -0.031,-0.007 -0.03,-0.007 -0.817,-0.141 -0.007,-0.002 -0.621,-0.117 -0.091,-0.017 -0.059,-0.009 -0.022,-0.005 -0.054,-0.011 0.002,10e-4 -1.792,-0.362 -0.01,-0.002 -0.892,-0.2 -0.003,-10e-4 -0.451,-0.103 -0.006,-10e-4 -0.209,-0.051 -0.128,-0.027 -0.027,-0.008 -0.03,-0.008 -0.048,-0.01 -1.67,-0.429 -0.009,-0.003 -0.825,-0.228 h -0.002 l -0.424,-0.12 -0.01,-0.003 -0.297,-0.091 -0.058,-0.017 -0.011,-0.003 -0.051,-0.016 -1.689,-0.535 -0.01,-0.004 -0.849,-0.288 -0.01,-0.004 -0.416,-0.151 -0.209,-0.076 -0.003,-0.001 -0.097,-0.035 -0.068,-0.024 -0.022,-0.009 -0.05,-0.02 0.005,0.002 -1.811,-0.712 -0.013,-0.006 -0.901,-0.386 -0.006,-0.002 -0.449,-0.199 -0.001,-10e-4 -0.243,-0.108 -0.015,-0.007 -0.095,-0.046 -0.06,-0.026 -0.023,-0.012 -0.054,-0.027 0.008,0.004 -1.671,-0.816 -0.014,-0.007 -0.834,-0.44 -0.007,-0.004 -0.624,-0.342 -0.105,-0.058 0.002,10e-4 -0.07,-0.038 -0.019,-0.012 -0.051,-0.031 0.007,0.005 -1.791,-1.068 -0.911,-0.585 -0.008,-0.006 -0.443,-0.298 -0.003,-0.002 -0.216,-0.147 -0.123,-0.08 -0.017,-0.013 -0.113,-0.081 -1.649,-1.193 -0.837,-0.648 -0.005,-0.004 -0.417,-0.333 -0.006,-0.006 -0.198,-0.163 -0.107,-0.087 -0.011,-0.009 -0.111,-0.095 -3.38,-3.036 -3.627,-3.832 -3.338,-4.078 -3.566,-4.915 -3.62,-5.533 -3.338,-5.476 -3.566,-6.116 -3.282,-5.713 0.003,0.005 -3.343,-5.733 -3.569,-5.866 -3.286,-5.022 -3.512,-4.866 -3.567,-4.355 -3.288,-3.468 -1.751,-1.645 -0.872,-0.765 -0.434,-0.369 -0.216,-0.178 -0.123,-0.101 -0.008,-0.007 -0.091,-0.078 -1.618,-1.266 -0.801,-0.591 -0.409,-0.289 -0.001,-0.001 -0.19,-0.135 -0.1,-0.067 -0.008,-0.006 -0.09,-0.062 -1.736,-1.135 -0.86,-0.522 -0.435,-0.254 0.003,0.002 -0.223,-0.129 0.004,0.002 -0.205,-0.117 -1.768,-0.942 -0.877,-0.43 -0.44,-0.207 -0.221,-0.103 -0.089,-0.041 -0.072,-0.03 -0.029,-0.014 -0.031,-0.015 -1.626,-0.697 -0.811,-0.325 -0.408,-0.158 0.008,0.003 -0.192,-0.072 -0.11,-0.037 -0.019,-0.008 -0.086,-0.033 -1.749,-0.61 -0.872,-0.277 0.009,0.003 -0.443,-0.136 -0.226,-0.067 -0.009,-0.003 -0.091,-0.029 -0.046,-0.013 -0.007,-0.002 -0.05,-0.015 -1.62,-0.452 -0.808,-0.204 0.004,0.001 -0.406,-0.101 0.002,10e-4 -0.2,-0.05 -0.196,-0.045 0.005,0.001 -1.662,-0.373 -0.827,-0.17 0.009,0.002 -0.424,-0.083 -0.005,-0.001 -0.194,-0.04 -0.082,-0.015 -0.079,-0.013 -0.039,-0.009 -0.021,-0.005 -1.757,-0.313 -0.887,-0.144 0.005,0.001 -0.436,-0.069 -0.233,-0.032 -0.018,-0.004 -0.098,-0.017 -0.028,-0.004 -0.059,-0.007 -0.012,-0.002 -0.819,-0.12 -0.404,-0.054 h 0.004 l -0.218,-0.028 -0.01,-0.002 -0.108,-0.016 h -0.002 l -0.012,-0.002 -0.039,-0.003 -0.027,-0.004 -0.819,-0.108 -0.404,-0.05 -0.205,-0.023 h -0.003 l -0.121,-0.014 -0.019,-0.003 -0.013,-0.003 -0.029,-0.002 -1.78,-0.2 -0.882,-0.09 0.004,10e-4 -0.444,-0.043 -0.002,-0.001 -0.209,-0.021 -0.13,-0.01 -0.035,-0.005 -0.02,-0.003 -0.027,-0.002 h -0.008 l -0.903,-0.082 h 0.004 l -0.441,-0.038 -0.231,-0.017 -0.013,-0.001 -0.103,-0.01 -0.099,-0.007 h -0.002 l -0.905,-0.071 -0.452,-0.036 h -0.002 l -0.219,-0.018 -0.109,-0.008 h -0.002 l -0.054,-0.004 h 0.007 l -0.06,-0.004 h -0.001 l -0.832,-0.058 h 0.002 l -0.407,-0.027 -0.211,-0.011 -0.012,-0.001 -0.105,-0.008 h -0.002 l -0.094,-0.008 -0.823,-0.05 h 0.006 l -0.429,-0.023 -0.011,-0.001 -0.188,-0.015 -0.1,-0.004 -0.018,-0.001 -0.055,-0.004 h -0.003 l -0.038,-0.003 -1.551,-0.082 h -0.005 l -0.118,-0.008 h -0.005 l -0.019,-10e-4 h -0.042 l -0.024,-0.001 -0.894,-0.044 h -0.003 l -0.436,-0.023 -0.227,-0.008 -0.013,-10e-4 -0.082,-0.005 H -156 l -0.036,-0.003 -0.04,-0.003 -0.805,-0.034 h 0.004 l -0.425,-0.017 h -0.01 l -0.193,-0.012 -0.073,-0.002 h -0.073 l -0.039,-0.003 -0.031,-0.003 -1.21,-0.045 h -10e-4 l -0.207,-0.008 h -10e-4 l -0.082,-0.003 h -0.07 l -0.039,-0.003 -0.028,-0.003 -1.653,-0.054 h 0.006 l -0.842,-0.023 h -0.005 l -0.412,-0.016 -0.207,-0.004 h -0.01 l -0.087,-0.003 h -0.069 l -0.037,-0.003 -0.03,-0.002 -0.871,-0.023 h -0.001 l -0.443,-0.012 -0.233,-0.004 h -0.009 l -0.091,-0.003 h -0.069 l -0.028,-0.002 -0.037,-0.002 -0.884,-0.02 h -0.003 l -0.443,-0.012 -0.224,-0.004 h -0.005 l -0.099,-0.002 h -0.108 l -0.012,-0.001 -0.826,-0.02 -0.627,-0.012 h -0.01 l -0.087,-0.003 h -0.091 l -1.45,-0.027 h -0.128 l -0.036,-0.003 -0.019,-0.001 h -0.015 -1 v -2 h 1.088 l 0.036,0.002 0.018,0.002 h 0.075 l 1.45,0.027 h 0.11 0.019 l 0.097,0.004 0.614,0.012 h 0.002 l 0.816,0.02 h 0.111 0.013 l 0.108,0.003 0.224,0.004 h 0.004 l 0.448,0.012 0.912,0.02 0.017,0.001 0.026,0.002 h 0.049 0.019 l 0.099,0.004 0.222,0.004 h 0.005 l 0.449,0.012 h -0.001 l 0.919,0.024 0.024,10e-4 0.017,0.002 h 0.033 0.019 l 0.097,0.004 0.207,0.004 h 0.009 l 0.417,0.016 0.833,0.023 1.701,0.056 0.022,0.002 0.012,0.001 h 0.032 0.02 l 0.101,0.004 h -0.001 l 0.207,0.008 h -0.002 l 1.252,0.047 0.02,0.002 0.012,10e-4 h 0.035 0.019 l 0.112,0.005 h 0.01 l 0.193,0.012 0.406,0.015 0.002,0.001 0.835,0.035 0.015,0.001 0.018,0.002 h 0.05 l 0.031,0.002 0.1,0.006 0.219,0.008 h 0.009 l 0.445,0.024 h -0.006 l 0.867,0.042 h 0.066 l 0.037,0.002 0.049,0.004 0.107,0.006 1.564,0.083 0.012,0.001 0.051,0.004 -0.004,-10e-4 0.037,0.003 0.103,0.004 0.019,0.002 0.196,0.015 0.41,0.022 0.003,0.001 0.841,0.051 0.008,10e-4 0.102,0.008 h -0.002 l 0.094,0.007 0.203,0.01 0.007,0.001 0.415,0.028 h 0.001 l 0.832,0.058 h -0.002 l 0.062,0.004 h 0.003 l 0.054,0.004 h -0.004 l 0.121,0.009 h 0.007 l 0.226,0.019 h -0.004 l 0.45,0.036 h -0.002 l 0.901,0.07 0.117,0.008 0.011,0.001 0.102,0.01 0.221,0.016 h 0.008 l 0.451,0.04 h 0.002 l 0.894,0.081 0.081,0.006 0.035,0.005 0.02,0.003 0.088,0.006 0.015,0.002 0.223,0.023 -0.006,-10e-4 0.444,0.044 h 0.001 l 0.892,0.09 1.76,0.198 0.072,0.006 0.037,0.006 0.032,0.005 0.081,0.009 0.208,0.023 0.006,10e-4 0.419,0.052 h 0.004 l 0.798,0.106 0.063,0.005 0.038,0.006 0.051,0.008 -0.004,-0.001 0.094,0.014 0.198,0.026 0.002,10e-4 0.416,0.055 0.006,0.001 0.813,0.119 0.057,0.007 0.012,0.002 0.07,0.01 0.015,0.003 0.095,0.017 0.214,0.029 0.009,0.002 0.447,0.07 0.002,10e-4 0.903,0.146 1.83,0.326 0.028,0.007 0.012,0.003 0.022,0.003 0.011,0.002 0.119,0.022 0.014,0.003 0.201,0.041 0.417,0.082 0.005,0.001 0.844,0.174 1.683,0.377 0.003,0.001 0.211,0.049 0.007,0.002 0.209,0.051 h 10e-4 l 0.408,0.102 h 0.001 l 0.832,0.21 1.654,0.462 0.005,10e-4 0.049,0.015 0.07,0.019 0.018,0.006 0.101,0.032 0.218,0.064 0.004,0.002 0.45,0.138 0.005,10e-4 0.899,0.286 1.807,0.631 0.015,0.006 0.082,0.031 0.102,0.035 0.016,0.006 0.21,0.079 0.005,0.002 0.419,0.162 0.006,0.003 0.839,0.336 1.695,0.726 0.023,0.011 0.026,0.013 0.044,0.018 0.016,0.007 0.115,0.053 0.006,0.002 0.226,0.107 0.457,0.214 0.922,0.452 1.825,0.972 0.014,0.008 0.22,0.127 h 10e-4 l 0.225,0.13 0.001,0.001 0.45,0.262 0.903,0.548 1.789,1.17 0.011,0.008 0.094,0.065 0.11,0.074 0.013,0.009 0.203,0.145 -0.003,-0.003 0.422,0.299 0.84,0.619 1.678,1.313 0.018,0.015 0.101,0.087 0.105,0.087 0.228,0.188 0.006,0.005 0.452,0.384 0.908,0.797 1.819,1.708 3.377,3.563 3.652,4.458 3.574,4.953 3.33,5.088 3.595,5.909 3.354,5.752 3.283,5.715 -0.003,-0.006 3.554,6.096 3.311,5.432 3.576,5.466 3.503,4.828 3.256,3.977 3.522,3.722 3.299,2.964 0.081,0.068 0.096,0.078 0.006,0.004 0.196,0.163 0.398,0.318 0.797,0.618 1.623,1.173 -0.003,-0.002 0.093,0.067 0.103,0.067 0.007,0.005 0.223,0.152 -0.004,-0.003 0.432,0.291 0.863,0.555 1.767,1.053 0.004,0.002 0.032,0.02 0.031,0.017 0.003,0.001 0.105,0.058 -0.004,-10e-4 0.614,0.336 0.808,0.426 1.647,0.804 0.004,0.002 0.031,0.016 0.05,0.021 0.019,0.009 0.097,0.048 0.212,0.094 -0.002,-10e-4 0.443,0.197 0.876,0.375 1.787,0.703 h 10e-4 l 0.028,0.011 0.043,0.015 0.008,0.003 0.107,0.039 -0.005,-0.002 0.207,0.075 10e-4,10e-4 0.408,0.148 0.819,0.278 1.666,0.528 -0.003,-0.001 0.041,0.013 0.053,0.015 0.006,0.002 0.294,0.09 0.403,0.114 -0.005,-0.001 0.812,0.224 1.617,0.416 0.062,0.013 0.025,0.007 0.028,0.007 0.099,0.021 0.014,0.004 0.216,0.052 0.44,0.101 -0.006,-0.001 0.88,0.196 1.774,0.359 0.032,0.006 0.043,0.007 0.015,0.003 0.106,0.02 0.615,0.116 0.847,0.146 0.023,0.005 0.023,0.006 0.012,0.002 0.113,0.015 0.014,0.003 0.613,0.104 0.817,0.127 0.044,0.006 0.074,0.01 0.025,0.004 0.093,0.016 0.214,0.03 0.006,10e-4 0.444,0.066 0.897,0.124 -0.009,-10e-4 0.059,0.007 0.002,10e-4 0.063,0.008 h 0.001 l 0.111,0.016 0.215,0.03 0.445,0.054 h 0.003 l 0.869,0.11 0.069,0.005 0.038,0.005 0.038,0.006 0.097,0.01 0.005,10e-4 0.223,0.027 -0.005,-0.001 0.441,0.051 h -0.006 l 0.88,0.096 1.756,0.174 0.091,0.008 h -0.002 l 0.114,0.008 0.008,10e-4 0.204,0.019 0.41,0.039 0.814,0.07 0.047,0.003 0.155,0.011 0.003,0.001 0.21,0.016 h 0.004 l 0.414,0.035 0.804,0.062 0.057,0.002 0.011,10e-4 0.164,0.012 h -0.002 l 0.225,0.016 0.446,0.031 v 0 l 0.898,0.063 h -0.006 l 0.111,0.007 h 0.004 l 0.106,0.008 0.221,0.011 0.008,10e-4 0.444,0.031 0.899,0.051 0.01,10e-4 0.051,0.004 -0.005,-10e-4 0.038,0.003 0.091,0.004 h 0.006 l 0.214,0.011 h 0.002 l 1.248,0.071 1.684,0.079 0.015,0.001 0.012,10e-4 h 0.05 l 0.039,0.003 0.08,0.006 0.193,0.007 h 0.007 l 0.404,0.02 0.833,0.031 0.021,0.002 0.01,10e-4 h 0.03 0.019 l 0.116,0.005 h 0.011 l 0.193,0.012 1.201,0.046 h 0.063 l 0.027,10e-4 0.045,0.003 0.104,0.003 0.222,0.008 0.437,0.016 0.875,0.027 h 0.076 l 0.036,0.002 0.036,0.003 0.095,0.003 0.218,0.008 0.439,0.011 h 0.003 l 0.875,0.028 h 0.109 0.019 l 0.102,0.004 0.201,0.008 0.405,0.011 0.821,0.02 h 0.077 l 0.039,0.003 0.012,0.001 h 0.083 0.017 l 0.199,0.007 0.411,0.008 h 10e-4 l 0.816,0.02 h 0.082 l 0.034,0.002 0.024,0.002 h 0.101 0.017 l 0.22,0.008 0.458,0.007 h 0.004 l 0.915,0.02 h 0.077 l 0.034,0.002 0.025,0.002 h 0.092 0.008 l 0.234,0.004 h 0.004 l 0.453,0.011 h 0.118 0.017 l 0.109,0.004 0.213,0.004 h 0.127 0.018 l 0.095,0.004 h 0.193 l 0.034,0.002 1.056,0.073 -0.047,0.671 m -30.467,-0.427 v 0 m 19.792,-0.553 v 0 m -5.815,-0.245 v 0 m -6.051,-0.389 v 0 m -1.643,-0.136 v 0 m -2.578,-0.248 v 0 m -101.664,-90.044 v 0 m -12.95,-2.614 v 0 m -22.731,-1.431 v 0 m -1.798,-0.042 v 0 m 24.147,-0.586 v 0 m -5.583,-0.559 v 0 m -6.703,-0.439 v 0 m -11.367,-0.404 v 0 m -0.672,-0.016 z"
       style="fill:#899bcd;fill-opacity:1;fill-rule:nonzero;stroke:none"
       transform="matrix(1.3333333,0,0,-1.3333333,429.85053,27.381467)" />
    <path
       id="path9"
       d="m 0,0 h -11.214 l -0.128,-0.005 -0.122,-0.004 h -0.01 l -0.028,-0.002 h -0.046 l -0.019,-0.001 -1.241,-0.047 -0.01,-0.001 -0.193,-0.011 -0.076,-0.003 h -0.072 l -0.04,-0.003 -0.029,-0.003 -0.801,-0.03 h -0.006 l -0.402,-0.02 -0.222,-0.007 -0.022,-0.002 -0.063,-0.005 h -0.05 l -0.039,-0.003 -0.036,-0.003 -1.66,-0.077 -0.006,-0.001 -1.254,-0.071 0.005,0.001 -0.205,-0.011 -0.111,-0.004 -0.017,-0.002 -0.059,-0.004 h -0.001 l -0.041,-0.003 -0.889,-0.051 h -0.006 l -0.442,-0.031 -0.223,-0.012 -0.008,-0.001 -0.114,-0.007 h 0.005 l -0.11,-0.007 h -0.004 l -0.898,-0.063 v 0 l -0.447,-0.032 -0.228,-0.016 -0.154,-0.011 -0.059,-0.003 -0.013,-0.001 -0.829,-0.063 -0.003,-0.001 -0.414,-0.035 0.007,0.001 -0.207,-0.016 h 0.005 l -0.151,-0.01 -0.004,-0.001 -0.06,-0.004 -0.006,-0.001 -0.828,-0.071 h -0.005 l -0.414,-0.039 -0.194,-0.019 -0.098,-0.007 -0.112,-0.009 L -26.812,-1 H 0.069 Z"
       style="fill:#778bba;fill-opacity:1;fill-rule:nonzero;stroke:none"
       transform="matrix(1.3333333,0,0,-1.3333333,429.8804,27.813867)" />
    <path
       id="path10"
       d="m 152.734,33.392 h 0.2 v 2.074 h -0.2 z"
       style="fill:#5e6061;fill-opacity:1;fill-rule:nonzero;stroke:none"
       transform="matrix(1.3333333,0,0,-1.3333333,0,203.596)" />
    <path
       id="path11"
       d="m 180.84,33.392 h 0.201 v 2.074 h -0.201 z"
       style="fill:#5e6061;fill-opacity:1;fill-rule:nonzero;stroke:none"
       transform="matrix(1.3333333,0,0,-1.3333333,0,203.596)" />
    <path
       id="path12"
       d="m 208.941,33.392 h 0.2 v 2.074 h -0.2 z"
       style="fill:#5e6061;fill-opacity:1;fill-rule:nonzero;stroke:none"
       transform="matrix(1.3333333,0,0,-1.3333333,0,203.596)" />
    <path
       id="path13"
       d="m 237.047,33.392 h 0.2 v 2.074 h -0.2 z"
       style="fill:#5e6061;fill-opacity:1;fill-rule:nonzero;stroke:none"
       transform="matrix(1.3333333,0,0,-1.3333333,0,203.596)" />
    <path
       id="path14"
       d="m 265.152,33.392 h 0.201 v 2.074 h -0.201 z"
       style="fill:#5e6061;fill-opacity:1;fill-rule:nonzero;stroke:none"
       transform="matrix(1.3333333,0,0,-1.3333333,0,203.596)" />
    <path
       id="path15"
       d="m 293.254,33.392 h 0.2 v 2.074 h -0.2 z"
       style="fill:#5e6061;fill-opacity:1;fill-rule:nonzero;stroke:none"
       transform="matrix(1.3333333,0,0,-1.3333333,0,203.596)" />
    <path
       id="path16"
       d="m 321.359,33.392 h 0.2 v 2.074 h -0.2 z"
       style="fill:#5e6061;fill-opacity:1;fill-rule:nonzero;stroke:none"
       transform="matrix(1.3333333,0,0,-1.3333333,0,203.596)" />
    <path
       id="path17"
       d="m 149.324,33.292 h 175.648 v 0.2 H 149.324 Z"
       style="fill:#5e6061;fill-opacity:1;fill-rule:nonzero;stroke:none"
       transform="matrix(1.3333333,0,0,-1.3333333,0,203.596)" />
    <path
       id="path18"
       d="m 237.147,57.78 h 2.07 v 0.2 h -2.07 z"
       style="fill:#5e6061;fill-opacity:1;fill-rule:nonzero;stroke:none"
       transform="matrix(1.3333333,0,0,-1.3333333,0,203.596)" />
    <path
       id="path19"
       d="m 237.147,82.264 h 2.07 v 0.2 h -2.07 z"
       style="fill:#5e6061;fill-opacity:1;fill-rule:nonzero;stroke:none"
       transform="matrix(1.3333333,0,0,-1.3333333,0,203.596)" />
    <path
       id="path20"
       d="m 237.147,106.749 h 2.07 v 0.2 h -2.07 z"
       style="fill:#5e6061;fill-opacity:1;fill-rule:nonzero;stroke:none"
       transform="matrix(1.3333333,0,0,-1.3333333,0,203.596)" />
    <path
       id="path21"
       d="m 237.147,131.236 h 2.07 v 0.201 h -2.07 z"
       style="fill:#5e6061;fill-opacity:1;fill-rule:nonzero;stroke:none"
       transform="matrix(1.3333333,0,0,-1.3333333,0,203.596)" />
    <path
       id="path22"
       d="m 237.047,27.966 h 0.2 v 108.555 h -0.2 z"
       style="fill:#5e6061;fill-opacity:1;fill-rule:nonzero;stroke:none"
       transform="matrix(1.3333333,0,0,-1.3333333,0,203.596)" />
    <path
       id="path23"
       d="m 5.0751328,-4.0428969 c 0,-0.7382812 -0.2460937,-1.21875 -0.6445312,-1.21875 -0.4570313,0 -1.03125,0.2929688 -1.6054688,0.796875 -0.4335937,0.3984375 -0.6679687,0.6679688 -1.0546875,1.3125 l 0.2578125,-1.3007812 c 0.035156,-0.1875 0.058594,-0.3515625 0.058594,-0.4804688 0,-0.2109375 -0.09375,-0.328125 -0.2460938,-0.328125 -0.2226562,0 -0.6445312,0.234375 -1.44140624,0.8085938 l -0.31640625,0.2226562 0.08203125,0.2109375 0.3515625,-0.2226562 c 0.3046875,-0.1992188 0.421875,-0.2578125 0.51562504,-0.2578125 0.1171875,0 0.1875,0.1054687 0.1875,0.2578125 0,0.082031 -0.023437,0.3046875 -0.035156,0.4101562 l -0.63281249,3.75000002 -0.5390625,2.62499998 -0.09375,0.3984375 0.0820312525,0.070312 C 0.23528906,2.9297594 0.44622656,2.8828844 0.79778906,2.8242906 L 1.2548203,-0.03508438 1.3485703,7.1875e-5 C 1.6415391,0.09382187 1.8056016,0.11725937 1.9227891,0.11725937 c 0.609375,0 1.8632812,-0.796875 2.3320312,-1.47656247 0.4453125,-0.6679688 0.8203125,-1.875 0.8203125,-2.6835938 z m -0.7851562,0.1640625 c 0,0.8789063 -0.4335938,2.1796875 -1.0195313,3.01171877 -0.2109375,0.31640625 -0.5625,0.46875 -1.0078125,0.46875 -0.3398437,0 -0.609375,-0.0703125 -0.9023437,-0.24609375 L 1.5595078,-1.8046156 c 0.2460938,-1.3945313 1.40625,-2.8242188 2.3203125,-2.8242188 0.28125,0 0.4101563,0.2460938 0.4101563,0.75 z m 0,0"
       style="fill:#000000;fill-opacity:1;fill-rule:nonzero;stroke:none"
       aria-label="ð‘"
       transform="matrix(1.3333333,0,0,1.3333333,251.698,12.601467)" />
    <path
       id="path24"
       d="M 1.9228969,-0.68075 1.8408656,-0.821375 1.6299281,-0.68075 c -0.234375,0.15234375 -0.3984375,0.234375 -0.4804687,0.234375 -0.058594,0 -0.1054688,-0.0703125 -0.1054688,-0.1640625 0,-0.0703125 0.011719,-0.140625 0.058594,-0.31640625 L 1.7119594,-3.352625 c 0.035156,-0.1289063 0.046875,-0.2109375 0.046875,-0.28125 0,-0.140625 -0.058594,-0.2109375 -0.1992188,-0.2109375 -0.1757812,0 -0.4570312,0.1640625 -1.06640622,0.5976562 l -0.22265625,0.1523438 0.0585938,0.1640625 0.2578125,-0.1757813 c 0.22265625,-0.140625 0.3046875,-0.1757812 0.375,-0.1757812 0.0820312,0 0.14062507,0.070312 0.14062507,0.1640625 0,0.070312 -0.035156,0.234375 -0.070312,0.3515625 L 0.51664688,-0.85653125 C 0.43461563,-0.59871875 0.41117813,-0.3995 0.41117813,-0.2354375 c 0,0.1875 0.0820313,0.3046875 0.234375,0.3046875 0.2109375,0 0.50390627,-0.17578125 1.27734377,-0.75 z m 0.1875,-4.6523438 c 0,-0.1875 -0.1289063,-0.328125 -0.2929688,-0.328125 -0.234375,0 -0.4570312,0.2695313 -0.4570312,0.5390625 0,0.1992188 0.1171875,0.328125 0.3164062,0.328125 0.2460938,0 0.4335938,-0.234375 0.4335938,-0.5390625 z m 2.5927734,1.9804688 c 0.035156,-0.1289063 0.046875,-0.2460938 0.046875,-0.2929688 0,-0.1289062 -0.070312,-0.1992187 -0.1992187,-0.1992187 -0.1757813,0 -0.4570313,0.1640625 -1.0664063,0.5976562 l -0.2226562,0.1523438 0.058594,0.1640625 0.2460938,-0.1757813 c 0.1171875,-0.046875 0.2578125,-0.1992187 0.375,-0.1992187 0.082031,0 0.1523437,0.082031 0.1523437,0.1875 0,0.1054687 -0.035156,0.2109375 -0.058594,0.3164062 L 3.2383266,1.147375 c -0.09375,0.4101562 -0.234375,0.6914062 -0.375,0.6914062 -0.1171875,0 -0.2460938,-0.046875 -0.421875,-0.1523437 l -0.070312,0.4570312 c 0.082031,0.035156 0.1875,0.058594 0.3046875,0.058594 0.3164062,0 0.6210937,-0.328125 0.9140625,-0.9492188 0.1640625,-0.37499995 0.28125,-0.7617187 0.5039062,-1.8164062 z m 0.3398438,-1.9804688 c 0,-0.1875 -0.1171875,-0.328125 -0.28125,-0.328125 -0.2460938,0 -0.46875,0.2695313 -0.46875,0.5390625 0,0.1992188 0.1171875,0.328125 0.3164062,0.328125 0.2578125,0 0.4335938,-0.234375 0.4335938,-0.5390625 z m 0,0"
       style="fill:#000000;fill-opacity:1;fill-rule:nonzero;stroke:none"
       aria-label="ð‘–ð‘—"
       transform="matrix(1.3333333,0,0,1.3333333,259.7252,14.782667)" />
    <g
       id="g24"
       aria-label="(winprobability)&#10;0&#10;2&#10;4&#10;6&#10;âˆ’2&#10;âˆ’4&#10;âˆ’6&#10;0.25&#10;0.50&#10;0.75"
       transform="matrix(1.3333333,0,0,1.3333333,271.42253,12.601467)">
      <path
         id="path25"
         d="M 3.2807563,2.1211656 C 2.4956,1.1485094 2.21435,0.62116562 1.9331,-0.36320938 1.698725,-1.1483656 1.5932563,-1.9803969 1.5932563,-2.9061781 c 0,-0.9023438 0.09375,-1.6757813 0.3164062,-2.390625 0.2695313,-0.9023438 0.5742188,-1.4179688 1.3710938,-2.34375 l -0.1992188,-0.28125 c -1.1367187,1.0195312 -1.5820312,1.6171875 -2.0039062,2.6835937 -0.28125005,0.7265625 -0.42187505,1.5117188 -0.42187505,2.3320313 0,1.171875 0.26953125,2.27343747 0.79687505,3.25781247 0.375,0.72656253 0.7265625,1.14843753 1.6289062,1.99218753 z m 9.1640627,-6.8203125 v -0.3046875 c -0.351563,0.023437 -0.703125,0.023437 -1.066406,0.023437 -0.363282,0 -0.714844,0 -1.066407,-0.023437 v 0.3046875 l 0.363282,0.023437 c 0.304687,0.011719 0.433593,0.1523438 0.433593,0.3632813 0,0.1054687 -0.03516,0.2226562 -0.08203,0.3632812 -0.339844,0.9726563 -0.691406,1.9453125 -1.0664062,2.8828125 l -1.2539073,-3.164062 c -0.1523437,-0.375 -0.234375,-0.5976562 -0.3164062,-0.890625 H 8.1440375 l -1.7460937,3.984375 -0.9140625,-3.0117187 c -0.023437,-0.082031 -0.035156,-0.1640625 -0.035156,-0.234375 0,-0.1757813 0.1054688,-0.28125 0.4101563,-0.2929688 l 0.4335937,-0.023437 v -0.3046875 c -0.4335937,0.023437 -0.8554687,0.023437 -1.3007812,0.023437 -0.4335938,0 -0.8554688,0 -1.2890625,-0.023437 v 0.3046875 l 0.3046875,0.023437 c 0.3046875,0.011719 0.4453125,0.1992188 0.7148437,1.0898438 l 1.1132813,3.66796872 h 0.515625 L 7.417475,-2.4374281 c 0.1992188,-0.4570313 0.5625,-1.21875 0.5625,-1.21875 L 9.4682563,0.08210312 H 9.9721625 L 11.460444,-3.7264906 c 0.316406,-0.7851563 0.46875,-0.9375 0.703125,-0.9492188 z m 3.240234,4.73437502 v -0.328125 l -0.503906,-0.0351563 c -0.363281,-0.0234375 -0.398438,-0.09375 -0.398438,-0.78515632 V -5.074147 l -0.09375,-0.046875 c -0.5625,0.234375 -1.125,0.3867188 -1.710937,0.4570313 v 0.3046875 h 0.410156 c 0.433594,0 0.480469,0.070312 0.480469,0.796875 v 2.4492187 c 0,0.69140632 -0.03516,0.76171882 -0.410156,0.78515632 l -0.492188,0.0351563 v 0.328125 C 13.423334,0.01179062 13.868647,7.1875e-5 14.325678,7.1875e-5 c 0.457031,0 0.902344,0.011718745 1.359375,0.035156245 z M 14.864741,-6.9491469 c 0,-0.3164062 -0.210938,-0.5507812 -0.527344,-0.5507812 -0.339844,0 -0.5625,0.2226562 -0.5625,0.5507812 0,0.328125 0.222656,0.5507813 0.550781,0.5507813 0.328125,0 0.539063,-0.2226563 0.539063,-0.5507813 z m 7.286132,6.98437502 v -0.328125 l -0.457031,-0.0351563 c -0.363281,-0.0234375 -0.398437,-0.0820313 -0.398437,-0.78515622 v -2.109375 c 0,-1.2773437 -0.597657,-1.8984375 -1.828125,-1.8984375 -0.398438,0 -0.632813,0.082031 -0.855469,0.28125 l -0.832031,0.7148438 v -0.9492188 l -0.09375,-0.046875 c -0.5625,0.234375 -1.125,0.3867188 -1.699219,0.4570313 v 0.3046875 h 0.398437 c 0.433594,0 0.480469,0.070312 0.480469,0.796875 v 2.4492187 c 0,0.69140622 -0.03516,0.76171872 -0.410156,0.78515622 l -0.480469,0.0351563 v 0.328125 C 16.420405,0.01179062 16.877436,7.1875e-5 17.322748,7.1875e-5 c 0.445313,0 0.902344,0.011718745 1.347657,0.035156245 v -0.328125 l -0.480469,-0.0351563 c -0.375,-0.0234375 -0.410156,-0.09375 -0.410156,-0.78515622 v -2.3085937 c 0,-0.4921875 0.726562,-1.03125 1.382812,-1.03125 0.738281,0 1.21875,0.5507812 1.21875,1.3828125 v 3.10546867 c 0.28125,-0.0234375 0.574219,-0.035156245 0.855469,-0.035156245 0.304687,0 0.597656,0.011718745 0.914062,0.035156295 z m 8.876954,-2.98828122 c 0,-1.21875 -1.007813,-2.1679688 -2.273438,-2.1679688 -0.398437,0 -0.796875,0.1171875 -0.972656,0.28125 l -0.890625,0.8085938 v -1.0429688 l -0.09375,-0.046875 c -0.5625,0.234375 -1.125,0.3867188 -1.710938,0.4570313 v 0.3046875 h 0.410157 c 0.433593,0 0.480468,0.070312 0.480468,0.796875 v 5.484375 c 0,0.6914062 -0.03516,0.7617187 -0.410156,0.7851562 l -0.503906,0.035156 v 0.328125 c 0.46875,-0.023437 0.914062,-0.035156 1.371094,-0.035156 0.457031,0 0.902343,0.011719 1.359375,0.035156 v -0.328125 l -0.503907,-0.035156 c -0.363281,-0.023437 -0.398437,-0.09375 -0.398437,-0.7851562 v -2.06250003 c 0.328125,0.19921875 0.679687,0.26953125 1.171875,0.26953125 0.316406,0 0.597656,-0.05859375 0.773437,-0.17578125 l 1.242188,-0.80859375 c 0.433594,-0.28125002 0.949219,-1.40625002 0.949219,-2.09765622 z m -0.949219,0.3984375 c 0,1.21875 -0.738281,2.13281247 -1.710938,2.13281247 -0.609375,0 -1.054687,-0.19921875 -1.476562,-0.64453127 v -2.2734375 c 0,-0.1523437 0.05859,-0.2695312 0.199219,-0.4570312 0.316406,-0.3984375 0.761718,-0.609375 1.300781,-0.609375 1.03125,0 1.6875,0.7148437 1.6875,1.8515625 z m 5.537109,-2.4375 c -0.117187,-0.082031 -0.316406,-0.1289063 -0.515625,-0.1289063 -0.316406,0 -0.667969,0.1757813 -0.902344,0.4570313 l -0.609375,0.7148437 v -1.125 l -0.09375,-0.046875 c -0.5625,0.234375 -1.125,0.3867188 -1.710937,0.4570313 v 0.3046875 h 0.410156 c 0.433594,0 0.480469,0.070312 0.480469,0.796875 v 2.4492187 c 0,0.69140627 -0.03516,0.76171877 -0.410156,0.78515627 l -0.492188,0.0351563 v 0.328125 C 32.21728,0.01179062 32.662592,7.1875e-5 33.107905,7.1875e-5 c 0.527343,0 1.042968,0.011718745 1.558593,0.035156245 v -0.328125 l -0.5625,-0.0351563 c -0.492187,-0.0351563 -0.515625,-0.0703125 -0.515625,-0.78515622 v -1.8750001 c 0,-0.65625 0.433594,-1.2070312 0.972657,-1.2070312 0.328125,0 0.550781,0.1640625 0.726562,0.5039062 h 0.234375 z m 5.844727,2.4023437 c 0,-1.4648437 -1.078125,-2.53125 -2.566406,-2.53125 -1.59375,0 -2.695313,1.125 -2.695313,2.7539063 0,1.53515622 0.972656,2.58984372 2.378906,2.58984372 1.675782,0 2.882813,-1.171875 2.882813,-2.81250002 z m -1.019531,0.4101563 c 0,1.25390622 -0.5625,2.03906247 -1.441407,2.03906247 -1.066406,0 -1.792968,-1.04296877 -1.792968,-2.60156247 0,-1.3007813 0.527343,-2.015625 1.488281,-2.015625 1.007812,0 1.746094,1.0898437 1.746094,2.578125 z m 6.905273,-0.7617188 c 0,-1.265625 -0.820313,-2.1796875 -1.980469,-2.1796875 -0.503906,0 -1.042969,0.1992188 -1.324219,0.4804688 l -0.597656,0.609375 v -3.796875 l -0.105469,-0.09375 c -0.480468,0.1875 -0.832031,0.2695312 -1.699218,0.4101562 v 0.3046875 h 0.609375 c 0.199218,0 0.269531,0.1171875 0.269531,0.4453125 v 5.0976563 c 0,0.66796872 0,0.96093747 -0.08203,1.73437497 l 0.175781,0.05859375 0.433594,-0.38671875 c 0.433593,0.28125 0.832031,0.38671875 1.40625,0.38671875 0.433593,0 0.714843,-0.0703125 0.9375,-0.234375 l 1.089843,-0.78515625 c 0.480469,-0.35156247 0.867188,-1.25390627 0.867187,-2.05078127 z m -0.949219,0.4453125 c 0,1.21875 -0.65625,2.07421877 -1.582031,2.07421877 -0.5625,0 -1.371094,-0.3515625 -1.371094,-0.59765627 v -2.34375 c 0,-0.1523437 0.105469,-0.3515625 0.28125,-0.5390625 0.304688,-0.3164062 0.726563,-0.5039062 1.171875,-0.5039062 0.925781,0 1.5,0.7382812 1.5,1.9101562 z m 6.583008,2.53125002 v -0.328125 l -0.433594,-0.0234375 c -0.257812,-0.0117188 -0.304687,-0.09375 -0.304687,-0.6328125 V -2.9413344 c 0,-1.59375 -0.457031,-2.1796875 -1.722656,-2.1796875 -0.46875,0 -0.902344,0.1289063 -1.324219,0.375 L 48.6206,-4.3944594 v 0.703125 l 0.28125,0.082031 0.140625,-0.3398438 c 0.222656,-0.515625 0.339844,-0.5859375 0.84375,-0.5859375 1.03125,0 1.453125,0.3984375 1.488281,1.3945313 l -1.089843,0.1992187 c -1.476563,0.2695313 -2.097657,0.7851563 -2.097657,1.734375 0,0.84375002 0.515625,1.33593752 1.371094,1.33593752 0.199219,0 0.386719,-0.03515625 0.457031,-0.08203125 l 1.359375,-0.9375 -0.05859,0.92578125 c 0.28125,-0.0234375 0.5625,-0.035156245 0.855468,-0.035156245 0.269532,0 0.527344,0.011718745 0.808594,0.035156245 z M 51.374506,-1.3475844 c -0.316406,0.44531252 -1.007812,0.85546877 -1.429687,0.85546877 -0.445313,0 -0.820313,-0.3984375 -0.820313,-0.86718747 0,-0.4101563 0.210938,-0.7851563 0.539063,-0.9960938 0.28125,-0.1640625 0.878906,-0.3164062 1.710937,-0.4335937 z m 7.458985,-1.59375 c 0,-1.265625 -0.820313,-2.1796875 -1.980469,-2.1796875 -0.503906,0 -1.042969,0.1992188 -1.324219,0.4804688 l -0.597656,0.609375 v -3.796875 l -0.105469,-0.09375 c -0.480469,0.1875 -0.832031,0.2695312 -1.699219,0.4101562 v 0.3046875 h 0.609375 c 0.199219,0 0.269532,0.1171875 0.269532,0.4453125 v 5.0976563 c 0,0.66796872 0,0.96093747 -0.08203,1.73437497 l 0.175782,0.05859375 0.433593,-0.38671875 c 0.433594,0.28125 0.832032,0.38671875 1.40625,0.38671875 0.433594,0 0.714844,-0.0703125 0.9375,-0.234375 l 1.089844,-0.78515625 c 0.480469,-0.35156247 0.867188,-1.25390627 0.867188,-2.05078127 z m -0.949219,0.4453125 c 0,1.21875 -0.65625,2.07421877 -1.582031,2.07421877 -0.5625,0 -1.371094,-0.3515625 -1.371094,-0.59765627 v -2.34375 c 0,-0.1523437 0.105469,-0.3515625 0.28125,-0.5390625 0.304687,-0.3164062 0.726562,-0.5039062 1.171875,-0.5039062 0.925781,0 1.5,0.7382812 1.5,1.9101562 z m 4.391601,2.53125002 v -0.328125 l -0.503906,-0.0351563 c -0.363281,-0.0234375 -0.398437,-0.09375 -0.398437,-0.78515622 v -3.9609375 l -0.09375,-0.046875 c -0.5625,0.234375 -1.125,0.3867188 -1.710938,0.4570313 v 0.3046875 h 0.410156 c 0.433594,0 0.480469,0.070312 0.480469,0.796875 v 2.4492187 c 0,0.69140622 -0.03516,0.76171872 -0.410156,0.78515622 l -0.492188,0.0351563 v 0.328125 C 60.014155,0.01179062 60.459467,7.1875e-5 60.916498,7.1875e-5 c 0.457032,0 0.902344,0.011718745 1.359375,0.035156245 z M 61.455561,-6.9491469 c 0,-0.3164062 -0.210938,-0.5507812 -0.527344,-0.5507812 -0.339844,0 -0.5625,0.2226562 -0.5625,0.5507812 0,0.328125 0.222656,0.5507813 0.550781,0.5507813 0.328125,0 0.539063,-0.2226563 0.539063,-0.5507813 z m 3.996094,6.98437502 v -0.328125 l -0.503907,-0.0351563 c -0.363281,-0.0234375 -0.398437,-0.09375 -0.398437,-0.78515622 v -6.7148438 l -0.09375,-0.09375 c -0.480469,0.1875 -0.84375,0.2695313 -1.710938,0.4101563 v 0.3046875 h 0.621094 c 0.1875,0 0.269531,0.1171875 0.269531,0.4453125 v 5.6484374 c 0,0.69140632 -0.03516,0.76171882 -0.410156,0.78515632 l -0.492187,0.0351563 v 0.328125 C 63.189936,0.01179062 63.635248,7.1875e-5 64.09228,7.1875e-5 c 0.457031,0 0.902343,0.011718745 1.359375,0.035156245 z m 3.172851,0 v -0.328125 L 68.1206,-0.32805313 c -0.363281,-0.0234375 -0.398437,-0.09375 -0.398437,-0.78515627 v -3.9609375 l -0.09375,-0.046875 c -0.5625,0.234375 -1.125,0.3867188 -1.710938,0.4570313 v 0.3046875 h 0.410156 c 0.433594,0 0.480469,0.070312 0.480469,0.796875 v 2.4492187 c 0,0.69140627 -0.03516,0.76171877 -0.410156,0.78515627 l -0.492188,0.0351563 v 0.328125 C 66.362788,0.01179062 66.8081,7.1875e-5 67.265131,7.1875e-5 c 0.457032,0 0.902344,0.011718745 1.359375,0.035156245 z M 67.804194,-6.9491469 c 0,-0.3164062 -0.210938,-0.5507812 -0.527344,-0.5507812 -0.339844,0 -0.5625,0.2226562 -0.5625,0.5507812 0,0.328125 0.222656,0.5507813 0.550781,0.5507813 0.328125,0 0.539063,-0.2226563 0.539063,-0.5507813 z m 4.523437,2.1914063 -1.5,0.070312 v -0.421875 c 0,-0.4570313 0.03516,-0.84375 0.128907,-1.546875 l -0.128907,-0.1171875 c -0.269531,0.1640625 -0.597656,0.3046875 -0.9375,0.4101562 0.03516,0.328125 0.04687,0.5390625 0.04687,0.8671875 v 0.7617188 l -0.855468,0.3867187 v 0.2226563 l 0.832031,-0.046875 v 3.140625 c 0,0.80859372 0.363281,1.16015622 1.207031,1.16015622 0.246094,0 0.503906,-0.046875 0.574219,-0.128906245 l 0.527344,-0.574218755 -0.140625,-0.1875 c -0.28125,0.15234375 -0.445313,0.2109375 -0.644532,0.2109375 -0.433593,0 -0.609375,-0.22265625 -0.609375,-0.76171872 v -2.859375 h 1.40625 z m 6.00586,0.058594 v -0.3046875 c -0.339844,0.023437 -0.679688,0.023437 -1.03125,0.023437 -0.351563,0 -0.691407,0 -1.03125,-0.023437 v 0.3046875 l 0.28125,0.023437 c 0.328125,0.011719 0.46875,0.09375 0.46875,0.2695313 0,0.070312 -0.03516,0.1640625 -0.08203,0.28125 l -1.289062,3.18749997 C 75.403803,-1.3475844 75.298334,-1.6053969 75.087397,-2.1327406 l -0.703125,-1.8398438 c -0.05859,-0.1875 -0.105469,-0.328125 -0.105469,-0.4335937 0,-0.1757813 0.105469,-0.2578125 0.375,-0.2695313 l 0.410156,-0.023437 v -0.3046875 c -0.421875,0.023437 -0.84375,0.023437 -1.265625,0.023437 -0.421875,0 -0.84375,0 -1.265625,-0.023437 v 0.3046875 l 0.199219,0.023437 c 0.269531,0.023437 0.410156,0.1523438 0.5625,0.5273438 l 1.804688,4.40624997 -0.246094,0.66796875 C 74.501459,1.8399156 74.067866,2.3555406 73.657709,2.3555406 c -0.175781,0 -0.375,-0.082031 -0.550781,-0.2460937 h -0.152344 l -0.257812,0.8203125 c 0.210937,0.1054687 0.386719,0.1523437 0.585937,0.1523437 0.738282,0 1.207032,-0.3867187 1.617188,-1.3359375 l 2.214844,-5.109375 c 0.433593,-0.984375 0.644531,-1.3007812 0.914062,-1.3125 z m 3.111328,1.8046875 c 0,-0.8320312 -0.140625,-1.6171875 -0.421875,-2.34375 -0.421875,-1.0546875 -0.867188,-1.6523437 -2.003906,-2.6835937 l -0.199219,0.28125 c 0.796875,0.9375 1.089844,1.453125 1.359375,2.34375 0.222656,0.7148437 0.328125,1.4882812 0.328125,2.390625 0,0.9257812 -0.105469,1.7578125 -0.339844,2.54296872 -0.28125,0.984375 -0.5625,1.51171878 -1.347656,2.48437498 l 0.199219,0.2226563 c 0.761718,-0.703125 1.078125,-1.0664063 1.417968,-1.60546878 0.65625,-1.0546875 1.007813,-2.32031252 1.007813,-3.63281252 z m 0,0"
         style="fill:#000000;fill-opacity:1;fill-rule:nonzero;stroke:none" />
      <path
         id="path26"
         d="m 36.251459,120.96687 c 0,-2.39063 -0.714843,-3.51563 -2.203125,-3.51563 -1.6875,0 -2.554687,1.33594 -2.554687,3.97266 0,1.27734 0.234375,2.37891 0.609375,2.91797 0.386719,0.53906 0.996094,0.84375 1.675781,0.84375 1.640625,0 2.472656,-1.41797 2.472656,-4.21875 z m -0.914062,0.55078 c 0,2.32031 -0.421875,3.28125 -1.417969,3.28125 -1.066406,0 -1.511719,-1.10156 -1.511719,-3.76172 0,-2.30859 0.410157,-3.21094 1.441407,-3.21094 1.054687,0 1.488281,1.06641 1.488281,3.69141 z m 0,0"
         style="fill:#000000;fill-opacity:1;fill-rule:nonzero;stroke:none" />
      <path
         id="path27"
         d="m 64.291498,125.08601 c -0.02344,-0.23438 -0.02344,-0.33984 -0.02344,-0.49219 0,-0.14062 0,-0.25781 0.02344,-0.49219 l -3.773437,0.10547 1.980469,-2.09765 c 1.054687,-1.125 1.382812,-1.72266 1.382812,-2.54297 0,-1.25391 -0.84375,-2.02735 -2.238281,-2.02735 -0.785156,0 -1.3125,0.21094 -1.851563,0.76172 l -0.1875,1.47657 h 0.316407 l 0.140625,-0.49219 c 0.175781,-0.63281 0.574218,-0.91406 1.300781,-0.91406 0.9375,0 1.535156,0.59765 1.535156,1.52343 0,0.8086 -0.457031,1.61719 -1.6875,2.92969 l -1.851562,1.98047 v 0.28125 c 0.808593,-0.0234 1.628906,-0.0352 2.4375,-0.0352 0.820312,0 1.664062,0.0117 2.496093,0.0352 z m 0,0"
         style="fill:#000000;fill-opacity:1;fill-rule:nonzero;stroke:none" />
      <path
         id="path28"
         d="m 92.328608,125.14167 v -0.32812 l -0.515625,-0.0352 c -0.539063,-0.0352 -0.65625,-0.17578 -0.65625,-0.83203 v -0.82031 c 0.644531,0 0.867187,0.0117 1.171875,0.0469 v -0.77343 c 0,0 -0.527344,0.0352 -0.878906,0.0352 h -0.292969 v -1.52344 c 0,-1.93359 0.02344,-2.87109 0.07031,-3.3164 l -0.128906,-0.0586 -0.808594,0.29297 -3.082031,5.05078 0.117188,0.2461 h 2.917968 v 0.82031 c 0,0.65625 -0.128906,0.80859 -0.65625,0.83203 l -0.679687,0.0352 v 0.32812 c 0.585937,-0.0234 1.171875,-0.0352 1.757812,-0.0352 0.550782,0 1.113282,0.0117 1.664063,0.0352 z m -2.085938,-2.70703 h -2.34375 l 2.34375,-3.84375 z m 0,0"
         style="fill:#000000;fill-opacity:1;fill-rule:nonzero;stroke:none" />
      <path
         id="path29"
         d="m 120.29833,122.57234 c 0,-1.25391 -0.76171,-2.07422 -1.91015,-2.07422 -0.64453,0 -1.05469,0.26953 -1.76953,0.85547 0.23437,-1.98047 1.14843,-3.04688 3.10547,-3.63282 v -0.0937 l -0.39844,-0.17578 c -1.05469,0.33985 -1.5,0.5625 -2.05078,1.04297 -1.125,0.94922 -1.73438,2.27344 -1.73438,3.77344 0,1.80469 0.86719,2.91797 2.27344,2.91797 1.41797,0 2.48437,-1.125 2.48437,-2.61328 z m -0.9375,0.38672 c 0,1.13671 -0.5625,1.86328 -1.40625,1.86328 -0.92578,0 -1.41796,-0.79688 -1.41796,-2.26172 0,-0.375 0.0352,-0.58594 0.15234,-0.77344 0.24609,-0.375 0.76172,-0.63281 1.27734,-0.63281 0.83203,0 1.39453,0.72656 1.39453,1.80469 z m 0,0"
         style="fill:#000000;fill-opacity:1;fill-rule:nonzero;stroke:none" />
      <path
         id="path30"
         d="m 5.1235297,122.42585 v -0.64453 h -5.87109376 v 0.64453 z m 0,0"
         style="fill:#000000;fill-opacity:1;fill-rule:nonzero;stroke:none" />
      <path
         id="path31"
         d="m 10.944819,125.08601 c -0.02344,-0.23438 -0.02344,-0.33984 -0.02344,-0.49219 0,-0.14062 0,-0.25781 0.02344,-0.49219 L 7.1713813,124.2071 9.15185,122.10945 c 1.054688,-1.125 1.382813,-1.72266 1.382813,-2.54297 0,-1.25391 -0.8437505,-2.02735 -2.2382817,-2.02735 -0.7851563,0 -1.3125,0.21094 -1.8515625,0.76172 l -0.1875,1.47657 H 6.573725 l 0.140625,-0.49219 c 0.1757813,-0.63281 0.5742188,-0.91406 1.3007813,-0.91406 0.9375,0 1.5351562,0.59765 1.5351562,1.52343 0,0.8086 -0.4570312,1.61719 -1.6875,2.92969 l -1.8515625,1.98047 v 0.28125 c 0.8085938,-0.0234 1.6289063,-0.0352 2.4375,-0.0352 0.8203125,0 1.664063,0.0117 2.496094,0.0352 z m 0,0"
         style="fill:#000000;fill-opacity:1;fill-rule:nonzero;stroke:none" />
      <path
         id="path32"
         d="m -22.878423,122.48152 v -0.64453 h -5.871094 v 0.64453 z m 0,0"
         style="fill:#000000;fill-opacity:1;fill-rule:nonzero;stroke:none" />
      <path
         id="path33"
         d="m -17.021978,125.14167 v -0.32812 l -0.515625,-0.0352 c -0.539063,-0.0352 -0.65625,-0.17578 -0.65625,-0.83203 v -0.82031 c 0.644531,0 0.867187,0.0117 1.171875,0.0469 v -0.77343 c 0,0 -0.527344,0.0352 -0.878906,0.0352 h -0.292969 v -1.52344 c 0,-1.93359 0.02344,-2.87109 0.07031,-3.3164 l -0.128906,-0.0586 -0.808594,0.29297 -3.082031,5.05078 0.117188,0.2461 h 2.917968 v 0.82031 c 0,0.65625 -0.128906,0.80859 -0.65625,0.83203 l -0.679687,0.0352 v 0.32812 c 0.585937,-0.0234 1.171875,-0.0352 1.757812,-0.0352 0.550782,0 1.113282,0.0117 1.664063,0.0352 z m -2.085938,-2.70703 h -2.34375 l 2.34375,-3.84375 z m 0,0"
         style="fill:#000000;fill-opacity:1;fill-rule:nonzero;stroke:none" />
      <path
         id="path34"
         d="m -50.883306,122.33796 v -0.64453 H -56.7544 v 0.64453 z m 0,0"
         style="fill:#000000;fill-opacity:1;fill-rule:nonzero;stroke:none" />
      <path
         id="path35"
         d="m -45.062017,122.57234 c 0,-1.25391 -0.761719,-2.07422 -1.910156,-2.07422 -0.644532,0 -1.054688,0.26953 -1.769532,0.85547 0.234375,-1.98047 1.148438,-3.04688 3.105469,-3.63282 v -0.0937 l -0.398437,-0.17578 c -1.054688,0.33985 -1.5,0.5625 -2.050782,1.04297 -1.125,0.94922 -1.734375,2.27344 -1.734375,3.77344 0,1.80469 0.867188,2.91797 2.273438,2.91797 1.417969,0 2.484375,-1.125 2.484375,-2.61328 z m -0.9375,0.38672 c 0,1.13671 -0.5625,1.86328 -1.40625,1.86328 -0.925781,0 -1.417969,-0.79688 -1.417969,-2.26172 0,-0.375 0.03516,-0.58594 0.152344,-0.77344 0.246094,-0.375 0.761719,-0.63281 1.277344,-0.63281 0.832031,0 1.394531,0.72656 1.394531,1.80469 z m 0,0"
         style="fill:#000000;fill-opacity:1;fill-rule:nonzero;stroke:none" />
      <path
         id="path36"
         d="m 16.256342,84.966869 c 0,-2.390625 -0.714844,-3.515625 -2.203125,-3.515625 -1.6875,0 -2.554687,1.335937 -2.554687,3.972656 0,1.277344 0.234375,2.378906 0.609375,2.917969 0.386718,0.539062 0.996093,0.84375 1.675781,0.84375 1.640625,0 2.472656,-1.417969 2.472656,-4.21875 z M 15.34228,85.51765 c 0,2.320312 -0.421875,3.28125 -1.417969,3.28125 -1.066406,0 -1.511719,-1.101563 -1.511719,-3.761719 0,-2.308594 0.410156,-3.210937 1.441406,-3.210937 1.054688,0 1.488282,1.066406 1.488282,3.691406 z m 0,0"
         style="fill:#000000;fill-opacity:1;fill-rule:nonzero;stroke:none" />
      <path
         id="path37"
         d="m 18.802241,88.388744 c 0,-0.328125 -0.304688,-0.632813 -0.644532,-0.632813 -0.316406,0 -0.621093,0.304688 -0.621093,0.632813 0,0.328125 0.304687,0.632812 0.621093,0.632812 0.339844,0 0.644532,-0.292969 0.644532,-0.632812 z m 0,0"
         style="fill:#000000;fill-opacity:1;fill-rule:nonzero;stroke:none" />
      <path
         id="path38"
         d="m 24.834467,88.998119 c -0.02344,-0.234375 -0.02344,-0.339844 -0.02344,-0.492188 0,-0.140625 0,-0.257812 0.02344,-0.492187 l -3.773437,0.105468 1.980468,-2.097656 c 1.054688,-1.125 1.382813,-1.722656 1.382813,-2.542969 0,-1.253906 -0.84375,-2.027343 -2.238281,-2.027343 -0.785157,0 -1.3125,0.210937 -1.851563,0.761718 l -0.1875,1.476563 h 0.316406 l 0.140625,-0.492188 c 0.175782,-0.632812 0.574219,-0.914062 1.300782,-0.914062 0.9375,0 1.535156,0.597656 1.535156,1.523437 0,0.808594 -0.457031,1.617188 -1.6875,2.929688 l -1.851563,1.980469 v 0.28125 c 0.808594,-0.02344 1.628907,-0.03516 2.4375,-0.03516 0.820313,0 1.664063,0.01172 2.496094,0.03516 z m 5.34668,-2.800782 c 0,-1.230468 -0.878906,-2.097656 -2.121094,-2.097656 -0.527344,0 -0.914062,0.140625 -1.59375,0.539063 l 0.09375,-2.273438 3.328125,0.04687 0.05859,-0.04687 c -0.02344,-0.199219 -0.02344,-0.269531 -0.02344,-0.433594 0,-0.164062 0,-0.234375 0.02344,-0.433593 l -0.05859,-0.04687 c 0,0 -1.148437,0.04687 -1.898437,0.04687 -0.738282,0 -1.898438,-0.04687 -1.898438,-0.04687 l -0.04687,0.04687 0.01172,1.5 c 0,0.960937 -0.02344,1.96875 -0.05859,2.449218 l 0.210938,0.07031 c 0.515625,-0.515625 0.808593,-0.667969 1.347656,-0.667969 1.042969,0 1.699219,0.738281 1.699219,1.921875 0,1.207031 -0.691407,1.921875 -1.886719,1.921875 -0.585938,0 -1.136719,-0.199219 -1.289063,-0.480469 l -0.503906,-0.902343 -0.257812,0.152343 c 0.257812,0.632813 0.386718,0.972657 0.539062,1.453125 0.304688,0.164063 0.738281,0.269532 1.207031,0.269532 0.726563,0 1.511719,-0.316407 2.109375,-0.84375 0.667969,-0.585938 1.007813,-1.335938 1.007813,-2.144532 z m 0,0"
         style="fill:#000000;fill-opacity:1;fill-rule:nonzero;stroke:none" />
      <path
         id="path39"
         d="m 16.256342,60.966869 c 0,-2.390625 -0.714844,-3.515625 -2.203125,-3.515625 -1.6875,0 -2.554687,1.335937 -2.554687,3.972656 0,1.277344 0.234375,2.378906 0.609375,2.917969 0.386718,0.539062 0.996093,0.84375 1.675781,0.84375 1.640625,0 2.472656,-1.417969 2.472656,-4.21875 z M 15.34228,61.51765 c 0,2.320312 -0.421875,3.28125 -1.417969,3.28125 -1.066406,0 -1.511719,-1.101563 -1.511719,-3.761719 0,-2.308594 0.410156,-3.210937 1.441406,-3.210937 1.054688,0 1.488282,1.066406 1.488282,3.691406 z m 0,0"
         style="fill:#000000;fill-opacity:1;fill-rule:nonzero;stroke:none" />
      <path
         id="path40"
         d="m 18.802241,64.388744 c 0,-0.328125 -0.304688,-0.632813 -0.644532,-0.632813 -0.316406,0 -0.621093,0.304688 -0.621093,0.632813 0,0.328125 0.304687,0.632812 0.621093,0.632812 0.339844,0 0.644532,-0.292969 0.644532,-0.632812 z m 0,0"
         style="fill:#000000;fill-opacity:1;fill-rule:nonzero;stroke:none" />
      <path
         id="path41"
         d="m 24.728998,62.197337 c 0,-1.230468 -0.878906,-2.097656 -2.121093,-2.097656 -0.527344,0 -0.914063,0.140625 -1.59375,0.539063 l 0.09375,-2.273438 3.328125,0.04687 0.05859,-0.04687 c -0.02344,-0.199219 -0.02344,-0.269531 -0.02344,-0.433594 0,-0.164062 0,-0.234375 0.02344,-0.433593 l -0.05859,-0.04687 c 0,0 -1.148438,0.04687 -1.898438,0.04687 -0.738281,0 -1.898437,-0.04687 -1.898437,-0.04687 l -0.04687,0.04687 0.01172,1.5 c 0,0.960937 -0.02344,1.96875 -0.05859,2.449218 l 0.210937,0.07031 c 0.515625,-0.515625 0.808594,-0.667969 1.347656,-0.667969 1.042969,0 1.699219,0.738281 1.699219,1.921875 0,1.207031 -0.691406,1.921875 -1.886719,1.921875 -0.585937,0 -1.136718,-0.199219 -1.289062,-0.480469 l -0.503906,-0.902343 -0.257813,0.152343 c 0.257813,0.632813 0.386719,0.972657 0.539063,1.453125 0.304687,0.164063 0.738281,0.269532 1.207031,0.269532 0.726562,0 1.511719,-0.316407 2.109375,-0.84375 0.667969,-0.585938 1.007812,-1.335938 1.007812,-2.144532 z m 5.522461,-1.230468 c 0,-2.390625 -0.714843,-3.515625 -2.203125,-3.515625 -1.6875,0 -2.554687,1.335937 -2.554687,3.972656 0,1.277344 0.234375,2.378906 0.609375,2.917969 0.386719,0.539062 0.996094,0.84375 1.675781,0.84375 1.640625,0 2.472656,-1.417969 2.472656,-4.21875 z m -0.914062,0.550781 c 0,2.320312 -0.421875,3.28125 -1.417969,3.28125 -1.066406,0 -1.511719,-1.101563 -1.511719,-3.761719 0,-2.308594 0.410157,-3.210937 1.441407,-3.210937 1.054687,0 1.488281,1.066406 1.488281,3.691406 z m 0,0"
         style="fill:#000000;fill-opacity:1;fill-rule:nonzero;stroke:none" />
      <path
         id="path42"
         d="m 16.256342,35.964916 c 0,-2.390625 -0.714844,-3.515625 -2.203125,-3.515625 -1.6875,0 -2.554687,1.335937 -2.554687,3.972656 0,1.277344 0.234375,2.378906 0.609375,2.917969 0.386718,0.539062 0.996093,0.84375 1.675781,0.84375 1.640625,0 2.472656,-1.417969 2.472656,-4.21875 z m -0.914062,0.550781 c 0,2.320312 -0.421875,3.28125 -1.417969,3.28125 -1.066406,0 -1.511719,-1.101563 -1.511719,-3.761719 0,-2.308594 0.410156,-3.210937 1.441406,-3.210937 1.054688,0 1.488282,1.066406 1.488282,3.691406 z m 0,0"
         style="fill:#000000;fill-opacity:1;fill-rule:nonzero;stroke:none" />
      <path
         id="path43"
         d="m 18.802241,39.386791 c 0,-0.328125 -0.304688,-0.632813 -0.644532,-0.632813 -0.316406,0 -0.621093,0.304688 -0.621093,0.632813 0,0.328125 0.304687,0.632812 0.621093,0.632812 0.339844,0 0.644532,-0.292969 0.644532,-0.632812 z m 0,0"
         style="fill:#000000;fill-opacity:1;fill-rule:nonzero;stroke:none" />
      <path
         id="path44"
         d="m 25.150873,32.765697 v -0.316406 c -1.183593,0.03516 -1.277343,0.04687 -2.449218,0.04687 -1.148438,0 -1.324219,-0.01172 -2.390625,-0.04687 l -0.105469,0.04687 c 0,0 0.03516,0.703125 0.03516,1.148437 0,0.433594 -0.03516,1.113281 -0.03516,1.113281 h 0.328125 l 0.07031,-0.609375 c 0.09375,-0.679687 0.164063,-0.761718 0.667969,-0.761718 h 2.917969 c -0.433594,0.890625 -0.773438,1.523437 -1.195313,2.191406 l -2.660156,4.277344 0.105469,0.140625 c 0,0 0.304687,-0.03516 0.492187,-0.03516 0.199219,0 0.503907,0.03516 0.503907,0.03516 0.457031,-1.195313 0.738281,-1.898438 1.710937,-3.632813 z m 5.030274,4.429687 c 0,-1.230468 -0.878906,-2.097656 -2.121094,-2.097656 -0.527344,0 -0.914062,0.140625 -1.59375,0.539063 l 0.09375,-2.273438 3.328125,0.04687 0.05859,-0.04687 c -0.02344,-0.199219 -0.02344,-0.269531 -0.02344,-0.433594 0,-0.164062 0,-0.234375 0.02344,-0.433593 l -0.05859,-0.04687 c 0,0 -1.148437,0.04687 -1.898437,0.04687 -0.738282,0 -1.898438,-0.04687 -1.898438,-0.04687 l -0.04687,0.04687 0.01172,1.5 c 0,0.960937 -0.02344,1.96875 -0.05859,2.449218 l 0.210938,0.07031 c 0.515625,-0.515625 0.808593,-0.667969 1.347656,-0.667969 1.042969,0 1.699219,0.738281 1.699219,1.921875 0,1.207031 -0.691407,1.921875 -1.886719,1.921875 -0.585938,0 -1.136719,-0.199219 -1.289063,-0.480469 l -0.503906,-0.902343 -0.257812,0.152343 c 0.257812,0.632813 0.386718,0.972657 0.539062,1.453125 0.304688,0.164063 0.738281,0.269532 1.207031,0.269532 0.726563,0 1.511719,-0.316407 2.109375,-0.84375 0.667969,-0.585938 1.007813,-1.335938 1.007813,-2.144532 z m 0,0"
         style="fill:#000000;fill-opacity:1;fill-rule:nonzero;stroke:none" />
    </g>
    <path
       id="path45"
       d="M 235.154,127.134 H 214.75 v 9.692 h 20.404 z"
       style="fill:#ffffff;fill-opacity:1;fill-rule:nonzero;stroke:none"
       transform="matrix(1.3333333,0,0,-1.3333333,0,203.596)" />
    <g
       id="g45"
       aria-label="1.00"
       transform="matrix(1.3333333,0,0,1.3333333,286.3288,32.623067)">
      <path
         id="path46"
         d="m 4.5580875,0.03660625 v -0.328125 l -0.5625,-0.0351563 C 3.3979313,-0.36183125 3.2807438,-0.47901875 3.2807438,-1.0415188 v -6.46875 L 3.1284,-7.5688625 c -0.703125,0.375 -1.4765625,0.6914062 -2.47265625,1.0429687 l 0.0703125,0.46875 h 0.1171875 C 1.3237125,-6.2680813 1.8041813,-6.4907375 2.28465,-6.701675 c 0.058594,0 0.082031,0.1054687 0.082031,0.3632812 v 5.296875 c 0,0.56250005 -0.1171875,0.67968755 -0.703125,0.7148438 l -0.6210938,0.0351563 v 0.328125 C 1.6518375,0.01316875 2.2494938,0.00145 2.84715,0.00145 c 0.5625,0 1.1484375,0.01171875 1.7109375,0.03515625 z m 0,0"
         style="fill:#000000;fill-opacity:1;fill-rule:nonzero;stroke:none" />
      <path
         id="path47"
         d="m 7.6225406,-0.57276875 c 0,-0.328125 -0.3046875,-0.63281255 -0.6445312,-0.63281255 -0.3164063,0 -0.6210938,0.30468755 -0.6210938,0.63281255 0,0.328125 0.3046875,0.6328125 0.6210938,0.6328125 0.3398437,0 0.6445312,-0.29296875 0.6445312,-0.6328125 z m 0,0"
         style="fill:#000000;fill-opacity:1;fill-rule:nonzero;stroke:none" />
      <path
         id="path48"
         d="m 13.616681,-3.9946438 c 0,-2.390625 -0.714843,-3.515625 -2.203125,-3.515625 -1.6874997,0 -2.5546872,1.3359375 -2.5546872,3.9726563 0,1.2773437 0.234375,2.3789062 0.609375,2.91796875 0.3867187,0.5390625 0.9960942,0.84375 1.6757812,0.84375 1.640625,0 2.472656,-1.41796875 2.472656,-4.21875005 z m -0.914062,0.5507813 c 0,2.3203125 -0.421875,3.28125 -1.417969,3.28125 -1.066406,0 -1.5117187,-1.1015625 -1.5117187,-3.7617188 0,-2.3085937 0.4101567,-3.2109375 1.4414067,-3.2109375 1.054687,0 1.488281,1.0664063 1.488281,3.6914063 z m 6.36914,-0.5507813 c 0,-2.390625 -0.714843,-3.515625 -2.203125,-3.515625 -1.6875,0 -2.554687,1.3359375 -2.554687,3.9726563 0,1.2773437 0.234375,2.3789062 0.609375,2.91796875 0.386719,0.5390625 0.996094,0.84375 1.675781,0.84375 1.640625,0 2.472656,-1.41796875 2.472656,-4.21875005 z m -0.914062,0.5507813 c 0,2.3203125 -0.421875,3.28125 -1.417969,3.28125 -1.066406,0 -1.511719,-1.1015625 -1.511719,-3.7617188 0,-2.3085937 0.410157,-3.2109375 1.441407,-3.2109375 1.054687,0 1.488281,1.0664063 1.488281,3.6914063 z m 0,0"
         style="fill:#000000;fill-opacity:1;fill-rule:nonzero;stroke:none" />
    </g>
  </g>
</svg>
