<?xml version="1.0" encoding="UTF-8"?>
<svg xmlns="http://www.w3.org/2000/svg" version="1.1" xmlns:xlink="http://www.w3.org/1999/xlink" viewBox="0 0 255.43 192.14">
  <!-- Generator: Adobe Illustrator 29.5.1, SVG Export Plug-In . SVG Version: 2.1.0 Build 141)  -->
  <defs>
    <style>
      .st0 {
        stroke: #ccc;
      }

      .st0, .st1, .st2 {
        fill: none;
      }

      .st0, .st3 {
        opacity: .8;
      }

      .st0, .st2 {
        stroke-miterlimit: 10;
      }

      .st4 {
        clip-path: url(#clippath-34);
      }

      .st5 {
        clip-path: url(#clippath-38);
      }

      .st6 {
        clip-path: url(#clippath-21);
      }

      .st7 {
        clip-path: url(#clippath-6);
      }

      .st8 {
        clip-path: url(#clippath-7);
      }

      .st9 {
        clip-path: url(#clippath-17);
      }

      .st10 {
        clip-path: url(#clippath-31);
      }

      .st11 {
        clip-path: url(#clippath-15);
      }

      .st12 {
        clip-path: url(#clippath-33);
      }

      .st13 {
        clip-path: url(#clippath-18);
      }

      .st14 {
        clip-path: url(#clippath-4);
      }

      .st15 {
        fill: gray;
      }

      .st16 {
        clip-path: url(#clippath-22);
      }

      .st17 {
        clip-path: url(#clippath-23);
      }

      .st18 {
        fill: #cab6a5;
      }

      .st19 {
        fill: #231f20;
      }

      .st20 {
        clip-path: url(#clippath-9);
      }

      .st21 {
        clip-path: url(#clippath-10);
      }

      .st22 {
        clip-path: url(#clippath-42);
      }

      .st23 {
        font-family: TeXGyrePagellaX-Regular, 'TeXGyrePagellaX Regular';
      }

      .st23, .st24, .st25, .st26 {
        font-size: 10.91px;
      }

      .st27 {
        clip-path: url(#clippath-25);
      }

      .st28 {
        clip-path: url(#clippath-27);
      }

      .st29 {
        clip-path: url(#clippath-11);
      }

      .st30 {
        clip-path: url(#clippath-36);
      }

      .st31 {
        clip-path: url(#clippath-35);
      }

      .st32 {
        clip-path: url(#clippath-28);
      }

      .st33 {
        fill: #fee1c8;
      }

      .st34 {
        clip-path: url(#clippath-1);
      }

      .st35 {
        fill: #dfc7b1;
      }

      .st36 {
        fill: #e48025;
      }

      .st3 {
        fill: #fff;
      }

      .st37 {
        clip-path: url(#clippath-40);
      }

      .st24 {
        font-family: NewPXMI, NewPXMI;
      }

      .st38 {
        clip-path: url(#clippath-5);
      }

      .st39 {
        clip-path: url(#clippath-20);
      }

      .st40 {
        clip-path: url(#clippath-8);
      }

      .st41 {
        clip-path: url(#clippath-41);
      }

      .st42 {
        clip-path: url(#clippath-3);
      }

      .st43 {
        clip-path: url(#clippath-26);
      }

      .st44 {
        fill: #dddbdb;
      }

      .st45 {
        fill: #6681aa;
      }

      .st46 {
        clip-path: url(#clippath-12);
      }

      .st25 {
        font-family: pxsys, pxsys;
      }

      .st47 {
        fill: #d8ddec;
      }

      .st48 {
        clip-path: url(#clippath-14);
      }

      .st49 {
        fill: #666766;
      }

      .st50 {
        clip-path: url(#clippath-30);
      }

      .st51 {
        clip-path: url(#clippath-19);
      }

      .st52 {
        font-family: PalatinoLinotype-Roman, 'Palatino Linotype';
        font-size: 10.31px;
      }

      .st53 {
        clip-path: url(#clippath-32);
      }

      .st54 {
        fill: #7e818e;
      }

      .st2 {
        stroke: #231f20;
      }

      .st26 {
        font-family: pxmiaX, pxmiaX;
      }

      .st55 {
        clip-path: url(#clippath-39);
      }

      .st56 {
        fill: #f57f20;
      }

      .st56, .st57 {
        fill-rule: evenodd;
      }

      .st58 {
        fill: #7e8191;
      }

      .st59 {
        clip-path: url(#clippath-16);
      }

      .st60 {
        clip-path: url(#clippath-2);
      }

      .st61 {
        clip-path: url(#clippath-29);
      }

      .st62 {
        clip-path: url(#clippath-37);
      }

      .st63 {
        clip-path: url(#clippath-13);
      }

      .st64 {
        fill: #e1c7ad;
      }

      .st57 {
        fill: #5e81b6;
      }

      .st65 {
        clip-path: url(#clippath-24);
      }

      .st66 {
        clip-path: url(#clippath);
      }

      .st67 {
        opacity: .7;
      }

      .st68 {
        fill: #c3c6d0;
      }
    </style>
    <clipPath id="clippath">
      <polyline class="st1" points="18.46 -.83 190.29 -.83 190.29 177.87 18.46 177.87 18.46 -.83"/>
    </clipPath>
    <clipPath id="clippath-1">
      <polyline class="st1" points="77.74 140.93 80.32 140.93 80.32 160.42 77.74 160.42 77.74 140.93"/>
    </clipPath>
    <clipPath id="clippath-2">
      <polyline class="st1" points="93.21 128.04 94.92 128.04 94.92 160.42 93.21 160.42 93.21 128.04"/>
    </clipPath>
    <clipPath id="clippath-3">
      <polyline class="st1" points="107.81 121.17 110.39 121.17 110.39 160.42 107.81 160.42 107.81 121.17"/>
    </clipPath>
    <clipPath id="clippath-4">
      <polyline class="st1" points="123.28 128.04 124.99 128.04 124.99 160.42 123.28 160.42 123.28 128.04"/>
    </clipPath>
    <clipPath id="clippath-5">
      <polyline class="st1" points="137.88 140.93 140.46 140.93 140.46 160.42 137.88 160.42 137.88 140.93"/>
    </clipPath>
    <clipPath id="clippath-6">
      <polyline class="st1" points="31.35 158.15 35.58 158.15 35.58 160.42 31.35 160.42 31.35 158.15"/>
    </clipPath>
    <clipPath id="clippath-7">
      <polyline class="st1" points="46.3 156.7 50.63 156.7 50.63 160.42 46.3 160.42 46.3 156.7"/>
    </clipPath>
    <clipPath id="clippath-8">
      <polyline class="st1" points="61.56 151.55 65.89 151.55 65.89 155.88 61.56 155.88 61.56 151.55"/>
    </clipPath>
    <clipPath id="clippath-9">
      <polyline class="st1" points="76.61 140.21 80.94 140.21 80.94 144.54 76.61 144.54 76.61 140.21"/>
    </clipPath>
    <clipPath id="clippath-10">
      <polyline class="st1" points="91.66 126.6 95.99 126.6 95.99 130.93 91.66 130.93 91.66 126.6"/>
    </clipPath>
    <clipPath id="clippath-11">
      <polyline class="st1" points="106.95 120.31 111.25 120.31 111.25 124.54 106.95 124.54 106.95 120.31"/>
    </clipPath>
    <clipPath id="clippath-12">
      <polyline class="st1" points="121.97 126.6 126.3 126.6 126.3 130.93 121.97 130.93 121.97 126.6"/>
    </clipPath>
    <clipPath id="clippath-13">
      <polyline class="st1" points="137.02 140.21 141.35 140.21 141.35 144.54 137.02 144.54 137.02 140.21"/>
    </clipPath>
    <clipPath id="clippath-14">
      <polyline class="st1" points="152.28 151.55 156.61 151.55 156.61 155.88 152.28 155.88 152.28 151.55"/>
    </clipPath>
    <clipPath id="clippath-15">
      <polyline class="st1" points="167.33 156.7 171.66 156.7 171.66 160.42 167.33 160.42 167.33 156.7"/>
    </clipPath>
    <clipPath id="clippath-16">
      <polyline class="st1" points="182.56 158.15 186.71 158.15 186.71 160.42 182.56 160.42 182.56 158.15"/>
    </clipPath>
    <clipPath id="clippath-17">
      <polyline class="st1" points="184.27 159.83 186.85 159.83 186.85 160.42 184.27 160.42 184.27 159.83"/>
    </clipPath>
    <clipPath id="clippath-18">
      <polyline class="st1" points="33.07 5.19 35.64 5.19 35.64 160.42 33.07 160.42 33.07 5.19"/>
    </clipPath>
    <clipPath id="clippath-19">
      <polyline class="st1" points="48.53 5.19 50.25 5.19 50.25 160.42 48.53 160.42 48.53 5.19"/>
    </clipPath>
    <clipPath id="clippath-20">
      <polyline class="st1" points="63.14 6.91 65.71 6.91 65.71 160.42 63.14 160.42 63.14 6.91"/>
    </clipPath>
    <clipPath id="clippath-21">
      <polyline class="st1" points="78.6 13.78 81.18 13.78 81.18 160.42 78.6 160.42 78.6 13.78"/>
    </clipPath>
    <clipPath id="clippath-22">
      <polyline class="st1" points="94.07 31.82 95.78 31.82 95.78 160.42 94.07 160.42 94.07 31.82"/>
    </clipPath>
    <clipPath id="clippath-23">
      <polyline class="st1" points="108.67 63.61 111.25 63.61 111.25 160.42 108.67 160.42 108.67 63.61"/>
    </clipPath>
    <clipPath id="clippath-24">
      <polyline class="st1" points="124.14 101.41 125.85 101.41 125.85 160.42 124.14 160.42 124.14 101.41"/>
    </clipPath>
    <clipPath id="clippath-25">
      <polyline class="st1" points="138.74 133.2 141.32 133.2 141.32 160.42 138.74 160.42 138.74 133.2"/>
    </clipPath>
    <clipPath id="clippath-26">
      <polyline class="st1" points="32.21 4.12 36.4 4.12 36.4 8.45 32.21 8.45 32.21 4.12"/>
    </clipPath>
    <clipPath id="clippath-27">
      <polyline class="st1" points="47.33 4.33 51.66 4.33 51.66 8.45 47.33 8.45 47.33 4.33"/>
    </clipPath>
    <clipPath id="clippath-28">
      <polyline class="st1" points="62.38 5.77 66.71 5.77 66.71 10.1 62.38 10.1 62.38 5.77"/>
    </clipPath>
    <clipPath id="clippath-29">
      <polyline class="st1" points="77.43 12.58 81.76 12.58 81.76 16.91 77.43 16.91 77.43 12.58"/>
    </clipPath>
    <clipPath id="clippath-30">
      <polyline class="st1" points="92.69 30.52 97.02 30.52 97.02 34.84 92.69 34.84 92.69 30.52"/>
    </clipPath>
    <clipPath id="clippath-31">
      <polyline class="st1" points="107.81 62.27 112.07 62.27 112.07 66.6 107.81 66.6 107.81 62.27"/>
    </clipPath>
    <clipPath id="clippath-32">
      <polyline class="st1" points="122.8 100.21 127.12 100.21 127.12 104.54 122.8 104.54 122.8 100.21"/>
    </clipPath>
    <clipPath id="clippath-33">
      <polyline class="st1" points="138.05 131.96 142.38 131.96 142.38 136.29 138.05 136.29 138.05 131.96"/>
    </clipPath>
    <clipPath id="clippath-34">
      <polyline class="st1" points="153.1 150.11 157.44 150.11 157.44 154.44 153.1 154.44 153.1 150.11"/>
    </clipPath>
    <clipPath id="clippath-35">
      <polyline class="st1" points="168.16 156.7 172.49 156.7 172.49 160.42 168.16 160.42 168.16 156.7"/>
    </clipPath>
    <clipPath id="clippath-36">
      <polyline class="st1" points="183.42 158.35 187.71 158.35 187.71 160.42 183.42 160.42 183.42 158.35"/>
    </clipPath>
    <clipPath id="clippath-37">
      <polyline class="st1" points="33.93 152.1 185.13 152.1 185.13 160.42 33.93 160.42 33.93 152.1"/>
    </clipPath>
    <clipPath id="clippath-38">
      <rect class="st1" x="0" y="53.87" width="13.04" height="55.51"/>
    </clipPath>
    <clipPath id="clippath-39">
      <rect class="st1" x="154.74" y="3.96" width="67.56" height="13.33"/>
    </clipPath>
    <clipPath id="clippath-40">
      <rect class="st1" x="154.81" y="18.39" width="95.43" height="14.47"/>
    </clipPath>
    <clipPath id="clippath-41">
      <polyline class="st1" points="146.81 23.27 151.07 23.27 151.07 27.6 146.81 27.6 146.81 23.27"/>
    </clipPath>
    <clipPath id="clippath-42">
      <polyline class="st1" points="146.66 7.6 150.99 7.6 150.99 11.93 146.66 11.93 146.66 7.6"/>
    </clipPath>
  </defs>
  <g id="Layer_2">
    <g class="st66">
      <g class="st34">
        <path class="st47" d="M78.15,144.4v8.43h.91v-8.32c-.07,0-.15.01-.22.01-.24,0-.47-.04-.69-.12"/>
      </g>
      <g class="st60">
        <path class="st47" d="M93.27,130.82v22.01h.91v-21.9s-.01,0-.02,0h-.41c-.16-.02-.33-.05-.48-.11"/>
      </g>
      <g class="st42">
        <path class="st47" d="M108.39,124.49v28.34h.91v-28.29h-.74c-.06-.01-.11-.03-.17-.05"/>
      </g>
      <g class="st14">
        <path class="st47" d="M123.51,130.82v22.01h.91v-21.9s-.01,0-.02,0h-.41c-.16-.02-.33-.05-.48-.11"/>
      </g>
      <g class="st38">
        <path class="st47" d="M138.63,144.4v8.43h.91v-8.32c-.07,0-.15.01-.22.01-.24,0-.47-.04-.69-.12"/>
      </g>
      <g class="st7">
        <path class="st57" d="M35.53,160.4c0-.55-.21-1.07-.6-1.46-.39-.39-.91-.6-1.46-.6s-1.07.22-1.46.6c-.39.39-.6.91-.6,1.46s.22,1.07.6,1.46c.39.39.91.6,1.46.6s1.07-.22,1.46-.6c.39-.39.6-.91.6-1.46"/>
      </g>
      <g class="st8">
        <path class="st57" d="M50.66,159.04c0-.55-.22-1.07-.6-1.46-.39-.39-.91-.6-1.46-.6s-1.07.21-1.46.6c-.39.39-.6.91-.6,1.46s.22,1.07.6,1.46c.39.39.91.6,1.46.6s1.07-.21,1.46-.6c.39-.39.6-.91.6-1.46"/>
      </g>
      <g class="st40">
        <path class="st57" d="M65.77,153.76c0-.55-.21-1.07-.6-1.46-.39-.39-.91-.6-1.46-.6s-1.07.22-1.46.6c-.39.39-.6.91-.6,1.46s.21,1.07.6,1.46c.39.39.91.6,1.46.6s1.07-.22,1.46-.6c.39-.39.6-.91.6-1.46"/>
      </g>
      <g class="st20">
        <path class="st57" d="M80.9,142.45c0-.55-.22-1.07-.6-1.46-.39-.39-.91-.6-1.46-.6s-1.07.21-1.46.6c-.39.39-.6.91-.6,1.46s.22,1.07.6,1.46c.39.39.91.6,1.46.6s1.07-.22,1.46-.6c.39-.39.6-.91.6-1.46"/>
      </g>
      <g class="st21">
        <path class="st57" d="M96.02,128.88c0-.55-.22-1.07-.6-1.46-.39-.39-.91-.6-1.46-.6s-1.07.21-1.46.6c-.39.39-.6.91-.6,1.46s.22,1.07.6,1.46c.39.39.91.6,1.46.6s1.07-.21,1.46-.6c.39-.39.6-.91.6-1.46"/>
      </g>
      <g class="st29">
        <path class="st57" d="M111.14,122.55c0-.55-.21-1.07-.6-1.46-.39-.39-.91-.6-1.46-.6s-1.07.22-1.46.6c-.39.39-.6.91-.6,1.46s.22,1.07.6,1.46c.39.39.91.6,1.46.6s1.07-.22,1.46-.6c.39-.39.6-.91.6-1.46"/>
      </g>
      <g class="st46">
        <path class="st57" d="M126.26,128.88c0-.55-.22-1.07-.6-1.46-.39-.39-.91-.6-1.46-.6s-1.07.21-1.46.6c-.39.39-.6.91-.6,1.46s.22,1.07.6,1.46c.39.39.91.6,1.46.6s1.07-.21,1.46-.6c.39-.39.6-.91.6-1.46"/>
      </g>
      <g class="st63">
        <path class="st57" d="M141.38,142.45c0-.55-.21-1.07-.6-1.46-.39-.39-.91-.6-1.46-.6s-1.07.21-1.46.6c-.39.39-.6.91-.6,1.46s.21,1.07.6,1.46c.39.39.91.6,1.46.6s1.07-.22,1.46-.6c.39-.39.6-.91.6-1.46"/>
      </g>
      <g class="st48">
        <path class="st57" d="M156.5,153.76c0-.55-.22-1.07-.6-1.46-.39-.39-.91-.6-1.46-.6s-1.07.22-1.46.6c-.39.39-.6.91-.6,1.46s.22,1.07.6,1.46c.39.39.91.6,1.46.6s1.07-.22,1.46-.6c.39-.39.6-.91.6-1.46"/>
      </g>
      <g class="st11">
        <path class="st57" d="M171.62,159.04c0-.55-.22-1.07-.6-1.46-.39-.39-.91-.6-1.46-.6s-1.07.21-1.46.6c-.39.39-.6.91-.6,1.46s.22,1.07.6,1.46c.39.39.91.6,1.46.6s1.07-.21,1.46-.6c.39-.39.6-.91.6-1.46"/>
      </g>
      <g class="st59">
        <path class="st57" d="M186.74,160.4c0-.55-.21-1.07-.6-1.46-.39-.39-.91-.6-1.46-.6s-1.07.22-1.46.6c-.39.39-.6.91-.6,1.46s.22,1.07.6,1.46c.39.39.91.6,1.46.6s1.07-.22,1.46-.6c.39-.39.6-.91.6-1.46"/>
      </g>
      <g class="st9">
        <polyline class="st58" points="186.26 160.42 185.13 160.42 185.13 160.42 184.91 160.42 184.91 160.42 186.26 160.42 186.26 160.42"/>
      </g>
      <g class="st13">
        <path class="st33" d="M35.07,5.59h-1.37v152.75c.08,0,.16.02.23.04v-5.56h1.14V5.59"/>
        <path class="st58" d="M33.69,158.35v2.07h1.37-1.14v-2.03c-.08-.02-.16-.03-.23-.04"/>
      </g>
      <g class="st51">
        <polyline class="st33" points="50.19 5.74 48.81 5.74 48.81 152.83 50.19 152.83 50.19 5.74"/>
      </g>
      <g class="st39">
        <path class="st33" d="M65.31,7.25h-1.37v144.46c.47.05.9.26,1.24.59.05.05.09.1.14.15V7.25"/>
        <path class="st58" d="M63.93,151.71v1.12h1.37v-.37c-.04-.05-.09-.1-.14-.15-.33-.33-.77-.54-1.24-.59"/>
      </g>
      <g class="st6">
        <path class="st33" d="M80.43,143.76c-.04.05-.09.1-.14.15-.22.22-.48.38-.77.49v8.43h.91v-9.07M80.43,14.04h-1.37v126.36c.47.05.9.26,1.24.59.05.05.09.1.14.15V14.04"/>
        <path class="st35" d="M79.52,144.4c-.15.05-.31.09-.47.11v8.32h.47v-8.43"/>
        <path class="st58" d="M79.05,140.4v4.1c.16-.02.32-.05.47-.11.29-.1.55-.27.77-.49.05-.05.09-.1.14-.15v-2.61c-.04-.05-.09-.1-.14-.15-.33-.34-.77-.54-1.24-.59"/>
      </g>
      <g class="st16">
        <path class="st33" d="M95.55,130.18c-.04.05-.09.1-.14.15-.22.22-.49.39-.77.49v22.01h.91v-22.64M95.55,32.13h-1.37v94.7c.47.05.9.26,1.24.59.05.05.09.1.14.15V32.13"/>
        <path class="st35" d="M94.64,130.82c-.15.05-.31.09-.46.11v21.9h.46v-22.01"/>
        <path class="st58" d="M94.18,126.83v4.1c.16-.02.32-.05.46-.11.29-.1.55-.27.77-.49.05-.05.09-.1.14-.15v-2.61c-.04-.05-.09-.1-.14-.15-.34-.34-.77-.54-1.24-.59"/>
      </g>
      <g class="st17">
        <path class="st33" d="M110.67,123.85c-.04.05-.09.1-.14.15-.22.22-.48.38-.77.49v28.34h.91v-28.97M110.67,63.8h-1.37v56.69c.47.05.9.26,1.24.59.05.05.09.1.14.15v-57.44"/>
        <path class="st35" d="M109.76,124.49c-.05.02-.11.04-.17.05h-.3v28.29h.47v-28.34"/>
        <path class="st58" d="M109.3,120.49v4.05h.3c.06-.01.11-.03.17-.05.29-.1.55-.27.77-.49.05-.05.09-.1.14-.15v-2.62c-.04-.05-.09-.1-.14-.15-.33-.33-.77-.54-1.24-.59"/>
      </g>
      <g class="st65">
        <path class="st33" d="M125.79,130.19c-.04.05-.09.1-.14.15-.22.22-.48.39-.77.49v22h.91v-22.64M125.79,101.8h-1.37v25.03c.47.05.9.26,1.24.59.05.05.09.1.14.15v-25.77"/>
        <path class="st35" d="M124.88,130.82c-.15.05-.31.09-.46.1v21.9h.46v-22"/>
        <path class="st58" d="M124.42,126.83v4.1c.16-.02.32-.05.46-.1.29-.1.55-.27.77-.49.05-.05.09-.1.14-.15v-2.61c-.04-.05-.09-.1-.14-.15-.33-.34-.77-.54-1.24-.59"/>
      </g>
      <g class="st27">
        <path class="st33" d="M140.91,143.76c-.04.05-.09.1-.14.15-.22.22-.48.38-.77.49v8.43h.91v-9.07M140.91,133.47h-1.37v6.93c.47.05.9.26,1.24.59.05.05.09.1.14.15v-7.67"/>
        <path class="st35" d="M140,144.4c-.15.05-.31.09-.47.11v8.32h.47v-8.43"/>
        <path class="st58" d="M139.54,140.4v4.1c.16-.02.32-.05.47-.11.29-.1.55-.27.77-.49.05-.05.09-.1.14-.15v-2.61c-.04-.05-.09-.1-.14-.15-.33-.34-.77-.54-1.24-.59"/>
      </g>
      <g class="st43">
        <path class="st56" d="M36.44,6.28c0-.55-.22-1.07-.6-1.46-.39-.39-.91-.6-1.46-.6s-1.07.22-1.46.6c-.39.39-.6.91-.6,1.46s.21,1.07.6,1.46.91.6,1.46.6,1.07-.22,1.46-.6c.39-.39.6-.91.6-1.46Z"/>
      </g>
      <g class="st28">
        <path class="st56" d="M51.56,6.43c0-.55-.22-1.07-.6-1.46-.39-.39-.91-.6-1.46-.6s-1.07.21-1.46.6c-.39.39-.6.91-.6,1.46s.22,1.07.6,1.46c.39.39.91.6,1.46.6s1.07-.22,1.46-.6c.39-.39.6-.91.6-1.46Z"/>
      </g>
      <g class="st32">
        <path class="st56" d="M66.68,7.94c0-.54-.22-1.07-.6-1.46-.39-.39-.91-.6-1.46-.6s-1.07.22-1.46.6c-.39.39-.6.91-.6,1.46s.22,1.07.6,1.46c.39.39.91.6,1.46.6s1.07-.22,1.46-.6c.39-.39.6-.91.6-1.46Z"/>
      </g>
      <g class="st61">
        <path class="st56" d="M81.8,14.73c0-.55-.21-1.07-.6-1.46-.39-.39-.91-.6-1.46-.6s-1.07.22-1.46.6c-.39.39-.6.91-.6,1.46s.21,1.07.6,1.46c.39.39.91.6,1.46.6s1.07-.22,1.46-.6c.39-.39.6-.91.6-1.46Z"/>
      </g>
      <g class="st50">
        <path class="st56" d="M96.92,32.82c0-.55-.22-1.07-.6-1.46-.39-.39-.91-.6-1.46-.6s-1.07.22-1.46.6c-.39.39-.6.91-.6,1.46s.22,1.07.6,1.46c.39.39.91.6,1.46.6s1.07-.22,1.46-.6c.39-.39.6-.91.6-1.46Z"/>
      </g>
      <g class="st10">
        <path class="st56" d="M112.05,64.49c0-.55-.22-1.07-.6-1.46-.39-.39-.91-.6-1.46-.6s-1.07.21-1.46.6c-.39.39-.6.91-.6,1.46s.21,1.07.6,1.46c.39.39.91.6,1.46.6s1.07-.21,1.46-.6c.39-.39.6-.91.6-1.46Z"/>
      </g>
      <g class="st53">
        <path class="st56" d="M127.17,102.49c0-.54-.22-1.07-.6-1.46-.39-.39-.91-.6-1.46-.6s-1.07.22-1.46.6c-.39.39-.6.91-.6,1.46s.22,1.07.6,1.46c.39.39.91.6,1.46.6s1.07-.22,1.46-.6.6-.91.6-1.46Z"/>
      </g>
      <g class="st12">
        <path class="st56" d="M142.29,134.16c0-.55-.22-1.07-.6-1.46-.39-.39-.91-.6-1.46-.6s-1.07.22-1.46.6c-.39.39-.6.91-.6,1.46s.22,1.07.6,1.46c.39.39.91.6,1.46.6s1.07-.22,1.46-.6c.39-.39.6-.91.6-1.46Z"/>
      </g>
      <g class="st4">
        <path class="st56" d="M157.41,152.25c0-.55-.21-1.07-.6-1.46-.39-.39-.91-.6-1.46-.6s-1.07.21-1.46.6c-.39.39-.6.91-.6,1.46s.21,1.07.6,1.46c.39.39.91.6,1.46.6s1.07-.21,1.46-.6c.39-.39.6-.91.6-1.46"/>
      </g>
      <g class="st31">
        <path class="st56" d="M172.53,159.04c0-.55-.22-1.07-.6-1.46-.39-.39-.91-.6-1.46-.6s-1.07.21-1.46.6c-.39.39-.6.91-.6,1.46s.22,1.07.6,1.46c.39.39.91.6,1.46.6s1.07-.21,1.46-.6c.39-.39.6-.91.6-1.46"/>
      </g>
      <g class="st30">
        <path class="st56" d="M187.65,160.55c0-.55-.22-1.07-.6-1.46-.39-.39-.91-.6-1.46-.6s-1.07.22-1.46.6c-.39.39-.6.91-.6,1.46s.21,1.07.6,1.46c.39.39.91.6,1.46.6s1.07-.22,1.46-.6c.39-.39.6-.91.6-1.46"/>
      </g>
      <g class="st62">
        <path class="st44" d="M48.81,152.83h-13.75v6.26c.3.37.47.83.47,1.31,0,0,0,.01,0,.02h12.37s-.85,0-.85,0c-.34-.38-.53-.87-.53-1.38,0-.55.22-1.07.6-1.46.39-.39.91-.6,1.46-.6.07,0,.15,0,.22.01v-4.16M61.88,152.83h-11.69v4.91c.23.28.38.61.44.97v.67c-.06.36-.21.69-.44.97v.07h12.84v-4.71c-.29-.1-.55-.27-.77-.49-.39-.39-.6-.91-.6-1.46,0-.33.08-.65.22-.93M78.15,152.83h-12.6c.15.29.22.61.22.93,0,.48-.16.94-.47,1.31v5.35h12.84v-7.59M93.27,152.83h-12.84v7.59h12.84v-7.59M108.39,152.83h-12.84v7.59h12.84v-7.59M123.51,152.83h-12.84v7.59h12.84v-7.59M138.63,152.83h-12.84v7.59h12.84v-7.59M152.6,152.83h-11.69v7.59h12.84v-4.71c-.29-.1-.55-.27-.77-.49-.39-.39-.6-.91-.6-1.46,0-.33.08-.65.22-.93M185.13,152.83h-27.81c-.1.33-.27.63-.52.88-.1.1-.2.18-.31.26-.04.4-.2.79-.46,1.1v5.35h12.84s-.85,0-.85,0c-.34-.38-.53-.87-.53-1.38,0-.55.22-1.07.6-1.46.39-.39.91-.6,1.46-.6.15,0,.31.02.45.05.15-.03.3-.05.46-.05.55,0,1.07.21,1.46.6.29.29.48.66.56,1.05v.81c-.07.36-.24.69-.49.97h-.85s11.46,0,11.46,0c0,0,0-.01,0-.02,0-.55.22-1.07.6-1.46.39-.39.91-.6,1.46-.6.15,0,.31.02.45.05v-5.56"/>
        <polyline class="st68" points="48.81 160.42 47.9 160.42 47.9 160.42 48.81 160.42 48.81 160.42"/>
        <path class="st68" d="M63.03,155.71v4.71h.91v-4.6c-.07,0-.15.01-.22.01-.24,0-.47-.04-.69-.12"/>
        <polyline class="st68" points="79.05 152.83 78.15 152.83 78.15 160.42 79.05 160.42 79.05 152.83"/>
        <polyline class="st68" points="94.18 152.83 93.27 152.83 93.27 160.42 94.18 160.42 94.18 152.83"/>
        <polyline class="st68" points="109.3 152.83 108.39 152.83 108.39 160.42 109.3 160.42 109.3 152.83"/>
        <polyline class="st68" points="124.42 152.83 123.51 152.83 123.51 160.42 124.42 160.42 124.42 152.83"/>
        <polyline class="st68" points="139.54 152.83 138.63 152.83 138.63 160.42 139.54 160.42 139.54 152.83"/>
        <path class="st68" d="M153.75,155.71v4.71h.91v-4.6c-.07,0-.15.01-.22.01-.24,0-.47-.04-.69-.12"/>
        <polyline class="st68" points="169.78 160.42 168.87 160.42 168.87 160.42 169.78 160.42 169.78 160.42"/>
        <path class="st45" d="M35.07,159.09v1.33h.47s0-.01,0-.02c0-.48-.16-.94-.47-1.31"/>
        <path class="st45" d="M50.19,157.73v2.61c.23-.28.38-.61.44-.97v-.67c-.06-.36-.21-.69-.44-.97M48.59,156.98c-.55,0-1.07.21-1.46.6-.39.39-.6.91-.6,1.46,0,.51.19,1,.53,1.38h1.76v-3.42c-.07,0-.15-.01-.22-.01"/>
        <path class="st45" d="M63.93,152.83h-2.06c-.15.29-.22.61-.22.93,0,.55.21,1.07.6,1.46.22.22.48.38.77.49.22.08.45.12.69.12.07,0,.15,0,.22-.01v-2.99M65.55,152.83h-.24v2.24c.3-.37.47-.83.47-1.31,0-.33-.08-.65-.22-.93"/>
        <path class="st45" d="M156.49,153.97c-.14.1-.3.17-.46.23v.87c.26-.32.42-.7.46-1.1M153.37,152.83h-.77c-.15.29-.22.61-.22.93,0,.55.22,1.07.6,1.46.22.22.48.38.77.49.22.08.45.12.69.12.07,0,.15,0,.22-.01v-1.62c-.29-.1-.55-.27-.77-.49-.25-.25-.43-.55-.52-.88"/>
        <path class="st45" d="M169.56,156.98c-.55,0-1.07.21-1.46.6-.39.39-.6.91-.6,1.46,0,.51.19,1,.53,1.38h1.76-.85c-.34-.38-.53-.87-.53-1.38,0-.55.22-1.07.6-1.46.28-.28.63-.47,1.01-.55-.15-.03-.3-.05-.45-.05"/>
        <path class="st45" d="M184.68,158.34c-.55,0-1.07.22-1.46.6-.39.39-.6.91-.6,1.46,0,0,0,.01,0,.02h2.3s0,0,0,0h-1.38c.03-.5.24-.97.6-1.32.28-.28.63-.47,1-.55v-.15c-.15-.03-.3-.05-.45-.05"/>
        <polyline class="st54" points="185.13 160.42 184.91 160.42 184.91 160.42 185.13 160.42 185.13 160.42"/>
        <path class="st64" d="M35.07,152.83h-1.14v5.56c.38.09.73.28,1,.55.05.05.09.1.14.15v-6.26"/>
        <path class="st54" d="M33.93,158.39v2.03h1.14v-1.33c-.04-.05-.09-.1-.14-.15-.28-.28-.63-.47-1-.55"/>
        <path class="st64" d="M50.19,160.35s-.04.05-.06.07h-.85s.91,0,.91,0v-.07M50.19,152.83h-1.37v4.16c.47.05.9.26,1.24.59.05.05.09.1.14.15v-4.91"/>
        <polyline class="st18" points="49.28 160.42 48.81 160.42 48.81 160.42 49.28 160.42 49.28 160.42"/>
        <path class="st54" d="M48.81,156.99v3.42h1.31s.04-.05.06-.07v-2.61c-.04-.05-.09-.1-.14-.15-.33-.34-.77-.54-1.24-.59"/>
        <path class="st64" d="M65.31,155.07c-.04.05-.09.1-.14.15-.22.22-.48.38-.77.49v4.71h.91v-5.35"/>
        <path class="st18" d="M64.4,155.71c-.15.05-.31.09-.47.11v4.6h.47v-4.71"/>
        <path class="st54" d="M65.31,152.83h-1.37v2.99c.16-.02.32-.05.47-.11.29-.1.55-.27.77-.49.05-.05.09-.1.14-.15v-2.24"/>
        <polyline class="st64" points="80.43 152.83 79.52 152.83 79.52 160.42 80.43 160.42 80.43 152.83"/>
        <polyline class="st18" points="79.52 152.83 79.05 152.83 79.05 160.42 79.52 160.42 79.52 152.83"/>
        <polyline class="st64" points="95.55 152.83 94.64 152.83 94.64 160.42 95.55 160.42 95.55 152.83"/>
        <polyline class="st18" points="94.64 152.83 94.18 152.83 94.18 160.42 94.64 160.42 94.64 152.83"/>
        <polyline class="st64" points="110.67 152.83 109.76 152.83 109.76 160.42 110.67 160.42 110.67 152.83"/>
        <polyline class="st18" points="109.76 152.83 109.3 152.83 109.3 160.42 109.76 160.42 109.76 152.83"/>
        <polyline class="st64" points="125.79 152.83 124.88 152.83 124.88 160.42 125.79 160.42 125.79 152.83"/>
        <polyline class="st18" points="124.88 152.83 124.42 152.83 124.42 160.42 124.88 160.42 124.88 152.83"/>
        <polyline class="st64" points="140.91 152.83 140 152.83 140 160.42 140.91 160.42 140.91 152.83"/>
        <polyline class="st18" points="140 152.83 139.54 152.83 139.54 160.42 140 160.42 140 152.83"/>
        <path class="st64" d="M156.03,155.07c-.04.05-.09.1-.14.15-.22.22-.48.38-.77.49v4.71h.91v-5.35"/>
        <path class="st18" d="M155.13,155.71c-.15.05-.31.09-.47.11v4.6h.47v-4.71"/>
        <path class="st54" d="M156.03,154.2c-.22.08-.45.12-.69.12s-.47-.04-.69-.12v1.62c.16-.02.32-.05.47-.11.29-.1.55-.27.77-.49.05-.05.09-.1.14-.15v-.87"/>
        <polyline class="st64" points="171.16 160.42 171.09 160.42 171.09 160.42 170.25 160.42 170.25 160.42 171.16 160.42 171.16 160.42"/>
        <polyline class="st18" points="170.25 160.42 169.78 160.42 169.78 160.42 170.25 160.42 170.25 160.42"/>
        <path class="st36" d="M157.33,152.83h-3.96c.1.33.27.63.52.88.22.22.48.39.77.49.22.08.45.12.69.12s.47-.04.69-.12c.16-.06.31-.13.46-.23.11-.07.22-.16.31-.26.25-.25.43-.55.52-.88"/>
        <path class="st36" d="M170.47,156.98c-.15,0-.31.02-.46.05-.38.08-.73.27-1.01.55-.39.39-.6.91-.6,1.46,0,.51.19,1,.53,1.38h3.07c.25-.28.41-.61.49-.97v-.81c-.08-.4-.27-.76-.56-1.05-.39-.39-.91-.6-1.46-.6"/>
        <path class="st36" d="M185.13,158.54c-.38.09-.73.28-1,.55-.36.35-.57.83-.6,1.32h1.6v-1.88"/>
        <path class="st15" d="M185.13,153.52h0v-1.37h0v1.37ZM178.26,153.52h3.44v-1.37h-3.44v1.37ZM171.39,153.52h3.44v-1.37h-3.44v1.37ZM164.51,153.52h3.44v-1.37h-3.44v1.37ZM157.64,153.52h3.44v-1.37h-3.44v1.37ZM150.77,153.52h3.44v-1.37h-3.44v1.37ZM143.9,153.52h3.44v-1.37h-3.44v1.37ZM137.02,153.52h3.44v-1.37h-3.44v1.37ZM130.15,153.52h3.44v-1.37h-3.44v1.37ZM123.28,153.52h3.44v-1.37h-3.44v1.37ZM116.4,153.52h3.44v-1.37h-3.44v1.37ZM109.53,153.52h3.44v-1.37h-3.44v1.37ZM102.66,153.52h3.44v-1.37h-3.44v1.37ZM95.78,153.52h3.44v-1.37h-3.44v1.37ZM88.91,153.52h3.44v-1.37h-3.44v1.37ZM82.04,153.52h3.44v-1.37h-3.44v1.37ZM75.16,153.52h3.44v-1.37h-3.44v1.37ZM68.29,153.52h3.44v-1.37h-3.44v1.37ZM61.42,153.52h3.44v-1.37h-3.44v1.37ZM54.55,153.52h3.44v-1.37h-3.44v1.37ZM47.67,153.52h3.44v-1.37h-3.44v1.37ZM40.8,153.52h3.44v-1.37h-3.44v1.37ZM33.93,153.52h3.44v-1.37h-3.44v1.37Z"/>
      </g>
      <polyline class="st49" points="33.84 160.55 33.84 158.18 34.01 158.18 34.01 160.55"/>
      <text class="st52" transform="translate(31.35 173.95)"><tspan x="0" y="0">0</tspan></text>
      <polyline class="st49" points="41.4 160.55 41.4 159.13 41.57 159.13 41.57 160.55"/>
      <polyline class="st49" points="48.96 160.55 48.96 159.13 49.13 159.13 49.13 160.55"/>
      <polyline class="st49" points="56.52 160.55 56.52 159.13 56.69 159.13 56.69 160.55"/>
      <polyline class="st49" points="64.08 160.55 64.08 158.18 64.25 158.18 64.25 160.55"/>
      <text class="st52" transform="translate(61.59 173.95)"><tspan x="0" y="0">2</tspan></text>
      <polyline class="st49" points="71.64 160.55 71.64 159.13 71.81 159.13 71.81 160.55"/>
      <polyline class="st49" points="79.2 160.55 79.2 159.13 79.38 159.13 79.38 160.55"/>
      <polyline class="st49" points="86.76 160.55 86.76 159.13 86.94 159.13 86.94 160.55"/>
      <polyline class="st49" points="94.32 160.55 94.32 158.18 94.49 158.18 94.49 160.55"/>
      <text class="st52" transform="translate(91.83 173.95)"><tspan x="0" y="0">4</tspan></text>
      <polyline class="st49" points="101.88 160.55 101.88 159.13 102.05 159.13 102.05 160.55"/>
      <polyline class="st49" points="109.44 160.55 109.44 159.13 109.62 159.13 109.62 160.55"/>
      <polyline class="st49" points="117.01 160.55 117.01 159.13 117.18 159.13 117.18 160.55"/>
      <polyline class="st49" points="124.57 160.55 124.57 158.18 124.74 158.18 124.74 160.55"/>
      <text class="st52" transform="translate(122.07 173.95)"><tspan x="0" y="0">6</tspan></text>
      <polyline class="st49" points="132.12 160.55 132.12 159.13 132.3 159.13 132.3 160.55"/>
      <polyline class="st49" points="139.68 160.55 139.68 159.13 139.86 159.13 139.86 160.55"/>
      <polyline class="st49" points="147.25 160.55 147.25 159.13 147.42 159.13 147.42 160.55"/>
      <polyline class="st49" points="154.81 160.55 154.81 158.18 154.98 158.18 154.98 160.55"/>
      <text class="st52" transform="translate(152.31 173.95)"><tspan x="0" y="0">8</tspan></text>
      <polyline class="st49" points="162.37 160.55 162.37 159.13 162.54 159.13 162.54 160.55"/>
      <polyline class="st49" points="169.92 160.55 169.92 159.13 170.1 159.13 170.1 160.55"/>
      <polyline class="st49" points="177.49 160.55 177.49 159.13 177.66 159.13 177.66 160.55"/>
      <polyline class="st49" points="185.05 160.55 185.05 158.18 185.22 158.18 185.22 160.55"/>
      <text class="st52" transform="translate(179.98 173.95)"><tspan x="0" y="0">10</tspan></text>
      <polyline class="st49" points="30.32 160.46 187.83 160.46 187.83 160.63 30.32 160.63"/>
      <polyline class="st49" points="33.93 160.46 36.29 160.46 36.29 160.63 33.93 160.63"/>
      <polyline class="st49" points="33.93 152.74 35.34 152.74 35.34 152.91 33.93 152.91"/>
      <polyline class="st49" points="33.93 145.02 35.34 145.02 35.34 145.19 33.93 145.19"/>
      <polyline class="st49" points="33.93 137.3 35.34 137.3 35.34 137.47 33.93 137.47"/>
      <polyline class="st49" points="33.93 129.58 36.29 129.58 36.29 129.75 33.93 129.75"/>
      <text class="st52" transform="translate(18.46 133.53)"><tspan x="0" y="0">0.2</tspan></text>
      <polyline class="st49" points="33.93 121.86 35.34 121.86 35.34 122.03 33.93 122.03"/>
      <polyline class="st49" points="33.93 114.13 35.34 114.13 35.34 114.31 33.93 114.31"/>
      <polyline class="st49" points="33.93 106.42 35.34 106.42 35.34 106.59 33.93 106.59"/>
      <polyline class="st49" points="33.93 98.69 36.29 98.69 36.29 98.87 33.93 98.87"/>
      <text class="st52" transform="translate(18.46 102.65)"><tspan x="0" y="0">0.4</tspan></text>
      <polyline class="st49" points="33.93 90.97 35.34 90.97 35.34 91.14 33.93 91.14"/>
      <polyline class="st49" points="33.93 83.25 35.34 83.25 35.34 83.43 33.93 83.43"/>
      <polyline class="st49" points="33.93 75.53 35.34 75.53 35.34 75.7 33.93 75.7"/>
      <polyline class="st49" points="33.93 67.81 36.29 67.81 36.29 67.98 33.93 67.98"/>
      <text class="st52" transform="translate(18.46 71.77)"><tspan x="0" y="0">0.6</tspan></text>
      <polyline class="st49" points="33.93 60.09 35.34 60.09 35.34 60.26 33.93 60.26"/>
      <polyline class="st49" points="33.93 52.37 35.34 52.37 35.34 52.54 33.93 52.54"/>
      <polyline class="st49" points="33.93 44.65 35.34 44.65 35.34 44.82 33.93 44.82"/>
      <polyline class="st49" points="33.93 36.93 36.29 36.93 36.29 37.1 33.93 37.1"/>
      <text class="st52" transform="translate(18.46 40.88)"><tspan x="0" y="0">0.8</tspan></text>
      <polyline class="st49" points="33.93 29.21 35.34 29.21 35.34 29.38 33.93 29.38"/>
      <polyline class="st49" points="33.93 21.49 35.34 21.49 35.34 21.66 33.93 21.66"/>
      <polyline class="st49" points="33.93 13.76 35.34 13.76 35.34 13.94 33.93 13.94"/>
      <polyline class="st49" points="33.93 6.04 36.29 6.04 36.29 6.21 33.93 6.21"/>
      <text class="st52" transform="translate(18.46 10)"><tspan x="0" y="0">1.0</tspan></text>
      <polyline class="st49" points="33.84 160.55 33.84 3.04 34.01 3.04 34.01 160.55"/>
    </g>
    <g id="LaTeX2AI">
      <g class="st5">
        <text class="st23" transform="translate(8.97 108.39) rotate(-90)"><tspan x="0" y="0">Probability</tspan></text>
      </g>
    </g>
    <g class="st67">
      <g>
        <line class="st2" x1="208.4" y1="156.15" x2="193.73" y2="156.15"/>
        <path class="st19" d="M189.2,156.15c2.13-.79,4.77-2.14,6.41-3.57l-1.29,3.57,1.29,3.57c-1.64-1.43-4.28-2.78-6.41-3.57Z"/>
      </g>
    </g>
  </g>
  <g id="Layer_5">
    <g>
      <path class="st3" d="M142.72,34.1h109.29c.89,0,1.33-.24,1.33-.71V2.34c0-.48-.44-.71-1.33-.71h-109.29c-.89,0-1.33.24-1.33.71v31.04c0,.48.44.71,1.33.71Z"/>
      <path class="st0" d="M142.72,34.1h109.29c.89,0,1.33-.24,1.33-.71V2.34c0-.48-.44-.71-1.33-.71h-109.29c-.89,0-1.33.24-1.33.71v31.04c0,.48.44.71,1.33.71Z"/>
    </g>
  </g>
  <g id="Layer_4">
    <g id="LaTeX2AI1" data-name="LaTeX2AI">
      <g class="st55">
        <path d="M159.72,10.1c-.32,0-.53-.05-.94-.25l-.02-.34c.4.15.62.21.86.21.96,0,1.75-.96,1.75-2.14,0-1.01-.53-1.49-1.65-1.49-.21,0-.38.02-.77.09-.03.14-.07.25-.08.31-.05.21-.1.44-.1.44l-.89,5.31c-.03.21-.04.28-.04.38,0,.23.11.32.39.33l.71.03-.03.31c-.5-.02-1-.03-1.52-.03-.48,0-.96.01-1.44.03l.04-.31.45-.03c.44-.03.46-.07.63-1.06l.81-4.73c.05-.34.1-.68.1-.83,0-.2-.12-.28-.38-.29l-.6-.02.03-.31c.6.02,1.2.03,1.81.03.5,0,1-.03,1.51-.03.95,0,1.99.55,1.99,1.65,0,1.48-1.2,2.76-2.61,2.76Z"/>
        <text class="st25" transform="translate(163.06 13.24)"><tspan x="0" y="0">(</tspan></text>
        <path d="M170.91,13.34c-.21,0-.33-.16-.33-.44,0-.17.04-.43.14-.83l.57-2.31c.09-.35.12-.58.12-.77,0-.16-.07-.26-.19-.26-.49,0-1.3.68-1.9,1.59-.49.75-.73,1.46-.94,2.84-.24.04-.49.11-.76.19l-.08-.12c.45-1.56.89-3.67.89-4.22,0-.16-.08-.27-.2-.27-.08,0-.12.01-.51.27l-.35.23-.08-.22.31-.22c.8-.57,1.22-.81,1.45-.81.16,0,.25.13.25.36,0,.12-.02.25-.07.45l-.41,1.76c.57-.8.87-1.17,1.29-1.55.64-.6,1.4-1.01,1.85-1.01.22,0,.34.14.34.39,0,.19-.04.49-.12.81l-.72,3.01s-.02.16-.02.22c0,.12.07.22.14.22.11,0,.35-.12.67-.33l.28-.19.11.2c-1.07.8-1.46,1.03-1.75,1.03Z"/>
        <path d="M178.06,14.87c-.37,0-.75,0-1.12.02l.03-.22.4-.02c.18,0,.26-.05.29-.11.04-.05.1-.27.17-.66l.32-1.71s-.89-.02-1.47-.02-1.47.02-1.47.02l-.33,1.97c-.02.15-.03.21-.03.28,0,.17.07.22.29.24l.39.02-.02.22c-.33-.02-.65-.02-.98-.02-.35,0-.7,0-1.05.02l.03-.22.33-.02c.32-.02.33-.04.46-.77l.59-3.46c.04-.25.07-.49.07-.61,0-.14-.09-.21-.28-.22l-.37-.02.02-.22c.37.02.75.02,1.12.02.3,0,.61,0,.91-.02l-.02.22-.33.02c-.29.02-.35.07-.41.38l-.33,1.82h2.95l.24-1.39c.04-.24.07-.49.07-.61,0-.14-.09-.21-.28-.22l-.38-.02.02-.22c.37.02.76.02,1.14.02.29,0,.57,0,.85-.02l-.02.22-.29.02c-.3.02-.35.07-.41.38l-.73,4.14c-.02.14-.03.21-.03.28,0,.17.08.23.29.24l.46.02-.02.22c-.35-.02-.7-.02-1.05-.02Z"/>
        <text class="st25" transform="translate(180.68 13.24)"><tspan x="0" y="0">|</tspan></text>
        <path d="M188.43,11.87c-.47.69-1.72,1.48-2.33,1.48-.12,0-.28-.02-.57-.12l-.1-.03-.46,2.86c-.35.05-.57.11-.8.19l-.08-.07.09-.4.53-2.63.63-3.74c.02-.11.04-.33.04-.41,0-.15-.08-.25-.19-.25-.1,0-.22.05-.52.25l-.35.23-.08-.22.31-.22c.81-.58,1.22-.81,1.45-.81.15,0,.24.12.24.33,0,.13-.02.29-.05.48l-.26,1.3c.39-.64.62-.92,1.06-1.31.58-.5,1.15-.8,1.6-.8.39,0,.64.48.64,1.21,0,.82-.37,2.02-.82,2.68ZM188.05,8.61c-.91,0-2.07,1.43-2.31,2.83l-.2,1.16c.28.17.56.25.89.25.45,0,.8-.16,1.01-.48.58-.83,1.01-2.13,1.01-3.01,0-.5-.13-.74-.41-.74Z"/>
        <text class="st26" transform="translate(193.21 13.24)"><tspan x="0" y="0">=</tspan></text>
        <text class="st23" transform="translate(203.53 13.24)"><tspan x="0" y="0">0</tspan></text>
        <text class="st24" transform="translate(209.16 13.24)"><tspan x="0" y="0">.</tspan></text>
        <text class="st23" transform="translate(212.08 13.24)"><tspan x="0" y="0">5</tspan></text>
        <text class="st25" transform="translate(217.53 13.24)"><tspan x="0" y="0">)</tspan></text>
      </g>
    </g>
    <g id="LaTeX2AI2" data-name="LaTeX2AI">
      <g class="st37">
        <path d="M159.78,24.53c-.32,0-.53-.05-.94-.25l-.02-.34c.4.15.62.21.86.21.96,0,1.75-.96,1.75-2.14,0-1.01-.53-1.49-1.65-1.49-.21,0-.38.02-.77.09-.03.14-.07.25-.08.31-.05.21-.1.44-.1.44l-.89,5.31c-.03.21-.04.28-.04.38,0,.23.11.32.39.33l.71.03-.03.31c-.5-.02-1-.03-1.52-.03-.48,0-.96.01-1.44.03l.04-.31.45-.03c.44-.03.46-.07.63-1.06l.81-4.73c.05-.34.1-.68.1-.83,0-.2-.12-.28-.38-.29l-.6-.02.03-.31c.6.02,1.2.03,1.81.03.5,0,1-.03,1.51-.03.95,0,1.99.55,1.99,1.65,0,1.48-1.2,2.76-2.61,2.76Z"/>
        <text class="st25" transform="translate(163.12 27.67)"><tspan x="0" y="0">(</tspan></text>
        <path d="M170.98,27.77c-.21,0-.33-.16-.33-.44,0-.17.04-.43.14-.83l.57-2.31c.09-.35.12-.58.12-.77,0-.16-.07-.26-.19-.26-.49,0-1.3.68-1.9,1.59-.49.75-.73,1.46-.94,2.84-.24.04-.49.11-.76.19l-.08-.12c.45-1.56.89-3.67.89-4.22,0-.16-.08-.27-.2-.27-.08,0-.12.01-.51.27l-.35.23-.08-.22.31-.22c.8-.57,1.22-.81,1.45-.81.16,0,.25.13.25.36,0,.12-.02.25-.07.45l-.41,1.76c.57-.8.87-1.17,1.29-1.55.64-.6,1.4-1.01,1.85-1.01.22,0,.34.14.34.39,0,.19-.04.49-.12.81l-.72,3.01s-.02.16-.02.22c0,.12.07.22.14.22.11,0,.35-.12.67-.33l.28-.19.11.2c-1.07.8-1.46,1.03-1.75,1.03Z"/>
        <path d="M175.98,20.8l-1.37,2.17c-.06.1-.21.27-.33.27-.08,0-.13-.1-.13-.18,0-.08.06-.23.08-.29l.88-2.54c.09-.25.23-.56.54-.56.27,0,.57.21.57.49,0,.22-.13.45-.24.63Z"/>
        <path d="M178.12,31.79c-.37,0-.75,0-1.12.02l.03-.22.4-.02c.18,0,.26-.05.29-.11.04-.05.1-.27.17-.66l.32-1.71s-.89-.02-1.47-.02-1.47.02-1.47.02l-.33,1.97c-.02.15-.03.21-.03.28,0,.17.07.22.29.24l.39.02-.02.22c-.33-.02-.65-.02-.98-.02-.35,0-.7,0-1.05.02l.03-.22.33-.02c.32-.02.33-.04.46-.77l.59-3.46c.04-.25.07-.49.07-.61,0-.14-.09-.21-.28-.22l-.37-.02.02-.22c.37.02.75.02,1.12.02.3,0,.61,0,.91-.02l-.02.22-.33.02c-.29.02-.35.07-.41.38l-.33,1.82h2.95l.24-1.39c.04-.24.07-.49.07-.61,0-.14-.09-.21-.28-.22l-.38-.02.02-.22c.37.02.76.02,1.14.02.29,0,.57,0,.85-.02l-.02.22-.29.02c-.3.02-.35.07-.41.38l-.73,4.14c-.02.14-.03.21-.03.28,0,.17.08.23.29.24l.46.02-.02.22c-.35-.02-.7-.02-1.05-.02Z"/>
        <text class="st25" transform="translate(183.78 27.67)"><tspan x="0" y="0">≥</tspan></text>
        <path d="M198.84,27.77c-.21,0-.33-.16-.33-.44,0-.17.04-.43.14-.83l.57-2.31c.09-.35.12-.58.12-.77,0-.16-.07-.26-.19-.26-.49,0-1.3.68-1.9,1.59-.49.75-.73,1.46-.94,2.84-.24.04-.49.11-.76.19l-.08-.12c.45-1.56.89-3.67.89-4.22,0-.16-.08-.27-.2-.27-.08,0-.12.01-.51.27l-.35.23-.08-.22.31-.22c.8-.57,1.22-.81,1.45-.81.16,0,.25.13.25.36,0,.12-.02.25-.07.45l-.41,1.76c.57-.8.87-1.17,1.29-1.55.64-.6,1.4-1.01,1.85-1.01.22,0,.34.14.34.39,0,.19-.04.49-.12.81l-.72,3.01s-.02.16-.02.22c0,.12.07.22.14.22.11,0,.35-.12.67-.33l.28-.19.11.2c-1.07.8-1.46,1.03-1.75,1.03Z"/>
        <path d="M205.99,29.31c-.37,0-.75,0-1.12.02l.03-.22.4-.02c.18,0,.26-.05.29-.11.04-.05.1-.27.17-.66l.32-1.71s-.89-.02-1.47-.02-1.47.02-1.47.02l-.33,1.97c-.02.15-.03.21-.03.28,0,.17.07.22.29.24l.39.02-.02.22c-.33-.02-.65-.02-.98-.02-.35,0-.7,0-1.05.02l.03-.22.33-.02c.32-.02.33-.04.46-.77l.59-3.46c.04-.25.07-.49.07-.61,0-.14-.09-.21-.28-.22l-.37-.02.02-.22c.37.02.75.02,1.12.02.3,0,.61,0,.91-.02l-.02.22-.33.02c-.29.02-.35.07-.41.38l-.33,1.82h2.95l.24-1.39c.04-.24.07-.49.07-.61,0-.14-.09-.21-.28-.22l-.38-.02.02-.22c.37.02.76.02,1.14.02.29,0,.57,0,.85-.02l-.02.22-.29.02c-.3.02-.35.07-.41.38l-.73,4.14c-.02.14-.03.21-.03.28,0,.17.08.23.29.24l.46.02-.02.22c-.35-.02-.7-.02-1.05-.02Z"/>
        <text class="st25" transform="translate(208.62 27.67)"><tspan x="0" y="0">|</tspan></text>
        <path d="M216.36,26.31c-.47.69-1.72,1.48-2.33,1.48-.12,0-.28-.02-.57-.12l-.1-.03-.46,2.86c-.35.05-.57.11-.8.19l-.08-.07.09-.4.53-2.63.63-3.74c.02-.11.04-.33.04-.41,0-.15-.08-.25-.19-.25-.1,0-.22.05-.52.25l-.35.23-.08-.22.31-.22c.81-.58,1.22-.81,1.45-.81.15,0,.24.12.24.33,0,.13-.02.29-.05.48l-.26,1.3c.39-.64.62-.92,1.06-1.31.58-.5,1.15-.8,1.6-.8.39,0,.64.48.64,1.21,0,.82-.37,2.02-.82,2.68ZM215.98,23.05c-.91,0-2.07,1.43-2.31,2.83l-.2,1.16c.28.17.56.25.89.25.45,0,.8-.16,1.01-.48.58-.83,1.01-2.13,1.01-3.01,0-.5-.13-.74-.41-.74Z"/>
        <text class="st26" transform="translate(221.14 27.67)"><tspan x="0" y="0">=</tspan></text>
        <text class="st23" transform="translate(231.47 27.67)"><tspan x="0" y="0">0</tspan></text>
        <text class="st24" transform="translate(237.1 27.67)"><tspan x="0" y="0">.</tspan></text>
        <text class="st23" transform="translate(240.01 27.67)"><tspan x="0" y="0">5</tspan></text>
        <text class="st25" transform="translate(245.46 27.67)"><tspan x="0" y="0">)</tspan></text>
      </g>
    </g>
    <g class="st41">
      <path class="st56" d="M151.05,25.49c0-.55-.22-1.07-.6-1.46-.39-.39-.91-.6-1.46-.6s-1.07.21-1.46.6c-.39.39-.6.91-.6,1.46s.21,1.07.6,1.46c.39.39.91.6,1.46.6s1.07-.21,1.46-.6c.39-.39.6-.91.6-1.46Z"/>
    </g>
    <g class="st22">
      <path class="st57" d="M151.02,9.88c0-.55-.22-1.07-.6-1.46-.39-.39-.91-.6-1.46-.6s-1.07.21-1.46.6c-.39.39-.6.91-.6,1.46s.22,1.07.6,1.46c.39.39.91.6,1.46.6s1.07-.21,1.46-.6c.39-.39.6-.91.6-1.46"/>
    </g>
  </g>
</svg>